<svg width="177" height="175" viewBox="0 0 177 175" fill="none" xmlns="http://www.w3.org/2000/svg">
<path d="M161.377 63.861C170.77 92.2757 132.457 152.956 95.6441 151.82C42.6504 150.184 -0.293972 101.641 25.1423 66.0014C40.5775 44.3748 80.6263 33.9309 113.934 37.8521C135.247 40.3613 153.801 48.753 161.377 63.861Z" fill="url(#paint0_linear)"/>
<path d="M122.781 49.3125H63.1562C61.8385 49.3125 60.5746 49.836 59.6428 50.7678C58.711 51.6996 58.1875 52.9635 58.1875 54.2812V59.25H53.2188C51.901 59.25 50.6371 59.7735 49.7053 60.7053C48.7735 61.6371 48.25 62.901 48.25 64.2188V143.719C48.25 145.037 48.7735 146.3 49.7053 147.232C50.6371 148.164 51.901 148.688 53.2188 148.688H112.844C114.162 148.688 115.425 148.164 116.357 147.232C117.289 146.3 117.812 145.037 117.812 143.719V138.75H122.781C124.099 138.75 125.363 138.227 126.295 137.295C127.227 136.363 127.75 135.099 127.75 133.781V54.2812C127.75 52.9635 127.227 51.6996 126.295 50.7678C125.363 49.836 124.099 49.3125 122.781 49.3125V49.3125ZM114.5 143.719C114.5 144.158 114.326 144.579 114.015 144.89C113.704 145.201 113.283 145.375 112.844 145.375H53.2188C52.7795 145.375 52.3582 145.201 52.0476 144.89C51.737 144.579 51.5625 144.158 51.5625 143.719V64.2188C51.5625 63.7795 51.737 63.3582 52.0476 63.0476C52.3582 62.737 52.7795 62.5625 53.2188 62.5625H97.9375V75.8125C97.9374 76.168 98.0517 76.5141 98.2635 76.7996C98.4753 77.0851 98.7733 77.2949 99.1135 77.398C99.4538 77.5011 99.8181 77.4919 100.153 77.3719C100.487 77.252 100.775 77.0275 100.972 76.7317L102.906 73.825L104.841 76.7268C105.038 77.0222 105.324 77.2465 105.659 77.3666C105.993 77.4866 106.357 77.4962 106.697 77.3937C107.037 77.2913 107.335 77.0823 107.547 76.7976C107.759 76.5129 107.874 76.1676 107.875 75.8125V62.5625H112.844C113.283 62.5625 113.704 62.737 114.015 63.0476C114.326 63.3582 114.5 63.7795 114.5 64.2188V143.719ZM101.25 62.5625H104.562V70.3469L104.284 69.9295C104.133 69.7027 103.928 69.5167 103.688 69.388C103.447 69.2594 103.179 69.1921 102.906 69.1921C102.634 69.1921 102.365 69.2594 102.125 69.388C101.884 69.5167 101.68 69.7027 101.528 69.9295L101.25 70.3469V62.5625ZM124.438 133.781C124.438 134.221 124.263 134.642 123.952 134.952C123.642 135.263 123.221 135.438 122.781 135.438H117.812V64.2188C117.812 62.901 117.289 61.6371 116.357 60.7053C115.425 59.7735 114.162 59.25 112.844 59.25H61.5V54.2812C61.5 53.842 61.6745 53.4207 61.9851 53.1101C62.2957 52.7995 62.717 52.625 63.1562 52.625H122.781C123.221 52.625 123.642 52.7995 123.952 53.1101C124.263 53.4207 124.438 53.842 124.438 54.2812V133.781Z" fill="#6F026D"/>
<path fill-rule="evenodd" clip-rule="evenodd" d="M58.6167 86.6425C58.6167 85.7325 59.3544 84.9948 60.2644 84.9948L104.751 84.9948C105.661 84.9948 106.399 85.7325 106.399 86.6425C106.399 87.5525 105.661 88.2901 104.751 88.2901L60.2644 88.2901C59.3544 88.2901 58.6167 87.5525 58.6167 86.6425Z" fill="#6F026D"/>
<path fill-rule="evenodd" clip-rule="evenodd" d="M58.6167 95.43C58.6167 94.5201 59.3544 93.7824 60.2644 93.7824L104.751 93.7824C105.661 93.7824 106.399 94.5201 106.399 95.43C106.399 96.34 105.661 97.0777 104.751 97.0777L60.2644 97.0777C59.3544 97.0777 58.6167 96.34 58.6167 95.43Z" fill="#6F026D"/>
<path fill-rule="evenodd" clip-rule="evenodd" d="M58.6167 104.218C58.6167 103.308 59.3544 102.57 60.2644 102.57L104.751 102.57C105.661 102.57 106.399 103.308 106.399 104.218C106.399 105.128 105.661 105.865 104.751 105.865L60.2644 105.865C59.3544 105.865 58.6167 105.128 58.6167 104.218Z" fill="#6F026D"/>
<path fill-rule="evenodd" clip-rule="evenodd" d="M58.6167 113.005C58.6167 112.095 59.3544 111.358 60.2644 111.358L104.751 111.358C105.661 111.358 106.399 112.095 106.399 113.005C106.399 113.915 105.661 114.653 104.751 114.653L60.2644 114.653C59.3544 114.653 58.6167 113.915 58.6167 113.005Z" fill="#6F026D"/>
<path fill-rule="evenodd" clip-rule="evenodd" d="M58.6167 121.793C58.6167 120.883 59.3544 120.145 60.2644 120.145L104.751 120.145C105.661 120.145 106.399 120.883 106.399 121.793C106.399 122.703 105.661 123.44 104.751 123.44L60.2644 123.44C59.3544 123.44 58.6167 122.703 58.6167 121.793Z" fill="#6F026D"/>
<path fill-rule="evenodd" clip-rule="evenodd" d="M58.6167 130.58C58.6167 129.67 59.3544 128.933 60.2644 128.933H104.751C105.661 128.933 106.399 129.67 106.399 130.58C106.399 131.49 105.661 132.228 104.751 132.228H60.2644C59.3544 132.228 58.6167 131.49 58.6167 130.58Z" fill="#6F026D"/>
<defs>
<linearGradient id="paint0_linear" x1="94.6113" y1="132.292" x2="130.217" y2="45.0832" gradientUnits="userSpaceOnUse">
<stop stop-color="#B1E7ED"/>
<stop offset="1" stop-color="#C2EEF2"/>
</linearGradient>
</defs>
</svg>
