<svg width="160" height="156" viewBox="0 0 160 156" fill="none" xmlns="http://www.w3.org/2000/svg">
<path d="M114.711 9.86002C141.446 23.3102 157.262 93.3092 130.428 118.536C91.7985 154.852 27.1072 150.893 19.8925 107.706C15.5145 81.4993 36.4483 45.7955 62.7728 25.0164C79.6183 11.7196 98.6712 4.53425 114.711 9.86002Z" fill="url(#paint0_linear)"/>
<g clip-path="url(#clip0)">
<path d="M108.994 70.3693C106.497 70.1339 104.006 70.9511 102.161 72.6124C101.933 72.8177 101.717 73.034 101.514 73.2595C100.132 70.7038 97.5876 68.8702 94.6186 68.5895C92.1211 68.3542 89.6306 69.1713 87.7856 70.8326C87.5577 71.038 87.3416 71.2542 87.1381 71.4798C85.9313 69.249 83.8393 67.5684 81.3521 66.9906C85.663 62.7463 88.2498 56.8918 88.2498 50.6404C88.2496 37.9447 77.8203 27.6157 65.0012 27.6157C52.182 27.6157 41.7529 37.9447 41.7529 50.6406C41.7529 59.9552 47.492 68.3928 56.1287 71.928V81.8166L49.6553 86.396C45.8199 89.1094 44.2445 93.908 45.735 98.3362L52.1194 117.306C54.7992 125.267 62.2923 130.616 70.7654 130.616H97.3467C108.184 130.616 117.001 121.884 117.001 111.151V79.4218C117.001 74.7695 113.484 70.7936 108.994 70.3693ZM45.1222 50.6406C45.1222 39.7848 54.0399 30.9528 65.0012 30.9528C75.9624 30.9528 84.8801 39.7848 84.8801 50.6406C84.8801 58.1338 80.5369 64.9622 73.8736 68.262V63.8994C78.3306 60.9665 81.0616 55.9733 81.0616 50.6406C81.0616 41.8701 73.8568 34.7346 65.0012 34.7346C56.1455 34.7346 48.9407 41.8701 48.9407 50.6406C48.9407 55.9729 51.6719 60.9663 56.1287 63.8994V68.262C49.4658 64.9622 45.1222 58.1336 45.1222 50.6406ZM65.8669 41.8945C63.3692 41.6587 60.8789 42.4759 59.0342 44.1373C57.1878 45.8 56.1287 48.1704 56.1287 50.6406V59.6217C53.7239 57.2829 52.3101 54.0495 52.3101 50.6406C52.3101 43.71 58.0033 38.0716 65.0012 38.0716C71.999 38.0716 77.6922 43.71 77.6922 50.6406C77.6922 54.0499 76.2784 57.2831 73.8736 59.6219V50.9468C73.8738 46.2945 70.3569 42.3181 65.8669 41.8945ZM97.3467 127.279H70.7652C63.7444 127.279 57.5359 122.847 55.3158 116.251L48.9314 97.281C47.9113 94.2512 48.9892 90.968 51.6136 89.1116L56.1287 85.9174V100.473C56.1287 101.394 56.8827 102.141 57.8134 102.141C58.7439 102.141 59.4981 101.394 59.4981 100.473V50.6406C59.4981 49.1083 60.1552 47.6377 61.3006 46.6065C62.4617 45.561 63.9709 45.0671 65.5471 45.2164C68.3271 45.4787 70.5046 47.9958 70.5046 50.9466V86.2347C70.5046 87.156 71.2586 87.9032 72.1893 87.9032C73.1198 87.9032 73.874 87.1562 73.874 86.2347V75.5565C73.874 74.0242 74.5311 72.5536 75.6766 71.5224C76.8374 70.4771 78.345 69.982 79.9231 70.1323C82.7029 70.3948 84.8803 72.9119 84.8803 75.8627V77.3363V88.0144C84.8803 88.9358 85.6343 89.683 86.5651 89.683C87.4958 89.683 88.2498 88.936 88.2498 88.0144V77.3363C88.2498 75.8039 88.9069 74.3334 90.0523 73.3022C91.2132 72.2569 92.7208 71.7618 94.2988 71.9121C97.0786 72.1746 99.2561 74.6917 99.2561 77.6424V79.1156V89.7938C99.2561 90.7152 100.01 91.4623 100.941 91.4623C101.872 91.4623 102.626 90.7154 102.626 89.7938V79.1156C102.626 77.5833 103.282 76.1127 104.428 75.0815C105.589 74.0362 107.096 73.5412 108.675 73.6914C111.454 73.954 113.632 76.471 113.632 79.4218V111.15H113.632C113.632 120.044 106.326 127.279 97.3467 127.279Z" fill="#6F026D"/>
</g>
<defs>
<linearGradient id="paint0_linear" x1="115.889" y1="105.459" x2="79.4001" y2="18.6155" gradientUnits="userSpaceOnUse">
<stop stop-color="#B1E7ED"/>
<stop offset="1" stop-color="#C2EEF2"/>
</linearGradient>
<clipPath id="clip0">
<rect x="27.377" y="27.6157" width="104" height="103" fill="white"/>
</clipPath>
</defs>
</svg>
