<svg width="98" height="54" viewBox="0 0 98 54" fill="none" xmlns="http://www.w3.org/2000/svg">
<path d="M81.8804 21.3399C80.5015 21.3399 79.1226 21.5326 77.8387 21.8698C75.5088 18.4496 71.6573 16.2337 67.2352 16.2337C65.8087 16.2337 64.4297 16.4746 63.1459 16.9081C61.0062 7.22569 52.4472 0 42.2241 0C40.227 0 38.2774 0.289026 36.423 0.81891H36.3755C34.9965 1.20428 33.6651 1.73417 32.4288 2.40856C32.3813 2.40856 32.3813 2.45674 32.3337 2.45674C32.096 2.55308 31.8582 2.6976 31.668 2.84211C31.6205 2.84211 31.6205 2.89028 31.5729 2.89028C30.622 3.42016 29.7185 4.04639 28.9102 4.72079C28.8626 4.76896 28.8151 4.76896 28.7675 4.81713C28.5773 4.96164 28.4347 5.10616 28.2445 5.25067C28.1969 5.29885 28.1018 5.34701 28.0543 5.44336C27.9116 5.58787 27.7214 5.73238 27.5788 5.87689C27.5312 5.92507 27.4361 6.02141 27.3886 6.06958C27.2459 6.2141 27.1033 6.35861 26.9606 6.50312C26.9131 6.55129 26.8655 6.64764 26.7704 6.69581C26.4851 7.03301 26.1998 7.32204 25.9145 7.65924C25.867 7.70741 25.8194 7.75557 25.7719 7.80375C25.6768 7.94826 25.5341 8.09278 25.439 8.23729C25.3439 8.33363 25.2488 8.47815 25.2013 8.57449C25.1062 8.719 25.0111 8.86352 24.916 8.95986C24.8209 9.10437 24.7258 9.20072 24.6307 9.34523C24.5356 9.48975 24.4405 9.58608 24.3454 9.7306C24.2503 9.87511 24.1552 10.0196 24.0601 10.1641C23.965 10.3087 23.9175 10.405 23.8224 10.5495C23.7273 10.7422 23.5846 10.9349 23.4895 11.1276C23.442 11.2239 23.3944 11.3203 23.3469 11.3684C23.2042 11.6575 23.0616 11.9465 22.9189 12.1873C22.8714 12.2837 22.8238 12.38 22.7763 12.4764C22.6812 12.6691 22.5861 12.8617 22.491 13.0544C22.4434 13.1508 22.3959 13.2953 22.3483 13.3916C22.2532 13.5843 22.2057 13.777 22.1106 13.9697C22.063 14.066 22.0155 14.2105 21.9679 14.3069C21.8728 14.4996 21.8253 14.7404 21.7302 14.9813C21.6826 15.0776 21.6826 15.174 21.6351 15.2703C21.4449 15.8965 21.2547 16.5709 21.1596 17.1971C21.1596 17.2935 21.112 17.3417 21.112 17.438C21.0645 17.6789 21.0169 17.9197 20.9694 18.2087C20.9694 18.3051 20.9218 18.4014 20.9218 18.5459C20.8743 18.7868 20.8743 19.0277 20.8267 19.2685C20.8267 19.3649 20.8267 19.4612 20.7792 19.6057C20.7316 19.8466 20.7316 20.1356 20.7316 20.3765C20.7316 20.4728 20.7316 20.5691 20.7316 20.6173C20.7316 20.9545 20.6841 21.3399 20.6841 21.6771C20.6841 21.9179 20.6841 22.1588 20.6841 22.3996C19.1625 21.9179 17.5934 21.6771 15.9291 21.6771C7.13244 21.6771 0 28.9028 0 37.8626C0 42.3426 1.80688 46.3889 4.65986 49.2792C7.56039 52.2177 11.5546 54 15.9291 54H63.8116H72.6558H81.8804C90.7722 54 97.9998 46.678 97.9998 37.6699C98.0473 28.6137 90.8198 21.3399 81.8804 21.3399Z" fill="#E1F4FE"/>
</svg>
