<svg width="45" height="44" viewBox="0 0 45 44" fill="none" xmlns="http://www.w3.org/2000/svg">
<path d="M44.04 22C44.04 18.72 41.36 16.04 38.08 16.04H36.4L37.56 14.88C39.88 12.56 39.88 8.76 37.56 6.44C35.24 4.12 31.44 4.12 29.12 6.44L27.96 7.6V5.96C27.96 2.68 25.28 0 22 0C18.72 0 16.04 2.68 16.04 5.96V7.6L14.88 6.44C12.56 4.12 8.76 4.12 6.44 6.44C4.12 8.76 4.12 12.56 6.44 14.88L7.6 16.04H5.96C2.68 16.04 0 18.72 0 22C0 25.28 2.68 27.96 5.96 27.96H7.6L6.44 29.12C4.12 31.44 4.12 35.24 6.44 37.56C8.76 39.88 12.56 39.88 14.88 37.56L16.04 36.4V38.04C16.04 41.32 18.72 44 22 44C25.28 44 27.96 41.32 27.96 38.04V36.4L29.12 37.56C31.44 39.88 35.24 39.88 37.56 37.56C39.88 35.24 39.88 31.44 37.56 29.12L36.4 27.96H38.04C41.32 27.96 44.04 25.28 44.04 22Z" fill="#CAE0EC"/>
<path d="M21.9998 28.3601C25.5123 28.3601 28.3598 25.5127 28.3598 22.0001C28.3598 18.4876 25.5123 15.6401 21.9998 15.6401C18.4872 15.6401 15.6398 18.4876 15.6398 22.0001C15.6398 25.5127 18.4872 28.3601 21.9998 28.3601Z" fill="#063854"/>
</svg>
