<svg width="791" height="561" viewBox="0 0 791 561" fill="none" xmlns="http://www.w3.org/2000/svg">
<path fill-rule="evenodd" clip-rule="evenodd" d="M687.751 319.433C688.868 320.571 689.448 324.875 687.751 325.889C686.447 327.235 682.226 325.351 684.274 323.406C684.295 321.026 685.868 325.786 686.758 322.91C682.557 318.067 679.639 328.931 685.764 329.863C688.868 330.339 691.31 326.8 691.724 325.889C693.897 321.088 689.779 310.618 683.281 310.99C677.197 311.342 671.796 320.737 673.348 327.379C675.418 336.257 688.62 333.732 687.254 343.769C686.385 350.225 678.501 351.28 680.301 358.668C681.232 362.455 687.999 363.366 687.751 368.601C687.482 374.457 676.949 378.493 679.805 387.474C681.667 389.108 685.413 388.819 687.254 390.453C690.669 397.696 683.136 403.077 683.281 410.319C683.343 413.113 686.592 416.279 686.758 420.252C686.882 423.232 686.737 428.426 681.791 427.702C680.239 425.653 683.654 425.177 684.274 423.729C685.951 418.845 682.164 417.086 681.295 413.299C679.577 405.829 687.875 400.097 684.771 391.943C682.784 390.619 678.915 391.178 677.818 388.964C679.163 384.514 677.239 380.976 679.308 376.547C681.026 372.843 685.247 372.119 685.268 368.601C685.288 364.752 681.833 364.214 678.811 361.648C673.265 353.184 686.013 348.59 684.771 341.285C683.964 336.485 673.079 334.498 671.362 329.366C668.547 321.026 676.369 309.148 682.784 309.003C690.462 308.838 695.139 314.673 694.207 326.883C691.29 328.559 690.524 332.035 687.254 332.346C679.329 333.091 675.604 317.922 687.751 319.433Z" fill="black"/>
<path fill-rule="evenodd" clip-rule="evenodd" d="M668.38 421.246C661.779 412.554 654.309 429.233 663.414 431.675C672.54 434.138 678.582 421.535 673.843 412.306C660.827 409.719 660.558 397.034 671.857 391.447C673.347 386.791 672.871 383.728 670.864 381.017C668.629 377.975 663.331 377.375 660.931 374.064C652.281 362.124 670.677 351.467 666.89 336.319C665.173 329.469 659.585 323.986 650.501 329.863C646.776 337.023 652.343 346.438 658.447 339.796C658.447 338.471 658.447 337.147 658.447 335.822C657.185 336.133 653.708 339.671 652.488 335.326C652.777 332.47 655.654 332.201 658.944 332.346C660.724 335.429 661.22 337.395 660.434 341.285C645.431 354.467 641.106 319.578 661.427 325.393C667.739 330.235 670.036 334.664 669.87 341.782C669.622 352.046 657.764 358.565 661.924 370.091C664.759 377.913 679.969 379.01 674.34 391.943C671.133 395.213 664.821 397.241 664.904 402.373C664.987 407.898 670.843 406.077 674.837 410.319C678.768 414.5 676.616 418.824 677.32 425.219C673.761 435.607 655.55 435.876 656.957 423.232C657.475 418.638 661.82 416.838 667.387 416.279C669.539 417.604 670.657 419.963 670.367 423.729C666.373 424.081 663.91 422.901 663.414 419.756C665.752 417.914 665.876 421.701 668.38 421.246Z" fill="black"/>
<path fill-rule="evenodd" clip-rule="evenodd" d="M707.615 371.581C708.526 370.505 709.291 369.284 711.588 369.594C712.768 370.919 711.878 373.195 710.595 373.568C711.05 374.437 711.712 375.099 712.582 375.554C721.087 369.118 704.511 360.427 700.165 368.104C700.021 370.298 703.228 371.664 703.642 374.064C704.283 377.851 700.248 382.383 700.662 386.48C701.097 390.785 705.608 393.992 703.642 399.393C703.042 401.028 701.428 401.711 700.662 403.366C699.027 403.387 698.758 404.773 696.689 404.36C691.64 409.843 698.551 418.39 694.702 424.722C693.999 425.881 692.053 427.578 690.729 428.199C689.612 423.439 694.537 422.86 694.206 417.272C693.937 412.782 689.156 407.05 694.206 402.87C698.779 401.483 702.007 400.283 701.655 394.923C701.51 392.73 699.317 391.571 698.675 389.46C696.73 382.942 701.821 378.865 701.655 375.554C701.386 369.946 697.165 372.326 697.682 367.608C698.655 358.854 716.658 362 717.051 371.084C717.362 378.286 708.753 381.038 707.615 371.581Z" fill="black"/>
<path fill-rule="evenodd" clip-rule="evenodd" d="M624.674 403.366C625.336 403.366 625.998 403.366 626.66 403.366C626.019 409.202 631.213 411.665 636.097 410.32C639.408 408.85 634.938 405.27 638.083 404.36C641.353 405.436 638.911 411.582 637.587 412.803C633.489 412.327 628.626 413.755 625.667 411.313C625.874 408.333 623.453 405.767 624.674 403.366Z" fill="black"/>
<path fill-rule="evenodd" clip-rule="evenodd" d="M697.681 435.152C696.233 441.484 695.84 448.872 693.708 454.521C690.542 455.68 686.9 453.983 683.775 453.528C682.079 450.134 680.257 438.525 682.782 434.158C686.362 438.483 694.288 433.745 697.681 435.152ZM691.722 452.534C692.798 451.127 692.777 448.623 693.708 447.071C692.239 447.32 689.859 450.03 688.742 447.568C690.542 445.726 693.688 445.23 694.702 442.601C691.908 442.022 689.301 445.602 687.749 443.098C689.404 441.112 693.046 441.112 694.702 439.125C692.032 439.29 688.825 441.525 686.755 440.615C686.838 437.883 690.811 439.063 692.218 437.635C689.508 436.89 688.08 437.966 684.769 437.138C683.61 443.947 683.196 453.817 691.722 452.534Z" fill="black"/>
<path fill-rule="evenodd" clip-rule="evenodd" d="M725.991 454.521C721.645 455.162 720.403 454.48 715.561 454.521C715.747 446.099 713.678 441.67 715.064 435.152C718.417 434.738 717.341 438.318 716.554 440.118C717.03 443.967 716.575 446.554 718.044 451.541C719.203 452.534 721.21 452.679 723.507 452.534C725.184 452.224 724.128 449.182 724.997 448.065C723.942 447.051 722.245 449.596 720.031 449.058C720.879 446.264 723.839 445.581 726.487 444.588C725.887 443.926 726.301 443.802 726.487 443.098C724.501 441.753 723.156 445.85 720.528 444.588C721.707 441.629 725.018 440.801 727.481 439.125C725.329 437.325 722.618 441.339 721.024 440.118C719.907 438.525 722.907 437.594 724.501 437.138C722.576 435.917 717.879 437.469 717.051 435.152C721.086 434.51 723.611 434.51 728.474 434.158C731.95 439.684 725.867 449.161 725.991 454.521Z" fill="black"/>
<path fill-rule="evenodd" clip-rule="evenodd" d="M590.405 453.528C590.902 453.528 591.399 453.528 591.895 453.528C589.971 462.861 589.474 473.87 587.922 481.34C586.225 481.547 586.432 479.85 585.439 479.353C588.936 472.752 587.26 460.419 590.405 453.528Z" fill="black"/>
<path fill-rule="evenodd" clip-rule="evenodd" d="M585.936 457.004C586.329 457.273 586.743 457.521 587.426 457.501C587.24 460.853 585.109 463.647 583.95 466.937C582.17 471.945 581.653 477.946 578.487 480.843C578.983 472.876 584.157 465.323 585.936 457.004Z" fill="black"/>
<path fill-rule="evenodd" clip-rule="evenodd" d="M620.207 471.407C618.779 475.939 615.303 478.422 613.751 482.83C614.144 485.375 614.496 488.231 611.267 488.293C611.143 484.216 612.985 478.65 615.241 475.38C610.585 476.373 607.129 482.83 603.818 486.803C603.093 482.602 605.804 479.146 610.274 475.38C613.254 472.876 616.668 469.337 620.207 471.407Z" fill="black"/>
<path fill-rule="evenodd" clip-rule="evenodd" d="M542.232 475.38C539.893 483.658 541.259 490.9 539.749 495.743C535.527 494.087 539.728 486.969 538.755 482.333C535.382 485.582 536.293 493.115 532.299 495.743C533.085 488.893 536.541 480.471 539.749 474.387C541.342 473.952 541.301 475.173 542.232 475.38Z" fill="black"/>
<path fill-rule="evenodd" clip-rule="evenodd" d="M724.998 488.79C725.432 491.542 723.611 492.038 721.024 491.769C721.107 491.19 720.921 490.88 720.528 490.776C720.9 488.21 723.052 487.341 724.998 488.79Z" fill="black"/>
<path fill-rule="evenodd" clip-rule="evenodd" d="M694.207 489.286C695.634 491.273 696.131 492.245 696.193 494.749C694.641 495.681 693.462 496.984 691.227 497.233C686.384 495.701 686.881 486.161 694.207 489.286ZM690.233 491.273C690.275 493.218 690.834 494.646 693.213 494.253C694.124 492.97 693.006 492.763 693.71 491.273C692.179 491.438 691.351 490.135 690.233 491.273Z" fill="black"/>
<path fill-rule="evenodd" clip-rule="evenodd" d="M667.387 497.233C668.753 498.681 669.353 500.895 671.36 501.702C671.112 521.113 664.986 534.233 652.487 540.938C638.83 547.084 620.516 547.166 608.286 539.944C600.029 535.061 590.634 523.389 589.413 517.098C588.917 514.532 589.703 510.539 589.91 506.669C590.075 503.648 589.537 500.026 590.407 497.729C592.497 492.266 605.554 489.969 612.259 489.783C631.297 489.266 652.28 493.694 667.387 497.233ZM642.554 494.749C633.077 493.797 623.02 492.328 613.749 492.266C609.155 492.245 592.952 493.239 591.896 499.716C591.214 503.855 596.325 508.593 599.346 510.145C614.453 517.906 654.329 515.464 667.387 504.186C664.821 503.875 668.173 502.82 667.387 501.206C661.82 496.198 651.742 495.681 642.554 494.749ZM595.87 524.052C600.277 530.508 605.534 536.613 612.259 539.448C637.443 550.063 669.725 537.461 668.38 507.662C650.232 518.754 606.713 520.492 591.896 507.166C590.82 514.801 592.041 518.444 595.87 524.052Z" fill="black"/>
<path fill-rule="evenodd" clip-rule="evenodd" d="M721.026 493.756C721.233 495.949 720.198 496.901 718.543 497.232C718.17 496.777 717.632 496.488 717.053 496.239C717.053 495.411 717.053 494.584 717.053 493.756C718.936 493.239 719.474 492.473 721.026 493.756Z" fill="black"/>
<path fill-rule="evenodd" clip-rule="evenodd" d="M686.756 505.179C683.259 496.55 694.206 497.336 694.206 502.199C694.206 504.931 690.419 506.565 686.756 505.179ZM688.743 503.192C689.985 502.944 691.744 503.213 691.723 501.702C691.309 500.957 690.481 500.626 689.24 500.709C688.826 501.289 688.598 502.033 688.743 503.192Z" fill="black"/>
<path fill-rule="evenodd" clip-rule="evenodd" d="M567.063 508.655C570.601 517.761 572.96 523.327 576.996 532.494C577.927 534.626 580.017 536.633 579.975 538.454C579.727 547.828 562.282 551.884 553.156 552.857C542.83 553.954 523.523 553.436 516.405 549.38C506.596 543.793 514.563 534.564 517.398 526.038C519.26 520.451 519.55 512.608 522.861 508.159C526.524 503.213 538.092 501.268 544.217 500.709C553.529 499.861 561.124 502.84 567.063 508.655ZM524.351 511.635C524.206 513.146 527.165 514.388 528.324 516.105C540.368 516.705 555.309 517.409 564.083 509.152C556.323 499.136 530.6 501.868 524.351 511.635ZM522.861 515.112C520.316 525.148 515.784 533.198 513.425 543.421C526.524 555.05 554.005 550.974 571.036 546.401C573.416 543.979 576.23 541.993 577.492 538.454C573.374 529.328 570.229 519.23 564.579 511.635C557.026 519.106 533.539 521.258 522.861 515.112Z" fill="black"/>
<path fill-rule="evenodd" clip-rule="evenodd" d="M720.528 500.213C721.356 500.213 722.183 500.213 723.011 500.213C722.949 501.102 723.611 501.268 723.508 502.199C722.328 502.199 722.038 503.048 720.528 502.696C720.528 501.868 720.528 501.04 720.528 500.213Z" fill="black"/>
<path fill-rule="evenodd" clip-rule="evenodd" d="M722.516 517.595C721.067 519.499 717.632 519.292 716.06 517.595C713.142 509.483 724.813 510.932 722.516 517.595ZM720.033 516.602C720.033 515.443 720.033 514.284 720.033 513.125C717.963 512.877 716.949 517.285 720.033 516.602Z" fill="black"/>
<path fill-rule="evenodd" clip-rule="evenodd" d="M687.748 515.609C687.562 516.747 685.761 516.271 685.265 517.098C682.244 514.946 687.438 511.615 687.748 515.609Z" fill="black"/>
<path fill-rule="evenodd" clip-rule="evenodd" d="M653.481 518.092C657.267 515.422 662.896 517.45 662.917 521.568C662.938 527.88 651.473 527.59 653.481 518.092ZM658.447 523.555C659.295 522.913 660.392 522.52 660.434 521.072C659.523 519.664 658.488 518.381 655.964 518.588C655.115 521.051 656.129 522.996 658.447 523.555Z" fill="black"/>
<path fill-rule="evenodd" clip-rule="evenodd" d="M687.253 518.588C687.915 518.588 688.577 518.588 689.239 518.588C690.274 519.685 689.632 521.899 688.742 522.562C687.273 522.23 687.087 520.596 687.253 518.588Z" fill="black"/>
<path fill-rule="evenodd" clip-rule="evenodd" d="M599.843 520.575C603.361 518.237 608.7 519.313 608.783 524.051C608.927 531.336 597.712 529.991 599.843 520.575ZM604.313 526.038C605.327 525.893 605.637 525.045 606.299 524.548C605.968 522.23 604.644 520.906 602.326 520.575C601.105 522.562 602.202 525.81 604.313 526.038Z" fill="black"/>
<path fill-rule="evenodd" clip-rule="evenodd" d="M558.621 525.045C556.448 521.837 560.276 518.278 562.594 521.072C563.132 524.238 561.807 525.562 558.621 525.045Z" fill="black"/>
<path fill-rule="evenodd" clip-rule="evenodd" d="M727.481 524.052C726.86 525.086 726.115 525.997 725.494 527.031C723.652 527.052 722.349 526.535 721.024 526.038C717.092 519.54 725.929 519.768 727.481 524.052ZM724.501 523.058C723.632 523.1 722.949 522.955 722.514 522.562C721.831 524.776 724.79 525.252 724.501 523.058Z" fill="black"/>
<path fill-rule="evenodd" clip-rule="evenodd" d="M750.825 521.568C752.377 521.672 753.205 522.499 753.308 524.051C752.377 525.024 751.487 524.196 750.328 524.051C750.183 522.893 750.411 522.148 750.825 521.568Z" fill="black"/>
<path fill-rule="evenodd" clip-rule="evenodd" d="M744.865 522.065C746.189 522.065 747.782 521.796 747.844 523.058C748.093 525.583 743.685 524.838 744.865 522.065Z" fill="black"/>
<path fill-rule="evenodd" clip-rule="evenodd" d="M555.641 524.548C556.324 526.121 556.324 528.935 555.641 530.508C553.22 532.288 549.329 531.274 547.694 529.515C547.653 527.487 547.591 525.438 548.191 524.052C550.488 523.017 554.109 522.499 555.641 524.548ZM549.681 528.025C550.509 528.687 551.336 529.349 553.157 529.018C554.151 528.045 553.468 526.183 553.157 525.045C550.716 524.755 549.35 525.521 549.681 528.025Z" fill="black"/>
<path fill-rule="evenodd" clip-rule="evenodd" d="M621.2 527.031C620.475 527.28 619.958 527.776 619.213 528.025C612.384 526.183 621.8 518.94 621.2 527.031Z" fill="black"/>
<path fill-rule="evenodd" clip-rule="evenodd" d="M532.299 525.045C532.713 528.439 532.009 530.715 530.312 531.998C526.67 531.998 523.732 528.666 525.346 525.045C526.049 522.168 531.202 523.845 532.299 525.045ZM529.816 529.515C530.436 528.107 530.436 526.452 529.816 525.045C529.153 525.045 528.491 525.045 527.829 525.045C526.794 526.576 527.146 530.135 529.816 529.515Z" fill="black"/>
<path fill-rule="evenodd" clip-rule="evenodd" d="M650.996 524.051C652.3 525.603 651.017 527.756 650.5 529.018C646.175 529.659 645.616 526.721 647.023 524.051C649.237 524.3 649.506 523.369 650.996 524.051Z" fill="black"/>
<path fill-rule="evenodd" clip-rule="evenodd" d="M755.292 525.542C756.306 526.411 756.264 525.169 757.278 526.038C757.506 527.59 756.223 527.632 754.795 527.528C754.588 526.493 755.147 526.204 755.292 525.542Z" fill="black"/>
<path fill-rule="evenodd" clip-rule="evenodd" d="M686.753 526.038C687.478 526.473 688.326 526.783 688.243 528.025C687.291 528.232 687.354 529.453 685.76 529.018C685.822 528.128 685.16 527.963 685.263 527.031C686.112 527.052 686.567 526.659 686.753 526.038Z" fill="black"/>
<path fill-rule="evenodd" clip-rule="evenodd" d="M611.762 528.025C613.417 527.549 618.591 529.68 618.218 532.991C617.225 541.993 602.201 530.818 611.762 528.025ZM611.265 532.991C612.383 533.322 615.425 534.274 615.735 532.494C614.328 531.75 613.624 530.301 611.762 530.011C611.203 530.591 611.203 531.77 611.265 532.991Z" fill="black"/>
<path fill-rule="evenodd" clip-rule="evenodd" d="M646.03 533.488C646.299 538.909 639.843 539.551 637.587 535.971C636.222 528.169 644.106 529.908 646.03 533.488ZM640.567 535.971C641.726 536.136 642.471 535.888 643.051 535.474C643.444 533.26 642.161 532.722 640.567 532.494C639.864 533.157 639.864 535.309 640.567 535.971Z" fill="black"/>
<path fill-rule="evenodd" clip-rule="evenodd" d="M561.103 532.991C566.297 528.542 572.878 536.281 568.553 539.944C565.097 542.862 558.971 538.599 561.103 532.991ZM565.076 538.454C565.49 537.709 566.318 537.378 567.559 537.461C567.87 534.667 565.366 534.688 563.586 533.984C562.365 535.557 563.669 537.958 565.076 538.454Z" fill="black"/>
<path fill-rule="evenodd" clip-rule="evenodd" d="M523.855 541.931C520.172 542.489 517.482 540.13 517.896 536.468C518.827 528.356 531.719 535.474 523.855 541.931ZM522.365 539.448C524.352 538.268 524.228 534.564 520.875 534.978C519.903 536.323 520.317 539.572 522.365 539.448Z" fill="black"/>
<path fill-rule="evenodd" clip-rule="evenodd" d="M534.284 534.978C534.118 536.137 533.684 537.026 533.291 537.958C528.138 538.454 531.346 531.377 534.284 534.978Z" fill="black"/>
<path fill-rule="evenodd" clip-rule="evenodd" d="M559.116 540.441C557.958 542.2 558.082 542.324 557.13 543.917C554.936 544.455 554.667 543.069 553.157 542.924C551.625 537.13 557.895 536.964 559.116 540.441Z" fill="black"/>
<path fill-rule="evenodd" clip-rule="evenodd" d="M754.299 439.621C753.927 440.739 751.506 439.808 750.326 440.118C753.244 441.463 756.451 439.559 759.266 441.111C758.811 446.492 759.121 452.927 759.762 459.487C763.694 459.694 766.902 459.115 769.695 459.487C770.047 453.403 768.661 446.347 770.689 439.125C773.503 438.028 777.559 438.918 779.628 440.118C779.152 446.533 778.014 452.845 779.132 459.487C784.657 460.129 784.905 457.625 789.065 457.997C788.195 462.447 789.582 463.502 790.555 466.937C787.802 468.365 782.96 467.827 779.132 467.434C778.78 491.045 776.793 509.897 778.138 531.998C782.153 531.749 782.65 531.832 787.575 531.501C789.044 533.84 789.416 537.275 790.058 540.441C786.561 542.179 783.519 541.724 778.138 541.931C777.787 545.428 778.987 547.373 778.635 550.87C780.849 550.27 783.726 550.332 786.581 550.374C788.258 552.422 789.789 556.975 789.561 559.313C781.843 559.479 772.53 558.051 765.226 557.823C763.011 557.761 759.08 559.603 758.272 556.334C758.624 554.43 762.722 552.257 763.736 549.38C765.308 549.794 767.398 549.691 768.702 550.374C768.888 547.58 769.468 545.18 769.199 541.931C768.474 541.889 763.239 541.579 761.749 542.427C759.204 543.628 760.714 546.132 758.769 547.891C754.03 552.174 741.428 548.987 742.38 540.937C739.752 541.269 735.427 540.731 731.454 540.937C735.427 555.899 710.47 559.106 712.084 540.937C708.856 541.351 705.442 541.579 701.655 541.434C700.248 557.741 679.43 558.051 678.809 540.937C673.843 539.468 669.104 542.138 663.413 541.434C652.528 556.644 617.452 552.36 602.325 543.421C597.793 545.594 593.303 545.014 587.923 543.421C584.301 547.601 580.618 551.677 576.5 555.34C556.054 563.1 518.806 562.914 506.473 548.387C504.755 546.359 501.899 541.869 502.003 539.448C502.086 537.399 505.252 534.15 506.969 531.005C517.999 510.849 525.118 486.286 537.761 468.427C537.699 458.846 538.817 449.761 534.781 443.098C532.547 442.953 533.085 445.581 530.808 444.091C529.442 439.973 534.574 439.621 536.768 441.111C543.017 445.395 538.837 463.378 540.245 470.414C539.665 471.49 538.527 472.007 537.265 472.4C525.055 493.466 517.006 518.692 504.486 539.448C508.645 553.995 529.442 558.444 546.701 558.32C563.152 558.217 579.149 553.726 584.943 542.427C579.397 523.762 570.478 503.606 562.594 485.81C561.042 482.312 558.538 478.236 558.124 474.883C557.834 472.607 558.703 469.627 558.62 466.937C558.351 457.687 555.827 447.858 560.11 440.118C561.497 439.518 563.546 439.58 565.574 439.621C566.525 440.946 566.153 444.236 565.077 445.085C562.801 445.726 564.291 442.56 563.09 442.105C558.31 447.775 560.338 463.75 560.607 474.387C560.752 480.078 565.47 483.616 566.07 488.293C568.512 482.85 571.285 477.305 574.017 471.407C578.776 461.101 582.066 450.361 581.466 434.158C580.783 415.658 582.666 393.702 580.473 376.547C582.149 376.237 583.018 375.119 585.439 375.554C585.543 369.449 582.915 365.973 584.943 360.655C590.758 358.751 594.917 357.944 600.339 359.165C602.719 363.324 598.704 369.243 598.849 375.554C599.884 376.941 603.112 373.878 605.305 375.057C604.622 398.296 605.492 412.678 602.822 436.145C603.919 440.904 603.381 446.181 605.305 451.044C607.25 455.949 612.507 459.467 612.755 464.95C615.9 463.792 617.97 461.557 621.198 460.481C622.233 441.567 618.301 420.107 616.231 399.89C617.721 397.489 619.956 393.454 623.185 394.427C622.978 391.405 620.97 385.818 622.191 382.507C627.758 379.424 634.918 381.597 639.077 383.004C640.878 385.57 639.45 390.247 640.071 392.937C642.388 392.771 644.023 396.703 648.017 396.413C648.472 419.631 643.278 435.876 646.527 459.984C647.479 461.184 648.865 461.95 650.003 462.964C680.713 462.178 707.366 464.661 741.387 464.454C741.387 463.626 741.387 462.798 741.387 461.971C733.006 460.915 724.149 461.639 714.568 460.977C712.995 460.895 713.595 462.985 712.581 463.461C711.339 462.55 711.008 460.729 709.104 460.481C692.839 460.563 678.768 460.025 663.413 459.487C659.378 459.343 652.507 460.791 650.5 457.501C651.266 455.121 655.26 457.315 657.453 457.501C664.717 458.101 671.049 457.418 678.809 457.501C678.933 453.672 677.236 446.016 678.809 442.105C682.637 444.94 679.471 452.514 681.292 457.501C686.383 458.184 693.667 458.556 697.185 457.997C697.413 453.714 696.005 446.243 698.178 443.098C701.179 446.347 697.826 453.817 699.172 457.997C701.882 459.073 706.559 458.225 710.098 458.494C712.478 454.21 708.773 445.623 713.078 442.601C714.485 446.554 712.188 452.1 712.581 457.997C716.844 460.212 724.811 458.411 728.97 459.487C730.398 454.955 727.377 444.898 730.46 442.105C732.799 445.954 730.336 453.569 731.454 458.991C732.799 459.694 737.455 459.446 740.89 459.487C742.028 454.335 741.076 447.092 741.387 441.111C745.546 439.849 749.126 440.346 754.299 439.621ZM586.433 368.104C587.736 370.526 587.219 372.16 587.426 376.051C588.13 376.961 589.847 375.264 590.903 376.547C589.578 373.816 593.51 370.67 590.406 370.091C590.799 366.345 592.661 364.069 593.882 361.151C589.33 359.475 589.806 366.946 586.433 368.104ZM586.433 362.145C586.722 363.179 585.812 365.414 586.929 365.621C587.757 364.297 588.088 362.476 588.916 361.151C587.695 361.069 587.385 361.938 586.433 362.145ZM592.392 369.098C595 367.07 596.469 363.904 598.849 361.648C595.559 361.089 593.986 366.304 592.392 369.098ZM592.392 376.547C592.765 375.43 595.186 376.361 596.366 376.051C596.262 373.05 598.849 367.732 597.359 366.614C595.745 369.636 591.772 372.926 592.392 376.547ZM599.346 377.541C599.325 378.182 598.704 378.224 598.849 379.031C599.139 397.324 598.601 416.114 598.849 431.179C598.911 434.593 599.552 438.504 599.346 441.608C599.263 442.974 598.249 444.547 598.352 446.078C598.89 453.797 606.961 459.901 605.305 468.427C602.532 465.344 602.45 460.895 600.835 457.004C599.304 453.3 597.152 449.699 595.869 446.078C596.407 428.923 597.359 406.45 596.862 386.977C594.11 386.604 591.937 386.501 588.419 385.984C586.122 384.473 587.24 379.548 584.943 378.037C582.48 380.852 583.929 385.88 583.949 389.957C584.115 414.251 582.687 432.668 583.453 451.541C578.714 465.509 572.796 478.298 568.057 492.266C569.154 493.653 569.65 495.639 570.54 497.233C577.245 497.936 583.411 497.833 587.426 494.749C590.758 480.698 600.939 473.497 610.768 465.944C609.341 458.453 601.912 453.61 600.835 445.581C600.297 441.463 601.539 436.455 601.829 431.675C602.863 414.727 602.967 394.634 602.822 378.037C601.663 377.872 600.96 377.251 599.346 377.541ZM589.413 383.004C591.378 384.183 594.007 384.701 597.359 384.494C596.717 382.445 596.035 380.852 596.862 378.534C594.772 377.479 590.82 378.286 587.923 378.037C588.44 379.672 588.44 381.824 589.413 383.004ZM624.178 384.494C625.068 391.902 623.743 395.337 626.661 400.386C630.551 401.297 634.959 401.545 638.084 399.393C638.022 397.965 638.353 396.144 637.587 395.42C634.835 395.648 633.221 399.641 630.634 398.4C631.503 394.137 637.401 394.903 638.084 390.453C633.718 390.888 632.828 394.799 629.641 396.413C628.358 391.467 637.07 389.046 638.084 386.977C634.773 385.487 631.483 393.061 628.648 390.453C630.572 387.908 634.049 386.915 635.601 383.997C631.524 383.645 630.179 388.405 627.158 387.474C627.365 385.197 629.744 385.094 630.634 383.5C629.082 383.066 625.689 383.397 624.178 384.494ZM642.057 399.393C638.436 404.38 626.33 404.463 622.191 399.89C620.453 398.71 624.012 397.51 622.191 396.413C616.935 399.497 619.191 405.332 619.708 411.313C621.239 428.84 623.785 444.898 624.178 461.474C622.584 462.736 620.122 462.902 618.218 463.957C607.975 469.689 594.689 479.395 590.406 491.273C582.377 513.477 590.282 539.986 609.278 542.924C609.672 543.855 609.92 544.931 610.768 545.407C625.068 548.408 641.726 551.595 652.487 545.904C662.233 540.751 664.944 537.295 668.876 527.528C670.801 522.748 674.008 518.361 674.836 514.615C681.147 486.43 657.453 474.47 643.547 460.481C641.664 443.326 645.989 421.866 645.534 398.4C643.94 397.179 642.368 395.937 640.071 395.42C637.877 398.71 643.568 397.138 642.057 399.393ZM772.675 441.111C771.434 448.251 771.496 451.665 772.179 459.487C773.669 459.487 775.158 459.487 776.648 459.487C776.917 453.962 776.069 447.32 777.145 442.601C776.048 441.712 775.138 440.656 772.675 441.111ZM743.87 443.595C743.973 449.347 742.918 454.252 743.87 459.487C749.374 459.818 753.968 458.825 757.279 459.487C757.507 451.644 756.762 446.74 756.286 442.601C750.43 442.829 747.553 442.353 743.87 443.595ZM743.87 461.474C743.87 462.467 743.87 463.461 743.87 464.454C749.25 464.806 752.54 465.758 757.279 464.95C757.797 463.026 757.031 462.902 757.776 461.474C753.803 461.06 749.043 461.722 743.87 461.474ZM759.762 464.95C763.88 465.716 765.474 464.868 770.192 465.447C770.006 463.129 769.882 463.792 769.695 461.474C766.384 461.474 763.073 461.474 759.762 461.474C759.762 462.633 759.762 463.792 759.762 464.95ZM772.675 465.447C773.834 465.447 774.993 465.447 776.152 465.447C776.917 464.723 776.586 462.902 776.648 461.474C775.158 461.474 773.669 461.474 772.179 461.474C771.827 463.316 773.027 463.605 772.675 465.447ZM779.628 465.447C782.877 465.592 783.933 464.868 786.581 465.447C787.72 464.268 785.485 463.626 786.085 461.474C781.987 460.895 776.359 461.66 779.628 465.447ZM652.487 465.944C657.805 471.262 664.551 474.945 669.373 481.34C673.077 486.244 676.864 493.839 677.816 499.716C679.678 511.304 673.739 521.754 670.366 532.991C672.684 531.832 676.305 533.653 679.802 532.991C680.216 512.277 678.788 488.583 679.306 465.447C668.172 464.909 661.488 463.233 652.487 465.944ZM681.789 465.447C680.671 470.372 681.52 476.353 681.789 480.347C686.3 483.575 693.419 480.843 696.688 478.36C696.688 474.221 696.688 470.082 696.688 465.944C691.184 466.316 687.066 465.302 681.789 465.447ZM700.165 476.87C700.475 478.836 698.282 478.298 698.675 480.347C698.778 500.854 700.186 514.201 700.165 533.488C704.097 532.536 707.014 533.964 712.581 533.488C710.719 514.429 713.016 484.465 712.084 465.944C707.615 465.944 703.145 465.944 698.675 465.944C698.758 470.02 698.054 474.842 700.165 476.87ZM715.064 466.44C713.595 471.49 715.209 479.27 715.561 481.34C721.169 483.409 724.852 480.367 728.474 477.863C728.308 473.104 728.681 469.607 728.97 466.44C725.245 465.799 718.748 465.509 715.064 466.44ZM731.454 467.93C730.315 491.087 730.067 511.759 731.454 532.991C733.73 531.791 738.655 533.239 740.89 531.998C740.828 510.559 740.621 488.541 741.387 466.937C739.234 466.565 732.074 465.137 731.454 467.93ZM742.876 513.622C746.829 515.898 755.748 517.016 759.762 513.125C758.728 501.247 760.114 481.029 757.279 466.937C753.844 467.641 749.229 467.103 743.87 466.44C743.414 480.471 743.208 496.115 742.876 513.622ZM759.762 467.434C761.832 490.217 761.128 508.697 762.246 531.998C765.681 532.122 766.405 532.308 769.695 531.998C769.157 509.835 770.213 490.797 770.689 467.434C767.833 467.454 763.467 466.937 759.762 467.434ZM771.682 495.743C771.227 506.027 771.889 515.277 772.179 525.541C772.241 527.673 770.089 532.536 774.662 531.998C776.524 512.546 776.462 487.3 776.648 467.434C775.221 467.372 773.4 467.703 772.675 466.937C773.462 475.711 772.075 487.072 771.682 495.743ZM714.568 483.823C712.871 499.116 714.485 519.044 714.568 533.488C719.782 533.736 723.631 532.619 728.97 532.991C728.101 516.56 728.163 499.612 728.474 481.34C728.453 481.029 728.391 480.76 727.977 480.843C725.514 484.237 718.334 484.547 714.568 483.823ZM681.292 482.83C682.389 497.357 681.437 511.946 682.286 532.991C687.893 533.074 695.053 534.543 699.668 532.991C698.364 533.136 698.385 531.956 698.178 531.005C698.158 511.718 696.626 495.95 696.688 481.34C693.15 483.678 686.279 484.816 681.292 482.83ZM571.533 499.716C576.355 511.118 580.597 523.1 584.943 534.978C587.654 535.826 591.523 538.785 594.379 536.468C584.239 528.708 584.922 511.428 585.936 497.729C582.873 501.102 575.258 499.302 571.533 499.716ZM742.876 517.098C744.139 521.423 741.966 528.749 743.87 532.494C749.25 532.143 752.623 532.122 760.259 531.998C759.328 527.3 760.632 520.368 758.769 516.602C755.293 519.54 747.491 517.574 742.876 517.098ZM778.138 533.984C777.269 535.681 778.511 536.902 778.138 539.448C781.553 539.551 784.781 539.468 787.078 538.454C786.768 536.944 787.72 534.171 786.581 533.488C784.76 534.647 780.808 533.653 778.138 533.984ZM668.379 534.978C668.255 536.84 666.517 537.088 666.393 538.951C671.773 537.771 677.009 539.323 681.292 537.461C685.514 539.468 696.399 540.172 700.165 537.958C702.255 541.331 707.242 537.854 710.594 539.448C712.126 539.158 712.56 537.771 714.071 537.461C714.961 537.895 714.712 539.468 716.554 538.951C728.536 538.64 732.737 539.158 741.883 538.454C740.497 537.854 741.469 534.895 740.393 533.984C719.575 536.281 691.929 535.433 668.379 534.978ZM743.87 538.951C748.298 540.151 755.293 538.785 759.762 539.944C760.094 538.123 760.445 536.323 760.259 533.984C752.333 534.046 750.616 534.44 743.373 533.984C743.497 536.675 743.642 537.109 743.87 538.951ZM762.246 539.944C765.495 539.923 767.874 539.779 769.695 539.448C770.026 536.944 769.075 535.433 769.695 533.984C767.212 533.984 764.729 533.984 762.246 533.984C763.053 536.592 762.225 537.13 762.246 539.944ZM772.179 539.944C773.379 539.013 773.648 540.068 775.655 539.944C776.442 537.523 775.655 537.213 775.655 533.984C774.331 533.984 773.006 533.984 771.682 533.984C772.013 535.826 771.04 538.93 772.179 539.944ZM586.433 540.441C590.095 541.91 594.255 542.883 599.842 542.427C598.414 537.42 589.682 539.779 585.936 538.454C586.681 538.558 586.391 539.654 586.433 540.441ZM698.178 541.434C691.101 541.103 690.625 541.082 681.292 540.937C680.589 554.657 699.896 553.995 698.178 541.434ZM714.568 541.434C712.146 553.974 731.743 554.512 728.97 541.434C725.266 540.627 718.292 540.627 714.568 541.434ZM758.769 541.931C753.616 541.744 750.574 541.951 745.36 541.434C744.801 548.76 758.811 548.635 758.769 541.931ZM771.185 549.877C772.634 550.415 774.041 550.995 776.152 550.87C776.131 547.746 776.359 544.393 775.655 541.931C774.165 541.931 772.675 541.931 771.185 541.931C771.185 544.145 771.972 547.063 771.185 549.877ZM763.239 555.837C771.082 555.982 779.421 558.051 786.581 556.334C785.836 555.589 785.774 554.161 785.588 552.857C778.925 553.83 764.998 549.298 763.239 555.837Z" fill="black"/>
<path fill-rule="evenodd" clip-rule="evenodd" d="M556.634 427.702C558.165 435.71 558.972 447.94 554.647 456.011C550.178 456.632 547.467 457.521 543.721 456.011C540.762 446.719 541.217 439.828 539.748 428.695C544.445 425.157 550.695 426.005 556.634 427.702ZM542.231 429.192C541.962 437.78 544.549 445.705 545.211 453.528C547.612 455.245 551.13 453.569 553.158 454.024C553.592 451.81 554.378 449.948 554.647 447.568C553.696 446.326 553.302 449.823 551.171 449.058C551.399 445.312 556.303 443.615 555.144 440.118C554.916 441.256 553.137 443.367 552.164 442.105C552.578 439.083 556.634 436.559 554.151 433.662C552.909 435.069 551.419 438.856 549.681 438.131C550.674 434.986 552.702 432.875 554.151 430.185C550.219 429.73 550.861 436.476 547.198 434.655C548.812 432.958 549.557 430.392 551.171 428.695C547.984 426.978 544.652 430.144 542.231 429.192Z" fill="black"/>
<path fill-rule="evenodd" clip-rule="evenodd" d="M31.7854 317.997C32.013 322.404 35.9241 323.129 34.7653 328.923C31.6199 332.668 28.433 334.138 29.3022 338.856C29.923 342.229 33.7513 344.484 33.772 347.795C33.8134 352.7 29.0331 356.363 27.8122 359.715C28.2675 361.226 27.0673 365.964 29.7988 368.655C30.6887 369.958 35.7172 369.089 33.772 371.634C31.4129 373.725 28.0192 368.53 24.3357 368.655C21.4386 364.909 16.4307 360.936 18.3759 353.755C18.9554 351.582 21.9766 349.782 21.8525 347.299C21.6041 342.581 14.6304 340.946 13.9061 336.373C13.1198 331.447 16.9481 328.426 17.3827 324.95C19.2865 309.285 -5.64936 319.714 5.46311 326.44C6.74612 325.736 8.81548 325.819 8.443 323.46C7.38763 321.784 7.55318 327.019 5.95977 324.95C3.55931 319.424 13.1198 318.824 10.9262 325.943C7.7601 330.061 1.01399 328.199 0 323.46C2.77294 311.251 20.2591 312.058 19.3692 324.453C19.1002 328.116 15.3133 330.392 15.8927 335.379C16.4928 340.594 23.1976 341.484 23.8391 345.809C24.5219 350.382 19.9073 352.927 20.3625 358.225C20.7557 362.757 23.9218 365.075 26.8189 367.165C21.6248 359.156 31.5371 354.479 31.2887 347.299C31.1853 344.195 27.15 341.856 26.8189 338.359C26.3223 332.979 30.2954 331.344 32.7787 326.936C32.6959 323.832 28.7641 322.156 29.7988 316.507C36.4829 313.072 39.1523 301.069 30.7921 297.137C24.8117 297.282 19.9901 302.228 24.3357 307.07C25.5773 306.657 27.0052 306.429 28.8055 306.574C29.0952 304.629 26.074 305.994 26.8189 303.594C28.5158 301.545 31.3095 303.946 30.7921 307.07C27.15 311.478 19.7831 307.877 19.8659 302.601C23.6528 292.047 38.7178 294.716 38.7385 306.574C38.7591 311.975 33.9789 314.582 31.7854 317.997Z" fill="black"/>
<path fill-rule="evenodd" clip-rule="evenodd" d="M191.209 453.084C191.602 453.353 192.016 453.602 192.699 453.581C189.823 459.644 192.347 468.687 192.203 474.44C188.353 474.854 184.691 472.681 180.283 472.95C182.207 464.611 184.856 456.975 191.209 453.084ZM182.766 470.964C186.119 470.922 187.857 472.495 190.713 472.95C189.305 468.687 190.34 460.038 189.223 457.058C185.643 460.265 184.484 465.894 182.766 470.964Z" fill="black"/>
<path fill-rule="evenodd" clip-rule="evenodd" d="M242.861 506.226C244.641 509.64 237.108 509.04 235.411 507.716C231.852 510.882 227.279 510.033 224.485 507.716C221.236 508.026 220.47 510.344 217.532 510.695C213.538 511.192 210.889 508.15 207.599 508.212C203.088 508.295 197.79 512.889 193.196 508.212C191.148 508.812 189.285 509.599 187.237 510.199C184.091 508.461 181.318 507.819 177.304 509.206C178.255 505.419 184.07 505.191 186.243 507.716C190.692 504.591 194.914 507.943 199.156 508.212C204.495 508.564 210.682 503.825 215.049 508.709C219.125 508.771 220.74 505.563 224.485 505.729C226.223 505.812 227.672 507.695 229.452 507.716C231.79 507.757 233.156 505.294 235.411 505.232C237.729 505.17 240.047 507.633 242.861 506.226Z" fill="black"/>
<path fill-rule="evenodd" clip-rule="evenodd" d="M237.397 511.689C238.266 512.144 238.494 513.241 238.39 514.669C236.093 516.883 233.258 514.441 230.444 514.669C227.402 514.917 224.091 517.504 220.511 514.669C218.235 514.71 217.283 516.076 215.544 516.655C208.509 514.317 203.294 517.566 197.168 514.669C192.719 516.738 187.298 514.938 183.262 515.662C184.918 509.35 192.119 516.076 196.175 512.185C199.9 514.71 203.646 512.537 207.101 512.682C209.667 512.786 212.13 514.917 214.551 514.669C216.931 514.42 218.235 512.351 220.014 512.185C221.649 512.02 223.449 513.655 225.477 513.675C226.45 513.675 227.878 512.31 229.947 512.185C232.886 512.02 235.762 515.124 237.397 511.689Z" fill="black"/>
<path fill-rule="evenodd" clip-rule="evenodd" d="M230.944 523.112C230.157 527.892 225.812 523.546 223.494 526.588C220.99 526.754 218.983 526.464 217.534 525.595C213.52 528.492 207.394 526.464 203.131 527.085C204.518 522.118 213.499 527.375 217.037 523.608C222.79 525.905 224.653 521.911 230.944 523.112Z" fill="black"/>
<path fill-rule="evenodd" clip-rule="evenodd" d="M153.962 543.474C155.141 545.42 158.68 545.44 158.432 547.448C154.562 548.751 146.554 545.13 143.532 544.964C143.677 542.46 146.45 542.585 148.002 541.488C155.41 528.534 159.425 512.186 167.868 500.266C163.729 497.783 165.198 489.692 160.418 487.85C159.735 487.022 160.832 484.953 160.418 482.884C162.301 482.035 164.143 483.649 166.875 483.38C165.426 469.391 172.379 456.872 180.284 449.112C164.888 437.689 143.532 432.226 125.653 423.286C125.777 446.339 125.074 468.812 124.163 492.816C123.666 505.936 121.68 520.422 124.66 531.058C124.825 533.045 123.77 533.811 124.163 536.025C127.991 539.812 134.53 540.888 139.559 543.474C136.372 549.889 125.446 544.178 118.7 544.964C109.74 545.999 102.104 549.103 94.3642 547.448C97.9442 540.267 106.967 538.529 114.23 535.031C117.851 530.272 118.452 524.602 118.7 516.159C119.59 484.891 122.176 452.174 119.197 420.803C97.6752 411.118 78.2024 398.454 56.1223 389.017C49.0037 385.975 41.6989 383.099 35.2632 378.588C34.87 374.718 35.7184 372.09 37.2498 370.145C39.5882 370.621 41.6575 371.655 43.7062 372.628C45.9618 373.683 47.3069 373.828 49.6659 374.614C55.2532 376.477 60.1162 379.622 65.5587 382.064C70.2561 384.175 75.6365 384.775 80.4581 387.031C85.0107 389.162 89.3149 391.5 93.8675 393.487C103.076 397.502 111.871 402.116 121.183 405.407C123.853 398.122 121.018 385.479 121.183 379.084C119.61 378.194 119.693 383.202 116.713 382.561C115.906 381.878 115.141 381.154 114.23 380.574C114.354 378.381 116.258 377.967 116.713 376.104C115.554 370.29 107.649 373.828 103.304 374.614C104.318 370.972 101.234 369.296 102.311 367.165C106.325 368.034 108.663 366.544 113.237 367.661C114.975 364.599 117.024 361.847 120.19 360.212C118.327 343.533 118.679 327.764 116.217 313.03C119.114 313.113 120.562 314.644 123.666 314.52C121.804 323.046 125.218 332.462 125.653 339.849C126.129 348.023 121.949 355.556 127.143 360.708C130.04 360.336 129.626 354.997 133.599 357.232C135.048 360.025 131.695 361.805 130.619 363.688C131.571 365.054 132.523 366.42 132.606 368.655C134.096 368.655 135.586 368.655 137.076 368.655C139.456 361.081 135.131 348.437 138.069 338.856C141.587 340.056 148.209 339.746 153.465 338.856C152.493 349.989 151.892 356.715 152.969 368.655C156.114 368.655 159.259 368.655 162.405 368.655C162.467 365.116 161.722 358.556 162.901 353.755C160.811 349.72 160.791 342.746 162.901 337.863C166.026 341.194 172.048 338.525 176.808 337.863C178.194 343.781 176.808 360.046 177.304 368.158C183.947 367.889 191.003 363.668 191.21 372.628C186.389 374.242 183.305 372.152 177.801 373.125C176.249 381.009 182.933 397.978 172.338 399.447C161.08 401.02 162.405 384.982 162.901 374.118C160.398 372.793 156.238 374.076 153.465 374.118C153.486 383.244 154.024 392.887 150.485 398.454C135.627 402.965 136.538 387.3 137.572 374.614C132.068 372.38 130.909 378.463 126.646 379.084C126.17 388.521 128.115 396.819 127.143 407.393C163.212 422.686 206.42 430.446 240.378 446.628C250.435 455.278 259.934 467.115 261.237 482.884C263.121 483.111 264.776 481.6 266.204 482.884C267.922 486.07 264.776 487.395 265.211 490.83C264.569 491.513 263.059 491.326 261.734 491.326C260.099 498.135 258.32 504.798 253.788 508.709C259.251 522.553 264.093 534.017 269.681 547.448C268.046 548.296 261.258 549.207 258.754 546.454C258.816 543.702 261.403 545.73 263.224 545.461C258.009 536.273 253.746 526.154 249.318 516.159C242.179 527.064 230.735 533.666 214.553 535.528C212.338 540.991 218.691 542.481 217.036 547.448C213.021 545.668 206.027 546.868 202.137 544.964C205.075 543.474 204.682 540.246 204.62 535.031C189.141 530.975 176.497 524.084 171.841 509.206C166.688 513.82 165.426 522.326 161.908 528.575C159.963 527.478 161.246 529.403 160.418 531.555C158.949 535.383 155.741 539.729 153.962 543.474ZM121.68 358.225C125.425 346.016 121.804 328.468 120.19 316.507C119.859 316.507 119.528 316.507 119.197 316.507C120.293 330.93 121.535 346.802 121.68 358.225ZM139.559 341.339C138.483 350.631 140.387 362.322 140.056 368.655C143.698 368.655 147.34 368.655 150.982 368.655C150.175 359.032 150.382 350.941 150.982 340.842C146.802 341.215 144.008 341.898 139.559 341.339ZM163.895 341.836C164.102 351.934 164.412 360.377 164.888 368.655C168.737 369.027 171.2 368.013 174.821 368.158C176.042 360.729 174.573 348.623 175.318 340.842C170.455 339.994 166.916 342.415 163.895 341.836ZM118.203 373.621C121.949 370.745 124.535 366.71 126.646 362.198C126.005 362.178 125.963 361.557 125.156 361.702C118.12 361.743 114.127 367.392 118.203 373.621ZM122.673 376.104C128.902 379.333 132.461 369.938 128.633 366.171C127.226 370.062 123.811 371.945 122.673 376.104ZM105.29 371.138C108.084 370.952 110.484 370.372 113.733 370.641C112.306 368.882 105.766 369.379 105.29 369.648C106.139 369.855 105.187 370.29 105.29 371.138ZM177.304 371.138C180.574 370.021 186.803 371.779 188.23 370.145C186.534 368.717 179.705 369.131 177.304 371.138ZM140.056 371.635C142.435 372.173 149.43 373.062 150.982 371.138C148.437 370.227 142.932 369.689 140.056 371.635ZM164.888 371.635C169.627 371.304 172.979 372.4 175.318 370.145C170.682 370.517 167.019 369.42 164.888 371.635ZM132.606 372.131C134.531 372.069 136.972 372.524 137.572 371.138C136.372 370.31 132.896 370.496 132.606 372.131ZM152.969 371.635C156.155 372.338 160.294 372.462 162.901 370.641C159.011 371.117 154.355 369.71 152.969 371.635ZM238.392 447.622C205.613 433.095 169.544 425.541 136.579 413.353C103.242 401.02 71.8288 385.396 39.2364 373.125C38.7397 373.125 38.6362 373.518 38.2431 373.621C38.2431 373.952 38.2431 374.283 38.2431 374.614C37.8499 374.718 37.6637 375.028 37.7464 375.608C43.1268 383.016 53.3701 385.603 62.0821 389.514C73.9396 394.811 85.3625 400.585 95.8541 406.897C123.418 423.493 155.886 431.17 183.761 447.622C176.538 456.872 165.695 470.157 169.855 483.877C201.392 485.594 231.046 485.139 259.251 483.38C257.388 466.37 248.18 456.727 238.392 447.622ZM165.385 373.621C165.323 378.608 162.136 400.047 172.834 396.964C179.787 394.977 174.262 380.864 175.318 373.125C169.979 373.497 169.172 373.166 165.385 373.621ZM140.056 374.118C140.304 382.561 135.917 397.957 148.002 396.964C152.099 392.783 152.244 381.195 150.485 373.621C148.623 374.656 143.242 373.663 140.056 374.118ZM124.66 399.943C124.618 401.971 123.211 406.069 124.163 406.897C127.329 397.605 123.356 387.507 124.66 379.581C124.018 379.56 123.977 378.939 123.17 379.084C123.19 385.623 124.825 393.466 124.66 399.943ZM122.673 479.904C123.004 462.811 125.674 439.137 121.68 421.796C122.942 445.076 122.135 463.618 122.673 479.904ZM121.183 499.769C121.68 503.598 121.783 497.203 121.68 495.796C122.549 491.533 122.818 487.602 121.68 483.877C121.99 489.63 120.811 493.934 121.183 499.769ZM162.901 485.863C162.881 486.546 163.129 486.96 163.398 487.353C184.775 489.174 208.531 488.781 228.459 489.34C234.232 489.505 241.268 489.588 247.828 489.837C253.167 490.043 262.065 491.74 264.217 485.367C234.294 487.395 197.005 488.036 162.901 485.863ZM168.365 498.28C168.965 494.906 171.303 493.272 172.338 490.333C170.33 490.644 167.061 489.692 165.881 490.83C166.461 491.989 166.626 496.748 168.365 498.28ZM174.821 490.83C164.102 506.433 159.321 527.975 148.499 543.474C149.678 543.474 149.968 544.323 151.479 543.971C160.998 524.85 168.903 504.094 183.761 490.333C179.746 490.478 179.063 490.913 174.821 490.83ZM231.439 491.326C225.458 489.837 216.788 490.995 209.586 490.83C201.785 490.644 194.128 491.14 186.74 490.83C183.554 494.617 173.476 502.646 173.331 507.716C173.228 510.923 176.911 516.862 178.794 519.139C185.416 527.168 199.612 533.148 212.566 533.541C225.355 533.935 235.433 526.03 243.855 520.629C244.393 517.359 246.524 515.683 247.828 513.179C243.338 504.86 241.185 493.727 231.439 491.326ZM264.217 541.984C264.217 542.253 264.611 542.543 264.714 541.984C258.651 524.705 250.435 509.578 244.848 491.823C241.992 491.865 239.116 491.927 236.902 491.326C249.69 504.55 253.995 526.237 264.217 541.984ZM252.298 506.226C256.85 503.825 257.616 497.638 259.251 492.32C254.015 492.092 254.264 491.989 248.325 491.823C247.311 497.266 251.015 501.528 252.298 506.226ZM114.727 537.018C109.491 540.515 103.531 540.495 98.834 545.461C109.781 544.364 120.811 542.957 132.606 542.978C125.529 540.205 121.638 539.667 121.183 531.058C120.811 523.753 122.259 514.11 120.686 505.729C119.134 517.835 123.584 531.12 114.727 537.018ZM206.606 543.474C208.572 543.536 212.09 544.509 214.056 543.971C212.318 542.067 211.221 539.522 211.573 535.528C209.586 535.88 208.738 535.052 207.103 535.031C207.207 539.046 206.648 540.432 206.606 543.474Z" fill="black"/>
<path fill-rule="evenodd" clip-rule="evenodd" d="M419.324 417.802C422.589 422.329 420.596 430.173 417.501 433.323C413.989 433.886 410.419 434.721 407.476 432.822C398.363 426.918 408.881 407.913 419.324 417.802ZM410.21 431.32C416.001 433.135 420.615 426.647 417.957 420.305C409.546 410.521 401.116 428.483 410.21 431.32Z" fill="black"/>
<path fill-rule="evenodd" clip-rule="evenodd" d="M456 476.165C456 476.497 456 476.829 456 477.161C452.523 483.222 450.908 492.562 446.562 501.57C445.051 504.704 443.374 508.897 441.097 513.027C439.152 516.535 434.95 520.79 434.64 523.488C434.019 528.864 440.414 533.762 442.091 538.432C445.154 538.723 447.783 536.938 449.045 539.429C450.722 542.314 449.873 547.316 449.542 550.388C418.723 549.329 395.024 554.062 363.604 550.886C364.246 546.631 363.832 543.953 365.094 540.923C367.868 542.75 371.159 541.234 374.533 540.923C378.879 535.464 385.958 533.949 391.422 529.964C395.665 526.851 399.163 522.243 402.847 518.507C406.718 514.563 410.775 510.661 412.286 505.057C392.892 504.933 376.54 504.455 358.636 506.053C358.367 502.006 355.842 496.028 357.643 493.102C368.675 492.749 384.509 493.621 398.377 492.604C399.826 494.347 396.949 499.598 398.377 499.578C401.916 500.304 409.285 498.913 414.77 498.581C417.916 492.687 419.592 482.35 425.201 475.667C426.836 476.85 432.363 475.376 428.182 474.67C431.742 475.874 436.296 475.75 438.614 473.176C438.22 457.941 433.646 442.644 423.214 435.816C421.041 438.555 416.777 440.921 412.286 439.801C405.662 450.241 398.294 459.124 391.422 468.195C392.664 470.789 390.718 473.28 390.429 475.667C390.16 478.012 391.588 481.271 389.435 482.641C384.095 483.035 385.813 476.31 382.481 474.67C379.728 478.822 382.17 488.743 374.036 486.128C372.421 483.097 374.636 476.393 375.029 472.18C369.896 471.412 368.985 479.029 364.597 480.648C363.252 479.341 361.7 478.24 360.127 477.161C361.369 473.55 366.46 471.412 367.578 466.7C368.344 463.504 367.578 460.847 368.572 457.734C373.291 443.08 384.55 421.743 389.932 404.433C391.505 399.327 393.947 387.33 396.39 385.503C397.756 384.486 401.461 385.296 402.847 384.009C402.33 377.533 408.622 367.674 410.796 360.596C412.12 356.279 411.561 348.911 418.247 350.135C420.027 352.875 427.002 351.111 427.685 356.611C428.099 360.015 423.442 363.959 421.724 368.068C419.82 372.614 416.86 383.739 417.75 385.005C420.689 389.156 423.794 383.76 425.201 382.016C427.913 378.654 429.362 376.433 431.659 374.046C432.57 371.037 429.941 367.819 433.149 366.076C436.585 366.304 445.692 365.516 447.058 370.061C448.404 374.503 443.83 379.422 439.607 381.02C436.916 387.288 432.694 392.021 430.169 398.455C431.183 399.742 433.274 395.321 434.143 397.957C434.847 400.676 431.162 402.336 430.169 404.931C450.142 415.537 453.93 444.761 453.019 474.67C454.365 472.885 455.876 475.106 456 476.165ZM414.77 355.615C418.412 356.632 420.793 357.96 424.208 360.098C424.601 358.998 425.243 358.147 425.201 356.611C422.987 354.183 419.302 353.228 414.77 353.124C414.77 353.955 414.77 354.785 414.77 355.615ZM405.828 382.515C409.492 382.349 413.176 383.864 416.26 383.511C415.804 382.971 414.438 383.366 414.77 382.016C418.806 376.765 418.64 367.301 421.724 361.095C420.048 359.621 417.171 359.351 414.77 358.604C410.175 365.432 406.904 374.959 405.828 382.515ZM434.143 370.559C436.896 371.12 440.311 373.527 443.581 375.042C443.643 373.278 445.009 372.822 445.072 371.057C442.815 368.836 437.848 369.335 434.64 368.068C434.226 368.65 433.998 369.397 434.143 370.559ZM424.208 388.492C425.657 390.526 427.147 392.519 429.175 393.972C432.798 387.973 437.372 382.93 439.607 375.541C431.018 371.161 428.554 383.822 424.208 388.492ZM428.679 400.448C426.402 389.738 410.423 380.003 399.867 388.492C410.361 391.274 418.826 398.704 428.679 400.448ZM399.867 423.86C399.784 427.306 403.054 433.283 406.325 435.317C409.285 437.144 411.644 435.899 414.77 437.808C429.879 435.816 429.465 412.258 414.77 411.407C411.851 411.241 410.506 413.212 408.312 412.901C411.168 407.422 419.509 409.85 423.214 412.901C424.332 409.041 426.961 406.695 428.182 402.938C419.882 400.157 413.072 396.691 406.822 392.975C402.827 393.411 398.232 386.956 396.39 391.481C400.86 393.64 406.221 394.906 408.809 398.953C404.089 397.542 401.13 394.366 395.396 393.972C395.438 394.844 395.293 395.528 394.899 395.964C398.936 398.559 404.255 399.866 407.318 403.436C402.62 402.336 399.515 399.7 393.906 398.455C393.347 399.389 393.264 400.8 392.912 401.942C396.845 403.146 400.757 404.37 402.847 407.422C398.998 406.467 396.265 404.391 391.919 403.935C392.084 405.097 391.836 405.844 391.422 406.425C393.782 408.044 397.404 408.397 397.88 411.905C395.148 411.158 393.906 408.895 390.429 408.916C390.325 409.31 390.408 409.892 389.932 409.912C390.056 413.607 395.189 412.278 395.893 415.392C393.947 416.16 391.464 413.669 388.442 413.897C388.649 415.101 387.531 414.977 387.945 416.388C389.642 417.841 394.092 419.19 393.906 420.871C391.877 421.722 389.725 418.9 386.951 418.879C386.144 419.896 385.917 421.494 384.964 422.366C388.173 423.3 393.078 425.189 393.409 427.347C390.015 426.766 387.717 425.085 384.468 424.358C384.343 425.894 383.391 426.6 382.977 427.845C386.144 428.987 389.207 430.232 391.422 432.329C387.51 433.221 386.248 430.17 381.984 430.336C382.149 431.498 381.901 432.246 381.487 432.827C383.888 434.57 388.152 434.446 388.442 438.306C385.792 437.123 383.743 435.359 379.997 435.317C380.121 436.77 378.879 436.853 379.003 438.306C382.149 439.635 386.413 439.842 387.448 443.288C383.95 443.412 379.397 439.531 377.513 441.295C376.395 441.565 378.113 442.084 377.016 442.79C379.79 443.661 383.143 443.952 383.971 446.775C380.949 446.65 379.417 445.031 376.023 445.28C375.547 446.297 375.009 447.252 374.533 448.269C376.975 449.473 381.342 448.746 381.487 452.254C378.341 451.154 377.037 451.03 373.539 450.76C374.077 452.628 372.297 452.171 372.546 453.749C377.989 458.087 384.054 461.802 392.416 463.213C398.708 455.741 403.944 447.211 409.802 439.303C394.713 437.04 394.941 412.195 409.802 409.912C406.884 414.271 400.033 417.779 399.867 423.86ZM425.201 414.894C429.962 418.733 429.093 429.049 426.195 434.321C437.31 444.575 442.319 463.13 440.601 481.146C443.85 479.984 450.06 478.656 450.039 472.678C448.652 471.91 445.837 472.574 445.568 470.685C446.458 469.502 449.459 470.416 450.536 470.685C451.653 466.41 445.92 469.004 445.568 466.202C447.079 464.645 449.604 467.178 451.033 465.704C452.15 461.594 446.582 464.189 446.562 461.221C447.886 461.221 449.211 461.221 450.536 461.221C450.95 457.485 445.651 459.477 445.072 456.737C447.307 456.488 448.797 456.987 450.536 457.236C451.674 452.773 444.844 456.302 445.568 452.254C446.81 452.669 448.238 452.898 450.039 452.752C450.039 451.59 450.039 450.428 450.039 449.265C448.238 448.912 445.92 449.079 444.575 448.269C444.388 446.878 446.872 446.505 449.045 447.273C449.811 446.546 449.48 444.72 449.542 443.288C447.804 442.042 443.333 443.537 443.581 440.299C445.423 440.527 445.858 440.672 448.549 440.797C448.549 439.469 448.549 438.14 448.549 436.812C445.796 436.085 442.463 435.94 440.601 434.321C442.401 432.619 445.775 435.566 447.555 433.823C446.707 433.014 446.934 431.125 446.065 430.336C443.871 429.049 438.241 431.208 437.62 428.343C439.607 427.596 443.581 427.596 445.568 428.343C445.589 426.496 444.802 425.458 444.078 424.358C440.994 423.487 436.689 424.607 436.13 422.366C437.724 420.643 441.346 423.736 443.084 421.868C442.07 421.058 441.097 420.207 441.097 418.381C438.117 417.384 433.025 418.505 431.659 415.89C434.35 415.247 434.66 416.056 438.614 415.89C438.655 410.971 430.893 414.354 429.175 412.403C429.631 410.535 433.605 412.195 434.143 410.41C431.907 409.663 431.224 407.359 428.679 406.923C427.519 409.58 425.864 411.739 425.201 414.894ZM390.429 466.202C383.143 462.84 378.341 460.058 371.055 456.737C371.304 458.294 370.352 458.688 370.062 459.726C377.513 461.324 384.385 467.676 390.429 466.202ZM369.565 462.217C370.31 469.959 382.77 474.795 387.945 469.191C381.591 467.427 375.278 463.006 369.565 462.217ZM363.107 476.663C366.605 476.974 368.82 472.242 371.552 470.187C370.683 469.731 370.103 468.983 369.068 468.693C367.35 471.599 365.156 474.048 363.107 476.663ZM385.958 473.674C386.372 475.916 387.096 477.846 388.442 479.154C387.945 476.58 388.276 475.127 388.938 472.678C387.386 472.45 387.013 473.384 385.958 473.674ZM376.52 483.637C378.693 481.333 379.045 477.203 380.494 474.172C379.397 473.778 378.548 473.135 377.016 473.176C377.037 477.576 375.091 479.569 376.52 483.637ZM434.64 478.157C435.923 478.365 436.13 479.652 437.62 479.652C437.951 478.614 438.924 477.431 438.117 476.663C436.647 476.85 435.095 476.954 434.64 478.157ZM438.117 482.641C435.364 481.084 432.591 476.912 428.182 478.656C431.825 479.278 434.722 485.007 438.117 482.641ZM421.724 489.615C420.068 492.105 419.323 495.509 417.75 498.083C426.009 497.813 436.358 497.274 429.175 505.057C424.56 503.21 420.172 506.033 415.266 505.057C409.222 516.037 401.523 526.207 390.925 532.953C386.31 535.9 380.204 537.623 378.01 541.919C391.484 541.836 397.901 541.65 409.802 540.425C413.61 531.5 429.651 525.003 432.653 538.931C435.116 539.117 436.606 539.699 439.11 538.432C435.261 534.821 434.991 527.619 431.162 523.986C431.142 523.301 431.39 522.886 431.659 522.492C429.01 522.118 424.87 525.128 423.214 522.492C425.326 521.288 429.362 522.015 430.169 519.503C429.693 518.154 426.05 519.981 426.195 518.009C429.589 516.099 435.757 516.971 437.62 513.525C435.778 513.858 431.866 514.709 430.666 514.024C433.046 511.429 439.483 512.903 440.601 509.042C438.138 508.295 435.24 510.495 434.64 508.544C437.703 507.133 442.381 507.34 443.084 503.563C440.021 503.085 437.869 505.119 436.627 503.064C439.731 501.695 444.823 502.317 445.072 498.083C442.919 497.834 441.884 499.847 439.607 498.581C440.663 495.157 447.948 497.979 447.555 493.102C444.161 493.351 440.518 494.7 439.11 493.6C441.47 490.985 447.928 492.479 449.045 488.618C445.568 488.349 440.89 491.42 439.11 489.615C440.58 486.875 448.487 488.224 450.039 484.135C446.334 484.239 444.057 487.207 441.097 484.633C444.057 483.845 452.543 482.807 451.529 478.157C443.084 483.471 433.853 487.975 421.724 489.615ZM424.705 480.15C426.609 483.201 429.32 485.899 434.143 484.633C432.052 482.246 427.851 479.901 424.705 480.15ZM421.724 487.124C424.229 487.477 425.346 486.439 427.188 486.128C426.464 484.53 424.746 483.928 423.214 483.139C423.152 484.903 421.807 485.36 421.724 487.124ZM359.63 495.094C359.63 496.423 359.63 497.751 359.63 499.079C372.897 500.2 384.757 499.328 395.893 500.076C395.893 498.415 395.893 496.755 395.893 495.094C384.944 495.655 373.249 495.551 359.63 495.094ZM403.344 502.068C401.875 502.276 396.928 501.591 397.88 502.566C407.898 502.193 421.91 503.583 428.182 501.072C421.703 500.221 411.458 500.636 403.344 502.068ZM386.951 502.566C378.32 502.151 367.102 500.657 360.623 503.064C369.648 502.629 377.347 502.981 386.951 502.566ZM392.912 502.068C386.6 502.504 400.24 502.629 396.39 502.068C393.823 501.695 393.285 502.047 392.912 502.068ZM432.653 519.005C433.646 520.043 434.784 519.026 435.136 518.009C433.915 517.946 432.735 517.926 432.653 519.005ZM426.692 533.451C422.179 530.774 415.059 535.423 413.776 540.425C418.247 540.093 424.643 539.595 430.169 538.931C428.223 537.498 428.968 534.8 426.692 533.451ZM429.175 540.923C422.656 541.234 416.136 543.04 409.802 543.414C398.046 544.099 386.144 544.182 376.52 544.41C373.601 544.493 366.667 542.584 366.585 548.395C390.077 552.297 420.772 546.797 447.058 548.395C448.321 546.631 448.218 543.601 447.555 540.425C441.242 541.67 435.136 540.653 429.175 540.923Z" fill="black"/>
<path fill-rule="evenodd" clip-rule="evenodd" d="M264.774 152C270.03 155.021 270.961 162.368 278.183 163.423C278.68 172.383 280.749 182.109 280.666 188.752C279.507 188.917 278.762 188.669 278.183 188.255C273.796 191.815 266.491 192.477 263.78 197.692C263.201 197.112 262.021 197.133 260.8 197.195C258.483 191.649 253.454 191.463 249.874 187.759C246.522 188.172 244.39 190.78 241.431 192.725C235.099 196.884 231.912 197.443 232.988 208.121C233.299 211.225 235.223 213.212 234.478 215.571C226.552 214.577 222.745 221.613 217.095 224.51C215.937 231.67 218.606 238.52 217.592 246.363C210.784 248.722 205.817 254.806 202.693 259.276C199.113 258.22 198.078 254.62 195.243 252.819C193.381 252.302 194.457 254.682 192.76 254.309C193.608 251.495 191.725 249.343 188.787 247.853C187.172 248.722 190.07 249.157 189.283 250.833C187.214 250.584 186.945 248.536 185.807 247.356C188.952 242.928 187.214 235.437 186.303 228.484C186.096 226.973 186.717 224.821 186.303 224.014C183.861 219.378 174.86 218.033 170.907 214.578C170.431 212.777 173.142 214.164 172.894 212.591C170.411 207.956 172.646 200.63 170.411 193.222C174.611 194.484 180.178 187.055 184.813 185.275C185.434 185.027 187.855 186.041 188.29 183.785C188.29 180.599 184.669 183.496 184.813 180.806C185.807 180.806 186.8 180.806 187.793 180.806C186.365 176.108 185.579 168.886 186.303 164.913C193.774 163.588 197.043 154.773 203.686 153.987C211.198 153.097 213.246 162.181 220.572 163.92C225.621 160.36 231.043 157.173 235.471 152.993C237.479 152.704 237.044 155.042 235.968 155.477C241.141 158.932 245.342 164.23 250.371 166.403C254.634 161.064 263.18 159.988 264.774 152ZM188.29 166.403C188.062 168.286 189.573 169.941 188.29 171.369C194.684 165.244 201.824 162.74 208.652 157.463C200.52 154.069 195.181 163.857 188.29 166.403ZM263.284 159.45C269.864 159.822 271.602 165.037 276.196 167.396C273.465 162.843 269.533 159.491 264.774 156.966C265.146 158.663 262.766 157.608 263.284 159.45ZM220.075 166.899C220.386 168.741 219.434 171.845 220.572 172.859C225.663 167.851 232.616 164.706 236.465 158.456C229.739 156.635 225.435 164.209 220.075 166.899ZM210.142 159.946C204.121 165.223 183.737 169.176 190.277 181.302C196.774 183.247 202.527 185.938 207.659 189.249C211.984 187.448 215.171 184.51 220.075 183.289C218.916 177.329 217.468 171.659 217.592 164.416C214.798 163.237 213.474 160.588 210.142 159.946ZM245.404 186.765C251.468 185.524 247.308 172.176 247.888 167.396C243.77 165.72 242.073 161.623 237.955 159.946C233.733 166.341 227.297 170.479 220.572 174.349C219.579 178.715 225 182.689 221.565 184.779C224.152 189.476 229.574 191.339 233.981 194.215C236.754 192.187 240.686 191.318 243.418 189.249C243.542 180.619 243.563 172.259 242.424 164.416C246.853 168.431 244.928 178.819 245.404 186.765ZM276.693 170.873C272.016 168.182 269.885 163.071 265.27 161.436C258.917 159.201 254.903 166.113 250.371 170.376C249.108 182.42 252.275 188.172 258.814 191.235C263.863 186.186 272.865 185.089 277.686 179.812C277.541 176.646 277.128 173.749 276.693 170.873ZM276.693 183.289C271.665 186.538 266.429 189.58 260.304 191.732C260.407 195.167 264.298 193.242 266.76 192.228C271.313 190.345 275.41 187.966 278.183 185.772C276.776 185.855 278.783 182.523 276.693 183.289ZM204.183 190.738C200.872 187.262 196.071 185.275 190.773 183.785C193.525 187.821 198.14 190.014 204.183 190.738ZM186.8 186.269C183.448 191.442 175.212 191.463 173.391 197.195C172.19 200.961 175.046 203.734 173.887 209.114C180.426 211.018 184.606 215.281 191.766 216.564C196.216 214.391 200.665 212.218 203.189 208.121C202.03 203.175 201.968 198.354 201.203 192.228C195.305 191.359 192.532 187.324 186.8 186.269ZM216.599 187.262C222.848 189.29 225.601 194.815 230.505 198.188C230.153 196.678 231.353 196.719 231.002 195.208C226.408 192.911 221.607 185.917 216.599 187.262ZM231.002 202.161C225.29 199.513 221.731 188.4 215.109 188.255C211.343 188.172 209.46 192.559 204.679 192.725C203.5 197.402 204.39 203.817 205.176 208.121C211.694 210.377 214.364 216.481 221.565 218.054C224.607 215.943 227.835 214.06 231.498 212.591C231.767 208.763 229.594 205.576 231.002 202.161ZM219.579 219.544C213.039 218.302 210.97 212.591 205.176 210.604C207.349 215.674 213.019 223.662 219.579 219.544ZM175.377 214.578C179.371 216.212 182.372 218.84 185.807 221.034C186.841 220.248 188.373 219.958 188.787 218.551C184.4 216.316 180.075 214.019 175.377 212.094C175.377 212.922 175.377 213.75 175.377 214.578ZM201.699 212.591C199.858 217.64 190.587 216.44 188.787 223.02C188.166 225.317 188.952 234.899 189.283 239.906C189.676 245.763 192.222 248.97 196.236 249.839C201.968 245.308 208.652 241.728 215.109 237.92C214.219 233.347 215.047 227.056 214.116 222.524C208.156 221.034 206.687 215.074 201.699 212.591ZM196.733 251.826C202.569 259.11 204.183 251.992 210.639 247.356C213.143 245.556 215.026 245.163 216.102 243.383C216.04 242.121 215.812 241.024 215.109 240.403C209.004 244.211 202.155 247.315 196.733 251.826Z" fill="black"/>
<path fill-rule="evenodd" clip-rule="evenodd" d="M168.92 180.309C166.374 184.779 169.106 192.518 166.933 198.188C163.187 198.457 163.767 194.401 162.463 192.229C160.642 193.822 162.07 195.726 162.463 197.692C161.201 198.354 158.511 199.347 157 198.188C162.07 192.415 155.862 184.924 159.483 180.309C162.153 183.434 163.374 188.007 164.946 192.229C166.291 187.945 164.946 183.061 163.953 181.302C164.326 179.771 167.554 179.295 168.92 180.309Z" fill="black"/>
<path fill-rule="evenodd" clip-rule="evenodd" d="M242.424 211.101C243.355 212.219 244.701 214.785 243.914 216.068C241.245 217.247 241.555 215.074 239.444 214.578C238.575 214.702 238.306 215.426 238.451 216.564C242.59 217.723 247.246 218.365 247.391 223.517C246.046 226.849 242.776 228.484 238.948 227.987C238.203 226.58 236.94 225.69 236.961 223.517C237.872 222.441 238.637 221.22 240.934 221.531C240.272 223.083 241.058 222.959 240.934 225.007C242.714 224.966 244.349 224.78 244.907 223.517C245.259 218.696 238.451 221.034 236.464 218.551C235.513 213.833 237.458 211.101 242.424 211.101Z" fill="black"/>
<path fill-rule="evenodd" clip-rule="evenodd" d="M585.235 238.077C587.863 236.318 593.078 236.09 595.665 238.077C597.03 237.125 598.189 235.966 599.141 234.6C594.464 227.337 603.673 221.543 609.571 225.661C612.965 229.758 608.329 234.166 612.054 238.077C616.834 237.291 620.6 235.635 623.974 238.574C626.064 237.849 625.898 234.869 628.443 234.6C626.25 230.938 627.471 226.882 630.43 224.668C637.011 224.274 640.197 230.089 638.376 235.097C638.832 238.118 642.701 237.725 643.839 240.064C645.971 237.022 650.73 237.187 653.772 240.064C655.987 239.629 656.276 237.27 657.746 236.09C655.18 231.579 657.89 227.192 660.725 225.164C665.444 225.454 668.092 226.426 670.162 230.131C670.182 231.972 669.665 233.276 669.168 234.6C669.541 236.215 671.486 236.256 671.652 238.077C677.301 237.684 679.805 236.256 683.571 239.567C685.744 238.925 686.696 237.063 688.041 235.594C683.178 226.157 697.167 220.984 700.457 229.137C700.85 231.683 699.919 232.904 699.464 234.6C700.623 236.09 702.526 236.835 703.437 238.574C706.727 237.87 709.148 236.359 712.873 237.084C717.074 237.891 717.84 241.657 721.316 237.084C717.26 233.338 720.633 226.509 724.296 224.668C729.863 225.702 735.16 231.393 730.256 236.09C730.98 239.505 735.471 239.153 735.719 243.043C730.608 241.326 728.932 237.849 723.303 237.58C721.916 239.008 720.551 240.457 719.33 242.05C719.806 246.561 719.826 247.493 718.336 250.99C718.399 253.411 722.558 253.804 721.316 255.956C719.268 257.508 718.399 254.466 716.846 253.97C712.625 259.433 701.637 252.335 698.967 259.433C701.988 262.951 699.381 267.979 696.484 269.862C690.048 270.504 687.524 267.234 686.551 262.413C687.42 260.799 688.207 259.102 689.531 257.943C688.579 256.412 686.82 255.687 685.558 254.466C682.33 257.363 676.742 258.026 672.645 255.46C671.155 257.115 670.017 259.122 668.175 260.426C673.369 266.22 665.754 273.815 659.235 271.849C655.076 270.607 652.903 262.475 657.249 259.433C656.856 257.839 655.449 257.26 654.766 255.956C650.358 257.591 646.157 258.75 642.349 256.453C640.115 257.695 638.976 260.033 637.383 261.916C638.5 262.289 638.273 264.006 638.873 264.896C638.335 277.002 618.552 269.945 626.953 260.426C626.602 257.798 624.036 257.384 623.477 254.963C621.014 256.018 615.365 256.763 613.544 255.46C612.716 256.763 609.509 259.143 608.081 261.419C615.841 273.96 589.229 273.877 597.651 259.929C597.134 257.632 594.568 257.384 594.175 254.963C592.085 256.66 587.946 257.715 585.732 255.46C578.282 256.908 584.594 266.634 579.275 270.359C572.591 275.036 563.176 266.22 569.342 259.929C568.804 257.819 566.114 257.86 565.866 255.46C562.307 257.281 558.499 258.771 554.443 256.453C550.408 257.219 549.89 261.502 546 262.413C546.248 258.688 549.228 257.695 550.966 255.46C548.794 250.638 545.027 248.134 547.987 242.05C548.545 240.933 551.422 239.132 551.463 238.574C551.815 234.269 545.793 235.035 546.497 230.131C549.083 230.131 551.629 234.207 553.45 236.587C556.554 233.752 562.286 233.897 565.866 236.09C570.108 235.159 568.701 231.683 568.846 226.654C572.053 220.198 582.069 226.902 579.275 232.117C580.6 234.787 582.607 236.732 585.235 238.077ZM571.329 232.117C573.626 233.131 576.233 233.504 577.289 231.124C577.454 227.647 574.723 227.068 573.316 225.164C571.391 226.22 571.06 228.868 571.329 232.117ZM607.584 234.6C608.433 232.862 609.116 229.82 608.081 227.647C599.928 221.501 596.824 236.67 607.584 234.6ZM697.974 231.621C699.505 220.136 681.109 232.241 694.001 235.594C695.573 233.897 697.705 233.649 697.974 231.621ZM634.403 235.097C634.983 233.69 636.39 233.111 636.886 231.621C635.562 229.468 634.548 227.006 631.423 226.654C628.092 229.448 630.616 234.104 634.403 235.097ZM667.678 231.621C667.865 225.806 658.884 225.702 658.739 231.124C658.697 232.904 659.587 236.07 664.699 235.594C665.444 233.4 667.616 233.545 667.678 231.621ZM726.779 236.09C729.47 235.739 730.794 233.297 729.759 229.634C722.765 221.46 718.274 237.166 726.779 236.09ZM570.336 235.097C569.529 235.925 569.26 237.332 568.349 238.077C571.122 243.312 569.694 248.776 567.852 253.97C569.673 258.336 574.599 258.481 579.772 258.439C580.414 256.432 582.317 255.687 583.249 253.97C578.179 251.714 579.627 242.34 582.752 239.07C579.917 238.594 580.02 235.18 577.289 234.6C576.171 236.897 572.612 234.787 570.336 235.097ZM625.96 240.56C631.258 246.748 621.739 254.859 629.437 258.936C630.865 257.881 634.858 258.46 636.39 258.936C638.19 257.757 639.266 255.853 640.363 253.97C636.39 251.01 639.121 243.25 641.853 241.057C638.438 237.767 635.21 237.063 629.933 236.09C628.919 237.27 626.415 237.622 625.96 240.56ZM559.906 255.46C568.142 254.653 571.743 238.615 561.396 236.587C560.01 238.449 558.644 236.132 557.423 237.084C544.862 239.215 549.373 256.494 559.906 255.46ZM598.148 240.064C600.817 244.389 598.872 249.645 596.161 253.473C597.755 257.239 599.99 257.798 604.604 257.943C604.19 259.536 604.19 258.978 605.101 259.929C608.64 259.329 609.219 255.77 611.557 253.97C607.108 251.859 608.577 243.271 610.564 239.567C608.619 236.566 598.5 234.766 598.148 240.064ZM690.028 237.084C688.62 238.656 686.861 239.877 686.054 242.05C688.62 243.975 687.669 248.341 687.048 251.983C689.014 256.432 693.545 255.335 696.981 257.943C699.236 257.053 699.836 254.508 701.947 253.473C697.457 251.59 698.429 242.174 701.947 240.064C699.257 234.725 694.87 239.277 690.028 237.084ZM658.242 238.077C658.366 240.188 656.794 240.602 656.256 242.05C662.34 245.465 652.634 252.914 658.739 257.446C662.298 256.474 663.685 257.777 666.685 259.433C667.161 256.763 670.182 256.639 670.658 253.97C667.947 249.438 667.12 242.795 671.155 239.567C668.175 236.256 663.105 237.642 658.242 238.077ZM620.497 238.077C618.076 239.422 615.696 238.284 613.544 240.064C610.916 242.236 610.647 247.099 611.061 249.003C612.778 256.929 627.574 255.17 625.463 243.54C624.16 241.367 621.904 240.167 620.497 238.077ZM584.242 252.48C586.311 251.631 586.456 253.639 587.718 253.97C593.595 255.542 598.417 248.196 596.161 241.057C594.527 239.546 590.077 238.222 587.222 239.567C582.172 241.409 581.014 248.796 584.242 252.48ZM712.873 253.97C717.157 251.797 718.44 242.423 713.867 239.567C700.085 234.187 695.967 256.66 712.873 253.97ZM641.853 252.48C644.026 252.687 643.488 250.948 645.329 251.983C645.536 253.183 644.419 253.059 644.833 254.466C651.062 257.136 656.4 251.424 655.759 244.037C650.544 235.345 636.824 243.25 641.853 252.48ZM672.645 252.48C677.053 257.529 686.303 254.177 685.558 246.52C685.061 241.45 678.894 237.725 674.135 240.064C670.513 241.843 669.706 249.127 672.645 252.48ZM689.531 263.406C689.759 266.138 691.828 267.586 695.987 267.379C703.561 261.357 688.724 254.094 689.531 263.406ZM607.088 263.903C605.391 261.978 602.556 260.157 601.624 258.936C592.416 262.992 606.239 275.719 607.088 263.903ZM661.719 261.419C659.877 262.454 660.415 260.716 658.242 260.923C653.089 268.662 668.072 273.194 667.678 263.406C663.995 263.137 665.03 257.881 660.725 259.433C661.615 259.557 661.864 260.281 661.719 261.419ZM569.839 265.393C571.039 271.621 583.145 268.89 578.779 260.923C574.661 257.86 568.97 260.819 569.839 265.393ZM636.39 265.393C636.162 263.365 633.658 263.033 634.9 260.923C621.304 256.556 630.057 277.767 636.39 265.393Z" fill="black"/>
<path fill-rule="evenodd" clip-rule="evenodd" d="M738.696 249.996C741.014 253.494 734.019 255.77 732.736 258.936C736.647 269.324 721.831 270.359 719.823 263.406C717.754 256.225 725.7 251.962 730.75 256.453C734.143 255.046 736.13 252.231 738.696 249.996ZM722.307 260.923C722.472 264.068 725.742 265.993 730.253 264.399C732.384 256.639 721.955 253.804 722.307 260.923Z" fill="black"/>
<path fill-rule="evenodd" clip-rule="evenodd" d="M524.452 6.27233C525.114 7.12077 527.245 5.25834 528.425 6.27233C529.832 7.88643 530.287 10.8456 528.922 12.7287C525.693 14.1152 521.824 11.0939 522.962 8.25891C521.596 7.63811 520.313 6.93452 518.492 6.76897C517.437 4.741 518.306 2.50609 518.989 0.809212C522.776 -1.7361 526.314 2.17499 524.452 6.27233Z" fill="black"/>
<path fill-rule="evenodd" clip-rule="evenodd" d="M536.374 20.6749C533.56 22.2269 531.718 20.5714 529.421 19.185C525.903 8.75538 541.692 12.5837 536.374 20.6749Z" fill="black"/>
<path fill-rule="evenodd" clip-rule="evenodd" d="M591.002 26.6347C591.726 27.4004 592.947 27.6694 594.479 27.628C595.513 30.6286 594.934 34.1465 592.492 35.0777C590.63 34.2914 588.457 33.8154 587.526 32.0979C587.277 30.5251 588.415 30.3389 588.022 28.6213C585.829 28.0212 583.449 27.566 581.566 26.6347C581.545 23.1168 579.228 22.6202 579.579 19.6817C580.78 9.5832 598.762 16.7846 591.002 26.6347ZM583.056 24.6482C585.208 25.5173 588.043 26.0967 590.009 24.6482C592.492 13.9289 577.82 15.6464 583.056 24.6482Z" fill="black"/>
<path fill-rule="evenodd" clip-rule="evenodd" d="M581.068 26.6348C581.606 32.16 576.805 34.4363 573.121 31.6013C569.748 25.3725 578.274 20.1577 581.068 26.6348Z" fill="black"/>
<path fill-rule="evenodd" clip-rule="evenodd" d="M597.958 35.5746C598.02 38.2234 599.158 40.8101 597.461 42.5276C589.453 45.7972 588.977 31.498 597.958 35.5746Z" fill="black"/>
<path fill-rule="evenodd" clip-rule="evenodd" d="M602.924 46.004C605.428 44.4106 610.518 43.7691 612.857 46.004C615.568 41.1617 623.328 42.2171 625.77 46.5007C626.287 50.7222 623.99 54.0539 621.3 56.4336C621.507 59.6204 620.907 62.0002 619.81 63.8833C622.086 63.8833 622.748 62.4348 624.776 62.89C634.378 65.0422 619.893 78.3482 619.313 66.3666C611.905 77.1479 594.233 68.1669 594.481 57.4269C594.564 54.178 596.157 50.9912 599.944 50.4739C590.508 49.2943 601.268 35.74 602.924 46.004ZM616.333 46.9973C616.54 48.4459 619.499 51.4465 621.3 52.9571C622.666 51.6741 623.659 50.0186 623.286 46.9973C621.652 46.3144 617.327 43.8519 616.333 46.9973ZM604.91 47.9906C601.537 50.5773 597.337 52.4191 596.964 56.9303C595.929 69.5741 619.044 75.0993 619.313 58.4202C615.464 59.2066 614.761 63.1384 611.367 64.38C611.967 59.0203 617.865 58.9582 618.32 53.4537C614.636 52.9778 613.146 58.8341 609.877 60.4068C609.629 55.1506 615.795 53.8055 615.34 49.9772C611.47 49.9151 610.249 56.3508 606.897 58.4202C606.773 57.7166 606.069 57.5925 605.904 56.9303C608.532 54.8609 610.994 50.1635 611.367 47.494C606.256 46.5835 605.179 53.8676 600.441 54.9437C601.372 52.6467 605.428 48.4666 604.91 47.9906Z" fill="black"/>
<path fill-rule="evenodd" clip-rule="evenodd" d="M561.203 53.4537C561.493 55.0678 560.872 55.7714 560.707 56.9302C567.018 59.2893 573.413 64.0281 572.13 72.3263C573.061 72.5746 574.965 69.5326 578.089 70.3397C579.89 69.8637 578.586 72.4918 579.579 72.8229C580.966 68.4566 586.801 64.7317 591.002 68.8497C592.409 68.2703 593.651 67.5254 594.479 66.3665C599.135 65.0214 599.321 71.7262 597.459 73.8162C595.389 74.0645 594.086 73.5472 592.989 72.8229C592.099 74.7474 592.016 77.479 590.506 78.7827C591.499 78.7827 592.492 78.7827 593.485 78.7827C594.086 80.5002 594.83 82.073 594.479 84.7424C596.403 85.0115 596.9 83.8526 598.949 84.2458C600.976 85.7771 600.728 88.9639 598.949 91.1989C597.624 91.1989 596.3 91.1989 594.975 91.1989C594.23 89.7917 592.968 88.9019 592.989 86.729C592.182 85.922 590.919 87.1636 589.016 86.729C587.608 85.3219 586.574 83.5422 587.029 80.2726C583.511 79.6518 580.2 78.8241 580.573 74.3129C579.29 75.6786 578.607 77.6445 576.599 78.286C573.951 77.7894 572.295 76.2994 572.13 73.3196C569.977 81.6177 556.361 87.0187 550.277 78.7827C547.939 80.2519 544.379 79.7346 541.834 78.7827C540.758 76.4857 539.082 74.0438 540.344 70.8363C546.283 68.3324 549.263 62.8693 553.754 58.9168C552.947 57.7373 552.119 56.5784 552.264 54.447C554.188 50.7635 558.699 50.5773 561.203 53.4537ZM549.284 73.8162C551.105 75.8028 553.112 77.6031 554.747 79.776C562.548 82.4248 570.164 76.7961 569.646 69.843C566.377 72.2021 564.038 75.4924 560.21 77.2927C562.238 72.7815 568.301 69.9258 569.15 65.8699C563.935 66.4907 562.362 73.2575 558.72 73.8162C559.465 69.0774 568.218 65.5802 565.177 61.8967C563.128 65.3111 560.189 67.8358 556.734 69.843C557.623 65.725 563.066 63.6556 562.693 59.9101C559.486 62.0002 557.913 65.725 554.25 67.3598C555.078 64.2144 557.934 63.0969 558.72 59.9101C551.995 60.9448 548.766 65.5181 549.284 73.8162ZM590.009 72.3263C588.974 67.8565 581.318 68.3738 583.056 75.8028C586.719 79.1759 590.919 76.2581 590.009 72.3263ZM544.317 77.2927C545.849 76.7133 546.739 77.479 548.291 76.2994C546.697 75.0992 546.49 72.4711 546.304 69.843C541.917 70.2776 541.855 74.8509 544.317 77.2927Z" fill="black"/>
<path fill-rule="evenodd" clip-rule="evenodd" d="M633.714 72.3263C630.569 72.3056 628.354 70.8363 628.251 68.8497C627.878 61.6277 640.978 66.47 633.714 72.3263Z" fill="black"/>
<path fill-rule="evenodd" clip-rule="evenodd" d="M563.687 26.6348C568.177 23.5515 572.771 27.8557 571.137 34.0845C568.426 35.9055 565.177 34.6639 563.687 32.5946C561.286 36.1539 559.983 40.8099 555.244 42.0309C556.817 44.1416 558.389 48.8598 555.741 50.9705C552.161 51.5706 551.022 49.7289 549.781 47.9906C549.305 45.5281 550.381 44.6176 551.271 43.5208C549.346 42.2792 549.512 43.3759 546.304 42.5275C546.097 43.7277 548.56 42.2585 547.794 44.0174C547.401 43.914 547.298 43.5208 546.801 43.5208C544.773 46.48 538.089 48.6114 534.385 45.5074C531.612 40.8513 534.55 37.768 536.868 33.0912C532.44 23.1376 539.806 16.6812 547.298 14.2186C557.768 13.3702 561.059 19.6611 563.687 26.6348ZM551.271 40.5409C556.734 40.4788 561.845 35.6779 560.707 28.6214C558.658 30.2148 556.506 34.3535 554.251 34.0845C555.12 29.9044 562.073 27.3591 559.714 23.1583C556.465 24.3792 556.237 28.6214 552.264 29.118C553.816 25.8071 558.389 23.0548 557.727 19.1851C553.237 20.5302 552.161 25.538 548.787 25.6415C550.671 22.9927 554.292 19.6404 554.251 16.7019C549.367 17.2813 549.243 22.6202 545.311 24.1516C545.663 20.6957 548.456 19.6818 549.284 16.7019C544.773 16.826 545.683 22.3719 541.834 23.1583C541.772 21.3993 544.214 19.6197 543.324 18.6885C532.812 24.1516 540.634 40.6858 551.271 40.5409ZM544.318 40.5409C540.903 39.6718 539.869 36.6091 537.861 35.5744C530.308 40.9341 542.021 49.5426 544.318 40.5409Z" fill="black"/>
</svg>
