<svg width="57" height="57" viewBox="0 0 57 57" fill="none" xmlns="http://www.w3.org/2000/svg">
<path fill-rule="evenodd" clip-rule="evenodd" d="M52.9878 24.4966C53.9254 32.4677 52.0591 40.7476 46.3626 46.4033C40.5598 52.1647 32.1509 54.4137 24.0611 53.2166C16.1207 52.0416 8.8029 47.4593 5.1639 40.3067C1.77877 33.6531 3.6606 25.8981 6.69117 19.0755C9.45022 12.8642 14.2561 8.02958 20.5936 5.57042C27.4473 2.91095 35.2095 1.83818 41.5567 5.54649C48.259 9.46226 52.0811 16.7889 52.9878 24.4966Z" stroke="#A7BDD3"/>
<path d="M40.2953 24.6421C40.2825 23.6591 40.1033 22.686 39.7655 21.7661C39.4726 20.9902 39.0252 20.2855 38.452 19.6971C37.8787 19.1087 37.1922 18.6495 36.4362 18.3489C35.5516 18.008 34.6169 17.8237 33.6722 17.8038C32.4558 17.748 32.0701 17.7324 28.9824 17.7324C25.8946 17.7324 25.4988 17.7324 24.2913 17.8038C23.347 17.8239 22.4128 18.0082 21.5285 18.3489C20.7724 18.6493 20.0858 19.1084 19.5125 19.6969C18.9392 20.2853 18.4919 20.9901 18.1992 21.7661C17.8665 22.6734 17.6873 23.6325 17.6694 24.6018C17.6151 25.8517 17.5986 26.2475 17.5986 29.4168C17.5986 32.5861 17.5986 32.991 17.6694 34.2318C17.6884 35.2025 17.8667 36.1603 18.1992 37.0701C18.4924 37.8459 18.9401 38.5504 19.5135 39.1386C20.087 39.7267 20.7737 40.1857 21.5298 40.486C22.4116 40.8406 23.346 41.0381 24.2926 41.07C25.5102 41.1258 25.8959 41.1427 28.9836 41.1427C32.0714 41.1427 32.4672 41.1427 33.6747 41.07C34.6194 41.0509 35.5541 40.867 36.4388 40.5262C37.1945 40.2252 37.8809 39.7659 38.4541 39.1776C39.0273 38.5892 39.4748 37.8847 39.768 37.109C40.1006 36.2006 40.2789 35.2428 40.2978 34.2707C40.3522 33.0222 40.3686 32.6263 40.3686 29.4557C40.3661 26.2864 40.3661 25.8841 40.2953 24.6421ZM28.9748 35.4102C25.7454 35.4102 23.1293 32.725 23.1293 29.4103C23.1293 26.0956 25.7454 23.4104 28.9748 23.4104C30.5251 23.4104 32.0119 24.0426 33.1082 25.1678C34.2044 26.293 34.8203 27.819 34.8203 29.4103C34.8203 31.0016 34.2044 32.5277 33.1082 33.6529C32.0119 34.7781 30.5251 35.4102 28.9748 35.4102ZM35.0529 24.5876C34.2981 24.5876 33.6899 23.962 33.6899 23.1885C33.6899 23.0049 33.7251 22.823 33.7936 22.6534C33.8621 22.4837 33.9624 22.3295 34.0889 22.1997C34.2154 22.0698 34.3656 21.9668 34.5309 21.8965C34.6962 21.8263 34.8734 21.7901 35.0523 21.7901C35.2312 21.7901 35.4084 21.8263 35.5737 21.8965C35.739 21.9668 35.8892 22.0698 36.0157 22.1997C36.1422 22.3295 36.2426 22.4837 36.311 22.6534C36.3795 22.823 36.4147 23.0049 36.4147 23.1885C36.4147 23.962 35.8053 24.5876 35.0529 24.5876Z" fill="#063854"/>
<path d="M28.9741 33.3074C31.0712 33.3074 32.7713 31.5625 32.7713 29.41C32.7713 27.2576 31.0712 25.5127 28.9741 25.5127C26.877 25.5127 25.1769 27.2576 25.1769 29.41C25.1769 31.5625 26.877 33.3074 28.9741 33.3074Z" fill="#063854"/>
</svg>
