<svg width="12" height="12" viewBox="0 0 12 12" fill="none" xmlns="http://www.w3.org/2000/svg">
<path fill-rule="evenodd" clip-rule="evenodd" d="M6 2.2219C5.28228 1.20955 4.0052 0.683089 2.83084 0.822353C2.11883 0.906787 1.43271 1.23641 0.927772 1.85753C0.42389 2.47735 0.125 3.35658 0.125 4.50004C0.125 5.23309 0.452176 5.9641 0.907885 6.63954C1.36702 7.32008 1.98255 7.98207 2.61672 8.58454C3.25229 9.18834 3.91751 9.7425 4.48107 10.2043C4.56609 10.274 4.6483 10.3412 4.72742 10.4058C5.18325 10.7783 5.53647 11.067 5.73484 11.2653C5.88128 11.4118 6.11872 11.4118 6.26516 11.2653C6.46353 11.067 6.81675 10.7783 7.27258 10.4058C7.3517 10.3412 7.43391 10.274 7.51893 10.2043C8.08249 9.7425 8.74771 9.18834 9.38328 8.58454C10.0175 7.98207 10.633 7.32008 11.0921 6.63954C11.5478 5.9641 11.875 5.23309 11.875 4.50004C11.875 3.35658 11.5761 2.47735 11.0722 1.85753C10.5673 1.23641 9.88117 0.906787 9.16916 0.822353C7.9948 0.683089 6.71772 1.20955 6 2.2219ZM1.50973 2.33063C1.13861 2.78714 0.875 3.48644 0.875 4.50004C0.875 5.01707 1.11032 5.59861 1.52961 6.22008C1.94548 6.83646 2.51745 7.45575 3.13328 8.04079C3.74771 8.62451 4.39499 9.16411 4.95643 9.62419C5.03802 9.69104 5.11831 9.75662 5.19677 9.82071C5.50314 10.0709 5.7816 10.2984 6 10.4899C6.2184 10.2984 6.49686 10.0709 6.80323 9.82071C6.88169 9.75662 6.96198 9.69104 7.04357 9.62419C7.60501 9.16411 8.25229 8.62451 8.86672 8.04079C9.48255 7.45575 10.0545 6.83646 10.4704 6.22008C10.8897 5.59861 11.125 5.01707 11.125 4.50004C11.125 3.48644 10.8614 2.78714 10.4903 2.33063C10.1202 1.87543 9.61883 1.63093 9.08084 1.56713C7.98176 1.4368 6.77885 2.06263 6.34818 3.13932C6.29123 3.28169 6.15334 3.37504 6 3.37504C5.84666 3.37504 5.70877 3.28169 5.65182 3.13932C5.22115 2.06263 4.01824 1.4368 2.91916 1.56713C2.38117 1.63093 1.87979 1.87543 1.50973 2.33063Z" fill="black"/>
</svg>
