<svg width="179" height="60" viewBox="0 0 179 60" fill="none" xmlns="http://www.w3.org/2000/svg">
<path d="M11.1188 52.1152V58.1576H9.91106V53.1726H6.89161V58.1576H5.83481V52.1152H11.1188Z" fill="#063854"/>
<path d="M13.5338 57.8555C13.2319 57.7044 12.9299 57.4023 12.628 56.9491C12.477 56.647 12.326 56.1938 12.326 55.7407C12.326 55.2875 12.477 54.8343 12.628 54.5322C12.779 54.2301 13.0809 53.928 13.5338 53.6258C13.8358 53.4748 14.2887 53.3237 14.7416 53.3237C15.1945 53.3237 15.6474 53.4748 15.9494 53.6258C16.2513 53.7769 16.5533 54.079 16.8552 54.5322C17.0062 54.8343 17.1572 55.2875 17.1572 55.7407C17.1572 56.1938 17.0062 56.647 16.8552 56.9491C16.7043 57.2513 16.4023 57.5534 15.9494 57.8555C15.6474 58.0065 15.1945 58.1576 14.7416 58.1576C14.2887 58.1576 13.9867 58.0065 13.5338 57.8555ZM15.7984 56.7981C16.1004 56.496 16.2513 56.1938 16.2513 55.7407C16.2513 55.2875 16.1004 54.9854 15.7984 54.6833C15.4965 54.3811 15.1945 54.2301 14.8926 54.2301C14.4397 54.2301 14.1377 54.3811 13.9867 54.6833C13.6848 54.9854 13.5338 55.2875 13.5338 55.7407C13.5338 56.1938 13.6848 56.496 13.9867 56.7981C14.2887 57.1002 14.5906 57.2513 14.8926 57.2513C15.1945 57.2513 15.4965 57.1002 15.7984 56.7981Z" fill="#063854"/>
<path d="M20.4788 56.1939H19.724V58.0066H18.6671V53.4749H19.724V55.2876H20.4788L21.8376 53.4749H23.0453L21.3846 55.7407L23.1963 58.1577H21.9885L20.4788 56.1939Z" fill="#063854"/>
<path d="M24.7063 57.8555C24.4043 57.7044 24.1024 57.4023 23.8005 56.9491C23.6495 56.647 23.4985 56.1938 23.4985 55.7407C23.4985 55.2875 23.6495 54.8343 23.8005 54.5322C23.9514 54.2301 24.2534 53.928 24.7063 53.6258C25.0082 53.4748 25.4611 53.3237 25.9141 53.3237C26.367 53.3237 26.8199 53.4748 27.1218 53.6258C27.4238 53.7769 27.7257 54.079 28.0277 54.5322C28.1786 54.8343 28.3296 55.2875 28.3296 55.7407C28.3296 56.1938 28.1786 56.647 28.0277 56.9491C27.8767 57.2513 27.5748 57.5534 27.1218 57.8555C26.8199 58.0065 26.367 58.1576 25.9141 58.1576C25.4611 58.1576 25.0082 58.0065 24.7063 57.8555ZM26.9709 56.7981C27.2728 56.496 27.4238 56.1938 27.4238 55.7407C27.4238 55.2875 27.2728 54.9854 26.9709 54.6833C26.6689 54.3811 26.367 54.2301 26.065 54.2301C25.6121 54.2301 25.3102 54.3811 25.1592 54.6833C24.8573 54.9854 24.7063 55.2875 24.7063 55.7407C24.7063 56.1938 24.8573 56.496 25.1592 56.7981C25.4611 57.1002 25.7631 57.2513 26.065 57.2513C26.367 57.2513 26.6689 57.1002 26.9709 56.7981Z" fill="#063854"/>
<path d="M33.7644 53.4747V58.0065H32.7076V54.3811H31.0469V55.2874C31.0469 55.8917 30.8959 56.3448 30.8959 56.798C30.745 57.2512 30.745 57.5533 30.443 57.7044C30.292 58.0065 29.9901 58.0065 29.6881 58.0065C29.5372 58.0065 29.3862 58.0065 29.0843 57.8554V56.9491C29.2352 56.9491 29.2352 56.9491 29.2352 56.9491C29.3862 56.9491 29.6881 56.798 29.6881 56.647C29.8391 56.4959 29.8391 56.1938 29.8391 56.0427C29.8391 55.7406 29.8391 55.4385 29.9901 54.9853L30.1411 53.1726H33.7644V53.4747Z" fill="#063854"/>
<path d="M39.6514 56.0427H36.0281C36.0281 56.3448 36.33 56.647 36.481 56.798C36.7829 56.9491 37.0849 57.1001 37.5378 57.1001C37.9907 57.1001 38.4436 56.9491 38.7456 56.647L39.3495 57.2512C39.1985 57.5533 38.8965 57.7044 38.5946 57.8554C38.2926 58.0065 37.9907 58.0065 37.5378 58.0065C37.0849 58.0065 36.6319 57.8554 36.179 57.7044C35.7261 57.5533 35.5751 57.2512 35.2732 56.798C35.1222 56.4959 34.9713 56.0427 34.9713 55.5895C34.9713 55.1364 35.1222 54.6832 35.2732 54.3811C35.4242 54.079 35.7261 53.7768 36.179 53.4747C36.481 53.3237 36.9339 53.1726 37.3868 53.1726C37.8397 53.1726 38.2926 53.3237 38.5946 53.4747C38.8965 53.6258 39.1985 53.9279 39.3495 54.3811C39.5004 54.6832 39.6514 55.1364 39.6514 55.5895C39.8024 55.8917 39.6514 55.8917 39.6514 56.0427ZM36.481 54.5321C36.179 54.6832 36.0281 54.9853 36.0281 55.2874H38.5946C38.5946 54.9853 38.4436 54.6832 38.1417 54.5321C37.8397 54.3811 37.6888 54.23 37.2358 54.23C37.0849 54.23 36.7829 54.3811 36.481 54.5321Z" fill="#063854"/>
<path d="M41.0111 53.4749H42.0679V55.2876H44.3325V53.4749H45.3893V58.0066H44.3325V56.1939H42.0679V58.0066H41.0111V53.4749Z" fill="#063854"/>
<path d="M47.0491 53.4749H48.1059V56.496L50.6724 53.4749H51.5782V58.0066H50.5214V54.9854L47.9549 58.0066H46.8981V53.4749H47.0491Z" fill="#063854"/>
<path d="M57.6172 56.0427H53.9939C53.9939 56.3448 54.1448 56.647 54.4468 56.798C54.7487 56.9491 55.0507 57.1001 55.5036 57.1001C55.9565 57.1001 56.4094 56.9491 56.7114 56.647L57.3153 57.2512C57.1643 57.5533 56.8623 57.7044 56.5604 57.8554C56.2585 58.0065 55.9565 58.0065 55.5036 58.0065C55.0507 58.0065 54.5978 57.8554 54.1448 57.7044C53.6919 57.5533 53.541 57.2512 53.239 56.798C53.088 56.4959 52.9371 56.0427 52.9371 55.5895C52.9371 55.1364 53.088 54.6832 53.239 54.3811C53.39 54.079 53.6919 53.7768 54.1448 53.4747C54.4468 53.3237 54.8997 53.1726 55.3526 53.1726C55.8055 53.1726 56.2585 53.3237 56.5604 53.4747C56.8623 53.6258 57.1643 53.9279 57.3153 54.3811C57.4662 54.6832 57.6172 55.1364 57.6172 55.5895C57.6172 55.8917 57.6172 55.8917 57.6172 56.0427ZM54.4468 54.5321C54.1448 54.6832 53.9939 54.9853 53.9939 55.2874H56.5604C56.5604 54.9853 56.4094 54.6832 56.1075 54.5321C55.8055 54.3811 55.6546 54.23 55.2017 54.23C54.8997 54.23 54.5978 54.3811 54.4468 54.5321Z" fill="#063854"/>
<path d="M61.9957 57.8555C61.6937 57.7044 61.3918 57.4023 61.0898 56.9491C60.7879 56.496 60.7879 56.1938 60.7879 55.7407C60.7879 55.2875 60.9389 54.8343 61.0898 54.5322C61.2408 54.2301 61.5428 53.928 61.9957 53.6258C62.2976 53.4748 62.7505 53.3237 63.2035 53.3237C63.6564 53.3237 64.1093 53.4748 64.4112 53.6258C64.7132 53.7769 65.0151 54.079 65.1661 54.3811L64.4112 54.8343C64.2603 54.6833 64.1093 54.5322 63.9583 54.3811C63.8074 54.2301 63.5054 54.2301 63.3544 54.2301C62.9015 54.2301 62.5996 54.3811 62.2976 54.6833C61.9957 54.9854 61.8447 55.2875 61.8447 55.7407C61.8447 56.1938 61.9957 56.496 62.2976 56.7981C62.5996 57.1002 62.9015 57.2513 63.3544 57.2513C63.6564 57.2513 63.8074 57.2513 63.9583 57.1002C64.1093 56.9491 64.2603 56.7981 64.4112 56.647L65.1661 57.1002C65.0151 57.4023 64.7132 57.7044 64.4112 57.8555C64.1093 58.0065 63.6564 58.1576 63.2035 58.1576C62.7505 58.1576 62.2976 58.0065 61.9957 57.8555Z" fill="#063854"/>
<path d="M70.2988 53.4747V58.0065H69.242V56.1938C68.789 56.3448 68.3361 56.4959 67.8832 56.4959C67.2793 56.4959 66.8264 56.3448 66.5245 56.0427C66.2225 55.7406 66.0715 55.2874 66.0715 54.8343V53.3237H67.1283V54.6832C67.1283 54.9853 67.2793 55.1364 67.4303 55.2874C67.5813 55.4385 67.8832 55.4385 68.1851 55.4385C68.6381 55.4385 68.94 55.2874 69.3929 55.1364V53.1726H70.2988V53.4747Z" fill="#063854"/>
<path d="M75.2806 53.928C75.5826 54.2301 75.8845 54.6833 75.8845 55.4386V58.1577H74.8277V57.5534C74.6768 57.7045 74.5258 57.8555 74.2238 58.0066C73.9219 58.1577 73.62 58.1577 73.318 58.1577C73.0161 58.1577 72.7141 58.1577 72.4122 58.0066C72.1102 57.8555 71.9593 57.7045 71.8083 57.5534C71.6573 57.4024 71.6573 57.1003 71.6573 56.7981C71.6573 56.345 71.8083 56.0428 72.1102 55.7407C72.4122 55.4386 72.8651 55.4386 73.62 55.4386H74.8277C74.8277 55.1365 74.6768 54.8344 74.5258 54.6833C74.3748 54.5323 74.0729 54.3812 73.62 54.3812C73.318 54.3812 73.167 54.3812 72.8651 54.5323C72.5631 54.6833 72.4122 54.6833 72.2612 54.8344L71.8083 54.0791C72.1102 53.928 72.4122 53.777 72.7141 53.6259C73.0161 53.4749 73.469 53.4749 73.7709 53.4749C74.3748 53.4749 74.8277 53.6259 75.2806 53.928ZM74.2238 57.1003C74.3748 56.9492 74.5258 56.7981 74.6768 56.6471V56.0428H73.62C73.0161 56.0428 72.7141 56.1939 72.7141 56.6471C72.7141 56.7981 72.8651 56.9492 73.0161 57.1003C73.167 57.2513 73.318 57.2513 73.62 57.2513C73.7709 57.2513 74.0729 57.2513 74.2238 57.1003Z" fill="#063854"/>
<path d="M78.1506 57.8555C77.8486 57.7044 77.5467 57.4023 77.2447 56.9491C76.9428 56.496 76.9428 56.1938 76.9428 55.7407C76.9428 55.2875 77.0937 54.8343 77.2447 54.5322C77.3957 54.2301 77.6976 53.928 78.1506 53.6258C78.4525 53.4748 78.9054 53.3237 79.3583 53.3237C79.8113 53.3237 80.2642 53.4748 80.5661 53.6258C80.8681 53.7769 81.17 54.079 81.321 54.3811L80.5661 54.8343C80.4151 54.6833 80.2642 54.5322 80.1132 54.3811C79.9622 54.2301 79.6603 54.2301 79.5093 54.2301C79.0564 54.2301 78.7544 54.3811 78.4525 54.6833C78.1506 54.9854 77.9996 55.2875 77.9996 55.7407C77.9996 56.1938 78.1506 56.496 78.4525 56.7981C78.7544 57.1002 79.0564 57.2513 79.5093 57.2513C79.8112 57.2513 79.9622 57.2513 80.1132 57.1002C80.2642 56.9491 80.4151 56.7981 80.5661 56.647L81.321 57.1002C81.17 57.4023 80.8681 57.7044 80.5661 57.8555C80.2642 58.0065 79.8113 58.1576 79.3583 58.1576C78.9054 58.1576 78.4525 58.0065 78.1506 57.8555Z" fill="#063854"/>
<path d="M86.3025 54.3812H84.6418V58.0066H83.585V54.3812H81.9243V53.4749H86.1515V54.3812H86.3025Z" fill="#063854"/>
<path d="M91.2847 53.4747V58.0065H90.2279V54.3811H88.5672V55.2874C88.5672 55.8917 88.4162 56.3448 88.4162 56.798C88.2653 57.2512 88.2653 57.5533 87.9633 57.7044C87.8124 58.0065 87.5104 58.0065 87.2085 58.0065C87.0575 58.0065 86.9065 58.0065 86.6046 57.8554V56.9491C86.7556 56.9491 86.7556 56.9491 86.7556 56.9491C86.9065 56.9491 87.2085 56.798 87.2085 56.647C87.3594 56.4959 87.3594 56.1938 87.3594 56.0427C87.3594 55.7406 87.3594 55.4385 87.5104 54.9853L87.6614 53.1726H91.2847V53.4747Z" fill="#063854"/>
<path d="M92.9457 53.4749H94.0025V56.496L96.569 53.4749H97.4748V58.0066H96.418V54.9854L93.8515 58.0066H92.9457V53.4749Z" fill="#063854"/>
<path d="M103.211 56.7981C103.211 57.2513 103.06 57.5534 102.758 57.7045C102.456 57.8555 102.003 58.0066 101.399 58.0066H98.9837V53.4749H101.248C101.852 53.4749 102.305 53.6259 102.607 53.777C102.909 53.928 103.06 54.2301 103.06 54.6833C103.06 54.9854 103.06 55.1365 102.909 55.2876C102.758 55.4386 102.607 55.5897 102.456 55.7407C102.909 55.8918 103.211 56.1939 103.211 56.7981ZM100.041 55.4386H101.097C101.701 55.4386 102.003 55.2876 102.003 54.8344C102.003 54.5323 101.701 54.2301 101.097 54.2301H100.041V55.4386ZM102.154 56.6471C102.154 56.496 102.154 56.345 102.003 56.1939C101.852 56.0428 101.701 56.0428 101.399 56.0428H100.192V57.2513H101.399C101.852 57.2513 102.154 57.1003 102.154 56.6471Z" fill="#063854"/>
<path d="M108.042 55.4386C108.344 55.7407 108.495 56.0428 108.495 56.496C108.495 56.9492 108.344 57.4024 108.042 57.7045C107.74 58.0066 107.287 58.1577 106.532 58.1577H104.418V53.6259H105.475V55.1365H106.683C107.438 54.9854 107.74 55.1365 108.042 55.4386ZM107.287 57.1003C107.438 56.9492 107.589 56.7981 107.589 56.496C107.589 56.1939 107.438 56.0428 107.287 55.8918C107.136 55.7407 106.834 55.7407 106.532 55.7407H105.626V57.2513H106.532C106.834 57.2513 107.136 57.2513 107.287 57.1003ZM109.099 53.4749H110.155V58.0066H109.099V53.4749Z" fill="#063854"/>
<path d="M114.836 58.0066L113.628 56.496L112.42 58.0066H111.213L113.024 55.7407L111.364 53.4749H112.571L113.628 54.9854L114.685 53.4749H115.893L114.232 55.7407L116.044 58.0066H114.836Z" fill="#063854"/>
<path d="M124.045 57.1002V59.064H122.988V58.0066H119.516V59.064H118.459V57.1002H118.61C118.912 57.1002 119.063 56.9492 119.214 56.496C119.365 56.1939 119.365 55.5897 119.365 54.9854V53.4749H123.139V57.1002H124.045ZM120.271 56.345C120.271 56.6471 120.12 56.9492 119.969 57.1002H122.234V54.3812H120.422V55.1365C120.422 55.5897 120.422 56.0428 120.271 56.345Z" fill="#063854"/>
<path d="M129.329 56.0427H125.706C125.706 56.3448 126.008 56.647 126.159 56.798C126.461 56.9491 126.763 57.1001 127.216 57.1001C127.669 57.1001 128.122 56.9491 128.424 56.647L129.028 57.2512C128.877 57.5533 128.575 57.7044 128.273 57.8554C127.971 58.0065 127.669 58.0065 127.216 58.0065C126.763 58.0065 126.31 57.8554 125.857 57.7044C125.404 57.5533 125.253 57.2512 124.951 56.798C124.8 56.4959 124.649 56.0427 124.649 55.5895C124.649 55.1364 124.8 54.6832 124.951 54.3811C125.102 54.079 125.404 53.7768 125.857 53.4747C126.159 53.3237 126.612 53.1726 127.065 53.1726C127.518 53.1726 127.971 53.3237 128.273 53.4747C128.575 53.6258 128.877 53.9279 129.028 54.3811C129.178 54.6832 129.329 55.1364 129.329 55.5895C129.329 55.8917 129.329 55.8917 129.329 56.0427ZM126.159 54.5321C125.857 54.6832 125.706 54.9853 125.706 55.2874H128.273C128.273 54.9853 128.122 54.6832 127.82 54.5321C127.518 54.3811 127.367 54.23 126.914 54.23C126.763 54.23 126.461 54.3811 126.159 54.5321Z" fill="#063854"/>
<path d="M134.462 54.3812H132.802V58.0066H131.745V54.3812H130.084V53.4749H134.311V54.3812H134.462Z" fill="#063854"/>
<path d="M139.747 56.0427H136.123C136.123 56.3448 136.425 56.647 136.576 56.798C136.878 56.9491 137.18 57.1001 137.633 57.1001C138.086 57.1001 138.539 56.9491 138.841 56.647L139.445 57.2512C139.294 57.5533 138.992 57.7044 138.69 57.8554C138.388 58.0065 138.086 58.0065 137.633 58.0065C137.18 58.0065 136.727 57.8554 136.274 57.7044C135.821 57.5533 135.67 57.2512 135.368 56.798C135.217 56.4959 135.066 56.0427 135.066 55.5895C135.066 55.1364 135.217 54.6832 135.368 54.3811C135.519 54.079 135.821 53.7768 136.274 53.4747C136.576 53.3237 137.029 53.1726 137.482 53.1726C137.935 53.1726 138.388 53.3237 138.69 53.4747C138.992 53.6258 139.294 53.9279 139.445 54.3811C139.596 54.6832 139.747 55.1364 139.747 55.5895C139.747 55.8917 139.747 55.8917 139.747 56.0427ZM136.576 54.5321C136.274 54.6832 136.123 54.9853 136.123 55.2874H138.69C138.69 54.9853 138.539 54.6832 138.237 54.5321C137.935 54.3811 137.784 54.23 137.331 54.23C137.029 54.23 136.727 54.3811 136.576 54.5321Z" fill="#063854"/>
<path d="M141.105 53.4748H142.162V56.496L144.729 53.4748H145.635V58.0066H144.578V54.9854L142.011 58.0066H140.954V53.4748H141.105ZM142.162 52.5685C141.86 52.4174 141.86 52.1153 141.86 51.6621H142.615C142.615 51.8132 142.615 51.9642 142.766 52.1153C142.917 52.2663 143.068 52.2663 143.219 52.2663C143.37 52.2663 143.672 52.2663 143.672 52.1153C143.823 51.9642 143.823 51.8132 143.823 51.6621H144.578C144.578 52.1153 144.427 52.4174 144.276 52.5685C143.974 52.7195 143.672 52.8706 143.219 52.8706C142.766 52.8706 142.464 52.8706 142.162 52.5685Z" fill="#063854"/>
<path d="M70.2996 45.6197H61.9962C61.9962 38.5199 57.7689 33.2329 49.6164 33.2329H47.6538V45.6197H39.3503V0H47.6538V24.1694C52.4849 22.5077 55.9573 17.8249 55.9573 12.3868H64.2607C64.2607 17.0696 62.902 23.7162 55.9573 26.7374C64.5627 26.8884 70.2996 37.0094 70.2996 45.6197Z" fill="#063854"/>
<path d="M104.117 12.3867V45.6196H101.249C99.2861 45.6196 97.3235 44.8643 95.8138 43.3537C92.6434 45.1664 88.869 46.0728 84.9438 45.3175C77.6971 44.109 71.9601 38.0667 71.0543 30.8159C69.9975 20.846 77.8481 12.3867 87.5103 12.3867C90.5297 12.3867 94.1531 13.142 97.0215 15.2568L95.8138 12.3867H104.117ZM95.8138 29.0032C95.8138 24.4714 92.0395 20.6949 87.5103 20.6949C82.9811 20.6949 79.2068 24.4714 79.2068 29.0032C79.2068 33.5349 82.9811 37.3114 87.5103 37.3114C92.1904 37.3114 95.8138 33.5349 95.8138 29.0032Z" fill="#063854"/>
<path d="M33.1601 12.3867V45.6196H30.2916C28.329 45.6196 26.3664 44.8643 24.8566 43.3537C21.6862 45.1664 17.9119 46.0728 13.9866 45.3175C6.73995 44.109 1.00301 38.0667 0.0971714 30.8159C-0.959635 20.846 6.73995 12.3867 16.5532 12.3867C19.5726 12.3867 23.1959 13.142 26.0644 15.2568L24.8566 12.3867H33.1601ZM24.8566 29.0032C24.8566 24.4714 21.0823 20.6949 16.5532 20.6949C12.024 20.6949 8.24967 24.4714 8.24967 29.0032C8.24967 33.5349 12.024 37.3114 16.5532 37.3114C21.0823 37.3114 24.8566 33.5349 24.8566 29.0032Z" fill="#063854"/>
<path d="M129.783 12.6889C125.707 12.0847 122.083 12.84 118.913 14.6527V0H110.609V45.6197H113.478C115.44 45.6197 117.403 44.8644 118.762 43.3538C121.177 44.7133 124.046 45.6197 127.065 45.6197C136.879 45.6197 144.578 37.1604 143.521 27.1905C142.917 19.7887 137.181 13.7463 129.783 12.6889ZM127.216 37.3115C122.687 37.3115 118.913 33.535 118.913 29.0033C118.913 24.4715 122.687 20.695 127.216 20.695C131.745 20.695 135.52 24.4715 135.52 29.0033C135.52 33.535 131.745 37.3115 127.216 37.3115Z" fill="#063854"/>
<path d="M179 12.3867V42.2963C179 51.0577 171.904 58.0064 163.299 58.0064H152.127C152.127 53.4747 155.901 49.6982 160.43 49.6982H164.356C167.828 49.6982 170.697 46.8281 170.697 43.3537C167.828 45.0154 166.469 45.4686 162.997 45.4686C154.241 45.4686 147.9 38.973 147.9 29.0032V12.3867H156.203V29.1542C156.203 33.0817 159.525 37.0093 163.45 37.0093C167.828 37.0093 170.697 34.4413 170.697 29.1542V12.3867H179Z" fill="#063854"/>
</svg>
