<svg width="203" height="205" viewBox="0 0 203 205" fill="none" xmlns="http://www.w3.org/2000/svg">
<path d="M118.891 187.652C165.41 178.206 195.355 132.355 185.79 85.2511C176.226 38.1474 130.77 7.6067 84.2507 17.0525C37.7318 26.4983 7.78725 72.3493 17.3518 119.453C26.9163 166.557 72.3724 197.097 118.891 187.652Z" fill="white" stroke="#A7BDD3"/>
<path d="M76.0196 112.528L72.668 113.208L73.5455 117.53L68.9003 118.473L68.0228 114.152L56.9389 116.402L56.2882 113.198L63.3397 98.174L68.3377 97.1591L61.8545 111.363L67.3818 110.241L66.5997 106.39L71.0979 105.476L71.88 109.328L75.2316 108.647L76.0196 112.528ZM81.9764 102.441C84.8772 101.852 87.1311 101.996 88.7379 102.874C90.3643 103.748 91.3745 105.155 91.7685 107.095C92.0232 108.35 91.9424 109.56 91.5262 110.726C91.1059 111.873 90.3127 112.891 89.1464 113.781C87.9958 114.647 86.4797 115.271 84.5981 115.653C83.1477 115.948 81.6791 116.052 80.1922 115.966C78.721 115.857 77.4238 115.549 76.3005 115.042L77.4419 111.015C78.3453 111.443 79.3404 111.721 80.4273 111.847C81.5101 111.954 82.5906 111.898 83.6686 111.679C84.8642 111.436 85.7572 111.01 86.3477 110.4C86.9382 109.79 87.1479 109.064 86.9767 108.221C86.7976 107.339 86.2997 106.747 85.483 106.443C84.6859 106.135 83.4053 106.161 81.6413 106.519L76.3787 107.588L75.085 95.789L87.6388 93.24L88.4149 97.062L79.8301 98.8051L80.3006 102.781L81.9764 102.441ZM103.171 111.882C101.466 112.228 99.8611 112.115 98.3571 111.543C96.8532 110.971 95.5579 109.969 94.4711 108.536C93.3999 107.08 92.6395 105.245 92.1898 103.03C91.7401 100.815 91.7264 98.8385 92.1489 97.0997C92.5869 95.3373 93.3868 93.8993 94.5484 92.7859C95.7101 91.6725 97.1435 90.9426 98.8487 90.5964C100.554 90.2502 102.159 90.3631 103.662 90.9353C105.166 91.5075 106.454 92.5215 107.525 93.9775C108.612 95.4099 109.38 97.2335 109.83 99.4483C110.28 101.663 110.285 103.652 109.847 105.414C109.425 107.153 108.633 108.579 107.471 109.693C106.309 110.806 104.876 111.536 103.171 111.882ZM102.353 107.854C103.607 107.6 104.478 106.862 104.965 105.64C105.471 104.415 105.495 102.675 105.038 100.421C104.58 98.1673 103.879 96.575 102.935 95.6442C102.01 94.7095 100.921 94.3695 99.6666 94.6242C98.4318 94.8749 97.5612 95.6129 97.0549 96.8382C96.5682 98.0595 96.5537 99.7971 97.0114 102.051C97.4691 104.305 98.1602 105.899 99.0847 106.834C100.029 107.765 101.118 108.105 102.353 107.854ZM122.39 107.98C120.685 108.326 119.08 108.213 117.576 107.641C116.072 107.068 114.777 106.066 113.69 104.634C112.619 103.178 111.859 101.342 111.409 99.1276C110.959 96.9128 110.946 94.936 111.368 93.1972C111.806 91.4348 112.606 89.9968 113.768 88.8834C114.929 87.77 116.363 87.0401 118.068 86.6939C119.773 86.3477 121.378 86.4606 122.882 87.0328C124.386 87.605 125.673 88.619 126.744 90.075C127.831 91.5074 128.599 93.331 129.049 95.5458C129.499 97.7606 129.504 99.7492 129.066 101.512C128.644 103.25 127.852 104.677 126.69 105.79C125.529 106.903 124.095 107.633 122.39 107.98ZM121.572 103.952C122.827 103.697 123.697 102.959 124.184 101.738C124.69 100.512 124.714 98.7729 124.257 96.5189C123.799 94.2649 123.098 92.6725 122.154 91.7417C121.23 90.807 120.14 90.467 118.886 90.7217C117.651 90.9724 116.78 91.7104 116.274 92.9357C115.787 94.157 115.773 95.8946 116.231 98.1486C116.688 100.403 117.379 101.997 118.304 102.932C119.248 103.862 120.337 104.202 121.572 103.952Z" fill="#063854"/>
<path d="M136.535 88.4522L148.471 86.0285L148.806 87.6749L136.869 90.0986L136.535 88.4522ZM141.805 91.9943L137.434 92.8818L137.1 91.2354L149.036 88.8117L149.371 90.4581L144.98 91.3496L146.867 100.64L143.692 101.285L141.805 91.9943Z" fill="#063854"/>
<path d="M73.2582 163.926C73.4324 164.004 73.5524 164.128 73.6184 164.3C73.6843 164.472 73.6786 164.644 73.6011 164.819L69.7497 173.478L68.5144 172.928L72.3658 164.269C72.4433 164.095 72.5678 163.975 72.7394 163.909C72.911 163.843 73.0839 163.849 73.2582 163.926ZM72.8226 173.479C72.9888 173.553 73.1045 173.666 73.1696 173.818C73.2232 173.975 73.2131 174.136 73.1391 174.302C73.0652 174.469 72.9538 174.58 72.8051 174.638C72.6449 174.699 72.4817 174.693 72.3154 174.619L65.9606 171.793C65.7943 171.719 65.6843 171.603 65.6307 171.447C65.5656 171.294 65.5701 171.135 65.644 170.969C65.718 170.802 65.8351 170.689 65.9952 170.627C66.144 170.57 66.3015 170.578 66.4678 170.652L72.8226 173.479Z" fill="#A7BDD3"/>
<path d="M63.402 158.361C64.0033 158.755 64.4562 159.234 64.7607 159.797C65.0532 160.362 65.186 160.957 65.1592 161.583C65.1204 162.21 64.9084 162.817 64.5232 163.404C64.1332 163.998 63.6676 164.439 63.1264 164.727C62.5732 165.017 61.9924 165.143 61.384 165.107C60.7708 165.078 60.178 164.875 59.6057 164.499C59.0405 164.128 58.6384 163.683 58.3991 163.163C58.1551 162.65 58.073 162.104 58.1531 161.524C58.2211 160.947 58.4429 160.372 58.8186 159.8C58.909 159.662 59.0322 159.577 59.1882 159.545C59.3395 159.519 59.4875 159.554 59.6325 159.65L64.0121 162.525L63.4414 163.394L59.0943 160.54L59.7397 160.529C59.5091 160.896 59.3699 161.266 59.3221 161.638C59.2695 162.019 59.3153 162.375 59.4595 162.708C59.6037 163.041 59.8569 163.327 60.2192 163.565C60.6322 163.836 61.0466 163.978 61.4626 163.992C61.8713 164.001 62.2563 163.896 62.6177 163.677C62.9744 163.466 63.2835 163.161 63.5451 162.762C63.8067 162.364 63.9491 161.949 63.9725 161.519C63.9959 161.088 63.9076 160.678 63.7078 160.288C63.5079 159.897 63.2014 159.566 62.7885 159.295C62.5639 159.148 62.3095 159.038 62.0253 158.965C61.7292 158.895 61.473 158.867 61.2567 158.881C61.0957 158.889 60.9537 158.853 60.8305 158.772C60.6953 158.694 60.6068 158.584 60.5649 158.442C60.5131 158.253 60.5264 158.09 60.6047 157.955C60.6831 157.82 60.8148 157.746 60.9998 157.732C61.3745 157.699 61.7871 157.741 62.2374 157.861C62.6805 157.975 63.0687 158.142 63.402 158.361Z" fill="#A7BDD3"/>
<path d="M54.7898 151.504C55.303 151.971 55.6568 152.503 55.8511 153.101C56.0332 153.699 56.0591 154.302 55.9287 154.91C55.7861 155.518 55.4846 156.076 55.0242 156.582C54.5522 157.102 54.0203 157.462 53.4286 157.662C52.837 157.862 52.2435 157.897 51.6482 157.766C51.0472 157.641 50.4932 157.349 49.9864 156.888C49.608 156.545 49.3286 156.156 49.1483 155.723C48.9622 155.296 48.8752 154.825 48.8872 154.309C48.8907 154.125 48.9547 153.99 49.0795 153.904C49.2042 153.818 49.3622 153.786 49.5534 153.808C49.7015 153.825 49.8213 153.893 49.9129 154.011C49.9986 154.136 50.0456 154.284 50.0538 154.456C50.0651 155.075 50.3049 155.597 50.7732 156.022C51.1003 156.32 51.4589 156.505 51.849 156.578C52.2332 156.658 52.6182 156.627 53.0041 156.486C53.39 156.345 53.749 156.091 54.0812 155.726C54.3959 155.379 54.6051 155.007 54.7087 154.61C54.8059 154.206 54.7991 153.808 54.6882 153.414C54.5714 153.027 54.3431 152.679 54.0031 152.37C53.7786 152.166 53.5596 152.014 53.3462 151.914C53.1206 151.814 52.8847 151.758 52.6387 151.746C52.4603 151.736 52.3137 151.684 52.1988 151.592C52.0781 151.506 52.0081 151.389 51.9888 151.243C51.9613 151.054 51.9936 150.896 52.0857 150.769C52.172 150.648 52.3008 150.584 52.4722 150.576C53.3245 150.565 54.097 150.875 54.7898 151.504Z" fill="#A7BDD3"/>
<path d="M44.126 139.14C44.2419 139.291 44.2913 139.455 44.274 139.632C44.2445 139.808 44.1541 139.953 44.0027 140.069L41.0509 142.33C40.6174 142.662 40.3791 143.013 40.336 143.385C40.2861 143.761 40.3928 144.122 40.6563 144.466C40.9303 144.824 41.2808 145.025 41.7076 145.069C42.1292 145.106 42.5327 144.977 42.918 144.682L43.574 145.539C43.1268 145.882 42.6608 146.086 42.1761 146.151C41.6845 146.222 41.2107 146.159 40.7545 145.963C40.2931 145.759 39.8912 145.434 39.5487 144.987C39.2483 144.594 39.0682 144.181 39.0084 143.747C38.9486 143.312 39.024 142.883 39.2347 142.46C39.4332 142.035 39.7699 141.641 40.2447 141.277L43.1965 139.016C43.3479 138.901 43.5121 138.851 43.6891 138.869C43.8592 138.891 44.0048 138.981 44.126 139.14ZM49.398 146.024C49.5139 146.175 49.5632 146.34 49.546 146.517C49.5165 146.692 49.4261 146.838 49.2747 146.953L44.6818 150.471C44.5235 150.592 44.3594 150.641 44.1893 150.619C44.0139 150.589 43.8682 150.499 43.7523 150.347C43.6311 150.189 43.5818 150.025 43.6044 149.855C43.6269 149.685 43.7173 149.539 43.8756 149.418L48.4685 145.901C48.6199 145.785 48.7841 145.735 48.9611 145.753C49.1312 145.775 49.2768 145.866 49.398 146.024ZM46.7581 142.577C46.874 142.728 46.9233 142.892 46.906 143.069C46.8766 143.245 46.7862 143.39 46.6348 143.506L43.6829 145.767C43.2494 146.099 43.0112 146.45 42.9681 146.822C42.9181 147.198 43.0249 147.559 43.2884 147.903C43.5624 148.261 43.9128 148.462 44.3397 148.506C44.7665 148.55 45.1726 148.425 45.5579 148.13L46.0559 148.78C45.6086 149.122 45.1479 149.333 44.6738 149.413C44.1927 149.497 43.7347 149.455 43.2996 149.286C42.8646 149.117 42.4916 148.83 42.1807 148.424C41.8804 148.031 41.7003 147.618 41.6404 147.184C41.5806 146.749 41.656 146.32 41.8667 145.897C42.0653 145.472 42.4019 145.078 42.8767 144.714L45.8286 142.453C45.9799 142.337 46.1441 142.288 46.3211 142.305C46.4912 142.328 46.6369 142.418 46.7581 142.577Z" fill="#A7BDD3"/>
<path d="M35.8469 126.752C35.9157 126.929 35.917 127.101 35.8508 127.266C35.7734 127.426 35.6457 127.54 35.4679 127.609L33.8434 128.238L34.4723 129.863C34.5412 130.04 34.5384 130.213 34.4641 130.382C34.3867 130.542 34.2591 130.656 34.0813 130.725C33.9035 130.794 33.7361 130.794 33.5791 130.724C33.411 130.65 33.2925 130.524 33.2236 130.346L32.5947 128.722L30.9702 129.35C30.8005 129.416 30.6315 129.412 30.4634 129.338C30.2921 129.255 30.1752 129.133 30.1126 128.971C30.0406 128.786 30.0433 128.613 30.1208 128.453C30.1901 128.296 30.3137 128.183 30.4915 128.114L32.116 127.485L31.4871 125.86C31.4214 125.691 31.4257 125.522 31.5 125.354C31.5712 125.177 31.6956 125.055 31.8735 124.986C32.0432 124.92 32.2137 124.929 32.385 125.011C32.5532 125.085 32.6701 125.207 32.7358 125.377L33.3647 127.002L34.9892 126.373C35.167 126.304 35.3384 126.302 35.5035 126.369C35.6604 126.438 35.7749 126.566 35.8469 126.752Z" fill="#A7BDD3"/>
<path d="M33.4288 106.746C33.4981 107.506 33.4364 108.212 33.2436 108.865C33.0421 109.518 32.7336 110.095 32.3179 110.594C31.8928 111.085 31.3766 111.485 30.7694 111.793C30.1536 112.101 29.4659 112.29 28.7064 112.359C27.9469 112.429 27.2407 112.367 26.5878 112.174C25.9349 111.981 25.3592 111.681 24.8609 111.274C24.3531 110.86 23.9453 110.348 23.6375 109.741C23.3211 109.135 23.1282 108.452 23.0589 107.692C22.9896 106.933 23.0561 106.231 23.2583 105.586C23.4511 104.933 23.7597 104.356 24.184 103.856C24.5997 103.357 25.1111 102.954 25.7183 102.646C26.3255 102.338 27.0089 102.149 27.7684 102.08C28.5279 102.011 29.2384 102.072 29.9 102.264C30.5529 102.457 31.1332 102.761 31.641 103.176C32.1402 103.592 32.548 104.103 32.8644 104.709C33.1714 105.308 33.3595 105.987 33.4288 106.746ZM32.2119 106.857C32.1607 106.296 32.0146 105.792 31.7735 105.344C31.5231 104.888 31.2052 104.504 30.8198 104.191C30.4258 103.878 29.9789 103.654 29.479 103.517C28.9784 103.371 28.4476 103.324 27.8865 103.375C27.3255 103.426 26.812 103.569 26.346 103.803C25.8793 104.028 25.4847 104.329 25.1623 104.707C24.8313 105.085 24.5882 105.521 24.433 106.014C24.2771 106.498 24.2247 107.02 24.2758 107.581C24.327 108.142 24.4735 108.651 24.7154 109.108C24.9564 109.556 25.2739 109.936 25.6679 110.248C26.0525 110.552 26.4951 110.777 26.9958 110.923C27.4964 111.069 28.0272 111.116 28.5882 111.065C29.1492 111.014 29.6627 110.871 30.1287 110.637C30.5947 110.403 30.9936 110.101 31.3254 109.732C31.6478 109.354 31.8913 108.923 32.0559 108.438C32.2111 107.945 32.2631 107.418 32.2119 106.857Z" fill="#A7BDD3"/>
<path d="M33.4918 94.789C33.4303 95.4796 33.2333 96.0798 32.9008 96.5896C32.5682 97.0995 32.1382 97.4832 31.6106 97.7408C31.0744 97.9976 30.4822 98.1015 29.834 98.0525L29.8905 97.418C29.2344 97.3596 28.6722 97.1747 28.204 96.8633C27.7279 96.5424 27.3686 96.132 27.126 95.6318C26.8841 95.123 26.7909 94.5579 26.8462 93.9363C26.9015 93.3148 27.0928 92.7793 27.4199 92.3299C27.7478 91.8718 28.174 91.5313 28.6985 91.3082C29.2152 91.0758 29.8015 90.9888 30.4576 91.0472C31.105 91.1048 31.6704 91.3031 32.1535 91.6419C32.6281 91.98 32.9848 92.4207 33.2235 92.964C33.4623 93.5073 33.5517 94.1156 33.4918 94.789ZM32.3264 94.6852C32.3648 94.2536 32.3076 93.87 32.1547 93.5345C31.994 93.1895 31.7577 92.9118 31.4458 92.7013C31.1347 92.4822 30.7676 92.3538 30.3446 92.3162C29.9216 92.2785 29.542 92.3404 29.2057 92.5019C28.8615 92.654 28.5842 92.886 28.3737 93.1979C28.1553 93.5004 28.027 93.8674 27.9885 94.299C27.9486 94.7479 28.0082 95.1535 28.1673 95.5157C28.3179 95.8771 28.5483 96.1717 28.8587 96.3995C29.1612 96.6178 29.5239 96.7458 29.9469 96.7835C30.3699 96.8211 30.7539 96.7596 31.0988 96.5989C31.4446 96.4296 31.7277 96.1807 31.9484 95.8523C32.1604 95.5231 32.2864 95.1341 32.3264 94.6852ZM29.834 98.0525L28.3719 97.9093C27.354 97.81 26.4467 97.4464 25.6499 96.8186C24.8539 96.1822 24.2448 95.2535 23.8227 94.0326L22.9636 91.5155C22.9099 91.3367 22.9151 91.1806 22.9792 91.047C23.0346 90.9128 23.1427 90.8223 23.3035 90.7757C23.4729 90.7299 23.6251 90.7304 23.7602 90.7772C23.8873 90.8147 23.9927 90.9502 24.0763 91.1839L25.0466 93.9197C25.269 94.5486 25.5529 95.0741 25.8981 95.4964C26.2434 95.9187 26.6449 96.2459 27.1028 96.4781C27.5528 96.7009 28.049 96.8451 28.5913 96.9108L29.9227 97.0554L29.834 98.0525Z" fill="#A7BDD3"/>
<path d="M37.7147 87.1406C37.6662 87.325 37.5626 87.4636 37.4038 87.5563C37.2557 87.6428 37.0894 87.6618 36.905 87.6133L31.1716 86.1067C30.5116 85.9243 29.9572 85.6129 29.5085 85.1723C29.0597 84.7318 28.7527 84.2121 28.5875 83.6131C28.4139 83.0119 28.4131 82.3844 28.5849 81.7306C28.7589 81.0684 29.0692 80.5182 29.5159 80.08C29.9543 79.6396 30.4771 79.338 31.0845 79.175C31.694 79.0036 32.3299 79.0049 32.9921 79.1789C33.6543 79.3529 34.212 79.6518 34.6652 80.0756C35.1122 80.4888 35.4269 80.9792 35.6092 81.5468C35.7832 82.1123 35.7898 82.701 35.629 83.3129C35.4991 83.8074 35.2785 84.2378 34.9672 84.604C34.6497 84.9597 34.2764 85.2379 33.8472 85.4388L37.242 86.3309C37.4264 86.3793 37.5618 86.4777 37.6483 86.6259C37.7432 86.7762 37.7653 86.9478 37.7147 87.1406ZM34.4314 83.267C34.5437 82.8395 34.5434 82.4317 34.4303 82.0435C34.3088 81.6532 34.0974 81.3153 33.796 81.03C33.4885 80.7341 33.1126 80.5278 32.6683 80.4111C32.2157 80.2921 31.7869 80.287 31.382 80.3957C30.9709 80.4937 30.6207 80.684 30.3314 80.9664C30.0338 81.2466 29.8288 81.6005 29.7165 82.028C29.6063 82.4471 29.6109 82.856 29.7301 83.2547C29.8432 83.6429 30.0546 83.9807 30.3644 84.2682C30.6658 84.5535 31.0428 84.7556 31.4954 84.8746C31.9396 84.9913 32.3673 85.0006 32.7784 84.9026C33.1811 84.8023 33.5313 84.612 33.829 84.3318C34.1204 84.041 34.3212 83.6861 34.4314 83.267Z" fill="#A7BDD3"/>
<path d="M39.425 72.938C39.1641 73.5143 38.7878 73.9671 38.2963 74.2963C37.7968 74.622 37.2416 74.8082 36.6305 74.855C36.0152 74.8903 35.3956 74.7668 34.7719 74.4844C34.1482 74.202 33.652 73.8061 33.2833 73.2967C32.9182 72.7793 32.7043 72.2116 32.6417 71.5934C32.5748 70.9637 32.6808 70.341 32.9596 69.7252C33.2384 69.1094 33.6347 68.6228 34.1484 68.2656C34.6543 67.9048 35.2203 67.6949 35.8463 67.6359C36.476 67.569 37.1027 67.6767 37.7264 67.9591L37.5173 68.421C38.141 68.7034 38.6408 69.0914 39.0166 69.585C39.3882 70.0672 39.6163 70.6034 39.7011 71.1935C39.778 71.7801 39.686 72.3616 39.425 72.938ZM38.4664 72.2185C38.6487 71.8159 38.7166 71.4138 38.6701 71.0122C38.6158 70.607 38.4639 70.2385 38.2145 69.9068C37.9572 69.5715 37.6194 69.3091 37.2009 69.1197C36.7746 68.9266 36.3545 68.8459 35.9407 68.8773C35.519 68.9052 35.1419 69.0341 34.8094 69.2641C34.4691 69.4906 34.2077 69.8051 34.0254 70.2078C33.8467 70.6025 33.7827 71.0064 33.8335 71.4195C33.88 71.8211 34.0301 72.1935 34.2838 72.5367C34.5332 72.8684 34.8711 73.1308 35.2974 73.3238C35.7158 73.5133 36.1359 73.5941 36.5576 73.5662C36.975 73.5269 37.3539 73.394 37.6943 73.1675C38.0303 72.9296 38.2877 72.6133 38.4664 72.2185ZM40.6978 70.0323C40.6192 70.206 40.4978 70.327 40.3336 70.3954C40.1652 70.4523 39.9941 70.4414 39.8204 70.3628L38.0085 69.5424L36.855 68.749L37.7264 67.9591L40.3673 69.1548C40.541 69.2335 40.6603 69.3588 40.7251 69.5309C40.7855 69.6914 40.7765 69.8586 40.6978 70.0323Z" fill="#A7BDD3"/>
<path d="M44.6327 63.6988C44.4061 64.0477 44.1598 64.3476 43.8935 64.5984C43.6321 64.8419 43.3616 65.0435 43.0823 65.2031C42.8004 65.3507 42.5265 65.4622 42.2606 65.5375C42.0761 65.583 41.9111 65.5586 41.7657 65.4642C41.6131 65.3651 41.5297 65.223 41.5154 65.0381C41.499 64.8724 41.5476 64.718 41.6613 64.5748C41.7724 64.4196 41.9142 64.3206 42.0868 64.2776C42.3527 64.2023 42.6251 64.0692 42.9041 63.8783C43.1758 63.6827 43.4225 63.4141 43.6444 63.0725C43.904 62.6727 44.0257 62.3023 44.0096 61.9611C43.9909 61.608 43.8471 61.3441 43.5781 61.1694C43.3383 61.0137 43.0927 60.9782 42.8413 61.0629C42.5873 61.1357 42.3741 61.2969 42.2017 61.5466L41.7981 62.1681C41.6943 62.328 41.5633 62.4341 41.4053 62.4865C41.2473 62.5389 41.1065 62.525 40.9829 62.4447C40.8594 62.3645 40.793 62.2439 40.7838 62.083C40.7747 61.922 40.822 61.7616 40.9259 61.6017L41.3224 60.9911C41.4636 60.7418 41.4993 60.5118 41.4294 60.3011C41.3643 60.0831 41.2227 59.9034 41.0046 59.7618C40.7648 59.606 40.5097 59.585 40.2395 59.6989C39.9692 59.8127 39.709 60.0622 39.4588 60.4475C39.2558 60.76 39.1154 61.0718 39.0374 61.3829C38.9594 61.6939 38.9497 61.9873 39.0083 62.263C39.0491 62.4549 39.0319 62.6245 38.9568 62.7721C38.8791 62.9076 38.7529 63.0065 38.5782 63.0687C38.4441 63.116 38.3104 63.0912 38.177 62.9942C38.0483 62.89 37.9613 62.7456 37.9158 62.5611C37.8124 62.1633 37.8082 61.7162 37.9032 61.2199C37.9982 60.7235 38.1849 60.2609 38.4634 59.8321C38.7513 59.3887 39.0825 59.0458 39.457 58.8033C39.8315 58.5608 40.2097 58.424 40.5915 58.3929C40.9733 58.3619 41.3169 58.4455 41.6222 58.6437C41.8766 58.8089 42.0571 59.0243 42.1636 59.2898C42.2677 59.5434 42.301 59.8182 42.2637 60.1144C42.2239 60.3985 42.1166 60.675 41.942 60.944L41.8548 60.8873C42.0577 60.5748 42.3012 60.3351 42.5853 60.1682C42.8741 59.994 43.171 59.9027 43.4762 59.8942C43.7741 59.881 44.0576 59.9617 44.3265 60.1364C44.6754 60.3629 44.9195 60.6713 45.0588 61.0614C45.2029 61.4443 45.2428 61.8681 45.1787 62.3328C45.1074 62.7928 44.9253 63.2482 44.6327 63.6988Z" fill="#A7BDD3"/>
<path d="M50.9027 55.5579C50.4362 56.0826 49.9112 56.4449 49.3275 56.6449C48.7373 56.8392 48.1377 56.8744 47.5288 56.7506C46.9192 56.6145 46.3521 56.3132 45.8275 55.8468C45.2964 55.3746 44.9308 54.8467 44.7308 54.263C44.53 53.667 44.4948 53.0675 44.6251 52.4644C44.749 51.8555 45.0441 51.2887 45.5105 50.7641C45.9712 50.2459 46.4966 49.8897 47.0868 49.6954C47.6705 49.4954 48.2672 49.4634 48.8768 49.5995C49.4857 49.7233 50.0557 50.0213 50.5868 50.4935C51.1114 50.96 51.477 51.4879 51.6835 52.0774C51.8835 52.6611 51.9216 53.2574 51.7978 53.8663C51.6675 54.4694 51.3691 55.0333 50.9027 55.5579ZM50.0283 54.7805C50.3277 54.4437 50.5149 54.0767 50.5897 53.6794C50.6646 53.2821 50.6294 52.8913 50.484 52.507C50.3445 52.1161 50.0965 51.7624 49.7403 51.4457C49.3841 51.129 49.0037 50.9242 48.5992 50.8313C48.194 50.7262 47.7985 50.734 47.4128 50.8549C47.027 50.9758 46.6844 51.2047 46.3849 51.5415C46.0855 51.8783 45.8983 52.2453 45.8234 52.6426C45.7486 53.0399 45.7841 53.4368 45.9302 53.8334C46.0698 54.2242 46.3177 54.578 46.674 54.8947C47.0302 55.2114 47.4106 55.4162 47.815 55.5091C48.2195 55.602 48.6147 55.588 49.0004 55.4671C49.3862 55.3462 49.7288 55.1174 50.0283 54.7805Z" fill="#A7BDD3"/>
<path d="M57.0041 49.5316C56.8567 49.6526 56.6943 49.7074 56.5168 49.6962C56.3406 49.6727 56.1919 49.5873 56.0709 49.4399L52.3916 44.959C52.284 44.8006 52.2385 44.636 52.2553 44.4653C52.2721 44.2945 52.3508 44.1514 52.4915 44.0359C52.6455 43.9094 52.8079 43.8545 52.9787 43.8713C53.1495 43.8881 53.2981 43.9735 53.4246 44.1275L54.8436 45.8556L56.7927 44.2552L56.9577 44.4561C57.3261 44.1536 57.7032 43.9505 58.089 43.8468C58.4815 43.7375 58.8516 43.7308 59.1994 43.8265C59.5416 43.9156 59.8337 44.1074 60.0757 44.4022C60.3232 44.7036 60.4628 45.0375 60.4946 45.4039C60.5263 45.7703 60.4532 46.1388 60.2751 46.5092C60.1038 46.8742 59.834 47.2079 59.4656 47.5104L57.0041 49.5316ZM56.7327 48.1564L58.6819 46.5559C58.9498 46.3359 59.1152 46.0936 59.1782 45.8288C59.2356 45.5573 59.1791 45.3178 59.0086 45.1102C58.8271 44.8891 58.5949 44.777 58.312 44.7739C58.029 44.7707 57.7536 44.8791 57.4857 45.0991L55.5365 46.6996L56.7327 48.1564ZM56.4444 45.4494L55.999 44.9069L56.9534 44.1232C57.1209 43.9857 57.2059 43.8093 57.2086 43.594C57.2058 43.3721 57.1219 43.1606 56.9569 42.9597C56.8139 42.7855 56.632 42.6938 56.4112 42.6844C56.1905 42.675 55.983 42.7501 55.7887 42.9096L53.277 44.972L52.5015 44.0276L55.0133 41.9652C55.3281 41.7067 55.6583 41.5421 56.0039 41.4714C56.3507 41.3884 56.6852 41.3997 57.0074 41.5053C57.324 41.6041 57.5978 41.7942 57.8288 42.0755C58.1478 42.464 58.2645 42.9065 58.1787 43.403C58.0942 43.8873 57.8343 44.3082 57.3989 44.6657L56.4444 45.4494Z" fill="#A7BDD3"/>
<path d="M67.3158 42.298C66.7703 42.6183 66.2018 42.7712 65.6103 42.7567C65.0145 42.7346 64.4535 42.5665 63.9273 42.2524C63.4042 41.9263 62.9694 41.4681 62.6227 40.8777C62.2761 40.2872 62.099 39.6776 62.0917 39.0488C62.0917 38.4156 62.2445 37.8284 62.5499 37.2873C62.8584 36.7344 63.3041 36.2867 63.887 35.9445C64.47 35.6022 65.0743 35.4333 65.7001 35.4378C66.3214 35.4348 66.9048 35.5897 67.4503 35.9026C68.0033 36.2111 68.4531 36.6605 68.7998 37.251L68.3625 37.5077C68.7092 38.0981 68.8937 38.7033 68.916 39.3234C68.9415 39.9315 68.8186 40.5011 68.5475 41.0322C68.272 41.5557 67.8614 41.9777 67.3158 42.298ZM66.9477 41.1574C67.3288 40.9336 67.6162 40.6443 67.8099 40.2894C67.9991 39.927 68.0875 39.5384 68.0751 39.1236C68.0584 38.7013 67.9337 38.2921 67.7011 37.896C67.4642 37.4924 67.1676 37.1842 66.8114 36.9712C66.4508 36.7507 66.0684 36.6386 65.6641 36.6347C65.2555 36.6234 64.8606 36.7296 64.4794 36.9534C64.1057 37.1728 63.8205 37.4659 63.6238 37.8327C63.4302 38.1876 63.338 38.5783 63.3473 39.005C63.3597 39.4198 63.4844 39.829 63.7214 40.2326C63.9539 40.6287 64.2505 40.937 64.6111 41.1575C64.9747 41.366 65.3609 41.476 65.7695 41.4873C66.1813 41.4868 66.574 41.3768 66.9477 41.1574ZM70.0315 40.6584C69.8671 40.7549 69.6981 40.7838 69.5245 40.7449C69.3541 40.6943 69.2206 40.5867 69.1241 40.4223L68.117 38.7071L67.6323 37.3937L68.7998 37.251L70.2675 39.7509C70.3641 39.9154 70.3892 40.0865 70.3429 40.2645C70.2997 40.4305 70.1959 40.5618 70.0315 40.6584Z" fill="#A7BDD3"/>
<path d="M83.2603 35.3512C83.0809 35.4157 82.9095 35.4129 82.7461 35.3427C82.5879 35.2615 82.4766 35.1311 82.412 34.9517L81.1535 31.4532C80.9687 30.9394 80.7059 30.6057 80.3651 30.452C80.0213 30.2901 79.6456 30.2825 79.2378 30.4292C78.8138 30.5818 78.5159 30.8547 78.3442 31.248C78.1807 31.6384 78.1811 32.062 78.3454 32.5186L77.3301 32.8839C77.1394 32.3538 77.0864 31.8479 77.171 31.3661C77.2526 30.8763 77.4563 30.4438 77.7819 30.0688C78.1156 29.6908 78.5476 29.4065 79.0776 29.2158C79.5425 29.0486 79.991 29.0024 80.4231 29.0772C80.8553 29.152 81.2411 29.354 81.5806 29.6832C81.9253 30.0013 82.1988 30.4417 82.4012 31.0044L83.6598 34.5029C83.7243 34.6823 83.7215 34.8537 83.6513 35.0171C83.5782 35.1723 83.4479 35.2837 83.2603 35.3512ZM75.1012 38.2863C74.9218 38.3508 74.7504 38.348 74.587 38.2778C74.4288 38.1966 74.3174 38.0662 74.2529 37.8868L72.2947 32.4433C72.2272 32.2557 72.2301 32.0843 72.3032 31.9291C72.3844 31.7709 72.5147 31.6596 72.6942 31.595C72.8817 31.5276 73.0531 31.5304 73.2084 31.6035C73.3636 31.6766 73.475 31.8069 73.5424 31.9945L75.5006 37.438C75.5652 37.6174 75.5624 37.7888 75.4922 37.9522C75.4191 38.1074 75.2888 38.2188 75.1012 38.2863ZM79.1869 36.8165C79.0075 36.8811 78.8361 36.8782 78.6727 36.8081C78.5145 36.7268 78.4031 36.5965 78.3386 36.4171L77.0801 32.9186C76.8953 32.4048 76.6324 32.071 76.2916 31.9173C75.9479 31.7555 75.5721 31.7479 75.1644 31.8946C74.7403 32.0471 74.4424 32.32 74.2708 32.7134C74.0991 33.1067 74.0954 33.5317 74.2597 33.9884L73.4891 34.2656C73.2984 33.7355 73.2372 33.2325 73.3055 32.7567C73.3708 32.2727 73.55 31.849 73.843 31.4857C74.136 31.1224 74.523 30.8542 75.0042 30.6811C75.469 30.5139 75.9175 30.4677 76.3497 30.5425C76.7818 30.6173 77.1677 30.8193 77.5071 31.1485C77.8518 31.4666 78.1254 31.907 78.3278 32.4697L79.5863 35.9682C79.6509 36.1476 79.648 36.319 79.5779 36.4824C79.5048 36.6377 79.3744 36.749 79.1869 36.8165Z" fill="#A7BDD3"/>
<path d="M91.5149 33.8264C90.8047 33.9408 90.1474 33.8931 89.543 33.6832C88.9458 33.4634 88.4462 33.1137 88.0441 32.6342C87.6492 32.1448 87.396 31.5536 87.2843 30.8605C87.1713 30.1589 87.2175 29.5194 87.4229 28.942C87.6356 28.3548 87.9787 27.8693 88.4524 27.4858C88.9247 27.0936 89.4989 26.8431 90.1748 26.7342C90.8422 26.6267 91.4396 26.6841 91.967 26.9064C92.493 27.1201 92.9221 27.4679 93.2544 27.9499C93.5938 28.4219 93.8179 28.9959 93.9268 29.6719C93.953 29.8344 93.9194 29.9803 93.8261 30.1094C93.7314 30.23 93.5985 30.3041 93.4274 30.3317L88.2551 31.165L88.0897 30.1382L93.2235 29.3111L92.7552 29.7553C92.6777 29.3288 92.5308 28.9619 92.3145 28.6544C92.0967 28.3383 91.8223 28.106 91.4911 27.9574C91.1599 27.8089 90.7804 27.7691 90.3526 27.838C89.8649 27.9166 89.4629 28.0911 89.1465 28.3615C88.8388 28.6306 88.6253 28.9678 88.5063 29.3732C88.3859 29.7701 88.3636 30.2038 88.4394 30.6744C88.5152 31.145 88.6897 31.5471 88.9629 31.8805C89.2361 32.214 89.5782 32.4573 89.9891 32.6106C90.4 32.7638 90.8494 32.8012 91.3371 32.7226C91.6023 32.6799 91.8643 32.5894 92.1229 32.4512C92.3887 32.303 92.5969 32.151 92.7473 31.995C92.8605 31.8802 92.9898 31.8111 93.1353 31.7877C93.2879 31.7543 93.4274 31.7757 93.5538 31.8519C93.72 31.9569 93.8197 32.0856 93.8531 32.2383C93.8864 32.3909 93.8394 32.5346 93.7118 32.6692C93.4581 32.9471 93.1248 33.1939 92.7119 33.4097C92.3075 33.6241 91.9085 33.763 91.5149 33.8264Z" fill="#A7BDD3"/>
<path d="M101.916 25.9279C102.046 25.9275 102.163 25.9618 102.267 26.0308C102.372 26.0998 102.454 26.2078 102.515 26.355L105.212 32.1575C105.29 32.3306 105.299 32.4866 105.239 32.6254C105.179 32.7556 105.075 32.8556 104.928 32.9254C104.738 33.0127 104.573 33.0349 104.434 32.992C104.295 32.9491 104.178 32.8411 104.082 32.6681L101.621 27.1248L102.284 27.1227L99.7792 32.6816C99.7018 32.8465 99.5851 32.9552 99.4293 33.0077C99.2821 33.0515 99.1173 33.0304 98.9351 32.9443C98.7702 32.8668 98.6528 32.7632 98.5831 32.6334C98.522 32.5036 98.5345 32.3519 98.6207 32.1783L101.293 26.3588C101.422 26.0724 101.63 25.9288 101.916 25.9279Z" fill="#A7BDD3"/>
<path d="M112.734 34.0477C112.091 33.9483 111.548 33.746 111.104 33.4405C110.669 33.1364 110.351 32.754 110.15 32.2933C109.96 31.8253 109.909 31.3044 109.998 30.7305L110.566 27.0562C110.611 26.879 110.702 26.7397 110.841 26.6384C110.989 26.5297 111.149 26.4887 111.32 26.5152C111.509 26.5443 111.653 26.6324 111.753 26.7794C111.863 26.9192 111.903 27.0833 111.874 27.2717L111.652 28.7106L113.759 29.0365C114.315 29.1226 114.797 29.2979 115.203 29.5624C115.619 29.8197 115.928 30.1524 116.128 30.5604C116.329 30.9599 116.39 31.4123 116.312 31.9176C116.234 32.4229 116.032 32.8521 115.705 33.205C115.388 33.5592 114.975 33.8155 114.468 33.9739C113.963 34.1238 113.385 34.1484 112.734 34.0477ZM112.908 32.8381C113.456 32.9228 113.932 32.8781 114.336 32.7038C114.741 32.5209 114.98 32.194 115.053 31.7229C115.122 31.2775 115.015 30.9233 114.731 30.6601C114.448 30.3884 114.067 30.2155 113.588 30.1413L111.481 29.8155L111.312 30.9075C111.264 31.2158 111.303 31.5068 111.427 31.7803C111.551 32.0539 111.739 32.2846 111.991 32.4726C112.251 32.6619 112.556 32.7838 112.908 32.8381Z" fill="#A7BDD3"/>
<path d="M126.169 37.4793C125.988 37.4201 125.854 37.3127 125.768 37.1569C125.693 36.9957 125.686 36.8244 125.745 36.6432L127.542 31.1443C127.603 30.9548 127.711 30.8213 127.864 30.7436C128.025 30.6687 128.196 30.6608 128.378 30.72C128.567 30.782 128.697 30.8881 128.766 31.0384C128.835 31.1887 128.839 31.3586 128.777 31.5481L126.98 37.047C126.921 37.2282 126.818 37.3631 126.67 37.4517C126.526 37.532 126.358 37.5413 126.169 37.4793ZM121.09 35.8198C120.909 35.7606 120.78 35.6545 120.702 35.5015C120.635 35.3429 120.631 35.173 120.691 34.9918L122.488 29.4929C122.549 29.3034 122.653 29.1685 122.798 29.0882C122.951 29.0105 123.118 29.0013 123.299 29.0605C123.488 29.1224 123.622 29.2299 123.7 29.3829C123.777 29.5359 123.785 29.7072 123.723 29.8967L121.926 35.3955C121.867 35.5768 121.76 35.7103 121.604 35.7962C121.451 35.8739 121.28 35.8817 121.09 35.8198ZM122.525 33.0199L122.888 31.9078L127.226 33.325L126.862 34.4372L122.525 33.0199Z" fill="#A7BDD3"/>
<path d="M133.448 41.0065C132.935 40.7333 132.537 40.3836 132.254 39.9575C131.975 39.5237 131.826 39.0565 131.808 38.5559C131.79 38.0552 131.912 37.5602 132.172 37.0707L133.922 33.7899C134.027 33.6298 134.161 33.5248 134.325 33.4748C134.489 33.4248 134.652 33.4426 134.812 33.5282C134.988 33.622 135.101 33.751 135.151 33.9151C135.201 34.0793 135.179 34.2493 135.086 34.4252L134.401 35.71L135.972 36.5479C136.454 36.8047 136.834 37.1151 137.111 37.4791C137.396 37.8471 137.556 38.2468 137.591 38.6781C137.634 39.1135 137.531 39.5644 137.283 40.0309C137.018 40.528 136.68 40.8933 136.271 41.1269C135.869 41.3645 135.425 41.4711 134.937 41.4467C134.449 41.4223 133.953 41.2756 133.448 41.0065ZM134.029 39.9167C134.457 40.145 134.86 40.2273 135.238 40.1635C135.627 40.0962 135.934 39.8522 136.158 39.4315C136.375 39.0262 136.407 38.6607 136.257 38.3349C136.107 38.0092 135.836 37.7424 135.446 37.5344L133.875 36.6965L133.355 37.6716C133.126 38.0999 133.073 38.523 133.194 38.9411C133.322 39.3632 133.601 39.6884 134.029 39.9167ZM137.673 43.1118C137.505 43.0221 137.392 42.8932 137.334 42.725C137.288 42.5532 137.31 42.3831 137.4 42.2149L140.122 37.1101C140.215 36.9342 140.344 36.8212 140.508 36.7712C140.68 36.7253 140.85 36.7472 141.019 36.8369C141.194 36.9307 141.307 37.0597 141.357 37.2238C141.407 37.388 141.385 37.558 141.292 37.7339L138.57 42.8387C138.48 43.007 138.351 43.1199 138.183 43.1775C138.019 43.2275 137.849 43.2056 137.673 43.1118Z" fill="#A7BDD3"/>
<path d="M144.436 48.101C143.869 47.6578 143.458 47.1432 143.201 46.5572C142.956 45.9697 142.873 45.3656 142.952 44.7448C143.042 44.1225 143.304 43.5349 143.736 42.9819C144.174 42.4222 144.675 42.0214 145.238 41.7797C145.813 41.5366 146.402 41.4584 147.006 41.5451C147.614 41.6251 148.188 41.876 148.728 42.2978C149.26 42.7143 149.624 43.1915 149.819 43.7295C150.02 44.2606 150.057 44.8118 149.929 45.383C149.813 45.9528 149.545 46.5073 149.123 47.0466C149.021 47.1763 148.891 47.2508 148.733 47.2702C148.58 47.2827 148.436 47.2355 148.299 47.1287L144.173 43.901L144.813 43.0818L148.909 46.2855L148.265 46.2439C148.525 45.8972 148.695 45.54 148.773 45.1724C148.857 44.7978 148.841 44.4386 148.725 44.0947C148.609 43.7509 148.38 43.4454 148.039 43.1784C147.65 42.8741 147.248 42.6978 146.835 42.6495C146.428 42.6066 146.036 42.6792 145.658 42.8675C145.285 43.0489 144.951 43.3273 144.658 43.7028C144.364 44.0782 144.188 44.4795 144.129 44.9065C144.07 45.3335 144.124 45.7498 144.291 46.1554C144.458 46.561 144.736 46.916 145.125 47.2204C145.336 47.3859 145.581 47.5165 145.858 47.6123C146.147 47.7066 146.4 47.7559 146.617 47.7603C146.778 47.7653 146.917 47.8132 147.033 47.904C147.161 47.9933 147.24 48.1102 147.27 48.2547C147.306 48.4479 147.279 48.6086 147.19 48.7368C147.101 48.865 146.963 48.9281 146.778 48.926C146.402 48.9288 145.994 48.8521 145.555 48.6958C145.123 48.5449 144.75 48.3466 144.436 48.101Z" fill="#A7BDD3"/>
<path d="M155.455 59.0543C155.343 58.9001 155.298 58.7347 155.319 58.5582C155.353 58.3836 155.447 58.2403 155.601 58.1282L160.28 54.7264C160.442 54.6091 160.607 54.5639 160.776 54.5907C160.951 54.6245 161.094 54.7185 161.207 54.8727C161.37 55.0971 161.399 55.3653 161.293 55.6775L159.732 60.1398L164.458 60.0307C164.788 60.0269 165.034 60.1372 165.197 60.3615C165.314 60.5227 165.359 60.6881 165.333 60.8576C165.306 61.027 165.212 61.1704 165.051 61.2876L160.371 64.6894C160.217 64.8015 160.052 64.8468 159.875 64.8251C159.706 64.7983 159.563 64.7043 159.445 64.543C159.333 64.3888 159.288 64.2235 159.31 64.047C159.344 63.8724 159.438 63.729 159.592 63.6169L163.419 60.8343L163.534 61.1688L159.393 61.2217C159.021 61.2248 158.76 61.1247 158.613 60.9215C158.472 60.7131 158.459 60.4381 158.575 60.0966L159.926 56.2059L160.208 56.4181L156.381 59.2007C156.227 59.3128 156.061 59.358 155.885 59.3363C155.715 59.3095 155.572 59.2155 155.455 59.0543Z" fill="#A7BDD3"/>
<path d="M163.326 71.8472C163.048 71.2788 162.939 70.7003 162.999 70.1117C163.066 69.5192 163.276 68.9727 163.63 68.472C163.995 67.9752 164.485 67.5765 165.1 67.2759C165.715 66.9752 166.336 66.8451 166.964 66.8857C167.595 66.934 168.169 67.131 168.685 67.4767C169.213 67.8265 169.625 68.305 169.922 68.9123C170.219 69.5196 170.341 70.1351 170.289 70.7587C170.245 71.3784 170.046 71.9483 169.693 72.4684C169.343 72.9963 168.86 73.4106 168.245 73.7112L168.023 73.2557C167.408 73.5564 166.79 73.6943 166.17 73.6693C165.562 73.6483 165.003 73.4824 164.494 73.1717C163.993 72.8571 163.604 72.4156 163.326 71.8472ZM164.491 71.567C164.685 71.9641 164.952 72.2727 165.291 72.4928C165.638 72.7091 166.019 72.8268 166.433 72.8461C166.856 72.8615 167.273 72.7684 167.686 72.5666C168.106 72.3611 168.436 72.0889 168.676 71.75C168.923 71.4072 169.064 71.0345 169.099 70.6317C169.141 70.2251 169.065 69.8232 168.871 69.4261C168.681 69.0368 168.41 68.7301 168.06 68.506C167.72 68.2859 167.338 68.1642 166.912 68.141C166.497 68.1218 166.08 68.2149 165.659 68.4205C165.246 68.6222 164.917 68.8944 164.669 69.2371C164.434 69.5839 164.295 69.9605 164.252 70.3671C164.221 70.7777 164.301 71.1776 164.491 71.567ZM164.754 74.6798C164.67 74.5085 164.654 74.3378 164.706 74.1678C164.77 74.0017 164.887 73.8767 165.058 73.793L166.845 72.9196L168.192 72.5363L168.245 73.7112L165.641 74.9843C165.469 75.068 165.297 75.0801 165.123 75.0204C164.961 74.9646 164.838 74.8511 164.754 74.6798Z" fill="#A7BDD3"/>
<path d="M169.039 88.2744C168.989 88.0906 169.005 87.9199 169.087 87.7623C169.18 87.6108 169.319 87.5097 169.502 87.459L173.087 86.4706C173.613 86.3255 173.966 86.0888 174.145 85.7607C174.333 85.4303 174.369 85.0562 174.254 84.6385C174.134 84.204 173.884 83.8862 173.505 83.6851C173.128 83.4924 172.706 83.4605 172.238 83.5895L171.951 82.5493C172.494 82.3996 173.003 82.3852 173.477 82.5063C173.959 82.625 174.375 82.861 174.724 83.2142C175.075 83.5758 175.326 84.0281 175.476 84.5712C175.607 85.0474 175.619 85.4981 175.511 85.9233C175.404 86.3486 175.173 86.7179 174.819 87.0313C174.476 87.3507 174.016 87.5899 173.439 87.7489L169.855 88.7373C169.671 88.788 169.5 88.7721 169.343 88.6897C169.194 88.605 169.092 88.4665 169.039 88.2744ZM166.734 79.9154C166.684 79.7316 166.7 79.5609 166.782 79.4033C166.875 79.2518 167.014 79.1507 167.197 79.1L172.774 77.5621C172.966 77.5091 173.137 77.525 173.286 77.6097C173.438 77.7028 173.539 77.8412 173.59 78.025C173.643 78.2172 173.627 78.3879 173.542 78.5371C173.457 78.6863 173.319 78.7874 173.127 78.8404L167.55 80.3783C167.366 80.429 167.195 80.4131 167.038 80.3307C166.889 80.246 166.787 80.1075 166.734 79.9154ZM167.889 84.1011C167.838 83.9173 167.854 83.7466 167.936 83.5891C168.029 83.4375 168.168 83.3364 168.352 83.2857L171.936 82.2974C172.462 82.1522 172.815 81.9156 172.994 81.5875C173.182 81.2571 173.218 80.883 173.103 80.4652C172.983 80.0308 172.733 79.713 172.354 79.5119C171.975 79.3108 171.552 79.2747 171.084 79.4037L170.866 78.6142C171.409 78.4644 171.915 78.4417 172.385 78.5461C172.862 78.6481 173.271 78.859 173.611 79.1788C173.951 79.4986 174.189 79.905 174.325 80.398C174.456 80.8742 174.468 81.3249 174.361 81.7501C174.253 82.1753 174.022 82.5446 173.668 82.858C173.325 83.1775 172.865 83.4167 172.288 83.5757L168.704 84.564C168.52 84.6147 168.35 84.5989 168.192 84.5165C168.043 84.4317 167.942 84.2933 167.889 84.1011Z" fill="#A7BDD3"/>
<path d="M169.93 96.6221C169.87 95.9053 169.968 95.2535 170.223 94.6669C170.488 94.0881 170.874 93.6166 171.383 93.2522C171.901 92.8958 172.51 92.6883 173.21 92.6297C173.918 92.5705 174.552 92.6652 175.112 92.9141C175.681 93.1708 176.139 93.55 176.486 94.0515C176.841 94.5523 177.047 95.1438 177.104 95.8261C177.16 96.4998 177.057 97.0911 176.796 97.6C176.542 98.1082 176.163 98.5096 175.657 98.8041C175.161 99.1066 174.571 99.2864 173.889 99.3435C173.725 99.3572 173.582 99.3126 173.46 99.2097C173.347 99.1061 173.283 98.968 173.269 98.7952L172.832 93.5745L173.869 93.4878L174.302 98.6697L173.895 98.1689C174.326 98.1241 174.703 98.0056 175.026 97.8133C175.358 97.6203 175.611 97.3643 175.784 97.0454C175.957 96.7265 176.026 96.3512 175.99 95.9194C175.948 95.4271 175.805 95.0129 175.56 94.6769C175.315 94.3495 174.995 94.111 174.6 93.9615C174.213 93.8112 173.782 93.7559 173.307 93.7956C172.832 93.8354 172.418 93.9788 172.065 94.2258C171.711 94.4727 171.443 94.7953 171.259 95.1933C171.075 95.5914 171.003 96.0366 171.044 96.5289C171.067 96.7966 171.137 97.0647 171.255 97.3331C171.383 97.6094 171.518 97.8285 171.662 97.9904C171.768 98.112 171.827 98.2462 171.839 98.3931C171.861 98.5478 171.829 98.6853 171.744 98.8055C171.626 98.9631 171.49 99.0528 171.336 99.0744C171.181 99.0961 171.041 99.0382 170.917 98.9008C170.659 98.6266 170.438 98.2755 170.254 97.8473C170.072 97.4278 169.963 97.0194 169.93 96.6221Z" fill="#A7BDD3"/>
<path d="M167.074 104.79C167.09 104.6 167.168 104.446 167.309 104.328C167.44 104.217 167.601 104.17 167.791 104.186L173.697 104.687C174.379 104.754 174.979 104.966 175.496 105.323C176.014 105.68 176.405 106.139 176.671 106.701C176.945 107.264 177.053 107.882 176.996 108.555C176.938 109.237 176.727 109.833 176.362 110.341C176.005 110.85 175.542 111.237 174.972 111.502C174.4 111.775 173.774 111.883 173.091 111.825C172.409 111.767 171.809 111.568 171.29 111.228C170.778 110.898 170.384 110.468 170.107 109.94C169.839 109.413 169.731 108.834 169.785 108.204C169.828 107.694 169.972 107.233 170.216 106.818C170.468 106.414 170.788 106.075 171.176 105.804L167.679 105.507C167.489 105.491 167.338 105.417 167.228 105.286C167.108 105.154 167.057 104.989 167.074 104.79ZM170.973 108.044C170.935 108.484 171.006 108.886 171.184 109.249C171.37 109.613 171.636 109.909 171.982 110.139C172.336 110.378 172.742 110.516 173.199 110.555C173.666 110.595 174.089 110.526 174.469 110.35C174.857 110.183 175.17 109.935 175.406 109.608C175.652 109.28 175.793 108.897 175.83 108.456C175.867 108.024 175.792 107.622 175.607 107.25C175.429 106.887 175.162 106.59 174.808 106.36C174.462 106.131 174.056 105.996 173.59 105.957C173.132 105.918 172.709 105.982 172.321 106.149C171.941 106.317 171.629 106.564 171.384 106.891C171.146 107.228 171.009 107.612 170.973 108.044Z" fill="#A7BDD3"/>
<path d="M167.805 119.098C167.955 118.519 168.211 118.03 168.573 117.631C168.942 117.243 169.4 116.977 169.948 116.832C170.494 116.695 171.115 116.717 171.811 116.897L174.907 117.697C175.092 117.745 175.228 117.843 175.315 117.991C175.408 118.149 175.431 118.32 175.383 118.505C175.336 118.69 175.234 118.824 175.077 118.909C174.927 119.005 174.76 119.029 174.576 118.981L171.479 118.181C171.009 118.059 170.596 118.047 170.24 118.143C169.893 118.241 169.604 118.421 169.375 118.685C169.155 118.95 168.996 119.271 168.898 119.649C168.805 120.01 168.794 120.347 168.865 120.661C168.934 120.983 169.068 121.259 169.268 121.49C169.468 121.721 169.719 121.875 170.021 121.953L169.816 122.746C169.296 122.612 168.86 122.36 168.507 121.992C168.153 121.631 167.911 121.198 167.783 120.69C167.652 120.191 167.66 119.66 167.805 119.098ZM167.149 121.896C167.197 121.711 167.296 121.571 167.446 121.475C167.602 121.391 167.772 121.372 167.957 121.42L173.571 122.87C173.764 122.92 173.904 123.019 173.991 123.167C174.076 123.323 174.094 123.493 174.047 123.678C173.997 123.871 173.898 124.011 173.75 124.098C173.602 124.185 173.432 124.204 173.239 124.154L167.625 122.703C167.441 122.656 167.301 122.557 167.205 122.407C167.118 122.259 167.099 122.089 167.149 121.896Z" fill="#A7BDD3"/>
<path d="M164.121 129.546C164.376 128.968 164.748 128.511 165.236 128.177C165.732 127.846 166.286 127.655 166.896 127.602C167.511 127.56 168.132 127.678 168.758 127.954C169.385 128.23 169.885 128.621 170.259 129.127C170.629 129.641 170.848 130.206 170.917 130.824C170.99 131.453 170.89 132.077 170.618 132.695C170.345 133.314 169.954 133.804 169.443 134.166C168.941 134.532 168.377 134.748 167.752 134.813C167.123 134.886 166.495 134.784 165.869 134.508L166.073 134.044C165.447 133.768 164.943 133.385 164.562 132.895C164.186 132.417 163.953 131.883 163.862 131.293C163.779 130.708 163.866 130.125 164.121 129.546ZM165.087 130.256C164.908 130.661 164.844 131.064 164.895 131.465C164.953 131.869 165.109 132.236 165.361 132.565C165.622 132.898 165.962 133.157 166.383 133.343C166.811 133.531 167.232 133.608 167.645 133.572C168.067 133.54 168.442 133.408 168.773 133.174C169.111 132.945 169.369 132.628 169.547 132.223C169.722 131.827 169.782 131.422 169.727 131.01C169.677 130.608 169.523 130.238 169.266 129.897C169.013 129.568 168.673 129.309 168.244 129.12C167.824 128.934 167.403 128.858 166.982 128.89C166.565 128.933 166.187 129.07 165.849 129.3C165.516 129.541 165.261 129.86 165.087 130.256ZM162.877 132.465C162.954 132.29 163.074 132.168 163.237 132.098C163.405 132.039 163.576 132.048 163.751 132.125L165.571 132.928L166.732 133.71L165.869 134.508L163.216 133.339C163.042 133.262 162.921 133.138 162.855 132.966C162.792 132.806 162.8 132.639 162.877 132.465Z" fill="#A7BDD3"/>
<path d="M164.939 142.915C164.869 143.024 164.777 143.104 164.662 143.154C164.547 143.204 164.412 143.215 164.255 143.186L157.919 142.293C157.731 142.265 157.595 142.188 157.512 142.061C157.435 141.94 157.408 141.799 157.429 141.637C157.459 141.43 157.53 141.28 157.642 141.187C157.753 141.094 157.908 141.054 158.105 141.067L164.096 142.016L163.737 142.574L160.434 137.449C160.338 137.294 160.31 137.137 160.35 136.978C160.394 136.831 160.501 136.704 160.672 136.598C160.827 136.502 160.978 136.459 161.125 136.471C161.267 136.491 161.387 136.584 161.486 136.751L164.916 142.158C165.087 142.422 165.094 142.675 164.939 142.915Z" fill="#A7BDD3"/>
<path d="M152.412 147.368C152.804 146.939 153.241 146.64 153.724 146.471C154.214 146.308 154.703 146.279 155.193 146.386C155.682 146.492 156.132 146.733 156.541 147.107L159.287 149.614C159.416 149.755 159.484 149.912 159.492 150.083C159.5 150.254 159.442 150.407 159.32 150.542C159.185 150.689 159.032 150.766 158.861 150.774C158.689 150.782 158.53 150.719 158.383 150.584L157.308 149.602L156.107 150.918C155.739 151.321 155.344 151.612 154.923 151.79C154.495 151.975 154.069 152.032 153.642 151.959C153.21 151.893 152.798 151.681 152.408 151.325C151.992 150.945 151.721 150.528 151.596 150.073C151.466 149.625 151.473 149.168 151.617 148.701C151.761 148.235 152.026 147.79 152.412 147.368ZM153.324 148.201C152.997 148.559 152.817 148.929 152.786 149.311C152.754 149.705 152.915 150.063 153.267 150.384C153.606 150.694 153.952 150.816 154.305 150.751C154.658 150.686 154.983 150.49 155.281 150.164L156.482 148.849L155.666 148.103C155.308 147.776 154.911 147.619 154.476 147.633C154.035 147.653 153.651 147.842 153.324 148.201ZM149.326 150.94C149.455 150.799 149.608 150.722 149.785 150.708C149.963 150.706 150.122 150.769 150.263 150.898L154.535 154.799C154.682 154.933 154.759 155.086 154.767 155.257C154.769 155.435 154.706 155.594 154.577 155.735C154.443 155.882 154.29 155.96 154.118 155.968C153.947 155.975 153.788 155.912 153.641 155.778L149.369 151.877C149.228 151.748 149.15 151.595 149.136 151.418C149.128 151.247 149.192 151.087 149.326 150.94Z" fill="#A7BDD3"/>
</svg>
