<svg width="30" height="30" viewBox="0 0 30 30" fill="none" xmlns="http://www.w3.org/2000/svg">
<path d="M20.0601 10.9399C20.0601 9.61386 19.5333 8.34209 18.5956 7.40441C17.6579 6.46673 16.3861 5.93994 15.0601 5.93994C13.734 5.93994 12.4622 6.46673 11.5245 7.40441C10.5868 8.34209 10.0601 9.61386 10.0601 10.9399C10.0601 13.5799 12.2801 16.4799 15.0601 16.4799C17.8401 16.4799 20.0601 13.5799 20.0601 10.9399Z" fill="#063854"/>
<path d="M15.1 29.0099C16.9792 29.0113 18.8399 28.639 20.5739 27.9145C22.3079 27.19 23.8804 26.1279 25.2 24.7899C24.5755 22.5926 23.2515 20.659 21.4288 19.2821C19.6062 17.9053 17.3842 17.1604 15.1 17.1604C12.8157 17.1604 10.5938 17.9053 8.77112 19.2821C6.94845 20.659 5.62448 22.5926 5 24.7899C6.32024 26.127 7.8929 27.1885 9.6267 27.9129C11.3605 28.6374 13.2209 29.0102 15.1 29.0099Z" fill="#063854"/>
<circle cx="15" cy="15" r="14.25" stroke="#063854" stroke-width="1.5" stroke-linecap="round" stroke-linejoin="round"/>
</svg>
