<svg width="30" height="29" viewBox="0 0 30 29" fill="none" xmlns="http://www.w3.org/2000/svg">
<path d="M20.4451 10.3718C20.4451 13.0643 18.2211 16.3068 15.4803 16.3068C12.7396 16.3068 10.5156 13.0643 10.5156 10.3718C10.5156 9.73193 10.644 9.09836 10.8935 8.50723C11.143 7.9161 11.5087 7.37899 11.9698 6.92656C12.4308 6.47413 12.9781 6.11524 13.5804 5.87039C14.1828 5.62554 14.8284 5.49951 15.4803 5.49951C16.1323 5.49951 16.7779 5.62554 17.3803 5.87039C17.9826 6.11524 18.5299 6.47413 18.9909 6.92656C19.452 7.37899 19.8177 7.9161 20.0672 8.50723C20.3167 9.09836 20.4451 9.73193 20.4451 10.3718V10.3718Z" fill="#C7A2D0"/>
<path d="M24.9053 24.4699C24.9053 24.8318 19.9696 28.0942 15.481 28.0942C11.0737 28.0942 6.05664 25.0768 6.05664 24.4699C6.05664 20.498 11.4337 17.2783 15.481 17.2783C19.5282 17.2783 24.9053 20.498 24.9053 24.4699Z" fill="#C7A2D0"/>
<path d="M15.4804 28.4959C12.1291 28.4979 8.88042 27.3618 6.28552 25.2806C3.69062 23.1994 1.90938 20.3013 1.24406 17.0779C0.578735 13.8545 1.07032 10.5046 2.63539 7.59641C4.20046 4.68826 6.7426 2.40109 9.83045 1.123C13.3779 -0.347539 17.3754 -0.374875 20.9434 1.04701C24.5114 2.46889 27.3577 5.22352 28.8562 8.70491C30.3546 12.1863 30.3825 16.1093 28.9336 19.6108C27.4847 23.1123 24.6778 25.9056 21.1303 27.3762C19.3431 28.1192 17.4213 28.5001 15.4804 28.4959V28.4959ZM15.4804 1.24837C12.8602 1.24837 10.2988 2.01088 8.12018 3.43947C5.94155 4.86806 4.24352 6.89857 3.24081 9.27424C2.23809 11.6499 1.97574 14.264 2.48692 16.786C2.99809 19.308 4.25985 21.6246 6.11262 23.4428C7.96539 25.2611 10.326 26.4993 12.8958 27.001C15.4657 27.5026 18.1294 27.2452 20.5502 26.2611C22.971 25.2771 25.04 23.6107 26.4957 21.4727C27.9514 19.3346 28.7284 16.821 28.7284 14.2496C28.7246 10.8026 27.3276 7.49789 24.8439 5.0605C22.3603 2.62312 18.9928 1.25214 15.4804 1.24837V1.24837Z" fill="#C7A2D0"/>
</svg>
