<svg width="514" height="115" viewBox="0 0 514 115" fill="none" xmlns="http://www.w3.org/2000/svg">
<path fill-rule="evenodd" clip-rule="evenodd" d="M493.618 82.6248C493.94 82.6388 493.884 83.0317 493.954 83.2984C492.371 84.9683 489.877 85.7262 487.229 86.3296C488.252 83.972 491.881 84.2526 493.618 82.6248Z" fill="white" fill-opacity="0.6"/>
<path fill-rule="evenodd" clip-rule="evenodd" d="M495.298 85.9927C493.743 87.5785 490.143 87.1154 487.901 88.0135C488.686 85.9506 493.421 84.7437 495.298 85.9927Z" fill="white" fill-opacity="0.6"/>
<path fill-rule="evenodd" clip-rule="evenodd" d="M494.962 89.3609C494.052 90.9186 491.558 90.8906 489.246 91.0449C490.521 89.796 494.01 87.9295 494.962 89.3609Z" fill="white" fill-opacity="0.6"/>
<path fill-rule="evenodd" clip-rule="evenodd" d="M510.43 19.3054C513.905 20.4561 514.031 27.0098 512.111 29.0727C515.151 31.8233 512.672 38.4892 510.43 40.1873C516.118 47.6672 506.087 53.6174 498.997 54.6699C499.782 51.7228 505.4 52.0877 505.05 47.2602C504.994 46.4182 504.518 46.362 504.377 45.2394C502.5 44.678 500.581 45.6604 498.661 45.2394C500.37 42.0116 505.33 42.0397 505.05 36.8192C504.377 34.8405 501.715 36.1877 500.342 35.472C500.342 32.8477 505.933 32.1741 504.714 27.3887C503.943 24.3715 500.258 25.3959 497.316 24.0206C504.658 19.979 509.519 30.8971 503.032 34.4616C503.999 34.5037 505.232 34.2792 505.722 34.7984C507.712 37.8156 505.456 41.9976 502.696 43.2185C505.568 43.9623 507.194 46.4883 506.059 50.2914C509.043 49.7301 513.316 44.1307 509.421 41.1977C507.992 41.2819 506.759 41.1696 506.395 40.1873C506.283 38.6155 508.721 39.5979 509.421 38.8401C511.229 37.4086 512.574 34.0546 511.775 31.0935C510.206 30.7287 509.127 31.9777 508.076 31.0935C507.964 29.0727 510.15 29.3534 511.102 28.3991C512.938 24.6943 511.733 20.7087 508.076 20.6526C507.292 18.8703 508.959 19.2773 509.421 17.9582C510.696 12.3728 504.896 12.7517 502.696 12.5693C502.598 12.022 503.018 11.9939 503.032 11.5589C508.553 10.1695 512.84 14.4357 510.43 19.3054Z" fill="white" fill-opacity="0.6"/>
<path fill-rule="evenodd" clip-rule="evenodd" d="M492.609 32.104C493.015 32.2443 493.296 32.539 493.282 33.1144C486.332 36.5526 487.902 48.2285 486.893 56.0171C486.669 57.7713 483.895 61.2376 481.177 61.0692C488.28 57.0977 484.343 46.6427 487.229 39.5137C485.127 39.654 484.609 44.2851 482.858 45.913C482.802 39.3312 488.518 35.6404 492.609 32.104Z" fill="white" fill-opacity="0.6"/>
<path fill-rule="evenodd" clip-rule="evenodd" d="M457.302 44.229C454.865 41.9415 451.236 37.0438 454.276 34.1248C451.194 31.7531 449.919 22.7717 455.621 22.3366C453.912 19.2914 450.535 13.3832 453.94 10.2117C451.894 6.49276 453.239 2.14237 458.984 2.80195C458.746 3.84043 458.746 3.44748 458.984 4.48597C456.532 4.5842 454.486 4.52807 454.276 6.8436C454.08 9.04687 456.686 8.9767 456.966 11.2221C456.252 12.2746 454.416 11.2642 453.604 12.9061C451.6 16.9478 457.457 20.807 458.311 24.0207C451.404 21.3122 451.236 33.8862 457.639 33.1144C457.513 34.5739 455.537 34.9668 454.612 36.4824C455.047 41.8854 459.138 43.6255 462.682 45.913C462.178 46.0533 462.809 46.348 462.682 46.9234C455.593 45.3376 447.187 43.429 448.224 34.7984C443.824 34.5177 441.331 28.8342 445.87 26.7151C441.176 25.6064 440.616 17.4109 444.861 15.2637C438.318 12.2184 439.677 -1.33796 447.215 0.107498C445.492 2.17043 442.311 2.12833 441.835 5.49638C441.261 9.46787 443.951 13.9165 448.224 14.2533C448.49 16.625 445.015 16.1338 443.852 18.295C442.199 21.3543 444.105 25.2275 448.56 25.3679C449.471 28.0342 445.618 27.501 445.197 29.4095C444.469 32.7215 448.224 33.3249 451.586 32.104C452.077 34.3914 450.171 34.2792 449.569 35.472C449.036 40.7065 453.898 41.9976 457.302 44.229Z" fill="white" fill-opacity="0.6"/>
<path fill-rule="evenodd" clip-rule="evenodd" d="M469.071 32.4409C477.505 32.7497 477.211 43.2187 480.503 47.5972C474.255 48.2989 478.668 37.3948 473.106 36.1458C476.707 43.1906 470.29 55.2034 475.796 60.059C477.029 58.3609 475.011 57.0418 474.787 55.6805C476.02 54.8666 477.533 55.5402 479.158 54.6701C481.54 57.7154 479.719 64.2129 480.84 67.8055C481.666 68.3809 483.095 67.3143 484.538 67.4687C485.477 67.609 483.698 66.2056 484.875 66.1214C485.659 66.2337 486.318 66.4723 486.556 67.1319C486.626 69.3351 483.908 68.7457 481.848 68.8159C483.81 72.5769 486.948 75.1591 490.591 77.236C494.192 75.4818 494.514 79.4112 497.316 80.2672C501.547 87.1577 498.002 97.8513 495.298 103.844C488.195 106.089 484.496 109.78 474.115 109.232C468.567 108.938 459.936 107.352 455.621 104.854C447.369 100.083 447.775 87.1016 452.258 78.2464C452.833 78.2605 453.127 77.9938 453.267 77.5728C463.635 78.7516 465.849 71.7629 470.416 67.1319C469.855 65.6724 467.39 65.097 467.726 63.7638C469.169 62.5569 469.813 65.0268 471.088 65.111C472.896 64.7883 472.658 62.4166 474.787 62.4166C474.703 64.241 473.596 65.0409 472.77 66.1214C473.33 66.9073 474.591 66.9915 475.46 67.4687C477.379 65.504 476.58 63.9462 476.468 61.4062C470.976 61.2097 470.892 49.7162 473.442 45.9131C472.714 42.2644 470.346 40.2576 467.39 38.8403C468.651 41.5628 468.553 45.2255 468.735 49.9548C468.889 54.0386 470.794 56.6207 471.761 59.7222C465.274 56.7049 469.547 45.8851 466.045 40.1875C464.966 38.4192 463.313 38.5876 462.346 36.4826C466.437 36.1177 470.402 38.7139 472.77 41.1979C473.919 38.2228 470.262 35.2196 469.071 32.4409ZM478.486 62.0798C478.85 59.6099 479.004 58.4732 477.813 57.0277C477.827 58.9222 477.631 61.0273 478.486 62.0798ZM471.761 67.4687C467.446 73.3066 461.954 79.8182 453.603 79.5936C449.358 86.1192 448.868 97.1496 454.612 102.496C455.173 102.496 455.733 102.496 456.293 102.496C463.887 108.419 480.531 109.808 489.918 104.854C490.703 103.801 491.418 103.002 491.263 101.823C492.847 102.005 492.23 100.995 493.617 100.476C493.729 101.261 493.967 101.921 494.626 102.16C497.022 95.7603 500.034 86.2736 495.635 80.2672C489.134 78.1061 486.388 84.3931 479.831 84.3089C482.647 86.0912 483.474 91.2976 482.521 95.7603C485.155 96.6023 486.766 98.4688 488.573 100.139C488.868 101.444 488.013 101.598 487.565 102.16C485.883 100.363 484.833 97.9355 482.521 96.7707C480.321 97.8092 475.46 103.282 473.442 99.1283C476.482 98.8056 479.523 98.4828 480.503 96.0971C476.763 93.5009 474.409 100.854 471.088 97.4443C472.223 96.6725 474.185 96.7286 474.787 95.4235C468.188 95.5357 463.411 96.3357 460.665 99.4651C459.838 100.405 459.992 102.454 457.975 102.496C458.563 95.5638 467.236 93.8237 476.132 94.0763C478.934 89.9364 474.437 86.7227 472.77 83.9721C471.172 83.8879 468.735 84.1125 466.045 83.9721C462.192 83.7757 456.167 83.916 456.966 80.6041C461.183 82.9477 466.927 81.7969 472.433 82.9617C470.416 77.5588 473.4 72.2822 475.123 68.4791C474.045 68.1002 472.784 67.9037 471.761 67.4687ZM474.115 82.9617C475.151 82.3723 476.496 83.3546 476.468 82.2881C471.789 79.6077 476.959 72.6751 477.813 69.1527C477.379 69.1387 477.351 68.7176 476.805 68.8159C475.067 72.6751 471.635 77.9237 474.115 82.9617ZM475.796 78.92C477.099 85.165 486.794 82.26 489.582 78.2464C484.833 76.4922 482.787 72.0296 479.158 69.1527C478.99 72.1699 475.221 76.1133 475.796 78.92ZM478.15 94.4131C479.397 94.5674 479.691 94.6657 481.512 94.7499C482.101 89.2207 479.859 86.5262 477.477 83.9721C476.44 83.8599 475.866 84.758 475.123 83.9721C476.468 86.849 480.587 89.9223 478.15 94.4131Z" fill="white" fill-opacity="0.6"/>
<path fill-rule="evenodd" clip-rule="evenodd" d="M43.9062 19.8406C54.6689 24.7237 64.2821 30.4264 75.6717 33.6528C78.5975 32.3797 80.966 30.8101 82.3592 29.0487C92.3033 29.0313 92.5297 44.413 84.449 46.2093C83.526 54.0746 85.6333 69.5784 84.449 78.8563C96.5004 81.8384 86.8523 102.574 76.5076 93.5055C71.9623 96.2087 68.3921 99.8884 63.9686 102.714C69.7853 115.584 47.1629 120.467 47.6679 106.481C37.5496 101.109 26.5606 96.6447 16.3204 91.4128C11.3918 97.2376 0.611755 94.6043 0.0196349 86.8087C-0.241595 83.3557 2.16172 81.106 3.78134 78.4377C5.76668 78.0366 5.74927 78.1936 7.54305 77.6006C10.7475 65.0615 7.82169 58.3647 7.54305 44.5351C-5.29203 42.4249 4.77401 20.573 14.2305 30.3043C18.1315 27.3745 22.468 24.8806 25.9336 21.5148C22.5899 15.6725 26.8915 2.97645 36.3828 5.19129C41.4332 6.37718 46.3618 12.6729 43.9062 19.8406ZM29.6953 8.95824C28.3892 11.4347 25.7943 14.3471 27.1875 18.1664C29.2251 18.5326 28.3195 15.9515 30.5313 16.4922C32.0116 18.4803 29.051 19.0383 29.2773 21.0962C31.0189 24.9853 38.9951 24.5667 40.5625 20.6777C39.5175 19.7708 37.4974 19.8406 37.6367 17.7478C39.9181 16.7014 39.6743 18.5152 41.8164 18.5849C44.7421 10.9115 36.226 5.03432 29.6953 8.95824ZM42.2343 21.9333C41.3287 24.5144 38.7861 25.4561 35.5469 25.7003C34.2059 34.1934 34.5194 39.1113 34.293 49.1391C38.4552 50.9703 42.513 52.9061 46.414 54.9988C47.6679 48.2672 59.6845 48.0404 62.2968 53.7432C66.6506 49.7321 71.5443 46.2616 76.0897 42.4423C76.0897 40.3496 76.0897 38.2568 76.0897 36.164C63.7074 32.5192 54.425 25.7875 42.2343 21.9333ZM26.7695 22.7704C23.687 26.2409 19.0197 28.1244 15.9024 31.56C17.5917 34.0539 18.6366 37.2453 17.1563 40.7681C22.6247 42.9655 27.4313 45.8256 32.6211 48.302C32.7082 41.6401 32.8649 33.7923 33.457 26.5374C31.106 25.4038 28.8071 24.2179 26.7695 22.7704ZM6.28915 30.3043C0.838158 35.1351 4.28639 44.2909 12.1407 42.8609C12.4193 41.8843 13.5339 41.7447 13.8126 40.7681C13.0637 39.7043 11.2525 39.7043 10.8868 38.2568C10.8694 37.5418 11.2003 37.1756 11.7227 37.0012C14.2131 36.4605 13.4294 39.1985 15.4844 39.0939C17.1737 32.9552 11.3396 28.5604 6.28915 30.3043ZM83.1951 31.9786C79.0503 31.8914 76.9256 37.2628 78.5975 40.3496C78.911 39.0939 82.3592 36.8093 82.7772 39.5125C82.0109 40.8379 80.0952 41.0123 79.8514 42.8609C81.3317 43.4713 82.9513 43.9421 85.285 43.698C90.318 40.7158 88.0366 30.1299 82.3592 31.1414C82.8294 31.2286 83.021 31.6123 83.1951 31.9786ZM15.9024 42.0238C14.5266 43.9944 12.071 44.8839 9.21492 45.3722C9.40649 55.9057 11.4267 69.8574 10.0509 77.6006C12.4193 77.3216 12.8721 78.9609 14.6485 79.2748C18.5844 75.9613 21.8584 71.985 25.5156 68.3925C23.5129 62.8816 25.8988 56.7951 31.7851 56.6731C32.0812 53.8827 32.1857 53.2723 32.2031 49.9762C26.7347 47.3777 21.3186 44.692 15.9024 42.0238ZM77.3436 43.698C72.7459 47.6044 67.8348 51.197 63.5507 55.4174C63.986 62.6897 60.8687 66.4044 56.0273 68.3925C56.0273 70.6248 56.0273 72.857 56.0273 75.0893C63.0282 77.2867 69.0539 80.7572 75.2538 82.6232C77.0475 80.234 79.3463 80.3909 82.3592 78.8563C83.4564 65.8812 82.1676 59.7076 82.3592 45.7907C80.5828 45.2152 78.9632 44.4479 77.3436 43.698ZM33.875 57.0916C39.1344 56.8126 40.8759 62.2363 38.8906 66.7183C43.7495 69.247 48.8521 71.5316 53.9374 73.8337C54.3728 72.1246 53.7284 70.8864 53.9374 68.3925C48.051 67.8344 45.2646 62.5153 45.5781 57.0916C41.9209 54.7547 38.1592 52.5224 33.875 50.8133C34.1885 53.2898 33.8053 54.1443 33.875 57.0916ZM55.1913 66.2997C57.9952 66.0207 61.8788 61.5038 61.4608 57.5102C61.0777 53.8478 56.4975 50.2204 52.6835 51.2319C45.5432 53.1502 46.8146 67.1194 55.1913 66.2997ZM27.6055 65.8812C27.4487 63.8407 29.852 64.8522 30.1133 65.8812C29.6431 67.5031 28.842 67.5379 28.8594 68.811C31.0015 69.6133 34.8154 69.4563 35.5469 67.5554C35.3379 66.6136 33.1784 65.4975 34.7109 64.207C36.0171 63.9977 36.348 64.7999 37.2187 65.0441C38.2114 62.3584 37.2536 58.8007 33.875 59.1844C33.9621 60.3877 33.9272 61.469 32.6211 61.2771C31.8896 60.8934 31.6981 59.9691 31.7851 58.7658C28.1453 58.4693 25.5679 63.2129 27.6055 65.8812ZM37.6367 68.811C34.9199 71.9327 30.2874 71.9327 26.3516 70.0667C23.0427 73.5895 19.6641 77.0425 16.3204 80.5305C17.8877 83.7219 18.0967 86.7564 16.7383 90.1571C27.8493 94.0985 36.9401 100.063 48.0859 103.969C48.8173 100.237 51.7431 98.7026 55.6093 98.1096C54.9649 91.4651 55.2087 83.3906 54.3554 75.9264C48.7302 73.6244 44.0107 70.398 37.6367 68.811ZM57.6991 98.5282C59.8586 98.2143 60.8513 101.545 62.7147 101.458C64.1776 101.388 67.2079 97.7259 68.9842 96.4354C71.7359 94.4298 74.7313 93.1219 75.2538 90.9942C73.4077 89.32 73.9824 87.2447 73.9999 84.2974C67.7303 82.2047 62.5406 79.0307 56.4452 76.7635C56.9154 82.9546 56.8109 92.9649 57.6991 98.5282ZM2.52744 88.0644C4.32122 91.5698 9.80704 94.4473 13.8126 90.9942C13.2727 88.7445 9.66771 89.5642 9.63288 86.8087C9.71996 86.3379 10.1031 86.1635 10.4688 85.9716C12.6283 86.1809 12.9766 88.2039 15.0665 88.4829C19.5944 78.7342 -0.380913 74.2697 2.52744 88.0644ZM88.2107 84.2974C85.8597 78.1936 73.1117 80.5305 76.5076 89.32C78.3885 90.4885 80.3738 84.6113 82.3592 87.2273C82.0109 89.8083 78.7891 89.5119 78.1795 91.8313C82.7946 96.0517 89.482 91.1512 88.2107 84.2974ZM50.5937 102.714C48.5038 106.76 51.3948 110.666 53.9374 113.177C54.8778 112.846 57.2115 113.3 58.953 112.759C69.4719 107.161 55.0868 94.0287 50.5937 102.714Z" fill="white" fill-opacity="0.6"/>
</svg>