<svg width="20" height="17" viewBox="0 0 20 17" fill="none" xmlns="http://www.w3.org/2000/svg">
<path d="M18.6523 7.12903L4.61183 7.12903L9.33968 2.34271C9.86722 1.80858 9.86924 0.940549 9.34419 0.403884C8.81915 -0.13285 7.96581 -0.134838 7.43827 0.399223L0.396504 7.52826L0.395291 7.52956C-0.130901 8.06369 -0.132585 8.93453 0.395156 9.47044L0.396369 9.47174L7.43813 16.6008C7.96561 17.1348 8.81894 17.1329 9.34406 16.5961C9.8691 16.0594 9.86708 15.1914 9.33954 14.6573L4.61183 9.87097L18.6523 9.87097C19.3967 9.87097 20 9.25719 20 8.5C20 7.74282 19.3967 7.12903 18.6523 7.12903Z" fill="#C56FD8"/>
</svg>
