<svg width="605" height="354" viewBox="0 0 605 354" fill="none" xmlns="http://www.w3.org/2000/svg">
<path d="M258.38 0.782119C267.417 -1.10263 276.921 0.541812 285.238 4.39613C286.387 7.75098 287.834 10.9928 289.167 14.2911C291.21 13.4662 293.349 12.9026 295.533 12.6136C297.839 17.002 299.884 21.5222 301.659 26.1509C302.351 27.9649 302.318 29.9628 303.105 31.7486C304.787 35.7348 306.375 39.7588 308.062 43.745L307.256 44.6874C309.023 49.2862 310.96 53.819 312.821 58.3801C313.07 59.0919 313.244 59.8278 313.339 60.5758C311.827 61.08 310.3 61.5182 308.835 62.1543C310.328 66.8144 312.534 71.2294 314.206 75.8187C313.585 76.297 312.804 76.5165 312.025 76.4313C301.288 75.8589 290.54 77.3365 280.356 80.7851C272.398 83.5698 264.807 87.7257 258.681 93.5731C258.088 94.1385 257.15 93.7239 256.42 93.804C238.293 92.5412 219.936 99.8022 207.129 112.6C206.766 112.969 206.37 113.305 205.946 113.603C204.73 113.933 203.618 112.948 203.275 111.841L175.96 43.8392C175.178 42.0855 174.522 40.2777 174 38.43C182.099 29.4774 191.763 21.3777 203.355 17.4386C206.602 16.3616 209.973 15.7029 213.386 15.4785C212.675 13.8558 212.094 12.1794 211.648 10.465C215.031 9.07502 218.456 7.60491 222.07 6.94996C223.512 10.1258 224.619 13.4382 225.929 16.6659C226.546 18.3857 228.672 18.6024 230.057 19.493C237.063 10.3661 246.958 3.09094 258.38 0.782119ZM256.778 3.02026C246.44 5.71074 237.558 12.5618 231.188 21.0008C240.324 44.3858 249.376 67.8038 258.517 91.1748C264.522 85.9953 271.446 81.9884 278.928 79.3621C289.463 75.6868 300.606 74.0696 311.751 74.5984C302.389 51.6562 292.97 28.733 283.735 5.73901C275.362 1.96951 265.712 0.650186 256.759 3.02026H256.778ZM213.768 11.5016C215.181 15.7093 216.93 19.7804 218.569 23.8986C219.903 24.5394 221.312 25.3404 222.852 25.0389C224.393 24.7373 225.26 23.2719 226.028 22.0468C224.582 17.6035 222.537 13.3864 220.991 8.97607C218.569 9.78652 216.176 10.6582 213.768 11.5016ZM289.846 15.4455C290.1 17.2313 291.024 18.8192 291.65 20.4919C293.088 24.12 294.69 27.6916 295.976 31.381C298.035 35.9657 299.873 40.654 301.724 45.3282C303.397 44.7345 305.07 44.1455 306.757 43.6036C305.145 39.1792 303.124 34.9197 301.541 30.4905C299.797 30.3256 298.158 31.6166 296.508 31.2774C296.414 31.1219 296.235 30.8062 296.146 30.6413C297.639 29.6989 299.397 29.4162 301.093 29.0628C299.647 23.7902 297.159 18.871 294.741 13.9848C293.065 14.3047 291.425 14.7925 289.846 15.4408V15.4455ZM194.115 23.7525C187.349 27.8938 181.244 33.0272 176.002 38.9813C185.709 63.282 195.447 87.5686 205.216 111.841C209.14 107.941 213.502 104.508 218.216 101.612C229.803 94.5138 243.29 91.1453 256.853 91.9616C247.825 68.7415 238.788 45.5292 229.741 22.3248C229.449 21.1327 228.299 20.6474 227.357 20.0725C227.606 20.8448 227.807 21.6316 227.96 22.4285C227.018 24.3132 225.604 26.2734 223.427 26.8105C222.308 27.0049 221.158 26.9325 220.072 26.5993C218.985 26.2661 217.993 25.6814 217.175 24.8928C215.836 22.5369 215.167 19.8417 214.079 17.3538C206.973 17.5376 200.169 20.1809 194.119 23.7667L194.115 23.7525ZM302.153 46.2517C304.208 51.2605 306.276 56.2692 308.279 61.3062C309.607 60.802 310.946 60.3025 312.274 59.7889C310.258 54.8745 308.151 49.9977 306.29 45.0219C304.885 45.3391 303.502 45.7451 302.149 46.2376L302.153 46.2517Z" fill="black"/>
<path d="M245.376 17.4809C255.912 12.0999 268.186 8.88172 279.942 11.4827C283.038 19.2337 286.068 27.0083 289.192 34.7546C289.563 35.668 289.76 36.643 289.771 37.6289C278.024 37.4828 266.683 41.3748 256.095 46.1668C254.3 46.916 252.66 48.1693 250.658 48.306C247.298 39.8246 243.863 31.3432 240.461 22.8948C239.99 21.9996 239.938 20.7745 240.796 20.096C242.258 19.1153 243.788 18.2413 245.376 17.4809ZM241.305 21.2221C244.561 29.8449 248.128 38.3545 251.553 46.9113C253.193 46.1103 254.851 45.3092 256.491 44.5553C254.409 39.2922 251.666 34.2976 249.777 28.959C251.469 27.9734 253.217 27.0861 255.012 26.3015C257.264 31.5788 259.568 36.842 261.646 42.1947C263.154 41.8083 264.61 41.2523 266.07 40.7434C263.889 35.0892 261.613 29.4349 259.408 23.7807C261.184 23.0833 262.937 22.1834 264.878 22.0656C266.966 27.7198 269.43 33.2233 271.517 38.8775C272.837 38.6278 274.142 38.3121 275.456 38.0153C273.02 32.0265 270.622 26.0235 268.167 20.0442C267.781 19.0727 267.466 18.0743 267.225 17.0568C269.402 16.2623 271.657 15.7031 273.953 15.3888C276.781 22.4849 279.65 29.5857 282.378 36.7289C284.385 36.5263 286.393 36.3614 288.414 36.3284C285.394 28.7329 282.406 21.1232 279.377 13.5323C279.028 12.0952 277.299 12.3685 276.182 12.1188C263.931 10.8183 251.732 15.0213 241.314 21.2551L241.305 21.2221ZM268.342 17.6788C271.065 24.3744 273.722 31.0935 276.498 37.7702C278.109 37.4357 279.73 37.1483 281.351 36.8279C278.698 30.038 275.932 23.2906 273.341 16.4726C271.663 16.8401 270.005 17.2689 268.337 17.6694L268.342 17.6788ZM260.737 24.2943C262.782 29.5998 264.866 34.8928 266.989 40.1733C268.21 40.112 269.345 39.6408 270.533 39.3393C268.577 33.8405 266.245 28.502 264.073 23.0692C262.965 23.4838 261.853 23.8985 260.737 24.2943ZM250.922 29.4773C253.042 34.3541 255.346 39.1555 257.377 44.0841C258.536 43.6695 259.681 43.2077 260.831 42.746C258.725 37.7184 256.59 32.7097 254.507 27.668C253.306 28.2193 252.114 28.8365 250.922 29.4773Z" fill="black"/>
<path d="M196.071 37.5396C202.248 33.0586 209.5 29.5624 217.275 29.3362C219.117 29.3645 221.181 29.2561 222.698 30.5C220.63 31.1503 218.457 30.5 216.361 30.6791C209.764 31.0984 203.554 33.9774 198.144 37.6809C196.552 38.7128 195.233 40.23 193.334 40.7248C193.517 39.1557 194.973 38.4301 196.071 37.5396Z" fill="black"/>
<path d="M219.894 40.0321C222.41 39.9049 225.445 39.3677 227.372 41.4457C225.247 41.8556 223.169 40.8002 221.044 41.1818C214.688 42.0629 208.84 44.9843 203.28 48.047C201.673 48.8292 200.227 50.403 198.281 50.026C199.548 48.3816 201.509 47.59 203.247 46.5722C208.482 43.7121 213.976 41.0169 219.894 40.0321Z" fill="black"/>
<path d="M186.776 40.9981C188.43 40.1123 190.39 41.9405 189.9 43.6603C189.664 45.1351 187.775 46.0539 186.526 45.1445C185.023 44.2352 185.169 41.7284 186.776 40.9981Z" fill="black"/>
<path d="M275.984 48.1695C281.506 46.6523 287.33 45.7665 293.027 46.756C293.027 47.1847 292.975 47.6135 292.956 48.047C289.332 47.4789 285.639 47.5219 282.029 48.1742C275.065 49.3522 268.417 51.9155 262.079 54.9829C260.072 55.9253 258.215 57.1975 256.09 57.8854C256.09 57.5933 256.09 57.0137 256.062 56.7216C262.329 53.0698 269.02 50.1978 275.984 48.1695Z" fill="black"/>
<path d="M223.663 50.8128C226.006 50.3406 228.406 50.2246 230.783 50.4689C230.783 50.8929 230.75 51.3217 230.731 51.7505C228.135 51.6233 225.496 51.628 222.966 52.2971C216.369 53.9227 210.291 57.089 204.524 60.5994C203.916 61.0423 203.143 60.7643 202.464 60.7784C203.317 59.8983 204.293 59.1475 205.362 58.5497C211.097 55.2184 217.142 52.217 223.663 50.8128Z" fill="black"/>
<path d="M191.035 50.7798C192.382 49.8374 194.333 50.9635 194.418 52.5562C194.672 54.1441 192.938 55.6848 191.407 55.0158C189.654 54.3938 189.442 51.7033 191.035 50.7798Z" fill="black"/>
<path d="M281.539 54.163C285.723 53.1075 290.166 52.1369 294.454 53.2206C294.416 53.4986 294.351 54.0593 294.318 54.3373C291.279 53.9313 288.193 54.0412 285.191 54.6624C278.302 56.076 271.729 58.7241 265.316 61.5748C263.144 62.5171 261.122 63.8318 258.771 64.2888C258.969 63.2004 259.888 62.6538 260.793 62.2391C267.498 59.0351 274.363 56.109 281.539 54.163Z" fill="black"/>
<path d="M229.558 60.6182C232.169 59.7889 234.887 59.0868 237.658 59.379L237.86 60.3873C235.391 60.6182 232.904 60.8585 230.538 61.6784C223.089 64.0343 215.964 67.2525 208.92 70.5791C208.147 70.8961 207.351 71.1575 206.541 71.3613C206.583 70.0372 207.893 69.6414 208.845 69.1467C215.62 66.0086 222.457 62.8987 229.558 60.6182Z" fill="black"/>
<path d="M285.428 61.8104C288.703 60.901 292.105 59.9256 295.54 60.3968C295.888 60.4234 296.214 60.575 296.459 60.8235C296.705 61.072 296.851 61.4008 296.873 61.7491C291.04 61.0235 285.409 63.0779 280.014 65.0145C276.108 66.4704 272.273 68.1149 268.489 69.8536C266.543 70.7347 264.682 71.8703 262.566 72.299C262.722 71.0221 263.914 70.5745 264.894 70.0892C271.575 66.9511 278.346 63.9402 285.428 61.8104Z" fill="black"/>
<path d="M195.78 61.2354C197.42 60.4155 199.314 62.1778 198.857 63.8929C198.635 65.3771 196.751 66.3195 195.488 65.4148C193.957 64.496 194.126 61.9233 195.78 61.2354Z" fill="black"/>
<path d="M230.647 68.6991C234.143 67.7944 237.823 66.9792 241.423 67.7803C243.147 72.0775 244.943 76.3464 246.719 80.6248C247.067 81.5294 247.329 82.465 247.501 83.419C239.114 85.7749 230.689 88.0743 222.575 91.269C218.99 92.7061 215.352 94.2092 212.36 96.7206C211.861 97.2295 210.749 97.4698 210.551 96.5557C208.105 91.2972 205.716 86.0105 203.341 80.7191C205.829 79.1453 208.501 77.8919 211.121 76.5585C217.421 73.4675 223.876 70.598 230.647 68.6991ZM226.915 71.2152C219.334 73.8633 212.091 77.3878 205.024 81.1714C206.626 85.0446 208.473 88.8141 210.183 92.6401C212.162 89.7282 213.783 86.5524 216.063 83.8572C217.774 84.6488 219.498 85.4168 221.275 86.0482C222.363 83.9891 223.471 81.9441 224.573 79.8898C226.543 80.0735 228.277 81.0866 230.081 81.8122C230.925 79.3196 231.66 76.7894 232.579 74.325C231.488 74.8668 230.345 75.2947 229.167 75.602C229.511 73.6183 231.848 73.3733 233.3 72.5063L234.506 73.1706C234.92 74.391 235.279 75.6255 235.618 76.8695L234.237 76.9448C234.086 76.158 233.922 75.3758 233.766 74.5889C232.875 77.4679 231.905 80.3186 230.986 83.1881C228.95 83.0185 227.169 81.9489 225.299 81.2327C224.22 83.3106 223.075 85.3556 222 87.4335C219.965 87.245 218.179 86.1896 216.323 85.4451C214.669 88.0649 212.935 90.6281 211.309 93.2715C210.617 94.016 211.276 94.9207 211.446 95.7358C214.669 93.0548 218.589 91.448 222.448 89.9072C230.138 86.934 238.077 84.6629 246.007 82.486C244.175 77.9296 242.28 73.3968 240.4 68.8546C235.792 68.4211 231.259 69.7592 226.915 71.2152Z" fill="black"/>
<path d="M199.996 71.1399C201.636 70.2964 203.554 72.0822 203.097 73.7832C202.88 75.2816 200.972 76.2193 199.709 75.3005C198.201 74.3769 198.371 71.8372 199.996 71.1399Z" fill="black"/>
<path d="M489.004 10.8271C489.697 9.48895 491.002 8.64082 492.303 8C493.462 8.84814 494.659 10.3795 496.265 9.83291C497.872 9.28633 499.535 10.012 500.567 11.2465C506.165 18.1871 512.239 24.7413 517.935 31.5971C518.322 33.4441 518.958 36.0922 517.021 37.3032C515.608 38.467 514.317 39.7769 512.78 40.757C510.726 40.4743 508.413 39.9512 507.169 38.1277C502.782 32.9447 498.339 27.7899 493.919 22.6257C492.543 20.9765 490.719 19.5158 490.229 17.3248C489.966 16.3353 490.394 15.3694 490.701 14.4411C490.13 13.2255 489.405 12.0852 489 10.7894L489.004 10.8271ZM491.078 11.826C491.332 12.3255 491.591 12.8202 491.855 13.3244L494.451 10.9214L493.203 10.191C492.486 10.7313 491.778 11.2763 491.078 11.826ZM491.987 15.5154C491.172 16.7641 492.223 18.074 492.75 19.2001C495.342 17.1316 497.933 15.0867 500.501 12.9757C499.408 12.1794 498.263 10.7659 496.732 11.2512C494.687 12.0145 493.108 13.7061 491.968 15.5154H491.987ZM493.876 20.2273C498.871 26.0559 503.837 31.9081 508.865 37.7084C511.263 35.7011 513.713 33.7551 516.112 31.7479C511.145 25.9475 506.127 20.1943 501.137 14.4129C498.72 16.3542 496.289 18.2766 493.876 20.2273ZM510.128 38.6036L512.441 39.2256C513.902 38.0005 515.348 36.7566 516.804 35.5174C516.776 34.7352 516.748 33.953 516.738 33.1614C514.552 35.0367 512.342 36.8367 510.128 38.6319V38.6036Z" fill="black"/>
<path d="M115 59.5579C114.957 55.7884 120.654 53.2534 123.048 56.4669C125.809 60.6746 128.259 65.0802 130.912 69.3586C131.948 71.1727 133.433 72.9208 133.423 75.126C133.569 79.3054 128.217 82.4718 124.64 80.2808C122.817 79.263 121.973 77.251 120.909 75.5689C119.179 72.558 117.219 69.6743 115.612 66.6163C114.906 65.9708 116.621 64.9436 116.951 65.8153C118.76 68.3314 120.178 71.1114 121.837 73.7312C122.991 75.5123 123.835 77.6892 125.757 78.8012C127.807 79.9556 130.573 78.6128 131.369 76.5113C131.873 74.8904 131.19 73.2129 130.365 71.8371C127.852 67.7189 125.366 63.5929 122.906 59.459C122.251 58.4271 121.526 57.1926 120.216 56.9617C118.906 56.7308 117.257 57.6873 117.026 59.115C116.762 60.326 117.497 61.4238 118.058 62.4133C120.326 66.1231 122.569 69.8455 124.786 73.5805C125.286 74.4569 126.247 75.6066 127.369 74.994C128.311 74.5229 128.184 73.3307 127.722 72.5721C125.686 68.9346 123.297 65.5043 121.384 61.7961L122.798 61.2683C124.65 63.6243 125.941 66.3996 127.585 68.9157C128.391 70.3293 129.47 71.658 129.941 73.2506C130.464 75.4087 128.094 77.1898 126.106 76.9919C124.768 76.8411 123.99 75.5783 123.345 74.5558C120.948 70.535 118.529 66.5237 116.088 62.5217C115.546 61.5982 115.009 60.6228 115 59.5579Z" fill="black"/>
<path d="M233.894 139.35C235.232 138.545 236.25 136.523 238.05 137.103C239.541 137.789 240.808 138.882 241.706 140.255C241.532 142.14 239.958 143.657 239.982 145.641C240.651 146.682 241.395 147.818 241.15 149.128C240.834 152.082 238.323 154.009 236.603 156.195C230.006 164.512 223.41 172.89 216.813 181.206C215.4 182.021 213.656 182.196 212.073 182.62C210.485 183.213 209.326 181.757 208.176 180.928C206.494 179.43 204.487 178.275 203.036 176.532C202.894 174.92 203.201 173.314 203.399 171.721C203.497 170.209 204.675 169.12 205.538 167.985C211.55 160.483 217.548 152.971 223.532 145.448C225.078 143.294 226.718 140.953 229.309 140.005C230.812 139.473 232.645 140.665 233.894 139.388V139.35ZM234.643 141.245C235.934 142.262 237.249 143.247 238.549 144.246C238.78 143.624 239.02 143.002 239.256 142.361C238.365 141.518 237.447 140.698 236.523 139.892L234.638 141.226L234.643 141.245ZM227.099 144.138C230.501 147.04 233.913 149.924 237.286 152.859C238.2 151.262 239.722 149.373 238.78 147.46C237.296 144.868 234.591 143.219 231.915 142.093C229.983 141.216 228.334 142.88 227.099 144.138ZM206.193 170.487C209.491 173.248 212.789 175.971 216.088 178.775C222.647 170.609 229.064 162.33 235.604 154.15C232.386 151.352 229.158 148.567 225.874 145.848C219.344 154.078 212.789 162.291 206.212 170.487H206.193ZM205.387 172.48C205.312 173.596 205.231 174.713 205.175 175.835C207.215 177.418 209.213 179.048 211.244 180.645C212.271 180.414 213.293 180.174 214.321 179.939C211.302 177.473 208.315 174.98 205.359 172.461L205.387 172.48Z" fill="black"/>
<path d="M476.933 62.7905C476.966 62.1921 477.009 61.5984 477.051 61C477.553 60.9982 478.05 61.1056 478.506 61.3147C478.962 61.5238 479.368 61.8296 479.694 62.211C481.461 64.124 483.648 65.5517 485.735 67.0878C487.987 68.9348 490.324 70.6735 492.544 72.5677C493.137 72.9823 492.987 73.7833 493.151 74.4053C490.673 74.9802 489.198 72.6242 487.408 71.4133C483.968 68.4448 479.977 66.1831 476.933 62.7905Z" fill="black"/>
<path d="M474.162 78.8109C473.988 77.6235 475.444 77.3643 476.311 77.6471C479.694 78.3868 482.869 79.8616 486.253 80.6155C486.493 81.016 486.724 81.4213 486.983 81.8265C486.474 82.1846 486.041 82.9244 485.348 82.7265C482.083 82.161 479.1 80.5778 475.835 79.9983C475.25 79.7533 473.865 79.7815 474.162 78.8109Z" fill="black"/>
<path d="M477.643 112.214C479.25 111.742 480.885 110.442 482.619 111.158C482.619 111.445 482.591 112.02 482.586 112.308C481.172 113.311 479.419 113.721 477.817 114.367C472.778 115.948 467.852 117.872 463.074 120.125L462 119.385C462.022 119.039 462.05 118.695 462.084 118.353C467.032 115.757 472.37 114.028 477.643 112.214Z" fill="black"/>
<path d="M470.435 121.689C474.332 120.53 477.856 118.24 481.88 117.533C481.696 118.174 482.069 119.239 481.282 119.555C478.756 120.737 476.099 121.67 473.559 122.787C472.572 123.248 471.49 123.466 470.402 123.423C470.411 122.975 470.426 122.108 470.435 121.689Z" fill="black"/>
<path d="M509.749 68.4739C511.299 67.6493 513.047 68.1158 514.725 68.2854C525.265 69.3833 535.829 70.3586 546.323 71.9088C548.377 72.2811 550.653 72.4696 552.307 73.8925C552.884 74.4009 553.303 75.0652 553.513 75.8056C553.723 76.5461 553.715 77.3314 553.489 78.0673C550.191 88.7067 547.114 99.4121 543.943 110.108C541.017 120.121 538.034 130.115 535.33 140.189C534.745 142.3 533.143 144.59 530.731 144.59C518.48 142.578 506.173 140.947 493.978 138.587C492.291 138.21 490.378 137.932 489.201 136.532C487.726 134.911 487.787 132.475 488.437 130.51C494.45 111.423 500.372 92.3018 506.564 73.2706C507.148 71.4424 507.874 69.3739 509.744 68.4927L509.749 68.4739ZM510.649 70.6696C509.57 71.3246 509.283 72.6533 508.863 73.7465C502.7 92.6411 496.843 111.63 490.85 130.576C490.378 132.023 489.851 133.875 491.081 135.119C492.494 136.184 494.379 136.212 496.066 136.622C507.596 138.77 519.225 140.349 530.792 142.243C531.933 142.121 532.536 140.971 532.913 140.019C538.755 119.112 544.961 98.3001 551.204 77.5066C551.33 77.1714 551.346 76.8046 551.25 76.4597C551.153 76.1147 550.949 75.8096 550.667 75.5888C549.395 74.6841 547.774 74.5758 546.29 74.2789C535.174 72.6015 523.969 71.645 512.802 70.4199C512.081 70.3539 511.28 70.2126 510.654 70.6508L510.649 70.6696Z" fill="black"/>
<path d="M512.645 74.9715C514.058 74.7124 515.538 75.0705 516.966 75.259C524.571 76.3568 532.185 77.4029 539.799 78.4819C541.948 78.807 544.167 78.9012 546.208 79.7305C546.047 81.8179 545.265 83.7828 544.681 85.7665C540.723 98.677 536.76 111.588 532.793 124.498C532.006 127.019 531.304 129.568 530.362 132.037C527.916 132.169 525.555 131.467 523.167 131.095C514.379 129.46 505.563 127.942 496.78 126.232C496.615 125.973 496.281 125.459 496.111 125.2C501.106 109.331 506.406 93.5552 511.476 77.7091C511.719 76.7481 512.11 75.8308 512.636 74.9904L512.645 74.9715ZM514.106 77.2474C508.998 92.9222 503.898 108.603 498.806 124.291C508.805 126.067 518.78 127.985 528.788 129.714C533.603 113.562 538.772 97.5132 543.512 81.342C533.712 80.0274 523.92 78.5667 514.115 77.2285L514.106 77.2474Z" fill="black"/>
<path d="M513.216 96.4247C513.556 93.6541 516.581 91.7834 519.219 92.4572C520.02 92.5609 519.964 93.3996 520.039 94.0357C520.182 95.7609 520.172 97.4953 520.011 99.2188C519.144 99.902 518.126 100.359 517.287 101.08C517.625 104.136 518.777 107.046 520.623 109.505C521.649 109.223 522.693 109.012 523.747 108.873C525.193 110.154 526.499 111.583 527.644 113.138C528.162 113.656 527.894 114.4 527.446 114.862C525.896 116.54 523.149 117.218 521.175 115.871C518.465 114.141 516.887 111.159 515.52 108.365C513.909 104.637 512.609 100.519 513.216 96.4247Z" fill="black"/>
<path d="M509.229 131.472C510.808 130.459 513.126 131.792 513.032 133.667C513.107 135.717 510.445 136.999 508.852 135.764C507.274 134.784 507.594 132.235 509.229 131.472Z" fill="black"/>
<path d="M570.741 295.754C572.791 292.456 578.384 294.199 578.978 297.757C579.256 299.01 578.672 300.216 578.172 301.333C575.958 306.021 573.799 310.757 571.632 315.468C571.067 316.708 570.355 317.966 569.172 318.72C565.643 321.231 559.749 318.178 560.008 313.772C560.069 311.765 561.214 310.045 561.987 308.259C563.584 305.008 564.88 301.601 566.699 298.459C567.17 298.878 568.136 299.283 567.641 300.08C566.416 303.057 564.946 305.936 563.622 308.877C562.807 310.719 561.572 312.613 561.968 314.729C562.383 316.986 565.078 318.352 567.198 317.65C568.734 317.056 569.653 315.567 570.317 314.135C572.287 309.835 574.275 305.542 576.283 301.257C576.702 300.315 577.183 299.283 577.065 298.209C576.867 296.432 574.596 295.32 573.064 296.211C571.962 296.875 571.476 298.133 570.944 299.236C569.196 303.123 567.363 306.973 565.582 310.851C565.191 311.68 564.819 313.098 565.945 313.522C566.807 314.173 567.792 313.32 568.15 312.519C569.323 310.191 570.327 307.779 571.448 305.427C572.127 304.061 572.57 302.52 573.635 301.389C574.968 301.389 574.737 302.765 574.247 303.566C572.57 307.058 571.062 310.634 569.304 314.093C567.924 316.877 563.24 315.304 563.292 312.401C563.495 310.681 564.489 309.197 565.153 307.633C567.061 303.684 568.715 299.632 570.741 295.754Z" fill="black"/>
<path d="M114.247 278.147C119.143 276.022 124.529 275.616 129.796 275.126C131.877 274.846 133.993 275.033 135.993 275.673C138.08 276.37 139.762 277.873 141.312 279.362C142.08 280.093 142.156 281.247 142.528 282.19C144.549 280.743 147.023 279.424 149.596 280.064C152.922 280.767 155.099 283.697 156.72 286.463C160.061 292.301 162.685 298.714 163.354 305.443C163.67 309.066 163.142 313.128 160.527 315.851C159.26 317.265 157.493 318.028 155.735 318.636C156.715 321.548 157.832 324.413 158.807 327.329C153.624 331.985 147.914 336.235 141.298 338.638C133.59 341.521 125.019 342.355 116.971 340.475C115.769 340.344 115.128 339.33 114.832 338.27C109.587 323.239 104.202 308.242 98.9996 293.206C99.5556 289.187 102.34 285.841 105.469 283.433C108.206 281.349 111.168 279.578 114.299 278.151L114.247 278.147ZM112.24 281.784C107.783 284.381 102.878 287.495 101.403 292.782C114.883 293.206 127.883 287.806 138.834 280.291C137.698 279.221 136.454 278.18 134.918 277.77C132.157 276.983 129.264 277.562 126.465 277.77C121.537 278.217 116.537 279.183 112.235 281.765L112.24 281.784ZM102.105 295.142C107.198 309.471 112.188 323.833 117.291 338.157C124.037 339.664 131.059 339.397 137.67 337.38C144.587 335.363 150.774 331.391 156.046 326.542C150.793 311.757 145.412 297.013 140.134 282.251C128.948 289.846 115.807 295.303 102.095 295.147L102.105 295.142ZM143.414 284.593C144.158 286.722 144.945 288.833 145.685 290.968C146.604 290.826 147.631 290.289 148.512 290.864C150.001 291.745 150.821 293.347 151.735 294.751C153.342 297.475 155.033 300.321 155.354 303.53C155.509 305.843 153.794 307.638 152.154 309.014C153.097 311.436 153.973 313.886 154.802 316.355C158.275 315.804 160.735 312.614 160.961 309.198C161.512 302.46 158.925 295.934 155.985 290.007C154.425 287.227 152.941 283.947 149.86 282.576C147.504 281.525 145.119 283.047 143.418 284.593H143.414ZM147.155 295.053C148.569 298.898 149.916 302.78 151.372 306.621C152.15 305.749 153.172 304.816 153.012 303.525C152.772 301.527 151.824 299.699 150.892 297.946C149.798 296.061 148.809 294.021 147.051 292.65C146.834 293.442 146.868 294.282 147.15 295.053H147.155Z" fill="black"/>
<path d="M136.602 303.303C134.839 301.211 136.701 297.908 139.207 297.583C139.905 297.536 140.606 297.536 141.304 297.583C141.351 298.054 141.398 298.577 141.45 299.077C140.432 299.336 139.264 299.308 138.406 299.982C137.652 300.523 137.935 301.551 137.874 302.338C139.688 302.653 142.034 302.507 142.948 304.481C144.043 306.754 144.266 309.349 143.575 311.775C142.868 313.486 140.819 313.297 139.301 313.297C139.344 312.699 139.386 312.11 139.429 311.526C140.225 311.483 141.017 311.436 141.813 311.398C142.331 309.283 142.326 306.776 141.04 304.938C139.749 304.006 137.549 304.858 136.602 303.303Z" fill="black"/>
<path d="M129.5 307.558C127.206 304.604 129.915 299.718 133.694 300.255C133.722 300.613 133.783 301.329 133.812 301.668C132.728 302.139 131.272 302.375 130.806 303.628C130.264 304.571 130.655 305.659 130.89 306.639C132.068 306.818 133.312 306.8 134.424 307.266C136.46 308.364 137.006 310.899 136.922 313.029C136.601 314.518 135.362 315.677 134.094 316.398C132.851 316.906 131.715 316.171 131.051 315.144C132.606 314.753 134.259 314.442 135.249 313.043C135.032 311.907 135.004 310.687 134.448 309.669C133.341 307.883 130.528 309.443 129.5 307.558Z" fill="black"/>
<path d="M121.414 304.18C122.63 303.643 124.345 303.558 125.212 304.741C126.437 306.625 126.833 308.901 127.535 311.012C128.311 313.379 128.461 315.907 127.968 318.349C127.431 321.232 122.658 321.176 121.843 318.528C120.934 315.988 120.481 313.316 119.765 310.72C119.294 308.496 119.11 305.457 121.414 304.18ZM121.367 307.318C121.226 311.111 122.837 314.687 123.596 318.353C124.472 318.504 125.82 319.192 126.169 317.948C127.059 313.637 125.226 309.42 123.667 305.495C122.818 305.942 121.353 306.065 121.367 307.304V307.318Z" fill="black"/>
<path d="M109.143 308.623C110.901 307.563 113.257 306.361 115.142 307.723C116.409 309.014 116.084 310.989 115.83 312.605C118.068 313.547 118.874 315.988 119.364 318.169C119.943 320.342 118.93 322.665 117.29 324.106C116.598 324.813 115.509 324.479 114.628 324.578C113.106 319.149 109.864 314.277 109.125 308.618L109.143 308.623ZM111.071 309.462C111.4 310.777 111.787 312.082 112.216 313.373C112.859 312.923 113.451 312.405 113.983 311.827C114.638 310.927 114.063 309.815 113.935 308.849C112.993 309.028 112.018 309.236 111.071 309.462ZM112.871 314.975C113.912 317.642 115.175 320.219 116.061 322.943C116.753 321.901 117.719 320.86 117.686 319.526C117.639 317.778 116.781 316.228 116.108 314.645C115.026 314.426 113.903 314.542 112.889 314.979L112.871 314.975Z" fill="black"/>
<path d="M447 314.94C447.942 313.475 449.195 311.906 450.882 311.359C452.546 311.878 453.874 313.211 455.594 313.748C456.909 313.169 458.341 312.434 459.835 312.971C462.77 313.843 464.368 316.689 466.474 318.691C473.937 326.023 481.283 333.482 488.855 340.705C489.217 342.487 489.427 344.297 489.482 346.114C489.633 347.382 488.398 348.107 487.673 348.941C485.924 350.524 484.459 352.438 482.532 353.818C480.958 353.818 479.431 353.347 477.914 352.984C476.157 352.654 475.045 351.151 473.838 349.983C467.17 343.301 460.494 336.628 453.813 329.962C451.928 328.247 449.855 326.442 449.177 323.874C448.705 322.607 449.294 321.334 449.648 320.133C448.884 318.361 446.877 316.967 447.037 314.95L447 314.94ZM452.437 314.201C451.514 314.881 450.648 315.634 449.846 316.453C450.199 317.146 450.552 317.838 450.906 318.54C452.071 317.315 453.229 316.089 454.378 314.86C453.746 314.6 453.097 314.38 452.437 314.201ZM457.22 315.237C454.605 316.58 452.682 319.007 451.353 321.579C450.505 323.346 451.942 325.024 452.984 326.334C456.145 323.21 459.58 320.354 462.629 317.127C461.215 315.84 459.203 314.229 457.22 315.242V315.237ZM454.529 327.724C461.701 334.886 468.866 342.056 476.025 349.233C476.326 349.582 476.967 350.03 477.368 349.516C480.346 346.769 483.22 343.904 486.136 341.087C478.701 333.761 471.291 326.412 463.906 319.04C460.706 321.867 457.634 324.812 454.529 327.724ZM478.904 351.099C479.918 351.316 480.939 351.522 481.966 351.717C483.804 349.87 485.656 348.037 487.484 346.18C487.376 345.162 487.277 344.145 487.183 343.136C484.28 345.637 481.508 348.28 478.866 351.066L478.904 351.099Z" fill="black"/>
<path d="M220.228 229.6C220.228 228.558 220.228 227.503 220.186 226.49L215.672 226.438C198.361 226.246 181.148 226.195 164.035 226.283C152.613 195.436 141.234 164.573 129.897 133.694C129.581 132.375 128.356 131.852 127.098 132.036C87.9895 132.087 48.881 131.974 9.7394 132.092C9.55093 132.365 9.1834 132.917 8.99963 133.19C12.7691 143.778 16.6611 154.332 20.5296 164.892C20.7746 165.627 21.0668 166.465 20.6144 167.196C18.4422 171.316 15.8764 175.217 12.9529 178.843C12.3121 179.578 12.2273 180.563 12.0765 181.492C16.991 182.189 21.9714 182.227 26.9236 182.575C32.3768 197.421 37.7908 212.28 43.1654 227.154C43.4199 227.724 43.7356 228.832 44.1078 229.666C45.5214 233.379 46.6899 237.205 48.2496 240.842C48.6265 241.902 49.8233 241.785 50.7422 241.841C89.3795 241.841 128.017 241.841 166.654 241.841C167.813 241.992 168.746 241.313 169.604 240.649C186.477 240.456 203.36 240.753 220.233 240.503C220.271 236.767 220.266 233.421 220.228 229.6ZM15.3984 179.555C17.4358 176.922 19.3099 174.167 21.0102 171.304C21.783 169.933 22.9798 168.826 23.5405 167.342C24.4357 164.246 25.9954 161.376 26.6786 158.22C27.4677 155.11 27.6848 151.884 27.3194 148.697C37.5348 148.815 47.7548 148.522 57.9466 148.848C58.1115 157.527 57.6686 166.451 54.5305 174.636C53.5827 177.144 52.1623 179.448 50.3464 181.421C38.675 181.001 27.0273 180.299 15.3984 179.555ZM50.1673 239.471C43.2628 220.577 36.3851 201.676 29.534 182.768C36.1306 183.084 42.7555 183.485 49.371 183.711C50.3935 183.744 51.5479 183.621 52.2547 182.768C54.6106 180.332 56.1137 177.208 57.2493 174.047C59.379 167.898 60.0764 161.358 60.2884 154.888C60.3214 152.137 60.4392 149.356 59.9067 146.642C53.2536 146.171 46.5769 146.539 39.9143 146.449C35.0092 146.52 30.0994 146.313 25.1991 146.558L24.6572 147.707C25.8587 152.857 24.6996 158.267 22.5604 163.007C22.2698 162.623 22.0336 162.202 21.8583 161.753C18.56 152.627 15.2617 143.481 11.8645 134.382C50.4736 134.382 89.0795 134.382 127.682 134.382C140.627 169.391 153.541 204.416 166.423 239.457L50.1673 239.471ZM218.245 238.373C204.806 238.326 191.387 238.373 177.935 238.373C174.763 238.373 171.588 238.43 168.421 238.222C167.246 235.037 166.072 231.852 164.897 228.667C182.679 228.708 200.462 228.761 218.245 228.827C218.26 232 218.254 235.182 218.226 238.373H218.245Z" fill="black"/>
<path d="M30.5739 157.315C31.7236 156.467 32.7554 155.232 34.2444 155.025C35.7334 154.818 36.6003 156.438 37.9856 156.622C39.0929 156.49 40.1154 155.967 41.2086 155.765C42.0661 156.223 42.8759 156.766 43.6257 157.386C45.1383 156.622 46.844 156.222 48.4884 156.834L50.2554 156.104C51.4156 156.786 52.6768 157.279 53.9919 157.565C53.825 158.018 53.7327 158.495 53.7186 158.978C52.4882 158.996 51.2844 158.62 50.2836 157.904C49.4638 158.257 48.6109 158.653 47.7015 158.375C46.288 157.904 44.9922 158.691 43.6352 158.936C42.5797 158.851 41.7975 157.993 40.9353 157.48C39.7149 157.89 38.4238 158.394 37.1234 158.073C36.1056 157.682 35.2716 156.928 34.235 156.585C33.3058 157.148 32.4387 157.808 31.6482 158.554L30.5833 158.606C30.5833 158.257 30.5786 157.631 30.5739 157.315Z" fill="black"/>
<path d="M28.8082 164.274C30.0899 163.629 31.3668 162.861 32.818 162.696C33.9866 162.545 35.0609 163.115 36.1635 163.403C37.8692 163.982 39.6361 163.332 41.3465 163.233C41.9402 163.544 42.3219 164.128 42.7884 164.599C44.2019 164.218 45.6862 163.539 47.1845 163.987C48.3651 164.286 49.61 164.205 50.742 163.756L52.4995 164.109C52.4618 164.519 52.4289 164.934 52.3959 165.353C50.7373 165.386 49.0976 166.074 47.4484 165.669C45.526 165.014 43.6789 166.348 41.747 166.051L40.8989 164.896C38.7833 165.221 36.5546 165.4 34.5284 164.562C32.573 163.648 30.7589 165.278 28.8742 165.711C28.8648 165.226 28.8365 164.75 28.8082 164.274Z" fill="black"/>
<path d="M24.9821 170.31C26.8291 169.368 28.8081 168.595 30.9143 168.736L32.2431 170.315C34.0194 169.811 36.1633 168.713 37.7984 170.141C39.1789 171.554 40.9883 170.178 42.5998 170.075C44.1311 171.441 46.096 169.783 47.8252 170.381C48.9608 170.584 48.3577 171.507 48.1975 172.266L46.4965 171.747C45.5541 172.002 44.6117 172.219 43.6694 172.487C43.0804 172.219 42.5008 171.955 41.9165 171.7C40.4464 172.365 38.5664 173.043 37.2565 171.7C35.8429 170.31 34.0053 171.7 32.3891 171.776C31.3101 171.851 30.6881 170.791 29.939 170.211C28.3181 170.621 26.7631 171.224 25.1894 171.78C25.1093 171.281 25.0433 170.796 24.9821 170.31Z" fill="black"/>
<path d="M22.7828 175.474C24.2388 175.107 25.6854 174.593 27.2026 174.532C28.4088 174.603 29.5067 175.163 30.6423 175.536C31.9522 176.139 33.3186 175.333 34.6568 175.276C35.9714 175.05 37.1729 175.809 38.4593 175.903C39.5713 175.837 40.6597 175.569 41.7576 175.432C42.7848 176.398 44.1135 176.374 45.348 175.903C45.348 176.52 45.348 177.142 45.348 177.788C44.1931 177.972 43.0104 177.864 41.9083 177.472C40.8058 177.001 39.6137 177.472 38.4734 177.472C37.3331 177.562 36.2918 177.001 35.1751 176.836C33.9029 176.911 32.6966 177.449 31.4056 177.435C30.4632 177.331 29.6103 176.855 28.7151 176.568C26.7926 175.748 24.8089 176.855 22.8441 176.86C22.8347 176.355 22.8064 175.913 22.7828 175.474Z" fill="black"/>
<path d="M81.5012 178.132C87.6267 177.189 93.6673 181.185 96.3059 186.575C97.9598 189.902 98.2425 194.218 95.9761 197.333C94.0018 200.117 90.3219 201.234 87.0471 200.739C80.05 199.764 73.901 193.2 74.325 185.968C74.4497 184.039 75.229 182.212 76.534 180.787C77.839 179.362 79.5914 178.425 81.5012 178.132Z" fill="black"/>
<path d="M170.792 230.537C173.756 230.434 176.72 230.49 179.683 230.49C180.06 232.695 180.06 234.948 179.683 237.153C176.8 237.153 173.919 237.153 171.042 237.153C170.767 234.965 170.682 232.758 170.787 230.556L170.792 230.537ZM171.942 231.499C171.942 233.038 171.942 234.583 171.942 236.135C174.222 236.135 176.508 236.135 178.788 236.135C178.788 234.586 178.788 233.041 178.788 231.499H171.942Z" fill="black"/>
<path d="M586.591 223.797C586.591 211.012 586.591 198.23 586.591 185.452C586.591 183.986 586.534 182.521 586.459 181.065C584.103 179.652 581.478 178.822 578.854 178.078C578.976 177.47 579.108 176.872 579.245 176.273C580.856 174.916 582.953 173.606 583.288 171.345C584.013 167.575 584.621 163.749 585.384 159.97C585.629 158.406 586.101 156.705 585.384 155.197C584.913 154.061 583.613 153.783 582.614 153.312C582.18 151.95 581.949 150.231 580.493 149.543C578.642 148.534 576.512 149.321 574.641 149.863C573.567 154.815 572.785 159.824 571.814 164.8C571.103 169.13 570.094 173.418 569.6 177.781C566.937 168.729 564.633 159.574 562.098 150.49C561.989 150.06 561.795 149.656 561.526 149.302C561.258 148.949 560.921 148.654 560.536 148.434C560.15 148.214 559.724 148.074 559.284 148.022C558.843 147.971 558.396 148.009 557.971 148.134C556.261 148.642 554.7 149.555 553.419 150.796C553.174 151.691 553.471 152.629 553.626 153.524C554.781 158.613 555.869 163.716 556.925 168.828C555.704 165.61 554.427 162.411 552.948 159.306C552.354 158.052 551.416 156.676 549.885 156.634C547.788 156.634 545.993 157.883 544.231 158.896C545.098 165.492 547.435 171.773 548.971 178.214C545.786 178.879 542.916 180.434 540.113 182.022C539.901 195.955 540.113 209.892 540 223.825C540 224.433 540 225.338 540 226.181C540.117 229.871 539.929 233.565 540.08 237.259C540.078 237.846 540.245 238.421 540.562 238.915C540.879 239.409 541.331 239.801 541.865 240.044C555.059 247.06 571.739 247.38 584.923 240.185C586.091 239.507 586.562 238.088 586.548 236.802C586.609 233.292 586.506 229.777 586.576 226.271C586.6 225.559 586.586 224.697 586.591 223.797ZM583.952 182.215C581.945 182.988 579.89 183.628 577.826 184.232C578.034 182.95 578.269 181.678 578.5 180.405C580.333 180.947 582.147 181.56 583.952 182.215ZM582.364 155.423C582.708 155.993 583.646 156.318 583.448 157.129C582.849 161.369 581.888 165.572 581.219 169.813C581.057 170.958 580.582 172.035 579.848 172.928C580.635 167.066 581.657 161.275 582.364 155.423ZM576.611 151.654C577.855 151.347 580.098 151.032 580.036 152.935C580.036 156.705 579.273 160.474 578.792 164.244C577.44 163.591 575.928 163.345 574.439 163.537C575.161 159.557 575.885 155.588 576.611 151.63V151.654ZM574.146 165.238C574.884 165.033 575.658 164.994 576.412 165.123C577.167 165.253 577.883 165.548 578.51 165.987C577.567 172.273 576.446 178.525 575.362 184.787C573.713 185.127 572.064 185.381 570.391 185.65C571.663 178.846 572.846 172.009 574.146 165.214V165.238ZM568.219 181.904C568.61 183.195 568.219 184.524 568.012 185.81C566.362 185.928 564.713 186.022 563.055 186.036C562.197 182.017 561.321 177.998 560.458 173.978C562.1 173.188 563.91 172.811 565.731 172.881C566.603 175.854 567.413 178.846 568.219 181.88V181.904ZM555.699 151.899C556.833 151.134 558.086 150.564 559.408 150.212C561.764 157.138 563.342 164.305 565.331 171.34C563.538 171.319 561.762 171.674 560.115 172.381C558.644 165.54 557.173 158.704 555.699 151.875V151.899ZM546.69 159.998C547.92 159.565 550.125 158.17 550.743 160.097C553.895 166.788 556.326 173.79 559.097 180.641C559.854 182.3 560.372 184.058 560.638 185.862C558.427 185.742 556.224 185.496 554.041 185.127C552.288 181.272 551.214 177.159 550.059 173.102C548.877 168.748 547.628 164.409 546.69 159.998ZM549.673 180.462C550.22 181.805 550.714 183.171 551.19 184.543C548.798 184.008 546.438 183.337 544.122 182.535C545.867 181.59 547.735 180.892 549.673 180.462ZM574.109 241.985C573.27 242.117 572.436 242.257 571.607 242.404C572.252 238.767 573.492 235.266 574.066 231.624C574.212 235.077 574.142 238.531 574.109 241.985ZM576.064 241.391C575.904 235.916 576.064 230.431 575.994 224.956C576.144 224.014 574.99 223.858 574.344 223.722C573.477 227.246 572.398 230.733 571.866 234.333C571.329 227.039 572.135 219.688 571.423 212.418C570.952 212.46 570.434 212.512 569.948 212.569C569.823 222.621 569.823 232.681 569.948 242.748C560.939 243.953 551.777 242.425 543.646 238.362C543.081 238.008 542.162 237.697 542.313 236.858C542.291 222.704 542.291 208.546 542.313 194.386C542.351 191.031 542.214 187.671 542.421 184.321C552.369 188.147 563.16 189.235 573.671 187.473C573.671 193.231 573.671 198.994 573.671 204.756C573.529 205.699 574.029 206.17 575.028 206.019C575.574 205.411 575.499 204.606 575.499 203.833C575.442 198.282 575.499 192.732 575.466 187.181L577.61 186.682C577.61 194.434 577.61 202.185 577.61 209.935C577.704 213.506 577.374 217.102 577.864 220.654C578.335 220.607 578.844 220.565 579.344 220.527C579.504 209.087 579.405 197.646 579.396 186.21C581.054 185.692 582.71 185.161 584.362 184.618C584.362 202.377 584.334 220.141 584.362 237.904C581.708 239.319 578.931 240.488 576.064 241.396V241.391Z" fill="black"/>
<path fill-rule="evenodd" clip-rule="evenodd" d="M469 242H-0.000366211V239H469V242Z" fill="black"/>
<path fill-rule="evenodd" clip-rule="evenodd" d="M545 242H514V239H545V242Z" fill="black"/>
<path fill-rule="evenodd" clip-rule="evenodd" d="M605 242H581V239H605V242Z" fill="black"/>
<path d="M488.856 223.445C492.56 221.937 497.135 224.524 497.767 228.463C498.563 232.007 495.948 235.795 492.372 236.356C490.717 236.658 489.009 236.329 487.585 235.432C486.162 234.536 485.127 233.138 484.685 231.515C484.243 229.892 484.426 228.162 485.199 226.667C485.971 225.173 487.277 224.023 488.856 223.445Z" fill="black"/>
<path d="M475.197 229.132C475.915 228.879 476.693 228.85 477.428 229.047C478.164 229.245 478.822 229.66 479.316 230.239C479.811 230.818 480.119 231.533 480.199 232.29C480.279 233.047 480.128 233.811 479.766 234.48C479.404 235.15 478.848 235.695 478.17 236.042C477.493 236.389 476.726 236.523 475.971 236.426C475.215 236.329 474.507 236.006 473.939 235.499C473.372 234.992 472.971 234.325 472.789 233.585C472.572 232.677 472.697 231.72 473.142 230.898C473.586 230.077 474.318 229.448 475.197 229.132Z" fill="black"/>
<path d="M504.462 229.203C507.161 227.926 510.441 230.753 509.56 233.613C509.013 236.304 505.286 237.411 503.354 235.47C501.319 233.76 501.974 230.112 504.462 229.203Z" fill="black"/>
<path d="M523.318 220.674C523.732 210.582 524.585 200.479 526.583 190.57C527.719 185.175 529.132 179.775 531.705 174.87C532.221 173.838 532.486 172.698 532.478 171.544C529.457 171.544 526.776 173.08 524.156 174.371C521.156 175.992 518.337 177.926 515.746 180.143C514.12 177.207 512.622 174.201 510.907 171.322C510.497 170.262 508.89 170.286 508.395 171.261C505.488 175.323 502.741 179.483 499.876 183.592C497.096 177.08 494.528 170.484 491.682 164H489.962C487.277 170.304 484.864 176.722 482.254 183.06C479.549 179.648 476.821 176.256 474.121 172.839C473.565 172.288 473.094 171.379 472.194 171.487C471.251 171.351 470.955 172.387 470.521 172.995C469.056 175.657 467.652 178.362 466.134 181.005C460.334 176.967 453.596 174.409 446.679 173.094C445.548 173.504 446.095 174.668 446.434 175.45C450.397 183.371 454.308 191.334 457.135 199.707C458.548 203.622 458.496 207.825 458.826 211.92C459.048 214.832 459.646 223.026 459.646 223.026C459.901 226.564 460.197 230.094 460.329 233.642C460.424 235.017 460.438 236.643 461.611 237.6C463.694 239.352 466.323 240.266 468.858 241.152C474.837 243.022 481.016 244.18 487.267 244.601C497.27 245.252 507.561 244.418 516.952 240.686C518.7 239.955 520.505 239.272 522.069 238.193C523.153 237.529 522.875 236.101 522.983 235.036C522.95 231.031 523.139 227.026 523.242 223.026C523.228 222.55 523.275 221.504 523.318 220.674ZM509.573 173.706C511.062 176.411 512.542 179.12 514.012 181.834C510.021 185.755 507.085 190.58 504.847 195.673C503.627 192.464 502.02 189.388 501.026 186.113C503.782 181.924 506.685 177.815 509.573 173.706ZM472.349 174.545C475.355 178.159 478.418 181.764 481.132 185.595C480.19 188.916 478.555 192.022 477.424 195.296C475.539 190.245 472.114 185.929 468.052 182.452C469.475 179.808 470.936 177.193 472.345 174.545H472.349ZM522.361 202.501C520.995 213.734 520.858 225.066 520.533 236.356C513.187 240.54 504.574 242.066 496.21 242.425C488.15 242.726 480.089 241.827 472.293 239.758C469.272 238.867 466.167 237.972 463.543 236.181C462.803 235.767 462.732 234.857 462.69 234.117C462.294 226.107 461.564 218.097 461.031 210.087C460.725 206.741 460.782 203.321 459.684 200.107C457.069 191.791 453.224 183.936 449.393 176.133C456.517 177.848 463.43 181.104 468.712 186.264C472.541 189.961 475.204 194.698 476.373 199.89C476.915 199.919 477.466 199.956 478.018 200.003C482.296 189.35 486.532 178.687 490.815 168.038C495.405 178.626 499.617 189.373 504.15 199.985C504.701 199.985 505.257 199.985 505.822 200.027C507.052 196.757 508.249 193.43 510.139 190.49C514.521 183.243 521.475 177.839 529.198 174.522C525.136 183.309 523.525 192.964 522.356 202.501H522.361Z" fill="black"/>
</svg>
