<svg width="457" height="459" viewBox="0 0 457 459" fill="none" xmlns="http://www.w3.org/2000/svg">
<path d="M339.086 7.09606C346.866 3.5973 355.142 1.02516 363.669 0.258314C372.611 -0.596403 381.766 0.669696 390.089 4.06061C404.955 10.1035 416.793 22.0975 424.677 35.8649C426.319 37.2548 428.024 38.6727 428.811 40.7615C430.916 39.2678 433.296 37.778 435.988 37.9138C439.268 38.2733 441.932 40.47 444.08 42.8185C445.374 44.2563 446.221 46.1495 446.153 48.1105C446.101 50.9662 444.843 53.5863 443.789 56.1824C443.677 57.8759 444.056 59.6213 443.521 61.2788C442.634 64.8254 439.703 67.6252 436.24 68.6597C432.398 69.798 428.016 69.8779 424.426 67.9128C424.454 70.485 422.141 72.0626 419.924 72.7016C415.763 73.9557 411.257 74.8784 406.956 73.8319C404.516 73.2608 402.515 71.5953 401.141 69.5544C398.025 70.481 394.595 71.124 391.471 69.8779C388.124 68.6557 385.983 65.3926 385.217 62.0296C384.51 58.9543 384.366 55.5394 385.776 52.6397C386.567 50.9902 388.352 50.2873 390.005 49.8399C386.047 44.1844 380.663 39.3117 374.093 36.9593C368.206 34.7945 361.628 35.0222 355.717 36.9632C350.656 38.6248 345.864 41.1689 341.71 44.5119C337.257 48.1065 333.73 52.8913 331.849 58.3112C329.967 63.5993 329.62 69.3067 329.975 74.8664C330.007 75.8968 330.491 76.8234 330.874 77.758C333.019 76.2603 335.411 74.6906 338.155 74.8983C340.172 75.11 342.105 76.0047 343.635 77.3267C345.756 79.0441 347.948 81.1649 348.252 84.0326C348.52 87.2798 347.158 90.3671 345.82 93.2428C346.267 96.0226 345.892 99.0102 344.242 101.355C341.957 104.774 337.728 106.327 333.746 106.343C331.273 106.495 328.773 106.064 326.581 104.881C326.373 105.88 326.253 107.002 325.454 107.733C323.873 109.279 321.628 109.83 319.551 110.357C315.717 111.208 311.571 111.839 307.813 110.341C305.896 109.634 304.466 108.109 303.283 106.503C299.681 107.609 295.471 108.172 292.108 106.08C288.334 103.731 286.876 99.0381 286.848 94.8045C286.896 92.3761 287.24 89.5324 289.336 87.9667C291.15 86.5369 293.594 86.8963 295.731 87.1C296.406 84.0406 296.977 80.8175 298.998 78.3052C298.019 75.813 297.916 73.105 297.832 70.461C297.42 55.3916 302.161 40.1345 311.455 28.2164C318.64 18.9303 328.422 11.8809 339.086 7.09606ZM359.347 3.01418C352.41 4.16445 345.704 6.46101 339.325 9.38462C332.412 12.5798 325.886 16.6977 320.274 21.8699C310.908 30.3612 304.374 41.8359 301.63 54.1654C300.012 61.5544 299.345 69.2708 300.651 76.7635C302.908 75.3776 305.5 74.7066 308.132 74.5708C307.901 62.1614 310.057 49.4285 316.192 38.5049C321.464 28.9353 329.872 21.2468 339.673 16.482C347.393 12.7396 355.833 10.1155 364.476 10.0916C372.783 9.95177 381.031 12.0886 388.472 15.7111C398.165 20.452 406.708 27.4256 413.646 35.6652C415.95 34.5069 418.567 33.5803 421.163 34.1994C413.115 21.3627 401.408 10.3032 386.942 5.2029C378.143 2.0636 368.534 1.47649 359.347 3.01418ZM354.539 13.2189C341.618 16.2703 329.257 23.2199 321.368 34.0956C312.817 45.6702 309.774 60.432 310.117 74.6068C310.988 74.6986 311.863 74.8065 312.733 74.9343C314.335 73.8679 315.765 72.5538 317.518 71.7271C317.43 60.1764 320.857 48.4021 328.058 39.2638C332.324 33.8479 337.884 29.4945 344.078 26.487C351.619 22.8125 360.066 20.6757 368.49 21.3347C380.835 22.1654 392.146 29.4106 399.248 39.3597C402.423 37.6103 406.117 37.5624 409.64 37.8379C410.594 38.0456 411.413 37.4705 412.22 37.0471C403.797 27.0182 392.913 18.7586 380.424 14.5648C372.124 11.809 363.074 11.2338 354.539 13.2189ZM356.448 24.1944C350.141 25.6283 344.07 28.2164 338.746 31.8988C333.191 35.7491 328.582 40.9453 325.406 46.9123C321.452 54.3172 319.511 62.7366 319.483 71.116C322.507 70.3531 325.382 71.807 327.715 73.6043C327.483 67.825 328.046 61.9178 330.195 56.5059C332.484 50.5908 336.629 45.4984 341.714 41.7481C346.235 38.445 351.331 35.8769 356.739 34.3911C362.159 32.8934 367.998 32.7735 373.394 34.435C380.008 36.4201 385.7 40.8095 389.965 46.1654C391.132 47.5913 392.002 49.2528 393.316 50.5628C394.011 48.6497 394.323 46.6248 394.978 44.6996C395.521 43.102 396.572 41.7561 397.666 40.4979C392.378 33.2448 384.937 27.4096 376.29 24.7895C369.884 22.8005 362.97 22.7086 356.448 24.1944ZM412.176 39.5114C412.887 40.2224 413.706 40.9692 413.518 42.0876C411.913 41.4405 410.598 40.0466 408.789 39.9588C404.867 39.5274 400.166 40.2982 397.838 43.8409C396.671 46.0177 395.885 48.5858 396.3 51.0701C397.031 52.7635 399.16 52.9473 400.677 53.6023C400.637 53.9657 400.59 54.3292 400.534 54.6966C397.442 55.1719 394.726 53.155 391.891 52.2683C390.389 51.8968 388.484 52.2164 387.697 53.6941C386.762 55.5474 386.894 57.7121 387.026 59.7211C387.357 62.9043 388.843 66.3631 391.95 67.7131C394.81 68.9672 397.981 68.1485 400.853 67.3816C402.383 66.8624 403.05 68.5399 403.869 69.4505C405.698 71.7391 408.877 72.2343 411.637 72.0985C414.537 71.8349 417.464 71.3596 420.176 70.2573C421.051 69.8459 422.237 69.2388 422.137 68.0965C422.165 66.1355 420.619 64.5938 420.588 62.6607C420.839 62.6727 421.342 62.6926 421.59 62.7046C423.703 64.1784 425.38 66.5149 428.064 66.9902C431.603 67.5174 435.589 67.2818 438.541 65.0411C441.025 63.1759 442.183 59.8289 441.46 56.8175C439.731 56.6377 437.854 56.9732 436.268 56.1225C436.232 55.8829 436.16 55.3956 436.128 55.152C438.117 54.433 440.629 55.2079 442.267 53.5623C443.373 51.9687 443.817 49.9717 443.972 48.0586C444.032 45.8779 442.511 44.1005 440.941 42.7745C439.399 41.4964 437.694 39.9907 435.561 40.0826C432.881 40.2583 430.764 42.0916 428.695 43.6053C427.521 44.4041 426.85 45.9897 425.28 46.0936C425.776 44.3881 427.254 42.6986 426.407 40.8614C425.237 38.7446 423.024 37.3826 420.863 36.448C417.636 35.5334 414.537 37.5064 412.176 39.5114ZM314.319 76.452C315.01 77.1589 315.673 77.9218 315.893 78.9243C314.103 78.6088 312.845 76.9832 310.992 76.9153C307.098 76.452 302.429 77.2228 300.052 80.6777C298.842 82.8424 298.079 85.4026 298.411 87.8948C298.854 89.4765 300.771 89.6722 302.033 90.3032C302.696 90.479 302.916 91.0741 302.804 91.7131C299.701 92.0526 296.969 90.2193 294.153 89.2368C292.284 88.5778 289.844 89.5164 289.448 91.5973C288.621 95.3277 289.081 99.6172 291.509 102.693C293.446 105.129 296.877 105.732 299.789 105.097C301.263 104.913 302.66 104.075 304.166 104.274C305.532 105.48 306.363 107.306 308.112 108.073C311.811 109.806 316.048 108.911 319.855 108.029C321.42 107.537 323.357 107.178 324.252 105.648C324.464 103.519 323.122 101.702 322.547 99.7411C323.058 99.793 323.693 99.5533 324.132 99.9328C326.125 101.443 327.835 103.643 330.475 103.983C333.894 104.522 337.7 104.138 340.58 102.07C343.12 100.232 344.282 96.8814 343.667 93.8339C342.141 93.6822 340.584 93.7541 339.094 93.3866C338.375 93.2109 338.139 92.6158 338.383 91.9448C340.416 91.5334 342.916 92.0726 344.502 90.4191C345.536 88.7536 346.039 86.7645 346.119 84.8155C346.055 81.9997 343.623 80.1385 341.618 78.5329C340.06 77.2228 337.872 76.5678 335.927 77.3866C332.799 78.6567 330.219 80.9572 327.935 83.3856C327.363 81.8759 328.697 80.6817 328.817 79.2478C328.909 77.6941 327.775 76.448 326.636 75.5534C324.987 74.3032 323.102 72.9333 320.917 73.153C318.389 73.3966 316.22 74.8744 314.319 76.452Z" fill="black"/>
<path d="M151.956 2.49891C155.12 1.13296 158.606 0.789476 162.005 0.438003C165.508 0.0825363 168.831 1.47645 171.862 3.06606C174.051 4.00865 175.793 5.68214 177.142 7.61524C181.053 4.1724 186.365 2.49092 191.541 2.61074C193.658 2.64669 195.842 2.42702 197.883 3.13396C199.733 3.75702 201.398 4.81144 203.036 5.85787C204.969 7.13196 206.199 9.1729 207.177 11.2218C210.421 10.3152 213.855 9.02512 217.234 10.0037C221.847 11.098 225.829 14.9522 226.588 19.7011C226.932 22.2613 228.006 24.7256 227.802 27.3456C227.403 32.5618 225.254 37.9857 220.797 41.0251C215.681 44.5239 209.059 44.6637 203.167 43.5054C201.003 49.0211 196.877 53.8179 191.509 56.406C184.539 59.9287 176.304 60.4759 168.787 58.5788C166.506 58.0316 164.314 57.2008 162.125 56.3701C157.935 60.8953 152.519 64.4939 146.433 65.8079C141.14 66.9542 135.549 66.0795 130.664 63.8349C125.001 61.2508 120.076 57.2168 116.038 52.5119C112.012 52.7315 107.587 52.4999 104.288 49.8918C100.378 46.7725 98.8879 41.748 97.5259 37.1469C96.5913 34.2712 97.3382 31.112 98.9758 28.6437C100.701 26.1754 102.522 23.6911 105.127 22.0855C105.222 20.4759 105.278 18.7905 106.085 17.3486C107.659 14.6008 109.121 11.7211 111.401 9.47245C113.626 7.12397 116.625 5.76202 119.537 4.47195C123.076 2.87035 127.062 3.38558 130.832 3.27375C134.546 3.13396 138.185 4.25228 141.476 5.9058C142.878 6.59676 143.964 7.75502 145.162 8.73356C146.972 6.2373 149.184 3.91678 151.956 2.49891ZM152.791 4.51988C150.291 5.91379 148.17 8.01863 146.748 10.5069C146.425 11.1699 145.638 11.9487 144.863 11.4375C143.269 10.2073 141.995 8.52587 140.126 7.67514C137.482 6.40904 134.602 5.4385 131.639 5.47844C129.198 5.5024 126.754 5.42252 124.322 5.55033C121.23 5.7021 118.486 7.29971 115.834 8.73755C112.092 10.8664 109.983 14.7765 107.998 18.431C107.595 19.2697 107.459 20.2004 107.267 21.103C108.094 21.079 108.985 20.8594 109.752 21.2867C109.736 21.8459 109.624 22.3931 109.52 22.9402C108.202 23.3237 106.732 23.5393 105.694 24.5179C103.537 26.5388 101.212 28.5598 100.006 31.3317C98.8879 33.5723 99.3712 36.1644 100.178 38.421C101.48 42.447 103.074 47.0201 107.092 49.085C110.099 50.7385 113.598 50.1993 116.865 50.3471C118.323 51.5613 119.401 53.1629 120.831 54.421C126.534 59.8409 133.911 64.2343 142.007 64.1384C149.001 64.0186 155.315 60.2003 160.14 55.3836C158.283 54.3571 156.166 53.5463 154.892 51.753C155.092 51.4694 155.495 50.8983 155.695 50.6147C157.444 51.1539 158.894 52.3122 160.519 53.123C165.192 55.5274 170.333 57.101 175.593 57.4405C181.24 57.792 187.008 56.5139 191.924 53.6941C197.716 50.2832 201.75 44.0046 202.345 37.2947C202.52 35.5174 202.149 33.752 202.173 31.9747C202.788 31.9507 203.411 31.9308 204.034 31.9188C204.933 35.0301 204.561 38.3012 203.906 41.4165C209.27 42.403 215.353 42.3152 219.922 38.9562C223.896 36.0166 225.522 30.8883 225.558 26.1155C225.506 24.7176 225.059 23.3836 224.803 22.0216C224.519 20.6157 224.356 19.1699 223.78 17.8479C221.919 13.802 217.214 11.1499 212.785 12.0166C210.612 12.444 208.444 13.0071 206.407 13.8778C204.33 14.8364 203.203 16.9173 201.909 18.6786C200.923 19.1699 200.104 17.9917 200.495 17.109C201.43 14.9442 203.303 13.3626 205.109 11.9168C204.346 10.439 203.507 8.92926 202.149 7.91079C200.879 6.99217 199.509 6.21334 198.091 5.54634C195.799 4.48393 193.206 4.83541 190.762 4.79946C187.311 4.78348 183.9 5.80595 180.913 7.51139C179.491 8.31419 178.437 9.58428 177.174 10.5948C176.631 11.1779 175.896 10.6307 175.305 10.451C175.349 10.0955 175.441 9.39257 175.489 9.0411C174.486 7.78298 173.516 6.42502 172.066 5.65018C169.075 4.06456 165.887 2.31119 162.381 2.61474C159.141 2.91029 155.806 3.22582 152.791 4.51988Z" fill="black"/>
<path d="M65.295 24.5698C65.9541 24.5459 66.6171 24.5299 67.2801 24.5139C67.1083 27.3616 67.1443 30.2293 66.681 33.0531C66.1697 33.0531 65.6545 33.0531 65.1393 33.0531C64.8317 30.2293 65.2351 27.3936 65.295 24.5698Z" fill="black"/>
<path d="M94.1942 26.3271C94.3699 26.3511 94.7174 26.403 94.8932 26.427C95.0689 26.6427 95.4204 27.078 95.5961 27.2937C93.2316 31.0241 90.3839 34.423 87.7998 38.0016C87.2406 37.9537 86.6815 37.9018 86.1223 37.8459C86.4778 36.0326 87.8397 34.7226 88.8702 33.2767C90.6515 30.9642 92.2651 28.5199 94.1942 26.3271Z" fill="black"/>
<path d="M187.466 30.3253C187.929 30.3013 188.397 30.2814 188.864 30.2654C190.086 31.9109 190.593 34.0916 189.97 36.0687C189.399 37.5265 187.921 38.517 186.34 38.4052C186.428 36.6877 188.868 36.3363 188.676 34.539C188.792 33.0173 187.858 31.7352 187.466 30.3253Z" fill="black"/>
<path d="M33.1052 32.4301C33.5166 32.3981 33.928 32.3662 34.3434 32.3342C37.4547 34.9463 40.5461 37.5863 43.6055 40.2583C44.3084 40.7296 44.3404 41.5804 44.4083 42.3432C42.7468 42.499 41.6484 41.141 40.4981 40.1785C38.2176 38.1655 35.8371 36.2603 33.5845 34.2194C33.0213 33.792 33.2011 33.0332 33.1052 32.4301Z" fill="black"/>
<path d="M132.794 34.6628C133.214 34.6948 133.633 34.7267 134.056 34.7627C133.853 36.4961 131.76 37.3987 132.135 39.3039C131.828 41.0772 133.661 41.8521 134.528 43.0702C133.765 43.1221 132.966 43.3378 132.219 43.0902C130.705 41.9399 130.366 39.8471 130.665 38.0697C130.773 36.6439 131.92 35.6733 132.794 34.6628Z" fill="black"/>
<path d="M63.0493 42.1356C69.4198 41.6044 76.0538 42.6189 81.7333 45.6503C91.8821 51.0542 96.7867 64.6418 92.1177 75.214C89.4297 81.4247 83.7542 86.2574 77.1961 87.9309C70.1826 89.7562 62.6898 88.8096 55.952 86.3573C51.6304 84.6997 47.1931 82.3553 44.8007 78.2135C41.925 73.3488 41.9729 67.3657 43.1192 61.9898C43.8501 58.8385 44.605 55.5435 46.602 52.9194C49.1302 49.5684 52.577 47.0402 56.1517 44.9034C58.3044 43.6773 60.5011 42.2714 63.0493 42.1356ZM61.8591 44.3283C60.1457 44.7996 58.6279 45.7741 57.0942 46.6448C53.7712 48.6458 50.5321 50.9703 48.1876 54.1016C46.4302 56.4262 45.7752 59.3298 45.1122 62.1056C44.0378 67.0103 43.8381 72.4821 46.3743 76.9873C48.4432 80.7457 52.4332 82.8465 56.2755 84.3642C62.598 86.7407 69.6314 87.7392 76.2655 86.1336C82.576 84.6598 88.0678 79.9988 90.4921 73.9798C94.618 63.8989 89.4377 51.1181 79.4767 46.7207C74.0089 44.2924 67.7742 43.3618 61.8591 44.3283Z" fill="black"/>
<path d="M409.247 47.5074C409.634 46.0935 410.373 44.468 411.971 44.1524C413.193 43.6971 414.735 44.1764 414.95 45.5903C413.812 45.4585 412.498 44.7156 411.48 45.5703C410.916 46.0975 410.637 46.8404 410.289 47.5074C409.934 47.5074 409.586 47.5074 409.247 47.5074Z" fill="black"/>
<path d="M413.728 47.3715C414.646 47.068 415.613 46.9961 416.579 47.06C416.587 47.4235 416.595 47.7829 416.611 48.1464C415.633 48.1863 414.666 48.2822 413.7 48.41C413.708 48.1504 413.72 47.6312 413.728 47.3715Z" fill="black"/>
<path d="M136.007 52.8434C135.564 51.7491 135.784 50.459 136.319 49.4285C138.056 49.2049 137.122 51.2538 137.481 52.2763C138.156 53.2788 139.474 53.4545 140.573 53.6622C140.792 53.7541 141.232 53.9418 141.455 54.0336C141.256 54.4091 141.048 54.7845 140.856 55.1639C139.015 55.1679 136.97 54.5289 136.007 52.8434Z" fill="black"/>
<path d="M107.627 54.4531C108.429 54.1576 109.292 54.1855 110.139 54.2055C110.175 54.4891 110.243 55.0602 110.279 55.3478C108.373 56.518 106.157 56.9853 104.088 57.7801C102.986 58.2275 101.807 58.4232 100.621 58.4312C100.637 57.9039 100.657 57.3767 100.681 56.8535C102.994 56.0507 105.306 55.2399 107.627 54.4531Z" fill="black"/>
<path d="M55.1462 58.8864C55.945 57.2848 58.0659 56.3542 59.7154 57.181C58.1338 57.5923 56.616 58.1795 55.1462 58.8864Z" fill="black"/>
<path d="M75.5512 57.089C77.1448 57.069 79.3934 56.9932 79.8607 58.9622C78.5667 58.0596 77.0649 57.6202 75.4873 57.744C75.5033 57.5803 75.5352 57.2528 75.5512 57.089Z" fill="black"/>
<path d="M397.54 59.1939C397.988 58.435 398.934 58.6307 399.677 58.5588C399.186 58.9902 398.659 59.3896 398.227 59.8769C398.063 60.6317 398.107 61.4146 398.059 62.1814C396.945 61.6063 396.658 60.1005 397.54 59.1939Z" fill="black"/>
<path d="M76.5381 63.4594C76.6619 62.7005 76.6899 61.4424 77.7563 61.4824C79.0463 61.2627 79.294 63.4714 78.1077 63.7669C77.5805 63.6951 77.0533 63.5912 76.5381 63.4594Z" fill="black"/>
<path d="M405.688 64.47C405.512 62.8924 406.862 61.8539 408.124 61.2468C408.172 61.5184 408.268 62.0576 408.316 62.3292C407.912 62.6168 407.513 62.9043 407.122 63.1959C406.946 63.6472 406.778 64.0985 406.618 64.5499C406.922 64.9972 407.229 65.4405 407.553 65.8839C407.497 66.1714 407.385 66.7466 407.329 67.0341C406.63 66.3152 405.528 65.6322 405.688 64.47Z" fill="black"/>
<path d="M58.2842 63.4555C58.0086 62.7366 58.7555 62.2653 59.1549 61.802C59.4904 61.9578 60.1614 62.2733 60.4969 62.4291C60.445 62.8844 60.421 63.3477 60.3012 63.791C59.8099 64.5499 58.4719 64.3462 58.2842 63.4555Z" fill="black"/>
<path d="M25.8133 64.8574C29.2082 64.1664 32.4912 62.8764 35.958 62.5808C35.986 63.124 36.014 63.6712 36.0379 64.2184C32.675 65.2808 29.2122 65.9957 25.8093 66.9263C25.8053 66.2353 25.8053 65.5444 25.8133 64.8574Z" fill="black"/>
<path d="M409.937 62.7446C410.683 62.505 411.446 62.8644 412.169 63.0602C412.205 63.2678 412.269 63.6832 412.305 63.8909C411.247 63.8949 410.188 63.9828 409.158 64.1945C409.345 63.6832 409.377 63.0202 409.937 62.7446Z" fill="black"/>
<path d="M78.7463 66.8863C78.3988 66.2273 79.7128 66.1074 79.5291 66.8104C79.3334 66.8303 78.942 66.8663 78.7463 66.8863Z" fill="black"/>
<path d="M72.6707 67.2178C73.8329 66.5748 72.7545 68.5558 72.6707 67.2178V67.2178Z" fill="black"/>
<path d="M74.9928 69.9497C75.1805 69.9098 75.5559 69.8339 75.7437 69.7939C76.3188 70.6287 76.7701 71.6352 77.6768 72.1664C78.2559 72.3022 78.847 72.3581 79.4381 72.434C79.4461 72.6057 79.4621 72.9452 79.4701 73.113C78.7671 73.1289 78.0642 73.1369 77.3652 73.1449C76.0552 74.7745 74.3498 75.9887 72.5485 77.0191C72.2689 77.9617 72.2329 79.3915 71.0787 79.7151C69.4132 79.9467 67.7037 79.8389 66.0662 79.4874C65.8745 78.7405 65.6788 78.0016 65.4831 77.2587C63.2224 76.4959 61.1336 75.2817 59.3522 73.6961C58.3537 73.9877 57.3473 74.2393 56.3288 74.419C56.3008 74.2033 56.2449 73.776 56.2209 73.5643C58.1101 73.5643 59.6718 72.422 60.215 70.6087C60.3907 70.6007 60.7422 70.5848 60.9179 70.5768C60.8061 71.124 60.6902 71.6751 60.5744 72.2263C63.1466 74.2992 66.3378 76.1404 69.7646 75.6412C72.2888 75.3217 74.3018 73.6202 75.9913 71.8469C75.6518 71.2158 75.3203 70.5848 74.9928 69.9497ZM69.513 77.6062C69.537 78.1215 69.5569 78.6367 69.5849 79.1559C70.6753 79.0441 71.4062 78.3771 71.7377 77.3706C70.9948 77.4385 70.2519 77.5224 69.513 77.6062ZM66.154 77.4305C66.3498 77.9457 66.5495 78.4609 66.7531 78.9762C67.1605 78.9762 67.9793 78.9682 68.3907 78.9682C68.4147 78.5608 68.4386 78.1574 68.4666 77.754C67.6957 77.6422 66.9249 77.5303 66.154 77.4305Z" fill="black"/>
<path d="M101.405 77.794C101.437 77.2388 101.465 76.6876 101.505 76.1365C105.718 76.7036 109.76 78.1415 113.878 79.1759C113.886 79.7111 113.894 80.2463 113.902 80.7855C112.68 80.7735 111.466 80.6058 110.295 80.2503C107.34 79.3996 104.324 78.7605 101.405 77.794Z" fill="black"/>
<path d="M313.425 81.3366C314.48 80.7495 315.734 81.0211 316.816 81.3965C316.832 81.6442 316.86 82.1354 316.876 82.3831C315.921 82.2872 314.931 81.9677 313.992 82.2752C313.022 82.8983 312.63 84.0725 311.999 84.9792C311.089 83.5932 312.191 82.0396 313.425 81.3366Z" fill="black"/>
<path d="M315.673 85.5384C315.749 83.9168 317.551 83.5973 318.793 84.1565C318.781 84.3961 318.765 84.8794 318.753 85.119C318.281 85.0911 317.814 85.0631 317.347 85.0391C316.792 85.2149 316.229 85.3786 315.673 85.5384Z" fill="black"/>
<path d="M38.4715 89.121C39.0187 88.5698 40.0132 88.3142 40.4126 89.1729C40.4605 90.0236 39.7576 90.5588 39.2224 91.102C36.802 93.3386 34.4056 95.6112 31.9253 97.7879C31.5339 97.744 31.1385 97.7001 30.7471 97.6561C30.4675 95.9986 32.0291 95.092 33.0596 94.1055C34.9168 92.4999 36.6023 90.7106 38.4715 89.121Z" fill="black"/>
<path d="M87.3479 92.4719C87.939 92.6037 88.6779 92.4559 89.1252 92.9592C90.8826 94.6806 92.4203 96.6137 94.1098 98.399C95.1202 99.5413 96.586 100.608 96.3863 102.325C95.7114 102.205 94.8966 102.289 94.4413 101.67C92.2965 99.4255 90.2875 97.057 88.1627 94.7964C87.4757 94.2053 87.3918 93.3147 87.3479 92.4719Z" fill="black"/>
<path d="M299.774 96.0027C300.265 95.3917 301.1 95.4396 301.807 95.3557C301.315 95.8789 300.768 96.3542 300.337 96.9334C300.261 97.5524 300.237 98.1755 300.261 98.8025C299.902 98.7227 299.546 98.6468 299.191 98.5709C299.231 97.6962 299.075 96.6777 299.774 96.0027Z" fill="black"/>
<path d="M61.6726 96.1265C62.092 96.1305 62.9268 96.1345 63.3421 96.1384C63.2662 97.2328 63.0945 98.3232 62.735 99.3616C61.7365 102.441 60.8219 105.544 59.8274 108.624C59.3601 108.716 58.8928 108.819 58.4215 108.863C58.082 107.917 58.2578 106.906 58.5773 105.984C59.6357 102.705 60.6142 99.4055 61.6726 96.1265Z" fill="black"/>
<path d="M308.027 100.204C308.35 99.1419 309.425 98.7105 310.335 98.2751C310.367 98.5427 310.431 99.0779 310.463 99.3455C310.036 99.5772 309.612 99.8088 309.193 100.037C308.758 101.279 309.241 102.457 309.888 103.519C309.572 103.507 308.945 103.487 308.634 103.475C307.995 102.517 307.543 101.335 308.027 100.204Z" fill="black"/>
<path d="M311.568 99.765C312.783 99.6492 314.3 99.4735 314.636 101.051C314.204 100.991 313.342 100.867 312.91 100.807C312.427 100.947 311.952 101.087 311.477 101.231C311.501 100.74 311.532 100.252 311.568 99.765Z" fill="black"/>
<path d="M391.206 108.356C395.415 104.59 401.243 103.004 406.81 103.404C409.127 103.436 411.168 104.658 413.221 105.58C415.345 106.527 416.787 108.416 418.337 110.07C420.526 112.494 422.215 115.414 422.834 118.645C427.539 117.558 432.811 119.112 436.114 122.655C437.748 124.364 439.329 126.217 440.204 128.442C440.755 129.816 441.211 131.226 441.642 132.644C445.289 132.188 449.191 133.478 451.571 136.342C453.273 138.143 454.459 140.384 455.09 142.777C456.208 146.463 456.747 150.777 454.662 154.231C452.841 157.135 450.369 159.807 447.122 161.093C445.017 162 442.704 162.183 440.444 162.199C439.166 165.686 436.526 168.861 432.907 170.016C430.267 170.898 427.651 172.184 424.795 172.065C421.648 172.152 418.772 170.675 416.04 169.297C413.728 171.593 410.908 173.323 407.941 174.629C401.662 176.462 394.365 174.952 389.752 170.183C389.005 169.157 387.779 169.776 386.788 169.972C382.547 171.058 377.838 171.326 373.808 169.349C370.968 167.975 368.939 165.363 367.765 162.487C361.95 162.934 355.707 159.655 353.602 154.056C352.208 150.373 352.564 145.964 354.976 142.785C357.728 139.11 362.141 137.205 366.463 136.083C367.114 132.72 368.739 129.504 371.328 127.224C374.714 124.184 379.192 122.675 383.645 122.096C384.076 116.692 387.26 111.903 391.206 108.356ZM391.717 110.848C388.662 113.964 386.093 117.918 385.838 122.383C385.638 124.752 386.565 127.004 386.672 129.353C386.033 129.381 385.398 129.405 384.763 129.421C384.252 127.755 383.885 126.054 383.665 124.324C378.517 124.959 373.101 127.2 370.341 131.833C368.691 134.441 368.456 137.584 368.212 140.58C367.585 140.58 366.966 140.58 366.347 140.576C366.279 139.853 366.211 139.13 366.163 138.411C362.265 139.573 358.155 141.443 356.066 145.133C353.974 149.055 355.008 154.351 358.399 157.227C360.751 159.368 363.935 160.282 367.058 160.434C367.078 159.675 367.11 158.924 367.158 158.169C367.741 158.157 368.328 158.153 368.919 158.153C369.514 161.409 370.764 164.843 373.668 166.729C377.742 169.449 382.974 168.734 387.459 167.595C386.189 165.578 384.624 163.549 384.484 161.077C384.919 160.865 385.354 160.654 385.798 160.442C387.268 162.527 388.062 165.031 389.768 166.968C393.051 171.294 398.591 173.71 403.998 173.123C407.437 172.971 410.465 171.046 413.125 169.017C414.459 168.035 415.198 166.525 416.16 165.223C416.468 164.708 417.171 164.859 417.63 165.071C418.165 165.866 417.61 166.749 417.39 167.551C418.509 168.095 419.623 168.654 420.789 169.101C423.306 170.135 426.213 170.123 428.757 169.177C430.423 168.554 432.144 168.067 433.742 167.276C435.651 166.157 437.161 164.384 437.999 162.339C438.575 161.113 438.874 159.771 439.517 158.577C440.596 158.125 440.943 159.336 441.418 160.027C444.618 159.955 447.869 158.864 450.113 156.512C452.014 154.507 453.976 152.079 453.852 149.147C453.86 144.774 452.526 140.124 449.247 137.069C447.302 135.22 444.526 134.509 441.898 134.8C441.85 135.755 441.958 136.742 441.694 137.672C441.239 138.631 439.334 138.443 439.593 137.193C440.176 131.398 437.109 125.634 432.388 122.367C429.676 120.706 426.249 119.975 423.158 120.893C423.078 121.684 423.154 122.507 422.914 123.274C422.535 123.969 421.444 124.073 421.045 123.35C420.761 121.64 420.949 119.871 420.478 118.189C419.519 114.279 416.644 111.256 413.836 108.54C410.896 106.447 407.246 105.177 403.607 105.58C399.186 105.868 394.844 107.685 391.717 110.848Z" fill="black"/>
<path d="M392.332 118.213C392.399 116.276 393.969 114.291 396.054 114.535C397.18 114.347 397.935 115.314 398.167 116.304C397.14 115.957 396.034 115.126 394.936 115.697C393.881 116.14 393.614 117.343 393.246 118.305C393.019 118.285 392.559 118.237 392.332 118.213Z" fill="black"/>
<path d="M396.972 119.703C397.084 118.589 397.631 117.439 398.833 117.219C400.027 116.696 400.946 117.89 401.729 118.585C400.778 118.485 399.863 118.154 398.909 118.126C398.182 118.545 397.639 119.2 396.972 119.703Z" fill="black"/>
<path d="M25.5257 124.304C29.8592 121.932 34.7759 120.43 39.7524 120.622C43.7704 120.761 47.6406 122.203 51.0874 124.208C53.6356 125.706 55.9681 127.827 57.0265 130.651C57.8093 132.596 57.6895 134.736 57.5776 136.785C60.5292 135.531 63.6685 134.457 66.9236 134.585C69.2441 134.633 71.5926 135.583 73.0944 137.396C75.7903 140.62 77.7993 144.494 78.4064 148.684C81.5497 148.268 85.0844 148.288 87.6845 150.365C90.8278 152.897 91.4428 157.375 90.9037 161.145C90.4883 164.248 88.5112 166.964 85.8472 168.546C85.1962 172.4 83.8303 176.37 80.8228 179.026C78.0589 181.522 74.1528 182.197 70.5422 182.093C66.8398 182.006 63.2891 180.608 60.2217 178.591C57.6575 183.491 52.5212 186.399 47.4249 188.052C42.3645 189.586 36.7449 190.097 31.6685 188.372C29.3919 187.453 26.9716 186.355 25.5257 184.278C23.7923 185.932 21.4199 187.03 18.9875 186.83C14.7259 186.778 11.0395 184.047 8.46333 180.847C6.00302 177.225 6.72594 172.544 8.13582 168.666C5.38795 166.968 3.22719 164.504 1.57766 161.756C-0.778802 157.894 -0.387389 152.721 2.03298 148.983C3.58266 146.603 5.32005 144.262 7.66453 142.609C6.45834 139.234 7.18126 135.519 8.60312 132.332C9.23018 130.938 10.1169 129.648 11.2991 128.67C13.5118 126.804 15.8762 124.979 18.664 124.072C20.9246 123.529 23.2651 123.985 25.5257 124.304ZM28.8767 125.107C27.9341 125.534 27.2432 126.597 26.1208 126.537C23.8203 126.393 21.4998 125.71 19.1952 126.205C17.6136 126.713 16.2037 127.635 14.8697 128.606C13.2881 129.8 11.5866 131.018 10.7519 132.883C9.59763 135.391 8.80282 138.271 9.52574 141.015C9.69349 141.83 10.049 142.657 9.8852 143.507C9.52574 143.763 9.1543 144.007 8.77487 144.234C6.77786 146.211 4.87671 148.332 3.49479 150.8C1.82529 153.8 1.6176 157.738 3.48281 160.698C4.84476 162.846 6.43038 164.943 8.60312 166.325C11.0594 168.039 14.1947 167.871 17.0305 168.27C18.1847 168.454 17.8173 170.411 16.683 170.327C14.4783 170.447 12.3176 169.82 10.1328 169.592C8.99853 172.807 8.25564 176.741 10.3605 179.733C12.05 181.698 14.1109 183.507 16.6431 184.258C19.2352 185.085 22.5382 184.682 24.2037 182.321C24.5712 181.75 25.366 180.815 25.9771 181.638C27.8023 184.338 30.8498 185.968 33.9411 186.774C38.7579 187.833 43.8423 187.118 48.4194 185.388C52.4493 183.783 56.5632 181.319 58.4204 177.209C56.9706 175.787 55.2012 174.445 54.662 172.388C55.0614 172.124 55.4648 171.869 55.8682 171.609C57.6855 173.171 59.1114 175.164 61.1243 176.506C65.6855 179.913 72.0639 181.031 77.352 178.734C80.8907 177.069 82.5841 173.219 83.4668 169.628C82.1488 169.88 80.7828 170.127 79.4608 169.748C79.4648 169.209 79.4688 168.674 79.4768 168.138C81.3779 167.743 83.3949 167.519 85.0564 166.425C87.2971 165.075 88.7269 162.567 88.8228 159.963C88.9825 157.283 88.687 154.187 86.5542 152.294C84.3655 150.369 81.2062 150.453 78.5063 150.944C78.3265 152.039 78.1068 153.125 77.8353 154.199C77.1922 154.175 76.5532 154.147 75.9101 154.115C76.042 152.322 76.4094 150.529 76.1578 148.727C75.6905 145.177 73.9131 141.926 71.7085 139.154C70.678 137.796 69.0764 136.897 67.363 136.833C63.8123 136.606 60.2496 137.756 57.2022 139.505C56.5512 140.755 56.2996 142.169 55.7284 143.459C54.5662 146.159 53.1203 148.771 51.2432 151.04C50.7759 151.763 49.8892 151.683 49.1463 151.739C48.9107 149.966 50.3485 148.755 51.1872 147.382C53.8393 143.304 55.6366 138.471 55.4568 133.562C55.1293 129.153 51.0914 126.377 47.3929 124.759C41.6056 121.912 34.6121 122.367 28.8767 125.107Z" fill="black"/>
<path d="M86.6026 131.186C87.1018 129.325 89.3784 128.146 91.1677 128.929C92.2301 129.369 92.8213 130.411 93.4244 131.326C94.9581 130.591 97.007 129.98 98.4408 131.258C99.7908 132.364 99.4913 134.389 98.6685 135.731C97.9855 137.029 96.7554 137.872 95.5292 138.607C93.9556 139.537 92.4818 140.632 90.8722 141.502C89.5701 140.093 88.6076 138.427 87.7129 136.746C86.7504 135.096 86.0634 133.091 86.6026 131.186Z" fill="black"/>
<path d="M383.94 135.12C384.515 133.962 385.805 133.53 386.963 133.195C387.027 133.399 387.151 133.806 387.215 134.006C386.512 134.457 385.825 134.92 385.15 135.404C384.95 136.31 384.735 137.213 384.483 138.107C384.104 137.181 383.56 136.138 383.94 135.12Z" fill="black"/>
<path d="M382.538 139.462C383.125 139.146 383.541 139.306 383.788 139.941C382.946 141.574 382.007 143.236 382.211 145.161C382.474 145.457 382.746 145.752 383.025 146.056C382.993 146.295 382.93 146.775 382.898 147.014C381.983 146.926 380.964 146.563 380.785 145.536C380.377 143.392 381.064 141.067 382.538 139.462Z" fill="black"/>
<path d="M34.4041 141.814C35.9498 141.047 37.9708 140.54 39.5604 141.431C41.0102 142.297 41.134 144.126 41.2019 145.636C41.0382 145.864 40.7146 146.319 40.5509 146.551C40.2473 146.371 39.9438 146.191 39.6442 146.016C39.5124 144.845 39.7681 143.336 38.5778 142.629C37.1999 142.385 35.6862 142.657 34.5798 143.543C33.7211 144.182 33.0701 145.141 32.0037 145.468C31.2089 143.687 33.118 142.569 34.4041 141.814Z" fill="black"/>
<path d="M377.035 145.317C377.407 145.329 377.786 145.341 378.165 145.357C378.305 146.491 378.569 147.609 378.773 148.736C378.062 148.58 377.099 148.744 376.76 147.929C376.46 147.066 376.879 146.167 377.035 145.317Z" fill="black"/>
<path d="M384.12 149.446C383.425 148.172 384.144 146.627 385.526 146.259C385.402 147.134 385.198 147.993 385.014 148.855C385.266 148.975 385.777 149.215 386.029 149.335C385.993 149.574 385.917 150.05 385.877 150.289C385.254 150.094 384.339 150.233 384.12 149.446Z" fill="black"/>
<path d="M364.88 151.168C363.47 149.642 364.652 146.966 366.645 146.719C366.681 147.01 366.753 147.593 366.789 147.881C366.39 148.512 366.018 149.159 365.691 149.826C366.134 150.201 366.601 150.581 367.053 150.96C367.021 151.18 366.953 151.615 366.921 151.835C366.194 151.779 365.303 151.911 364.88 151.168Z" fill="black"/>
<path d="M393.482 158.565C393.937 158.581 394.405 158.605 394.872 158.629C395.016 159.839 394.389 161.572 395.802 162.188C396.585 162.607 397.476 162.779 398.331 163.018C398.399 163.374 398.462 163.733 398.51 164.101C396.621 164.612 394.496 163.681 393.49 162.036C393.119 160.913 393.386 159.711 393.482 158.565Z" fill="black"/>
<path d="M57.5133 161.321C58.8233 160.957 60.4888 160.518 61.5113 161.732C62.7095 163.202 62.7494 166.469 60.3131 166.685C60.4808 165.299 60.8762 163.877 60.377 162.515C59.4144 162.531 58.4559 162.571 57.4973 162.603C57.5013 162.175 57.5053 161.748 57.5133 161.321Z" fill="black"/>
<path d="M400.255 161.321C400.483 161.305 400.938 161.277 401.17 161.265C401.565 161.592 401.989 161.896 402.432 162.171C403.295 162.111 404.118 161.792 404.964 161.616C404.653 162.718 403.574 163.517 402.412 163.314C401.302 163.238 400.743 162.167 400.255 161.321Z" fill="black"/>
<path d="M64.295 166.789C64.8542 166.557 65.4333 166.785 66.0004 166.868C65.9325 167.807 66.28 168.945 65.5851 169.716C65.1657 170.315 64.3509 170.124 63.7358 170.267C63.9076 169.684 64.1113 169.117 64.3469 168.558C64.307 167.967 64.2471 167.376 64.295 166.789Z" fill="black"/>
<path d="M25.0594 170.275C24.5322 169.56 25.1872 168.15 26.1578 168.606C27.1044 169.181 27.7993 170.243 28.9696 170.383C30.9626 170.763 32.1488 168.19 34.1738 168.849C34.4134 170.679 32.644 171.557 31.2581 172.216C29.0894 173.187 26.3175 172.252 25.0594 170.275Z" fill="black"/>
<path d="M43.1548 195.002C45.1957 196.819 47.4284 198.397 49.665 199.963C51.5182 201.197 52.7764 203.162 53.5113 205.235C53.8108 206.501 53.8388 208.254 52.5607 209.009C50.9511 209.732 48.8063 209.84 47.4164 208.594C46.1942 207.563 45.6351 205.998 45.2476 204.496C44.4968 201.341 43.8058 198.177 43.1548 195.002Z" fill="black"/>
<path d="M61.0847 211.461C62.9619 212.56 64.8391 213.662 66.5925 214.956C68.4417 216.306 70.6344 217.261 72.1441 219.034C73.1985 220.548 73.7218 222.437 73.6459 224.274C73.538 226.107 72.1202 228.053 70.1631 228.073C67.4472 228.324 65.0548 226.179 64.1921 223.739C62.906 219.713 62.0712 215.567 61.0847 211.461Z" fill="black"/>
<path d="M44.0547 230.745C46.1196 232.566 47.5734 234.934 49.4826 236.903C51.0203 238.477 52.2744 240.334 53.189 242.335C53.7641 243.773 53.9918 245.666 52.8535 246.9C51.3278 248.738 48.1486 249.329 46.3513 247.551C44.8255 246.018 44.6298 243.753 44.3942 241.72C44.0507 238.074 43.835 234.403 44.0547 230.745Z" fill="black"/>
<path d="M351.054 297.616C352.979 295.859 355.407 294.417 358.107 294.557C360.108 294.377 361.85 295.671 362.976 297.209C365.073 300.005 366.199 303.755 365.249 307.198C364.47 309.922 361.85 311.659 359.15 312.062C359.629 316.376 358.662 320.853 356.03 324.352C360.152 323.102 364.382 322.123 368.683 321.772C372.897 321.325 377.275 321.984 381.097 323.853C383.429 325.051 385.75 326.952 386.301 329.644C386.92 332.803 384.44 335.879 381.4 336.51C375.617 337.64 369.965 335.3 364.234 335C366.467 335.895 368.935 336.198 371.012 337.48C374.539 339.577 377.61 342.513 379.711 346.044C380.917 347.897 380.769 350.425 382.507 351.959C387.467 356.735 393.55 360.318 397.904 365.726C399.569 367.691 400.851 370.151 400.763 372.791C400.795 377.384 397.748 381.934 393.314 383.336C390.439 384.31 387.204 383.767 384.639 382.201C380.582 379.721 377.362 376.158 374.087 372.763C372.893 371.549 371.783 370.219 370.377 369.245C369.215 369.584 368.204 370.279 367.122 370.794C368.524 376.917 369.119 383.336 367.805 389.53C375.865 392.062 382.986 397.163 388.454 403.553C391.15 401.952 394.125 400.857 397.221 400.378C404.41 399.016 412.27 399.451 418.672 403.282C421.436 404.943 423.925 407.124 425.854 409.712C427.683 412.692 428.853 416.015 430.111 419.262C433.055 419.034 436.246 419.793 438.459 421.822C441.119 424.773 443.232 428.376 443.671 432.39C443.843 434.639 444.178 437.007 443.339 439.172C442.157 442.307 440.899 445.574 438.419 447.935C435.811 450.714 432.504 452.823 428.789 453.754C426.305 454.701 423.633 454.533 421.037 454.401C418.473 456.757 415.15 458.423 411.611 458.387C406.95 458.675 402.241 457.137 398.63 454.189C396.222 456.258 393.167 457.556 390.039 457.996C386.684 457.976 383.266 458.243 379.99 457.369C376.42 456.646 372.957 455.272 369.95 453.203C368.44 452.2 367.409 450.683 366.407 449.213C362.852 450.914 358.878 452.001 354.908 451.561C351.669 451.206 348.418 450.507 345.466 449.105C344.292 451.429 342.551 453.574 340.11 454.637C335.07 457.005 329.211 457.404 323.819 456.138C320.448 455.439 317.656 453.091 315.683 450.355C314.197 451.433 312.568 452.352 310.802 452.875C307.891 453.394 304.823 452.943 302.251 451.449C299.423 450.095 296.911 447.336 297.155 444.013C295.757 443.054 294.143 442.367 293.017 441.073C290.337 438.289 288.22 434.894 287.313 431.112C285.596 424.582 288.544 417.596 293.44 413.223C296.508 410.487 300.765 409.273 304.827 409.832C306.984 403.933 312.32 399.827 317.936 397.442C322.325 395.557 327.477 395.693 331.715 397.934C336.695 394.103 342.267 390.956 348.342 389.243C348.31 385.021 348.006 380.704 346.461 376.733C345.674 374.693 344.412 372.811 342.646 371.493C340.102 369.568 338.509 366.728 336.991 363.989C334.591 359.435 332.622 354.667 330.844 349.838C329.834 354.239 330.816 358.9 329.342 363.21C328.088 366.904 322.808 367.839 320.036 365.315C317.32 362.91 316.414 359.112 316.226 355.625C315.986 352.498 317.057 349.47 318.439 346.719C320.316 343.032 322.8 339.689 325.508 336.57C326.307 335.951 325.736 334.984 325.604 334.201C321.227 332.783 317.62 329.444 315.671 325.303C314.053 322.048 313.374 318.429 313.103 314.834C311.074 313.369 309.285 311.368 308.733 308.863C307.994 305.948 309.289 302.924 311.198 300.751C312.608 299.126 314.832 298.052 317.005 298.527C318.658 298.794 320.036 299.813 321.338 300.807C324.969 298.355 328.899 296.035 333.332 295.519C339.228 294.389 345.882 294.038 351.054 297.616ZM352.604 298.854C355.767 301.95 357.784 306.04 358.846 310.301C360.508 309.674 362.405 308.963 363.144 307.19C364.154 304.71 363.451 301.846 362.189 299.589C361.374 298.195 360.24 296.682 358.519 296.474C356.286 296.314 354.241 297.44 352.604 298.854ZM335.098 297.221C332.258 297.608 329.422 298.259 326.922 299.713C322.053 302.285 317.109 305.988 315.515 311.515C314.593 315.421 315.511 319.539 316.901 323.23C318.463 327.188 321.558 330.639 325.616 332.1C330.792 334.018 336.512 333.139 341.644 331.521C346.904 329.892 351.968 326.944 355.056 322.271C357.708 318.169 357.84 312.841 356.198 308.336C354.768 304.282 352.268 300.32 348.338 298.319C344.26 296.246 339.483 296.526 335.098 297.221ZM312.052 302.844C310.93 304.438 310.123 306.475 310.658 308.436C311.01 310.054 312.116 311.34 313.243 312.494C313.962 308.292 316.594 304.757 319.757 302.026C318.547 301.247 317.265 300.3 315.751 300.384C314.189 300.492 312.911 301.61 312.052 302.844ZM355.455 326.549C357.205 328.574 358.954 330.631 361.011 332.356C361.614 332.923 362.509 332.787 363.272 332.903C367.333 333.051 371.272 334.173 375.297 334.677C375.345 333.774 375.417 332.875 375.497 331.981C374.658 331.961 373.828 331.945 372.997 331.917C373.005 331.509 373.021 331.106 373.037 330.707C373.928 330.675 374.83 330.655 375.729 330.627C375.785 330.155 375.849 329.696 375.917 329.237C375.333 329.193 374.75 329.149 374.179 329.109C374.211 328.682 374.247 328.258 374.291 327.839C374.934 327.859 375.589 327.895 376.24 327.935C376.695 326.792 377.175 325.662 377.638 324.524C370.261 322.387 362.597 324.512 355.455 326.549ZM377.626 328.023C378.149 328.438 378.648 328.909 378.924 329.552C378.157 329.692 377.418 329.852 376.671 330.032C377.326 330.327 377.962 330.615 378.621 330.938C378.129 331.473 377.49 331.809 376.831 332.088C376.715 332.991 376.616 333.894 376.532 334.804C378.489 334.84 380.614 335.024 382.379 333.994C383.996 333.087 384.919 330.942 384.112 329.201C383.118 327.12 380.989 325.978 379.012 325.007C378.493 325.982 378.037 326.992 377.626 328.023ZM352.608 328.043C354.852 330.954 356.865 334.069 359.429 336.725C361.318 338.707 363.947 339.649 366.107 341.267C368.576 343.152 371.104 345.077 372.729 347.781C373.237 347.262 373.764 346.766 374.315 346.291C373.924 346.882 373.504 347.457 373.073 348.025C373.348 348.332 373.688 348.576 374.031 348.831C374.622 350.345 375.992 351.391 376.516 352.949C375.573 351.867 374.802 350.657 374.023 349.462C373.58 349.618 373.141 349.782 372.705 349.946C372.949 349.686 373.432 349.171 373.676 348.911C373.38 348.859 372.789 348.755 372.494 348.7C372.266 349.063 372.042 349.426 371.823 349.794C371.839 349.59 371.871 349.183 371.887 348.979C371.998 348.731 372.214 348.232 372.322 347.985C371.295 345.456 368.811 343.871 366.658 342.329C366.183 342.705 365.712 343.084 365.233 343.455C365.628 342.972 366.035 342.497 366.451 342.03C363.807 339.829 360.328 338.742 358.103 336.039C356.034 333.546 354.153 330.906 352.448 328.154C348.382 331.322 343.513 333.303 338.509 334.405C335.006 335.22 331.347 335.38 327.793 334.8C330.744 344.15 333.92 353.484 338.317 362.267C340.086 365.706 342.171 369.221 345.59 371.254C347.04 371.869 348.645 372.068 350.047 372.835C348.837 372.863 347.639 372.771 346.449 372.6C348.01 374.792 348.941 377.373 349.476 380.001C350.487 384.741 350.335 389.614 350.311 394.435C352.835 393.568 355.551 393.516 358.155 394.024C358.475 393.269 358.798 392.518 359.138 391.775C359.353 391.811 359.789 391.887 360.004 391.923C359.921 392.821 359.737 393.708 359.521 394.591C360.528 395.138 361.538 395.685 362.529 396.268C364.801 393.321 365.983 389.674 366.359 386.004C366.99 381.111 366.215 376.182 365.277 371.382C360.779 372.512 356.05 373.151 351.437 372.416C352.815 371.917 354.261 371.705 355.715 371.593C359.118 371.302 362.313 370.02 365.592 369.157C367.162 368.789 368.42 367.767 369.766 366.956C370.752 366.896 371.547 367.623 372.278 368.194C377.322 372.747 381.368 378.738 387.767 381.546C387.931 380.344 388.134 379.154 388.35 377.968C387.639 377.708 386.932 377.444 386.229 377.197C386.217 376.789 386.213 376.386 386.209 375.991C387.14 376.182 388.058 376.442 388.977 376.714C389.061 376.226 389.149 375.743 389.241 375.264C388.618 375.028 387.994 374.788 387.383 374.553C387.435 374.161 387.491 373.778 387.555 373.394C388.386 373.622 389.213 373.862 390.043 374.125C391.681 371.378 394.257 369.329 397.049 367.831C393.027 362.499 387.28 358.92 382.351 354.531C381.089 353.361 379.707 352.118 379.24 350.401C378.828 348.935 378.385 347.449 377.49 346.199C375.517 343.296 372.881 340.827 369.834 339.082C367.785 337.852 365.257 337.824 363.248 336.518C359.377 334.113 356.386 330.611 353.382 327.244C353.191 327.443 352.803 327.843 352.608 328.043ZM319.106 350.089C317.848 353.069 318.035 356.42 318.782 359.507C320.667 358.776 322.672 358.421 324.701 358.501C324.821 357.482 324.981 356.472 325.173 355.469C325.544 355.493 325.916 355.517 326.295 355.545C326.255 356.576 326.171 357.606 326.059 358.633C326.766 358.852 327.481 359.068 328.196 359.284C328.396 355.218 328.016 350.94 329.814 347.154C328.791 344.166 327.733 341.191 326.794 338.175C323.631 341.698 320.859 345.668 319.106 350.089ZM319.206 360.757C319.813 361.892 320.392 363.118 321.45 363.921C322.856 365.067 325.037 364.999 326.483 363.953C327.441 363.19 327.653 361.9 328.02 360.805C327.373 360.538 326.73 360.27 326.087 360.019C326.071 361.037 326.063 362.063 326.019 363.09C325.624 363.034 325.229 362.978 324.841 362.93C324.805 361.884 324.777 360.841 324.749 359.807C322.852 359.731 320.979 360.094 319.206 360.757ZM391.305 374.952C391.849 375.308 392.396 375.663 392.951 376.019C392.947 376.306 392.947 376.602 392.951 376.897C392.731 376.917 392.292 376.953 392.072 376.973C391.593 376.745 391.122 376.522 390.654 376.302C390.599 376.55 390.491 377.049 390.435 377.301C391.174 377.632 391.917 377.968 392.663 378.307C392.608 378.675 392.552 379.046 392.504 379.421C391.589 379.182 390.686 378.874 389.796 378.579C389.596 379.669 389.456 380.767 389.364 381.874C390.519 381.818 391.701 381.798 392.811 381.422C397.604 379.849 400.316 373.654 397.868 369.157C395.252 370.519 392.871 372.42 391.305 374.952ZM333.668 399.188C335.533 400.953 337.89 402.623 338.437 405.303C337.806 405.363 337.179 405.418 336.552 405.474C334.335 402.275 331.188 399.507 327.309 398.633C323.483 397.678 319.473 398.848 316.126 400.737C313.095 402.483 310.183 404.676 308.306 407.683C306.92 409.756 306.493 412.284 306.652 414.74C305.934 414.728 305.223 414.724 304.512 414.72C304.512 413.794 304.52 412.871 304.528 411.953C300.745 411.493 296.803 412.771 294.155 415.539C291.459 418.343 289.406 421.982 289.079 425.908C288.54 432.226 292.266 438.205 297.279 441.78C297.866 440.218 298.233 438.573 298.964 437.075C299.487 436.025 301.249 436.807 300.889 437.906C300.31 440.015 299.2 442.024 299.331 444.284C299.188 445.99 300.33 447.439 301.572 448.466C304 450.275 307.112 451.298 310.143 450.778C312.076 450.247 313.894 449.209 315.112 447.587C315.651 446.709 316.841 447.296 317.125 448.094C318.215 450.675 320.5 452.664 323.088 453.662C328.072 455.18 333.62 454.972 338.453 452.999C340.737 452.164 342.487 450.315 343.469 448.122C342.698 446.84 341.784 445.434 341.928 443.877C342.283 443.409 342.75 443.234 343.337 443.35C344.328 444.224 344.236 445.874 345.43 446.557C348.026 448.194 351.106 448.781 354.093 449.281C357.68 449.82 361.346 449.117 364.629 447.635C367.194 446.241 368.919 443.701 370.125 441.113C370.884 439.603 370.672 437.886 370.808 436.268C370.872 435.397 371.974 435.453 372.522 435.837C373.324 437.315 372.945 439.096 372.606 440.658C371.763 443.382 370.053 445.746 368.164 447.843C369.247 449.74 370.752 451.405 372.729 452.388C377.119 454.848 382.203 456.031 387.232 455.807C390.151 456.122 393.039 455.248 395.543 453.782C397.648 452.496 398.742 450.139 399.645 447.943C400.444 447.939 401.558 448.062 401.522 449.125C401.231 450.311 400.48 451.322 399.933 452.4C402.936 454.928 406.866 456.358 410.804 456.19C413.848 456.338 417.023 455.272 419.144 453.043C420.346 451.242 421.209 449.233 422.379 447.415C423.086 446.772 423.773 447.627 424.26 448.11C423.729 449.616 422.902 450.986 422.047 452.328C428.793 452.839 435.667 449.253 439.118 443.437C440.432 440.706 442.017 437.838 441.662 434.699C441.67 431.036 440.28 427.517 438.015 424.674C436.506 422.193 433.43 421.39 430.702 421.375C430.838 422.329 431.17 423.288 431.078 424.266C430.954 424.961 430.107 425.101 429.54 424.905C428.853 423.975 428.741 422.792 428.462 421.714C427.899 419.098 426.768 416.666 425.742 414.213C425.019 412.5 424.048 410.894 422.734 409.572C418.097 403.845 410.377 401.52 403.22 401.88C398.618 402.203 393.81 402.814 389.832 405.331C387.579 406.693 385.886 408.753 384.488 410.95C383.988 410.918 383.489 410.886 383.002 410.866C382.758 408.254 385.131 406.545 386.716 404.835C381.5 398.864 374.814 394.044 367.214 391.627C365.88 395.246 363.727 399.164 359.829 400.438C356.306 401.117 352.228 400.298 349.72 397.594C348.182 395.969 348.262 393.616 348.298 391.539C342.982 393.125 338.097 395.893 333.668 399.188ZM350.79 395.925C353.418 398.736 358.175 399.727 361.45 397.47C360.596 396.955 359.729 396.464 358.858 395.985C358.503 396.564 358.143 397.143 357.788 397.726C357.564 397.714 357.109 397.686 356.881 397.67C357.029 396.911 357.213 396.156 357.428 395.417C355.204 395.142 352.915 395.134 350.79 395.925Z" fill="black"/>
<path d="M355.813 299.777C356.708 299.565 357.615 299.445 358.533 299.382C359.731 300.855 360.287 302.721 359.855 304.61C359.416 303.04 359.164 301.387 358.23 300.009C357.419 299.945 356.612 299.873 355.813 299.777Z" fill="black"/>
<path d="M341.922 309.462C343.048 309.359 345.029 309.427 345.061 310.924C344.462 312.19 342.968 311.04 341.954 310.956C341.946 310.581 341.93 309.838 341.922 309.462Z" fill="black"/>
<path d="M321.924 313.536C322.543 313.005 323.574 312.765 324.001 313.668C323.498 315.058 322.263 316.38 320.65 315.965C320.937 315.102 321.093 314.063 321.924 313.536Z" fill="black"/>
<path d="M338.567 316.148C339.917 313.82 342.849 313.584 345.253 313.864C345.992 314 346.507 314.611 347.11 315.026C345.441 315.266 343.743 314.942 342.094 315.306C340.912 315.557 339.761 315.949 338.567 316.148Z" fill="black"/>
<path d="M322.972 319.34C323.343 318.193 323.998 316.999 325.336 316.855C326.47 316.608 328.579 316.408 328.875 317.898C326.798 317.886 324.789 318.313 322.972 319.34Z" fill="black"/>
<path d="M331.143 317.978C332.793 316.54 335.197 316.947 337.198 317.147C337.222 318.561 336.363 319.683 335.684 320.842C334.882 321.996 335.912 323.777 337.258 323.853C338.225 324.029 339.051 323.426 339.874 323.022C339.874 322.359 339.89 321.704 339.902 321.049C340.322 321.061 340.745 321.081 341.172 321.109C341.164 321.868 341.26 322.651 341.048 323.398C340.469 324.508 339.171 324.876 338.101 325.327C336.651 327.408 333.564 327.803 331.698 326.058C330.568 325.882 329.19 326.014 328.367 325.067C327.692 324.34 327.896 323.278 327.908 322.387C328.747 322.731 329.126 323.534 329.442 324.316C330.38 324.52 331.511 324.975 332.369 324.292C333.28 323.657 333.188 322.439 333.328 321.469C332.218 320.626 330.84 319.567 331.143 317.978ZM332.27 318.497C332.821 319.232 333.488 319.867 334.175 320.49C334.726 319.731 335.273 318.972 335.808 318.206C334.622 318.237 333.444 318.329 332.27 318.497ZM334.486 323.689C333.903 324.536 333.228 325.319 332.537 326.082C333.224 326.257 333.919 326.445 334.614 326.645C335.505 326.293 336.379 325.894 337.234 325.463C336.252 324.971 335.317 324.404 334.486 323.689Z" fill="black"/>
<path d="M93.2518 337.409C94.0426 336.75 94.8933 335.803 96.0436 336.111C97.5374 336.45 97.7171 338.435 97.2099 339.633C96.5309 341.183 95.5324 342.565 94.6457 344.003C92.9602 343.1 91.139 342.205 89.9527 340.652C89.122 339.617 89.1499 337.892 90.3601 337.161C91.2628 336.522 92.3491 337.081 93.2518 337.409Z" fill="black"/>
<path d="M398.692 340.58C397.87 338.946 398.545 336.586 400.47 336.171C401.812 335.727 402.918 336.75 403.797 337.612C404.715 337.093 405.674 336.41 406.788 336.538C407.783 336.626 408.709 337.405 408.829 338.427C409.029 339.925 408.334 341.423 407.26 342.445C405.966 343.679 404.679 344.917 403.369 346.136C401.5 344.602 399.723 342.789 398.692 340.58Z" fill="black"/>
<path d="M345.645 339.781C346.551 338.435 347.522 336.781 349.275 336.494C350.441 336.182 351.791 336.606 352.494 337.612C353.525 339.222 353.864 341.311 353.205 343.132C352.251 345.836 351.104 348.48 349.826 351.048C348.033 350.657 346.324 349.966 344.722 349.079C342.745 348.124 340.592 347.054 339.546 345.009C338.435 343.124 338.995 340.388 340.956 339.294C342.461 338.519 344.243 338.99 345.645 339.781Z" fill="black"/>
<path d="M51.318 344.809C55.5317 343.891 60.1687 343.276 64.2146 345.181C67.0104 346.427 69.0673 348.835 70.5331 351.459C74.4992 349.686 78.8766 348.045 83.286 348.883C86.3614 349.427 88.4902 352.039 89.7923 354.703C91.4458 357.99 91.5536 362.072 89.7763 365.331C88.9934 366.896 87.5037 368.023 86.9885 369.732C84.9036 375.591 80.2665 380.823 74.1238 382.465C68.2845 384.063 62.1258 382.569 56.7139 380.204C55.4118 382.445 53.5267 384.434 51.0304 385.313C46.2336 387.082 40.9495 385.772 36.4043 383.863C34.9465 383.148 33.285 383.376 31.7354 383.08C28.9196 382.681 26.1637 381.179 24.6939 378.683C22.4453 374.769 22.9366 369.516 25.8442 366.07C28.7838 362.463 33.293 360.785 37.5906 359.448C38.2855 357.271 38.7009 354.97 39.9031 352.985C42.2036 348.68 46.633 345.868 51.318 344.809ZM46.4653 349.135C43.6255 350.852 41.5926 353.708 40.606 356.851C40.0589 358.449 39.943 360.166 39.296 361.736C37.0274 361.696 34.8986 362.583 32.8736 363.513C30.3774 364.704 27.993 366.397 26.5951 368.841C24.658 372.324 25.1412 377.636 28.8237 379.789C32.1707 381.65 36.3125 381.355 39.8592 380.232C40.1028 380.348 40.5941 380.572 40.8377 380.684C40.8257 381.023 40.7978 381.702 40.7858 382.042C40.2945 382.277 39.8072 382.517 39.32 382.757C42.8507 383.727 46.7209 384.57 50.2795 383.264C52.2246 382.581 53.6425 381.003 54.7249 379.314C53.4468 378.627 51.6255 377.976 51.9211 376.186C53.9261 375.927 55.5157 377.353 57.273 378.048C62.5931 380.436 68.7957 382.034 74.5032 380.053C78.8487 378.607 82.0479 374.992 84.1407 371.042C83.5017 371.082 82.8626 371.114 82.2236 371.15C82.2116 370.739 82.1877 369.924 82.1757 369.512C84.1847 368.342 86.2136 367.004 87.4518 364.971C89.3529 362.127 89.257 358.261 87.6475 355.31C86.637 353.401 85.1432 351.432 82.8826 351.036C78.9046 350.357 74.9865 351.839 71.4318 353.468C72.1387 355.633 72.8816 357.858 72.6939 360.174C72.0788 360.182 71.4677 360.19 70.8567 360.194C70.1937 356.432 69.2191 352.486 66.5551 349.598C64.5621 347.346 61.5586 346.096 58.5631 346.159C54.3894 346.171 50.0639 346.918 46.4653 349.135Z" fill="black"/>
<path d="M373.763 358.146C374.458 356.137 375.788 354.415 377.418 353.077C376.379 354.551 375.209 355.941 374.398 357.562C373.56 360.011 372.661 362.439 371.85 364.899C371.802 362.499 372.968 360.342 373.763 358.146Z" fill="black"/>
<path d="M113.325 357.303C114.296 356.128 115.546 354.77 117.224 354.95C118.414 354.938 119.484 355.869 119.764 357.007C120.259 358.721 119.9 360.626 118.925 362.115C117.795 363.901 116.772 365.754 115.638 367.539C113.509 366.812 111.696 365.47 109.891 364.18C108.557 363.166 107.394 361.74 107.123 360.047C106.859 358.253 108.249 356.448 110.026 356.192C111.249 356.025 112.319 356.72 113.325 357.303Z" fill="black"/>
<path d="M56.6228 361.52C58.0926 361.165 59.6862 360.394 61.188 361.017C62.5419 361.668 62.7257 363.314 62.8295 364.644C62.3582 364.632 61.8869 364.636 61.4196 364.632C61.184 363.817 60.9283 363.018 60.6488 362.227C59.3427 362.419 58.0527 362.695 56.7666 362.99C56.7147 362.495 56.6667 362.004 56.6228 361.52Z" fill="black"/>
<path d="M63.5732 365.39C64.36 365.478 65.3106 365.199 65.9416 365.818C67.0879 366.824 67.2037 368.514 66.6765 369.872C66.325 369.684 65.9736 369.496 65.6261 369.316C65.4743 368.546 65.3066 367.779 65.1268 367.02C64.5876 366.992 64.0524 366.968 63.5212 366.948C63.5332 366.557 63.5612 365.778 63.5732 365.39Z" fill="black"/>
<path d="M343.224 366.405C344.757 367.583 346.698 367.779 348.52 368.21C346.83 368.502 345.177 368.063 343.699 367.268C343.579 367.052 343.343 366.621 343.224 366.405Z" fill="black"/>
<path d="M108.9 378.81C114.383 375.18 121.257 374.585 127.66 374.988C133.778 375.411 140.085 377.912 143.763 383.02C145.145 384.841 146.036 386.966 146.731 389.131C152.762 386.507 159.731 384.933 166.15 387.078C172.832 389.231 177.521 395.194 179.897 401.588C184.99 400.45 190.553 399.779 195.482 401.936C200.275 403.933 203.474 408.658 204.544 413.622C204.904 419.889 203.494 426.711 198.837 431.232C193.98 436.045 186.795 437.335 180.205 437.223C179.198 441.656 177.964 446.201 175.244 449.928C171.498 455.224 164.193 457.037 158.114 455.419C153.245 454.125 149.023 451.138 145.417 447.707C143.288 451.925 139.725 455.507 135.212 457.085C130.152 458.882 124.536 458.699 119.416 457.237C114.835 455.903 110.785 453.027 107.837 449.297C102.997 451.286 97.4049 452.001 92.4284 450.067C85.9421 447.631 81.365 441.848 78.5213 435.729C72.7699 437.55 66.4674 436.867 60.9157 434.687C59.2062 434.039 57.8004 432.825 56.5662 431.519C55.3201 430.173 54.042 428.787 53.387 427.05C52.2087 424.027 51.374 420.807 51.4938 417.54C51.5977 415.659 51.0824 413.698 51.7654 411.885C53.2831 407.479 56.1309 403.621 59.5258 400.474C63.404 396.951 68.7919 395.537 73.9481 395.833C76.9796 391.376 81.2612 387.154 86.8168 386.351C92.021 385.756 97.361 385.688 102.477 386.958C103.835 383.727 105.916 380.723 108.9 378.81ZM112.011 379.525C108.576 381.127 106.004 384.154 104.566 387.621C108.193 389.099 111.847 392.106 111.935 396.34C111.568 396.548 111.204 396.763 110.845 396.987C110.553 396.791 110.266 396.6 109.982 396.412C109.427 393.68 107.53 391.395 105.002 390.257C99.6136 387.749 93.4429 387.921 87.6596 388.456C82.8548 388.891 79.1443 392.47 76.3805 396.136C78.9726 396.7 81.5967 397.331 83.9411 398.629C83.9092 399.168 83.8812 399.707 83.8493 400.254C81.7205 400.302 79.8673 399.088 77.8183 398.7C73.9801 397.898 69.8583 397.67 66.1239 399.056C63.2761 400.07 60.7839 401.948 58.8588 404.26C56.5303 407.012 54.3455 410.095 53.6226 413.694C52.9596 418.175 53.6386 422.836 55.5118 426.958C56.3665 428.548 57.6646 429.846 58.9426 431.1C60.4564 432.598 62.5372 433.257 64.5343 433.828C68.5362 434.862 72.8418 435.282 76.8598 434.111C79.0405 433.476 81.2332 432.845 83.3021 431.895C84.5802 431.367 85.7464 430.509 87.1603 430.393C87.0964 431.068 87.376 432.011 86.6131 432.402C84.7999 433.64 82.6391 434.247 80.6261 435.09C83.2023 440.478 87.1843 445.614 92.8717 447.899C97.2492 449.7 102.21 449.133 106.543 447.487C105.161 444.975 103.596 442.383 103.296 439.483C103.18 438.437 104.946 438.077 105.169 439.12C105.96 441.117 106.547 443.218 107.678 445.071C110.361 449.952 114.967 453.786 120.374 455.24C125.031 456.49 130.132 456.634 134.697 454.952C138.907 453.398 142.154 449.86 143.867 445.774C144.542 444.34 144.862 442.774 145.501 441.337C145.864 440.382 147.594 440.813 147.394 441.848C147.266 443.13 146.759 444.34 146.363 445.562C149.287 448.486 152.654 451.062 156.52 452.608C161.537 454.673 167.915 454.125 171.985 450.339C175.528 446.884 176.834 441.912 177.976 437.259C177.029 437.067 176.147 436.688 175.536 435.913C176.031 435.565 176.39 434.794 177.089 434.882C179.646 434.894 182.206 435.154 184.758 434.858C189.403 434.431 194.184 432.901 197.507 429.482C201.541 425.317 202.879 419.114 202.196 413.49C201.617 410.722 200.119 408.146 198.09 406.189C194.991 403.29 190.521 402.423 186.407 402.754C180.98 403.254 175.556 404.799 170.967 407.803C169.245 408.897 167.831 410.387 166.294 411.717C165.834 411.501 165.379 411.29 164.924 411.086C165.167 410.391 165.395 409.652 165.938 409.125C169.161 405.762 173.455 403.677 177.804 402.171C175.847 397.271 172.636 392.602 167.835 390.149C163.05 387.645 157.323 387.877 152.283 389.426C150.21 390.109 147.981 390.645 146.34 392.17C145.944 392.15 145.549 392.13 145.157 392.118C144.562 389.195 143.612 386.271 141.706 383.927C138.391 379.601 132.9 377.596 127.616 377.181C122.348 376.801 116.828 377.201 112.011 379.525Z" fill="black"/>
<path d="M33.5849 395.973C34.7352 394.363 36.4127 392.658 38.5774 392.901C40.1071 392.813 41.4451 394.04 41.8605 395.449C42.9029 397.974 41.8166 400.758 40.4147 402.91C39.0607 404.939 37.9863 407.14 36.6443 409.177C33.9004 408.773 31.8236 406.804 29.5709 405.367C28.0572 404.392 26.7871 403.038 25.9803 401.425C24.9499 399.376 25.3173 396.504 27.3822 395.238C29.2874 393.736 31.8196 394.782 33.5849 395.973Z" fill="black"/>
<path d="M131.379 397.319C132.784 395.893 134.901 395.25 136.87 395.489C138.296 395.861 139.043 397.482 139.103 398.844C138.927 399.016 138.572 399.36 138.396 399.535C137.677 398.797 137.242 397.854 136.758 396.963C135.341 397.011 133.751 397.143 132.713 398.241C131.958 398.844 131.442 400.107 130.276 399.707C129.929 398.697 130.747 397.966 131.379 397.319Z" fill="black"/>
<path d="M142.134 403.801C143.184 403.262 144.335 402.647 145.561 402.934C146.859 403.338 147.67 404.771 147.366 406.105C146.1 406.736 145.916 405.275 145.469 404.476C144.347 404.496 143.28 404.863 142.206 405.151C142.178 404.696 142.154 404.244 142.134 403.801Z" fill="black"/>
<path d="M98.1318 408.53C98.1957 406.932 99.0425 405.075 100.84 404.931C101.946 404.688 104.231 404.891 103.196 406.557C102.262 406.513 101.327 406.501 100.396 406.513C100.053 407.224 99.7214 407.943 99.3979 408.67C98.9746 408.618 98.5512 408.574 98.1318 408.53Z" fill="black"/>
<path d="M327.216 425.516C327.328 423.408 328.662 421.431 330.539 420.488C331.29 420.328 331.681 420.903 331.913 421.526C331.342 422.769 329.924 423.44 329.54 424.793C329.105 426.323 329.844 427.817 329.992 429.331C329.428 429.319 328.861 429.387 328.318 429.255C327.232 428.364 327.104 426.818 327.216 425.516Z" fill="black"/>
<path d="M394.234 422.621C396.067 422.233 398.108 422.385 399.689 423.475C401.934 424.949 402.933 427.709 403.136 430.285C403.152 431.416 403.36 432.793 402.441 433.656C401.93 433.872 400.936 433.792 400.963 433.081C400.908 431.06 401.091 428.911 400.053 427.082C399.234 425.317 397.153 424.23 395.248 424.738C394.425 424.873 393.658 425.401 392.812 425.245C391.925 424.071 392.892 422.681 394.234 422.621Z" fill="black"/>
<path d="M323.411 434.303C323.335 433.393 323.778 432.051 324.853 432.019C325.907 431.867 325.787 433.221 325.943 433.916C326.283 434.415 326.802 434.874 326.79 435.545C325.835 436.975 323.423 435.857 323.411 434.303Z" fill="black"/>
<path d="M403.414 435.973C403.231 435.226 403.718 434.507 404.477 434.423C406.641 434.032 408.479 436.708 407.56 438.629C407.085 439.527 405.727 439.991 404.996 439.116C404.94 438.445 405.327 437.858 405.547 437.259C405.471 437.147 405.323 436.927 405.248 436.815C404.609 436.584 403.922 436.44 403.414 435.973Z" fill="black"/>
</svg>
