<svg width="400" height="390" viewBox="0 0 400 390" fill="none" xmlns="http://www.w3.org/2000/svg">
<rect x="399.762" y="451.763" width="446.891" height="429.586" rx="60" transform="rotate(135 399.762 451.763)" fill="#6F026D"/>
<path d="M-30.0144 34.2849C-29.1744 34.4249 -22.7346 34.7049 -16.2948 18.6054C-12.6549 9.5057 -7.61509 4.46586 -2.29526 3.76588C2.4646 3.2059 8.06441 6.00581 13.2442 12.3056C13.9442 13.1456 15.2042 13.2856 16.0442 12.7256C17.0241 12.1656 17.1641 11.0456 16.4641 10.2057C10.3043 2.64591 3.44457 -0.713978 -2.99523 0.125996C-9.99501 0.96597 -16.0148 6.84578 -20.0747 17.3454C-25.1146 30.505 -29.5944 30.645 -29.7344 30.645C-29.7344 30.645 -29.7344 30.645 -29.5944 30.645C-30.5744 30.505 -31.5543 31.345 -31.6943 32.325C-31.6943 33.305 -30.9944 34.1449 -30.0144 34.2849Z" fill="#A01918"/>
<path d="M-14.3422 24.3458C-7.48242 30.7856 -2.02258 33.7255 3.29725 33.0255C9.17707 32.3255 14.4969 27.5657 20.9367 18.186C28.9164 6.56632 34.7963 8.66625 34.9363 8.66625C34.9363 8.66625 34.9363 8.66625 34.7963 8.66625C35.7762 9.08624 37.1762 8.80625 37.5962 7.96628C38.1562 7.1263 37.7362 6.00634 36.6162 5.58635C35.7762 5.16637 26.9565 1.80647 17.4368 16.366C11.977 24.6258 7.49712 29.1056 2.87726 29.5256C-1.18261 29.9456 -5.80247 27.2857 -11.5423 21.8258C-12.2423 21.1259 -13.5022 21.1259 -14.3422 21.8258C-15.0422 22.5258 -15.0422 23.6458 -14.3422 24.3458Z" fill="#34ADB7"/>
<path d="M21.2106 23.5055C25.6905 34.0052 34.5102 35.5451 34.9302 35.6851C35.9102 35.8251 36.8902 35.2651 37.0302 34.2852C37.1701 33.3052 36.6102 32.3252 35.6302 32.1852C35.3502 32.1852 28.3504 30.7853 24.8505 22.3855C24.4305 21.4056 23.3106 20.9856 22.3306 21.2656C21.3506 21.5456 20.9306 22.6655 21.2106 23.5055Z" fill="#A01918"/>
<path d="M31.0108 362.715C30.1708 362.575 23.731 362.296 17.2912 378.395C13.6513 387.495 8.61148 392.535 3.29164 393.235C-1.46821 393.795 -7.06805 390.995 -12.2479 384.695C-12.9479 383.855 -14.2078 383.715 -15.0478 384.275C-16.0278 384.835 -16.1678 385.955 -15.4678 386.795C-9.30798 394.354 -2.44818 397.714 3.99162 396.874C10.9914 396.034 17.0112 390.155 21.0711 379.655C26.1109 366.495 30.5908 366.355 30.7308 366.355C30.7308 366.355 30.7308 366.355 30.5908 366.355C31.5708 366.495 32.5507 365.655 32.6907 364.675C32.6907 363.695 31.9907 362.855 31.0108 362.715Z" fill="#A01918"/>
<path d="M43.338 388.755C43.058 387.775 41.9381 387.355 40.8181 387.635C40.5381 387.775 31.9984 389.595 26.1186 382.595C25.4186 381.755 24.1586 381.615 23.3187 382.315C22.3387 382.875 22.1987 383.995 22.7587 384.835C30.1785 393.795 41.3781 391.275 41.7981 391.135C42.9181 390.715 43.618 389.595 43.338 388.755Z" fill="#34ADB7"/>
<path d="M15.3318 372.655C8.47202 366.216 3.0122 363.276 -2.30763 363.976C-8.18744 364.676 -13.5073 369.435 -19.9471 378.815C-27.9268 390.435 -33.8067 388.335 -33.9466 388.335C-33.9466 388.335 -33.9466 388.335 -33.8066 388.335C-34.7866 387.915 -36.1866 388.195 -36.6066 389.035C-37.1665 389.875 -36.7466 390.995 -35.6266 391.415C-34.7866 391.835 -25.9669 395.195 -16.4472 380.635C-10.9874 372.375 -6.50751 367.895 -1.88766 367.475C2.17221 367.055 6.79208 369.715 12.5319 375.175C13.2319 375.875 14.4918 375.875 15.3318 375.175C16.0318 374.475 16.0318 373.355 15.3318 372.655Z" fill="#34ADB7"/>
<path d="M164.712 168.122C164.572 168.962 164.292 175.402 180.392 181.842C189.492 185.482 194.531 190.521 195.231 195.841C195.791 200.601 192.991 206.201 186.692 211.381C185.852 212.081 185.712 213.341 186.272 214.181C186.832 215.161 187.952 215.301 188.792 214.601C196.351 208.441 199.711 201.581 198.871 195.141C198.031 188.141 192.151 182.122 181.652 178.062C168.492 173.022 168.352 168.542 168.352 168.402C168.352 168.402 168.352 168.402 168.352 168.542C168.492 167.562 167.652 166.582 166.672 166.442C165.692 166.442 164.852 167.142 164.712 168.122Z" fill="#A01918"/>
<path d="M190.613 155.662C189.633 155.942 189.213 157.062 189.493 158.182C189.633 158.462 191.453 167.001 184.453 172.881C183.613 173.581 183.473 174.841 184.173 175.681C184.733 176.661 185.853 176.801 186.693 176.241C195.652 168.821 193.133 157.622 192.993 157.202C192.573 156.222 191.593 155.382 190.613 155.662Z" fill="#34ADB7"/>
<path d="M174.66 183.661C168.22 190.521 165.28 195.981 165.98 201.3C166.68 207.18 171.44 212.5 180.82 218.94C192.44 226.92 190.34 232.799 190.34 232.939C190.34 232.939 190.34 232.939 190.34 232.799C189.92 233.779 190.2 235.179 191.04 235.599C191.88 236.159 193 235.739 193.42 234.619C193.84 233.779 197.2 224.96 182.64 215.44C174.38 209.98 169.9 205.5 169.48 200.88C169.06 196.821 171.72 192.201 177.18 186.461C177.88 185.761 177.88 184.501 177.18 183.661C176.48 182.961 175.36 182.961 174.66 183.661Z" fill="#34ADB7"/>
<path d="M175.494 219.359C164.995 223.839 163.455 232.659 163.315 233.079C163.175 234.059 163.735 235.039 164.715 235.179C165.695 235.319 166.675 234.759 166.815 233.779C166.815 233.499 168.215 226.499 176.614 222.999C177.594 222.579 178.014 221.459 177.734 220.479C177.454 219.359 176.474 218.939 175.494 219.359Z" fill="#A01918"/>
<path d="M163.869 233.498C163.449 234.198 160.649 240.078 173.109 252.118C180.109 258.978 182.908 265.557 181.508 270.737C180.249 275.357 175.489 279.417 167.649 281.797C166.669 282.077 165.969 283.197 166.109 284.317C166.249 285.437 167.229 285.997 168.209 285.717C177.589 282.917 183.188 277.877 185.008 271.577C186.828 264.717 183.888 257.018 175.629 249.178C165.409 239.518 167.089 235.318 167.089 235.178C167.089 235.178 167.089 235.178 167.089 235.318C167.509 234.478 167.229 233.218 166.389 232.798C165.409 232.378 164.289 232.658 163.869 233.498Z" fill="#A01918"/>
<path d="M192.567 232.099C191.587 231.959 190.747 232.799 190.467 234.059C190.467 234.479 188.927 242.878 180.108 245.678C179.128 245.958 178.568 247.078 178.708 248.198C178.848 249.318 179.828 249.878 180.808 249.598C191.867 246.238 193.967 234.899 193.967 234.479C194.107 233.219 193.547 232.239 192.567 232.099Z" fill="#34ADB7"/>
<path d="M166.945 251.838C158.406 255.758 153.646 259.538 152.106 264.718C150.426 270.317 152.946 277.177 159.106 286.697C166.805 298.456 162.605 303.216 162.605 303.216C161.765 304.056 161.485 305.316 162.045 306.156C162.605 306.996 163.725 306.996 164.705 306.296C165.405 305.596 171.845 298.876 162.185 284.457C156.726 276.337 154.346 270.317 155.606 265.977C156.726 262.058 160.925 258.838 168.345 255.618C169.325 255.198 169.745 254.078 169.325 253.098C168.905 251.838 167.925 251.418 166.945 251.838Z" fill="#34ADB7"/>
<path d="M154.088 285.017C142.748 285.157 137.848 292.717 137.568 292.997C137.008 293.837 137.288 294.957 137.988 295.517C138.828 296.077 139.948 295.797 140.508 294.957C140.648 294.677 144.708 288.797 153.808 288.797C154.788 288.797 155.768 287.957 155.768 286.837C155.908 285.717 155.068 284.877 154.088 285.017Z" fill="#A01918"/>
<path d="M137.966 293.276C137.266 293.836 132.507 298.036 139.366 314.135C143.286 323.095 143.286 330.235 139.926 334.435C136.987 338.215 131.107 340.174 122.847 339.335C121.867 339.195 120.747 340.034 120.467 341.014C120.187 341.994 120.887 342.974 121.867 343.114C131.667 344.094 138.806 341.574 142.726 336.395C147.066 330.795 147.206 322.395 142.586 312.175C136.847 299.296 139.926 296.076 140.066 295.936C140.766 295.236 141.046 294.116 140.346 293.416C139.926 292.856 138.806 292.716 137.966 293.276Z" fill="#A01918"/>
<path d="M165.132 302.936C164.292 302.516 163.172 302.936 162.472 303.916C162.332 304.196 157.572 311.476 148.473 310.776C147.493 310.636 146.513 311.476 146.233 312.596C145.953 313.716 146.653 314.555 147.633 314.695C159.112 315.815 165.412 306.156 165.552 305.736C166.112 304.616 165.972 303.496 165.132 302.936Z" fill="#34ADB7"/>
<path d="M133.915 311.475C124.536 311.895 118.656 313.575 115.296 317.775C111.656 322.395 111.236 329.535 113.336 340.735C115.856 354.594 110.256 357.394 110.256 357.394C110.256 357.394 110.256 357.394 110.396 357.394C109.276 357.814 108.576 358.934 108.856 359.914C109.136 360.894 110.116 361.314 111.236 361.034C112.076 360.754 120.756 356.974 117.256 339.755C115.296 330.095 115.436 323.655 118.236 320.155C120.756 316.935 125.936 315.535 133.915 315.395C134.895 315.395 135.875 314.555 135.875 313.435C135.735 312.175 135.035 311.335 133.915 311.475Z" fill="#34ADB7"/>
<path d="M109.409 337.095C98.769 332.895 91.4892 337.935 91.2092 338.215C90.3692 338.775 90.0893 339.895 90.6492 340.735C91.2092 341.574 92.3292 341.714 93.1692 341.154C93.4491 341.014 99.329 336.955 107.729 340.595C108.709 341.014 109.829 340.594 110.249 339.615C110.669 338.495 110.249 337.515 109.409 337.095Z" fill="#A01918"/>
<path d="M91.3605 338.636C90.5205 338.916 84.5007 341.016 84.6407 358.376C84.7807 368.175 81.9808 374.755 77.3609 377.415C73.161 379.795 67.0012 379.235 59.7215 375.455C58.7415 375.035 57.4815 375.315 56.9215 376.155C56.2216 376.995 56.5016 378.115 57.4815 378.675C66.1613 383.295 73.721 383.715 79.3208 380.495C85.4806 376.995 88.8406 369.295 88.5606 358.096C88.1406 343.956 92.3405 342.136 92.3405 342.136C92.3405 342.136 92.3405 342.136 92.2005 342.136C93.1804 341.856 93.7404 340.736 93.4604 339.896C93.3204 338.916 92.3404 338.356 91.3605 338.636Z" fill="#A01918"/>
<path d="M112.648 357.956C112.088 357.116 110.828 357.116 109.848 357.816C109.568 358.096 102.428 362.995 94.3081 358.796C93.4681 358.376 92.2082 358.656 91.5082 359.636C90.9482 360.476 91.0882 361.595 92.0682 362.155C102.288 367.615 111.668 361.035 112.088 360.755C113.067 359.916 113.348 358.796 112.648 357.956Z" fill="#34ADB7"/>
<path d="M80.709 353.896C71.8893 350.676 65.8695 349.976 61.1096 352.636C55.9298 355.436 52.8499 362.015 50.47 373.075C47.53 386.795 41.2302 387.215 41.2302 387.215C41.2302 387.215 41.2302 387.215 41.3702 387.215C40.2503 387.215 39.1303 387.915 38.9903 388.895C38.8503 389.875 39.5503 390.715 40.8102 390.855C41.7902 390.855 51.1699 390.715 54.5298 373.495C56.3498 363.835 58.8697 357.956 62.9296 355.716C66.5695 353.756 71.7493 354.456 79.309 357.256C80.289 357.676 81.409 357.116 81.829 356.276C82.109 355.296 81.549 354.176 80.709 353.896Z" fill="#34ADB7"/>
<path d="M48.0913 368.175C39.9716 360.195 31.1518 362.155 30.8718 362.155C29.8919 362.295 29.1919 363.275 29.4719 364.255C29.6119 365.235 30.5918 365.795 31.5718 365.655C31.8518 365.655 38.8516 364.255 45.2914 370.695C45.9914 371.395 47.2513 371.395 48.0913 370.695C48.7913 369.995 48.7913 368.875 48.0913 368.175Z" fill="#A01918"/>
<path d="M35.4984 35.2646C36.1984 35.6845 42.0782 38.4845 54.1178 26.0249C60.9776 19.0251 67.5574 16.2252 72.7373 17.6251C77.3571 18.8851 81.417 23.6449 83.7969 31.4847C84.0769 32.4647 85.1968 33.1646 86.3168 33.0246C87.4368 32.8846 87.9967 31.9047 87.7168 30.9247C84.9168 21.545 79.877 15.9452 73.5772 14.1252C66.7174 12.3053 59.0177 15.2452 51.1779 23.5049C41.5182 33.7246 37.3184 32.0447 37.1784 32.0447C37.1784 32.0447 37.1783 32.0447 37.3183 32.0447C36.4784 31.6247 35.2184 31.9047 34.7984 32.7446C34.2385 33.7246 34.6584 34.7046 35.4984 35.2646Z" fill="#A01918"/>
<path d="M34.0889 6.56568C33.9489 7.54565 34.7889 8.38563 36.0489 8.66562C36.4689 8.66562 44.8686 10.2056 47.6685 19.0253C47.9485 20.0053 49.0685 20.5652 50.1884 20.4253C51.3084 20.2853 51.8684 19.3053 51.5884 18.3253C48.2285 7.26566 36.8888 5.16573 36.4689 5.16573C35.2089 4.88574 34.0889 5.58572 34.0889 6.56568Z" fill="#34ADB7"/>
<path d="M53.697 32.0445C57.6169 40.5843 61.3968 45.3441 66.5766 46.8841C72.1764 48.564 79.0362 46.0441 88.556 39.8843C100.316 32.1845 105.075 36.3844 105.075 36.3844C105.915 37.2244 107.175 37.5044 108.015 36.9444C108.855 36.3844 108.855 35.2644 108.155 34.2845C107.455 33.5845 100.736 27.1447 86.316 36.8044C78.1963 42.2642 72.1765 44.6441 67.8366 43.3842C63.9167 42.2642 60.6968 38.0643 57.4769 30.6446C57.0569 29.6646 55.937 29.2446 54.957 29.6646C53.697 30.0846 53.2771 31.0646 53.697 32.0445Z" fill="#34ADB7"/>
<path d="M86.8813 44.9253C87.0213 56.265 94.5811 61.1648 94.8611 61.4448C95.7011 62.0048 96.821 61.7248 97.381 61.0248C97.941 60.1848 97.661 59.0649 96.821 58.5049C96.5411 58.3649 90.6612 54.305 90.6612 45.2053C90.6612 44.2253 89.8213 43.2454 88.7013 43.2454C87.7213 43.2454 86.8813 43.9453 86.8813 44.9253Z" fill="#A01918"/>
<path d="M95.2838 61.0227C95.8438 61.7226 100.044 66.4825 116.143 59.6227C125.103 55.7028 132.243 55.7028 136.443 59.0627C140.222 62.0026 142.182 67.8824 141.342 76.1422C141.202 77.1221 142.042 78.2421 143.022 78.5221C144.002 78.8021 144.982 78.1021 145.122 77.1222C146.102 67.3225 143.582 60.1827 138.403 56.2628C132.803 51.9229 124.403 51.7829 114.183 56.4028C101.304 62.1426 98.0838 59.0627 97.9438 58.9227C97.2438 58.2227 96.1238 57.9427 95.4238 58.6427C94.7239 59.0627 94.7238 60.1827 95.2838 61.0227Z" fill="#A01918"/>
<path d="M104.929 33.8649C104.509 34.7048 104.929 35.8248 105.909 36.5248C106.189 36.6648 113.468 41.4246 112.768 50.5243C112.628 51.5043 113.468 52.4843 114.588 52.7643C115.708 53.0443 116.548 52.3443 116.688 51.3643C117.808 39.8847 108.149 33.5849 107.729 33.4449C106.609 32.8849 105.349 33.0249 104.929 33.8649Z" fill="#34ADB7"/>
<path d="M113.347 65.0835C113.767 74.4632 115.447 80.343 119.646 83.7029C124.266 87.3428 131.406 87.7628 142.606 85.6628C156.465 83.1429 159.265 88.7427 159.265 88.7427C159.265 88.7427 159.265 88.7427 159.265 88.6027C159.685 89.7227 160.805 90.4227 161.785 90.1427C162.765 89.8627 163.185 88.8827 162.905 87.7628C162.625 86.9228 158.845 78.2431 141.626 81.7429C131.966 83.7029 125.526 83.5629 122.026 80.763C118.806 78.2431 117.407 73.0632 117.267 65.0835C117.267 64.1035 116.427 63.1235 115.307 63.1235C114.187 63.2635 113.347 64.1035 113.347 65.0835Z" fill="#34ADB7"/>
<path d="M139.108 89.7219C134.908 100.362 139.948 107.641 140.228 107.921C140.788 108.761 141.908 109.041 142.748 108.481C143.588 107.921 143.728 106.801 143.168 105.961C143.028 105.681 138.968 99.8016 142.608 91.4018C143.028 90.4219 142.608 89.3019 141.628 88.8819C140.508 88.3219 139.528 88.7419 139.108 89.7219Z" fill="#A01918"/>
<path d="M140.634 107.642C140.914 108.482 143.013 114.502 160.373 114.362C170.173 114.222 176.752 117.022 179.412 121.642C181.792 125.842 181.232 132.001 177.452 139.281C177.032 140.261 177.312 141.521 178.152 142.081C178.992 142.781 180.112 142.501 180.672 141.521C185.292 132.841 185.712 125.282 182.492 119.682C178.992 113.522 171.293 110.162 160.093 110.442C145.953 110.862 144.133 106.662 144.133 106.662C144.133 106.662 144.133 106.662 144.133 106.802C143.853 105.822 142.734 105.262 141.894 105.542C140.914 105.822 140.354 106.802 140.634 107.642Z" fill="#A01918"/>
<path d="M159.949 86.3631C159.109 86.9231 159.109 88.1831 159.809 89.163C160.089 89.443 164.989 96.5828 160.789 104.703C160.369 105.543 160.649 106.802 161.629 107.502C162.469 108.062 163.589 107.922 164.149 106.942C169.609 96.7228 163.029 87.3431 162.749 86.9231C161.909 86.0831 160.649 85.8031 159.949 86.3631Z" fill="#34ADB7"/>
<path d="M155.9 118.422C152.68 127.242 151.98 133.262 154.64 138.022C157.44 143.201 164.02 146.281 175.079 148.661C188.799 151.601 189.219 157.901 189.219 157.901C189.219 157.901 189.219 157.901 189.219 157.761C189.219 158.881 189.919 160.001 190.899 160.141C191.879 160.281 192.719 159.581 192.859 158.321C192.859 157.341 192.719 147.961 175.499 144.601C165.84 142.781 159.96 140.261 157.72 136.202C155.76 132.562 156.46 127.382 159.26 119.822C159.68 118.842 159.12 117.722 158.28 117.302C157.16 117.022 156.18 117.442 155.9 118.422Z" fill="#34ADB7"/>
<path d="M170.172 150.901C162.192 159.021 164.152 167.841 164.152 168.121C164.292 169.101 165.272 169.801 166.252 169.521C167.232 169.381 167.792 168.401 167.652 167.421C167.652 167.141 166.252 160.141 172.692 153.701C173.392 153.001 173.392 151.741 172.692 150.901C171.992 150.201 170.872 150.201 170.172 150.901Z" fill="#A01918"/>
</svg>
