<svg width="595" height="238" viewBox="0 0 595 238" fill="none" xmlns="http://www.w3.org/2000/svg">
<rect x="744.83" y="42.6357" width="276.047" height="265.357" rx="60" transform="rotate(135 744.83 42.6357)" fill="#34ADB7"/>
<rect x="605" y="-78" width="225" height="667" rx="59" transform="rotate(90 605 -78)" fill="#6F026D"/>
<path d="M77.8743 30.1178C78.0737 30.151 79.6023 30.2173 81.1308 26.4053C81.9948 24.2507 83.1911 23.0574 84.4538 22.8917C85.5836 22.7591 86.9128 23.422 88.1423 24.9137C88.3084 25.1126 88.6075 25.1457 88.8069 25.0131C89.0395 24.8805 89.0727 24.6153 88.9066 24.4165C87.4445 22.6265 85.8162 21.8309 84.2877 22.0298C82.6262 22.2287 81.1973 23.6209 80.2336 26.107C79.0374 29.2228 77.974 29.256 77.9408 29.256C77.9408 29.256 77.9408 29.256 77.974 29.256C77.7414 29.2228 77.5088 29.4217 77.4756 29.6538C77.4756 29.8858 77.6417 30.0847 77.8743 30.1178Z" fill="white"/>
<path d="M74.9536 23.9853C75.0201 24.2174 75.2859 24.3168 75.5518 24.2505C75.6182 24.2174 77.6452 23.7865 79.0409 25.4438C79.207 25.6427 79.5061 25.6759 79.7055 25.5101C79.9381 25.3775 79.9713 25.1124 79.8384 24.9135C78.0772 22.792 75.4188 23.3887 75.3191 23.4218C75.0533 23.5213 74.8872 23.7533 74.9536 23.9853Z" fill="white"/>
<path d="M81.5958 27.7643C83.2241 29.2891 84.52 29.9852 85.7827 29.8195C87.1784 29.6537 88.4411 28.5267 89.9697 26.3058C91.8637 23.5546 93.2594 24.0518 93.2926 24.0518C93.2926 24.0518 93.2926 24.0518 93.2594 24.0518C93.492 24.1512 93.8243 24.0849 93.924 23.8861C94.0569 23.6872 93.9572 23.422 93.6914 23.3225C93.492 23.2231 91.3985 22.4276 89.1389 25.8749C87.843 27.8306 86.7796 28.8913 85.683 28.9908C84.7194 29.0902 83.6228 28.4604 82.2604 27.1677C82.0942 27.0019 81.7952 27.0019 81.5958 27.1677C81.4297 27.3334 81.4297 27.5986 81.5958 27.7643Z" fill="white"/>
<path d="M90.0378 27.5657C91.1011 30.0517 93.1946 30.4163 93.2943 30.4495C93.5269 30.4826 93.7595 30.3501 93.7927 30.118C93.826 29.886 93.693 29.654 93.4604 29.6208C93.394 29.6208 91.7325 29.2893 90.9018 27.3005C90.8021 27.0684 90.5362 26.969 90.3036 27.0353C90.071 27.1016 89.9713 27.3668 90.0378 27.5657Z" fill="white"/>
<path d="M92.3612 107.882C92.1618 107.849 90.6332 107.783 89.1047 111.595C88.2407 113.749 87.0444 114.942 85.7817 115.108C84.6519 115.241 83.3227 114.578 82.0932 113.086C81.9271 112.887 81.628 112.854 81.4286 112.987C81.196 113.119 81.1628 113.385 81.3289 113.583C82.791 115.373 84.4193 116.169 85.9479 115.97C87.6093 115.771 89.0382 114.379 90.0019 111.893C91.1981 108.777 92.2615 108.744 92.2947 108.744C92.2947 108.744 92.2947 108.744 92.2615 108.744C92.4941 108.777 92.7267 108.578 92.7599 108.346C92.7599 108.114 92.5938 107.915 92.3612 107.882Z" fill="white"/>
<path d="M95.2833 114.047C95.2168 113.815 94.951 113.716 94.6852 113.782C94.6187 113.815 92.5917 114.246 91.1961 112.589C91.0299 112.39 90.7308 112.357 90.5315 112.523C90.2989 112.655 90.2656 112.92 90.3985 113.119C92.1597 115.241 94.8181 114.644 94.9178 114.611C95.1836 114.511 95.3497 114.246 95.2833 114.047Z" fill="white"/>
<path d="M88.6344 110.235C87.0061 108.711 85.7101 108.014 84.4474 108.18C83.0518 108.346 81.7891 109.473 80.2605 111.694C78.3664 114.445 76.9708 113.948 76.9375 113.948C76.9375 113.948 76.9375 113.948 76.9708 113.948C76.7382 113.848 76.4059 113.915 76.3062 114.114C76.1733 114.312 76.2729 114.578 76.5388 114.677C76.7382 114.777 78.8316 115.572 81.0912 112.125C82.3872 110.169 83.4505 109.108 84.5471 109.009C85.5108 108.909 86.6073 109.539 87.9698 110.832C88.1359 110.998 88.435 110.998 88.6344 110.832C88.8005 110.666 88.8005 110.401 88.6344 110.235Z" fill="white"/>
<path d="M80.1995 110.434C79.1361 107.948 77.0426 107.584 76.9429 107.55C76.7103 107.517 76.4777 107.65 76.4445 107.882C76.4113 108.114 76.5442 108.346 76.7768 108.379C76.8433 108.379 78.5047 108.711 79.3355 110.699C79.4352 110.931 79.701 111.031 79.9336 110.965C80.1662 110.898 80.2659 110.666 80.1995 110.434Z" fill="white"/>
<path d="M46.1379 76.2262C46.1712 76.0274 46.2376 74.5026 42.4162 72.9778C40.2563 72.116 39.06 70.9226 38.8939 69.663C38.761 68.536 39.4255 67.2101 40.9209 65.9837C41.1203 65.8179 41.1535 65.5196 41.0206 65.3207C40.8877 65.0887 40.6218 65.0555 40.4224 65.2213C38.628 66.6798 37.8305 68.304 38.0299 69.8288C38.2293 71.4861 39.6249 72.9115 42.1171 73.8728C45.2407 75.0661 45.274 76.1268 45.274 76.1599C45.274 76.1599 45.274 76.1599 45.274 76.1268C45.2407 76.3588 45.4401 76.5909 45.6727 76.624C45.9053 76.624 46.1047 76.4583 46.1379 76.2262Z" fill="white"/>
<path d="M39.9582 79.1426C40.1908 79.0763 40.2905 78.8112 40.224 78.546C40.1908 78.4797 39.7588 76.4577 41.4203 75.0655C41.6197 74.8997 41.6529 74.6014 41.4867 74.4025C41.3538 74.1705 41.088 74.1373 40.8886 74.2699C38.7619 76.0268 39.36 78.6786 39.3933 78.778C39.493 79.0432 39.7588 79.2089 39.9582 79.1426Z" fill="white"/>
<path d="M43.781 72.5134C45.3096 70.8892 46.0074 69.5964 45.8413 68.3368C45.6751 66.9446 44.5453 65.685 42.3189 64.1603C39.5609 62.2708 40.0593 60.8786 40.0593 60.8455C40.0593 60.8455 40.0593 60.8455 40.0593 60.8787C40.159 60.6466 40.0926 60.3151 39.8932 60.2157C39.6938 60.0831 39.428 60.1826 39.3283 60.4477C39.2286 60.6466 38.4311 62.7349 41.887 64.9889C43.8475 66.2817 44.9109 67.3424 45.0105 68.4363C45.1102 69.3976 44.4789 70.4914 43.1829 71.8505C43.0168 72.0162 43.0168 72.3145 43.1829 72.5134C43.3491 72.6792 43.6149 72.6792 43.781 72.5134Z" fill="white"/>
<path d="M43.5797 64.094C46.0719 63.0333 46.4375 60.945 46.4707 60.8455C46.5039 60.6135 46.371 60.3814 46.1384 60.3483C45.9058 60.3152 45.6732 60.4477 45.64 60.6798C45.64 60.7461 45.3077 62.4034 43.3139 63.2321C43.0813 63.3316 42.9816 63.5968 43.048 63.8288C43.1145 64.0608 43.3471 64.1934 43.5797 64.094Z" fill="white"/>
<path d="M124.095 61.8069C124.062 62.0058 123.995 63.5306 127.817 65.0554C129.977 65.9172 131.173 67.1106 131.339 68.3702C131.472 69.4972 130.807 70.8231 129.312 72.0495C129.113 72.2153 129.079 72.5136 129.212 72.7125C129.345 72.9445 129.611 72.9777 129.81 72.8119C131.605 71.3534 132.402 69.7292 132.203 68.2044C132.004 66.547 130.608 65.1217 128.116 64.1604C124.992 62.9671 124.959 61.9064 124.959 61.8732C124.959 61.8732 124.959 61.8732 124.959 61.9064C124.992 61.6744 124.793 61.4423 124.56 61.4092C124.328 61.4092 124.128 61.5749 124.095 61.8069Z" fill="white"/>
<path d="M130.244 58.8567C130.011 58.923 129.912 59.1882 129.978 59.4533C130.011 59.5196 130.443 61.5416 128.782 62.9338C128.582 63.0996 128.549 63.3979 128.715 63.5968C128.848 63.8288 129.114 63.8619 129.313 63.7294C131.44 61.9725 130.842 59.3207 130.809 59.2213C130.709 58.9893 130.476 58.7904 130.244 58.8567Z" fill="white"/>
<path d="M126.457 65.4861C124.929 67.1103 124.231 68.4031 124.397 69.6627C124.563 71.0549 125.693 72.3145 127.919 73.8393C130.677 75.7287 130.179 77.1209 130.179 77.1541C130.179 77.1541 130.179 77.1541 130.179 77.1209C130.079 77.3529 130.146 77.6844 130.345 77.7839C130.545 77.9165 130.81 77.817 130.91 77.5518C131.01 77.3529 131.807 75.2646 128.351 73.0106C126.391 71.7179 125.327 70.6571 125.228 69.5633C125.128 68.602 125.759 67.5081 127.055 66.1491C127.222 65.9833 127.222 65.685 127.055 65.4861C126.889 65.3204 126.623 65.3204 126.457 65.4861Z" fill="white"/>
<path d="M126.656 73.9387C124.164 74.9994 123.798 77.0877 123.765 77.1872C123.732 77.4192 123.865 77.6512 124.097 77.6844C124.33 77.7175 124.562 77.5849 124.596 77.3529C124.596 77.2866 124.928 75.6292 126.922 74.8005C127.154 74.7011 127.254 74.4359 127.187 74.2039C127.121 73.9387 126.888 73.8393 126.656 73.9387Z" fill="white"/>
<path d="M46.3364 60.713C46.4361 60.5472 47.1007 59.155 44.1433 56.3043C42.4818 54.6801 41.8172 53.1222 42.1495 51.8957C42.4486 50.8018 43.5784 49.8406 45.4392 49.2771C45.6718 49.2108 45.838 48.9456 45.8048 48.6804C45.7715 48.4152 45.5389 48.2826 45.3063 48.3489C43.0799 49.0119 41.7508 50.2052 41.3188 51.6968C40.8868 53.3211 41.5846 55.1442 43.5451 57.0004C45.9709 59.2876 45.5722 60.282 45.5722 60.3152C45.5722 60.3152 45.5722 60.3152 45.5722 60.282C45.4725 60.4809 45.5389 60.7792 45.7383 60.8787C45.9709 61.0113 46.2367 60.945 46.3364 60.713Z" fill="white"/>
<path d="M39.5273 61.0778C39.7599 61.111 39.9593 60.9121 40.0257 60.6137C40.0257 60.5143 40.3913 58.5255 42.4847 57.8625C42.7173 57.7962 42.8503 57.531 42.817 57.2658C42.7838 57.0007 42.5512 56.8681 42.3186 56.9344C39.6934 57.7299 39.195 60.4149 39.195 60.5143C39.1618 60.7795 39.2947 61.0447 39.5273 61.0778Z" fill="white"/>
<path d="M45.6107 56.4035C47.6377 55.4754 48.7675 54.5804 49.1331 53.3539C49.5318 52.028 48.9337 50.4038 47.4716 48.1498C45.644 45.3654 46.6408 44.2384 46.6408 44.2384C46.8402 44.0395 46.9067 43.7411 46.7738 43.5423C46.6408 43.3434 46.375 43.3434 46.1424 43.5091C45.9762 43.6749 44.4477 45.2659 46.7405 48.6801C48.0365 50.6027 48.6014 52.028 48.3023 53.0556C48.0365 53.9837 47.0396 54.7461 45.2784 55.5085C45.0458 55.608 44.9461 55.8731 45.0458 56.1052C45.1455 56.4035 45.3781 56.5029 45.6107 56.4035Z" fill="white"/>
<path d="M48.6641 48.5477C51.3557 48.5146 52.5187 46.7246 52.5852 46.6583C52.7181 46.4594 52.6517 46.1942 52.4855 46.0617C52.2861 45.9291 52.0203 45.9954 51.8874 46.1942C51.8541 46.2605 50.8905 47.6527 48.7306 47.6527C48.498 47.6527 48.2654 47.8516 48.2654 48.1168C48.2321 48.3488 48.4315 48.5477 48.6641 48.5477Z" fill="white"/>
<path d="M123.895 77.2852C123.795 77.4509 123.13 78.8431 126.088 81.6938C127.749 83.318 128.414 84.8759 128.082 86.1024C127.783 87.1963 126.653 88.1575 124.792 88.7211C124.559 88.7873 124.393 89.0525 124.426 89.3177C124.46 89.5829 124.692 89.7155 124.925 89.6492C127.151 88.9862 128.48 87.7929 128.912 86.3013C129.344 84.677 128.647 82.8539 126.686 80.9977C124.26 78.7105 124.659 77.7161 124.659 77.6829C124.659 77.6829 124.659 77.6829 124.659 77.7161C124.759 77.5172 124.692 77.2189 124.493 77.1194C124.26 77.02 123.994 77.0863 123.895 77.2852Z" fill="white"/>
<path d="M130.708 76.9553C130.475 76.9221 130.276 77.121 130.209 77.4193C130.209 77.5188 129.844 79.5076 127.75 80.1706C127.518 80.2369 127.385 80.502 127.418 80.7672C127.451 81.0324 127.684 81.165 127.917 81.0987C130.542 80.3032 131.04 77.6182 131.04 77.5188C131.073 77.2204 130.94 76.9884 130.708 76.9553Z" fill="white"/>
<path d="M124.625 81.6291C122.598 82.5572 121.469 83.4522 121.103 84.6787C120.704 86.0046 121.303 87.6288 122.765 89.8828C124.592 92.6672 123.595 93.7942 123.595 93.7942C123.396 93.9931 123.33 94.2914 123.462 94.4903C123.595 94.6892 123.861 94.6892 124.094 94.5235C124.26 94.3577 125.789 92.7667 123.496 89.3525C122.2 87.4299 121.635 86.0046 121.934 84.977C122.2 84.0489 123.197 83.2865 124.958 82.5241C125.19 82.4246 125.29 82.1595 125.19 81.9274C125.091 81.6291 124.858 81.5296 124.625 81.6291Z" fill="white"/>
<path d="M121.57 89.4851C118.879 89.5182 117.716 91.3082 117.649 91.3745C117.516 91.5734 117.583 91.8385 117.749 91.9711C117.948 92.1037 118.214 92.0374 118.347 91.8385C118.38 91.7722 119.344 90.38 121.504 90.38C121.737 90.38 121.969 90.1812 121.969 89.916C122.002 89.6508 121.803 89.4519 121.57 89.4851Z" fill="white"/>
<path d="M52.4854 46.5593C52.6516 46.4267 53.7814 45.4323 52.1531 41.6203C51.2227 39.4989 51.2227 37.8083 52.0202 36.8139C52.718 35.9189 54.1137 35.4549 56.0742 35.6537C56.3068 35.6869 56.5726 35.488 56.6391 35.256C56.7056 35.0239 56.5394 34.7919 56.3068 34.7588C53.9807 34.5267 52.286 35.1234 51.3556 36.3498C50.3255 37.6757 50.2923 39.6646 51.3888 42.0844C52.7512 45.1339 52.0202 45.8963 51.987 45.9295C51.8208 46.0952 51.7544 46.3604 51.9205 46.5261C52.0202 46.6919 52.286 46.725 52.4854 46.5593Z" fill="white"/>
<path d="M46.0383 44.2721C46.2377 44.3715 46.5035 44.2721 46.6697 44.0401C46.7029 43.9738 47.8327 42.2501 49.9927 42.4158C50.2253 42.449 50.4579 42.2501 50.5243 41.9849C50.5908 41.7197 50.4246 41.5208 50.192 41.4877C47.4672 41.2225 45.9719 43.5097 45.9386 43.6091C45.8057 43.8743 45.8389 44.1726 46.0383 44.2721Z" fill="white"/>
<path d="M53.4515 42.2832C55.6779 42.1838 57.0736 41.786 57.8711 40.7916C58.7351 39.6977 58.8347 38.0072 58.3363 35.3554C57.7382 32.0738 59.0673 31.4108 59.0673 31.4108C59.0673 31.4108 59.0673 31.4108 59.0341 31.4108C59.3 31.3114 59.4661 31.0462 59.3996 30.8142C59.3332 30.5821 59.1006 30.4827 58.8347 30.549C58.6354 30.6153 56.5751 31.5103 57.4059 35.5874C57.8711 37.8746 57.8378 39.3994 57.1733 40.2281C56.5751 40.9904 55.3456 41.3219 53.4515 41.3551C53.2189 41.3551 52.9863 41.554 52.9863 41.8191C53.0196 42.1175 53.1857 42.2832 53.4515 42.2832Z" fill="white"/>
<path d="M59.2663 36.1844C61.7918 37.1788 63.5197 35.9855 63.5862 35.9192C63.7855 35.7866 63.852 35.5214 63.7191 35.3226C63.5862 35.1237 63.3203 35.0905 63.1209 35.2231C63.0545 35.2563 61.6588 36.2175 59.6651 35.3557C59.4325 35.2563 59.1666 35.3557 59.0669 35.5877C58.9673 35.8529 59.0669 36.1181 59.2663 36.1844Z" fill="white"/>
<path d="M117.747 91.4409C117.581 91.5734 116.451 92.5679 118.079 96.3798C119.01 98.5013 119.01 100.192 118.212 101.186C117.514 102.081 116.119 102.545 114.158 102.346C113.926 102.313 113.66 102.512 113.593 102.744C113.527 102.976 113.693 103.208 113.926 103.241C116.252 103.473 117.946 102.877 118.877 101.65C119.907 100.324 119.94 98.3355 118.844 95.9158C117.481 92.8662 118.212 92.1038 118.246 92.0707C118.412 91.9049 118.478 91.6397 118.312 91.474C118.212 91.3414 117.946 91.3083 117.747 91.4409Z" fill="white"/>
<path d="M124.196 93.7283C123.996 93.6289 123.73 93.7283 123.564 93.9604C123.531 94.0267 122.401 95.7503 120.241 95.5846C120.009 95.5514 119.776 95.7503 119.71 96.0155C119.643 96.2807 119.809 96.4796 120.042 96.5127C122.767 96.7779 124.262 94.4907 124.295 94.3913C124.428 94.1261 124.395 93.8609 124.196 93.7283Z" fill="white"/>
<path d="M116.786 95.7502C114.56 95.8496 113.164 96.2474 112.366 97.2418C111.502 98.3357 111.403 100.026 111.901 102.678C112.499 105.96 111.17 106.623 111.17 106.623C111.17 106.623 111.17 106.623 111.203 106.623C110.938 106.722 110.771 106.987 110.838 107.219C110.904 107.451 111.137 107.551 111.403 107.484C111.602 107.418 113.662 106.523 112.832 102.446C112.366 100.159 112.4 98.634 113.064 97.8053C113.662 97.0429 114.892 96.7115 116.786 96.6783C117.019 96.6783 117.251 96.4794 117.251 96.2143C117.218 95.9159 117.052 95.717 116.786 95.7502Z" fill="white"/>
<path d="M110.968 101.816C108.442 100.821 106.714 102.015 106.648 102.081C106.448 102.214 106.382 102.479 106.515 102.678C106.648 102.877 106.914 102.91 107.113 102.777C107.18 102.744 108.575 101.783 110.569 102.645C110.802 102.744 111.067 102.645 111.167 102.413C111.267 102.147 111.167 101.915 110.968 101.816Z" fill="white"/>
<path d="M63.5507 35.8191C63.7501 35.7528 65.179 35.2556 65.1457 31.1453C65.1125 28.825 65.7771 27.267 66.8737 26.6372C67.8706 26.0737 69.3327 26.2063 71.0606 27.1013C71.2932 27.2007 71.5923 27.1344 71.7252 26.9356C71.8913 26.7367 71.8249 26.4715 71.5923 26.3389C69.532 25.245 67.7376 25.1456 66.4085 25.908C64.9464 26.7367 64.1488 28.5598 64.2153 31.2116C64.315 34.5595 63.3181 34.9904 63.3181 34.9904C63.3181 34.9904 63.3181 34.9904 63.3513 34.9904C63.1187 35.0567 62.9858 35.3219 63.0523 35.5208C63.0855 35.7528 63.3181 35.8854 63.5507 35.8191Z" fill="white"/>
<path d="M58.4971 31.2446C58.63 31.4435 58.9291 31.4435 59.1617 31.2777C59.2281 31.2114 60.9228 30.0513 62.8502 31.0457C63.0495 31.1451 63.3486 31.0788 63.5148 30.8468C63.6477 30.6479 63.6144 30.3827 63.3818 30.2502C60.9561 28.9574 58.7297 30.5153 58.63 30.5816C58.3974 30.7805 58.3309 31.0788 58.4971 31.2446Z" fill="white"/>
<path d="M66.0771 32.2392C68.1705 33.0016 69.5994 33.1674 70.7292 32.5376C71.9587 31.8746 72.6898 30.3167 73.2547 27.698C73.9525 24.4496 75.4478 24.3501 75.4478 24.3501C75.4478 24.3501 75.4478 24.3501 75.4146 24.3501C75.6804 24.3501 75.9463 24.1844 75.9795 23.9523C76.0127 23.7203 75.8466 23.5214 75.5475 23.4883C75.3149 23.4883 73.0885 23.5214 72.291 27.5986C71.859 29.8858 71.2609 31.278 70.2972 31.8083C69.4333 32.2724 68.2038 32.1066 66.4094 31.4437C66.1768 31.3442 65.9109 31.4768 65.8112 31.6757C65.7448 31.9078 65.8445 32.1398 66.0771 32.2392Z" fill="white"/>
<path d="M73.8189 28.8254C75.7463 30.7149 77.8397 30.2508 77.9062 30.2508C78.1388 30.2176 78.3049 29.9856 78.2385 29.7536C78.2052 29.5215 77.9726 29.389 77.74 29.4221C77.6736 29.4221 76.0121 29.7536 74.4835 28.2288C74.3174 28.0631 74.0183 28.0631 73.8189 28.2288C73.6528 28.3945 73.6528 28.6597 73.8189 28.8254Z" fill="white"/>
<path d="M106.683 102.181C106.484 102.247 105.055 102.744 105.088 106.854C105.121 109.175 104.457 110.733 103.36 111.362C102.363 111.926 100.901 111.793 99.1734 110.898C98.9408 110.799 98.6417 110.865 98.5088 111.064C98.3426 111.263 98.4091 111.528 98.6417 111.661C100.702 112.755 102.496 112.854 103.826 112.092C105.288 111.263 106.085 109.44 106.019 106.788C105.919 103.44 106.916 103.009 106.916 103.009C106.916 103.009 106.916 103.009 106.883 103.009C107.115 102.943 107.248 102.678 107.182 102.479C107.148 102.247 106.916 102.114 106.683 102.181Z" fill="white"/>
<path d="M111.738 106.755C111.605 106.556 111.306 106.556 111.073 106.722C111.007 106.788 109.312 107.948 107.385 106.954C107.186 106.855 106.886 106.921 106.72 107.153C106.587 107.352 106.621 107.617 106.853 107.75C109.279 109.042 111.505 107.484 111.605 107.418C111.838 107.219 111.904 106.954 111.738 106.755Z" fill="white"/>
<path d="M104.159 105.794C102.066 105.031 100.637 104.865 99.5069 105.495C98.2774 106.158 97.5464 107.716 96.9815 110.335C96.2836 113.583 94.7883 113.683 94.7883 113.683C94.7883 113.683 94.7883 113.683 94.8215 113.683C94.5557 113.683 94.2899 113.848 94.2566 114.08C94.2234 114.312 94.3895 114.511 94.6886 114.545C94.9212 114.545 97.1476 114.511 97.9451 110.434C98.3771 108.147 98.9752 106.755 99.9389 106.224C100.803 105.76 102.032 105.926 103.827 106.589C104.059 106.689 104.325 106.556 104.425 106.357C104.491 106.125 104.358 105.86 104.159 105.794Z" fill="white"/>
<path d="M96.4143 109.175C94.487 107.286 92.3935 107.75 92.327 107.75C92.0944 107.783 91.9283 108.015 91.9947 108.247C92.028 108.479 92.2606 108.611 92.4932 108.578C92.5596 108.578 94.2211 108.247 95.7497 109.772C95.9158 109.937 96.2149 109.937 96.4143 109.772C96.5804 109.606 96.5804 109.341 96.4143 109.175Z" fill="white"/>
<path d="M76.8139 107.683C76.6478 107.584 75.2521 106.921 72.3944 109.871C70.7661 111.528 69.2043 112.191 67.9748 111.86C66.8783 111.561 65.9146 110.434 65.3497 108.578C65.2832 108.346 65.0174 108.18 64.7516 108.213C64.4857 108.246 64.3528 108.479 64.4193 108.711C65.0839 110.931 66.2801 112.257 67.7755 112.688C69.4037 113.119 71.2313 112.423 73.0922 110.467C75.385 108.048 76.3819 108.445 76.4152 108.445C76.4152 108.445 76.4152 108.445 76.3819 108.445C76.5813 108.545 76.8804 108.479 76.9801 108.28C77.113 108.048 77.0133 107.782 76.8139 107.683Z" fill="white"/>
<path d="M77.1409 114.478C77.1741 114.246 76.9747 114.047 76.6756 113.981C76.5759 113.981 74.5822 113.616 73.9176 111.528C73.8511 111.296 73.5853 111.163 73.3194 111.196C73.0536 111.23 72.9207 111.462 72.9872 111.694C73.7847 114.312 76.4763 114.81 76.5759 114.81C76.875 114.876 77.1076 114.71 77.1409 114.478Z" fill="white"/>
<path d="M72.4933 108.445C71.5629 106.423 70.6657 105.296 69.4362 104.931C68.107 104.534 66.4788 105.13 64.2192 106.589C61.4279 108.412 60.2981 107.418 60.2981 107.418C60.0987 107.219 59.7996 107.152 59.6003 107.285C59.4009 107.418 59.4009 107.683 59.567 107.915C59.7332 108.08 61.3282 109.605 64.7508 107.318C66.6782 106.025 68.107 105.462 69.1372 105.76C70.0676 106.025 70.8319 107.02 71.5961 108.777C71.6958 109.009 71.9617 109.108 72.1943 109.009C72.4933 108.909 72.593 108.644 72.4933 108.445Z" fill="white"/>
<path d="M64.6165 105.362C64.5833 102.677 62.7889 101.517 62.7225 101.451C62.5231 101.318 62.2572 101.385 62.1243 101.55C61.9914 101.749 62.0579 102.014 62.2572 102.147C62.3237 102.18 63.7193 103.141 63.7193 105.296C63.7193 105.528 63.9187 105.76 64.1846 105.76C64.4172 105.793 64.6165 105.594 64.6165 105.362Z" fill="white"/>
<path d="M93.4205 30.3501C93.5867 30.4495 94.9823 31.1125 97.84 28.1624C99.4683 26.505 101.03 25.842 102.26 26.1735C103.356 26.4718 104.32 27.5989 104.885 29.4551C104.951 29.6872 105.217 29.8529 105.483 29.8197C105.749 29.7866 105.882 29.5546 105.815 29.3225C105.151 27.1016 103.954 25.7757 102.459 25.3448C100.831 24.9139 99.0031 25.61 97.1422 27.5657C94.8494 29.9855 93.8525 29.5877 93.8193 29.5877C93.8193 29.5877 93.8193 29.5877 93.8525 29.5877C93.6531 29.4883 93.3541 29.5546 93.2544 29.7535C93.1215 29.9855 93.2211 30.2175 93.4205 30.3501Z" fill="white"/>
<path d="M93.0935 23.5547C93.0602 23.7867 93.2596 23.9856 93.5587 24.0519C93.6584 24.0519 95.6521 24.4165 96.3167 26.5048C96.3832 26.7369 96.649 26.8695 96.9149 26.8363C97.1807 26.8032 97.3136 26.5711 97.2471 26.3391C96.4496 23.7204 93.758 23.2232 93.6584 23.2232C93.3593 23.1569 93.0935 23.3227 93.0935 23.5547Z" fill="white"/>
<path d="M97.7444 29.5877C98.6748 31.6097 99.572 32.7368 100.802 33.1014C102.131 33.4992 103.759 32.9025 106.019 31.444C108.81 29.6209 109.94 30.6153 109.94 30.6153C110.139 30.8142 110.438 30.8805 110.637 30.7479C110.837 30.6153 110.837 30.3501 110.671 30.1181C110.505 29.9524 108.91 28.4276 105.487 30.7148C103.56 32.0075 102.131 32.571 101.101 32.2727C100.17 32.0075 99.4059 31.0131 98.6416 29.2563C98.5419 29.0242 98.2761 28.9248 98.0435 29.0242C97.7444 29.1237 97.6447 29.3557 97.7444 29.5877Z" fill="white"/>
<path d="M105.621 32.6375C105.654 35.3225 107.449 36.4826 107.515 36.5489C107.715 36.6815 107.98 36.6152 108.113 36.4495C108.246 36.2506 108.18 35.9854 107.98 35.8528C107.914 35.8197 106.518 34.8584 106.518 32.7038C106.518 32.4718 106.319 32.2397 106.053 32.2397C105.82 32.2397 105.621 32.4055 105.621 32.6375Z" fill="white"/>
<path d="M62.6223 101.584C62.4894 101.419 61.4925 100.292 57.6711 101.916C55.5444 102.844 53.8497 102.844 52.8528 102.048C51.9556 101.352 51.4904 99.9602 51.6898 98.0045C51.723 97.7725 51.5236 97.5073 51.291 97.441C51.0584 97.3747 50.8258 97.5404 50.7926 97.7725C50.56 100.093 51.1581 101.783 52.3876 102.711C53.7168 103.739 55.7105 103.772 58.1363 102.678C61.1934 101.319 61.9577 102.048 61.9909 102.082C62.1571 102.247 62.4229 102.281 62.5891 102.148C62.7552 102.015 62.7552 101.75 62.6223 101.584Z" fill="white"/>
<path d="M60.3283 107.982C60.428 107.783 60.3283 107.518 60.0957 107.352C60.0293 107.319 58.3013 106.192 58.4675 104.037C58.5007 103.805 58.3013 103.573 58.0355 103.507C57.7697 103.441 57.5703 103.606 57.5371 103.838C57.2712 106.557 59.5641 108.048 59.6638 108.081C59.9296 108.247 60.2287 108.181 60.3283 107.982Z" fill="white"/>
<path d="M58.3362 100.623C58.2365 98.402 57.8378 97.0098 56.8409 96.2142C55.7443 95.3524 54.0496 95.2529 51.3912 95.7501C48.1015 96.3468 47.4369 95.0209 47.4369 95.0209C47.4369 95.0209 47.4369 95.0209 47.4369 95.054C47.3372 94.7889 47.0714 94.6231 46.8388 94.6894C46.6062 94.7557 46.5065 94.9877 46.5729 95.2529C46.6394 95.4518 47.5366 97.507 51.6238 96.6783C53.9167 96.2142 55.4453 96.2474 56.276 96.9103C57.0403 97.507 57.3726 98.7334 57.4058 100.623C57.4058 100.855 57.6052 101.087 57.871 101.087C58.1369 101.054 58.3362 100.855 58.3362 100.623Z" fill="white"/>
<path d="M52.2241 94.7891C53.221 92.2699 52.0247 90.5462 51.9582 90.4799C51.8253 90.281 51.5595 90.2147 51.3601 90.3473C51.1607 90.4799 51.1275 90.7451 51.2604 90.944C51.2936 91.0102 52.2573 92.4025 51.3933 94.3913C51.2936 94.6233 51.3933 94.8885 51.6259 94.988C51.8918 95.0874 52.1244 94.988 52.2241 94.7891Z" fill="white"/>
<path d="M107.615 36.449C107.748 36.6147 108.745 37.7417 112.567 36.1175C114.693 35.1893 116.388 35.1893 117.385 35.9849C118.282 36.681 118.747 38.0732 118.548 40.0289C118.515 40.2609 118.714 40.5261 118.947 40.5924C119.179 40.6587 119.412 40.493 119.445 40.2609C119.678 37.9406 119.08 36.2501 117.85 35.3219C116.521 34.2944 114.527 34.2612 112.101 35.3551C109.044 36.7141 108.28 35.9849 108.247 35.9517C108.081 35.786 107.815 35.7197 107.649 35.8854C107.482 35.9849 107.482 36.2501 107.615 36.449Z" fill="white"/>
<path d="M109.905 30.0184C109.806 30.2172 109.905 30.4824 110.138 30.6482C110.204 30.6813 111.932 31.8083 111.766 33.9629C111.733 34.1949 111.932 34.427 112.198 34.4933C112.464 34.5596 112.663 34.3938 112.696 34.1618C112.962 31.4437 110.669 29.9521 110.57 29.9189C110.304 29.7863 110.005 29.8195 109.905 30.0184Z" fill="white"/>
<path d="M111.902 37.4104C112.002 39.6312 112.4 41.0234 113.397 41.819C114.494 42.6808 116.188 42.7803 118.847 42.283C122.137 41.6864 122.801 43.0123 122.801 43.0123C122.801 43.0123 122.801 43.0123 122.801 42.9791C122.901 43.2443 123.167 43.4101 123.399 43.3438C123.632 43.2775 123.732 43.0454 123.665 42.7803C123.599 42.5814 122.701 40.5262 118.614 41.3549C116.321 41.819 114.793 41.7858 113.962 41.1229C113.198 40.5262 112.866 39.2998 112.832 37.4104C112.832 37.1783 112.633 36.9463 112.367 36.9463C112.101 36.9794 111.902 37.1783 111.902 37.4104Z" fill="white"/>
<path d="M118.013 43.2441C117.016 45.7633 118.213 47.487 118.279 47.5533C118.412 47.7522 118.678 47.8185 118.877 47.6859C119.077 47.5533 119.11 47.2881 118.977 47.0892C118.944 47.0229 117.98 45.6307 118.844 43.6419C118.944 43.4099 118.844 43.1447 118.611 43.0452C118.345 42.9126 118.113 43.0121 118.013 43.2441Z" fill="white"/>
<path d="M51.8541 90.5125C51.7877 90.3136 51.2892 88.8883 47.1688 88.9214C44.8427 88.9545 43.2809 88.2916 42.6495 87.1977C42.0846 86.2033 42.2175 84.7448 43.1147 83.0211C43.2144 82.7891 43.148 82.4908 42.9486 82.3582C42.7492 82.1924 42.4834 82.2587 42.3505 82.4908C41.2539 84.5459 41.1542 86.3359 41.9185 87.6618C42.7492 89.1203 44.5768 89.9158 47.2352 89.8495C50.5914 89.7501 51.0234 90.7445 51.0234 90.7445C51.0234 90.7445 51.0234 90.7445 51.0234 90.7114C51.0898 90.9434 51.3557 91.076 51.5551 91.0097C51.7877 90.9765 51.9206 90.7445 51.8541 90.5125Z" fill="white"/>
<path d="M47.2688 95.5843C47.4682 95.4517 47.4682 95.1534 47.302 94.9213C47.2356 94.855 46.0725 93.1645 47.0694 91.242C47.1691 91.0431 47.1027 90.7448 46.8701 90.579C46.6707 90.4464 46.4048 90.4796 46.2719 90.7116C44.976 93.1314 46.5378 95.3523 46.6042 95.4517C46.8036 95.6506 47.1027 95.7169 47.2688 95.5843Z" fill="white"/>
<path d="M48.2316 87.9935C48.9959 85.9052 49.162 84.4798 48.5307 83.3528C47.8661 82.1264 46.3043 81.3971 43.6791 80.8336C40.4226 80.1375 40.323 78.6459 40.323 78.6459C40.323 78.6459 40.323 78.6459 40.323 78.679C40.323 78.4138 40.1568 78.1487 39.9242 78.1155C39.6916 78.0824 39.4922 78.2481 39.459 78.5464C39.459 78.7785 39.4922 80.9993 43.5795 81.7949C45.8723 82.2258 47.2679 82.8225 47.7996 83.7837C48.2648 84.6456 48.0987 85.872 47.4341 87.662C47.3344 87.894 47.4673 88.1592 47.6667 88.2587C47.8993 88.325 48.1651 88.2255 48.2316 87.9935Z" fill="white"/>
<path d="M44.8419 80.27C46.736 78.3475 46.2708 76.2592 46.2708 76.1929C46.2375 75.9609 46.0049 75.7951 45.7723 75.8614C45.5397 75.8946 45.4068 76.1266 45.44 76.3586C45.44 76.4249 45.7723 78.0823 44.2438 79.6071C44.0776 79.7728 44.0776 80.0712 44.2438 80.27C44.4099 80.4358 44.6757 80.4358 44.8419 80.27Z" fill="white"/>
<path d="M118.384 47.4874C118.451 47.6863 118.949 49.1117 123.07 49.0785C125.396 49.0454 126.958 49.7083 127.589 50.8022C128.154 51.7966 128.021 53.2551 127.124 54.9788C127.024 55.2108 127.09 55.5091 127.29 55.6417C127.489 55.8075 127.755 55.7412 127.888 55.5091C128.985 53.454 129.084 51.664 128.32 50.3381C127.489 48.8796 125.662 48.0841 123.003 48.1504C119.647 48.2498 119.215 47.2554 119.215 47.2554C119.215 47.2554 119.215 47.2554 119.215 47.2885C119.149 47.0565 118.883 46.9239 118.683 46.9902C118.451 47.0565 118.318 47.2885 118.384 47.4874Z" fill="white"/>
<path d="M122.97 42.4489C122.771 42.5815 122.771 42.8798 122.937 43.1118C123.004 43.1781 124.167 44.8686 123.17 46.7912C123.07 46.9901 123.137 47.2884 123.369 47.4541C123.569 47.5867 123.834 47.5536 123.967 47.3215C125.263 44.9018 123.701 42.6809 123.635 42.5815C123.436 42.3826 123.137 42.3163 122.97 42.4489Z" fill="white"/>
<path d="M122.005 50.0397C121.24 52.128 121.074 53.5534 121.706 54.6804C122.37 55.9068 123.932 56.6361 126.557 57.1996C129.814 57.8957 129.913 59.3873 129.913 59.3873C129.913 59.3873 129.913 59.3873 129.913 59.3542C129.913 59.6194 130.079 59.8846 130.312 59.9177C130.545 59.9508 130.744 59.7851 130.777 59.4868C130.777 59.2547 130.744 57.0339 126.657 56.2383C124.364 55.8074 122.968 55.2108 122.437 54.2495C121.971 53.3876 122.138 52.1612 122.802 50.3712C122.902 50.1392 122.769 49.874 122.57 49.7746C122.304 49.7083 122.071 49.8077 122.005 50.0397Z" fill="white"/>
<path d="M125.395 57.7298C123.501 59.6523 123.966 61.7406 123.966 61.8069C123.999 62.0389 124.232 62.2047 124.464 62.1384C124.697 62.1052 124.83 61.8732 124.797 61.6412C124.797 61.5749 124.464 59.9175 125.993 58.3927C126.159 58.227 126.159 57.9287 125.993 57.7298C125.827 57.564 125.561 57.564 125.395 57.7298Z" fill="white"/>
<path d="M67.6348 91.3744C67.7012 91.1423 67.7012 90.9435 67.6015 90.7114L63.614 82.756C63.5475 82.6234 63.4478 82.4908 63.2817 82.3914C63.0158 82.2257 62.6503 82.2257 62.3513 82.3914C62.2183 82.4908 62.1186 82.5903 62.019 82.756L58.0314 90.7114C57.9317 90.9103 57.8985 91.1423 57.9982 91.3744C58.0646 91.6064 58.2308 91.7722 58.4302 91.8716C58.6295 91.971 58.8621 92.0042 59.0948 91.9047C59.3274 91.8384 59.4935 91.6727 59.5932 91.4738L60.3575 89.9822H65.2422L66.0065 91.4738C66.073 91.6396 66.1727 91.739 66.3388 91.8384C66.6046 92.0042 66.9037 92.0042 67.1695 91.8716C67.4354 91.7722 67.5683 91.6064 67.6348 91.3744ZM61.2547 88.2585L62.8165 85.1095L64.3783 88.2585H61.2547Z" fill="white"/>
<path d="M78.7318 91.274C78.765 91.042 78.7318 90.8099 78.5989 90.6111L76.2728 87.1306L78.5989 83.6501C78.7318 83.4512 78.765 83.2523 78.7318 82.9871C78.6986 82.7551 78.5657 82.5893 78.3663 82.4568C78.1669 82.3242 77.9343 82.291 77.7017 82.3242C77.4691 82.3573 77.3029 82.4899 77.1368 82.6888L74.7442 86.2687H72.0859V83.1529C72.0859 82.9208 72.0194 82.7219 71.82 82.5562C71.6539 82.3905 71.4545 82.291 71.2219 82.291C70.9893 82.291 70.7899 82.3905 70.5905 82.5562C70.4244 82.7219 70.3247 82.9208 70.3247 83.1529V91.0751C70.3247 91.3072 70.3912 91.506 70.5905 91.7049C70.7899 91.9038 70.9561 91.9701 71.2219 91.9701C71.4545 91.9701 71.6539 91.9038 71.82 91.7049C71.9862 91.5392 72.0859 91.3403 72.0859 91.0751V87.9592H74.7442L77.1368 91.5392C77.3029 91.8044 77.5355 91.937 77.8678 91.937C78.034 91.937 78.2001 91.9038 78.3663 91.8044C78.5657 91.6718 78.6653 91.506 78.7318 91.274Z" fill="white"/>
<path d="M90.5312 91.3744C90.5977 91.1423 90.5977 90.9435 90.498 90.7114L86.5105 82.756C86.444 82.6234 86.3443 82.4908 86.1782 82.3914C85.9123 82.2257 85.5468 82.2257 85.2477 82.3914C85.1148 82.4908 85.0151 82.5903 84.9154 82.756L80.9279 90.7114C80.8282 90.9103 80.795 91.1423 80.8947 91.3744C80.9611 91.6064 81.1273 91.7721 81.3266 91.8716C81.526 91.971 81.7586 92.0042 81.9912 91.9047C82.2238 91.8384 82.39 91.6727 82.4897 91.4738L83.254 89.9822H88.1387L88.903 91.4738C88.9695 91.6395 89.0691 91.739 89.2353 91.8384C89.5011 92.0042 89.8002 92.0042 90.066 91.8716C90.2986 91.7721 90.4316 91.6064 90.5312 91.3744ZM84.1512 88.2585L85.713 85.1095L87.2747 88.2585H84.1512Z" fill="white"/>
<path d="M101.198 87.6278C100.932 87.1969 100.567 86.8322 100.102 86.6002L99.9356 86.5008L100.002 86.335C100.168 85.9704 100.268 85.5395 100.268 85.1417C100.268 84.3462 100.002 83.6832 99.4371 83.1197C98.8722 82.5562 98.2076 82.291 97.4101 82.291H94.0871C93.8545 82.291 93.6552 82.3905 93.4558 82.5562C93.2896 82.7219 93.1899 82.9208 93.1899 83.1529V91.0751C93.1899 91.3072 93.2564 91.506 93.4558 91.7049C93.6552 91.9038 93.8213 91.9701 94.0871 91.9701H98.7393C99.5368 91.9701 100.201 91.7049 100.766 91.1414C101.331 90.5779 101.597 89.915 101.597 89.1194C101.63 88.5891 101.464 88.0918 101.198 87.6278ZM94.9843 84.0147H97.4433C97.7424 84.0147 98.0082 84.1141 98.2408 84.3462C98.4735 84.545 98.5731 84.8102 98.5731 85.1417C98.5731 85.44 98.4735 85.7052 98.2408 85.9373C98.0082 86.1693 97.7424 86.2687 97.4433 86.2687H94.9843V84.0147ZM99.5368 89.915C99.3042 90.147 99.0716 90.2464 98.7393 90.2464H94.9511V87.9924H98.7393C99.0384 87.9924 99.3042 88.0918 99.5368 88.3239C99.7694 88.5228 99.8691 88.7879 99.8691 89.1194C99.8691 89.4177 99.7694 89.6829 99.5368 89.915Z" fill="white"/>
<path d="M111.73 82.4236C111.531 82.291 111.298 82.2579 111.066 82.3242C110.833 82.3905 110.667 82.4899 110.534 82.7219L107.942 86.8322L105.35 82.7219C105.217 82.523 105.051 82.3905 104.819 82.3242C104.752 82.3242 104.686 82.291 104.619 82.291C104.453 82.291 104.32 82.3242 104.154 82.4236C103.955 82.5562 103.822 82.7219 103.755 82.954C103.689 83.186 103.755 83.418 103.855 83.6169L107.045 88.6885V91.0751C107.045 91.3072 107.145 91.506 107.311 91.7049C107.477 91.8707 107.676 91.9701 107.909 91.9701C108.142 91.9701 108.341 91.8707 108.54 91.7049C108.706 91.5392 108.806 91.3403 108.806 91.0751V88.6885L108.839 88.6553L111.996 83.6169C112.129 83.418 112.162 83.186 112.096 82.954C112.063 82.7219 111.93 82.5562 111.73 82.4236Z" fill="white"/>
<path d="M73.2179 74.7349H58.1981C57.9655 74.7349 57.7993 74.9006 57.7993 75.1326V75.1989C57.7993 75.431 57.9655 75.5967 58.1981 75.5967H73.2179C73.4505 75.5967 73.6166 75.431 73.6166 75.1989V75.1326C73.6166 74.9006 73.4172 74.7349 73.2179 74.7349Z" fill="white"/>
<path d="M112.026 74.7349H96.9066C96.674 74.7349 96.5078 74.9006 96.5078 75.1326V75.1989C96.5078 75.431 96.674 75.5967 96.9066 75.5967H112.026C112.259 75.5967 112.425 75.431 112.425 75.1989V75.1326C112.425 74.9006 112.259 74.7349 112.026 74.7349Z" fill="white"/>
<path d="M99.4026 69.8951C103.357 65.5528 104.885 60.4812 103.955 54.8793C103.224 50.537 101.064 46.957 97.5085 44.2058C93.7868 41.3219 89.5998 40.2281 85.1138 40.9573C80.5614 41.6866 76.9726 44.0069 74.4139 47.852C72.2208 51.1336 71.4897 54.7467 72.254 58.5255C73.0515 62.6027 75.2779 65.7848 78.8667 67.9394C81.658 69.6299 84.6819 70.1934 87.8719 69.5968C91.0952 69.0001 93.7203 67.3428 95.6809 64.7241C97.6082 62.1386 98.3725 59.2548 97.874 56.2052C97.3756 52.9567 95.7141 50.3712 92.9228 48.5481C89.4005 46.2278 84.8148 46.4267 81.5583 49.0453C79.3651 50.8021 78.2353 52.9899 78.1689 55.6085C78.1024 58.4592 79.2654 60.7464 81.6247 62.4038C84.3496 64.2932 87.9384 63.9949 90.198 61.6414C91.7598 59.984 92.225 58.0946 91.4939 56.0395C90.8293 54.15 89.1679 52.9567 87.2738 53.0562C85.8781 53.1225 84.9145 53.7854 84.3828 55.045C84.117 55.6417 84.1502 56.3046 84.416 56.835C84.6819 57.3653 85.2135 57.6968 85.8117 57.8294C86.144 57.8957 86.4763 57.7963 86.7089 57.5974C86.9415 57.3985 87.0744 57.1002 87.0744 56.7687C87.0744 56.5367 86.9415 56.3709 86.7421 56.2715C86.5095 56.2052 86.3101 56.2052 86.011 56.603L85.712 57.0007L85.5458 56.5367C85.5126 56.4704 85.5126 56.4372 85.4794 56.4041C85.4129 56.2715 85.3465 56.1389 85.3797 55.9732C85.4129 55.708 85.4794 55.3765 85.6455 55.1113C86.1772 54.3158 87.0079 53.9843 87.9716 54.15C89.1346 54.3489 90.0318 55.1113 90.497 56.3046C91.1284 57.8626 90.7961 59.3874 89.6331 60.7464C87.8719 62.7353 84.9145 63.133 82.5219 61.6414C79.498 59.752 78.4347 55.7411 80.0962 52.4927C82.1564 48.4818 87.0412 46.8576 91.2281 48.7801C95.847 50.9016 98.1398 56.3378 96.4119 61.1442C94.4514 66.5804 88.7026 69.6962 83.0204 68.4035C77.6704 67.177 73.6164 62.4369 73.1512 56.835C72.985 54.6141 73.3506 52.4595 74.2478 50.4375C77.2384 43.6423 85.1471 40.1618 92.2914 42.5153C96.3122 43.8412 99.6019 46.6918 101.529 50.5701C103.49 54.4815 103.789 58.8901 102.393 63.0004C100.865 67.4422 97.6746 71.0221 93.3548 73.1104C89.0349 75.1987 84.2166 75.4639 79.7639 73.906C73.0183 71.5193 68.0671 65.3208 67.0702 58.1277C67.0037 57.6968 66.7711 57.5311 66.5385 57.5311H66.5053C66.2727 57.5311 66.0068 57.73 66.0068 58.0946C66.0068 58.5587 66.1065 59.1553 66.2727 59.9177C67.5022 65.6191 70.659 70.0609 75.6766 73.1436C79.7639 75.6296 84.1834 76.4915 88.902 75.6628C92.9893 74.9998 96.5448 73.011 99.4026 69.8951Z" fill="white"/>
<path d="M86.215 58.0284C87.3345 58.0284 88.242 57.1231 88.242 56.0064C88.242 54.8897 87.3345 53.9844 86.215 53.9844C85.0955 53.9844 84.188 54.8897 84.188 56.0064C84.188 57.1231 85.0955 58.0284 86.215 58.0284Z" fill="white"/>
<path d="M501.21 37L505.172 26.92H506.25L510.114 37H509.134L507.972 33.836H503.38L502.19 37H501.21ZM503.702 33.024H507.65L505.676 27.732L503.702 33.024ZM511.29 37V26.92H512.13V33.192L515.686 29.748H516.834L514.118 32.366L517.156 37H516.218L513.502 32.954L512.13 34.256V37H511.29ZM523.092 33.192C522.737 33.3413 522.378 33.4393 522.014 33.486C521.65 33.5327 521.286 33.57 520.922 33.598C520.278 33.6447 519.774 33.7893 519.41 34.032C519.055 34.2747 518.878 34.6433 518.878 35.138C518.878 35.362 518.92 35.558 519.004 35.726C519.097 35.8847 519.214 36.02 519.354 36.132C519.503 36.2347 519.671 36.314 519.858 36.37C520.054 36.4167 520.25 36.44 520.446 36.44C520.782 36.44 521.109 36.398 521.426 36.314C521.743 36.23 522.023 36.104 522.266 35.936C522.518 35.7587 522.719 35.5393 522.868 35.278C523.017 35.0073 523.092 34.69 523.092 34.326V33.192ZM521.678 32.772C521.837 32.7533 522.023 32.7253 522.238 32.688C522.462 32.6507 522.644 32.5993 522.784 32.534C522.924 32.4687 523.008 32.3613 523.036 32.212C523.073 32.0533 523.092 31.9087 523.092 31.778C523.092 31.3487 522.952 30.9987 522.672 30.728C522.401 30.448 521.939 30.308 521.286 30.308C520.997 30.308 520.731 30.336 520.488 30.392C520.245 30.4387 520.031 30.5273 519.844 30.658C519.667 30.7793 519.517 30.9473 519.396 31.162C519.284 31.3673 519.209 31.6287 519.172 31.946H518.318C518.346 31.5167 518.444 31.1527 518.612 30.854C518.78 30.546 518.995 30.2987 519.256 30.112C519.527 29.916 519.835 29.776 520.18 29.692C520.535 29.5987 520.908 29.552 521.3 29.552C521.664 29.552 522.005 29.594 522.322 29.678C522.649 29.7527 522.929 29.8787 523.162 30.056C523.405 30.224 523.591 30.4527 523.722 30.742C523.862 31.0313 523.932 31.386 523.932 31.806V35.754C523.932 36.0807 523.988 36.2907 524.1 36.384C524.221 36.468 524.459 36.4447 524.814 36.314V36.972C524.749 36.9907 524.651 37.0187 524.52 37.056C524.399 37.0933 524.277 37.112 524.156 37.112C524.025 37.112 523.899 37.098 523.778 37.07C523.638 37.0513 523.526 37.0093 523.442 36.944C523.358 36.8693 523.288 36.7853 523.232 36.692C523.185 36.5893 523.153 36.482 523.134 36.37C523.115 36.2487 523.106 36.1227 523.106 35.992C522.751 36.384 522.345 36.6827 521.888 36.888C521.431 37.0933 520.936 37.196 520.404 37.196C520.087 37.196 519.779 37.154 519.48 37.07C519.191 36.986 518.934 36.8553 518.71 36.678C518.486 36.5007 518.309 36.286 518.178 36.034C518.047 35.7727 517.982 35.4647 517.982 35.11C517.982 33.878 518.827 33.15 520.516 32.926L521.678 32.772ZM527.063 33.346C527.063 33.7847 527.115 34.1953 527.217 34.578C527.329 34.9513 527.488 35.278 527.693 35.558C527.899 35.8287 528.155 36.0433 528.463 36.202C528.771 36.3607 529.121 36.44 529.513 36.44C529.868 36.44 530.195 36.3793 530.493 36.258C530.792 36.1273 531.053 35.9407 531.277 35.698C531.501 35.4553 531.674 35.1613 531.795 34.816C531.926 34.4613 531.991 34.0553 531.991 33.598C532.01 33.1407 531.973 32.716 531.879 32.324C531.786 31.9227 531.637 31.5727 531.431 31.274C531.226 30.9753 530.96 30.742 530.633 30.574C530.316 30.3967 529.943 30.308 529.513 30.308C529.131 30.308 528.785 30.392 528.477 30.56C528.179 30.7187 527.922 30.938 527.707 31.218C527.502 31.4887 527.343 31.8107 527.231 32.184C527.119 32.548 527.063 32.9353 527.063 33.346ZM527.063 37H526.223V26.92H527.063V30.91C527.334 30.462 527.703 30.126 528.169 29.902C528.645 29.6687 529.14 29.552 529.653 29.552C530.204 29.552 530.68 29.6593 531.081 29.874C531.492 30.0793 531.828 30.3593 532.089 30.714C532.36 31.0593 532.561 31.4653 532.691 31.932C532.822 32.3987 532.887 32.884 532.887 33.388C532.887 33.92 532.827 34.4193 532.705 34.886C532.584 35.3527 532.388 35.7587 532.117 36.104C531.856 36.44 531.52 36.706 531.109 36.902C530.699 37.098 530.199 37.196 529.611 37.196C529.378 37.196 529.14 37.1633 528.897 37.098C528.655 37.0327 528.417 36.9393 528.183 36.818C527.959 36.6967 527.749 36.5473 527.553 36.37C527.367 36.1833 527.213 35.9687 527.091 35.726H527.063V37ZM534.628 38.974C534.74 38.9927 534.852 39.0113 534.964 39.03C535.085 39.0487 535.206 39.058 535.328 39.058C535.561 39.058 535.752 38.9833 535.902 38.834C536.051 38.6847 536.172 38.5027 536.266 38.288C536.368 38.0827 536.452 37.8633 536.518 37.63C536.583 37.406 536.658 37.2147 536.742 37.056L533.928 29.748H534.866L537.19 35.978L539.514 29.748H540.424L537.722 36.902C537.554 37.3593 537.39 37.77 537.232 38.134C537.082 38.498 536.919 38.806 536.742 39.058C536.574 39.3193 536.382 39.5153 536.168 39.646C535.962 39.786 535.715 39.856 535.426 39.856C535.276 39.856 535.132 39.8467 534.992 39.828C534.861 39.8093 534.74 39.786 534.628 39.758V38.974ZM540.819 37V35.768H541.841V37H540.819ZM544.239 37V26.92H545.079V33.192L548.635 29.748H549.783L547.067 32.366L550.105 37H549.167L546.451 32.954L545.079 34.256V37H544.239ZM550.749 37V36.258L555.565 30.448H551.071V29.748H556.643V30.49L551.827 36.3H556.825V37H550.749Z" fill="white"/>
</svg>
