<svg width="149" height="132" viewBox="0 0 149 132" fill="none" xmlns="http://www.w3.org/2000/svg">
<path d="M21.5143 20.0818C21.9819 20.1597 25.5668 20.3156 29.1518 11.3532C31.1781 6.28754 33.9837 3.48193 36.9452 3.09226C39.5949 2.78053 42.7122 4.3392 45.5958 7.84621C45.9854 8.31381 46.6868 8.39175 47.1544 8.08001C47.7 7.76828 47.7779 7.14481 47.3882 6.6772C43.9592 2.46879 40.1404 0.598388 36.5555 1.06599C32.6588 1.53359 29.3077 4.8068 27.0476 10.6518C24.242 17.9776 21.7481 18.0555 21.6702 18.0555C21.6702 18.0555 21.6702 18.0555 21.7481 18.0555C21.2026 17.9776 20.657 18.4452 20.5791 18.9907C20.5791 19.5362 20.9688 20.0038 21.5143 20.0818Z" fill="#A01918"/>
<path d="M14.655 5.66406C14.8108 6.2096 15.4343 6.44339 16.0578 6.28753C16.2136 6.20959 20.9676 5.19646 24.2408 9.09313C24.6305 9.56074 25.3319 9.63867 25.7995 9.24901C26.345 8.93727 26.4229 8.3138 26.1112 7.8462C21.9807 2.85845 15.746 4.26126 15.5122 4.33919C14.8888 4.57299 14.4991 5.11853 14.655 5.66406Z" fill="#34ADB7"/>
<path d="M30.2371 14.5489C34.0558 18.1338 37.0952 19.7704 40.0567 19.3807C43.3299 18.9911 46.2914 16.3413 49.8763 11.1198C54.3185 4.65129 57.5918 5.8203 57.6697 5.8203C57.6697 5.8203 57.6697 5.8203 57.5918 5.8203C58.1373 6.0541 58.9166 5.89823 59.1504 5.43063C59.4622 4.96303 59.2284 4.33956 58.6049 4.10576C58.1373 3.87196 53.2275 2.00155 47.928 10.1066C44.8886 14.7047 42.3947 17.1986 39.8229 17.4324C37.5628 17.6662 34.991 16.1855 31.7957 13.1461C31.4061 12.7564 30.7047 12.7564 30.2371 13.1461C29.8474 13.5357 29.8474 14.1592 30.2371 14.5489Z" fill="#34ADB7"/>
<path d="M50.0293 14.081C52.5232 19.926 57.433 20.7832 57.6668 20.8612C58.2124 20.9391 58.7579 20.6274 58.8358 20.0818C58.9138 19.5363 58.602 18.9908 58.0565 18.9128C57.9006 18.9128 54.004 18.1335 52.0556 13.4575C51.8218 12.912 51.1983 12.6782 50.6528 12.834C50.1073 12.9899 49.8735 13.6134 50.0293 14.081Z" fill="#A01918"/>
<path d="M129.914 94.5871C129.836 95.0547 129.68 98.6396 138.643 102.225C143.708 104.251 146.514 107.056 146.904 110.018C147.215 112.668 145.657 115.785 142.15 118.669C141.682 119.058 141.604 119.76 141.916 120.227C142.227 120.773 142.851 120.851 143.319 120.461C147.527 117.032 149.397 113.213 148.93 109.628C148.462 105.732 145.189 102.38 139.344 100.12C132.018 97.3147 131.94 94.8209 131.94 94.7429C131.94 94.7429 131.94 94.7429 131.94 94.8209C132.018 94.2753 131.551 93.7298 131.005 93.6519C130.46 93.6519 129.992 94.0415 129.914 94.5871Z" fill="#A01918"/>
<path d="M144.335 87.6505C143.79 87.8064 143.556 88.4298 143.712 89.0533C143.79 89.2092 144.803 93.9631 140.906 97.2363C140.439 97.626 140.361 98.3274 140.75 98.795C141.062 99.3405 141.686 99.4185 142.153 99.1067C147.141 94.9763 145.738 88.7416 145.66 88.5078C145.426 87.9622 144.881 87.4946 144.335 87.6505Z" fill="#34ADB7"/>
<path d="M135.456 103.237C131.871 107.056 130.234 110.095 130.624 113.057C131.013 116.33 133.663 119.292 138.885 122.877C145.353 127.319 144.184 130.592 144.184 130.67C144.184 130.67 144.184 130.67 144.184 130.592C143.95 131.138 144.106 131.917 144.574 132.151C145.041 132.462 145.665 132.229 145.899 131.605C146.132 131.138 148.003 126.228 139.898 120.928C135.3 117.889 132.806 115.395 132.572 112.823C132.338 110.563 133.819 107.991 136.858 104.796C137.248 104.406 137.248 103.705 136.858 103.237C136.469 102.848 135.845 102.848 135.456 103.237Z" fill="#34ADB7"/>
<path d="M135.918 123.11C130.073 125.604 129.216 130.514 129.138 130.747C129.06 131.293 129.372 131.838 129.917 131.916C130.463 131.994 131.008 131.683 131.086 131.137C131.086 130.981 131.866 127.085 136.542 125.136C137.087 124.902 137.321 124.279 137.165 123.733C137.009 123.11 136.464 122.876 135.918 123.11Z" fill="#A01918"/>
<path d="M129.447 130.981C129.213 131.371 127.655 134.644 134.591 141.346C138.488 145.165 140.046 148.828 139.267 151.711C138.565 154.283 135.916 156.543 131.551 157.868C131.006 158.024 130.616 158.647 130.694 159.271C130.772 159.894 131.318 160.206 131.863 160.05C137.085 158.492 140.202 155.686 141.215 152.179C142.228 148.36 140.592 144.074 135.994 139.71C130.305 134.332 131.24 131.994 131.24 131.916C131.24 131.916 131.24 131.916 131.24 131.994C131.474 131.526 131.318 130.825 130.85 130.591C130.305 130.358 129.681 130.513 129.447 130.981Z" fill="#A01918"/>
<path d="M145.422 130.202C144.877 130.124 144.409 130.591 144.253 131.293C144.253 131.527 143.396 136.203 138.486 137.761C137.94 137.917 137.629 138.541 137.707 139.164C137.785 139.788 138.33 140.099 138.876 139.944C145.032 138.073 146.201 131.76 146.201 131.527C146.279 130.825 145.968 130.28 145.422 130.202Z" fill="#34ADB7"/>
<path d="M-12.0799 33.4862C-11.6123 33.3303 -8.26119 32.1613 -8.33912 22.4976C-8.41706 17.0422 -6.85839 13.3793 -4.28658 11.8986C-1.94857 10.5737 1.48051 10.8855 5.53306 12.9897C6.07859 13.2235 6.77999 13.0676 7.09173 12.6C7.4814 12.1324 7.32552 11.5089 6.77999 11.1972C1.9481 8.62539 -2.2603 8.39159 -5.37764 10.1841C-8.80672 12.1324 -10.6771 16.4187 -10.5213 22.6534C-10.2875 30.5247 -12.6255 31.5379 -12.6255 31.5379C-12.6255 31.5379 -12.6255 31.5379 -12.5475 31.5379C-13.0931 31.6937 -13.4048 32.3172 -13.2489 32.7848C-13.171 33.3303 -12.6255 33.6421 -12.0799 33.4862Z" fill="#A01918"/>
<path d="M-6.15383 25.0696C-1.24402 26.862 2.10712 27.2517 4.75687 25.771C7.64041 24.2123 9.35494 20.5494 10.6798 14.3927C12.3164 6.75519 15.8234 6.52139 15.8234 6.52139C15.8234 6.52139 15.8234 6.52139 15.7455 6.52139C16.369 6.52139 16.9924 6.13172 17.0704 5.58618C17.1483 5.04065 16.7586 4.57305 16.0572 4.49512C15.5117 4.49512 10.2901 4.57305 8.41974 14.1589C7.4066 19.5363 6.0038 22.8095 3.74373 24.0564C1.71745 25.1475 -1.16609 24.7578 -5.3745 23.1992C-5.92003 22.9654 -6.5435 23.2771 -6.7773 23.7447C-6.93317 24.2902 -6.69937 24.8358 -6.15383 25.0696Z" fill="#34ADB7"/>
<path d="M11.9993 17.043C16.5194 21.4852 21.4292 20.3941 21.5851 20.3941C22.1306 20.3162 22.5203 19.7706 22.3644 19.2251C22.2865 18.6796 21.741 18.3678 21.1954 18.4458C21.0396 18.4458 17.1429 19.2251 13.558 15.6402C13.1683 15.2505 12.4669 15.2505 11.9993 15.6402C11.6096 16.0298 11.6096 16.6533 11.9993 17.043Z" fill="#A01918"/>
<path d="M57.9838 20.6272C58.3734 20.861 61.6466 22.4196 68.3489 15.4835C72.1677 11.5869 75.8305 10.0282 78.7141 10.8075C81.2859 11.5089 83.546 14.1587 84.8708 18.523C85.0267 19.0685 85.6502 19.4582 86.2736 19.3802C86.8971 19.3023 87.2088 18.7568 87.053 18.2112C85.4943 12.9897 82.6887 9.87233 79.1817 8.85919C75.3629 7.84605 71.0766 9.48266 66.7123 14.0807C61.3349 19.7699 58.9969 18.8347 58.919 18.8347C58.919 18.8347 58.919 18.8347 58.9969 18.8347C58.5293 18.6009 57.8279 18.7567 57.5941 19.2243C57.2824 19.7699 57.5162 20.3154 57.9838 20.6272Z" fill="#A01918"/>
<path d="M57.2009 4.65088C57.1229 5.19642 57.5905 5.66402 58.2919 5.81989C58.5257 5.81989 63.2017 6.67716 64.7604 11.587C64.9163 12.1325 65.5397 12.4442 66.1632 12.3663C66.7867 12.2884 67.0984 11.7428 66.9425 11.1973C65.0721 5.04055 58.7595 3.87155 58.5257 3.87155C57.8243 3.71568 57.2009 4.10535 57.2009 4.65088Z" fill="#34ADB7"/>
<path d="M68.1175 18.8346C70.2996 23.5885 72.4038 26.2383 75.2873 27.0955C78.4047 28.0307 82.2234 26.6279 87.5229 23.1989C94.0693 18.9125 96.7191 21.2505 96.7191 21.2505C97.1867 21.7181 97.8881 21.874 98.3557 21.5623C98.8233 21.2505 98.8233 20.6271 98.4336 20.0815C98.0439 19.6919 94.3031 16.1069 86.276 21.4843C81.7558 24.5237 78.4047 25.8486 75.9888 25.1472C73.8066 24.5237 72.0141 22.1857 70.2217 18.0552C69.9879 17.5097 69.3644 17.2759 68.8189 17.5097C68.1175 17.7435 67.8837 18.289 68.1175 18.8346Z" fill="#34ADB7"/>
<path d="M86.5903 26.005C86.6683 32.3176 90.8767 35.0453 91.0326 35.2012C91.5002 35.5129 92.1236 35.3571 92.4353 34.9674C92.7471 34.4998 92.5912 33.8763 92.1236 33.5646C91.9678 33.4866 88.6945 31.2266 88.6945 26.1609C88.6945 25.6154 88.227 25.0698 87.6035 25.0698C87.0579 25.0698 86.5903 25.4595 86.5903 26.005Z" fill="#A01918"/>
<path d="M91.2678 34.9663C91.5796 35.356 93.9176 38.0057 102.88 34.187C107.868 32.0048 111.842 32.0048 114.18 33.8752C116.285 35.5118 117.376 38.785 116.908 43.3831C116.83 43.9286 117.298 44.5521 117.843 44.708C118.389 44.8639 118.934 44.4742 119.012 43.9287C119.558 38.4733 118.155 34.4987 115.271 32.3165C112.154 29.9006 107.478 29.8227 101.789 32.3945C94.619 35.5898 92.8265 33.8752 92.7486 33.7973C92.3589 33.4076 91.7354 33.2517 91.3458 33.6414C90.9561 33.8752 90.9561 34.4987 91.2678 34.9663Z" fill="#A01918"/>
<path d="M96.6376 19.8478C96.4038 20.3154 96.6376 20.9389 97.1832 21.3286C97.339 21.4065 101.392 24.0563 101.002 29.1219C100.924 29.6675 101.392 30.213 102.015 30.3689C102.639 30.5247 103.106 30.1351 103.184 29.5895C103.808 23.199 98.4301 19.692 98.1963 19.614C97.5728 19.3023 96.8714 19.3802 96.6376 19.8478Z" fill="#34ADB7"/>
<path d="M101.324 37.2268C101.558 42.4484 102.493 45.7216 104.831 47.592C107.403 49.6182 111.377 49.852 117.612 48.683C125.327 47.2802 126.886 50.3976 126.886 50.3976C126.886 50.3976 126.886 50.3976 126.886 50.3197C127.12 50.9431 127.743 51.3328 128.289 51.1769C128.834 51.021 129.068 50.4755 128.912 49.852C128.756 49.3844 126.652 44.5526 117.066 46.5009C111.689 47.592 108.104 47.514 106.156 45.9554C104.363 44.5526 103.584 41.669 103.506 37.2268C103.506 36.6813 103.038 36.1357 102.415 36.1357C101.791 36.2137 101.324 36.6813 101.324 37.2268Z" fill="#34ADB7"/>
<path d="M115.663 50.9427C113.325 56.8656 116.131 60.9182 116.287 61.074C116.598 61.5416 117.222 61.6975 117.69 61.3858C118.157 61.074 118.235 60.4506 117.923 59.983C117.845 59.8271 115.585 56.5539 117.612 51.8779C117.845 51.3323 117.612 50.7089 117.066 50.4751C116.443 50.1633 115.897 50.3971 115.663 50.9427Z" fill="#A01918"/>
<path d="M116.511 60.9188C116.667 61.3864 117.836 64.7376 127.5 64.6597C132.955 64.5817 136.618 66.1404 138.099 68.7122C139.424 71.0502 139.112 74.4793 137.008 78.5318C136.774 79.0774 136.93 79.7788 137.398 80.0905C137.865 80.4802 138.489 80.3243 138.8 79.7788C141.372 74.9469 141.606 70.7385 139.813 67.6211C137.865 64.1921 133.579 62.3216 127.344 62.4775C119.473 62.7113 118.46 60.3733 118.46 60.3733C118.46 60.3733 118.46 60.3733 118.46 60.4512C118.304 59.9057 117.68 59.594 117.213 59.7498C116.667 59.9057 116.355 60.4512 116.511 60.9188Z" fill="#A01918"/>
<path d="M127.265 49.0731C126.797 49.3848 126.797 50.0862 127.187 50.6317C127.343 50.7876 130.071 54.7622 127.733 59.2824C127.499 59.75 127.655 60.4514 128.2 60.841C128.668 61.1528 129.291 61.0748 129.603 60.5293C132.642 54.8402 128.979 49.6186 128.824 49.3848C128.356 48.9172 127.655 48.7613 127.265 49.0731Z" fill="#34ADB7"/>
<path d="M125.01 66.9199C123.218 71.8297 122.828 75.1808 124.309 77.8306C125.868 80.7141 129.531 82.4287 135.687 83.7535C143.325 85.3901 143.559 88.8972 143.559 88.8972C143.559 88.8972 143.559 88.8972 143.559 88.8192C143.559 89.4427 143.948 90.0662 144.494 90.1441C145.039 90.222 145.507 89.8324 145.585 89.131C145.585 88.5854 145.507 83.3639 135.921 81.4935C130.544 80.4803 127.27 79.0775 126.024 76.8175C124.932 74.7912 125.322 71.9076 126.881 67.6992C127.115 67.1537 126.803 66.5302 126.335 66.2964C125.712 66.1406 125.166 66.3744 125.01 66.9199Z" fill="#34ADB7"/>
<path d="M132.952 85.0007C128.51 89.5209 129.601 94.4307 129.601 94.5866C129.679 95.1321 130.224 95.5218 130.77 95.3659C131.315 95.288 131.627 94.7424 131.549 94.1969C131.549 94.041 130.77 90.1444 134.355 86.5594C134.744 86.1698 134.744 85.4683 134.355 85.0007C133.965 84.6111 133.342 84.6111 132.952 85.0007Z" fill="#A01918"/>
<path d="M24.21 100L28.172 89.92H29.25L33.114 100H32.134L30.972 96.836H26.38L25.19 100H24.21ZM26.702 96.024H30.65L28.676 90.732L26.702 96.024ZM34.2899 100V89.92H35.1299V96.192L38.6859 92.748H39.8339L37.1179 95.366L40.1559 100H39.2179L36.5019 95.954L35.1299 97.256V100H34.2899ZM46.0919 96.192C45.7372 96.3413 45.3779 96.4393 45.0139 96.486C44.6499 96.5327 44.2859 96.57 43.9219 96.598C43.2779 96.6447 42.7739 96.7893 42.4099 97.032C42.0552 97.2747 41.8779 97.6433 41.8779 98.138C41.8779 98.362 41.9199 98.558 42.0039 98.726C42.0972 98.8847 42.2139 99.02 42.3539 99.132C42.5032 99.2347 42.6712 99.314 42.8579 99.37C43.0539 99.4167 43.2499 99.44 43.4459 99.44C43.7819 99.44 44.1086 99.398 44.4259 99.314C44.7432 99.23 45.0232 99.104 45.2659 98.936C45.5179 98.7587 45.7186 98.5393 45.8679 98.278C46.0172 98.0073 46.0919 97.69 46.0919 97.326V96.192ZM44.6779 95.772C44.8366 95.7533 45.0232 95.7253 45.2379 95.688C45.4619 95.6507 45.6439 95.5993 45.7839 95.534C45.9239 95.4687 46.0079 95.3613 46.0359 95.212C46.0732 95.0533 46.0919 94.9087 46.0919 94.778C46.0919 94.3487 45.9519 93.9987 45.6719 93.728C45.4012 93.448 44.9392 93.308 44.2859 93.308C43.9966 93.308 43.7306 93.336 43.4879 93.392C43.2452 93.4387 43.0306 93.5273 42.8439 93.658C42.6666 93.7793 42.5172 93.9473 42.3959 94.162C42.2839 94.3673 42.2092 94.6287 42.1719 94.946H41.3179C41.3459 94.5167 41.4439 94.1527 41.6119 93.854C41.7799 93.546 41.9946 93.2987 42.2559 93.112C42.5266 92.916 42.8346 92.776 43.1799 92.692C43.5346 92.5987 43.9079 92.552 44.2999 92.552C44.6639 92.552 45.0046 92.594 45.3219 92.678C45.6486 92.7527 45.9286 92.8787 46.1619 93.056C46.4046 93.224 46.5912 93.4527 46.7219 93.742C46.8619 94.0313 46.9319 94.386 46.9319 94.806V98.754C46.9319 99.0807 46.9879 99.2907 47.0999 99.384C47.2212 99.468 47.4592 99.4447 47.8139 99.314V99.972C47.7486 99.9907 47.6506 100.019 47.5199 100.056C47.3986 100.093 47.2772 100.112 47.1559 100.112C47.0252 100.112 46.8992 100.098 46.7779 100.07C46.6379 100.051 46.5259 100.009 46.4419 99.944C46.3579 99.8693 46.2879 99.7853 46.2319 99.692C46.1852 99.5893 46.1526 99.482 46.1339 99.37C46.1152 99.2487 46.1059 99.1227 46.1059 98.992C45.7512 99.384 45.3452 99.6827 44.8879 99.888C44.4306 100.093 43.9359 100.196 43.4039 100.196C43.0866 100.196 42.7786 100.154 42.4799 100.07C42.1906 99.986 41.9339 99.8553 41.7099 99.678C41.4859 99.5007 41.3086 99.286 41.1779 99.034C41.0472 98.7727 40.9819 98.4647 40.9819 98.11C40.9819 96.878 41.8266 96.15 43.5159 95.926L44.6779 95.772ZM50.0632 96.346C50.0632 96.7847 50.1145 97.1953 50.2172 97.578C50.3292 97.9513 50.4879 98.278 50.6932 98.558C50.8985 98.8287 51.1552 99.0433 51.4632 99.202C51.7712 99.3607 52.1212 99.44 52.5132 99.44C52.8679 99.44 53.1945 99.3793 53.4932 99.258C53.7919 99.1273 54.0532 98.9407 54.2772 98.698C54.5012 98.4553 54.6739 98.1613 54.7952 97.816C54.9259 97.4613 54.9912 97.0553 54.9912 96.598C55.0099 96.1407 54.9725 95.716 54.8792 95.324C54.7859 94.9227 54.6365 94.5727 54.4312 94.274C54.2259 93.9753 53.9599 93.742 53.6332 93.574C53.3159 93.3967 52.9425 93.308 52.5132 93.308C52.1305 93.308 51.7852 93.392 51.4772 93.56C51.1785 93.7187 50.9219 93.938 50.7072 94.218C50.5019 94.4887 50.3432 94.8107 50.2312 95.184C50.1192 95.548 50.0632 95.9353 50.0632 96.346ZM50.0632 100H49.2232V89.92H50.0632V93.91C50.3339 93.462 50.7025 93.126 51.1692 92.902C51.6452 92.6687 52.1399 92.552 52.6532 92.552C53.2039 92.552 53.6799 92.6593 54.0812 92.874C54.4919 93.0793 54.8279 93.3593 55.0892 93.714C55.3599 94.0593 55.5605 94.4653 55.6912 94.932C55.8219 95.3987 55.8872 95.884 55.8872 96.388C55.8872 96.92 55.8265 97.4193 55.7052 97.886C55.5839 98.3527 55.3879 98.7587 55.1172 99.104C54.8559 99.44 54.5199 99.706 54.1092 99.902C53.6985 100.098 53.1992 100.196 52.6112 100.196C52.3779 100.196 52.1399 100.163 51.8972 100.098C51.6545 100.033 51.4165 99.9393 51.1832 99.818C50.9592 99.6967 50.7492 99.5473 50.5532 99.37C50.3665 99.1833 50.2125 98.9687 50.0912 98.726H50.0632V100ZM57.6278 101.974C57.7398 101.993 57.8518 102.011 57.9638 102.03C58.0851 102.049 58.2064 102.058 58.3278 102.058C58.5611 102.058 58.7524 101.983 58.9018 101.834C59.0511 101.685 59.1724 101.503 59.2658 101.288C59.3684 101.083 59.4524 100.863 59.5178 100.63C59.5831 100.406 59.6578 100.215 59.7418 100.056L56.9278 92.748H57.8658L60.1898 98.978L62.5138 92.748H63.4238L60.7218 99.902C60.5538 100.359 60.3904 100.77 60.2318 101.134C60.0824 101.498 59.9191 101.806 59.7418 102.058C59.5738 102.319 59.3824 102.515 59.1678 102.646C58.9624 102.786 58.7151 102.856 58.4258 102.856C58.2764 102.856 58.1318 102.847 57.9918 102.828C57.8611 102.809 57.7398 102.786 57.6278 102.758V101.974ZM63.8186 100V98.768H64.8406V100H63.8186ZM67.2391 100V89.92H68.0791V96.192L71.6351 92.748H72.7831L70.0671 95.366L73.1051 100H72.1671L69.4511 95.954L68.0791 97.256V100H67.2391ZM73.7491 100V99.258L78.5651 93.448H74.0711V92.748H79.6431V93.49L74.8271 99.3H79.8251V100H73.7491Z" fill="white"/>
</svg>
