<svg width="595" height="112" viewBox="0 0 595 112" fill="none" xmlns="http://www.w3.org/2000/svg">
<rect x="595" y="-78" width="190" height="657" rx="59" transform="rotate(90 595 -78)" fill="#34ADB7"/>
<path d="M52.1968 25.944C52.3427 25.9683 53.462 26.0168 54.5812 23.2257C55.2139 21.648 56.0898 20.7743 57.0144 20.6529C57.8416 20.5558 58.8149 21.0412 59.7152 22.1334C59.8368 22.2791 60.0558 22.3033 60.2018 22.2063C60.3721 22.1092 60.3964 21.915 60.2748 21.7694C59.2042 20.4587 58.012 19.8762 56.8927 20.0218C55.6761 20.1675 54.6299 21.1869 53.9243 23.0072C53.0484 25.2887 52.2698 25.313 52.2454 25.313C52.2454 25.313 52.2454 25.313 52.2698 25.313C52.0994 25.2887 51.9291 25.4343 51.9048 25.6042C51.9048 25.7741 52.0264 25.9198 52.1968 25.944Z" fill="white"/>
<path d="M50.0576 21.4536C50.1063 21.6235 50.3009 21.6963 50.4956 21.6478C50.5442 21.6235 52.0284 21.308 53.0504 22.5215C53.172 22.6672 53.391 22.6914 53.537 22.5701C53.7073 22.473 53.7316 22.2788 53.6343 22.1332C52.3448 20.5798 50.3982 21.0167 50.3253 21.041C50.1306 21.1138 50.0089 21.2837 50.0576 21.4536Z" fill="white"/>
<path d="M54.9223 24.2206C56.1145 25.3371 57.0635 25.8468 57.988 25.7254C59.01 25.6041 59.9346 24.7789 61.0538 23.1527C62.4407 21.1382 63.4626 21.5022 63.4869 21.5022C63.4869 21.5022 63.4869 21.5022 63.4626 21.5022C63.6329 21.5751 63.8762 21.5265 63.9492 21.3809C64.0466 21.2353 63.9736 21.0411 63.7789 20.9683C63.6329 20.8955 62.1 20.3129 60.4455 22.8372C59.4966 24.2692 58.718 25.0458 57.9151 25.1187C57.2094 25.1915 56.4065 24.7303 55.4089 23.7837C55.2873 23.6624 55.0683 23.6624 54.9223 23.7837C54.8006 23.9051 54.8006 24.0993 54.9223 24.2206Z" fill="white"/>
<path d="M61.1027 24.075C61.8813 25.8953 63.4142 26.1623 63.4872 26.1866C63.6575 26.2108 63.8278 26.1138 63.8521 25.9439C63.8765 25.774 63.7791 25.6041 63.6088 25.5798C63.5602 25.5798 62.3436 25.3371 61.7353 23.8808C61.6623 23.7109 61.4677 23.6381 61.2973 23.6866C61.127 23.7352 61.054 23.9294 61.1027 24.075Z" fill="white"/>
<path d="M62.8044 82.8845C62.6585 82.8603 61.5392 82.8117 60.42 85.6029C59.7874 87.1806 58.9114 88.0543 57.9868 88.1757C57.1596 88.2728 56.1863 87.7873 55.286 86.6951C55.1644 86.5495 54.9454 86.5252 54.7994 86.6223C54.6291 86.7194 54.6048 86.9136 54.7264 87.0592C55.797 88.3699 56.9892 88.9524 58.1085 88.8067C59.3251 88.6611 60.3713 87.6417 61.0769 85.8214C61.9528 83.5399 62.7314 83.5156 62.7558 83.5156C62.7558 83.5156 62.7558 83.5156 62.7314 83.5156C62.9018 83.5399 63.0721 83.3942 63.0964 83.2243C63.0964 83.0544 62.9748 82.9088 62.8044 82.8845Z" fill="white"/>
<path d="M64.9442 87.3993C64.8955 87.2294 64.7009 87.1565 64.5062 87.2051C64.4575 87.2294 62.9733 87.5449 61.9514 86.3313C61.8298 86.1857 61.6108 86.1614 61.4648 86.2828C61.2945 86.3799 61.2701 86.574 61.3675 86.7197C62.657 88.273 64.6035 87.8361 64.6765 87.8119C64.8712 87.7391 64.9928 87.5449 64.9442 87.3993Z" fill="white"/>
<path d="M60.0757 84.6078C58.8835 83.4913 57.9346 82.9816 57.01 83.103C55.988 83.2243 55.0635 84.0496 53.9442 85.6757C52.5573 87.6903 51.5354 87.3262 51.5111 87.3262C51.5111 87.3262 51.5111 87.3262 51.5354 87.3262C51.3651 87.2534 51.1218 87.3019 51.0488 87.4475C50.9515 87.5932 51.0244 87.7873 51.2191 87.8602C51.3651 87.933 52.898 88.5155 54.5525 85.9913C55.5014 84.5593 56.28 83.7826 57.083 83.7098C57.7886 83.6369 58.5915 84.0981 59.5891 85.0447C59.7107 85.166 59.9297 85.166 60.0757 85.0447C60.1974 84.9233 60.1974 84.7292 60.0757 84.6078Z" fill="white"/>
<path d="M53.9001 84.7535C53.1215 82.9331 51.5886 82.6661 51.5156 82.6419C51.3453 82.6176 51.175 82.7147 51.1507 82.8846C51.1263 83.0545 51.2237 83.2244 51.394 83.2487C51.4426 83.2487 52.6592 83.4914 53.2675 84.9476C53.3405 85.1175 53.5351 85.1904 53.7055 85.1418C53.8758 85.0933 53.9488 84.9234 53.9001 84.7535Z" fill="white"/>
<path d="M28.9587 59.7052C28.9831 59.5596 29.0317 58.4431 26.2336 57.3266C24.6521 56.6956 23.7762 55.8218 23.6545 54.8995C23.5572 54.0743 24.0438 53.1034 25.1387 52.2054C25.2847 52.084 25.309 51.8656 25.2117 51.72C25.1144 51.5501 24.9197 51.5258 24.7738 51.6471C23.4599 52.7151 22.8759 53.9044 23.0219 55.0208C23.1679 56.2344 24.1898 57.2781 26.0147 57.9819C28.3018 58.8557 28.3261 59.6324 28.3261 59.6567C28.3261 59.6567 28.3261 59.6567 28.3261 59.6324C28.3018 59.8023 28.4478 59.9722 28.6181 59.9965C28.7884 59.9965 28.9344 59.8751 28.9587 59.7052Z" fill="white"/>
<path d="M24.4343 61.841C24.6046 61.7924 24.6776 61.5983 24.629 61.4041C24.6046 61.3555 24.2883 59.875 25.5049 58.8556C25.6509 58.7342 25.6752 58.5158 25.5536 58.3702C25.4562 58.2003 25.2616 58.176 25.1156 58.2731C23.5584 59.5595 23.9963 61.5012 24.0207 61.574C24.0937 61.7682 24.2883 61.8895 24.4343 61.841Z" fill="white"/>
<path d="M27.2333 56.9869C28.3526 55.7976 28.8635 54.851 28.7419 53.9287C28.6202 52.9093 27.793 51.987 26.1628 50.8705C24.1433 49.4871 24.5082 48.4677 24.5082 48.4434C24.5082 48.4434 24.5082 48.4434 24.5082 48.4677C24.5812 48.2978 24.5326 48.0551 24.3866 47.9823C24.2406 47.8852 24.0459 47.958 23.9729 48.1522C23.8999 48.2978 23.316 49.8269 25.8464 51.4773C27.282 52.4239 28.0606 53.2006 28.1336 54.0015C28.2066 54.7054 27.7443 55.5064 26.7954 56.5015C26.6737 56.6228 26.6737 56.8413 26.7954 56.9869C26.917 57.1083 27.1117 57.1083 27.2333 56.9869Z" fill="white"/>
<path d="M27.0862 50.822C28.9111 50.0453 29.1787 48.5163 29.2031 48.4434C29.2274 48.2735 29.1301 48.1036 28.9597 48.0794C28.7894 48.0551 28.6191 48.1522 28.5948 48.3221C28.5948 48.3706 28.3515 49.5842 26.8916 50.191C26.7213 50.2638 26.6483 50.458 26.6969 50.6279C26.7456 50.7978 26.9159 50.8948 27.0862 50.822Z" fill="white"/>
<path d="M86.0408 49.1477C86.0165 49.2933 85.9678 50.4098 88.7659 51.5263C90.3475 52.1573 91.2234 53.0311 91.345 53.9534C91.4424 54.7786 90.9557 55.7495 89.8608 56.6475C89.7148 56.7689 89.6905 56.9873 89.7878 57.133C89.8852 57.3029 90.0798 57.3271 90.2258 57.2058C91.5397 56.1378 92.1236 54.9485 91.9777 53.8321C91.8317 52.6185 90.8098 51.5748 88.9849 50.871C86.6978 49.9972 86.6734 49.2205 86.6734 49.1962C86.6734 49.1962 86.6734 49.1962 86.6734 49.2205C86.6978 49.0506 86.5518 48.8807 86.3814 48.8564C86.2111 48.8564 86.0651 48.9778 86.0408 49.1477Z" fill="white"/>
<path d="M90.5424 46.9875C90.372 47.036 90.299 47.2302 90.3477 47.4244C90.372 47.4729 90.6883 48.9535 89.4718 49.9729C89.3258 50.0942 89.3015 50.3127 89.4231 50.4583C89.5204 50.6282 89.7151 50.6525 89.8611 50.5554C91.4183 49.269 90.9803 47.3273 90.956 47.2545C90.883 47.0846 90.7127 46.9389 90.5424 46.9875Z" fill="white"/>
<path d="M87.7712 51.842C86.652 53.0313 86.141 53.9779 86.2627 54.9002C86.3843 55.9196 87.2116 56.8419 88.8418 57.9584C90.8613 59.3418 90.4964 60.3612 90.4964 60.3855C90.4964 60.3855 90.4964 60.3855 90.4964 60.3612C90.4234 60.5311 90.472 60.7738 90.618 60.8466C90.764 60.9437 90.9586 60.8709 91.0316 60.6767C91.1046 60.5311 91.6886 59.002 89.1581 57.3516C87.7226 56.405 86.944 55.6283 86.871 54.8274C86.798 54.1235 87.2603 53.3225 88.2092 52.3274C88.3309 52.2061 88.3309 51.9876 88.2092 51.842C88.0875 51.7206 87.8929 51.7206 87.7712 51.842Z" fill="white"/>
<path d="M87.9155 58.0306C86.0906 58.8073 85.823 60.3364 85.7986 60.4092C85.7743 60.5791 85.8716 60.749 86.0419 60.7733C86.2123 60.7975 86.3826 60.7005 86.4069 60.5306C86.4069 60.482 86.6502 59.2685 88.1101 58.6617C88.2804 58.5889 88.3534 58.3947 88.3048 58.2248C88.2561 58.0306 88.0858 57.9578 87.9155 58.0306Z" fill="white"/>
<path d="M29.1029 48.3468C29.1759 48.2254 29.6626 47.2061 27.4971 45.1187C26.2805 43.9294 25.7939 42.7887 26.0372 41.8906C26.2562 41.0897 27.0834 40.3858 28.446 39.9732C28.6163 39.9247 28.738 39.7305 28.7136 39.5363C28.6893 39.3422 28.519 39.2451 28.3487 39.2936C26.7185 39.779 25.7452 40.6528 25.4289 41.745C25.1126 42.9343 25.6236 44.2692 27.0591 45.6284C28.8353 47.3031 28.5433 48.0313 28.5433 48.0555C28.5433 48.0555 28.5433 48.0555 28.5433 48.0313C28.4703 48.1769 28.519 48.3953 28.665 48.4682C28.8353 48.5652 29.0299 48.5167 29.1029 48.3468Z" fill="white"/>
<path d="M24.1181 48.6141C24.2884 48.6384 24.4344 48.4928 24.4831 48.2744C24.4831 48.2015 24.7507 46.7453 26.2836 46.2598C26.4539 46.2113 26.5512 46.0171 26.5269 45.823C26.5026 45.6288 26.3323 45.5317 26.1619 45.5802C24.2398 46.1628 23.8748 48.1287 23.8748 48.2015C23.8505 48.3957 23.9478 48.5899 24.1181 48.6141Z" fill="white"/>
<path d="M28.5722 45.1913C30.0564 44.5117 30.8837 43.8564 31.1513 42.9584C31.4433 41.9875 31.0053 40.7982 29.9347 39.1478C28.5965 37.109 29.3265 36.2838 29.3265 36.2838C29.4725 36.1382 29.5211 35.9197 29.4238 35.7741C29.3265 35.6285 29.1318 35.6285 28.9615 35.7498C28.8398 35.8712 27.7206 37.0362 29.3995 39.5361C30.3484 40.9439 30.762 41.9875 30.543 42.7399C30.3484 43.4195 29.6184 43.9778 28.3289 44.536C28.1586 44.6088 28.0856 44.803 28.1586 44.9729C28.2316 45.1913 28.4019 45.2642 28.5722 45.1913Z" fill="white"/>
<path d="M30.8078 39.4392C32.7787 39.4149 33.6303 38.1043 33.6789 38.0558C33.7762 37.9101 33.7276 37.716 33.6059 37.6189C33.4599 37.5218 33.2653 37.5703 33.168 37.716C33.1436 37.7645 32.438 38.7839 30.8565 38.7839C30.6862 38.7839 30.5158 38.9295 30.5158 39.1237C30.4915 39.2936 30.6375 39.4392 30.8078 39.4392Z" fill="white"/>
<path d="M85.8933 60.481C85.8203 60.6023 85.3337 61.6217 87.4992 63.7091C88.7157 64.8984 89.2024 66.0391 88.9591 66.9371C88.7401 67.7381 87.9128 68.442 86.5503 68.8546C86.3799 68.9031 86.2583 69.0973 86.2826 69.2915C86.3069 69.4856 86.4773 69.5827 86.6476 69.5342C88.2778 69.0487 89.251 68.175 89.5673 67.0828C89.8836 65.8935 89.3727 64.5586 87.9371 63.1994C86.161 61.5246 86.4529 60.7965 86.4529 60.7722C86.4529 60.7722 86.4529 60.7722 86.4529 60.7965C86.5259 60.6509 86.4773 60.4324 86.3313 60.3596C86.161 60.2868 85.9663 60.3354 85.8933 60.481Z" fill="white"/>
<path d="M90.8837 60.2395C90.7134 60.2152 90.5674 60.3608 90.5187 60.5792C90.5187 60.6521 90.2511 62.1083 88.7182 62.5938C88.5479 62.6423 88.4506 62.8365 88.4749 63.0307C88.4992 63.2248 88.6695 63.3219 88.8399 63.2734C90.762 62.6909 91.127 60.7249 91.127 60.6521C91.1513 60.4336 91.054 60.2637 90.8837 60.2395Z" fill="white"/>
<path d="M86.4287 63.6616C84.9445 64.3412 84.1173 64.9965 83.8496 65.8945C83.5576 66.8654 83.9956 68.0547 85.0662 69.7051C86.4044 71.7439 85.6745 72.5691 85.6745 72.5691C85.5285 72.7148 85.4798 72.9332 85.5771 73.0788C85.6745 73.2245 85.8691 73.2245 86.0394 73.1031C86.1611 72.9818 87.2803 71.8167 85.6015 69.3168C84.6526 67.9091 84.2389 66.8654 84.4579 66.113C84.6526 65.4334 85.3825 64.8751 86.6721 64.3169C86.8424 64.2441 86.9154 64.0499 86.8424 63.88C86.7694 63.6616 86.5991 63.5888 86.4287 63.6616Z" fill="white"/>
<path d="M84.1924 69.4138C82.2216 69.4381 81.37 70.7487 81.3213 70.7972C81.224 70.9429 81.2726 71.137 81.3943 71.2341C81.5403 71.3312 81.7349 71.2827 81.8323 71.137C81.8566 71.0885 82.5622 70.0691 84.1437 70.0691C84.3141 70.0691 84.4844 69.9235 84.4844 69.7293C84.5087 69.5351 84.3627 69.3895 84.1924 69.4138Z" fill="white"/>
<path d="M33.6061 37.9828C33.7277 37.8857 34.555 37.1576 33.3628 34.3664C32.6815 32.813 32.6815 31.5752 33.2654 30.8471C33.7764 30.1917 34.7983 29.8519 36.2339 29.9976C36.4042 30.0218 36.5988 29.8762 36.6475 29.7063C36.6962 29.5364 36.5745 29.3665 36.4042 29.3422C34.701 29.1723 33.4601 29.6092 32.7788 30.5073C32.0245 31.4781 32.0002 32.9344 32.8031 34.7062C33.8007 36.9391 33.2654 37.4974 33.2411 37.5217C33.1195 37.643 33.0708 37.8372 33.1925 37.9585C33.2654 38.0799 33.4601 38.1042 33.6061 37.9828Z" fill="white"/>
<path d="M28.8853 36.3084C29.0313 36.3812 29.2259 36.3084 29.3476 36.1385C29.3719 36.0899 30.1992 34.8278 31.7807 34.9492C31.9511 34.9734 32.1214 34.8278 32.17 34.6336C32.2187 34.4395 32.097 34.2938 31.9267 34.2696C29.9315 34.0754 28.8366 35.7501 28.8123 35.8229C28.715 36.0171 28.7393 36.2355 28.8853 36.3084Z" fill="white"/>
<path d="M34.3143 34.8519C35.9445 34.7791 36.9664 34.4878 37.5503 33.7597C38.183 32.9588 38.256 31.7209 37.891 29.7792C37.453 27.3764 38.4263 26.8909 38.4263 26.8909C38.4263 26.8909 38.4263 26.8909 38.4019 26.8909C38.5966 26.8181 38.7182 26.624 38.6696 26.4541C38.6209 26.2842 38.4506 26.2113 38.256 26.2599C38.11 26.3084 36.6014 26.9637 37.2097 29.9491C37.5503 31.6238 37.526 32.7403 37.0394 33.3471C36.6014 33.9053 35.7012 34.148 34.3143 34.1723C34.144 34.1723 33.9736 34.3179 33.9736 34.5121C33.998 34.7306 34.1196 34.8519 34.3143 34.8519Z" fill="white"/>
<path d="M38.5711 30.3861C40.4203 31.1143 41.6855 30.2405 41.7342 30.192C41.8802 30.0949 41.9288 29.9007 41.8315 29.7551C41.7342 29.6095 41.5395 29.5852 41.3935 29.6823C41.3449 29.7065 40.323 30.4104 38.8631 29.7794C38.6928 29.7065 38.4981 29.7794 38.4251 29.9493C38.3521 30.1434 38.4251 30.3376 38.5711 30.3861Z" fill="white"/>
<path d="M81.3911 70.846C81.2694 70.9431 80.4422 71.6712 81.6344 74.4624C82.3157 76.0158 82.3157 77.2536 81.7317 77.9817C81.2208 78.6371 80.1989 78.9769 78.7633 78.8312C78.593 78.807 78.3983 78.9526 78.3497 79.1225C78.301 79.2924 78.4227 79.4623 78.593 79.4866C80.2962 79.6565 81.5371 79.2196 82.2184 78.3215C82.9726 77.3507 82.997 75.8944 82.194 74.1226C81.1965 71.8896 81.7317 71.3314 81.7561 71.3071C81.8777 71.1858 81.9264 70.9916 81.8047 70.8703C81.7317 70.7732 81.5371 70.7489 81.3911 70.846Z" fill="white"/>
<path d="M86.1129 72.5208C85.9669 72.448 85.7723 72.5208 85.6506 72.6907C85.6263 72.7392 84.799 74.0013 83.2175 73.88C83.0472 73.8557 82.8769 74.0013 82.8282 74.1955C82.7795 74.3897 82.9012 74.5353 83.0715 74.5596C85.0667 74.7537 86.1616 73.079 86.1859 73.0062C86.2832 72.812 86.2589 72.6179 86.1129 72.5208Z" fill="white"/>
<path d="M80.6883 74.0012C79.0581 74.074 78.0362 74.3652 77.4522 75.0934C76.8196 75.8943 76.7466 77.1322 77.1116 79.0739C77.5496 81.4767 76.5763 81.9622 76.5763 81.9622C76.5763 81.9622 76.5763 81.9622 76.6006 81.9622C76.406 82.035 76.2843 82.2291 76.333 82.399C76.3817 82.5689 76.552 82.6418 76.7466 82.5932C76.8926 82.5447 78.4012 81.8893 77.7929 78.904C77.4522 77.2293 77.4766 76.1128 77.9632 75.506C78.4012 74.9478 79.3014 74.705 80.6883 74.6808C80.8586 74.6808 81.0289 74.5351 81.0289 74.341C81.0046 74.1225 80.883 73.9769 80.6883 74.0012Z" fill="white"/>
<path d="M76.4277 78.4428C74.5786 77.7147 73.3133 78.5884 73.2647 78.637C73.1187 78.7341 73.07 78.9282 73.1673 79.0739C73.2647 79.2195 73.4593 79.2438 73.6053 79.1467C73.654 79.1224 74.6759 78.4185 76.1358 79.0496C76.3061 79.1224 76.5007 79.0496 76.5737 78.8797C76.6467 78.6855 76.5737 78.5156 76.4277 78.4428Z" fill="white"/>
<path d="M41.71 30.119C41.856 30.0705 42.9023 29.7064 42.8779 26.6967C42.8536 24.9978 43.3402 23.857 44.1432 23.3959C44.8731 22.9832 45.9437 23.0803 47.2089 23.7356C47.3792 23.8085 47.5982 23.7599 47.6955 23.6143C47.8172 23.4687 47.7685 23.2745 47.5982 23.1774C46.0897 22.3765 44.7758 22.3036 43.8025 22.8619C42.7319 23.4687 42.148 24.8036 42.1966 26.7453C42.2696 29.1967 41.5397 29.5122 41.5397 29.5122C41.5397 29.5122 41.5397 29.5122 41.564 29.5122C41.3937 29.5608 41.2964 29.7549 41.345 29.9006C41.3694 30.0705 41.5397 30.1675 41.71 30.119Z" fill="white"/>
<path d="M38.0095 26.7696C38.1068 26.9152 38.3258 26.9152 38.4961 26.7938C38.5448 26.7453 39.7857 25.8958 41.1969 26.6239C41.3429 26.6968 41.5619 26.6482 41.6835 26.4783C41.7808 26.3327 41.7565 26.1385 41.5862 26.0414C39.81 25.0949 38.1798 26.2356 38.1068 26.2841C37.9365 26.4298 37.8878 26.6482 38.0095 26.7696Z" fill="white"/>
<path d="M43.5586 27.4975C45.0914 28.0557 46.1377 28.1771 46.965 27.7159C47.8652 27.2305 48.4005 26.0897 48.8141 24.1723C49.3251 21.7937 50.42 21.7209 50.42 21.7209C50.42 21.7209 50.42 21.7209 50.3957 21.7209C50.5903 21.7209 50.785 21.5995 50.8093 21.4296C50.8337 21.2597 50.712 21.1141 50.493 21.0898C50.3227 21.0898 48.6925 21.1141 48.1085 24.0995C47.7922 25.7742 47.3543 26.7936 46.6487 27.1819C46.016 27.5217 45.1158 27.4004 43.8019 26.915C43.6316 26.8421 43.4369 26.9392 43.3639 27.0848C43.3153 27.2547 43.3883 27.4246 43.5586 27.4975Z" fill="white"/>
<path d="M49.228 24.9981C50.6392 26.3816 52.1721 26.0418 52.2207 26.0418C52.391 26.0175 52.5127 25.8476 52.464 25.6777C52.4397 25.5078 52.2694 25.4107 52.0991 25.435C52.0504 25.435 50.8338 25.6777 49.7146 24.5612C49.5929 24.4399 49.3739 24.4399 49.228 24.5612C49.1063 24.6826 49.1063 24.8768 49.228 24.9981Z" fill="white"/>
<path d="M73.2924 78.7098C73.1464 78.7583 72.1001 79.1224 72.1245 82.132C72.1488 83.831 71.6622 84.9717 70.8592 85.4329C70.1293 85.8455 69.0587 85.7484 67.7935 85.0931C67.6231 85.0203 67.4042 85.0688 67.3068 85.2145C67.1852 85.3601 67.2338 85.5542 67.4042 85.6513C68.9127 86.4523 70.2266 86.5251 71.1999 85.9669C72.2704 85.3601 72.8544 84.0252 72.8057 82.0835C72.7327 79.6321 73.4627 79.3165 73.4627 79.3165C73.4627 79.3165 73.4627 79.3165 73.4383 79.3165C73.6087 79.268 73.706 79.0738 73.6573 78.9282C73.633 78.7583 73.4627 78.6612 73.2924 78.7098Z" fill="white"/>
<path d="M76.9937 82.0592C76.8963 81.9136 76.6773 81.9136 76.507 82.035C76.4584 82.0835 75.2175 82.933 73.8062 82.2049C73.6603 82.1321 73.4413 82.1806 73.3196 82.3505C73.2223 82.4961 73.2466 82.6903 73.4169 82.7874C75.1931 83.734 76.8233 82.5932 76.8963 82.5447C77.0666 82.399 77.1153 82.2049 76.9937 82.0592Z" fill="white"/>
<path d="M71.4442 81.3551C69.9114 80.7968 68.8651 80.6755 68.0378 81.1366C67.1376 81.622 66.6023 82.7628 66.1887 84.6802C65.6777 87.0588 64.5828 87.1316 64.5828 87.1316C64.5828 87.1316 64.5828 87.1316 64.6071 87.1316C64.4125 87.1316 64.2178 87.253 64.1935 87.4229C64.1692 87.5928 64.2908 87.7384 64.5098 87.7627C64.6801 87.7627 66.3103 87.7384 66.8943 84.753C67.2106 83.0783 67.6486 82.0589 68.3542 81.6706C68.9868 81.3308 69.887 81.4521 71.2009 81.9376C71.3712 82.0104 71.5659 81.9133 71.6389 81.7677C71.6876 81.5978 71.5902 81.4036 71.4442 81.3551Z" fill="white"/>
<path d="M65.7728 83.831C64.3615 82.4476 62.8287 82.7874 62.78 82.7874C62.6097 82.8116 62.488 82.9815 62.5367 83.1514C62.561 83.3213 62.7313 83.4184 62.9017 83.3941C62.9503 83.3941 64.1669 83.1514 65.2861 84.2679C65.4078 84.3893 65.6268 84.3893 65.7728 84.2679C65.8944 84.1466 65.8944 83.9524 65.7728 83.831Z" fill="white"/>
<path d="M51.4191 82.7388C51.2974 82.666 50.2755 82.1805 48.183 84.3407C46.9907 85.5542 45.8472 86.0397 44.9469 85.7969C44.144 85.5785 43.4384 84.7533 43.0247 83.3941C42.9761 83.2242 42.7814 83.1028 42.5868 83.1271C42.3921 83.1514 42.2948 83.3213 42.3435 83.4912C42.8301 85.1173 43.706 86.0882 44.8009 86.4037C45.9932 86.7192 47.3314 86.2096 48.6939 84.7776C50.3728 83.0058 51.1027 83.297 51.1271 83.297C51.1271 83.297 51.1271 83.297 51.1027 83.297C51.2487 83.3698 51.4677 83.3213 51.5407 83.1757C51.638 83.0058 51.565 82.8116 51.4191 82.7388Z" fill="white"/>
<path d="M51.6588 87.7147C51.6831 87.5448 51.5371 87.3991 51.3182 87.3506C51.2452 87.3506 49.7853 87.0836 49.2987 85.5545C49.25 85.3846 49.0553 85.2875 48.8607 85.3118C48.666 85.3361 48.5687 85.506 48.6174 85.6759C49.2013 87.5933 51.1722 87.9574 51.2452 87.9574C51.4641 88.0059 51.6345 87.8846 51.6588 87.7147Z" fill="white"/>
<path d="M48.2555 83.2972C47.5742 81.8166 46.9172 80.9914 46.017 80.7244C45.0437 80.4331 43.8515 80.87 42.1969 81.938C40.1531 83.2729 39.3258 82.5447 39.3258 82.5447C39.1799 82.3991 38.9609 82.3506 38.8149 82.4477C38.6689 82.5447 38.6689 82.7389 38.7906 82.9088C38.9122 83.0302 40.0801 84.1466 42.5863 82.4719C43.9975 81.5254 45.0437 81.1127 45.798 81.3312C46.4793 81.5254 47.0389 82.2535 47.5985 83.5399C47.6715 83.7098 47.8662 83.7826 48.0365 83.7098C48.2555 83.6369 48.3285 83.4428 48.2555 83.2972Z" fill="white"/>
<path d="M42.4883 81.0397C42.4639 79.0737 41.1501 78.2242 41.1014 78.1757C40.9554 78.0786 40.7608 78.1271 40.6634 78.2485C40.5661 78.3941 40.6148 78.5883 40.7608 78.6854C40.8094 78.7096 41.8313 79.4135 41.8313 80.9911C41.8313 81.161 41.9773 81.3309 42.172 81.3309C42.3423 81.3552 42.4883 81.2096 42.4883 81.0397Z" fill="white"/>
<path d="M63.5791 26.1142C63.7007 26.187 64.7226 26.6724 66.8151 24.5122C68.0074 23.2987 69.1509 22.8133 70.0512 23.056C70.8541 23.2744 71.5597 24.0996 71.9734 25.4588C72.022 25.6287 72.2167 25.7501 72.4113 25.7258C72.606 25.7015 72.7033 25.5316 72.6546 25.3617C72.168 23.7356 71.2921 22.7647 70.1972 22.4492C69.0049 22.1337 67.6667 22.6434 66.3042 24.0754C64.6253 25.8472 63.8954 25.5559 63.871 25.5559C63.871 25.5559 63.871 25.5559 63.8954 25.5559C63.7494 25.4831 63.5304 25.5316 63.4574 25.6773C63.3601 25.8472 63.4331 26.0171 63.5791 26.1142Z" fill="white"/>
<path d="M63.3396 21.1383C63.3152 21.3082 63.4612 21.4538 63.6802 21.5023C63.7532 21.5023 65.2131 21.7693 65.6997 23.2984C65.7484 23.4683 65.943 23.5654 66.1377 23.5411C66.3323 23.5168 66.4296 23.3469 66.381 23.1771C65.797 21.2596 63.8262 20.8956 63.7532 20.8956C63.5342 20.847 63.3396 20.9684 63.3396 21.1383Z" fill="white"/>
<path d="M66.7447 25.556C67.4259 27.0365 68.0829 27.8617 68.9831 28.1287C69.9564 28.42 71.1486 27.9831 72.8032 26.9152C74.847 25.5802 75.6743 26.3084 75.6743 26.3084C75.8203 26.454 76.0392 26.5025 76.1852 26.4055C76.3312 26.3084 76.3312 26.1142 76.2096 25.9443C76.0879 25.8229 74.92 24.7065 72.4139 26.3812C71.0026 27.3278 69.9564 27.7404 69.2021 27.5219C68.5208 27.3278 67.9612 26.5996 67.4016 25.3132C67.3286 25.1433 67.134 25.0705 66.9636 25.1433C66.7447 25.2162 66.6717 25.3861 66.7447 25.556Z" fill="white"/>
<path d="M72.5122 27.7888C72.5365 29.7548 73.8504 30.6043 73.8991 30.6528C74.0451 30.7499 74.2397 30.7014 74.3371 30.58C74.4344 30.4344 74.3857 30.2402 74.2397 30.1431C74.1911 30.1189 73.1692 29.415 73.1692 27.8374C73.1692 27.6675 73.0232 27.4976 72.8285 27.4976C72.6582 27.4976 72.5122 27.6189 72.5122 27.7888Z" fill="white"/>
<path d="M41.0282 78.2737C40.9309 78.1523 40.201 77.3271 37.4028 78.5164C35.8456 79.196 34.6047 79.196 33.8748 78.6135C33.2179 78.1038 32.8772 77.0844 33.0232 75.6524C33.0475 75.4825 32.9015 75.2883 32.7312 75.2398C32.5609 75.1912 32.3906 75.3126 32.3663 75.4825C32.1959 77.1815 32.6339 78.4193 33.5342 79.0989C34.5074 79.8513 35.9673 79.8756 37.7435 79.0746C39.982 78.0795 40.5416 78.6135 40.5659 78.6378C40.6876 78.7591 40.8822 78.7834 41.0039 78.6863C41.1255 78.5892 41.1255 78.395 41.0282 78.2737Z" fill="white"/>
<path d="M39.3491 82.9578C39.4221 82.8122 39.3491 82.618 39.1788 82.4967C39.1301 82.4724 37.8649 81.6472 37.9865 80.0695C38.0109 79.8996 37.8649 79.7297 37.6702 79.6812C37.4756 79.6327 37.3296 79.754 37.3052 79.9239C37.1106 81.9142 38.7895 83.0064 38.8625 83.0306C39.0571 83.152 39.2761 83.1035 39.3491 82.9578Z" fill="white"/>
<path d="M37.8898 77.5696C37.8168 75.9434 37.5249 74.9241 36.7949 74.3415C35.992 73.7105 34.7511 73.6377 32.8046 74.0017C30.3958 74.4386 29.9091 73.4678 29.9091 73.4678C29.9091 73.4678 29.9091 73.4678 29.9091 73.492C29.8361 73.2979 29.6415 73.1765 29.4712 73.2251C29.3009 73.2736 29.2279 73.4435 29.2765 73.6377C29.3252 73.7833 29.9821 75.2881 32.9749 74.6813C34.6538 74.3415 35.773 74.3658 36.3813 74.8512C36.9409 75.2881 37.1842 76.1862 37.2085 77.5696C37.2085 77.7395 37.3545 77.9094 37.5492 77.9094C37.7438 77.8851 37.8898 77.7395 37.8898 77.5696Z" fill="white"/>
<path d="M33.4139 73.298C34.1438 71.4534 33.2679 70.1913 33.2193 70.1427C33.1219 69.9971 32.9273 69.9485 32.7813 70.0456C32.6353 70.1427 32.611 70.3369 32.7083 70.4825C32.7326 70.531 33.4382 71.5504 32.8056 73.0067C32.7326 73.1766 32.8056 73.3708 32.9759 73.4436C33.1706 73.5164 33.3409 73.4436 33.4139 73.298Z" fill="white"/>
<path d="M73.974 30.5797C74.0713 30.701 74.8013 31.5263 77.5994 30.337C79.1566 29.6574 80.3975 29.6574 81.1274 30.2399C81.7844 30.7496 82.125 31.769 81.979 33.201C81.9547 33.3709 82.1007 33.565 82.271 33.6136C82.4413 33.6621 82.6116 33.5408 82.636 33.3709C82.8063 31.6719 82.3683 30.4341 81.4681 29.7545C80.4948 29.002 79.0349 28.9778 77.2587 29.7787C75.0203 30.7739 74.4606 30.2399 74.4363 30.2156C74.3147 30.0943 74.12 30.0457 73.9983 30.1671C73.8767 30.2399 73.8767 30.4341 73.974 30.5797Z" fill="white"/>
<path d="M75.6503 25.8713C75.5773 26.0169 75.6503 26.2111 75.8206 26.3325C75.8692 26.3567 77.1345 27.182 77.0128 28.7596C76.9885 28.9295 77.1345 29.0994 77.3291 29.1479C77.5238 29.1965 77.6698 29.0751 77.6941 28.9052C77.8887 26.915 76.2099 25.8228 76.1369 25.7985C75.9422 25.7014 75.7233 25.7257 75.6503 25.8713Z" fill="white"/>
<path d="M77.1128 31.2836C77.1858 32.9098 77.4778 33.9292 78.2077 34.5117C79.0106 35.1428 80.2515 35.2156 82.198 34.8515C84.6069 34.4146 85.0935 35.3855 85.0935 35.3855C85.0935 35.3855 85.0935 35.3855 85.0935 35.3612C85.1665 35.5554 85.3611 35.6767 85.5314 35.6282C85.7018 35.5797 85.7748 35.4098 85.7261 35.2156C85.6774 35.07 85.0205 33.5651 82.0277 34.1719C80.3489 34.5117 79.2296 34.4875 78.6213 34.002C78.0617 33.5651 77.8184 32.6671 77.7941 31.2836C77.7941 31.1137 77.6481 30.9438 77.4534 30.9438C77.2588 30.9681 77.1128 31.1137 77.1128 31.2836Z" fill="white"/>
<path d="M81.5881 35.5553C80.8581 37.3999 81.7341 38.662 81.7827 38.7106C81.88 38.8562 82.0747 38.9048 82.2207 38.8077C82.3667 38.7106 82.391 38.5164 82.2937 38.3708C82.2693 38.3222 81.5637 37.3029 82.1964 35.8466C82.2693 35.6767 82.1963 35.4825 82.026 35.4097C81.8314 35.3126 81.6611 35.3854 81.5881 35.5553Z" fill="white"/>
<path d="M33.1432 70.1666C33.0946 70.0209 32.7296 68.9773 29.7125 69.0015C28.0093 69.0258 26.8657 68.5404 26.4034 67.7394C25.9898 67.0113 26.0871 65.9434 26.7441 64.6813C26.8171 64.5114 26.7684 64.2929 26.6224 64.1958C26.4764 64.0745 26.2818 64.123 26.1845 64.2929C25.3815 65.7977 25.3085 67.1084 25.8682 68.0792C26.4764 69.1472 27.8147 69.7297 29.7612 69.6811C32.2186 69.6083 32.5349 70.3365 32.5349 70.3365C32.5349 70.3365 32.5349 70.3365 32.5349 70.3122C32.5836 70.4821 32.7783 70.5792 32.9242 70.5306C33.0946 70.5064 33.1919 70.3365 33.1432 70.1666Z" fill="white"/>
<path d="M29.787 73.8799C29.9329 73.7829 29.9329 73.5644 29.8113 73.3945C29.7626 73.346 28.911 72.1081 29.641 70.7004C29.714 70.5548 29.6653 70.3363 29.495 70.215C29.349 70.1179 29.1543 70.1422 29.057 70.3121C28.1081 72.0839 29.2517 73.7101 29.3003 73.7829C29.4463 73.9285 29.6653 73.977 29.787 73.8799Z" fill="white"/>
<path d="M30.4918 68.3218C31.0515 66.7928 31.1731 65.7491 30.7108 64.9239C30.2242 64.0258 29.0806 63.4919 27.1584 63.0792C24.774 62.5695 24.701 61.4773 24.701 61.4773C24.701 61.4773 24.701 61.4773 24.701 61.5016C24.701 61.3074 24.5793 61.1133 24.409 61.089C24.2387 61.0647 24.0927 61.1861 24.0684 61.4045C24.0684 61.5744 24.0927 63.2006 27.0854 63.7831C28.7643 64.0986 29.7862 64.5355 30.1755 65.2394C30.5162 65.8704 30.3945 66.7685 29.9079 68.0791C29.8349 68.249 29.9322 68.4432 30.0782 68.516C30.2485 68.5646 30.4432 68.4917 30.4918 68.3218Z" fill="white"/>
<path d="M28.0102 62.6666C29.3971 61.2589 29.0564 59.7298 29.0564 59.6812C29.0321 59.5113 28.8618 59.39 28.6914 59.4385C28.5211 59.4628 28.4238 59.6327 28.4481 59.8026C28.4481 59.8511 28.6914 61.0647 27.5722 62.1812C27.4505 62.3025 27.4505 62.521 27.5722 62.6666C27.6939 62.788 27.8885 62.788 28.0102 62.6666Z" fill="white"/>
<path d="M81.8573 38.6622C81.9059 38.8078 82.2709 39.8515 85.288 39.8272C86.9912 39.803 88.1347 40.2884 88.597 41.0893C89.0107 41.8175 88.9133 42.8854 88.2564 44.1475C88.1834 44.3174 88.2321 44.5359 88.3781 44.6329C88.524 44.7543 88.7187 44.7058 88.816 44.5359C89.6189 43.031 89.6919 41.7204 89.1323 40.7495C88.524 39.6816 87.1858 39.0991 85.2393 39.1476C82.7818 39.2204 82.4655 38.4923 82.4655 38.4923C82.4655 38.4923 82.4655 38.4923 82.4655 38.5166C82.4169 38.3467 82.2222 38.2496 82.0762 38.2981C81.9059 38.3467 81.8086 38.5166 81.8573 38.6622Z" fill="white"/>
<path d="M85.2158 34.9729C85.0698 35.07 85.0698 35.2884 85.1914 35.4583C85.2401 35.5068 86.0917 36.7447 85.3618 38.1524C85.2888 38.298 85.3374 38.5165 85.5077 38.6378C85.6537 38.7349 85.8484 38.7106 85.9457 38.5407C86.8946 36.7689 85.7511 35.1428 85.7024 35.07C85.5564 34.9243 85.3374 34.8758 85.2158 34.9729Z" fill="white"/>
<path d="M84.5091 40.5312C83.9495 42.0603 83.8279 43.104 84.2901 43.9292C84.7768 44.8272 85.9203 45.3612 87.8425 45.7738C90.227 46.2835 90.3 47.3757 90.3 47.3757C90.3 47.3757 90.3 47.3757 90.3 47.3514C90.3 47.5456 90.4216 47.7398 90.592 47.764C90.7623 47.7883 90.9083 47.667 90.9326 47.4485C90.9326 47.2786 90.9083 45.6524 87.9155 45.0699C86.2367 44.7544 85.2147 44.3175 84.8254 43.6137C84.4848 42.9826 84.6065 42.0846 85.0931 40.7739C85.1661 40.604 85.0687 40.4098 84.9228 40.337C84.7281 40.2885 84.5578 40.3613 84.5091 40.5312Z" fill="white"/>
<path d="M86.9899 46.1618C85.6031 47.5696 85.9437 49.0986 85.9437 49.1472C85.968 49.3171 86.1384 49.4384 86.3087 49.3899C86.479 49.3656 86.5763 49.1957 86.552 49.0258C86.552 48.9773 86.3087 47.7637 87.4279 46.6472C87.5496 46.5259 87.5496 46.3074 87.4279 46.1618C87.3063 46.0405 87.1116 46.0405 86.9899 46.1618Z" fill="white"/>
<path d="M44.7003 70.797C44.7489 70.6271 44.7489 70.4814 44.6759 70.3115L41.7562 64.4864C41.7075 64.3893 41.6345 64.2922 41.5129 64.2194C41.3182 64.0981 41.0506 64.0981 40.8316 64.2194C40.7343 64.2922 40.6613 64.3651 40.5883 64.4864L37.6685 70.3115C37.5955 70.4572 37.5712 70.6271 37.6442 70.797C37.6928 70.9669 37.8145 71.0882 37.9605 71.161C38.1065 71.2338 38.2768 71.2581 38.4471 71.1853C38.6174 71.1368 38.7391 71.0154 38.8121 70.8698L39.3717 69.7776H42.9484L43.508 70.8698C43.5567 70.9911 43.6297 71.0639 43.7513 71.1368C43.946 71.2581 44.165 71.2581 44.3596 71.161C44.5543 71.0882 44.6516 70.9669 44.7003 70.797ZM40.0286 68.5155L41.1722 66.2097L42.3158 68.5155H40.0286Z" fill="white"/>
<path d="M52.8262 70.723C52.8506 70.5531 52.8262 70.3832 52.7289 70.2376L51.0257 67.6891L52.7289 65.1406C52.8262 64.995 52.8506 64.8494 52.8262 64.6552C52.8019 64.4853 52.7046 64.3639 52.5586 64.2669C52.4126 64.1698 52.2423 64.1455 52.072 64.1698C51.9017 64.1941 51.78 64.2911 51.6583 64.4368L49.9065 67.0581H47.96V64.7766C47.96 64.6067 47.9113 64.461 47.7653 64.3397C47.6437 64.2183 47.4977 64.1455 47.3274 64.1455C47.157 64.1455 47.011 64.2183 46.8651 64.3397C46.7434 64.461 46.6704 64.6067 46.6704 64.7766V70.5774C46.6704 70.7473 46.7191 70.8929 46.8651 71.0386C47.011 71.1842 47.1327 71.2327 47.3274 71.2327C47.4977 71.2327 47.6437 71.1842 47.7653 71.0386C47.887 70.9172 47.96 70.7716 47.96 70.5774V68.2959H49.9065L51.6583 70.9172C51.78 71.1114 51.9503 71.2085 52.1936 71.2085C52.3153 71.2085 52.4369 71.1842 52.5586 71.1114C52.7046 71.0143 52.7776 70.8929 52.8262 70.723Z" fill="white"/>
<path d="M61.4664 70.7969C61.515 70.627 61.515 70.4814 61.442 70.3115L58.5223 64.4864C58.4736 64.3893 58.4006 64.2922 58.279 64.2194C58.0843 64.0981 57.8167 64.0981 57.5977 64.2194C57.5004 64.2922 57.4274 64.3651 57.3544 64.4864L54.4346 70.3115C54.3616 70.4571 54.3373 70.627 54.4103 70.7969C54.4589 70.9668 54.5806 71.0882 54.7266 71.161C54.8726 71.2338 55.0429 71.2581 55.2132 71.1853C55.3835 71.1367 55.5052 71.0154 55.5782 70.8698L56.1378 69.7776H59.7145L60.2741 70.8698C60.3228 70.9911 60.3958 71.0639 60.5175 71.1367C60.7121 71.2581 60.9311 71.2581 61.1257 71.161C61.2961 71.0882 61.3934 70.9668 61.4664 70.7969ZM56.7948 68.5155L57.9383 66.2097L59.0819 68.5155H56.7948Z" fill="white"/>
<path d="M69.276 68.0532C69.0813 67.7377 68.8137 67.4707 68.473 67.3008L68.3514 67.228L68.4 67.1066C68.5217 66.8396 68.5947 66.5241 68.5947 66.2328C68.5947 65.6503 68.4 65.1649 67.9864 64.7523C67.5728 64.3397 67.0862 64.1455 66.5022 64.1455H64.0691C63.8987 64.1455 63.7527 64.2183 63.6068 64.3397C63.4851 64.461 63.4121 64.6067 63.4121 64.7766V70.5774C63.4121 70.7473 63.4608 70.8929 63.6068 71.0386C63.7527 71.1842 63.8744 71.2327 64.0691 71.2327H67.4755C68.0594 71.2327 68.546 71.0386 68.9597 70.6259C69.3733 70.2133 69.568 69.7279 69.568 69.1454C69.5923 68.7571 69.4706 68.393 69.276 68.0532ZM64.726 65.4076H66.5265C66.7455 65.4076 66.9402 65.4804 67.1105 65.6503C67.2808 65.796 67.3538 65.9901 67.3538 66.2328C67.3538 66.4513 67.2808 66.6455 67.1105 66.8154C66.9402 66.9853 66.7455 67.0581 66.5265 67.0581H64.726V65.4076ZM68.0594 69.7279C67.8891 69.8978 67.7188 69.9706 67.4755 69.9706H64.7017V68.3202H67.4755C67.6944 68.3202 67.8891 68.393 68.0594 68.5629C68.2297 68.7085 68.3027 68.9027 68.3027 69.1454C68.3027 69.3638 68.2297 69.558 68.0594 69.7279Z" fill="white"/>
<path d="M76.989 64.2426C76.843 64.1455 76.6727 64.1212 76.5024 64.1698C76.3321 64.2183 76.2104 64.2911 76.1131 64.461L74.2152 67.4707L72.3174 64.461C72.22 64.3154 72.0984 64.2183 71.9281 64.1698C71.8794 64.1698 71.8307 64.1455 71.7821 64.1455C71.6604 64.1455 71.5631 64.1698 71.4414 64.2426C71.2955 64.3397 71.1981 64.461 71.1495 64.6309C71.1008 64.8008 71.1495 64.9707 71.2225 65.1164L73.5583 68.8299V70.5774C73.5583 70.7473 73.6313 70.8929 73.7529 71.0386C73.8746 71.1599 74.0206 71.2327 74.1909 71.2327C74.3612 71.2327 74.5072 71.1599 74.6532 71.0386C74.7748 70.9172 74.8478 70.7716 74.8478 70.5774V68.8299L74.8722 68.8056L77.1836 65.1164C77.281 64.9707 77.3053 64.8008 77.2566 64.6309C77.2323 64.461 77.135 64.3397 76.989 64.2426Z" fill="white"/>
<path d="M48.7888 58.6128H37.791C37.6207 58.6128 37.499 58.7342 37.499 58.9041V58.9526C37.499 59.1225 37.6207 59.2438 37.791 59.2438H48.7888C48.9591 59.2438 49.0808 59.1225 49.0808 58.9526V58.9041C49.0808 58.7342 48.9348 58.6128 48.7888 58.6128Z" fill="white"/>
<path d="M77.206 58.6128H66.1352C65.9649 58.6128 65.8433 58.7342 65.8433 58.9041V58.9526C65.8433 59.1225 65.9649 59.2438 66.1352 59.2438H77.206C77.3763 59.2438 77.498 59.1225 77.498 58.9526V58.9041C77.498 58.7342 77.3763 58.6128 77.206 58.6128Z" fill="white"/>
<path d="M67.9608 55.0694C70.8563 51.8899 71.9755 48.1764 71.2942 44.0745C70.7589 40.895 69.1774 38.2737 66.5739 36.2592C63.8488 34.1476 60.7831 33.3466 57.4983 33.8806C54.1649 34.4146 51.5372 36.1136 49.6636 38.929C48.0578 41.3319 47.5225 43.9775 48.0821 46.7444C48.6661 49.7297 50.2963 52.0598 52.924 53.6374C54.9679 54.8753 57.182 55.2879 59.5178 54.851C61.878 54.4141 63.8002 53.2005 65.2357 51.2831C66.6469 49.3899 67.2066 47.2783 66.8416 45.0454C66.4766 42.6668 65.26 40.7736 63.2162 39.4387C60.6371 37.7397 57.2794 37.8854 54.8949 39.8028C53.289 41.0892 52.4618 42.6911 52.4131 44.6085C52.3644 46.6958 53.216 48.3706 54.9436 49.5841C56.9387 50.9676 59.5665 50.7491 61.221 49.0259C62.3646 47.8123 62.7053 46.4289 62.17 44.924C61.6833 43.5406 60.4668 42.6668 59.0799 42.7396C58.058 42.7882 57.3524 43.2736 56.9631 44.1959C56.7684 44.6328 56.7927 45.1182 56.9874 45.5065C57.182 45.8949 57.5713 46.1376 58.0093 46.2347C58.2526 46.2832 58.4959 46.2104 58.6662 46.0648C58.8366 45.9192 58.9339 45.7007 58.9339 45.458C58.9339 45.2881 58.8366 45.1667 58.6906 45.0939C58.5203 45.0454 58.3743 45.0454 58.1553 45.3366L57.9363 45.6279L57.8146 45.2881C57.7903 45.2396 57.7903 45.2153 57.766 45.191C57.7173 45.0939 57.6687 44.9968 57.693 44.8755C57.7173 44.6813 57.766 44.4386 57.8876 44.2444C58.2769 43.6619 58.8852 43.4192 59.5908 43.5406C60.4424 43.6862 61.0994 44.2444 61.44 45.1182C61.9023 46.259 61.659 47.3754 60.8074 48.3706C59.5178 49.8268 57.3524 50.1181 55.6005 49.0259C53.3863 47.6424 52.6077 44.7056 53.8243 42.327C55.3329 39.3902 58.9096 38.2009 61.9753 39.6086C65.3574 41.162 67.0362 45.1425 65.771 48.6618C64.3355 52.6423 60.1261 54.9238 55.9655 53.9772C52.0481 53.0792 49.0797 49.6084 48.7391 45.5065C48.6174 43.8804 48.885 42.3027 49.542 40.8222C51.7318 35.8466 57.5227 33.2981 62.7539 35.0213C65.698 35.9922 68.1068 38.0795 69.518 40.9193C70.9536 43.7833 71.1726 47.0114 70.1506 50.021C69.0314 53.2734 66.6956 55.8947 63.5325 57.4237C60.3694 58.9528 56.8414 59.147 53.581 58.0063C48.6417 56.2587 45.0164 51.72 44.2864 46.4531C44.2378 46.1376 44.0674 46.0162 43.8971 46.0162H43.8728C43.7025 46.0162 43.5078 46.1619 43.5078 46.4289C43.5078 46.7686 43.5808 47.2055 43.7025 47.7638C44.6027 51.9384 46.9142 55.1908 50.5882 57.448C53.581 59.2684 56.8171 59.8994 60.2721 59.2926C63.2649 58.8072 65.8683 57.3509 67.9608 55.0694Z" fill="white"/>
<path d="M58.3045 46.3805C59.1242 46.3805 59.7887 45.7177 59.7887 44.9C59.7887 44.0823 59.1242 43.4194 58.3045 43.4194C57.4848 43.4194 56.8203 44.0823 56.8203 44.9C56.8203 45.7177 57.4848 46.3805 58.3045 46.3805Z" fill="white"/>
</svg>
