<svg width="183" height="183" viewBox="0 0 183 183" fill="none" xmlns="http://www.w3.org/2000/svg">
<path d="M167.597 87.1438C169.316 117.022 116.603 165.718 81.3387 155.093C30.5742 139.797 1.65688 81.7928 35.4506 53.9512C55.9572 37.0564 97.3445 37.3338 128.502 49.7419C148.44 57.6821 164.189 70.5897 167.597 87.1438Z" fill="url(#paint0_linear)"/>
<g clip-path="url(#clip0)">
<path d="M133.872 130.096L122.961 116.204C126.497 115.157 129.551 112.918 131.593 109.874C134.163 105.476 133.001 100.107 131.876 94.9216C131.197 92.2578 130.79 89.5327 130.663 86.7881C130.789 84.0411 131.196 81.3136 131.876 78.6476C132.994 73.4585 134.163 68.0936 131.593 63.7019C128.932 59.1486 123.574 57.4633 118.392 55.8366C115.813 55.1327 113.314 54.1638 110.938 52.9455C108.782 51.5604 106.78 49.9532 104.966 48.1507C101.121 44.6167 96.7621 40.6157 91.2143 40.6157C85.6664 40.6157 81.3074 44.6167 77.4611 48.1489C75.6472 49.9519 73.6456 51.5597 71.4901 52.9455C69.1143 54.1613 66.6167 55.1278 64.038 55.8295C58.8559 57.4562 53.4981 59.1415 50.8371 63.6948C48.2676 68.0936 49.4296 73.4621 50.5538 78.6476C51.2336 81.3138 51.6398 84.0411 51.766 86.7881C51.6391 89.5352 51.2325 92.2627 50.552 94.9287C49.4349 100.118 48.2658 105.483 50.8354 109.874C52.8804 112.919 55.9379 115.158 59.4763 116.202L48.5563 130.094C47.9485 130.869 48.0894 131.984 48.8715 132.586C49.2471 132.876 49.7232 133.005 50.1952 132.946L63.0159 131.36L66.1807 142.328C66.3661 142.971 66.9004 143.456 67.5632 143.584C67.6755 143.605 67.7896 143.616 67.9039 143.616C68.4575 143.616 68.9804 143.363 69.3205 142.93L80.7712 128.343C83.5891 131.06 87.2905 132.697 91.2143 132.961C95.138 132.697 98.8394 131.06 101.657 128.343L113.108 142.925C113.447 143.36 113.97 143.615 114.525 143.616C114.639 143.616 114.753 143.605 114.865 143.584C115.528 143.456 116.062 142.971 116.248 142.328L119.413 131.362L132.233 132.948C133.216 133.07 134.112 132.38 134.236 131.407C134.295 130.94 134.164 130.468 133.872 130.096ZM68.657 137.988L66.0409 128.92C65.7977 128.079 64.972 127.539 64.0954 127.647L54.054 128.89L63.0536 117.432L64.0451 117.747C66.6214 118.449 69.1165 119.415 71.4901 120.631C73.6463 122.016 75.6483 123.623 77.4629 125.426L78.0798 125.99L68.657 137.988ZM91.2143 129.409C87.0722 129.409 83.5882 126.212 79.898 122.824C77.8904 120.837 75.6728 119.071 73.2832 117.555C70.6834 116.207 67.9467 115.136 65.1192 114.358C60.38 112.868 55.9027 111.462 53.9374 108.098C52.0618 104.886 53.0301 100.409 54.0576 95.6674C54.797 92.7597 55.2309 89.7842 55.3522 86.7881C55.2316 83.792 54.7983 80.8166 54.0594 77.9088C53.0319 73.1691 52.0636 68.6921 53.9392 65.4778C55.9116 62.1143 60.3818 60.7078 65.121 59.2179C67.9481 58.4405 70.6839 57.369 73.2832 56.0213C75.6721 54.5052 77.8893 52.7386 79.8962 50.7523C83.5882 47.364 87.0722 44.1674 91.2143 44.1674C95.3563 44.1674 98.8403 47.364 102.531 50.7523C104.538 52.7389 106.756 54.5052 109.145 56.0213C111.745 57.3692 114.482 58.4407 117.309 59.2179C122.048 60.7078 126.526 62.1143 128.491 65.4778C130.367 68.6903 129.398 73.1673 128.371 77.9088C127.632 80.8166 127.198 83.792 127.076 86.7881C127.197 89.7842 127.63 92.7597 128.369 95.6674C129.397 100.407 130.365 104.884 128.489 108.098C126.517 111.462 122.047 112.868 117.307 114.358C114.48 115.136 111.745 116.207 109.145 117.555C106.756 119.071 104.539 120.838 102.532 122.824C98.8403 126.212 95.3563 129.409 91.2143 129.409ZM118.342 127.647C117.466 127.539 116.64 128.079 116.397 128.92L113.771 137.988L104.351 125.992L104.967 125.427C106.781 123.624 108.783 122.017 110.938 120.631C113.314 119.415 115.812 118.448 118.391 117.747L119.382 117.432L128.383 128.89L118.342 127.647Z" fill="#6F026D"/>
<path d="M91.2153 54.8226C73.3899 54.8226 58.9395 69.1341 58.9395 86.7881C58.9395 104.442 73.3899 118.754 91.2153 118.754C109.041 118.754 123.491 104.442 123.491 86.7881C123.471 69.1425 109.032 54.8433 91.2153 54.8226ZM91.2153 115.202C75.3706 115.202 62.5257 102.481 62.5257 86.7881C62.5257 71.0957 75.3706 58.3744 91.2153 58.3744C107.06 58.3744 119.905 71.0957 119.905 86.7881C119.886 102.473 107.052 115.183 91.2153 115.202Z" fill="#6F026D"/>
<path d="M111.904 79.3704C111.229 78.4525 110.153 77.9093 109.006 77.9088H98.0289L94.622 67.5609C94.0036 65.6974 91.977 64.6833 90.0953 65.2958C89.013 65.6481 88.1639 66.4889 87.8082 67.5609L84.4103 77.9088H73.4239C71.4432 77.908 69.8368 79.4971 69.8359 81.4588C69.8353 82.5953 70.384 83.6633 71.3117 84.3321L80.1983 90.7252L76.8039 101.073C76.1916 102.939 77.2224 104.943 79.1058 105.549C80.1981 105.9 81.3941 105.713 82.3231 105.044L91.2151 98.6527L100.104 105.046C101.356 105.967 103.069 105.967 104.321 105.046C105.592 104.151 106.121 102.538 105.623 101.075L102.228 90.7252L111.115 84.3321C112.716 83.1778 113.07 80.9562 111.904 79.3704ZM99.0653 88.612C98.4364 89.0646 98.1735 89.867 98.4144 90.5991L102.212 102.174L92.2695 95.021C91.6412 94.5693 90.7908 94.5693 90.1626 95.021L80.2198 102.174L84.0158 90.5991C84.2559 89.8675 83.9932 89.0661 83.3649 88.6137L73.4239 81.4606H85.7121C86.4889 81.4606 87.1773 80.9651 87.4173 80.2334L91.2151 68.6584L95.0129 80.2317C95.253 80.9633 95.9413 81.4588 96.7182 81.4588L109.006 81.4606L99.0653 88.612Z" fill="#6F026D"/>
</g>
<defs>
<linearGradient id="paint0_linear" x1="85.3951" y1="135.963" x2="142.359" y2="60.9411" gradientUnits="userSpaceOnUse">
<stop stop-color="#B1E7ED"/>
<stop offset="1" stop-color="#C2EEF2"/>
</linearGradient>
<clipPath id="clip0">
<rect x="39.2148" y="40.6157" width="104" height="103" fill="white"/>
</clipPath>
</defs>
</svg>
