<svg width="109" height="60" viewBox="0 0 109 60" fill="none" xmlns="http://www.w3.org/2000/svg">
<path d="M17.9289 23.711C19.4626 23.711 20.9963 23.9251 22.4243 24.2997C25.0157 20.4996 29.2996 18.0375 34.218 18.0375C35.8046 18.0375 37.3383 18.3051 38.7663 18.7868C41.1462 8.02855 50.6658 0 62.0365 0C64.2577 0 66.4261 0.32114 68.4887 0.9099H68.5416C70.0753 1.33809 71.5561 1.92685 72.9312 2.67618C72.9841 2.67618 72.9841 2.72971 73.037 2.72971C73.3014 2.83676 73.5658 2.99733 73.7774 3.1579C73.8303 3.1579 73.8303 3.21142 73.8832 3.21142C74.9409 3.80018 75.9457 4.49599 76.8448 5.24532C76.8977 5.29884 76.9506 5.29884 77.0035 5.35236C77.215 5.51294 77.3737 5.67351 77.5852 5.83408C77.6381 5.88761 77.7439 5.94113 77.7968 6.04817C77.9554 6.20874 78.167 6.36931 78.3256 6.52988C78.3785 6.58341 78.4843 6.69046 78.5372 6.74398C78.6959 6.90455 78.8545 7.06512 79.0132 7.22569C79.0661 7.27922 79.1189 7.38627 79.2247 7.43979C79.542 7.81446 79.8594 8.1356 80.1767 8.51026C80.2296 8.56379 80.2825 8.6173 80.3353 8.67083C80.4411 8.8314 80.5998 8.99197 80.7055 9.15255C80.8113 9.25959 80.9171 9.42016 80.97 9.52721C81.0758 9.68778 81.1815 9.84835 81.2873 9.9554C81.3931 10.116 81.4988 10.223 81.6046 10.3836C81.7104 10.5442 81.8162 10.6512 81.9219 10.8118C82.0277 10.9723 82.1335 11.1329 82.2393 11.2935C82.345 11.4541 82.3979 11.5611 82.5037 11.7217C82.6095 11.9358 82.7681 12.1499 82.8739 12.364C82.9268 12.471 82.9797 12.5781 83.0326 12.6316C83.1912 12.9527 83.3499 13.2739 83.5086 13.5415C83.5614 13.6485 83.6143 13.7556 83.6672 13.8626C83.773 14.0767 83.8788 14.2908 83.9845 14.5049C84.0374 14.612 84.0903 14.7725 84.1432 14.8796C84.249 15.0937 84.3019 15.3078 84.4076 15.5219C84.4605 15.6289 84.5134 15.7895 84.5663 15.8965C84.6721 16.1106 84.7249 16.3782 84.8307 16.6459C84.8836 16.7529 84.8836 16.8599 84.9365 16.967C85.148 17.6628 85.3596 18.4121 85.4654 19.1079C85.4654 19.215 85.5183 19.2685 85.5183 19.3756C85.5711 19.6432 85.624 19.9108 85.6769 20.2319C85.6769 20.339 85.7298 20.446 85.7298 20.6066C85.7827 20.8742 85.7827 21.1418 85.8356 21.4095C85.8356 21.5165 85.8356 21.6236 85.8885 21.7841C85.9413 22.0517 85.9413 22.3729 85.9413 22.6405C85.9413 22.7475 85.9413 22.8546 85.9413 22.9081C85.9413 23.2828 85.9942 23.711 85.9942 24.0856C85.9942 24.3533 85.9942 24.6209 85.9942 24.8885C87.6866 24.3533 89.4319 24.0856 91.2829 24.0856C101.067 24.0856 109 32.1142 109 42.0696C109 47.0473 106.99 51.5433 103.817 54.7547C100.591 58.0196 96.1485 60 91.2829 60H38.0259H28.1889H17.9289C8.03905 60 0.000259399 51.8644 0.000259399 41.8555C-0.0526276 31.793 7.98617 23.711 17.9289 23.711Z" fill="#FFF1E9"/>
</svg>
