<svg
	width="24"
	height="24"
	viewBox="0 0 24 24"
	fill="none"
	xmlns="http://www.w3.org/2000/svg"
>
	<path
		d="M11.9602 22.0001H2.99003C2.43985 22.0001 1.99337 21.5521 1.99337 21.0002V3.00004C1.99337 2.44804 2.4399 2.00006 2.99003 2.00006H11.9602C12.5114 2.00006 12.9569 1.55307 12.9569 1.00008C12.9569 0.447081 12.5114 0 11.9602 0H2.99003C1.34152 0 0 1.34604 0 3.00004V21.0001C0 22.6541 1.34152 24.0001 2.99003 24.0001H11.9602C12.5114 24.0001 12.9569 23.5531 12.9569 23.0001C12.9569 22.4471 12.5114 22.0001 11.9602 22.0001Z"
		fill="#C7A2D0"
	/>
	<path
		d="M23.703 11.2879L17.6432 5.28783C17.2525 4.89982 16.6206 4.90486 16.2339 5.29785C15.8472 5.69085 15.8511 6.32384 16.2439 6.71185L20.5744 10.9999H8.97005C8.41889 10.9999 7.97339 11.4468 7.97339 11.9998C7.97339 12.5528 8.41889 12.9999 8.97005 12.9999H20.5744L16.2439 17.2879C15.8512 17.6759 15.8482 18.3089 16.2339 18.7019C16.4292 18.8999 16.6864 18.9999 16.9435 18.9999C17.1967 18.9999 17.4498 18.9039 17.6432 18.7118L23.703 12.7118C23.8924 12.5238 24 12.2678 24 11.9998C24 11.7319 23.8934 11.4769 23.703 11.2879Z"
		fill="#C7A2D0"
	/>
</svg>
