<svg width="25" height="26" viewBox="0 0 25 26" fill="none" xmlns="http://www.w3.org/2000/svg">
<path d="M24.6902 7.84627C24.6764 6.80566 24.4813 5.77539 24.1139 4.80155C23.7953 3.98013 23.3086 3.23412 22.685 2.61121C22.0614 1.9883 21.3146 1.50217 20.4922 1.18389C19.5298 0.823023 18.5131 0.627897 17.4854 0.606819C16.1621 0.547738 15.7426 0.53125 12.3836 0.53125C9.02466 0.53125 8.59413 0.53125 7.28053 0.606819C6.25325 0.628052 5.23701 0.823175 4.27506 1.18389C3.45259 1.50195 2.70564 1.988 2.082 2.61094C1.45837 3.23388 0.971776 3.98 0.653363 4.80155C0.291374 5.76214 0.0964545 6.77747 0.077028 7.80368C0.0178815 9.12681 0 9.54588 0 12.9011C0 16.2564 -1.02483e-08 16.685 0.077028 17.9985C0.0976606 19.0263 0.291606 20.0403 0.653363 21.0034C0.972311 21.8247 1.45926 22.5705 2.08311 23.1932C2.70695 23.8159 3.45397 24.3017 4.27643 24.6197C5.23575 24.9951 6.25216 25.2042 7.2819 25.238C8.60651 25.2971 9.02604 25.3149 12.385 25.3149C15.744 25.3149 16.1745 25.3149 17.4881 25.238C18.5158 25.2178 19.5326 25.0231 20.495 24.6623C21.3171 24.3437 22.0637 23.8574 22.6873 23.2345C23.3109 22.6117 23.7977 21.8659 24.1167 21.0446C24.4784 20.0829 24.6724 19.0689 24.693 18.0398C24.7521 16.718 24.77 16.2989 24.77 12.9423C24.7673 9.58709 24.7673 9.16116 24.6902 7.84627ZM12.3754 19.2461C8.86235 19.2461 6.01644 16.4034 6.01644 12.8942C6.01644 9.38512 8.86235 6.54237 12.3754 6.54237C14.0619 6.54237 15.6793 7.21159 16.8718 8.40279C18.0644 9.594 18.7343 11.2096 18.7343 12.8942C18.7343 14.5789 18.0644 16.1945 16.8718 17.3857C15.6793 18.5769 14.0619 19.2461 12.3754 19.2461ZM18.9874 7.78857C18.1662 7.78857 17.5046 7.12631 17.5046 6.30743C17.5046 6.11301 17.543 5.9205 17.6174 5.74088C17.6919 5.56126 17.8011 5.39806 17.9387 5.26059C18.0763 5.12311 18.2397 5.01406 18.4196 4.93966C18.5994 4.86526 18.7921 4.82697 18.9867 4.82697C19.1814 4.82697 19.3741 4.86526 19.5539 4.93966C19.7337 5.01406 19.8971 5.12311 20.0347 5.26059C20.1724 5.39806 20.2815 5.56126 20.356 5.74088C20.4305 5.9205 20.4688 6.11301 20.4688 6.30743C20.4688 7.12631 19.8058 7.78857 18.9874 7.78857Z" fill="#063854"/>
<path d="M12.3745 17.02C14.6558 17.02 16.5051 15.1728 16.5051 12.894C16.5051 10.6153 14.6558 8.76807 12.3745 8.76807C10.0932 8.76807 8.24384 10.6153 8.24384 12.894C8.24384 15.1728 10.0932 17.02 12.3745 17.02Z" fill="#063854"/>
</svg>
