<svg width="24" height="20" viewBox="0 0 24 20" fill="none" xmlns="http://www.w3.org/2000/svg">
<path d="M1.55077 11.3609L17.7106 11.3609L12.2691 16.8697C11.6619 17.4845 11.6596 18.4835 12.2639 19.1012C12.8682 19.7189 13.8504 19.7212 14.4575 19.1066L22.5622 10.9014L22.5636 10.8999C23.1692 10.2852 23.1712 9.28291 22.5638 8.6661L22.5624 8.66461L14.4577 0.459491C13.8506 -0.155104 12.8685 -0.152973 12.2641 0.464856C11.6598 1.08253 11.6621 2.08158 12.2693 2.69633L17.7106 8.20512L1.55077 8.20512C0.69411 8.20512 -0.000305009 8.91155 -0.000305085 9.78302C-0.000305161 10.6545 0.69411 11.3609 1.55077 11.3609Z" fill="#6F026D"/>
</svg>
