<svg width="110" height="110" viewBox="0 0 110 110" fill="none" xmlns="http://www.w3.org/2000/svg">
<path d="M46.5438 9.74632C46.7765 9.78501 48.5609 9.8624 50.3452 5.41253C51.3538 2.89738 52.7502 1.50438 54.2243 1.3109C55.5431 1.15612 57.0947 1.93002 58.53 3.67127C58.7239 3.90344 59.073 3.94213 59.3058 3.78736C59.5773 3.63258 59.6161 3.32302 59.4222 3.09085C57.7154 1.00135 55.8147 0.0726773 54.0303 0.304845C52.0908 0.537012 50.4228 2.16218 49.2979 5.06427C47.9014 8.70156 46.6601 8.74026 46.6213 8.74026C46.6213 8.74026 46.6213 8.74026 46.6601 8.74026C46.3886 8.70156 46.1171 8.93373 46.0783 9.20459C46.0783 9.47546 46.2722 9.70762 46.5438 9.74632Z" fill="#A01918"/>
<path d="M43.1342 2.58792C43.2118 2.85878 43.5221 2.97486 43.8325 2.89747C43.91 2.85878 46.2763 2.35575 47.9054 4.29048C48.0994 4.52264 48.4485 4.56134 48.6813 4.36787C48.9528 4.21309 48.9916 3.90353 48.8364 3.67136C46.7805 1.19491 43.6773 1.89141 43.5609 1.93011C43.2506 2.04619 43.0567 2.31706 43.1342 2.58792Z" fill="#34ADB7"/>
<path d="M50.8895 6.99906C52.7903 8.77901 54.3031 9.5916 55.7771 9.39813C57.4063 9.20465 58.8804 7.88904 60.6647 5.2965C62.8758 2.08485 64.505 2.66527 64.5438 2.66527C64.5438 2.66527 64.5438 2.66527 64.505 2.66527C64.7765 2.78135 65.1644 2.70396 65.2808 2.47179C65.4359 2.23963 65.3196 1.93007 65.0092 1.81399C64.7765 1.6979 62.3327 0.769233 59.695 4.79347C58.1821 7.07645 56.9408 8.31468 55.6608 8.43076C54.5358 8.54685 53.2558 7.81165 51.6654 6.30256C51.4714 6.10909 51.1223 6.10909 50.8895 6.30256C50.6956 6.49603 50.6956 6.80559 50.8895 6.99906Z" fill="#34ADB7"/>
<path d="M60.7403 6.76692C61.9816 9.66901 64.4254 10.0946 64.5418 10.1333C64.8133 10.172 65.0849 10.0173 65.1236 9.7464C65.1624 9.47554 65.0073 9.20467 64.7357 9.16598C64.6582 9.16598 62.7186 8.77903 61.7489 6.45736C61.6325 6.1865 61.3222 6.07041 61.0507 6.1478C60.7791 6.22519 60.6627 6.53475 60.7403 6.76692Z" fill="#A01918"/>
<path d="M63.4567 100.524C63.2239 100.485 61.4396 100.408 59.6552 104.857C58.6467 107.373 57.2502 108.766 55.7762 108.959C54.4573 109.114 52.9057 108.34 51.4704 106.599C51.2765 106.366 50.9274 106.328 50.6946 106.483C50.4231 106.637 50.3843 106.947 50.5783 107.179C52.285 109.269 54.1858 110.197 55.9701 109.965C57.9096 109.733 59.5776 108.108 60.7025 105.206C62.099 101.568 63.3403 101.53 63.3791 101.53C63.3791 101.53 63.3791 101.53 63.3403 101.53C63.6118 101.568 63.8834 101.336 63.9221 101.065C63.9221 100.794 63.7282 100.562 63.4567 100.524Z" fill="#A01918"/>
<path d="M66.8711 107.721C66.7935 107.45 66.4831 107.334 66.1728 107.411C66.0952 107.45 63.729 107.953 62.0998 106.018C61.9059 105.786 61.5568 105.748 61.324 105.941C61.0525 106.096 61.0137 106.405 61.1689 106.638C63.2248 109.114 66.328 108.417 66.4444 108.379C66.7547 108.263 66.9486 107.953 66.8711 107.721Z" fill="#34ADB7"/>
<path d="M59.11 103.271C57.2093 101.491 55.6965 100.678 54.2225 100.872C52.5933 101.065 51.1192 102.381 49.3349 104.974C47.1238 108.185 45.4946 107.605 45.4558 107.605C45.4558 107.605 45.4558 107.605 45.4946 107.605C45.2231 107.489 44.8352 107.566 44.7188 107.798C44.5637 108.03 44.68 108.34 44.9904 108.456C45.2231 108.572 47.6669 109.501 50.3046 105.477C51.8175 103.194 53.0587 101.955 54.3388 101.839C55.4637 101.723 56.7438 102.458 58.3342 103.968C58.5282 104.161 58.8773 104.161 59.11 103.968C59.304 103.774 59.304 103.464 59.11 103.271Z" fill="#34ADB7"/>
<path d="M49.2603 103.503C48.019 100.601 45.5752 100.175 45.4588 100.137C45.1873 100.098 44.9158 100.253 44.877 100.524C44.8382 100.795 44.9934 101.065 45.2649 101.104C45.3425 101.104 47.282 101.491 48.2518 103.813C48.3681 104.084 48.6784 104.2 48.95 104.122C49.2215 104.045 49.3379 103.774 49.2603 103.503Z" fill="#A01918"/>
<path d="M9.49976 63.5705C9.53855 63.3384 9.61613 61.5584 5.15524 59.7785C2.63386 58.7724 1.23741 57.3794 1.04346 55.909C0.888298 54.5934 1.6641 53.0456 3.40967 51.6139C3.64241 51.4205 3.6812 51.0722 3.52604 50.84C3.37088 50.5692 3.06056 50.5305 2.82782 50.7239C0.733136 52.4265 -0.197831 54.3225 0.0349113 56.1025C0.267653 58.0372 1.89685 59.7011 4.80612 60.8232C8.45241 62.2162 8.4912 63.4545 8.4912 63.4932C8.4912 63.4932 8.4912 63.4932 8.4912 63.4545C8.45241 63.7253 8.68516 63.9962 8.95669 64.0349C9.22822 64.0349 9.46097 63.8414 9.49976 63.5705Z" fill="#A01918"/>
<path d="M2.28662 66.9757C2.55815 66.8983 2.67452 66.5887 2.59694 66.2792C2.55815 66.2018 2.05388 63.8414 3.99339 62.2162C4.22614 62.0227 4.26493 61.6745 4.07098 61.4423C3.91582 61.1715 3.60549 61.1328 3.37275 61.2876C0.890164 63.3384 1.58839 66.4339 1.62718 66.55C1.74355 66.8596 2.05387 67.053 2.28662 66.9757Z" fill="#34ADB7"/>
<path d="M6.74511 59.2364C8.52947 57.3404 9.34407 55.8313 9.15012 54.3609C8.95616 52.7358 7.63729 51.2654 5.03834 49.4854C1.81874 47.2798 2.40059 45.6546 2.40059 45.616C2.40059 45.616 2.40059 45.616 2.40059 45.6547C2.51696 45.3838 2.43938 44.9968 2.20664 44.8808C1.9739 44.726 1.66358 44.8421 1.54721 45.1516C1.43083 45.3838 0.499865 47.8215 4.53406 50.4528C6.82269 51.9619 8.06399 53.2001 8.18036 54.477C8.29673 55.5991 7.55971 56.8761 6.04689 58.4625C5.85293 58.656 5.85293 59.0043 6.04689 59.2364C6.24084 59.4299 6.55116 59.4299 6.74511 59.2364Z" fill="#34ADB7"/>
<path d="M6.51533 49.4082C9.42461 48.1699 9.85131 45.7322 9.8901 45.6161C9.92889 45.3452 9.77373 45.0744 9.50219 45.0357C9.23066 44.997 8.95913 45.1518 8.92034 45.4226C8.92034 45.5 8.53243 47.4347 6.20501 48.4021C5.93348 48.5182 5.81711 48.8277 5.89469 49.0986C5.97227 49.3695 6.2438 49.5242 6.51533 49.4082Z" fill="#A01918"/>
<path d="M100.5 46.7387C100.462 46.9709 100.384 48.7509 104.845 50.5308C107.366 51.5369 108.763 52.9299 108.957 54.4003C109.112 55.7159 108.336 57.2637 106.591 58.6954C106.358 58.8888 106.319 59.2371 106.474 59.4693C106.629 59.7401 106.94 59.7788 107.172 59.5853C109.267 57.8828 110.198 55.9868 109.965 54.2068C109.733 52.2721 108.103 50.6082 105.194 49.4861C101.548 48.0931 101.509 46.8548 101.509 46.8161C101.509 46.8161 101.509 46.8161 101.509 46.8548C101.548 46.584 101.315 46.3131 101.043 46.2744C100.772 46.2744 100.539 46.4679 100.5 46.7387Z" fill="#A01918"/>
<path d="M107.679 43.2946C107.408 43.372 107.291 43.6816 107.369 43.9911C107.408 44.0685 107.912 46.4289 105.972 48.0541C105.74 48.2475 105.701 48.5958 105.895 48.828C106.05 49.0988 106.36 49.1375 106.593 48.9827C109.076 46.9319 108.377 43.8364 108.338 43.7203C108.222 43.4494 107.951 43.2172 107.679 43.2946Z" fill="#34ADB7"/>
<path d="M103.257 51.0335C101.473 52.9296 100.658 54.4387 100.852 55.9091C101.046 57.5342 102.365 59.0046 104.964 60.7846C108.184 62.9902 107.602 64.6153 107.602 64.654C107.602 64.654 107.602 64.654 107.602 64.6153C107.485 64.8862 107.563 65.2731 107.796 65.3892C108.028 65.544 108.339 65.4279 108.455 65.1184C108.572 64.8862 109.502 62.4484 105.468 59.8172C103.18 58.3081 101.938 57.0699 101.822 55.793C101.706 54.6708 102.443 53.3939 103.955 51.8074C104.149 51.614 104.149 51.2657 103.955 51.0335C103.762 50.8401 103.451 50.8401 103.257 51.0335Z" fill="#34ADB7"/>
<path d="M103.488 60.9006C100.579 62.1388 100.152 64.5766 100.113 64.6927C100.075 64.9635 100.23 65.2344 100.501 65.2731C100.773 65.3118 101.044 65.157 101.083 64.8861C101.083 64.8087 101.471 62.874 103.798 61.9067C104.07 61.7906 104.186 61.481 104.109 61.2102C104.031 60.9006 103.76 60.7845 103.488 60.9006Z" fill="#A01918"/>
<path d="M9.7294 45.4618C9.84577 45.2684 10.6216 43.6432 7.16924 40.3154C5.22972 38.4194 4.45391 36.6008 4.84182 35.1691C5.19093 33.8922 6.5098 32.77 8.68206 32.1122C8.95359 32.0348 9.14755 31.7253 9.10876 31.4157C9.06997 31.1061 8.79844 30.9514 8.5269 31.0288C5.92795 31.8026 4.37633 33.1956 3.87206 34.9369C3.36778 36.8329 4.18238 38.9611 6.47101 41.128C9.30271 43.798 8.83722 44.9588 8.83722 44.9975C8.83722 44.9975 8.83722 44.9975 8.83722 44.9588C8.72085 45.191 8.79843 45.5392 9.03118 45.6553C9.30271 45.8101 9.61303 45.7327 9.7294 45.4618Z" fill="#A01918"/>
<path d="M1.78052 45.8875C2.05205 45.9262 2.2848 45.6941 2.36238 45.3458C2.36238 45.2297 2.78907 42.9081 5.23286 42.1342C5.5044 42.0568 5.65956 41.7472 5.62077 41.4377C5.58198 41.1281 5.31045 40.9733 5.03891 41.0507C1.97447 41.9794 1.39262 45.1137 1.39262 45.2297C1.35383 45.5393 1.50899 45.8488 1.78052 45.8875Z" fill="#34ADB7"/>
<path d="M8.87978 40.4311C11.246 39.3476 12.5649 38.3029 12.9916 36.8712C13.457 35.3234 12.7588 33.4273 11.052 30.7961C8.91858 27.5458 10.0823 26.2302 10.0823 26.2302C10.315 25.998 10.3926 25.6497 10.2374 25.4176C10.0823 25.1854 9.77196 25.1854 9.50043 25.3789C9.30648 25.5724 7.52212 27.4297 10.1987 31.4152C11.7115 33.6595 12.3709 35.3234 12.0218 36.5229C11.7115 37.6064 10.5478 38.4963 8.49188 39.3863C8.22035 39.5024 8.10398 39.812 8.22035 40.0828C8.33672 40.4311 8.60825 40.5472 8.87978 40.4311Z" fill="#34ADB7"/>
<path d="M12.4482 31.2607C15.5903 31.222 16.9479 29.1325 17.0255 29.0551C17.1807 28.8229 17.1031 28.5134 16.9091 28.3586C16.6764 28.2038 16.3661 28.2812 16.2109 28.5134C16.1721 28.5908 15.0472 30.2159 12.5258 30.2159C12.2543 30.2159 11.9828 30.4481 11.9828 30.7577C11.944 31.0285 12.1767 31.2607 12.4482 31.2607Z" fill="#A01918"/>
<path d="M100.269 64.8069C100.152 65.0003 99.3764 66.6255 102.829 69.9532C104.768 71.8493 105.544 73.6679 105.156 75.0996C104.807 76.3765 103.488 77.4987 101.316 78.1565C101.044 78.2339 100.85 78.5434 100.889 78.853C100.928 79.1625 101.2 79.3173 101.471 79.2399C104.07 78.466 105.622 77.073 106.126 75.3318C106.63 73.4357 105.816 71.3076 103.527 69.1407C100.695 66.4707 101.161 65.3099 101.161 65.2712C101.161 65.2712 101.161 65.2712 101.161 65.3099C101.277 65.0777 101.2 64.7295 100.967 64.6134C100.695 64.4973 100.385 64.5747 100.269 64.8069Z" fill="#A01918"/>
<path d="M108.222 64.4217C107.95 64.383 107.718 64.6152 107.64 64.9634C107.64 65.0795 107.213 67.4012 104.77 68.1751C104.498 68.2524 104.343 68.562 104.382 68.8716C104.42 69.1811 104.692 69.3359 104.963 69.2585C108.028 68.3298 108.61 65.1956 108.61 65.0795C108.649 64.7312 108.493 64.4604 108.222 64.4217Z" fill="#34ADB7"/>
<path d="M101.12 69.8775C98.7537 70.961 97.4348 72.0057 97.0081 73.4374C96.5426 74.9852 97.2408 76.8812 98.9476 79.5125C101.081 82.7628 99.9174 84.0784 99.9174 84.0784C99.6846 84.3106 99.6071 84.6588 99.7622 84.891C99.9174 85.1232 100.228 85.1232 100.499 84.9297C100.693 84.7362 102.478 82.8789 99.801 78.8934C98.2882 76.6491 97.6287 74.9852 97.9779 73.7857C98.2882 72.7022 99.4519 71.8122 101.508 70.9223C101.779 70.8062 101.896 70.4966 101.779 70.2258C101.663 69.8775 101.391 69.7614 101.12 69.8775Z" fill="#34ADB7"/>
<path d="M97.5563 79.0484C94.4143 79.0871 93.0566 81.1766 92.979 81.254C92.8239 81.4862 92.9014 81.7957 93.0954 81.9505C93.3281 82.1053 93.6385 82.0279 93.7936 81.7957C93.8324 81.7183 94.9573 80.0932 97.4787 80.0932C97.7502 80.0932 98.0218 79.861 98.0218 79.5514C98.0606 79.2419 97.8278 79.0097 97.5563 79.0484Z" fill="#A01918"/>
<path d="M16.9101 28.939C17.1041 28.7842 18.423 27.6234 16.5222 23.1735C15.4361 20.6971 15.4361 18.7236 16.3671 17.5628C17.1817 16.518 18.8109 15.9763 21.0995 16.2085C21.371 16.2472 21.6813 16.015 21.7589 15.7442C21.8365 15.4733 21.6426 15.2024 21.371 15.1637C18.6557 14.8929 16.6774 15.5894 15.5913 17.0211C14.3888 18.5689 14.35 20.8905 15.6301 23.7152C17.2205 27.2751 16.3671 28.1651 16.3283 28.2038C16.1343 28.3973 16.0567 28.7068 16.2507 28.9003C16.3671 29.0938 16.6774 29.1325 16.9101 28.939Z" fill="#A01918"/>
<path d="M9.3833 26.269C9.61604 26.385 9.92636 26.269 10.1203 25.9981C10.1591 25.9207 11.478 23.9086 13.9994 24.1021C14.2709 24.1408 14.5424 23.9086 14.62 23.599C14.6976 23.2895 14.5036 23.0573 14.2321 23.0186C11.0513 22.7091 9.30572 25.379 9.26692 25.4951C9.11176 25.8046 9.15055 26.1529 9.3833 26.269Z" fill="#34ADB7"/>
<path d="M18.0352 23.9472C20.6341 23.8312 22.2633 23.3668 23.1943 22.206C24.2029 20.9291 24.3192 18.9556 23.7374 15.8601C23.0391 12.0293 24.5908 11.2554 24.5908 11.2554C24.5908 11.2554 24.5908 11.2554 24.552 11.2554C24.8623 11.1393 25.0562 10.8298 24.9787 10.5589C24.9011 10.2881 24.6296 10.172 24.3192 10.2494C24.0865 10.3268 21.6815 11.3715 22.6512 16.1309C23.1943 18.8009 23.1555 20.5808 22.3797 21.5482C21.6815 22.4382 20.2462 22.8251 18.0352 22.8638C17.7637 22.8638 17.4921 23.096 17.4921 23.4055C17.5309 23.7538 17.7249 23.9472 18.0352 23.9472Z" fill="#34ADB7"/>
<path d="M24.8253 16.8276C27.7733 17.9884 29.7904 16.5954 29.868 16.518C30.1008 16.3632 30.1783 16.0537 30.0232 15.8215C29.868 15.5893 29.5577 15.5506 29.325 15.7054C29.2474 15.7441 27.6182 16.8663 25.2908 15.8602C25.0192 15.7441 24.7089 15.8602 24.5925 16.1311C24.4762 16.4406 24.5925 16.7502 24.8253 16.8276Z" fill="#A01918"/>
<path d="M93.0902 81.331C92.8963 81.4857 91.5774 82.6466 93.4781 87.0965C94.5642 89.5729 94.5643 91.5463 93.6333 92.7072C92.8187 93.7519 91.1895 94.2936 88.9009 94.0615C88.6293 94.0228 88.319 94.2549 88.2414 94.5258C88.1638 94.7967 88.3578 95.0675 88.6293 95.1062C91.3446 95.3771 93.323 94.6806 94.4091 93.2489C95.6116 91.7011 95.6504 89.3794 94.3703 86.5547C92.7799 82.9948 93.6333 82.1049 93.6721 82.0662C93.866 81.8727 93.9436 81.5631 93.7497 81.3696C93.6333 81.2149 93.323 81.1762 93.0902 81.331Z" fill="#A01918"/>
<path d="M100.617 84.0009C100.384 83.8848 100.074 84.0009 99.8802 84.2717C99.8414 84.3491 98.5225 86.3612 96.0012 86.1678C95.7296 86.1291 95.4581 86.3612 95.3805 86.6708C95.3029 86.9804 95.4969 87.2125 95.7684 87.2512C98.9492 87.5608 100.695 84.8909 100.734 84.7748C100.889 84.4652 100.85 84.1557 100.617 84.0009Z" fill="#34ADB7"/>
<path d="M91.9684 86.3614C89.3694 86.4775 87.7402 86.9418 86.8093 88.1026C85.8007 89.3796 85.6844 91.353 86.2662 94.4486C86.9644 98.2793 85.4128 99.0532 85.4128 99.0532C85.4128 99.0532 85.4128 99.0532 85.4516 99.0532C85.1413 99.1693 84.9473 99.4788 85.0249 99.7497C85.1025 100.021 85.374 100.137 85.6844 100.059C85.9171 99.9819 88.3221 98.9371 87.3523 94.1777C86.8093 91.5078 86.8481 89.7278 87.6239 88.7605C88.3221 87.8705 89.7573 87.4835 91.9684 87.4448C92.2399 87.4448 92.5114 87.2127 92.5114 86.9031C92.4727 86.5549 92.2787 86.3227 91.9684 86.3614Z" fill="#34ADB7"/>
<path d="M85.179 93.4424C82.231 92.2816 80.2139 93.6746 80.1363 93.752C79.9035 93.9067 79.826 94.2163 79.9811 94.4485C80.1363 94.6806 80.4466 94.7193 80.6793 94.5645C80.7569 94.5258 82.3861 93.4037 84.7136 94.4098C84.9851 94.5258 85.2954 94.4098 85.4118 94.1389C85.5281 93.8293 85.4118 93.5585 85.179 93.4424Z" fill="#A01918"/>
<path d="M29.8264 16.4018C30.0592 16.3244 31.7272 15.744 31.6884 10.9458C31.6496 8.23723 32.4254 6.41858 33.7055 5.68339C34.8692 5.02558 36.576 5.18036 38.5931 6.22511C38.8646 6.34119 39.2137 6.2638 39.3689 6.03164C39.5628 5.79947 39.4852 5.48991 39.2137 5.33514C36.8087 4.05822 34.714 3.94213 33.1624 4.83211C31.4556 5.79947 30.5247 7.92767 30.6022 11.0232C30.7186 14.9314 29.5549 15.4344 29.5549 15.4344C29.5549 15.4344 29.5549 15.4344 29.5937 15.4344C29.3222 15.5118 29.167 15.8214 29.2446 16.0535C29.2834 16.3244 29.5549 16.4792 29.8264 16.4018Z" fill="#A01918"/>
<path d="M23.9281 11.0617C24.0832 11.2939 24.4323 11.2939 24.7039 11.1004C24.7814 11.0231 26.7598 9.66875 29.0096 10.8296C29.2423 10.9457 29.5914 10.8683 29.7854 10.5974C29.9406 10.3652 29.9018 10.0557 29.6302 9.90091C26.7985 8.39183 24.1996 10.2105 24.0832 10.2879C23.8117 10.52 23.7341 10.8683 23.9281 11.0617Z" fill="#34ADB7"/>
<path d="M32.7761 12.2227C35.2199 13.1127 36.8879 13.3061 38.2068 12.5709C39.642 11.797 40.4954 9.9784 41.1548 6.92153C41.9694 3.12947 43.715 3.01338 43.715 3.01338C43.715 3.01338 43.715 3.01338 43.6762 3.01338C43.9865 3.01338 44.2969 2.81991 44.3357 2.54905C44.3744 2.27818 44.1805 2.04602 43.8314 2.00732C43.5598 2.00732 40.9609 2.04602 40.0299 6.80545C39.5256 9.47537 38.8274 11.1005 37.7025 11.7197C36.6939 12.2614 35.2587 12.0679 33.164 11.294C32.8925 11.1779 32.5822 11.3327 32.4658 11.5649C32.3882 11.8357 32.5046 12.1066 32.7761 12.2227Z" fill="#34ADB7"/>
<path d="M41.8134 8.23736C44.0633 10.4429 46.5071 9.90122 46.5846 9.90122C46.8562 9.86252 47.0501 9.59166 46.9725 9.3208C46.9338 9.04994 46.6622 8.89516 46.3907 8.93386C46.3131 8.93386 44.3736 9.3208 42.5892 7.54086C42.3953 7.34738 42.0462 7.34738 41.8134 7.54086C41.6195 7.73433 41.6195 8.04388 41.8134 8.23736Z" fill="#A01918"/>
<path d="M80.1754 93.8683C79.9426 93.9457 78.2747 94.5261 78.3134 99.3242C78.3522 102.033 77.5764 103.851 76.2963 104.587C75.1326 105.244 73.4259 105.09 71.4088 104.045C71.1372 103.929 70.7881 104.006 70.6329 104.238C70.439 104.471 70.5166 104.78 70.7881 104.935C73.1931 106.212 75.2878 106.328 76.8394 105.438C78.5462 104.471 79.4772 102.342 79.3996 99.2468C79.2832 95.3387 80.4469 94.8357 80.4469 94.8357C80.4469 94.8357 80.4469 94.8357 80.4081 94.8357C80.6797 94.7583 80.8348 94.4487 80.7572 94.2166C80.7184 93.9457 80.4469 93.7909 80.1754 93.8683Z" fill="#A01918"/>
<path d="M86.075 99.2083C85.9199 98.9762 85.5708 98.9762 85.2992 99.1696C85.2217 99.247 83.2434 100.601 80.9935 99.4405C80.7608 99.3244 80.4117 99.4018 80.2177 99.6727C80.0625 99.9049 80.1013 100.214 80.3729 100.369C83.2046 101.878 85.8035 100.06 85.9199 99.9822C86.1914 99.7501 86.269 99.4405 86.075 99.2083Z" fill="#34ADB7"/>
<path d="M77.2265 98.086C74.7827 97.196 73.1147 97.0026 71.7959 97.7378C70.3606 98.5117 69.5072 100.33 68.8478 103.387C68.0332 107.179 66.2876 107.295 66.2876 107.295C66.2876 107.295 66.2876 107.295 66.3264 107.295C66.0161 107.295 65.7058 107.489 65.667 107.76C65.6282 108.031 65.8222 108.263 66.1713 108.301C66.4428 108.301 69.0418 108.263 69.9727 103.503C70.477 100.833 71.1752 99.2081 72.3002 98.589C73.3087 98.0473 74.7439 98.2408 76.8386 99.0147C77.1101 99.1308 77.4205 98.976 77.5368 98.7438C77.6144 98.4729 77.4593 98.1634 77.2265 98.086Z" fill="#34ADB7"/>
<path d="M68.1881 102.033C65.9382 99.8274 63.4944 100.369 63.4169 100.369C63.1453 100.408 62.9514 100.679 63.029 100.95C63.0677 101.22 63.3393 101.375 63.6108 101.336C63.6884 101.336 65.6279 100.95 67.4123 102.729C67.6062 102.923 67.9553 102.923 68.1881 102.729C68.382 102.536 68.382 102.226 68.1881 102.033Z" fill="#A01918"/>
<path d="M45.305 100.292C45.111 100.176 43.4818 99.4019 40.1459 102.846C38.2451 104.78 36.422 105.554 34.9867 105.167C33.7067 104.819 32.5817 103.504 31.9223 101.337C31.8447 101.066 31.5344 100.872 31.2241 100.911C30.9138 100.95 30.7586 101.221 30.8362 101.491C31.612 104.084 33.0084 105.632 34.754 106.135C36.6547 106.638 38.7882 105.825 40.9605 103.542C43.637 100.718 44.8007 101.182 44.8395 101.182C44.8395 101.182 44.8395 101.182 44.8007 101.182C45.0334 101.298 45.3826 101.221 45.4989 100.988C45.6541 100.718 45.5377 100.408 45.305 100.292Z" fill="#A01918"/>
<path d="M45.6889 108.224C45.7277 107.953 45.4949 107.721 45.1458 107.644C45.0294 107.644 42.702 107.218 41.9262 104.781C41.8486 104.51 41.5383 104.355 41.228 104.394C40.9177 104.432 40.7625 104.703 40.8401 104.974C41.7711 108.031 44.9131 108.611 45.0294 108.611C45.3786 108.689 45.6501 108.495 45.6889 108.224Z" fill="#34ADB7"/>
<path d="M40.2617 101.182C39.1755 98.8215 38.1282 97.5059 36.6929 97.0803C35.1413 96.6159 33.2406 97.3124 30.6028 99.015C27.3445 101.143 26.0256 99.9824 26.0256 99.9824C25.7928 99.7502 25.4437 99.6728 25.211 99.8276C24.9782 99.9824 24.9782 100.292 25.1722 100.563C25.3661 100.756 27.2281 102.536 31.2235 99.8663C33.4733 98.3572 35.1413 97.6994 36.3438 98.0476C37.43 98.3572 38.3221 99.518 39.2143 101.569C39.3307 101.84 39.641 101.956 39.9125 101.84C40.2616 101.724 40.378 101.414 40.2617 101.182Z" fill="#34ADB7"/>
<path d="M31.0703 97.5831C31.0315 94.4488 28.9368 93.0945 28.8592 93.0172C28.6265 92.8624 28.3161 92.9398 28.161 93.1332C28.0058 93.3654 28.0834 93.675 28.3161 93.8297C28.3937 93.8684 30.0229 94.9906 30.0229 97.5057C30.0229 97.7766 30.2557 98.0474 30.566 98.0474C30.8375 98.0861 31.0703 97.854 31.0703 97.5831Z" fill="#A01918"/>
<path d="M64.6982 10.0171C64.8921 10.1332 66.5213 10.9071 69.8573 7.46323C71.758 5.5285 73.5812 4.75461 75.0164 5.14156C76.2965 5.48981 77.4214 6.80543 78.0809 8.97232C78.1584 9.24318 78.4688 9.43666 78.7791 9.39796C79.0894 9.35927 79.2446 9.08841 79.167 8.81754C78.3912 6.22501 76.9947 4.67722 75.2492 4.17419C73.3484 3.67116 71.215 4.48375 69.0427 6.76673C66.3662 9.59143 65.2025 9.1271 65.1637 9.1271C65.1637 9.1271 65.1637 9.1271 65.2025 9.1271C64.9697 9.01101 64.6206 9.0884 64.5042 9.32057C64.3491 9.59143 64.4655 9.8623 64.6982 10.0171Z" fill="#A01918"/>
<path d="M64.3089 2.08456C64.2701 2.35542 64.5029 2.58759 64.852 2.66498C64.9683 2.66498 67.2958 3.09062 68.0716 5.52838C68.1491 5.79924 68.4595 5.95402 68.7698 5.91532C69.0801 5.87663 69.2353 5.60577 69.1577 5.3349C68.2267 2.27803 65.0847 1.69762 64.9683 1.69762C64.6192 1.62023 64.3089 1.8137 64.3089 2.08456Z" fill="#34ADB7"/>
<path d="M69.7429 9.12719C70.829 11.4876 71.8763 12.8032 73.3116 13.2288C74.8632 13.6932 76.7639 12.9966 79.4017 11.2941C82.66 9.16589 83.9789 10.3267 83.9789 10.3267C84.2117 10.5589 84.5608 10.6363 84.7935 10.4815C85.0263 10.3267 85.0263 10.0172 84.8323 9.74631C84.6384 9.55283 82.7764 7.77288 78.781 10.4428C76.5312 11.9519 74.8632 12.6097 73.6607 12.2615C72.5746 11.9519 71.6824 10.7911 70.7902 8.74024C70.6738 8.46938 70.3635 8.3533 70.092 8.46938C69.7429 8.58547 69.6265 8.85633 69.7429 9.12719Z" fill="#34ADB7"/>
<path d="M78.9355 12.687C78.9743 15.8213 81.069 17.1756 81.1466 17.2529C81.3793 17.4077 81.6897 17.3303 81.8448 17.1369C82 16.9047 81.9224 16.5951 81.6897 16.4404C81.6121 16.4017 79.9829 15.2795 79.9829 12.7644C79.9829 12.4935 79.7502 12.2227 79.4398 12.2227C79.1683 12.2227 78.9355 12.4161 78.9355 12.687Z" fill="#A01918"/>
<path d="M28.7401 93.1721C28.5849 92.9787 27.4212 91.663 22.9603 93.5591C20.4777 94.6425 18.4994 94.6425 17.3357 93.7138C16.2884 92.9013 15.7453 91.2761 15.9781 88.9931C16.0169 88.7223 15.7841 88.4127 15.5126 88.3353C15.241 88.2579 14.9695 88.4514 14.9307 88.7223C14.6592 91.4309 15.3574 93.4043 16.7927 94.4877C18.3443 95.6873 20.6717 95.726 23.5034 94.449C27.0721 92.8626 27.9643 93.7138 28.0031 93.7525C28.197 93.946 28.5074 93.9847 28.7013 93.8299C28.8953 93.6752 28.8953 93.3656 28.7401 93.1721Z" fill="#A01918"/>
<path d="M26.0627 100.64C26.1791 100.408 26.0627 100.098 25.7912 99.9049C25.7136 99.8662 23.6965 98.5506 23.8904 96.0355C23.9292 95.7646 23.6965 95.4938 23.3862 95.4164C23.0759 95.339 22.8431 95.5324 22.8043 95.8033C22.494 98.9763 25.1705 100.718 25.2869 100.756C25.5972 100.95 25.9463 100.872 26.0627 100.64Z" fill="#34ADB7"/>
<path d="M23.7359 92.0501C23.6195 89.4576 23.154 87.8324 21.9903 86.9037C20.7102 85.8976 18.7319 85.7816 15.6287 86.362C11.7884 87.0585 11.0126 85.5107 11.0126 85.5107C11.0126 85.5107 11.0126 85.5107 11.0126 85.5494C10.8962 85.2398 10.5859 85.0464 10.3144 85.1238C10.0429 85.2011 9.92648 85.472 10.0041 85.7816C10.0816 86.0137 11.129 88.4128 15.9002 87.4454C18.5767 86.9037 20.3611 86.9424 21.3309 87.7163C22.223 88.4128 22.6109 89.8445 22.6497 92.0501C22.6497 92.321 22.8825 92.5918 23.1928 92.5918C23.5031 92.5531 23.7359 92.321 23.7359 92.0501Z" fill="#34ADB7"/>
<path d="M16.599 85.2397C17.7627 82.2989 16.3663 80.2868 16.2887 80.2094C16.1335 79.9773 15.8232 79.8999 15.5904 80.0546C15.3577 80.2094 15.3189 80.519 15.4741 80.7511C15.5129 80.8285 16.6378 82.4537 15.6292 84.7754C15.5129 85.0463 15.6292 85.3558 15.9008 85.4719C16.2111 85.588 16.4826 85.4719 16.599 85.2397Z" fill="#A01918"/>
<path d="M81.2643 17.137C81.4194 17.3305 82.5832 18.6461 87.044 16.7501C89.5266 15.6667 91.5049 15.6667 92.6686 16.5953C93.716 17.4079 94.259 19.0331 94.0263 21.3161C93.9875 21.5869 94.2203 21.8965 94.4918 21.9739C94.7633 22.0513 95.0348 21.8578 95.0736 21.5869C95.3452 18.8783 94.647 16.9049 93.2117 15.8214C91.6601 14.6219 89.3327 14.5832 86.501 15.8601C82.9323 17.4466 82.0401 16.5953 82.0013 16.5566C81.8073 16.3632 81.497 16.2858 81.3031 16.4792C81.1091 16.5953 81.1091 16.9049 81.2643 17.137Z" fill="#A01918"/>
<path d="M83.9375 9.63034C83.8211 9.86251 83.9374 10.1721 84.209 10.3655C84.2866 10.4042 86.3037 11.7198 86.1097 14.235C86.0709 14.5059 86.3037 14.7767 86.614 14.8541C86.9243 14.9315 87.1571 14.738 87.1959 14.4672C87.5062 11.2942 84.8296 9.55295 84.7133 9.51425C84.4029 9.35947 84.0538 9.39817 83.9375 9.63034Z" fill="#34ADB7"/>
<path d="M86.2676 18.2593C86.3839 20.8518 86.8494 22.477 88.0131 23.4056C89.2932 24.4117 91.2715 24.5278 94.3748 23.9474C98.215 23.2509 98.9908 24.7986 98.9908 24.7986C98.9908 24.7986 98.9908 24.7986 98.9908 24.7599C99.1072 25.0695 99.4175 25.263 99.689 25.1856C99.9606 25.1082 100.077 24.8373 99.9994 24.5278C99.9218 24.2956 98.8744 21.8965 94.1032 22.8639C91.4267 23.4056 89.6423 23.3669 88.6726 22.593C87.7804 21.8965 87.3925 20.4648 87.3537 18.2593C87.3537 17.9884 87.121 17.7175 86.8106 17.7175C86.5003 17.7562 86.2676 17.9884 86.2676 18.2593Z" fill="#34ADB7"/>
<path d="M93.4064 25.0691C92.2427 28.0099 93.6392 30.022 93.7168 30.0994C93.8719 30.3315 94.1822 30.4089 94.415 30.2541C94.6477 30.0994 94.6865 29.7898 94.5314 29.5576C94.4926 29.4802 93.3676 27.8551 94.3762 25.5334C94.4926 25.2625 94.3762 24.953 94.1047 24.8369C93.7943 24.6821 93.5228 24.7982 93.4064 25.0691Z" fill="#A01918"/>
<path d="M16.1716 80.2479C16.094 80.0158 15.5122 78.3519 10.7022 78.3906C7.98683 78.4293 6.16369 77.6554 5.42667 76.3785C4.76724 75.2176 4.92239 73.5151 5.96973 71.5029C6.0861 71.2321 6.00852 70.8838 5.77578 70.7291C5.54304 70.5356 5.23272 70.613 5.07756 70.8838C3.79748 73.2829 3.6811 75.3724 4.57328 76.9202C5.54304 78.6227 7.67651 79.5514 10.7797 79.474C14.6976 79.3579 15.2018 80.5188 15.2018 80.5188C15.2018 80.5188 15.2018 80.5188 15.2018 80.4801C15.2794 80.751 15.5897 80.9057 15.8225 80.8283C16.094 80.7896 16.2492 80.5188 16.1716 80.2479Z" fill="#A01918"/>
<path d="M10.8188 86.1683C11.0515 86.0135 11.0515 85.6652 10.8576 85.3944C10.78 85.317 9.42234 83.3436 10.586 81.0993C10.7024 80.8671 10.6248 80.5189 10.3533 80.3254C10.1206 80.1706 9.81024 80.2093 9.65508 80.4802C8.14225 83.3049 9.9654 85.8974 10.043 86.0135C10.2757 86.2457 10.6248 86.323 10.8188 86.1683Z" fill="#34ADB7"/>
<path d="M11.9438 77.3074C12.836 74.8696 13.0299 73.2057 12.2929 71.8901C11.5171 70.4584 9.69394 69.6071 6.6295 68.9493C2.82805 68.1367 2.71168 66.3955 2.71168 66.3955C2.71168 66.3955 2.71168 66.3955 2.71168 66.4342C2.71168 66.1246 2.51772 65.8151 2.24619 65.7764C1.97466 65.7377 1.74192 65.9311 1.70312 66.2794C1.70312 66.5503 1.74192 69.1428 6.51313 70.0715C9.18967 70.5745 10.8189 71.271 11.4395 72.3931C11.9826 73.3992 11.7886 74.8309 11.0128 76.9204C10.8964 77.1913 11.0516 77.5008 11.2843 77.6169C11.5559 77.6943 11.8662 77.5782 11.9438 77.3074Z" fill="#34ADB7"/>
<path d="M7.98804 68.2913C10.1991 66.047 9.65603 63.6092 9.65603 63.5318C9.61724 63.261 9.34571 63.0675 9.07417 63.1449C8.80264 63.1836 8.64748 63.4544 8.68627 63.7253C8.68627 63.8027 9.07417 65.7374 7.28981 67.5174C7.09586 67.7108 7.09586 68.0591 7.28981 68.2913C7.48376 68.4847 7.79409 68.4847 7.98804 68.2913Z" fill="#A01918"/>
<path d="M93.8305 30.0222C93.9081 30.2544 94.4899 31.9183 99.2999 31.8796C102.015 31.8409 103.838 32.6148 104.575 33.8917C105.235 35.0525 105.08 36.7551 104.032 38.7672C103.916 39.0381 103.994 39.3863 104.226 39.5411C104.459 39.7346 104.769 39.6572 104.925 39.3863C106.205 36.9872 106.321 34.8977 105.429 33.35C104.459 31.6474 102.326 30.7187 99.2224 30.7961C95.3045 30.9122 94.8003 29.7514 94.8003 29.7514C94.8003 29.7514 94.8003 29.7514 94.8003 29.7901C94.7227 29.5192 94.4124 29.3644 94.1796 29.4418C93.9081 29.5192 93.7529 29.79 93.8305 30.0222Z" fill="#A01918"/>
<path d="M99.184 24.1406C98.9512 24.2954 98.9512 24.6436 99.1452 24.9145C99.2228 24.9919 100.58 26.9653 99.4167 29.2096C99.3004 29.4417 99.3779 29.79 99.6495 29.9835C99.8822 30.1382 100.193 30.0995 100.348 29.8287C101.861 27.004 100.037 24.4114 99.9598 24.2954C99.727 24.0632 99.3779 23.9858 99.184 24.1406Z" fill="#34ADB7"/>
<path d="M98.0602 33.0018C97.168 35.4395 96.974 37.1034 97.711 38.419C98.4868 39.8507 100.31 40.702 103.374 41.3598C107.176 42.1724 107.292 43.9137 107.292 43.9137C107.292 43.9137 107.292 43.9137 107.292 43.875C107.292 44.1845 107.486 44.4941 107.758 44.5328C108.029 44.5715 108.262 44.378 108.301 44.0297C108.301 43.7589 108.262 41.1663 103.491 40.2377C100.814 39.7346 99.1851 39.0381 98.5644 37.916C98.0214 36.9099 98.2153 35.4782 98.9911 33.3887C99.1075 33.1179 98.9523 32.8083 98.7196 32.6922C98.4093 32.6148 98.1377 32.7309 98.0602 33.0018Z" fill="#34ADB7"/>
<path d="M102.016 41.9788C99.8049 44.2231 100.348 46.6609 100.348 46.7383C100.387 47.0091 100.658 47.2026 100.93 47.1252C101.201 47.0865 101.357 46.8157 101.318 46.5448C101.318 46.4674 100.93 44.5327 102.714 42.7527C102.908 42.5593 102.908 42.211 102.714 41.9788C102.52 41.7854 102.21 41.7854 102.016 41.9788Z" fill="#A01918"/>
<path d="M34.5968 81.2537C34.6744 80.9828 34.6744 80.7506 34.558 80.4798L29.9032 71.1931C29.8256 71.0383 29.7092 70.8835 29.5153 70.7674C29.2049 70.5739 28.7783 70.5739 28.4291 70.7674C28.274 70.8835 28.1576 70.9996 28.0412 71.1931L23.3864 80.4798C23.27 80.7119 23.2312 80.9828 23.3476 81.2537C23.4252 81.5245 23.6191 81.718 23.8519 81.8341C24.0846 81.9502 24.3562 81.9889 24.6277 81.8728C24.8992 81.7954 25.0932 81.6019 25.2095 81.3697L26.1017 79.6285H31.8039L32.6961 81.3697C32.7737 81.5632 32.89 81.6793 33.084 81.7954C33.3943 81.9888 33.7434 81.9889 34.0537 81.8341C34.3641 81.718 34.5192 81.5245 34.5968 81.2537ZM27.1491 77.6164L28.9722 73.9404L30.7954 77.6164H27.1491Z" fill="#6F026C"/>
<path d="M47.5522 81.1364C47.591 80.8655 47.5522 80.5947 47.3971 80.3625L44.6818 76.2996L47.3971 72.2366C47.5522 72.0045 47.591 71.7723 47.5522 71.4627C47.5135 71.1919 47.3583 70.9984 47.1256 70.8436C46.8928 70.6888 46.6213 70.6501 46.3497 70.6888C46.0782 70.7275 45.8843 70.8823 45.6903 71.1145L42.8974 75.2935H39.7942V71.6562C39.7942 71.3853 39.7166 71.1532 39.4838 70.9597C39.2899 70.7662 39.0572 70.6501 38.7856 70.6501C38.5141 70.6501 38.2813 70.7662 38.0486 70.9597C37.8546 71.1532 37.7383 71.3853 37.7383 71.6562V80.9042C37.7383 81.1751 37.8159 81.4073 38.0486 81.6394C38.2813 81.8716 38.4753 81.949 38.7856 81.949C39.0572 81.949 39.2899 81.8716 39.4838 81.6394C39.6778 81.4459 39.7942 81.2138 39.7942 80.9042V77.2669H42.8974L45.6903 81.4459C45.8843 81.7555 46.1558 81.9103 46.5437 81.9103C46.7377 81.9103 46.9316 81.8716 47.1256 81.7555C47.3583 81.6007 47.4747 81.4072 47.5522 81.1364Z" fill="#6F026C"/>
<path d="M61.3247 81.2536C61.4023 80.9828 61.4023 80.7506 61.2859 80.4798L56.6311 71.1931C56.5535 71.0383 56.4371 70.8835 56.2432 70.7674C55.9329 70.5739 55.5062 70.5739 55.1571 70.7674C55.0019 70.8835 54.8855 70.9996 54.7691 71.1931L50.1143 80.4798C49.9979 80.7119 49.9591 80.9828 50.0755 81.2536C50.1531 81.5245 50.347 81.718 50.5798 81.8341C50.8125 81.9501 51.0841 81.9888 51.3556 81.8728C51.6271 81.7954 51.8211 81.6019 51.9375 81.3697L52.8296 79.6285H58.5318L59.424 81.3697C59.5016 81.5632 59.6179 81.6793 59.8119 81.7954C60.1222 81.9888 60.4713 81.9888 60.7817 81.8341C61.0532 81.718 61.2083 81.5245 61.3247 81.2536ZM53.877 77.6164L55.7001 73.9404L57.5233 77.6164H53.877Z" fill="#6F026C"/>
<path d="M73.7762 76.88C73.4659 76.3769 73.0392 75.9513 72.4961 75.6805L72.3022 75.5644L72.3798 75.3709C72.5737 74.9452 72.6901 74.4422 72.6901 73.9779C72.6901 73.0492 72.3798 72.2753 71.7203 71.6175C71.0609 70.9597 70.2851 70.6501 69.3541 70.6501H65.4751C65.2035 70.6501 64.9708 70.7662 64.7381 70.9597C64.5441 71.1532 64.4277 71.3853 64.4277 71.6562V80.9042C64.4277 81.1751 64.5053 81.4073 64.7381 81.6394C64.9708 81.8716 65.1648 81.949 65.4751 81.949H70.9057C71.8367 81.949 72.6125 81.6394 73.272 80.9816C73.9314 80.3238 74.2417 79.5499 74.2417 78.6212C74.2805 78.0021 74.0865 77.4217 73.7762 76.88ZM66.5224 72.6623H69.3929C69.742 72.6623 70.0523 72.7783 70.3239 73.0492C70.5954 73.2814 70.7118 73.5909 70.7118 73.9779C70.7118 74.3261 70.5954 74.6357 70.3239 74.9066C70.0523 75.1774 69.742 75.2935 69.3929 75.2935H66.5224V72.6623ZM71.8367 79.5499C71.5652 79.8208 71.2936 79.9369 70.9057 79.9369H66.4836V77.3056H70.9057C71.2548 77.3056 71.5652 77.4217 71.8367 77.6926C72.1082 77.9247 72.2246 78.2343 72.2246 78.6212C72.2246 78.9695 72.1082 79.2791 71.8367 79.5499Z" fill="#6F026C"/>
<path d="M86.0714 70.8049C85.8386 70.6502 85.5671 70.6115 85.2956 70.6888C85.024 70.7662 84.8301 70.8823 84.6749 71.1532L81.6493 75.9513L78.6236 71.1532C78.4685 70.921 78.2745 70.7662 78.003 70.6888C77.9254 70.6888 77.8478 70.6501 77.7702 70.6501C77.5763 70.6501 77.4211 70.6888 77.2272 70.8049C76.9944 70.9597 76.8393 71.1532 76.7617 71.424C76.6841 71.6949 76.7617 71.9658 76.8781 72.1979L80.6019 78.1182V80.9042C80.6019 81.1751 80.7183 81.4073 80.9123 81.6394C81.1062 81.8329 81.339 81.949 81.6105 81.949C81.882 81.949 82.1148 81.8329 82.3475 81.6394C82.5415 81.4459 82.6578 81.2138 82.6578 80.9042V78.1182L82.6966 78.0795L86.3817 72.1979C86.5369 71.9658 86.5757 71.6949 86.4981 71.424C86.4593 71.1532 86.3041 70.9597 86.0714 70.8049Z" fill="#6F026C"/>
<path d="M41.114 61.8291H23.5807C23.3092 61.8291 23.1152 62.0226 23.1152 62.2934V62.3708C23.1152 62.6417 23.3092 62.8352 23.5807 62.8352H41.114C41.3855 62.8352 41.5795 62.6417 41.5795 62.3708V62.2934C41.5795 62.0226 41.3467 61.8291 41.114 61.8291Z" fill="#34ADB7"/>
<path d="M86.4201 61.8291H68.7705C68.4989 61.8291 68.305 62.0226 68.305 62.2934V62.3708C68.305 62.6417 68.4989 62.8352 68.7705 62.8352H86.4201C86.6916 62.8352 86.8856 62.6417 86.8856 62.3708V62.2934C86.8856 62.0226 86.6916 61.8291 86.4201 61.8291Z" fill="#34ADB7"/>
<path d="M71.6789 56.1796C76.295 51.1106 78.0793 45.1904 76.9932 38.651C76.1398 33.582 73.6184 29.403 69.4679 26.1913C65.1233 22.8249 60.2358 21.548 54.9991 22.3992C49.6848 23.2505 45.4954 25.9592 42.5086 30.4477C39.9484 34.2785 39.095 38.4962 39.9872 42.9074C40.9182 47.6668 43.5171 51.3815 47.7065 53.8966C50.9649 55.8701 54.4948 56.5279 58.2187 55.8314C61.9813 55.1349 65.0458 53.2001 67.3344 50.1433C69.5842 47.1251 70.4764 43.7587 69.8946 40.1988C69.3127 36.4067 67.3732 33.3885 64.1148 31.2603C60.003 28.5517 54.6499 28.7839 50.8485 31.8407C48.2883 33.8915 46.9695 36.4454 46.8919 39.5023C46.8143 42.83 48.172 45.4999 50.9261 47.4346C54.1069 49.6402 58.2962 49.292 60.934 46.5447C62.7571 44.6099 63.3002 42.4043 62.4468 40.0053C61.671 37.7997 59.7315 36.4067 57.5204 36.5228C55.8912 36.6002 54.7663 37.3741 54.1457 38.8444C53.8354 39.5409 53.8741 40.3148 54.1845 40.9339C54.4948 41.5531 55.1154 41.94 55.8137 42.0948C56.2016 42.1722 56.5895 42.0561 56.861 41.8239C57.1325 41.5918 57.2877 41.2435 57.2877 40.8566C57.2877 40.5857 57.1325 40.3922 56.8998 40.2761C56.6283 40.1988 56.3955 40.1988 56.0464 40.6631L55.6973 41.1274L55.5033 40.5857C55.4645 40.5083 55.4645 40.4696 55.4258 40.4309C55.3482 40.2761 55.2706 40.1214 55.3094 39.9279C55.3482 39.6183 55.4258 39.2314 55.6197 38.9218C56.2404 37.9932 57.2101 37.6062 58.335 37.7997C59.6927 38.0319 60.74 38.9218 61.2831 40.3148C62.0201 42.1335 61.6322 43.9134 60.2746 45.4999C58.2187 47.8216 54.7663 48.2859 51.9734 46.5447C48.4435 44.3391 47.2022 39.657 49.1417 35.865C51.5467 31.1829 57.2489 29.2869 62.1365 31.5312C67.5283 34.0076 70.2049 40.3535 68.1878 45.9642C65.8992 52.3102 59.1884 55.9475 52.5553 54.4384C46.31 53.0067 41.5776 47.4733 41.0345 40.9339C40.8406 38.3414 41.2673 35.8263 42.3146 33.4659C45.8057 25.5335 55.0379 21.4706 63.3778 24.2179C68.0714 25.7657 71.9117 29.0934 74.1615 33.6207C76.4501 38.1866 76.7992 43.333 75.1701 48.1311C73.3857 53.3162 69.6618 57.4952 64.6191 59.933C59.5763 62.3707 53.9517 62.6803 48.7538 60.8617C40.8794 58.0756 35.0996 50.8398 33.9359 42.443C33.8583 41.94 33.5868 41.7465 33.3153 41.7465H33.2765C33.0049 41.7465 32.6946 41.9787 32.6946 42.4043C32.6946 42.9461 32.811 43.6426 33.0049 44.5325C34.4402 51.188 38.1253 56.3731 43.9826 59.9717C48.7538 62.8738 53.9129 63.8798 59.4212 62.9125C64.1924 62.1386 68.3429 59.8169 71.6789 56.1796Z" fill="#6F026C"/>
<path d="M56.2815 42.3269C57.5883 42.3269 58.6477 41.2702 58.6477 39.9666C58.6477 38.663 57.5883 37.6062 56.2815 37.6062C54.9747 37.6062 53.9153 38.663 53.9153 39.9666C53.9153 41.2702 54.9747 42.3269 56.2815 42.3269Z" fill="#6F026C"/>
</svg>
