<svg width="523" height="229" viewBox="0 0 523 229" fill="none" xmlns="http://www.w3.org/2000/svg">
<path fill-rule="evenodd" clip-rule="evenodd" d="M497.549 114.215C497.948 114.233 497.878 114.719 497.965 115.049C496.005 117.117 492.918 118.055 489.64 118.802C490.906 115.883 495.398 116.231 497.549 114.215Z" fill="white" fill-opacity="0.6"/>
<path fill-rule="evenodd" clip-rule="evenodd" d="M499.629 118.385C497.704 120.348 493.247 119.774 490.472 120.886C491.443 118.333 497.305 116.839 499.629 118.385Z" fill="white" fill-opacity="0.6"/>
<path fill-rule="evenodd" clip-rule="evenodd" d="M499.213 122.554C498.086 124.483 494.999 124.448 492.137 124.639C493.715 123.093 498.034 120.782 499.213 122.554Z" fill="white" fill-opacity="0.6"/>
<path fill-rule="evenodd" clip-rule="evenodd" d="M518.36 35.832C522.662 37.2566 522.818 45.3694 520.442 47.9231C524.205 51.328 521.135 59.5798 518.36 61.6819C525.402 70.9412 512.984 78.307 504.208 79.61C505.179 75.9618 512.134 76.4135 511.7 70.4374C511.631 69.3951 511.041 69.3256 510.868 67.9358C508.544 67.241 506.168 68.457 503.792 67.9358C505.908 63.9402 512.047 63.975 511.7 57.5125C510.868 55.0631 507.573 56.7308 505.873 55.8448C505.873 52.5962 512.793 51.7623 511.284 45.8384C510.33 42.1034 505.769 43.3716 502.127 41.6691C511.215 36.6659 517.233 50.1815 509.203 54.594C510.4 54.6461 511.926 54.3682 512.533 55.0109C514.996 58.746 512.203 63.9229 508.787 65.4342C512.342 66.355 514.354 69.482 512.949 74.1898C516.643 73.4949 521.933 66.5634 517.112 62.9326C515.343 63.0369 513.816 62.8979 513.365 61.6819C513.227 59.7362 516.244 60.9522 517.112 60.0141C519.349 58.2422 521.014 54.0902 520.025 50.4247C518.083 49.973 516.747 51.5191 515.447 50.4247C515.308 47.9231 518.014 48.2705 519.193 47.0892C521.465 42.503 519.973 37.5692 515.447 37.4998C514.475 35.2935 516.539 35.7973 517.112 34.1643C518.69 27.2502 511.51 27.7192 508.787 27.4934C508.665 26.8159 509.186 26.7811 509.203 26.2426C516.036 24.5227 521.344 29.8039 518.36 35.832Z" fill="white" fill-opacity="0.6"/>
<path fill-rule="evenodd" clip-rule="evenodd" d="M496.3 51.6756C496.803 51.8493 497.15 52.2141 497.132 52.9264C488.53 57.1826 490.472 71.6362 489.224 81.2778C488.946 83.4493 485.512 87.7403 482.147 87.5318C490.941 82.6155 486.067 69.6732 489.64 60.8481C487.038 61.0218 486.397 66.7547 484.229 68.7698C484.159 60.6223 491.235 56.0534 496.3 51.6756Z" fill="white" fill-opacity="0.6"/>
<path fill-rule="evenodd" clip-rule="evenodd" d="M452.594 66.6851C449.576 63.8534 445.084 57.7905 448.847 54.1771C445.032 51.2412 443.454 40.123 450.512 39.5845C448.396 35.8147 444.217 28.501 448.431 24.5749C445.899 19.9713 447.564 14.5859 454.675 15.4024C454.38 16.6879 454.38 16.2015 454.675 17.487C451.64 17.6086 449.108 17.5392 448.847 20.4056C448.605 23.133 451.83 23.0461 452.177 25.8257C451.293 27.1286 449.021 25.8778 448.015 27.9104C445.535 32.9136 452.784 37.6909 453.842 41.6691C445.292 38.3163 445.084 53.8818 453.01 52.9263C452.854 54.733 450.408 55.2195 449.264 57.0957C449.801 63.784 454.866 65.9381 459.254 68.7698C458.629 68.9435 459.41 69.3083 459.254 70.0206C450.478 68.0575 440.072 65.6949 441.355 55.011C435.909 54.6635 432.822 47.6278 438.441 45.0046C432.631 43.6322 431.937 33.4868 437.193 30.8289C429.093 27.0591 430.775 10.2776 440.106 12.0669C437.973 14.6206 434.036 14.5685 433.446 18.7378C432.735 23.6542 436.065 29.1612 441.355 29.5781C441.684 32.514 437.383 31.906 435.944 34.5813C433.897 38.3684 436.256 43.1631 441.771 43.3369C442.899 46.6376 438.129 45.9774 437.609 48.3401C436.707 52.4399 441.355 53.1869 445.517 51.6755C446.124 54.5072 443.766 54.3682 443.02 55.8449C442.361 62.3247 448.379 63.9229 452.594 66.6851Z" fill="white" fill-opacity="0.6"/>
<path fill-rule="evenodd" clip-rule="evenodd" d="M467.162 52.0926C477.603 52.4748 477.238 65.4345 481.314 70.8546C473.579 71.7232 479.042 58.225 472.157 56.6789C476.614 65.3997 468.671 80.2703 475.487 86.2811C477.013 84.1791 474.515 82.5461 474.238 80.861C475.764 79.8534 477.637 80.6873 479.649 79.6102C482.598 83.38 480.343 91.4233 481.73 95.8706C482.754 96.5828 484.523 95.2625 486.309 95.4536C487.471 95.6273 485.269 93.8901 486.725 93.7859C487.697 93.9249 488.512 94.2202 488.807 95.0367C488.893 97.7641 485.529 97.0345 482.979 97.1213C485.407 101.777 489.292 104.974 493.802 107.545C498.259 105.373 498.658 110.237 502.126 111.297C507.364 119.827 502.976 133.064 499.629 140.482C490.836 143.262 486.257 147.831 473.406 147.153C466.537 146.788 455.854 144.825 450.512 141.733C440.297 135.827 440.8 119.757 446.35 108.795C447.061 108.813 447.425 108.483 447.598 107.962C460.433 109.421 463.173 100.77 468.827 95.0367C468.133 93.23 465.081 92.5177 465.497 90.8674C467.283 89.3734 468.081 92.4309 469.659 92.5351C471.897 92.1355 471.602 89.1996 474.238 89.1996C474.134 91.458 472.764 92.4482 471.741 93.7859C472.434 94.7587 473.995 94.863 475.07 95.4536C477.447 93.0215 476.458 91.0932 476.319 87.9488C469.521 87.7056 469.416 73.4778 472.573 68.7699C471.671 64.2532 468.74 61.7689 465.081 60.0144C466.642 63.3846 466.52 67.9187 466.746 73.7731C466.936 78.8284 469.295 82.0249 470.492 85.8642C462.462 82.1292 467.752 68.7352 463.416 61.6821C462.08 59.4932 460.034 59.7017 458.837 57.0958C463.901 56.6441 468.809 59.858 471.741 62.9329C473.163 59.25 468.636 55.5323 467.162 52.0926ZM478.817 88.7827C479.268 85.7252 479.458 84.3181 477.984 82.5287C478.002 84.874 477.759 87.4798 478.817 88.7827ZM470.492 95.4536C465.15 102.68 458.351 110.741 448.015 110.463C442.759 118.541 442.152 132.196 449.263 138.815C449.957 138.815 450.651 138.815 451.344 138.815C460.745 146.146 481.349 147.866 492.969 141.733C493.94 140.43 494.825 139.44 494.634 137.981C496.594 138.207 495.831 136.956 497.548 136.313C497.687 137.286 497.981 138.102 498.796 138.398C501.762 130.476 505.491 118.732 500.045 111.297C491.998 108.622 488.598 116.404 480.482 116.3C483.968 118.507 484.991 124.952 483.812 130.476C487.072 131.518 489.067 133.829 491.304 135.896C491.668 137.512 490.61 137.703 490.055 138.398C487.974 136.174 486.673 133.169 483.812 131.727C481.089 133.012 475.07 139.787 472.573 134.645C476.337 134.246 480.1 133.846 481.314 130.893C476.683 127.679 473.77 136.782 469.659 132.561C471.064 131.605 473.492 131.675 474.238 130.059C466.069 130.198 460.155 131.188 456.756 135.062C455.732 136.226 455.923 138.763 453.426 138.815C454.154 130.233 464.89 128.079 475.903 128.391C479.372 123.267 473.804 119.288 471.741 115.883C469.763 115.779 466.746 116.057 463.416 115.883C458.646 115.64 451.188 115.814 452.177 111.714C457.397 114.615 464.508 113.191 471.324 114.633C468.827 107.944 472.521 101.412 474.654 96.7044C473.319 96.2354 471.758 95.9922 470.492 95.4536ZM473.406 114.633C474.689 113.903 476.354 115.119 476.319 113.799C470.526 110.481 476.926 101.899 477.984 97.5383C477.447 97.5209 477.412 96.9997 476.735 97.1213C474.585 101.899 470.336 108.396 473.406 114.633ZM475.487 109.629C477.1 117.36 489.101 113.764 492.553 108.795C486.673 106.624 484.141 101.1 479.649 97.5383C479.441 101.273 474.776 106.155 475.487 109.629ZM478.4 128.808C479.944 128.999 480.308 129.121 482.563 129.225C483.291 122.381 480.516 119.045 477.568 115.883C476.285 115.744 475.573 116.856 474.654 115.883C476.319 119.445 481.418 123.249 478.4 128.808Z" fill="white" fill-opacity="0.6"/>
<path fill-rule="evenodd" clip-rule="evenodd" d="M129.573 54.5895C129.745 57.9138 132.696 58.46 131.821 62.8299C129.448 65.6547 127.043 66.7628 127.699 70.3212C128.168 72.8651 131.056 74.5662 131.072 77.0633C131.103 80.7621 127.496 83.5245 126.575 86.0528C126.918 87.1921 126.013 90.7661 128.074 92.795C128.745 93.7782 132.539 93.1227 131.072 95.0424C129.292 96.6186 126.731 92.7013 123.952 92.795C121.766 89.9701 117.987 86.9736 119.455 81.5581C119.892 79.9194 122.172 78.5616 122.078 76.6887C121.891 73.1304 116.629 71.8975 116.082 68.4484C115.489 64.7339 118.378 62.4553 118.706 59.8334C120.142 48.0191 101.327 55.8849 109.712 60.9571C110.68 60.4265 112.241 60.4889 111.96 58.7097C111.164 57.4456 111.289 61.3941 110.087 59.8334C108.275 55.6664 115.489 55.2138 113.834 60.5825C111.445 63.6883 106.355 62.2837 105.59 58.7097C107.682 49.5017 120.876 50.1104 120.204 59.4588C120.001 62.2212 117.144 63.938 117.581 67.6992C118.034 71.6321 123.093 72.3032 123.577 75.5651C124.092 79.0142 120.61 80.9338 120.954 84.9291C121.251 88.347 123.64 90.095 125.825 91.6713C121.906 85.6314 129.385 82.1043 129.198 76.6887C129.12 74.3477 126.075 72.5842 125.825 69.9466C125.451 65.8888 128.449 64.6559 130.322 61.3317C130.26 58.9906 127.293 57.7265 128.074 53.4658C133.117 50.8751 135.131 41.8231 128.823 38.8579C124.311 38.9671 120.673 42.6971 123.952 46.3491C124.889 46.037 125.966 45.8653 127.324 45.9746C127.543 44.5075 125.263 45.5376 125.825 43.7272C127.106 42.1821 129.214 43.9925 128.823 46.3491C126.075 49.6734 120.517 46.9578 120.579 42.9781C123.437 35.0186 134.803 37.0319 134.819 45.9746C134.835 50.0479 131.228 52.0144 129.573 54.5895Z" fill="white" fill-opacity="0.6"/>
<path fill-rule="evenodd" clip-rule="evenodd" d="M249.862 156.471C250.159 156.674 250.471 156.861 250.986 156.845C248.816 161.418 250.721 168.238 250.612 172.577C247.708 172.889 244.944 171.25 241.618 171.453C243.07 165.164 245.069 159.405 249.862 156.471ZM243.492 169.955C246.021 169.924 247.333 171.11 249.488 171.453C248.426 168.238 249.206 161.715 248.363 159.467C245.662 161.886 244.788 166.131 243.492 169.955Z" fill="white" fill-opacity="0.6"/>
<path fill-rule="evenodd" clip-rule="evenodd" d="M288.836 196.549C290.179 199.124 284.495 198.672 283.215 197.673C280.529 200.061 277.079 199.421 274.971 197.673C272.519 197.907 271.942 199.655 269.724 199.92C266.711 200.295 264.712 198 262.23 198.047C258.826 198.11 254.829 201.574 251.362 198.047C249.817 198.5 248.411 199.093 246.866 199.546C244.492 198.235 242.4 197.751 239.371 198.796C240.089 195.94 244.477 195.769 246.116 197.673C249.473 195.316 252.658 197.844 255.859 198.047C259.888 198.313 264.556 194.739 267.851 198.422C270.927 198.469 272.145 196.05 274.971 196.174C276.282 196.237 277.375 197.657 278.718 197.673C280.482 197.704 281.513 195.847 283.215 195.8C284.964 195.753 286.712 197.61 288.836 196.549Z" fill="white" fill-opacity="0.6"/>
<path fill-rule="evenodd" clip-rule="evenodd" d="M284.713 200.669C285.369 201.013 285.541 201.84 285.463 202.917C283.73 204.587 281.59 202.745 279.467 202.917C277.172 203.104 274.673 205.055 271.972 202.917C270.255 202.948 269.536 203.978 268.225 204.415C262.916 202.651 258.981 205.102 254.36 202.917C251.003 204.477 246.912 203.12 243.867 203.666C245.116 198.906 250.55 203.978 253.61 201.044C256.421 202.948 259.247 201.309 261.854 201.418C263.791 201.497 265.649 203.104 267.475 202.917C269.271 202.729 270.255 201.169 271.598 201.044C272.831 200.919 274.189 202.152 275.72 202.168C276.453 202.168 277.531 201.138 279.092 201.044C281.309 200.919 283.48 203.26 284.713 200.669Z" fill="white" fill-opacity="0.6"/>
<path fill-rule="evenodd" clip-rule="evenodd" d="M279.841 209.284C279.248 212.889 275.969 209.612 274.22 211.906C272.331 212.031 270.817 211.813 269.724 211.157C266.694 213.342 262.073 211.813 258.856 212.281C259.902 208.535 266.679 212.499 269.349 209.659C273.69 211.391 275.095 208.379 279.841 209.284Z" fill="white" fill-opacity="0.6"/>
<path fill-rule="evenodd" clip-rule="evenodd" d="M221.757 224.641C222.647 226.108 225.317 226.124 225.13 227.638C222.21 228.621 216.168 225.89 213.888 225.765C213.997 223.877 216.09 223.97 217.261 223.143C222.85 213.373 225.879 201.044 232.25 192.054C229.127 190.182 230.236 184.079 226.629 182.69C226.114 182.066 226.941 180.505 226.629 178.945C228.05 178.305 229.439 179.522 231.501 179.319C230.408 168.769 235.654 159.327 241.618 153.474C230.002 144.859 213.888 140.739 200.398 133.997C200.491 151.383 199.96 168.332 199.273 186.436C198.899 196.331 197.4 207.255 199.648 215.277C199.773 216.776 198.977 217.353 199.273 219.023C202.162 221.879 207.096 222.691 210.89 224.641C208.486 229.48 200.241 225.172 195.151 225.765C188.391 226.545 182.629 228.886 176.789 227.638C179.491 222.222 186.298 220.911 191.779 218.274C194.511 214.684 194.964 210.408 195.151 204.04C195.823 180.459 197.774 155.784 195.526 132.124C179.288 124.82 164.595 115.269 147.935 108.152C142.564 105.858 137.052 103.689 132.196 100.286C131.899 97.3679 132.54 95.3858 133.695 93.9188C135.459 94.2778 137.021 95.0581 138.566 95.7916C140.268 96.5876 141.283 96.6968 143.063 97.2899C147.279 98.6945 150.948 101.067 155.055 102.908C158.599 104.5 162.659 104.953 166.297 106.654C169.732 108.261 172.98 110.025 176.415 111.523C183.363 114.551 189.999 118.031 197.025 120.513C199.039 115.019 196.9 105.483 197.025 100.661C195.838 99.9899 195.901 103.767 193.652 103.283C193.043 102.768 192.466 102.222 191.779 101.785C191.872 100.13 193.309 99.8182 193.652 98.4136C192.778 94.0281 186.813 96.6968 183.535 97.2899C184.3 94.5431 181.973 93.2789 182.785 91.6714C185.814 92.3269 187.579 91.2032 191.029 92.046C192.341 89.7362 193.887 87.6605 196.276 86.4275C194.87 73.8485 195.136 61.9561 193.278 50.844C195.464 50.9065 196.557 52.0614 198.899 51.9677C197.493 58.3977 200.07 65.4988 200.398 71.0704C200.757 77.2351 197.603 82.916 201.522 86.8021C203.708 86.5212 203.395 82.4946 206.393 84.1802C207.486 86.2871 204.957 87.6293 204.145 89.0495C204.863 90.0795 205.581 91.1096 205.644 92.7951C206.768 92.7951 207.892 92.7951 209.016 92.7951C210.812 87.083 207.549 77.5473 209.766 70.3213C212.42 71.2265 217.417 70.9924 221.383 70.3213C220.649 78.7178 220.196 83.79 221.008 92.7951C223.381 92.7951 225.755 92.7951 228.128 92.7951C228.175 90.1264 227.613 85.179 228.503 81.5582C226.926 78.5149 226.91 73.2554 228.503 69.5722C230.86 72.0849 235.404 70.0716 238.995 69.5722C240.041 74.0357 238.995 86.3027 239.37 92.4206C244.382 92.2177 249.706 89.0339 249.862 95.7916C246.224 97.009 243.898 95.4327 239.745 96.1662C238.574 102.112 243.617 114.91 235.623 116.018C227.129 117.204 228.128 105.109 228.503 96.9153C226.613 95.9165 223.475 96.8841 221.383 96.9153C221.398 103.798 221.804 111.071 219.134 115.269C207.923 118.671 208.611 106.857 209.391 97.2899C205.238 95.6043 204.364 100.193 201.147 100.661C200.788 107.778 202.256 114.036 201.522 122.011C228.737 133.544 261.339 139.397 286.961 151.602C294.549 158.125 301.716 167.052 302.7 178.945C304.121 179.116 305.37 177.977 306.447 178.945C307.743 181.348 305.37 182.347 305.698 184.938C305.214 185.453 304.074 185.312 303.075 185.312C301.841 190.447 300.498 195.472 297.079 198.422C301.201 208.863 304.855 217.509 309.07 227.638C307.837 228.278 302.716 228.964 300.826 226.889C300.873 224.813 302.825 226.343 304.199 226.14C300.264 219.21 297.048 211.579 293.706 204.04C288.32 212.265 279.685 217.244 267.475 218.648C265.804 222.769 270.598 223.892 269.349 227.638C266.32 226.296 261.042 227.201 258.107 225.765C260.324 224.641 260.027 222.207 259.98 218.274C248.301 215.215 238.761 210.018 235.248 198.797C231.36 202.277 230.408 208.691 227.753 213.405C226.285 212.577 227.253 214.029 226.629 215.652C225.52 218.539 223.1 221.817 221.757 224.641ZM197.4 84.9293C200.226 75.7213 197.493 62.4867 196.276 53.466C196.026 53.466 195.776 53.466 195.526 53.466C196.354 64.3439 197.29 76.3143 197.4 84.9293ZM210.89 72.1941C210.078 79.2016 211.515 88.0194 211.265 92.7951C214.013 92.7951 216.761 92.7951 219.509 92.7951C218.9 85.538 219.056 79.4357 219.509 71.8196C216.355 72.1005 214.247 72.6155 210.89 72.1941ZM229.252 72.5687C229.408 80.1848 229.642 86.5524 230.002 92.7951C232.906 93.076 234.764 92.3113 237.496 92.4206C238.417 86.8177 237.309 77.6877 237.871 71.8196C234.202 71.1797 231.532 73.0057 229.252 72.5687ZM194.777 96.5408C197.603 94.3714 199.554 91.3281 201.147 87.9258C200.663 87.9102 200.632 87.442 200.023 87.5512C194.714 87.5824 191.701 91.8431 194.777 96.5408ZM198.149 98.4136C202.849 100.848 205.535 93.7627 202.646 90.9223C201.584 93.8564 199.008 95.2766 198.149 98.4136ZM185.033 94.6679C187.141 94.5275 188.953 94.0905 191.404 94.2934C190.327 92.9668 185.393 93.3414 185.033 93.5442C185.674 93.7003 184.955 94.0281 185.033 94.6679ZM239.37 94.6679C241.837 93.8252 246.537 95.1517 247.614 93.9188C246.334 92.8419 241.181 93.1541 239.37 94.6679ZM211.265 95.0425C213.06 95.4483 218.338 96.1194 219.509 94.6679C217.588 93.9812 213.435 93.5755 211.265 95.0425ZM230.002 95.0425C233.577 94.7928 236.107 95.6199 237.871 93.9188C234.373 94.1997 231.61 93.3726 230.002 95.0425ZM205.644 95.4171C207.096 95.3702 208.938 95.7136 209.391 94.6679C208.486 94.0437 205.862 94.1841 205.644 95.4171ZM221.008 95.0425C223.413 95.5731 226.535 95.6668 228.503 94.2934C225.567 94.6523 222.054 93.5911 221.008 95.0425ZM285.462 152.351C260.73 141.395 233.515 135.698 208.642 126.506C183.488 117.204 159.786 105.421 135.194 96.1662C134.819 96.1662 134.741 96.4627 134.444 96.5408C134.444 96.7905 134.444 97.0402 134.444 97.2899C134.148 97.3679 134.007 97.602 134.07 98.039C138.129 103.626 145.858 105.577 152.432 108.527C161.378 112.522 169.997 116.876 177.914 121.636C198.711 134.153 223.209 139.943 244.241 152.351C238.792 159.327 230.611 169.346 233.749 179.694C257.545 180.989 279.919 180.646 301.201 179.319C299.796 166.49 292.848 159.218 285.462 152.351ZM230.376 96.5408C230.329 100.302 227.925 116.471 235.997 114.145C241.244 112.647 237.075 102.003 237.871 96.1662C233.843 96.4471 233.234 96.1974 230.376 96.5408ZM211.265 96.9153C211.452 103.283 208.142 114.894 217.261 114.145C220.352 110.993 220.461 102.253 219.134 96.5408C217.729 97.3211 213.669 96.572 211.265 96.9153ZM199.648 116.393C199.617 117.922 198.555 121.012 199.273 121.636C201.662 114.629 198.664 107.013 199.648 101.036C199.164 101.02 199.133 100.552 198.524 100.661C198.54 105.593 199.773 111.508 199.648 116.393ZM198.149 176.697C198.399 163.806 200.413 145.952 197.4 132.873C198.352 150.431 197.743 164.415 198.149 176.697ZM197.025 191.68C197.4 194.567 197.478 189.745 197.4 188.683C198.055 185.468 198.258 182.503 197.4 179.694C197.634 184.032 196.744 187.279 197.025 191.68ZM228.503 181.192C228.487 181.707 228.674 182.019 228.877 182.316C245.007 183.689 262.931 183.393 277.967 183.814C282.324 183.939 287.633 184.001 292.582 184.189C296.611 184.345 303.324 185.624 304.948 180.817C282.371 182.347 254.234 182.831 228.503 181.192ZM232.625 190.556C233.078 188.012 234.842 186.779 235.623 184.563C234.108 184.797 231.641 184.079 230.751 184.938C231.188 185.812 231.313 189.401 232.625 190.556ZM237.496 184.938C229.408 196.705 225.801 212.952 217.635 224.641C218.525 224.641 218.744 225.281 219.884 225.016C227.066 210.595 233.031 194.942 244.241 184.563C241.212 184.672 240.697 185 237.496 184.938ZM280.216 185.312C275.703 184.189 269.161 185.063 263.728 184.938C257.841 184.797 252.064 185.172 246.49 184.938C244.085 187.794 236.481 193.849 236.372 197.673C236.294 200.092 239.073 204.571 240.494 206.288C245.491 212.343 256.202 216.854 265.976 217.15C275.625 217.447 283.229 211.485 289.584 207.411C289.99 204.946 291.598 203.681 292.582 201.793C289.194 195.519 287.57 187.123 280.216 185.312ZM304.948 223.518C304.948 223.721 305.245 223.939 305.323 223.518C300.748 210.486 294.549 199.077 290.334 185.687C288.179 185.718 286.009 185.765 284.338 185.312C293.987 195.285 297.235 211.641 304.948 223.518ZM295.955 196.549C299.39 194.739 299.968 190.072 301.201 186.061C297.251 185.89 297.438 185.812 292.957 185.687C292.192 189.791 294.987 193.006 295.955 196.549ZM192.153 219.772C188.203 222.41 183.706 222.394 180.162 226.14C188.422 225.312 196.744 224.251 205.644 224.267C200.304 222.176 197.368 221.77 197.025 215.277C196.744 209.768 197.837 202.495 196.65 196.175C195.479 205.305 198.836 215.324 192.153 219.772ZM261.479 224.641C262.963 224.688 265.617 225.422 267.1 225.016C265.789 223.58 264.961 221.661 265.227 218.648C263.728 218.914 263.087 218.289 261.854 218.274C261.932 221.302 261.51 222.347 261.479 224.641Z" fill="white" fill-opacity="0.6"/>
<path fill-rule="evenodd" clip-rule="evenodd" d="M43.9062 15.8406C54.6689 20.7237 64.2821 26.4264 75.6717 29.6528C78.5975 28.3797 80.966 26.8101 82.3592 25.0487C92.3033 25.0313 92.5297 40.413 84.449 42.2093C83.526 50.0746 85.6333 65.5784 84.449 74.8563C96.5004 77.8384 86.8523 98.5742 76.5076 89.5055C71.9623 92.2087 68.3921 95.8884 63.9686 98.7137C69.7853 111.584 47.1629 116.467 47.6679 102.481C37.5496 97.1092 26.5606 92.6447 16.3204 87.4128C11.3918 93.2376 0.611755 90.6043 0.0196349 82.8087C-0.241595 79.3557 2.16172 77.106 3.78134 74.4377C5.76668 74.0366 5.74927 74.1936 7.54305 73.6006C10.7475 61.0615 7.82169 54.3647 7.54305 40.5351C-5.29203 38.4249 4.77401 16.573 14.2305 26.3043C18.1315 23.3745 22.468 20.8806 25.9336 17.5148C22.5899 11.6725 26.8915 -1.02355 36.3828 1.19129C41.4332 2.37718 46.3618 8.67287 43.9062 15.8406ZM29.6953 4.95824C28.3892 7.43466 25.7943 10.3471 27.1875 14.1664C29.2251 14.5326 28.3195 11.9515 30.5313 12.4922C32.0116 14.4803 29.051 15.0383 29.2773 17.0962C31.0189 20.9853 38.9951 20.5667 40.5625 16.6777C39.5175 15.7708 37.4974 15.8406 37.6367 13.7478C39.9181 12.7014 39.6743 14.5152 41.8164 14.5849C44.7421 6.91148 36.226 1.03432 29.6953 4.95824ZM42.2343 17.9333C41.3287 20.5144 38.7861 21.4561 35.5469 21.7003C34.2059 30.1934 34.5194 35.1113 34.293 45.1391C38.4552 46.9703 42.513 48.9061 46.414 50.9988C47.6679 44.2672 59.6845 44.0404 62.2968 49.7432C66.6506 45.7321 71.5443 42.2616 76.0897 38.4423C76.0897 36.3496 76.0897 34.2568 76.0897 32.164C63.7074 28.5192 54.425 21.7875 42.2343 17.9333ZM26.7695 18.7704C23.687 22.2409 19.0197 24.1244 15.9024 27.56C17.5917 30.0539 18.6366 33.2453 17.1563 36.7681C22.6247 38.9655 27.4313 41.8256 32.6211 44.302C32.7082 37.6401 32.8649 29.7923 33.457 22.5374C31.106 21.4038 28.8071 20.2179 26.7695 18.7704ZM6.28915 26.3043C0.838158 31.1351 4.28639 40.2909 12.1407 38.8609C12.4193 37.8843 13.5339 37.7447 13.8126 36.7681C13.0637 35.7043 11.2525 35.7043 10.8868 34.2568C10.8694 33.5418 11.2003 33.1756 11.7227 33.0012C14.2131 32.4605 13.4294 35.1985 15.4844 35.0939C17.1737 28.9552 11.3396 24.5604 6.28915 26.3043ZM83.1951 27.9786C79.0503 27.8914 76.9256 33.2628 78.5975 36.3496C78.911 35.0939 82.3592 32.8093 82.7772 35.5125C82.0109 36.8379 80.0952 37.0123 79.8514 38.8609C81.3317 39.4713 82.9513 39.9421 85.285 39.698C90.318 36.7158 88.0366 26.1299 82.3592 27.1414C82.8294 27.2286 83.021 27.6123 83.1951 27.9786ZM15.9024 38.0238C14.5266 39.9944 12.071 40.8839 9.21492 41.3722C9.40649 51.9057 11.4267 65.8574 10.0509 73.6006C12.4193 73.3216 12.8721 74.9609 14.6485 75.2748C18.5844 71.9613 21.8584 67.985 25.5156 64.3925C23.5129 58.8816 25.8988 52.7951 31.7851 52.6731C32.0812 49.8827 32.1857 49.2723 32.2031 45.9762C26.7347 43.3777 21.3186 40.692 15.9024 38.0238ZM77.3436 39.698C72.7459 43.6044 67.8348 47.197 63.5507 51.4174C63.986 58.6897 60.8687 62.4044 56.0273 64.3925C56.0273 66.6248 56.0273 68.857 56.0273 71.0893C63.0282 73.2867 69.0539 76.7572 75.2538 78.6232C77.0475 76.234 79.3463 76.3909 82.3592 74.8563C83.4564 61.8812 82.1676 55.7076 82.3592 41.7907C80.5828 41.2152 78.9632 40.4479 77.3436 39.698ZM33.875 53.0916C39.1344 52.8126 40.8759 58.2363 38.8906 62.7183C43.7495 65.247 48.8521 67.5316 53.9374 69.8337C54.3728 68.1246 53.7284 66.8864 53.9374 64.3925C48.051 63.8344 45.2646 58.5153 45.5781 53.0916C41.9209 50.7547 38.1592 48.5224 33.875 46.8133C34.1885 49.2898 33.8053 50.1443 33.875 53.0916ZM55.1913 62.2997C57.9952 62.0207 61.8788 57.5038 61.4608 53.5102C61.0777 49.8478 56.4975 46.2204 52.6835 47.2319C45.5432 49.1502 46.8146 63.1194 55.1913 62.2997ZM27.6055 61.8812C27.4487 59.8407 29.852 60.8522 30.1133 61.8812C29.6431 63.5031 28.842 63.5379 28.8594 64.811C31.0015 65.6133 34.8154 65.4563 35.5469 63.5554C35.3379 62.6136 33.1784 61.4975 34.7109 60.207C36.0171 59.9977 36.348 60.7999 37.2187 61.0441C38.2114 58.3584 37.2536 54.8007 33.875 55.1844C33.9621 56.3877 33.9272 57.469 32.6211 57.2771C31.8896 56.8934 31.6981 55.9691 31.7851 54.7658C28.1453 54.4693 25.5679 59.2129 27.6055 61.8812ZM37.6367 64.811C34.9199 67.9327 30.2874 67.9327 26.3516 66.0667C23.0427 69.5895 19.6641 73.0425 16.3204 76.5305C17.8877 79.7219 18.0967 82.7564 16.7383 86.1571C27.8493 90.0985 36.9401 96.0628 48.0859 99.9693C48.8173 96.2372 51.7431 94.7026 55.6093 94.1096C54.9649 87.4651 55.2087 79.3906 54.3554 71.9264C48.7302 69.6244 44.0107 66.398 37.6367 64.811ZM57.6991 94.5282C59.8586 94.2143 60.8513 97.5452 62.7147 97.458C64.1776 97.3883 67.2079 93.7259 68.9842 92.4354C71.7359 90.4298 74.7313 89.1219 75.2538 86.9942C73.4077 85.32 73.9824 83.2447 73.9999 80.2974C67.7303 78.2047 62.5406 75.0307 56.4452 72.7635C56.9154 78.9546 56.8109 88.9649 57.6991 94.5282ZM2.52744 84.0644C4.32122 87.5698 9.80704 90.4473 13.8126 86.9942C13.2727 84.7445 9.66771 85.5642 9.63288 82.8087C9.71996 82.3379 10.1031 82.1635 10.4688 81.9716C12.6283 82.1809 12.9766 84.2039 15.0665 84.4829C19.5944 74.7342 -0.380913 70.2697 2.52744 84.0644ZM88.2107 80.2974C85.8597 74.1936 73.1117 76.5305 76.5076 85.32C78.3885 86.4885 80.3738 80.6113 82.3592 83.2273C82.0109 85.8083 78.7891 85.5119 78.1795 87.8313C82.7946 92.0517 89.482 87.1512 88.2107 80.2974ZM50.5937 98.7137C48.5038 102.76 51.3948 106.666 53.9374 109.177C54.8778 108.846 57.2115 109.3 58.953 108.759C69.4719 103.161 55.0868 90.0287 50.5937 98.7137Z" fill="white" fill-opacity="0.6"/>
</svg>