<svg width="106" height="53" viewBox="0 0 106 53" fill="none" xmlns="http://www.w3.org/2000/svg">
<path d="M52.6917 31.3809C64.2839 31.3809 73.7157 40.7428 73.7684 52.3014H105.383C105.225 23.3787 81.7249 0 52.6917 0C23.6586 0 0.158075 23.3787 0 52.3014H31.615C31.6677 40.7428 41.0996 31.3809 52.6917 31.3809Z" fill="#C7D1EA"/>
<path d="M52.6918 31.3808C64.284 31.3808 73.7158 40.7427 73.7685 52.3013H94.8452C94.7398 29.1841 75.9289 10.4602 52.6918 10.4602C29.4548 10.4602 10.6438 29.1841 10.5384 52.3013H31.6151C31.6678 40.7427 41.0996 31.3808 52.6918 31.3808Z" fill="#E1F4FE"/>
<path d="M52.6917 31.3807C64.2839 31.3807 73.7157 40.7426 73.7684 52.3013H84.3068C84.2014 34.9372 70.08 20.9204 52.6917 20.9204C35.3035 20.9204 21.1821 34.9372 21.0767 52.3013H31.615C31.6677 40.7426 41.0996 31.3807 52.6917 31.3807Z" fill="#FFF1E9"/>
</svg>
