<svg width="60" height="61" viewBox="0 0 60 61" fill="none" xmlns="http://www.w3.org/2000/svg">
<path d="M58.4775 29.4838L50.8715 24.1826C49.9549 23.542 48.9095 23.1093 47.8083 22.9149C48.4484 21.9989 48.881 20.9544 49.076 19.8541L50.7124 10.7384C50.7474 10.5415 50.7344 10.339 50.6744 10.1482C50.6143 9.95743 50.5092 9.78395 50.3677 9.64253C50.2263 9.50111 50.0528 9.39592 49.8621 9.33591C49.6713 9.2759 49.4688 9.26283 49.2719 9.29783L40.1504 10.9274C39.05 11.1218 38.0053 11.5545 37.0896 12.195C36.8957 11.0937 36.463 10.0481 35.8219 9.13188L30.5207 1.52584C30.4064 1.36157 30.254 1.22738 30.0767 1.13472C29.8993 1.04205 29.7021 0.993652 29.502 0.993652C29.3018 0.993652 29.1047 1.04205 28.9273 1.13472C28.7499 1.22738 28.5975 1.36157 28.4832 1.52584L23.182 9.13188C22.5414 10.0484 22.1088 11.0938 21.9144 12.195C20.9986 11.5545 19.954 11.1218 18.8535 10.9274L9.74356 9.29783C9.54665 9.26283 9.34419 9.2759 9.15341 9.33591C8.96262 9.39592 8.78915 9.50111 8.64772 9.64253C8.5063 9.78395 8.40111 9.95743 8.3411 10.1482C8.28109 10.339 8.26803 10.5415 8.30302 10.7384L9.93371 19.8598C10.1282 20.9603 10.5608 22.005 11.2014 22.9207C10.1002 23.1151 9.05476 23.5478 8.13823 24.1884L0.53219 29.4896C0.36792 29.6039 0.233731 29.7562 0.141064 29.9336C0.0483967 30.111 0 30.3082 0 30.5083C0 30.7084 0.0483967 30.9056 0.141064 31.083C0.233731 31.2604 0.36792 31.4127 0.53219 31.5271L8.13823 36.8282C9.05449 37.4693 10.1 37.902 11.2014 38.0959C10.5613 39.0119 10.1287 40.0564 9.93371 41.1568L8.30302 50.2667C8.26803 50.4636 8.28109 50.6661 8.3411 50.8569C8.40111 51.0477 8.5063 51.2211 8.64772 51.3625C8.78915 51.504 8.96262 51.6092 9.15341 51.6692C9.34419 51.7292 9.54665 51.7422 9.74356 51.7072L18.865 50.0777C19.9654 49.8827 21.0099 49.4501 21.9259 48.81C22.1203 49.9112 22.5529 50.9567 23.1936 51.8732L28.4947 59.4792C28.6091 59.6435 28.7614 59.7777 28.9388 59.8704C29.1162 59.963 29.3134 60.0114 29.5135 60.0114C29.7136 60.0114 29.9108 59.963 30.0882 59.8704C30.2656 59.7777 30.4179 59.6435 30.5322 59.4792L35.8334 51.8732C36.4745 50.9569 36.9072 49.9114 37.1011 48.81C38.0171 49.4501 39.0616 49.8827 40.1619 50.0777L49.2719 51.7072C49.4688 51.7422 49.6713 51.7292 49.8621 51.6692C50.0528 51.6092 50.2263 51.504 50.3677 51.3625C50.5092 51.2211 50.6143 51.0477 50.6744 50.8569C50.7344 50.6661 50.7474 50.4636 50.7124 50.2667L49.0817 41.1452C48.8873 40.0448 48.4546 39.0001 47.8141 38.0844C48.9153 37.89 49.9607 37.4573 50.8772 36.8167L58.4833 31.5155C58.6461 31.4006 58.7788 31.2481 58.8702 31.071C58.9616 30.8939 59.009 30.6974 59.0085 30.4982C59.0079 30.2989 58.9594 30.1027 58.8669 29.9261C58.7745 29.7495 58.6409 29.5978 58.4775 29.4838Z" fill="#AEDADA"/>
<path d="M29.5075 48.0386C39.1926 48.0386 47.044 40.1873 47.044 30.5021C47.044 20.8169 39.1926 12.9656 29.5075 12.9656C19.8223 12.9656 11.971 20.8169 11.971 30.5021C11.971 40.1873 19.8223 48.0386 29.5075 48.0386Z" fill="white"/>
<path d="M20.7941 31.5003C22.5698 31.5003 24.0094 30.3538 24.0094 28.9396C24.0094 27.5254 22.5698 26.3789 20.7941 26.3789C19.0183 26.3789 17.5788 27.5254 17.5788 28.9396C17.5788 30.3538 19.0183 31.5003 20.7941 31.5003Z" fill="#DDCADE"/>
<path d="M38.221 31.5003C39.9968 31.5003 41.4363 30.3538 41.4363 28.9396C41.4363 27.5254 39.9968 26.3789 38.221 26.3789C36.4453 26.3789 35.0057 27.5254 35.0057 28.9396C35.0057 30.3538 36.4453 31.5003 38.221 31.5003Z" fill="#DDCADE"/>
<path d="M21.3312 26.78C21.102 26.78 20.8821 26.689 20.7201 26.5269C20.558 26.3648 20.4669 26.1449 20.4669 25.9157V24.5328C20.4669 24.3035 20.558 24.0837 20.7201 23.9216C20.8821 23.7595 21.102 23.6685 21.3312 23.6685C21.5605 23.6685 21.7803 23.7595 21.9424 23.9216C22.1045 24.0837 22.1955 24.3035 22.1955 24.5328V25.9157C22.1957 26.0292 22.1734 26.1417 22.1301 26.2466C22.0867 26.3516 22.023 26.4469 21.9427 26.5272C21.8624 26.6075 21.7671 26.6712 21.6622 26.7145C21.5572 26.7579 21.4448 26.7802 21.3312 26.78Z" fill="#063854"/>
<path d="M29.5077 29.3016C28.89 29.3016 28.2975 29.0562 27.8608 28.6194C27.424 28.1827 27.1786 27.5903 27.1786 26.9725V25.2785C27.1786 25.1098 27.2456 24.948 27.3649 24.8287C27.4842 24.7094 27.646 24.6423 27.8147 24.6423H31.2017C31.3703 24.6426 31.5318 24.7098 31.6508 24.8291C31.7699 24.9483 31.8367 25.11 31.8367 25.2785V26.9725C31.8367 27.5903 31.5913 28.1827 31.1546 28.6194C30.7178 29.0562 30.1254 29.3016 29.5077 29.3016Z" fill="#063854"/>
<path d="M37.6898 26.78C37.5763 26.7802 37.4638 26.7579 37.3589 26.7145C37.254 26.6712 37.1586 26.6075 37.0783 26.5272C36.998 26.4469 36.9344 26.3516 36.891 26.2466C36.8476 26.1417 36.8254 26.0292 36.8255 25.9157V24.5328C36.8255 24.3035 36.9166 24.0837 37.0787 23.9216C37.2408 23.7595 37.4606 23.6685 37.6898 23.6685C37.9191 23.6685 38.1389 23.7595 38.301 23.9216C38.4631 24.0837 38.5542 24.3035 38.5542 24.5328V25.9157C38.5542 26.1449 38.4631 26.3648 38.301 26.5269C38.1389 26.689 37.9191 26.78 37.6898 26.78Z" fill="#063854"/>
</svg>
