<svg width="482" height="456" viewBox="0 0 482 456" fill="none" xmlns="http://www.w3.org/2000/svg">
<path d="M57.4433 0C60.3932 0.328287 63.394 0.161831 66.307 0.8369C78.7912 3.35223 90.7528 9.92722 98.5901 20.1226C104.476 27.7287 107.593 37.2814 107.925 46.8526C108.388 56.2666 106.756 66.1244 101.503 74.1328C96.6713 81.6325 89.0189 86.9499 80.784 90.0986C72.9505 93.008 64.6953 94.6213 56.3428 94.875C56.6294 98.7275 57.3237 102.539 58.4143 106.245C62.5017 105.676 66.6723 104.959 70.3204 102.916C78.2271 98.4445 87.5393 98.0885 96.38 97.4042C99.538 97.0898 102.756 96.9418 105.803 95.957C108.147 95.1848 110.002 93.4324 111.5 91.5274C115.661 86.3025 118.13 80.0281 121.561 74.3455C123.267 71.8625 125.149 69.1068 128.131 68.0803C131.303 67.322 134.605 67.9878 137.675 68.9357C139.099 69.3703 140.81 69.8096 141.485 71.303C141.859 72.6254 140.509 73.4115 139.423 73.6473C136.047 74.4657 132.538 74.5166 129.084 74.438C126.518 76.7961 124.89 79.9264 123.128 82.881C120.22 88.0411 117.58 93.3399 114.972 98.6618C112.411 104.076 107.815 108.302 105.725 113.98C104.476 117.078 104.24 120.454 104.472 123.764C106.104 123.806 107.773 123.589 109.382 123.931C110.371 124.347 110.066 125.503 110.08 126.354C109.539 131.782 108.98 137.21 108.453 142.638C108.046 145.935 107.953 149.274 107.264 152.529C104.855 153.125 102.358 152.862 99.9033 152.899C97.3001 162.146 95.5986 171.694 92.0984 180.678C91.2661 182.528 90.0778 185.357 87.5671 184.84C85.5881 183.734 84.9731 181.344 84.164 179.388C81.2371 170.756 79.3044 161.813 77.5104 152.903C61.2748 152.869 45.0439 152.869 28.8175 152.903C27.7818 157.767 26.931 162.682 25.5069 167.454C24.1799 172.032 23.5418 176.78 22.2425 181.362C21.9004 182.851 20.7999 184.294 19.2186 184.534C17.7205 184.65 16.731 183.272 16.2363 182.038C14.7289 178.339 13.9845 174.394 12.9996 170.543C11.3411 164.749 10.0683 158.852 9.18967 152.889C7.76555 152.889 6.34143 152.889 4.91731 152.917C2.82275 148.039 2.54532 142.643 1.85638 137.441C1.24604 133.28 1.18593 129.035 0.066982 124.957C-0.302919 124.065 0.950121 123.792 1.60207 123.811C9.8 123.593 17.9979 123.746 26.2005 123.695C27.2316 120.038 30.9214 118.308 34.2551 117.272C37.8709 115.941 41.912 115.636 45.1487 113.402C41.2878 112.838 36.9045 112.015 34.3846 108.742C33.6263 107.914 33.6586 106.753 33.5846 105.713C38.2084 106.004 42.8322 106.61 47.4559 106.638C48.3019 102.778 48.8828 98.8649 49.1945 94.9258C48.2697 94.8426 47.3172 94.764 46.3832 94.6669C45.1533 92.5169 44.7695 89.6039 46.5682 87.6388C47.7426 85.7662 50.0822 86.8851 51.8161 86.9776V84.6981C43.7987 84.0679 36.1769 80.9552 30.0105 75.7927C24.3003 71.0332 20.1828 64.6407 18.2106 57.4734C15.8901 49.0099 16.7674 39.9883 20.6751 32.1305C23.9759 25.5565 29.1397 20.1 35.522 16.4421C43.0747 12.1377 51.8351 10.4412 60.4487 11.6149C60.4487 10.6901 60.4487 9.76539 60.4256 8.84064C58.9212 8.53543 57.4371 8.13702 55.9821 7.64771C55.9729 5.27586 56.1398 2.9066 56.4815 0.559478L57.4433 0ZM58.6824 2.58006C58.6177 3.68976 58.5622 4.79947 58.5067 5.90917C63.5777 6.93117 68.5432 8.42021 73.3398 10.3572C81.8336 13.8158 90.1333 19.0083 94.9697 27.0305C97.4018 30.9191 98.285 35.4874 98.9739 39.9771C100.772 39.2079 102.504 38.2924 104.153 37.2398C103.012 32.6754 101.138 28.3264 98.604 24.3626C93.1803 15.9705 84.7928 9.77463 75.5684 6.11724C70.2095 3.99031 64.4714 2.52458 58.6871 2.60318L58.6824 2.58006ZM61.6648 9.12731L61.637 11.9016C67.2546 12.9104 72.5856 15.1286 77.2607 18.4026C84.3375 23.3514 89.4424 30.6372 91.6776 38.9783C93.4201 45.4989 93.2597 52.382 91.2152 58.8143C88.4164 67.5429 82.4763 74.9214 74.5466 79.5195C68.0741 83.2675 60.6726 85.1062 53.1986 84.8229C53.1986 85.5581 53.1986 86.2979 53.1986 87.0331C63.3709 87.8099 73.9039 85.313 82.3838 79.5426C88.3254 75.4737 93.749 69.9622 95.7927 62.897C98.3035 54.2275 97.4527 45.017 95.8898 36.2595C94.6969 29.3516 90.1841 23.4471 84.631 19.3643C77.8525 14.3105 69.8349 11.2311 61.6879 9.1458L61.6648 9.12731ZM47.8628 14.4724C40.4529 15.9108 33.6841 19.6462 28.517 25.1486C23.6621 30.3487 20.5548 36.9367 19.6301 43.9905C21.5675 42.8577 23.7915 41.2578 26.1358 42.1872C27.6154 43.8703 26.0017 45.8122 25.3312 47.4537L27.2824 47.6617C27.9252 49.7378 26.9495 51.8231 27.3102 53.9362C27.4119 56.863 29.0534 59.3737 29.8255 62.1295C30.4127 64.2518 31.7952 65.9996 33.1731 67.678C34.0008 68.6675 35.9844 68.8525 36.5207 67.4607C37.0756 65.6898 36.137 63.9189 36.1508 62.1434C36.8675 61.3481 38.0003 61.4868 38.9251 61.3388C39.3042 60.5713 39.7944 59.813 39.8175 58.9299C39.9747 56.1556 40.0071 53.2796 40.9595 50.6071C41.3849 49.3957 42.5594 48.6975 43.7338 48.3368C45.7683 47.6664 47.8952 46.9867 49.5228 45.5626C49.7632 43.2507 46.5173 44.1015 45.4862 42.7374C45.0516 41.1792 44.9314 39.4176 43.5257 38.3634C43.5766 36.6803 43.7893 35.0111 43.8217 33.3327C43.31 33.7581 42.8013 34.1866 42.2958 34.6181L40.8023 34.558C40.3816 33.0183 40.3076 31.4092 39.8776 29.8788C38.8372 28.9263 37.3068 28.8338 36.0861 28.1818C34.5371 27.4929 33.0437 25.9578 33.2841 24.1407C33.9472 22.9073 34.9942 21.9236 36.2664 21.3387C37.1912 21.1352 38.0836 21.5421 38.9852 21.6762C40.266 19.9562 42.4576 18.1529 44.6909 19.3412C45.685 18.7309 46.8595 17.8339 48.0709 18.4581C48.6011 18.8575 49.0083 19.3978 49.2462 20.0175C49.4841 20.6372 49.5431 21.3113 49.4164 21.9629C48.7506 23.0495 47.4421 23.4563 46.5173 24.2748C46.7023 25.0377 47.049 25.7544 47.234 26.5219C47.0259 27.3403 46.5774 28.0755 46.3092 28.88C47.3311 30.8821 48.917 32.6299 49.3979 34.8909C49.6892 36.0977 49.2869 37.3045 49.0049 38.4697C50.3352 38.7067 51.7031 38.6162 52.9906 38.2062C54.8632 37.6282 57.0549 36.9439 57.827 34.9325L57.1936 33.8228C55.5799 33.0692 52.8102 32.4634 53.1709 30.1238C54.0032 28.4963 55.7047 27.3496 57.5773 27.6547C57.8686 28.4593 58.1599 29.2638 58.442 30.073C59.917 30.0175 61.2902 29.3748 62.7698 29.3609C62.8346 29.6938 62.9687 30.3596 63.0334 30.6925C64.6739 31.1995 66.1469 32.1405 67.2965 33.4159C69.7517 35.7278 68.9194 39.4592 69.8766 42.423C70.7736 42.4785 71.6721 42.5263 72.5722 42.5664C72.9097 41.3688 72.9745 40.0464 73.6865 38.9876C74.639 37.5496 76.5579 38.4235 77.9496 38.4697C78.2827 37.7907 78.6676 37.1383 79.101 36.5185C79.6743 35.6168 80.9505 35.7463 81.8429 36.0006C83.2022 36.9762 83.0682 38.8858 83.23 40.3701C83.23 42.0947 83.9097 43.8194 83.5536 45.5302C82.9479 46.3902 81.8752 46.7093 81.0846 47.352C80.7701 48.3923 80.8534 49.4974 80.8118 50.5886C81.6292 51.0543 82.403 51.5928 83.1236 52.1977C83.4875 52.99 83.8071 53.8019 84.0808 54.6298C84.876 55.6424 86.1106 56.2851 86.6793 57.4872C87.4006 58.9761 87.1833 60.6869 87.2573 62.2867C87.9925 60.2707 88.9634 58.301 89.2963 56.1649C89.2963 54.75 87.4237 54.2876 87.248 52.9282C86.9706 51.1434 86.5175 49.3078 86.8411 47.4999C87.3266 45.9694 89.0467 45.4793 90.3968 44.9753C89.4119 44.6332 88.3439 44.3789 87.5486 43.6714C86.7533 42.964 86.9799 41.7618 86.7718 40.8047C86.2169 39.9678 85.2644 39.1263 85.6759 38.0304C86.0412 36.6433 86.7487 35.3857 87.2943 34.0633C84.3698 27.9684 79.766 22.8352 74.0241 19.2672C66.2202 14.4273 56.8759 12.7147 47.8628 14.4724ZM45.0886 20.7052C43.9742 20.7052 42.6842 19.9284 41.7456 20.8624C40.6035 21.5652 39.8961 23.4656 38.3148 22.9801C37.5518 22.9339 36.6964 22.416 36.0445 23.0356C35.2677 23.5719 34.0933 24.5707 34.9764 25.5602C36.4468 27.4374 39.073 27.6039 41.0428 28.7598C41.4774 30.2209 41.8612 31.7005 42.208 33.1847L42.7628 31.7976C43.4379 31.9548 44.3488 31.8254 44.7002 32.5929C45.5047 34.1604 45.01 35.9451 44.9036 37.6097C45.9117 38.8646 46.5319 40.3863 46.6884 41.9884C47.738 42.3074 48.8523 42.4924 49.8094 43.0657C51.0255 43.861 51.3769 45.8724 50.184 46.8387C48.3344 48.3414 45.9902 48.9795 43.7893 49.7702C43.403 49.8812 43.0505 50.0869 42.7638 50.3688C42.4772 50.6506 42.2654 50.9995 42.1479 51.3839C41.4034 53.816 41.3063 56.3868 41.2231 58.916C41.1962 60.1983 40.6723 61.4201 39.762 62.3237C39.054 62.619 38.3137 62.8301 37.5565 62.9525C38.0558 64.9546 38.7355 67.641 36.886 69.1576C35.7994 70.3274 33.9037 69.7957 32.6876 69.1114C30.8381 67.1324 29.1689 64.8437 28.4245 62.1757C27.7818 60.0118 26.7045 58.0144 26.0618 55.8458C25.6896 53.6207 25.7825 51.3426 26.3346 49.1552C25.7434 48.9443 25.1645 48.7004 24.6007 48.4247C23.4447 46.7139 25.1555 44.9337 25.6364 43.3015C23.2459 43.0334 21.2577 44.5176 19.4544 45.8677C19.1869 50.3228 19.8056 54.7866 21.2747 59.001C22.7438 63.2154 25.0341 67.0965 28.013 70.4199C33.9766 77.0514 42.1946 81.2264 51.0671 82.1319C58.9209 82.9672 66.8334 81.2277 73.6126 77.1752C77.8063 74.609 81.7088 71.3169 84.0854 66.9428C85.7638 64.631 86.2308 61.6717 85.8008 58.8882C85.5234 57.3393 84.0022 56.6087 83.0265 55.5453C82.5642 54.8147 82.4671 53.8992 82.0602 53.1363C81.2741 52.4011 80.3263 51.8509 79.6049 51.0463C79.3448 49.6592 79.4337 48.2291 79.8639 46.885C80.2153 45.7799 81.4961 45.4978 82.3838 44.98C81.9215 42.3629 82.0463 39.6673 81.3342 37.1196L80.0997 37.2953C79.7113 38.1368 79.309 38.9691 78.9114 39.806C77.5612 39.7829 76.225 39.5609 74.8748 39.6118C74.1304 40.948 74.5281 42.9871 72.9791 43.7732C71.5457 44.0043 69.4188 44.2355 68.6513 42.6681C67.7265 40.4394 68.1334 37.9287 67.3242 35.6723C66.27 33.6009 64.0876 32.579 62.0115 31.7791C61.8913 31.5109 61.6555 30.97 61.5492 30.6972C60.8279 31.0886 60.105 31.474 59.3806 31.8531C58.7028 31.5818 58.0888 31.1725 57.5778 30.6511C57.0667 30.1297 56.6698 29.5077 56.4122 28.8245C55.6539 29.4164 54.9372 30.0498 54.239 30.711C55.7602 32.0982 59.0847 32.186 58.8997 34.8123C58.962 35.4123 58.8423 36.0172 58.5562 36.5483C58.27 37.0794 57.8307 37.512 57.2953 37.79C54.5765 39.4407 51.2844 40.4302 48.0986 39.6395C47.6363 38.3495 47.983 37.0363 48.1264 35.7278C48.1264 33.2772 45.9625 31.7144 45.1256 29.5921C44.6031 28.4546 45.3614 27.3634 45.8561 26.3786C45.4985 25.7806 45.1456 25.181 44.7973 24.5799C45.4862 23.0818 46.8733 22.2079 48.2512 21.4311C47.9784 20.733 47.701 20.044 47.4097 19.3643C46.6656 19.8471 45.8936 20.2856 45.0978 20.6775L45.0886 20.7052ZM87.2388 38.7101C87.9628 39.9088 88.3923 41.262 88.4918 42.6588L90.1517 43.4911C89.7678 40.9739 89.1121 38.5058 88.1959 36.1301C87.8491 36.9346 86.6793 37.7438 87.2388 38.7101ZM99.2606 41.2671C99.3345 42.6542 99.4455 44.0413 99.5657 45.4285C101.494 44.8375 103.337 43.9949 105.045 42.9224C105.147 41.4613 104.749 40.0233 104.481 38.5992C102.817 39.6486 101.064 40.5491 99.2421 41.2902L99.2606 41.2671ZM99.7784 46.8387C99.9356 53.3675 99.6813 60.0951 97.1383 66.2077C95.2888 70.9701 91.8348 74.905 88.0433 78.2294C83.6594 82.0177 78.5961 84.9392 73.1224 86.8389C64.9939 89.7611 56.1763 90.0755 47.6917 88.9889C47.4255 90.0958 47.2554 91.2235 47.1831 92.3597C57.8178 93.0301 68.6929 91.8326 78.7773 88.263C87.7844 85.0634 96.2135 79.1866 100.796 70.6095C105.216 62.6797 106.016 53.312 105.378 44.4066C103.587 45.3812 101.713 46.1951 99.7784 46.8387ZM88.3439 47.3011C88.0248 49.5159 87.8399 52.5352 89.8836 53.987C90.3155 51.5042 90.4783 48.982 90.3691 46.4642L88.3439 47.3011ZM124.076 73.1572C122.019 75.728 120.692 78.7612 119.124 81.6325C116.988 85.6876 114.815 89.775 111.823 93.2844C110.122 95.231 107.962 96.8909 105.41 97.5105C100.662 98.7035 95.728 98.6803 90.8823 99.1843C84.1594 99.7623 77.2098 100.641 71.2267 103.984C67.463 106.092 63.1675 107.077 58.8997 107.433C59.3768 108.955 59.9961 110.429 60.7492 111.835C64.2032 110.827 67.7357 109.555 71.3839 109.925C72.8496 110.087 73.8484 111.46 74.2506 112.783C74.9026 115.155 74.8055 117.638 74.861 120.079C76.1917 121.209 77.2693 122.606 78.0236 124.18C79.2998 120.842 78.9484 117.129 80.1321 113.735C83.4149 113.273 86.7302 113.333 90.0223 113.056C92.2602 112.908 94.2577 111.849 96.3753 111.252C97.6792 110.859 98.1786 112.265 98.4653 113.245C99.39 116.676 99.5981 120.25 99.8987 123.778H103.103C102.778 120.064 103.338 116.327 104.735 112.871C106.927 107.294 111.463 103.101 113.955 97.6955C117.09 91.3563 120.188 84.9848 123.891 78.9554C125.043 77.1937 126.111 75.3303 127.674 73.8924C128.598 73.0138 129.948 73.0924 131.128 73.0786C134.272 73.0786 137.504 72.9953 140.472 71.8209C139.846 71.3176 139.158 70.8979 138.424 70.5725C135.358 69.5136 132.066 68.723 128.82 69.2963C126.767 69.8142 125.339 71.5296 124.09 73.1294L124.076 73.1572ZM51.5156 96.1003C51.0209 100.867 50.4521 105.69 48.9818 110.272C48.1819 112.584 47.2895 115.321 44.8666 116.431C40.4741 118.516 35.411 118.789 31.1525 121.203C30.1122 121.767 29.3816 122.724 28.6927 123.658C44.2147 123.69 59.7413 123.806 75.2679 123.709C74.0637 122.481 72.6556 121.472 71.1065 120.726C67.6895 118.993 63.357 118.877 60.7677 115.747C56.0469 110.346 54.8216 102.934 54.0032 96.0402C53.1709 96.0402 52.3432 96.0725 51.511 96.1003H51.5156ZM34.8146 107.165C37.2235 110.744 41.7502 111.701 45.7636 112.025C46.2676 110.711 46.7208 109.384 47.1508 108.057C43.0356 107.701 38.9112 107.595 34.8053 107.165H34.8146ZM61.5861 112.959C62.7005 114.369 64.0229 115.733 65.7938 116.26C68.4247 117.083 71.0787 117.901 73.5155 119.233C73.5155 116.542 73.5617 113.684 72.0497 111.317C68.4663 110.822 64.9661 111.914 61.5861 112.959ZM91.3169 114.193C87.937 114.799 84.4784 114.429 81.0938 114.965C80.6314 117.883 80.1228 120.796 79.8778 123.75H98.5393C98.3219 119.959 97.9335 116.149 96.8886 112.482C95.0391 113.106 93.2497 113.902 91.3401 114.198L91.3169 114.193ZM2.78113 126.081C4.02955 134.214 4.16826 142.551 6.39691 150.508C10.2115 150.443 14.0307 150.559 17.8454 150.466C18.7424 150.564 19.3203 149.838 19.8613 149.255C26.4132 141.547 33.0714 133.932 39.6325 126.229C27.3518 126.132 15.0618 126.409 2.78113 126.081ZM41.4358 126.247C34.5001 134.325 27.4951 142.366 20.6011 150.49C33.8713 150.49 47.1415 150.517 60.4071 150.49C61.7434 150.619 62.2566 149.186 62.9964 148.377C68.8131 140.96 74.6591 133.562 80.5343 126.182C67.5015 126.182 54.4686 126.204 41.4358 126.247ZM81.2556 127.366C75.2447 135.116 69.0489 142.699 63.0981 150.485C76.6735 150.517 90.2442 150.485 103.82 150.485C104.31 150.448 105.207 150.582 105.276 149.875C106.122 141.977 106.862 134.066 107.722 126.169C99.4548 126.169 91.1829 126.132 82.9156 126.169C82.1388 126.076 81.718 126.858 81.2556 127.334V127.366ZM11.4969 152.912C12.3886 158.795 13.6582 164.615 15.2977 170.335C16.4212 174.436 16.9715 178.815 19.1539 182.537C21.2993 178.376 21.401 173.525 22.7234 169.077C24.277 163.751 25.396 158.322 26.4918 152.894C21.4935 152.894 16.4952 152.862 11.4969 152.917V152.912ZM79.9286 152.917C81.4221 160.065 83.0219 167.2 85.0471 174.219C85.9395 177.058 86.7163 180.008 88.4086 182.505C90.4061 179.268 91.4325 175.597 92.4683 171.981C94.216 165.66 95.7696 159.284 97.3648 152.922C91.5528 152.875 85.7407 152.889 79.9286 152.894V152.917Z" fill="black"/>
<path d="M55.8776 18.31C56.4683 18.2061 57.0768 18.3101 57.5995 18.6043C58.1221 18.8985 58.5267 19.3647 58.7443 19.9237C59.2052 21.2468 59.1806 22.6906 58.6749 23.9972C58.2126 25.4491 56.3631 25.0283 55.221 24.7833C54.5102 23.7268 53.9717 22.564 53.6258 21.3386C53.242 19.8636 54.7355 18.8464 55.8776 18.31ZM54.8002 20.4046C55.1794 21.4865 55.614 22.55 56.0394 23.6135H57.5005C57.6762 22.3327 57.9629 20.927 57.2 19.7665C56.3122 19.6278 55.5493 20.104 54.8002 20.4046Z" fill="black"/>
<path d="M37.0908 47.1484C37.8583 46.1913 39.1622 46.575 40.2164 46.5473C41.1412 48.2257 40.2442 50.1677 39.1299 51.5132C38.9391 51.7442 38.6937 51.9239 38.4158 52.036C38.138 52.148 37.8366 52.1889 37.5389 52.1549C37.2413 52.1209 36.9569 52.0131 36.7114 51.8413C36.466 51.6695 36.2674 51.4391 36.1337 51.1711C35.8971 50.4786 35.8614 49.7333 36.0308 49.0214C36.2001 48.3095 36.5677 47.6601 37.0908 47.1484ZM37.5809 48.6234C37.2711 49.3632 37.4329 50.1908 37.4052 50.9722L38.686 50.1215C38.8987 49.2568 39.1114 48.3922 39.3102 47.5275C38.7084 47.8511 38.1305 48.2173 37.5809 48.6234Z" fill="black"/>
<path d="M45.3602 58.352C46.3728 56.9648 48.1344 56.5672 49.7111 56.2065C50.7561 58.1254 53.0495 59.6975 52.6148 62.1342C52.2866 63.9328 51.2277 65.9396 49.3089 66.4019C47.5796 66.8227 45.6653 65.3338 45.8873 63.5121C46.1092 61.6903 45.1798 60.0905 45.3602 58.352ZM46.5577 58.8143C47.1454 60.6331 47.3655 62.5507 47.205 64.4553C47.9217 64.7513 48.6569 65.0056 49.4013 65.2368C50.4602 63.9791 51.7132 62.4625 51.1815 60.6823C50.5665 59.5588 49.6233 58.6664 48.8141 57.6861L46.5577 58.8143Z" fill="black"/>
<path d="M415.18 65.9441C416.65 67.6503 418.111 69.3703 419.577 71.0857C422.217 70.4384 424.765 69.398 427.474 69.0235C426.087 71.2152 424.464 73.2219 423.017 75.3627C424.672 77.8965 426.295 80.4488 427.927 83.0011C425.246 81.8606 422.567 80.7185 419.891 79.5749C418.296 81.688 416.756 83.8427 415.194 85.9742C415.194 83.1753 415.194 80.3795 415.194 77.5867C412.882 76.5695 410.57 75.6124 408.258 74.6044C410.57 73.8738 412.882 73.1941 415.194 72.4821C415.166 70.3043 415.166 68.108 415.18 65.9441Z" fill="black"/>
<path d="M131.801 70.3274L133.267 70.1794C133.267 70.7713 133.267 71.3724 133.239 71.9688L131.778 71.9272C131.782 71.3909 131.792 70.8822 131.801 70.3274Z" fill="black"/>
<path d="M67.3396 74.1605C67.9748 73.9372 68.6456 73.8322 69.3186 73.8507C68.0424 75.3211 66.1143 75.8482 64.4868 76.8099C62.6373 77.8873 60.7878 79.1218 58.7117 79.7136C58.7117 79.4593 58.6608 78.9553 58.6423 78.701C61.7033 77.5035 64.2972 75.395 67.3396 74.1605Z" fill="black"/>
<path d="M63.8528 78.6642C64.9486 78.0816 66.0537 77.499 67.1819 76.9719C67.3853 78.8445 65.1289 79.0249 63.8667 79.6306C63.862 79.3902 63.8574 78.9046 63.8528 78.6642Z" fill="black"/>
<path d="M365.075 121.716C362.847 119.7 364.243 115.747 366.957 114.984C368.386 114.688 370.194 114.803 371.003 116.246C372.21 117.698 371.928 119.649 371.632 121.369C374.471 124.929 377.569 128.272 380.366 131.865C383.362 129.239 387.635 129.447 391.204 130.612C394.279 131.185 396.868 132.998 399.587 134.422C410.624 140.632 421.402 147.415 431.2 155.469C433.872 157.555 436.203 160.042 438.783 162.234C442.842 162.234 447.106 161.208 451.017 162.867C453.371 164.139 455.28 166.067 457.301 167.792C460.612 170.927 464.038 174.02 466.678 177.765C467.677 179.064 468.162 181.145 466.909 182.444C465.138 184.41 462.401 185.131 459.844 185.302C455.22 185.598 450.596 184.747 446.07 183.961C443.858 189.046 439.991 193.234 435.098 195.844C435.468 201.49 435.791 207.163 435.5 212.823C435.366 214.723 435.038 217.104 433.119 218.029C431.154 218.769 429.004 217.821 427.658 216.355C423.284 211.791 418.933 207.2 414.85 202.378C412.178 199.238 413.546 194.859 413.995 191.197C399.287 179.268 387.108 163.977 379.691 146.495C377.744 142.389 377.416 137.492 379.293 133.308C376.718 129.539 373.421 126.303 370.605 122.71C368.728 123.066 366.444 123.399 365.057 121.716H365.075ZM365.663 117.934C365.727 118.822 365.413 119.936 366.217 120.579C367.142 121.605 369.033 121.855 369.889 120.579C370.813 119.316 370.157 117.596 369.167 116.584C367.827 115.973 366.735 117.314 365.663 117.911V117.934ZM381.009 136.447C380.047 139.749 381.134 143.175 382.447 146.217C386.183 145.727 390.002 144.252 392.402 141.224C393.909 139.42 394.399 137.062 394.936 134.847C391.759 133.567 388.388 132.119 384.893 132.536C382.881 132.776 381.457 134.561 381.009 136.438V136.447ZM394.728 142.583C392.138 146.171 387.824 147.965 383.631 148.825C391.593 165.558 403.836 180.128 418.549 191.331C423.635 190.527 428.18 187.827 431.87 184.331C436.08 180.32 439.587 175.631 442.246 170.46C437.775 164.583 432.268 159.594 426.465 155.067C417.319 147.965 407.452 141.852 397.335 136.207C396.873 138.463 396.166 140.734 394.718 142.574L394.728 142.583ZM441.173 164.745C443.545 167.981 446.389 171.061 447.725 174.917C447.85 177.113 447.323 179.286 446.967 181.446C451.378 182.084 455.821 182.99 460.302 182.546C461.892 182.375 463.571 181.95 464.768 180.822C465.138 179.86 464.264 179.088 463.802 178.348C461.374 175.259 458.489 172.563 455.623 169.886C453.685 168.277 451.924 166.363 449.667 165.216C446.934 164.292 443.994 164.657 441.173 164.754V164.745ZM443.06 171.981C442.135 173.567 441.21 175.13 440.184 176.66C441.95 178.047 442.958 180.086 444.003 182.01C444.59 179.73 445.187 177.354 444.831 174.986C444.493 173.854 443.721 172.929 443.06 171.981ZM438.26 179.143C439.869 180.944 441.323 182.878 442.607 184.923C442.731 184.428 443.208 183.929 442.986 183.397C442.233 181.295 441.05 179.372 439.513 177.751C439.093 178.214 438.672 178.676 438.26 179.138V179.143ZM437.414 180.401C436.235 181.788 434.996 183.175 433.715 184.493C435.458 186.042 436.448 188.192 437.877 189.977L438.468 190.12C439.763 189.093 440.706 187.711 441.742 186.421C440.669 184.165 439.202 182.118 437.41 180.378L437.414 180.401ZM427.917 189.163C429.142 191.091 430.825 192.658 432.481 194.217C434.078 193.336 435.622 192.362 437.104 191.299C435.639 189.343 434.617 187.031 432.679 185.464C431.161 186.787 429.568 188.022 427.908 189.163H427.917ZM425.161 190.693C426.321 192.258 427.689 193.658 429.225 194.855C429.776 195.354 430.552 194.975 431.209 194.993C429.628 193.333 427.972 191.757 426.627 189.866L425.161 190.693ZM419.932 192.45C421.989 193.796 423.876 195.437 426.086 196.533C426.86 196.403 427.622 196.211 428.365 195.96C426.712 194.57 425.199 193.021 423.848 191.336C422.553 191.757 421.249 192.145 419.932 192.469V192.45ZM417.157 200.972C420.45 204.893 424.019 208.569 427.487 212.337C428.874 213.724 430.09 215.694 432.296 215.625C433.072 212.915 432.887 210.076 432.897 207.302C432.869 203.936 432.786 200.57 432.499 197.217C430.136 198.008 427.727 199.673 425.17 199.067C421.985 197.476 419.257 195.118 416.348 193.088C416.21 195.682 415.169 198.808 417.153 200.953L417.157 200.972Z" fill="black"/>
<path d="M15.1859 128.434H16.1939C16.1939 128.661 16.1939 129.114 16.1939 129.359C14.1687 132.022 12.125 134.672 10.1137 137.344H8.82825C10.4419 134.02 13.1376 131.453 15.1859 128.434Z" fill="black"/>
<path d="M19.0329 130.242L20.2443 130.265C19.3982 132.577 17.6458 134.343 16.291 136.341H15.2322L15.2692 135.444C16.5361 133.708 17.7907 131.975 19.0329 130.242Z" fill="black"/>
<path d="M462.052 129.771C463.213 131.125 464.364 132.48 465.515 133.858C467.633 133.289 469.723 132.6 471.878 132.147C470.745 133.9 469.473 135.555 468.276 137.261C469.594 139.277 470.888 141.311 472.192 143.346L465.788 140.613C464.531 142.301 463.301 144.002 462.062 145.699C462.062 143.471 462.062 141.242 462.062 139.013C460.212 138.232 458.363 137.451 456.513 136.646L462.062 134.972C462.049 133.243 462.046 131.509 462.052 129.771Z" fill="black"/>
<path d="M93.3037 134.801C94.6538 133.335 95.4537 131.102 97.5205 130.51C97.5205 130.774 97.5205 131.306 97.5205 131.574C95.6957 133.92 93.8832 136.275 92.083 138.639C91.524 139.362 90.8118 139.953 89.9977 140.368C90.067 138.056 92.1385 136.6 93.3037 134.801Z" fill="black"/>
<path d="M40.8887 134.228C41.4482 133.617 42.6273 132.175 43.0296 133.696C40.9442 136.47 38.5491 138.981 36.3343 141.64C34.9195 143.263 33.6664 145.071 31.8632 146.3C31.8955 145.575 31.7429 144.733 32.3672 144.197C35.2061 140.881 38.0683 137.575 40.8887 134.228Z" fill="black"/>
<path d="M98.1272 133.927H99.3432C99.0218 134.785 98.5813 135.592 98.0347 136.327C96.1606 138.778 94.291 141.233 92.4261 143.693H91.5013C91.5013 143.438 91.5013 142.93 91.5013 142.675C93.7069 139.776 95.9494 136.873 98.1272 133.927Z" fill="black"/>
<path d="M69.7567 147.789C72.3691 144.483 74.8428 141.066 77.5709 137.848C77.7281 138.112 78.0332 138.643 78.1858 138.907C75.9156 142.361 73.1459 145.473 70.6907 148.802L69.766 148.825C69.766 148.561 69.7613 148.048 69.7567 147.789Z" fill="black"/>
<path d="M402.686 150.189C405.65 149.135 409.081 151.428 409.39 154.526C409.904 157.499 407.43 160.583 404.387 160.583C401.59 160.736 399.065 158.271 399.042 155.497C398.987 154.336 399.314 153.189 399.971 152.23C400.629 151.272 401.583 150.555 402.686 150.189Z" fill="black"/>
<path d="M16.5824 155.122C17.7569 154.327 19.1995 155.441 20.3601 155.825C23.0696 157.333 22.0015 161.744 19.1579 162.345C17.5211 162.465 15.519 161.822 14.8855 160.167C14.5341 158.368 15.089 156.274 16.5824 155.122ZM17.1465 157.952V159.825C17.4106 159.94 17.6947 160.001 17.9826 160.006C18.2704 160.01 18.5564 159.958 18.824 159.852C19.0916 159.746 19.3357 159.588 19.5422 159.387C19.7486 159.187 19.9134 158.947 20.0272 158.683C19.366 157.555 18.2378 157.531 17.1465 157.952Z" fill="black"/>
<path d="M87.3442 155.183C89.4758 154.332 92.4627 155.835 92.7956 158.225C93.073 159.973 92.6708 162.105 91.0293 163.066C89.4896 163.506 87.6031 163.422 86.3686 162.289C84.0105 160.537 84.926 156.459 87.3442 155.183ZM87.9407 157.384C87.7603 158.281 87.4043 159.182 87.5338 160.116C88.2089 160.898 89.2862 160.833 90.2248 160.93C90.3203 160.052 90.3327 159.166 90.2618 158.285C89.9012 157.379 88.7128 157.587 87.9407 157.384Z" fill="black"/>
<path d="M417.028 161.263C418.611 160.912 420.259 160.984 421.806 161.47C423.353 161.957 424.744 162.842 425.841 164.037C426.77 165.056 427.451 166.276 427.829 167.602C428.206 168.929 428.272 170.324 428.019 171.68C427.753 173.098 427.153 174.431 426.269 175.57C425.384 176.709 424.24 177.62 422.932 178.227C421.523 178.881 419.972 179.169 418.422 179.064C416.872 178.96 415.373 178.467 414.064 177.631C412.682 176.752 411.566 175.512 410.836 174.046C410.107 172.579 409.792 170.941 409.926 169.308C410.105 167.388 410.889 165.574 412.165 164.128C413.442 162.682 415.145 161.679 417.028 161.263Z" fill="black"/>
<path d="M366.925 161.046C368.359 162.78 369.824 164.481 371.272 166.206C373.926 165.595 376.492 164.652 379.132 164.065C377.916 166.377 376.159 168.342 374.749 170.538C376.404 173.067 378.022 175.624 379.645 178.163C376.959 177.016 374.282 175.851 371.586 174.732C370.037 176.864 368.47 178.981 366.921 181.113C366.921 178.32 366.921 175.526 366.921 172.73C364.609 171.728 362.297 170.74 359.985 169.766C362.297 169.036 364.609 168.351 366.921 167.644C366.902 165.434 366.925 163.233 366.925 161.046Z" fill="black"/>
<path d="M54.4018 165.563L58.7851 170.705C61.4577 170.071 64.0285 169.054 66.7426 168.605C65.3555 170.806 63.7094 172.836 62.2483 174.986C63.8851 177.532 65.5173 180.082 67.1449 182.634C64.4724 181.492 61.7952 180.359 59.1227 179.212C57.5228 181.321 55.9739 183.466 54.4203 185.612C54.4203 182.803 54.4203 180 54.4203 177.201C52.1084 176.216 49.7965 175.217 47.4569 174.237C49.7688 173.525 52.0807 172.818 54.4203 172.138C54.408 169.946 54.4018 167.755 54.4018 165.563Z" fill="black"/>
<path d="M449.955 188.464C452.267 188.492 454.407 189.389 456.604 189.972C459.937 190.896 463.257 191.872 466.586 192.801C466.744 193.518 466.892 194.239 467.021 194.97C464.538 195.062 462.235 194.045 459.877 193.421C456.53 192.385 453.09 191.641 449.821 190.369C449.853 189.893 449.922 188.941 449.955 188.464Z" fill="black"/>
<path d="M446.352 191.313C447.212 191.313 448.164 191.239 448.83 191.914C459.542 200.428 470.264 208.926 480.997 217.409C480.997 217.872 480.951 218.857 480.937 219.338C479.985 219.217 479.014 219.088 478.302 218.413C470.078 211.853 461.838 205.315 453.583 198.799C451.128 196.792 448.539 194.956 446.185 192.788C446.25 192.298 446.301 191.803 446.352 191.313Z" fill="black"/>
<path d="M440.495 196.649C440.957 196.408 441.456 196.186 441.946 195.932C444.559 198.66 446.441 201.98 448.725 204.976L461.468 222.805C462.129 223.513 461.963 224.493 461.93 225.376L460.673 225.529C458.407 223.069 456.678 220.179 454.685 217.506C450.759 212.036 446.861 206.543 442.936 201.074C441.983 199.696 440.781 198.378 440.495 196.649Z" fill="black"/>
<path d="M481.531 434.153C481.706 428.545 480.576 422.973 478.23 417.877C477.805 416.985 477.19 415.898 476.043 416.028C466.458 415.93 456.864 416 447.279 415.958C445.952 413.989 444.472 412.134 442.979 410.294C442.979 402.79 443.113 395.281 442.914 387.781C439.774 385.326 439.099 381.016 436.353 378.261C434.54 377.845 432.654 378.09 430.804 378.039C428.289 376.055 426.805 373.156 424.414 371.071C424.377 367.335 424.386 363.599 424.414 359.867C425.801 359.636 427.147 359.377 428.506 359.095C429.949 356.011 429.477 352.622 428.858 349.385C429.6 348.371 430.346 347.36 431.095 346.352C435.39 345.552 439.537 344.102 443.395 342.052C448.791 338.63 452.892 333.563 456.646 328.467C460.001 323.818 462.975 318.906 465.538 313.778C466.463 311.716 467.665 309.616 467.743 307.304C467.438 304.345 465.39 301.955 463.425 299.874C460.798 297.34 457.983 294.788 454.519 293.502C452.365 292.536 449.831 294.427 447.907 292.786C439.481 287.346 429.643 284.5 419.615 284.602C412.046 284.551 404.513 286.132 397.448 288.791C395.035 289.716 392.727 290.867 390.342 291.843L389.606 292.652C386.578 291.773 383.212 291.815 380.437 293.433C376.612 295.7 373.519 299.02 371.527 302.995C370.14 305.769 369.942 309.131 371.417 311.891C375.121 319.346 379.441 326.479 384.331 333.216C387.447 337.271 390.735 341.451 395.284 343.975C398.521 345.598 401.993 346.962 405.642 347.402C406.946 347.402 407.491 348.854 407.856 349.889C407.916 351.276 407.306 352.557 407.144 353.912C406.77 355.701 407.426 357.468 407.916 359.169C409.401 359.433 410.894 359.632 412.397 359.807C412.397 363.571 412.425 367.335 412.397 371.098C410.731 372.488 409.59 374.405 409.16 376.531C408.544 377.034 407.943 377.541 407.357 378.053C405.327 378.053 403.283 377.877 401.272 378.164C400.592 378.238 400.278 378.927 399.945 379.435C399.02 381.016 398.267 382.672 397.37 384.285C396.473 385.899 395.381 387.522 395.488 389.422C395.488 395.896 395.488 402.42 395.488 408.916C395.603 410.132 394.697 411.039 394.027 411.936C392.977 413.216 391.955 414.516 391.012 415.88C379.587 415.921 368.171 415.625 356.745 415.713C352.27 415.815 347.78 415.468 343.336 415.894C342.412 417.798 341.367 419.62 340.382 421.484C335.99 423.106 331.919 425.493 328.36 428.535C326.46 430.204 324.957 432.234 323.306 434.153C321.63 435.956 319.656 437.457 317.471 438.592H317.443C314.246 440.483 310.907 442.125 307.456 443.502C307.488 444.159 307.53 444.824 307.576 445.495C311.52 445.897 315.483 446.133 319.432 446.526C319.432 448.473 319.334 450.424 319.432 452.375C319.42 452.688 319.478 453 319.6 453.288C319.722 453.576 319.906 453.834 320.139 454.044C321.341 454.012 322.271 453.179 323.181 452.495C327.255 449.18 331.384 445.911 335.203 442.323C336.845 440.829 337.862 438.624 340.063 437.792C341.085 440.64 342.019 443.544 343.544 446.175C344.853 446.29 346.166 446.41 347.484 446.429H463.078C468.164 446.299 473.315 446.734 478.396 446.11C479.724 443.512 480.705 440.751 481.314 437.898C481.463 436.655 481.536 435.404 481.531 434.153ZM333.927 440.108C330.145 443.863 325.905 447.113 321.799 450.493C321.799 448.893 321.623 447.256 321.91 445.694C324.837 442.818 328.383 440.607 331.157 437.556C331.157 437.241 331.157 436.631 331.157 436.298L330.043 436.335C327.366 439.331 323.972 441.546 321.013 444.237C318.396 443.96 315.774 443.742 313.152 443.631C316.785 441.975 320.201 439.88 323.325 437.394C326.062 435.179 327.814 432.012 330.575 429.83C333.238 427.55 336.359 425.913 339.503 424.401C339.181 426.422 338.998 428.463 338.958 430.509C336.687 431.133 334.015 432.22 333.076 434.55L334.57 434.703C335.917 433.51 337.489 432.598 339.194 432.021C339.309 433.126 339.439 434.241 339.587 435.355C336.812 435.72 335.721 438.407 333.927 440.108ZM426.828 356.945C423.263 357.777 419.587 357.703 415.953 357.657C415.506 355.428 415.706 353.118 416.531 350.999C419.92 351.078 423.314 350.893 426.703 351.128C427.137 353.039 427.179 355.018 426.828 356.945ZM421.52 371.926C419.328 372.49 417.021 372.185 414.829 371.769C414.829 367.839 414.829 363.909 414.829 359.978C417.22 360.071 419.61 360.112 422.005 360.062C422.005 363.388 422.005 366.712 422.005 370.035C421.926 370.659 422.25 371.57 421.52 371.926ZM454.727 296.138C458.561 298.45 462.167 301.377 464.562 305.201C465.603 306.708 465.311 308.627 464.562 310.18C461.895 316.013 458.664 321.571 454.917 326.775C451.764 331.089 448.393 335.338 444.144 338.63C440.907 341.229 436.82 342.265 432.963 343.541C434.059 341.664 435.201 339.819 436.2 337.904C440.535 336.934 444.412 334.519 447.195 331.057C451.741 325.346 455.712 319.22 459.934 313.278C460.601 312.498 461.047 311.554 461.226 310.543C461.405 309.533 461.31 308.493 460.951 307.531C460.003 303.961 456.753 301.589 453.308 300.706C453.752 299.176 454.233 297.655 454.727 296.138ZM449.752 296.624C450.497 295.583 452.064 295.759 453.174 295.518C452.674 297.123 452.337 298.801 451.565 300.309C450.709 301.03 449.715 301.543 448.791 302.2C449.17 300.35 449.253 298.441 449.752 296.624ZM451.667 303.18C455.435 302.926 459.277 306.505 458.778 310.37C457.469 312.918 455.541 315.123 454.011 317.537C451.047 321.786 448.139 326.086 444.833 330.081C443.011 332.361 440.408 333.78 437.786 334.982C441.786 327.088 444.899 318.775 447.066 310.194C447.333 308.78 447.876 307.432 448.666 306.228C449.455 305.024 450.475 303.988 451.667 303.18ZM391.118 306.694C393.361 317.962 397.481 328.773 402.345 339.148C398.706 337.123 394.91 335.116 392.173 331.866C387.086 325.915 383.216 319.016 380.109 311.863C379.573 310.421 378.643 308.779 379.443 307.263C380.63 304.81 382.598 302.821 385.038 301.608C386.282 300.924 387.586 301.821 388.464 302.685C389.56 303.832 390.869 305.02 391.118 306.694ZM389.731 295.444C389.796 297.302 389.963 299.154 390.231 300.993C387.831 299.606 387.456 296.767 386.532 294.413C387.59 294.714 388.659 295.051 389.717 295.431L389.731 295.444ZM392.26 338.704C387.123 333.678 383.193 327.607 379.457 321.495C377.321 317.847 375.185 314.189 373.4 310.356C372.055 307.619 373.257 304.493 374.824 302.135C377.229 298.663 380.437 295.412 384.691 294.427C385.323 295.862 385.868 297.333 386.324 298.834C382.264 299.416 379.055 302.676 377.275 306.199C375.888 308.84 377.441 311.688 378.463 314.157C381.496 320.797 385.135 327.233 389.833 332.846C391.873 335.306 394.34 337.378 397.115 338.963C399.247 340.286 401.425 341.59 403.866 342.265C404.328 343.189 404.768 344.114 405.221 345.039C400.546 343.883 395.705 342.209 392.247 338.691L392.26 338.704ZM411.098 357.38L409.627 356.853C409.423 354.94 409.651 353.006 410.293 351.193L411.782 351.147C411.274 353.18 411.039 355.271 411.084 357.366L411.098 357.38ZM409.993 348.595C405.027 339.764 400.86 330.507 397.541 320.935C394.568 312.196 392.274 303.083 392.117 293.812C401.554 289.031 412.217 286.47 422.851 287.075C431.571 287.619 440.001 290.416 447.316 295.195C446.391 304.72 443.871 314.055 440.472 322.984C436.997 332.13 432.276 340.752 426.444 348.609C420.966 348.633 415.478 348.632 409.979 348.604L409.993 348.595ZM413.895 357.602L412.97 357.139C412.97 354.929 412.739 352.345 414.422 350.634C414.191 352.973 413.798 355.276 413.881 357.611L413.895 357.602ZM413.049 373.896C416.285 374.52 419.712 375.029 422.948 374.025C424.211 373.341 424.733 374.899 425.33 375.69C421.023 377.598 416.136 377.726 411.736 376.046C412.115 375.315 412.337 374.423 413.035 373.905L413.049 373.896ZM412.009 378.658C416.942 380.328 422.403 379.745 427.096 377.599C428.127 378.595 428.947 379.789 429.505 381.109C423.032 384.729 415.111 384.207 408.236 382.085C408.568 380.411 409.905 377.835 411.995 378.668L412.009 378.658ZM402.1 380.508C403.399 380.48 404.703 380.471 406.012 380.452C405.965 381.445 406.002 382.439 406.122 383.425C407.047 384.549 408.596 384.674 409.895 385.081C416.78 386.727 424.59 386.87 430.823 383.079C431.849 382.616 431.807 381.396 431.946 380.452C433.047 380.452 434.152 380.48 435.261 380.508C436.445 382.635 437.629 384.762 438.877 386.852C425.511 386.852 412.143 386.852 398.771 386.852C399.83 384.711 400.972 382.616 402.086 380.508H402.1ZM398.026 389.293C412.212 389.344 426.393 389.293 440.565 389.33C440.565 395.863 440.565 402.397 440.565 408.93C426.379 409.046 412.198 408.93 398.026 408.986C397.952 402.406 397.971 395.831 398.012 389.27L398.026 389.293ZM397.564 411.385C411.962 411.364 426.361 411.364 440.759 411.385C441.98 412.916 443.191 414.455 444.43 415.977L393.971 415.921C395.132 414.382 396.32 412.856 397.536 411.362L397.564 411.385ZM476.889 443.886C432.942 443.941 388.994 443.941 345.047 443.886C342.865 439.165 341.297 434.023 341.529 428.775C341.477 424.951 342.749 421.226 345.13 418.233C388.695 418.258 432.261 418.321 475.826 418.423C479.488 426.278 480.584 435.803 476.861 443.863L476.889 443.886Z" fill="black"/>
<path d="M129.477 267.938C129.542 265.108 129.787 262.251 129.426 259.439C128.827 259.123 128.209 258.844 127.577 258.602C127.577 256.489 127.577 254.372 127.577 252.259C124.636 252.212 121.695 252.203 118.759 252.259C118.713 254.312 118.722 256.36 118.759 258.413C118.337 258.616 117.916 258.824 117.497 259.037C117.469 259.624 117.441 260.221 117.418 260.817C109.655 260.79 101.896 260.817 94.133 260.785C92.5887 260.836 90.9611 260.739 89.5092 261.349C87.6597 262.648 87.8308 265.173 87.7614 267.18C86.9985 267.332 86.2402 267.494 85.4865 267.642C85.2969 268.927 85.195 270.223 85.1814 271.521C85.206 282.082 85.206 292.644 85.1814 303.208H70.1773C70.1773 302.329 70.1773 301.455 70.1773 300.586L69.2849 299.597C69.2679 297.896 69.1536 296.198 68.9427 294.511C65.9866 294.446 63.0305 294.446 60.0744 294.511C59.8894 296.268 59.8062 298.039 59.7784 299.809L58.2665 300.059C58.2665 302.584 58.2434 305.118 58.3774 307.642C58.2711 308.65 59.1265 309.265 59.7091 309.954C59.8108 315.341 59.7091 320.732 59.7414 326.137C59.7414 327.769 59.9541 329.633 61.2719 330.761C63.0567 332.231 66.0298 332.439 67.7452 330.761C68.9612 329.549 69.4282 327.779 69.3866 326.105C69.345 320.639 69.3866 315.17 69.3542 309.704L70.2466 308.881C70.2882 308.419 70.3252 307.957 70.3669 307.494H85.1629C85.2138 346.38 85.1629 385.27 85.1953 424.156C85.2276 425.081 85.0704 426.098 84.2705 426.727C81.205 429.677 77.3349 431.582 73.6359 433.547C68.6329 404.069 63.6377 374.593 58.6502 345.118C58.6171 344.808 58.5228 344.508 58.3728 344.235C58.2228 343.962 58.02 343.721 57.7763 343.527C56.1534 342.186 54.4888 340.905 52.8474 339.597C51.2106 338.034 48.8479 338.973 46.8874 339.135C43.3548 339.805 39.6836 339.796 36.2296 340.794C34.6807 342.269 33.9871 344.406 32.8404 346.186C31.7122 344.512 30.8568 342.598 29.3356 341.234C26.8989 340.975 24.5084 341.853 22.0994 342.112C20.4163 342.487 18.3079 342.348 17.152 343.865C14.9187 346.676 13.0646 349.797 10.5631 352.4C14.7846 379.68 19.3483 406.896 23.7131 434.153C23.7778 434.92 24.0876 437.043 24.2125 438.023C24.8413 440.936 25.0031 443.571 25.7614 446.276C25.9325 447.428 27.2225 447.724 28.138 448.126C32.0867 449.411 36.3591 450.174 40.4789 449.296C43.475 448.75 46.0644 446.984 48.0618 444.727C54.4241 447.381 61.9608 448.094 68.3 445C69.6086 444.473 70.9448 443.215 72.4198 443.983C85.1074 448.505 99.6584 448.241 111.828 442.249C112.489 441.875 113.215 441.491 113.553 440.76C113.678 439.794 113.775 439.105 113.359 438.111C111.781 436.379 109.874 434.978 107.75 433.991C104.832 432.465 102.664 429.83 100.417 427.518C99.381 426.251 97.7858 425.053 97.9476 423.232C97.9753 395.757 97.9245 368.283 97.9753 340.808C104.328 340.808 110.681 340.808 117.03 340.808C117.155 341.946 117.284 343.088 117.432 344.23L118.99 344.285C118.99 349.321 118.99 354.361 118.967 359.396C118.967 361.245 119.268 363.465 120.969 364.565C123.535 366.207 128.108 365.134 128.488 361.745C128.663 356.062 128.316 350.361 128.626 344.683C129.232 341.095 128.908 337.451 128.996 333.836L128.099 332.966C128.099 331.117 128.307 329.23 127.984 327.395C127.586 326.701 126.735 326.789 126.06 326.743C123.67 326.692 121.274 326.743 118.884 326.808C118.805 328.833 118.81 330.863 118.815 332.892H117.395C117.27 334.109 117.159 335.329 117.071 336.55C110.7 336.55 104.328 336.55 97.9522 336.55C97.9522 316.27 97.9522 295.989 97.9522 275.706C97.9522 272.959 98.1464 270.185 97.6054 267.471C96.6067 267.166 95.6172 266.851 94.6416 266.486C96.1501 266.256 97.6747 266.147 99.2006 266.162C105.281 266.162 111.361 266.195 117.437 266.213C117.437 266.537 117.469 267.193 117.483 267.517L118.796 268.266C118.856 275.544 118.796 282.822 118.824 290.1C118.741 291.889 120.331 293.184 121.848 293.799C124.322 294.612 127.859 292.999 127.72 290.1C127.849 282.812 127.72 275.516 127.785 268.229C128.316 268.09 128.904 268.012 129.477 267.938ZM67.8608 295.847C67.8608 297.185 67.8608 298.524 67.8608 299.865C65.703 299.865 63.553 299.865 61.4106 299.865C61.3875 298.515 61.3783 297.165 61.3736 295.819C63.5468 295.828 65.7015 295.824 67.8608 295.847ZM62.0071 329.522C62.0071 329.059 62.0071 328.555 62.0071 328.075C62.9318 328.075 63.4774 328.537 63.459 329.499C62.9827 329.503 62.4926 329.508 62.0071 329.522ZM61.3366 312.067V309.579C63.5052 309.579 65.6737 309.579 67.8423 309.616C67.8423 310.421 67.8423 311.23 67.8423 312.044C65.6737 312.081 63.5052 312.072 61.3366 312.067ZM67.7082 326.919C66.9314 328.019 65.8124 329.23 64.3282 329.087L64.1248 328.44C65.0269 327.509 66.0146 326.665 67.0747 325.92C67.5833 325.31 68.2076 326.604 67.7082 326.919ZM60.0512 307.878C59.9773 305.732 59.931 303.582 59.9356 301.437H68.4572C68.5405 303.579 68.5882 305.725 68.6006 307.873L60.0512 307.878ZM50.8037 341.086C51.7955 341.843 52.7334 342.668 53.6103 343.555L50.1009 344.942C49.6385 343.74 49.1761 342.538 48.7138 341.335L50.8037 341.086ZM47.5393 341.548C48.0603 342.747 48.5674 343.951 49.0606 345.159C47.9462 345.427 46.8365 345.7 45.7268 345.955C45.5265 344.564 45.3492 343.177 45.1951 341.793C45.958 341.701 46.7394 341.627 47.5255 341.553L47.5393 341.548ZM41.2788 342.473C42.2035 342.288 43.1283 342.108 44.053 341.955C44.3404 343.364 44.5059 344.795 44.5478 346.232C43.4519 346.431 42.3561 346.611 41.251 346.773C41.2371 345.34 41.251 343.906 41.2649 342.478L41.2788 342.473ZM37.4225 342.935C38.3658 342.775 39.3106 342.621 40.2569 342.473C40.2569 343.976 40.2153 345.478 40.1691 346.981C38.5184 347.032 36.8631 347.074 35.2078 347.06C35.9291 345.705 36.6689 344.332 37.4087 342.954L37.4225 342.935ZM46.9013 347.365C49.7962 346.874 52.5802 345.87 55.1223 344.401C51.8256 347.596 47.5255 350.097 42.8092 350.042C39.8778 350.208 37.0896 349.228 34.2691 348.613C38.5131 348.84 42.7671 348.425 46.8874 347.383L46.9013 347.365ZM28.4062 343.744C28.998 344.669 29.5991 345.594 30.2002 346.519C29.3063 346.956 28.4093 347.39 27.5092 347.818C27.3982 346.431 27.2688 345.095 27.1485 343.735L28.4062 343.744ZM24.587 344.332L25.9741 343.869C26.2583 345.309 26.4345 346.768 26.5012 348.234C25.8123 348.447 25.1141 348.696 24.4483 348.905C24.4483 347.383 24.4991 345.871 24.5592 344.35L24.587 344.332ZM22.3121 344.822L23.5281 344.151C23.5591 345.868 23.4555 347.584 23.2183 349.284L20.6429 349.524C21.0849 347.928 21.6333 346.363 22.2843 344.84L22.3121 344.822ZM21.059 344.655C20.5597 346.26 20.2037 347.957 19.3205 349.418C18.3541 350.097 17.041 349.547 15.9405 349.594C17.5126 347.869 18.368 345.002 21.0452 344.674L21.059 344.655ZM23.2137 350.847C26.1128 350.306 28.7854 349.039 31.4718 347.869C30.5748 349.478 28.642 349.936 27.0468 350.551C22.8951 351.766 18.5316 352.082 14.2482 351.475C17.1982 351.082 20.2453 351.586 23.186 350.865L23.2137 350.847ZM36.299 447.27C33.5095 447.146 30.7619 446.546 28.175 445.495C27.9737 445.006 27.8339 444.493 27.7589 443.969C22.8947 413.966 17.9842 383.98 13.1848 353.968C19.3251 354.384 25.84 354.342 31.3978 351.341C35.5407 377.475 39.6743 403.613 43.7987 429.756C44.4044 434.301 45.4124 438.804 45.81 443.368C43.7016 446.332 39.776 447.4 36.2712 447.289L36.299 447.27ZM48.6259 442.217C48.0942 441.953 48.1635 441.26 48.0202 440.793C43.2916 410.868 38.5507 380.936 33.7975 350.999C37.7555 352.067 41.9261 353.149 46.0227 352.174C49.9576 351.434 53.4855 349.256 56.3753 346.546C61.6464 377.547 66.9006 408.554 72.1378 439.567C66.0205 445.569 56.0239 445.906 48.5982 442.235L48.6259 442.217ZM120.576 354.925C120.576 351.374 120.576 347.823 120.576 344.29C122.712 344.29 124.853 344.29 126.994 344.29V354.902C124.853 354.911 122.712 354.911 120.576 354.925ZM122.426 363.511C122.555 362.975 122.523 362.337 123.036 361.999L124.257 362.679C123.66 362.961 123.055 363.257 122.435 363.511H122.426ZM127.05 359.387C126.966 360.852 126.125 362.591 124.405 362.535C124.946 361.213 125.427 359.867 125.921 358.536C126.467 357.435 127.096 358.762 127.054 359.405L127.05 359.387ZM126.587 328.135C126.587 329.734 126.587 331.339 126.587 332.943H120.322C120.322 331.334 120.322 329.727 120.322 328.121C122.403 328.102 124.483 328.093 126.569 328.135H126.587ZM118.755 334.303H127.586C127.614 337.077 127.586 339.851 127.586 342.625C124.627 342.625 121.668 342.625 118.713 342.625C118.759 339.87 118.722 337.086 118.736 334.303H118.755ZM85.1629 305.95C80.3357 305.95 75.5069 305.95 70.6766 305.95L70.6212 304.942C75.4854 304.942 80.3511 304.942 85.2184 304.942L85.1629 305.95ZM116.942 338.238C116.942 338.492 116.942 338.996 116.942 339.246C110.617 339.246 104.291 339.246 97.9846 339.246C97.9846 338.991 97.9522 338.487 97.943 338.233C104.273 338.228 110.589 338.247 116.924 338.238H116.942ZM107.417 436.682C108.957 437.389 110.446 438.31 111.375 439.775C99.8156 445.749 85.8749 445.999 73.6451 441.921C74.9444 440.178 74.4496 438 74.052 436.053C78.6758 433.714 83.4613 431.346 86.9985 427.453C88.7139 427.962 90.4756 428.572 92.2974 428.378C93.8602 428.239 95.3259 427.573 96.8888 427.416C100.287 430.551 103.117 434.56 107.399 436.682H107.417ZM95.3213 269.589C95.5941 283.34 95.2889 297.114 95.4646 310.869C95.7051 314.106 95.3259 317.343 95.4138 320.579C95.4138 355.439 95.4138 390.296 95.4138 425.15C92.9622 426.14 90.2223 426.14 87.7707 425.15C87.6643 419.25 87.4609 413.351 87.6782 407.455C87.4655 402.684 87.8863 397.912 87.6042 393.122C87.7198 386.796 87.7568 380.466 87.6042 374.164C87.7661 367.071 87.7753 359.974 87.6042 352.895C87.8724 345.062 87.6366 337.22 87.669 329.388C87.8031 315.031 87.669 300.669 87.669 286.317C87.6042 280.824 87.9187 275.322 87.5488 269.834C90.1317 269.586 92.7279 269.505 95.3213 269.589ZM117.34 264.502C110.372 264.452 103.399 264.53 96.4356 264.391C94.7063 264.211 93.6151 265.668 93.2776 267.166C91.9552 267.193 90.6297 267.21 89.3012 267.217C89.3936 265.885 89.1717 264.442 89.856 263.231C90.2768 262.306 91.405 262.56 92.2188 262.473C100.592 262.44 108.966 262.473 117.34 262.505V264.502ZM126.24 253.6C126.24 255.352 126.24 257.104 126.268 258.861C124.275 258.811 122.282 258.778 120.29 258.746C120.29 257.032 120.29 255.317 120.29 253.6H126.24ZM121.547 291.551C121.085 291.214 120.188 291.034 120.581 290.285L121.76 289.942C121.709 290.345 121.603 291.149 121.547 291.551ZM120.16 272.594C119.559 271.207 119.98 269.612 119.878 268.155C122.024 268.155 124.174 268.155 126.319 268.155C126.319 269.672 126.319 271.191 126.319 272.714C124.271 272.677 122.204 272.825 120.16 272.589V272.594ZM122.389 291.607C122.389 290.386 123.568 289.989 124.349 289.323C125.094 288.763 125.635 287.903 126.583 287.667C127.128 289.998 124.335 291.38 122.389 291.602V291.607ZM118.967 266.847C118.967 264.669 118.995 262.5 118.967 260.327C121.996 260.327 125.029 260.392 128.062 260.415C128.062 262.556 128.062 264.701 128.062 266.847H118.967Z" fill="black"/>
<path d="M190.788 417.082C190.21 414.64 188.074 413.077 186.063 411.824C185.684 407.228 183.808 402.883 180.722 399.456C177.273 395.59 172.779 392.761 168.002 390.809C167.938 390.185 167.868 389.57 167.808 388.96C169.167 388.396 170.934 388.035 171.553 386.5C172.215 384.799 172.057 382.935 172.108 381.15C172.08 376.818 172.108 372.481 171.84 368.158C171.563 365.952 170.707 362.937 168.118 362.609C164.585 362.332 161.039 362.609 157.483 362.526C157.696 356.792 159.684 350.828 164.151 347.009C165.658 347.836 167.531 348.52 169.163 347.605C171.637 346.523 171.937 342.602 169.662 341.173C168.354 340.512 166.55 340.415 165.427 341.488C164.104 342.602 163.896 344.484 162.722 345.723C161.159 347.406 159.439 349.015 158.45 351.128C156.776 354.698 155.555 358.573 155.629 362.558C152.517 362.84 149.396 362.715 146.28 362.845C144.652 362.808 143.325 363.964 142.368 365.157C141.18 366.655 141.494 368.68 141.443 370.46C141.536 375.237 141.332 380.031 141.642 384.794C141.721 386.814 143.168 388.322 144.92 389.136C144.842 389.862 144.763 390.597 144.685 391.332C140.744 391.417 136.973 392.948 134.087 395.632C130.198 399.141 127.706 403.909 125.972 408.787C125.39 410.877 122.934 411.334 121.737 412.948C120.16 414.936 118.838 417.572 119.342 420.166C120.664 421.881 123.106 422.08 125.112 422.168C127.239 422.478 127.424 419.796 128.349 418.469C128.723 419.611 128.76 420.961 129.57 421.913C131.132 422.676 133.028 422.556 134.688 422.205C136.514 421.779 137.388 419.861 137.462 418.14C137.804 415.112 135.946 412.361 133.68 410.544C134.443 407.386 135.724 404.251 138.05 401.92C139.529 400.325 141.508 399.349 143.455 398.462C142.646 404.107 141.605 409.721 140.731 415.357C140.093 417.623 143.011 418.103 144.472 418.936C143.219 424.022 141.938 429.08 140.593 434.134C140.593 434.134 139.959 436.881 139.668 437.875C139.446 438.656 139.229 439.451 139.016 440.247C137.532 440.877 136.134 441.693 134.854 442.674C133.193 444.05 131.939 445.855 131.229 447.892C130.519 449.93 130.38 452.123 130.827 454.234C136.052 455.561 141.591 456.36 146.927 455.186C148.078 454.899 149.516 454.442 149.84 453.147C150.464 449.286 148.966 445.518 147.528 442.013C147.954 440.626 148.393 439.239 148.855 437.852C149.184 436.562 149.697 434.814 149.872 434.116C151.199 429.663 152.402 425.173 153.655 420.707C155.467 420.747 157.281 420.739 159.097 420.684C160.484 425.15 164.405 438.633 163.124 434.129C163.392 435.054 163.813 436.441 164.169 437.861C164.669 439.576 165.635 441.398 164.951 443.201C163.869 446.406 162.407 449.758 162.995 453.207C163.305 454.839 165.112 455.265 166.495 455.561C171.724 456.485 177.162 455.889 182.216 454.345C182.484 451.432 182.216 448.334 180.584 445.846C179.256 443.446 176.884 441.99 174.522 440.76C173.357 440.298 173.199 438.91 172.774 437.898C172.612 436.853 172.312 434.689 172.191 434.12C171.244 429.108 170.212 424.11 169.195 419.111C169.849 418.538 170.494 417.96 171.133 417.378C170.494 411.279 169.579 405.208 169.061 399.1C171.752 400.131 174.365 401.638 176.085 404.015C177.86 406.327 178.628 409.184 179.011 412.023C176.723 413.202 174.813 415.352 174.651 418.034C174.619 419.32 174.286 420.947 175.299 421.964C176.889 423.213 179.076 423.19 180.99 423.014C182.512 422.958 182.424 421.016 182.942 420.004C183.228 420.845 183.515 421.682 183.802 422.533C185.882 422.732 188.227 422.866 190.016 421.576C191.477 420.577 191.098 418.589 190.788 417.082ZM166.111 343.564C166.725 343.161 167.372 342.81 168.044 342.514L169.26 343.208C169.191 344.045 169.505 345.136 168.673 345.691C167.748 346.546 166.5 345.94 165.473 345.649C165.591 344.923 165.806 344.215 166.111 343.545V343.564ZM184.084 412.828C183.059 413.109 181.979 413.12 180.949 412.86C180.829 411.667 180.704 410.474 180.584 409.286C181.564 408.884 182.535 408.463 183.51 408.047C183.88 409.608 184.073 411.205 184.084 412.809V412.828ZM143.427 383.448C143.39 378.362 143.247 373.276 143.371 368.19C143.224 366.34 144.962 364.667 146.784 364.727C149.262 364.616 151.74 364.625 154.219 364.593C159.041 364.505 163.929 364.015 168.71 364.648C169.463 366.023 169.915 367.542 170.037 369.105C170.171 372.643 170.171 376.189 170.208 379.74C170.208 381.946 170.365 384.221 169.63 386.352C165.968 387.388 162.112 386.787 158.371 387.194C154.043 387.231 149.678 387.54 145.378 386.99C143.672 386.87 143.459 384.771 143.427 383.448ZM130.194 403.631C131.218 404.266 132.28 404.838 133.375 405.342C133.13 406.026 132.88 406.706 132.635 407.395C131.342 407.413 130.049 407.363 128.76 407.247C129.172 406.012 129.704 404.815 130.194 403.626V403.631ZM127.882 408.717C129.266 408.95 130.664 409.091 132.066 409.138C131.909 409.725 131.757 410.317 131.604 410.914C130.323 411.508 128.884 411.67 127.503 411.376C127.579 410.484 127.709 409.598 127.891 408.722L127.882 408.717ZM134.887 420.092C133.782 420.956 132.196 420.434 130.897 420.586C130.587 419.241 130.628 417.072 128.793 416.952C126.726 416.596 125.921 418.862 125.311 420.369C123.855 420.21 122.414 419.936 121.002 419.551C121.335 416.513 122.911 413.447 125.843 412.213C127.165 413.138 128.816 414.062 130.467 413.341C131.451 413.188 132.519 412.259 133.477 412.879C135.321 414.677 136.417 417.78 134.896 420.096L134.887 420.092ZM134.253 403.761C133.278 403.298 131.632 403.261 131.548 401.888C132.052 400.714 132.811 399.067 134.142 398.827C134.808 399.65 135.331 400.575 135.923 401.458C135.368 402.221 134.79 402.988 134.263 403.765L134.253 403.761ZM136.815 399.904C136.178 399.022 135.626 398.083 135.164 397.098C136.396 396.154 137.685 395.287 139.025 394.504C139.057 395.845 139.113 397.19 139.256 398.526C138.489 398.98 137.818 400.011 136.824 399.909L136.815 399.904ZM140.648 397.639C140.648 396.381 140.648 395.128 140.694 393.88C141.901 393.621 143.113 393.417 144.338 393.237C144.167 394.323 143.982 395.419 143.797 396.511C142.752 396.88 141.725 397.26 140.657 397.643L140.648 397.639ZM141.92 436.783C143.633 436.963 145.357 437.039 147.08 437.01C146.705 438.305 146.317 439.59 145.933 440.885C144.315 440.514 142.675 440.248 141.023 440.089C141.342 438.989 141.638 437.889 141.929 436.788L141.92 436.783ZM148.023 452.967C143.339 454.46 138.313 454.002 133.583 453.017C132.778 453.017 132.469 452.315 132.196 451.7C137.503 452.504 142.918 452.237 148.12 450.914C148.083 451.575 148.06 452.264 148.032 452.953L148.023 452.967ZM147.977 449.268C142.937 450.627 137.689 450.715 132.529 450.137C133.255 447.02 135.22 444.154 138.179 442.794C140.593 441.444 143.422 442.253 145.901 442.952C146.715 445.016 147.411 447.125 147.986 449.268H147.977ZM147.482 435.452C145.771 435.48 144.037 435.535 142.373 435.068C142.609 434.032 142.858 433.015 143.089 431.984C144.839 432.342 146.614 432.569 148.397 432.664C148.097 433.588 147.801 434.522 147.491 435.452H147.482ZM148.804 430.888C147.045 431.034 145.274 430.832 143.593 430.292C143.852 429.154 144.134 428.026 144.421 426.898C146.185 427.36 147.995 427.62 149.817 427.675C149.479 428.761 149.151 429.815 148.814 430.888H148.804ZM150.275 425.853C148.452 426.064 146.605 425.85 144.879 425.229C145.11 424.304 145.341 423.379 145.605 422.496C147.345 423.016 149.141 423.327 150.954 423.421C150.732 424.235 150.511 425.062 150.284 425.853H150.275ZM151.273 421.585C149.498 421.987 147.727 421.34 146.012 420.947C146.072 420.596 146.197 419.893 146.261 419.56C148.148 419.971 150.048 420.318 151.939 420.721L151.273 421.585ZM161.191 420.503C163.281 420.254 165.353 419.851 167.424 419.486C167.424 419.948 167.457 420.411 167.475 420.915C165.505 421.493 163.531 422.117 161.464 422.232C161.381 421.65 161.289 421.077 161.201 420.503H161.191ZM163.041 427.328C162.703 426.195 162.375 425.062 162.051 423.939C164.047 423.573 166.011 423.057 167.928 422.394C168.007 423.661 169.195 425.756 167.443 426.311C166.081 426.978 164.585 427.326 163.069 427.328H163.041ZM180.436 452.99C176.383 454.012 172.184 454.325 168.025 453.915C166.717 453.762 165.381 453.452 164.382 452.527C167.928 452.592 171.475 452.819 175.016 452.62C176.917 452.518 178.66 451.695 180.366 450.928C180.417 451.616 180.44 452.301 180.463 452.99H180.436ZM173.222 442.397C174.81 442.927 176.255 443.813 177.447 444.987C178.64 446.161 179.548 447.592 180.103 449.171C176.561 451.575 172.173 451.205 168.113 451.103C167.013 451.039 165.926 450.844 164.844 450.678C165.344 448.126 165.815 445.37 167.299 443.211C169.297 443.174 171.364 443.271 173.25 442.397H173.222ZM171.618 441.01C170.11 441.209 168.581 441.18 167.082 440.922C166.814 440.057 166.546 439.206 166.278 438.356C167.889 438.272 169.461 437.823 170.874 437.042C171.133 438.356 171.405 439.673 171.646 441L171.618 441.01ZM170.541 435.341C169.066 436.182 167.447 436.811 165.718 436.497C165.45 435.535 165.173 434.587 164.89 433.644C166.638 433.616 168.36 433.219 169.944 432.479C170.148 433.425 170.356 434.376 170.568 435.332L170.541 435.341ZM169.389 430.662C168.053 431.961 166.07 431.956 164.336 431.808C164.077 430.884 163.809 429.959 163.536 429.034C165.434 428.773 167.283 428.234 169.024 427.434C169.191 428.502 169.376 429.566 169.417 430.652L169.389 430.662ZM169.181 416.924C160.6 419.569 150.959 419.921 142.655 416.129C143.783 407.085 145.563 398.129 146.96 389.122C153.262 389.311 159.559 389.071 165.857 388.84C167.022 398.184 168.039 407.561 169.209 416.915L169.181 416.924ZM168.835 397.56C168.613 396.016 168.395 394.471 168.233 392.936C169.366 393.524 170.619 394.014 171.47 395.008C171.317 396.344 170.476 397.865 168.862 397.551L168.835 397.56ZM174.147 399.562C173.375 399.1 172.608 398.688 171.835 398.263C172.298 397.338 172.732 396.437 173.153 395.521C174.078 396.182 175.044 396.816 175.71 397.759C175.544 398.563 174.707 398.97 174.175 399.553L174.147 399.562ZM175.534 400.663C176.126 400.011 176.723 399.359 177.31 398.698C178.235 399.622 179.159 400.584 180.024 401.583C179.274 402.028 178.492 402.417 177.684 402.748C176.93 402.096 176.218 401.396 175.553 400.653L175.534 400.663ZM178.535 404.246L181.032 402.887C181.71 404.05 182.327 405.248 182.882 406.475C181.957 406.905 181.032 407.316 180.13 407.728C179.64 406.539 179.109 405.379 178.554 404.255L178.535 404.246ZM189.17 420.161C187.955 420.49 186.719 420.737 185.471 420.901C184.921 419.514 183.672 417.743 181.924 418.589C180.676 418.862 180.676 420.258 180.5 421.262C179.127 421.294 177.758 421.105 176.445 420.702C176.288 418.335 176.704 415.422 179.118 414.307C180.385 414.52 181.596 415.112 182.905 415.093C183.866 414.913 184.699 414.358 185.628 414.072C188.194 414.802 189.396 417.664 189.188 420.152L189.17 420.161Z" fill="black"/>
<path d="M379.284 266.171C380.449 267.535 381.619 268.899 382.78 270.273C384.879 269.672 386.941 268.997 389.11 268.553C387.977 270.3 386.705 271.956 385.508 273.639C386.826 275.659 388.12 277.694 389.424 279.728L383.02 276.996C381.767 278.683 380.533 280.385 379.294 282.082C379.294 279.853 379.294 277.624 379.294 275.396C377.444 274.613 375.595 273.824 373.745 273.028C375.595 272.474 377.444 271.916 379.294 271.355C379.28 269.639 379.275 267.901 379.284 266.171Z" fill="black"/>
<path d="M407.805 290.714C408.033 290.632 408.277 290.604 408.517 290.632C408.758 290.66 408.989 290.744 409.192 290.876C409.232 291.161 409.186 291.452 409.061 291.711C408.936 291.97 408.737 292.187 408.489 292.333C404.517 295.038 402.071 299.319 399.611 303.333C398.617 304.794 398.335 306.74 396.957 307.915C395.737 307.508 396.162 306.204 396.56 305.353C397.921 302.519 399.525 299.809 401.355 297.252C403.172 294.783 405.077 292.213 407.805 290.714Z" fill="black"/>
<path d="M406.316 295.666C406.973 295.523 407.643 295.666 407.703 296.452C406.265 298.357 404.619 300.151 403.843 302.491C403.329 303.374 403.232 304.937 401.993 305.09L401.309 304.433C402.104 301.146 403.713 297.863 406.316 295.666Z" fill="black"/>
<path d="M15.395 314.726C16.5555 316.076 17.7069 317.43 18.8536 318.804C20.9759 318.24 23.0704 317.551 25.2205 317.098C24.0877 318.845 22.8207 320.505 21.6186 322.184C22.9363 324.204 24.231 326.239 25.5349 328.273C23.3987 327.348 21.2641 326.438 19.131 325.541C17.8779 327.228 16.6434 328.93 15.4042 330.627C15.4042 328.398 15.4042 326.169 15.4042 323.941C13.5547 323.158 11.7052 322.369 9.85571 321.573L15.4042 319.904C15.3904 318.189 15.3857 316.455 15.395 314.726Z" fill="black"/>
<path d="M427.718 334.682C429.272 333.295 430.437 331.445 432.453 330.678C432.758 332.601 431.131 333.836 429.942 335.056C426.618 338.21 423.007 341.067 419.89 344.438C419.428 344.9 418.48 345.825 417.879 345.025C417.528 344.133 418.314 343.513 418.836 342.921C421.634 339.985 424.731 337.396 427.718 334.682Z" fill="black"/>
<path d="M464.287 330.71C465.471 332.134 466.687 333.535 467.894 334.95C470.072 334.367 472.217 333.655 474.427 333.184C473.285 335.033 471.958 336.712 470.728 338.478C472.116 340.563 473.438 342.676 474.774 344.794C472.573 343.814 470.354 342.894 468.153 341.936C466.872 343.68 465.587 345.427 464.315 347.175C464.315 344.882 464.315 342.591 464.315 340.304C462.392 339.486 460.468 338.667 458.568 337.821C460.491 337.266 462.41 336.69 464.324 336.092C464.287 334.298 464.283 332.499 464.287 330.71Z" fill="black"/>
<path d="M169.2 332.213C169.663 332.273 170.162 332.342 170.648 332.411C170.527 333.97 170.278 335.514 170.028 337.063L168.35 336.98C168.618 335.389 168.881 333.794 169.2 332.213Z" fill="black"/>
<path d="M163.207 333.512C165.057 334.372 165.658 336.545 165.57 338.427C165.107 338.233 164.645 338.029 164.183 337.84C163.549 336.48 162.994 335.038 163.207 333.512Z" fill="black"/>
<path d="M176.341 335.5L177.729 335.708C177.382 337.359 176.184 338.552 174.927 339.574C173.715 338.006 175.629 336.749 176.341 335.5Z" fill="black"/>
<path d="M428.427 337.623C428.968 337.072 429.939 337.9 429.624 338.57C429.107 339.638 428.163 340.42 427.359 341.248C425.972 342.556 424.686 344.327 422.587 344.447C422.693 343.846 422.541 343.083 423.147 342.699C425.024 341.127 426.651 339.301 428.427 337.623Z" fill="black"/>
<path d="M158.954 339.597C159.823 339.607 160.69 339.68 161.548 339.814C162.256 339.948 162.995 340.739 162.565 341.483C161.354 341.576 160.161 341.261 158.973 341.114C158.963 340.605 158.959 340.096 158.954 339.597Z" fill="black"/>
<path d="M175.635 341.895C177.088 342.012 178.532 342.222 179.958 342.524C179.93 342.986 179.907 343.495 179.884 343.985C178.471 343.915 177.067 343.726 175.686 343.421C175.667 342.907 175.649 342.399 175.635 341.895Z" fill="black"/>
<path d="M174.04 347.134L175.362 347.064C176.472 347.707 177.845 348.151 178.289 349.51C176.56 349.788 174.318 349.108 174.04 347.134Z" fill="black"/>
<path d="M170.209 349.695C171.929 350.578 172.198 352.807 171.98 354.536C171.157 354.629 170.542 354.305 170.413 353.473C169.932 352.275 170.061 350.962 170.209 349.695Z" fill="black"/>
<path d="M165.218 350.393C165.653 350.426 166.083 350.472 166.522 350.518C166.323 352.312 165.796 354.217 164.28 355.364C163.272 353.644 164.654 352.007 165.218 350.393Z" fill="black"/>
<path d="M23.0056 357.611C25.2805 357.186 27.5739 356.469 29.9089 356.862C30.473 360.316 30.866 363.798 31.3469 367.256C31.3885 368.181 31.8093 369.489 30.7227 369.97C29.109 370.655 27.3473 370.867 25.6643 371.32C23.1859 371.834 20.7539 372.846 18.1784 372.629C17.2537 369.642 16.6572 366.563 15.8989 363.534C15.6215 362.299 15.2331 361.065 15.2747 359.789C15.6723 359.026 16.5878 358.91 17.3323 358.716C19.2141 358.305 21.1191 357.999 23.0056 357.611ZM17.8548 361.107C18.5391 364.144 19.2419 367.173 19.9724 370.206C22.927 369.489 25.8724 368.745 28.8547 368.139C28.7021 365.115 28.2166 362.128 27.782 359.123C24.4806 359.817 21.1607 360.436 17.8548 361.107Z" fill="black"/>
<path d="M455.493 359.867C456.945 361.583 458.411 363.289 459.863 365.009C462.535 364.389 465.101 363.363 467.82 362.915C466.433 365.12 464.796 367.141 463.34 369.291C464.967 371.846 466.603 374.397 468.245 376.943C465.559 375.81 462.882 374.659 460.2 373.517C458.623 375.634 457.074 377.771 455.512 379.902C455.512 377.1 455.512 374.303 455.512 371.51C453.2 370.525 450.888 369.526 448.548 368.551C450.86 367.833 453.172 367.13 455.484 366.442C455.487 364.217 455.49 362.025 455.493 359.867Z" fill="black"/>
<path d="M162.124 368.375L162.304 366.905C164.204 367.029 166.419 367.76 166.646 369.979C165.078 369.619 163.649 368.865 162.124 368.375Z" fill="black"/>
<path d="M145.261 370.104C146.48 368.856 148.075 368.043 149.802 367.792C149.857 368.255 149.913 368.759 149.968 369.254C148.419 369.577 146.755 371.459 145.261 370.104Z" fill="black"/>
<path d="M147.448 372.167C148.609 371.117 150.38 370.595 151.781 371.492C153.334 372.333 153.801 374.941 152.243 375.99C151.532 376.511 150.648 376.74 149.774 376.63C148.9 376.52 148.1 376.079 147.541 375.399C147.212 374.349 147.439 373.235 147.453 372.162L147.448 372.167ZM149.029 374.543C149.792 374.543 150.56 374.543 151.341 374.543C151.267 374.093 151.189 373.649 151.105 373.212L149.959 372.888C149.626 373.42 149.316 373.974 149.025 374.548L149.029 374.543Z" fill="black"/>
<path d="M161.702 371.085C163.931 370.049 166.571 372.384 165.979 374.742C165.239 376.554 162.807 376.744 161.272 375.93C159.422 374.885 159.936 371.912 161.702 371.085ZM161.905 374.372C162.71 374.317 163.787 374.723 164.263 373.813C164.16 373.553 163.986 373.328 163.76 373.165C163.534 373.001 163.266 372.905 162.987 372.888C162.118 372.814 162.201 373.831 161.905 374.372Z" fill="black"/>
<path d="M151.686 378.187C154.645 377.567 157.697 377.849 160.67 378.39C162.64 379.075 161.673 381.701 161.35 383.204C158.113 383.541 154.877 383.204 151.686 382.741C151.226 381.261 151.226 379.676 151.686 378.196V378.187ZM153.286 379.796C152.69 380.184 153.124 381.585 153.882 381.054C154.46 380.647 154.044 379.264 153.286 379.796ZM154.844 379.902C154.964 380.263 155.209 380.984 155.334 381.345L157.646 381.47C157.646 380.924 157.674 380.378 157.688 379.842C156.745 379.842 155.803 379.862 154.863 379.902H154.844ZM158.562 380.54C158.733 381.202 159.343 381.419 159.907 381.655C159.907 381.044 159.907 380.443 159.907 379.847C159.422 380.016 158.962 380.249 158.539 380.54H158.562Z" fill="black"/>
<path d="M148.518 395.008C148.515 393.871 148.636 392.738 148.878 391.628C152.651 391.674 156.42 391.628 160.193 391.628C161.21 391.639 162.22 391.794 163.193 392.09C163.364 399.595 163.337 407.113 163.193 414.617C158.403 414.779 153.604 414.663 148.809 414.696C148.346 412.472 148.545 410.206 148.527 407.964C148.527 403.636 148.527 399.313 148.527 394.989L148.518 395.008ZM150.247 393.339C150.247 399.937 150.224 406.535 150.247 413.133H161.709C161.709 406.546 161.709 399.961 161.709 393.38C157.908 393.302 154.066 393.362 150.238 393.343L150.247 393.339Z" fill="black"/>
<path d="M401.295 392.83C405.974 392.234 410.713 392.706 415.42 392.558C422.476 392.706 429.564 392.252 436.597 392.798C436.63 397.487 436.667 402.175 436.597 406.868C428.783 406.91 420.974 406.868 413.164 406.868C409.252 406.803 405.331 407.007 401.429 406.729C401.23 402.106 401.429 397.454 401.309 392.817L401.295 392.83ZM402.895 394.259C402.978 397.958 402.733 401.657 403.07 405.315C413.737 405.268 424.404 405.315 435.067 405.287C435.067 401.588 435.067 397.889 435.067 394.227C424.335 394.255 413.603 394.194 402.881 394.273L402.895 394.259Z" fill="black"/>
<path d="M404.597 395.184C405.213 395.161 405.831 395.177 406.446 395.23C406.511 395.817 406.511 396.414 406.529 397.015L404.68 396.969C404.638 396.367 404.61 395.771 404.597 395.184Z" fill="black"/>
<path d="M431.311 395.202C431.941 395.193 432.571 395.226 433.197 395.299C433.276 395.905 433.271 396.515 433.294 397.149C432.758 397.024 432.157 397.121 431.68 396.844C431.32 396.395 431.445 395.72 431.311 395.202Z" fill="black"/>
<path d="M151.785 400.094C152.247 400.529 153.098 400.765 153.093 401.523C153.305 403.277 153.21 405.054 152.811 406.776L151.618 406.711C151.13 404.525 151.187 402.253 151.785 400.094Z" fill="black"/>
<path d="M404.593 402.679C405.194 402.679 405.799 402.679 406.41 402.679C406.41 403.243 406.377 403.816 406.359 404.39H404.667C404.634 403.793 404.606 403.234 404.593 402.679Z" fill="black"/>
<path d="M431.5 402.711C432.074 402.683 432.647 402.656 433.23 402.651C433.207 403.224 433.188 403.807 433.165 404.39C432.601 404.39 432.041 404.39 431.491 404.39C431.487 403.826 431.487 403.266 431.5 402.711Z" fill="black"/>
<path d="M55.6803 422.945C58.51 422.82 61.3675 421.844 64.188 422.552C65.0572 427.448 64.9324 432.488 66.1115 437.348C64.1556 439.951 60.7294 440.936 57.5899 440.742C55.8467 440.612 53.8492 440.626 52.4436 439.433C51.653 437.043 51.824 434.458 51.431 431.994C51.2831 429.358 50.608 426.736 50.8762 424.101C52.1754 422.95 54.0804 423.241 55.6803 422.963V422.945ZM53.1742 425.715C53.6874 429.783 53.9787 433.88 54.5104 437.954C57.4835 438.619 60.7664 438.633 63.3696 436.849C62.9072 432.803 62.5373 428.743 62.0333 424.707C59.0787 424.989 56.1195 425.303 53.1742 425.696V425.715Z" fill="black"/>
<path d="M348.871 424.6C349.611 423.578 350.993 423.819 352.107 423.772C356.195 423.846 360.291 423.671 364.374 423.879C364.648 425.631 364.716 427.409 364.578 429.178C364.49 432.817 364.656 436.465 364.439 440.104C359.376 440.247 354.304 440.201 349.241 440.104C348.196 438.453 347.174 436.724 346.836 434.772C346.374 431.281 346.799 427.508 348.894 424.6H348.871ZM350.147 438.615C354.419 438.615 358.696 438.615 362.973 438.615C362.973 434.204 362.973 429.793 362.973 425.386C358.729 425.386 354.484 425.386 350.244 425.386C347.756 429.358 347.525 434.68 350.142 438.633L350.147 438.615Z" fill="black"/>
<path d="M468.625 423.934C469.134 422.64 470.396 424.572 469.767 425.321C468.2 428.905 465.809 432.063 463.451 435.161C462.064 436.747 461.084 438.73 459.438 440.062C458.365 440.635 458.481 438.938 458.975 438.518C462.341 433.769 466.438 429.418 468.625 423.934Z" fill="black"/>
<path d="M466.863 432.234C468.292 431.651 468.061 433.394 467.566 434.167C466.567 435.762 465.504 437.403 464.066 438.638L462.753 438.753C463.719 436.34 465.717 434.555 466.863 432.234Z" fill="black"/>
</svg>
