<svg width="520" height="466" viewBox="0 0 520 466" fill="none" xmlns="http://www.w3.org/2000/svg">
<path d="M49.5605 -24H51.9534C51.9534 -11.0895 51.9375 1.821 52.0087 14.7315C63.8858 14.7737 75.7629 14.6585 87.636 14.7929C87.7151 1.86324 87.6874 -11.0703 87.6914 -24H90.0605C90.0565 -11.0588 90.017 1.88628 90.187 14.8275C101.625 14.6163 113.071 14.7929 124.513 14.7353C135.271 14.7353 146.025 14.7315 156.783 14.7392C156.767 1.82484 156.794 -11.0857 156.783 -24H159.156C159.156 -15.5556 159.16 -7.11497 159.156 1.32947C159.061 5.80321 159.519 10.2616 159.365 14.7353C183.618 14.7315 207.866 14.743 232.115 14.7277C232.067 1.821 232.166 -11.0895 232.127 -24H234.504C234.504 -11.0895 234.468 1.82484 234.583 14.7353C259.44 14.743 284.298 14.72 309.16 14.7469C309.065 1.83252 309.171 -11.0857 309.132 -24H311.446C311.454 -14.1386 311.422 -4.27712 311.461 5.58048C311.663 8.66026 311.647 11.74 311.659 14.8237C320.594 14.6201 329.532 14.7891 338.467 14.7353C352.131 14.7469 365.796 14.7161 379.457 14.7507C379.35 1.83636 379.441 -11.0818 379.41 -24H381.81C381.81 -15.6784 381.81 -7.35306 381.806 0.968493C381.814 2.74647 381.715 4.53597 381.933 6.30627C382.392 9.0942 382.143 11.9244 382.194 14.7353C390.689 14.7353 399.185 14.7353 407.68 14.7353C410.663 14.743 413.653 14.6662 416.635 14.8544C416.603 1.90164 416.643 -11.0473 416.627 -24H419.004C419 -15.5556 419.004 -7.10729 419 1.33715C418.905 5.82241 419.368 10.2923 419.217 14.7776C419.083 19.9502 419.518 25.1498 418.929 30.2994C415.863 30.7333 412.763 30.549 409.682 30.5759C405.948 30.5835 402.218 30.5759 398.493 30.5835C398.481 37.995 398.513 45.4064 398.473 52.814C398.489 53.5436 398.461 54.2925 398.702 54.9952C400.055 56.297 402.131 56.7002 403.298 58.2363C404.24 59.2962 403.986 60.79 404.117 62.0841C405.865 62.5718 407.554 63.2361 409.191 64.0157C411.133 62.3875 413.107 60.5596 415.662 59.9183C418.169 59.3499 420.305 61.1778 421.938 62.7791C423.979 64.9335 425.984 67.779 425.292 70.8626C424.434 73.9885 422.006 76.4462 419.356 78.2817C419.791 81.1196 419.996 84.0035 419.996 86.8759C419.383 88.0549 417.936 88.5771 416.888 89.3567C407.585 95.4164 398.192 101.365 388.997 107.559C386.268 108.25 383.337 107.866 380.647 107.163C374.398 105.458 369.656 100.17 367.881 94.2259C366.627 90.1208 367.157 85.5818 369.138 81.7724C369.633 80.7778 370.562 80.102 371.468 79.476C376.467 76.0852 381.439 72.656 386.43 69.2574C386.501 66.1969 386.208 63.144 386.248 60.0834C386.374 57.8139 388.494 56.3354 390.42 55.4215C390.638 54.1773 390.808 52.9215 390.808 51.6581C390.772 44.6346 390.796 37.6071 390.796 30.5835C287.442 30.5797 184.084 30.5759 80.7305 30.5835C80.7305 37.6033 80.7581 44.623 80.7186 51.6428C80.7028 52.9254 80.8333 54.208 81.122 55.4637C83.0323 56.3585 85.1522 57.8215 85.2195 60.0949C85.2392 63.1478 85.0692 66.2007 85.0929 69.2536C90.0842 72.702 95.1032 76.1121 100.11 79.5375C101.04 80.1864 101.953 80.9237 102.452 81.9491C104.204 85.3668 104.698 89.3528 103.915 93.0854C102.966 97.2558 100.549 101.092 97.2112 103.861C93.4302 106.987 88.2609 108.338 83.3566 107.785C82.4311 107.705 81.7232 107.094 81.0113 106.583C79.362 105.343 77.5901 104.272 75.8657 103.143C68.1098 98.1121 60.3697 93.0624 52.602 88.0548C52.2539 87.7208 51.5974 87.5211 51.5816 86.9796C51.4076 84.0688 51.7477 81.1618 52.1116 78.2779C49.4063 76.3194 46.8315 73.7773 46.1117 70.4632C45.6925 67.7483 47.3615 65.2522 49.0978 63.2784C50.7945 61.5196 52.9738 59.4075 55.6949 59.8914C58.3131 60.4828 60.3302 62.3567 62.2998 64.0157C63.9293 63.24 65.6142 62.5795 67.3623 62.0879C67.4651 60.8476 67.2634 59.4421 68.094 58.3899C69.1381 56.9882 70.8546 56.3623 72.2982 55.4484C73.1486 55.0183 72.9113 53.943 72.9943 53.1827C72.9587 45.6407 72.9904 38.0948 72.9746 30.5528C66.0295 30.5183 59.0804 30.6565 52.1353 30.5528C51.0595 30.5605 49.5052 30.4107 49.5922 29.0206C49.4142 11.3522 49.6317 -6.3239 49.5605 -24ZM51.9652 17.1431C51.9296 20.8219 51.9534 24.4969 51.9494 28.1758C63.8581 28.1911 75.7668 28.1643 87.6756 28.1796C87.7349 24.5085 87.5688 20.8296 87.7903 17.1661C75.8499 17.1085 63.9056 17.1469 51.9652 17.1431ZM90.1554 17.1393C90.1673 20.7336 90.1277 24.328 90.1712 27.9223C99.3826 24.7043 108.622 21.5554 117.837 18.3412C119.031 17.9188 120.242 17.5463 121.472 17.2276C111.038 17.0202 100.593 17.1969 90.1554 17.1393ZM127.59 17.2084C137.45 20.5685 147.132 24.424 156.972 27.8379C156.806 24.2704 156.937 20.6991 156.893 17.1316C147.124 17.1546 137.355 17.0548 127.59 17.2084ZM159.373 17.1393C159.373 20.8181 159.337 24.5008 159.401 28.1796C167.667 25.4723 175.929 22.7382 184.195 20.0309C187.173 19.1016 190.088 17.9687 193.126 17.2276C188.981 17.001 184.832 17.1892 180.683 17.1393C173.58 17.0548 166.476 17.1853 159.373 17.1393ZM200.988 17.2122C203.176 17.7614 205.291 18.5332 207.427 19.236C215.705 21.9855 223.979 24.7427 232.261 27.4769C232.265 24.0323 232.229 20.5839 232.226 17.1393C221.816 17.1892 211.398 17.0433 200.988 17.2122ZM234.587 17.1354C234.618 20.5723 234.634 24.0054 234.666 27.4423C245.515 24.0861 256.257 20.3995 267.161 17.2161C256.304 17.0356 245.443 17.193 234.587 17.1354ZM273.426 17.0433C273.386 20.7528 273.418 24.4624 273.41 28.1719C282.712 28.1911 292.018 28.1604 301.325 28.1835C303.286 28.3025 305.256 28.2411 307.214 28.0491C303.626 27.1773 300.201 25.7872 296.689 24.6889C288.921 22.1698 281.249 19.3819 273.426 17.0433ZM278.694 17.2161C281.585 17.9879 284.377 19.044 287.217 19.9579C294.526 22.4118 301.847 24.8157 309.144 27.3002C309.183 23.9132 309.152 20.5301 309.164 17.1469C299.007 17.17 288.85 17.0471 278.694 17.2161ZM311.544 17.1585C311.651 20.5071 311.643 23.8595 311.647 27.2081C321.357 23.8864 331.007 20.388 340.769 17.2161C331.027 17.0548 321.286 17.1585 311.544 17.1585ZM351.036 17.2084C360.678 20.3304 370.194 23.8326 379.793 27.0775C379.809 23.7673 379.801 20.4571 379.801 17.1431C370.214 17.1777 360.623 17.0548 351.036 17.2084ZM382.198 17.1393C382.198 20.8181 382.194 24.4969 382.198 28.1719C393.751 28.1451 405.311 28.2372 416.856 28.1451C416.611 24.4777 416.888 20.8027 416.734 17.1316C405.224 17.1508 393.711 17.1316 382.198 17.1393ZM197.081 17.362C197.073 20.9679 197.077 24.5699 197.073 28.1719C202.025 28.0836 206.972 28.3755 211.92 28.1796C217.845 28.1143 223.777 28.3025 229.702 28.0759C227.317 27.4922 225.023 26.6397 222.698 25.8794C214.159 23.0415 205.616 20.2037 197.081 17.362ZM237.205 28.0798C241.16 28.2027 245.115 28.2795 249.074 28.1758C256.668 28.1758 264.262 28.1719 271.855 28.1873C271.843 24.5161 271.863 20.845 271.843 17.1738C260.283 20.7605 248.817 24.6621 237.205 28.0798ZM313.269 28.0836C323.801 28.2833 334.345 28.1527 344.882 28.1527C344.87 24.5507 344.886 20.9487 344.874 17.3466C334.286 20.772 323.888 24.7542 313.269 28.0836ZM346.329 17.1277C346.317 20.8027 346.329 24.4816 346.321 28.1566C347.658 28.2257 348.999 28.2487 350.34 28.195C359.709 28.1105 369.087 28.2795 378.456 28.1028C367.679 24.6352 357.087 20.6415 346.329 17.1277ZM101.249 25.6567C98.7814 26.4861 96.353 27.4308 93.8336 28.1105C103.733 28.2833 113.637 28.1297 123.54 28.1758C123.532 24.7696 123.536 21.3596 123.536 17.9495C116.109 20.5301 108.677 23.0876 101.249 25.6567ZM125.102 17.8036C125.083 21.2597 125.098 24.7158 125.094 28.1758C134.583 28.1374 144.071 28.2641 153.559 28.1182C151.376 27.4999 149.276 26.6436 147.148 25.8755C139.796 23.1913 132.463 20.4648 125.102 17.8036ZM180.216 22.9033C174.826 24.5968 169.526 26.5821 164.072 28.0798C174.549 28.3025 185.038 28.122 195.519 28.1719C195.515 24.7427 195.522 21.3096 195.515 17.8804C190.413 19.547 185.314 21.229 180.216 22.9033ZM75.1973 30.5682C75.2013 38.6516 75.1736 46.7313 75.2131 54.8147C76.3087 54.7648 77.4161 54.7264 78.484 54.4422C78.5868 46.4932 78.4958 38.5364 78.5196 30.5835C77.4122 30.5797 76.3047 30.5797 75.1973 30.5682ZM392.952 30.5835C392.904 38.5441 393.023 46.5085 392.884 54.4653C394.024 54.6496 395.174 54.7533 396.337 54.761C396.329 46.7044 396.337 38.644 396.333 30.5874C395.202 30.5797 394.075 30.5797 392.952 30.5835ZM71.3688 58.4052C70.6015 58.8661 69.593 59.4459 69.6563 60.4597C69.4664 67.6407 69.4546 74.8256 69.4348 82.0105C69.3596 83.0512 69.8777 84.3914 71.1434 84.4029C72.1677 84.0765 72.9311 83.0588 72.7689 81.9951C72.3971 76.4884 72.8401 70.974 72.7808 65.4634C72.8045 64.1117 72.6977 62.5526 73.7458 61.5004C74.8572 60.356 76.629 60.621 78.0885 60.4328C79.1919 60.2792 80.5723 60.4674 81.0587 61.5964C81.5333 63.0518 81.0508 64.6301 81.4068 66.1047C81.8458 66.577 82.3639 66.9687 82.8622 67.3796C82.9888 64.8951 83.1866 62.4028 83.0165 59.9221C82.4746 57.9137 79.8366 57.7601 78.9151 55.986C77.5427 56.1396 76.1584 56.1972 74.7781 56.1933C73.8091 57.1534 72.5791 57.7793 71.3688 58.4052ZM388.53 59.7301C388.328 62.2723 388.554 64.8336 388.57 67.3835C389.099 66.9649 389.633 66.5425 390.171 66.1277C390.286 64.5648 389.898 62.8944 390.543 61.4159C391.188 60.2715 392.687 60.3522 393.838 60.4559C395.111 60.6248 396.626 60.4367 397.627 61.389C398.884 62.518 398.718 64.3267 398.754 65.8474C398.75 71.358 398.936 76.8724 398.762 82.383C398.623 83.5158 399.802 84.0803 400.617 84.6064C401.289 84.0227 402.135 83.3814 402.025 82.3907C401.973 74.9408 402.088 67.4756 401.815 60.0335C400.81 58.0558 398.125 57.8408 396.717 56.1895C395.333 56.1972 393.952 56.1473 392.584 55.9783C391.662 57.6756 389.254 57.9175 388.53 59.7301ZM53.5789 62.303C51.2533 63.6854 49.3747 65.8512 48.4215 68.3358C47.7531 70.1445 48.8842 71.861 49.782 73.3625C51.1268 69.3189 54.0179 65.8282 57.6012 63.4281C57.5893 63.3206 57.5735 63.1017 57.5617 62.9904C56.4424 62.2262 54.8643 61.4351 53.5789 62.303ZM413.518 63.1862C417.232 65.5978 420.356 69.1346 421.654 73.3357C422.627 71.8534 423.829 70.0754 423.05 68.259C422.065 65.7629 420.135 63.6009 417.782 62.2339C416.31 61.3583 414.803 62.5487 413.518 63.1862ZM75.6917 62.7331C76.7833 63.5971 77.9342 64.3882 79.1089 65.1447C79.1168 64.273 79.1247 63.4051 79.1287 62.5372C77.9817 62.5795 76.8347 62.6409 75.6917 62.7331ZM392.406 62.5219C392.402 63.4051 392.406 64.2883 392.418 65.1715C393.573 64.3574 394.743 63.5549 395.898 62.7292C394.732 62.6486 393.569 62.5795 392.406 62.5219ZM411.125 65.2829C414.875 67.9211 417.461 71.8687 418.786 76.1389C419.522 75.4861 420.246 74.8218 420.95 74.1344C419.348 70.0024 416.591 66.0356 412.466 63.9581C412.015 64.3997 411.564 64.8375 411.125 65.2829ZM50.5968 74.2726C51.2929 74.8871 51.9929 75.4976 52.6969 76.1044C54.0495 71.7881 56.7311 67.9249 60.4291 65.1792C59.9189 64.7799 59.4087 64.3805 58.9024 63.9811C54.888 66.1815 51.9731 70.0447 50.5968 74.2726ZM58.1945 70.2444C54.5281 74.745 53.4958 80.7164 53.832 86.3191C61.5365 91.3036 69.2449 96.2842 76.9138 101.322C77.159 98.2888 77.598 95.2436 78.745 92.3942C81.2446 85.8161 86.5919 80.5282 92.8686 77.2027C86.936 73.04 80.9005 69.0155 74.9481 64.8759C74.873 70.709 74.7227 76.5422 74.9284 82.3753C75.0431 84.7255 72.5276 87.0027 70.0913 86.3729C68.3748 85.8775 67.2516 84.111 67.2832 82.4099C67.2714 76.3578 67.4058 70.3058 67.386 64.2538C63.7988 65.306 60.4884 67.3451 58.1945 70.2444ZM404.081 64.2614C404.058 70.3096 404.311 76.354 404.24 82.3984C404.228 84.2224 402.962 86.1924 400.988 86.4458C398.789 86.7377 396.812 84.8215 396.547 82.7977C396.863 76.8378 396.642 70.8665 396.515 64.9027C390.587 69.0424 384.531 73.0131 378.654 77.2257C382.847 79.4607 386.632 82.4982 389.408 86.3038C392.647 90.6393 394.352 95.9463 394.542 101.28C402.302 96.3265 409.998 91.2729 417.718 86.2577C417.9 81.7033 417.327 76.9838 415.092 72.9171C412.846 68.7237 408.764 65.5325 404.081 64.2614ZM91.7493 80.2786C92.9121 81.0965 93.9997 82.022 95.2416 82.7324C96.353 82.2447 97.3418 81.5382 98.3859 80.9353C97.2112 80.1788 96.1434 79.2418 94.858 78.6696C93.7426 79.0459 92.7657 79.7103 91.7493 80.2786ZM373.153 80.9621C374.205 81.5804 375.257 82.2025 376.309 82.8246C377.416 81.9414 378.571 81.1196 379.738 80.3093C378.706 79.6795 377.642 79.092 376.546 78.5697C375.407 79.3608 374.276 80.1557 373.153 80.9621ZM90.2661 81.3308C88.6406 82.3523 87.2801 83.7117 85.9037 85.0212C87.1891 85.8967 88.4705 86.7799 89.7757 87.6286C91.1125 86.2692 92.5087 84.9636 93.9641 83.727C92.742 82.9244 91.6702 81.8223 90.2661 81.3308ZM377.539 83.7078C378.971 84.9597 380.398 86.2231 381.7 87.6056C383.021 86.7991 384.29 85.9121 385.572 85.0404C384.211 83.6502 382.74 82.3676 381.162 81.2156C379.92 82.0067 378.725 82.8515 377.539 83.7078ZM94.8066 85.8161C97.235 87.5326 99.4024 90.0709 99.3233 93.1469C99.0701 97.1944 95.9733 101.223 91.7176 101.899C89.3762 102.386 87.0032 101.772 84.7923 101.046C84.377 102.586 84.025 104.141 83.7956 105.719C85.9274 105.804 88.1067 105.792 90.1633 105.17C96.1196 103.55 100.553 98.2773 101.819 92.5056C102.594 89.0879 101.847 85.5319 100.336 82.406C98.3345 83.2854 96.527 84.5027 94.8066 85.8161ZM369.423 88.8958C369.118 94.0109 371.776 99.0069 375.723 102.29C379.014 105.021 383.475 106.092 387.739 105.712C387.462 104.149 387.106 102.597 386.715 101.058C384.334 101.829 381.755 102.451 379.263 101.795C375.632 101 373.03 97.7512 372.318 94.3219C371.756 91.5609 373.105 88.7346 375.284 86.9796C375.629 86.538 376.435 86.273 376.368 85.6317C374.849 84.2838 373.018 83.3277 371.223 82.383C370.218 84.4221 369.451 86.6148 369.423 88.8958ZM83.1233 88.5157C84.5352 89.2338 85.9037 90.0287 87.2721 90.8159C87.7784 90.14 88.2847 89.468 88.8028 88.7998C87.5015 87.932 86.2241 87.0334 84.8872 86.2231C84.2821 86.9758 83.7007 87.7438 83.1233 88.5157ZM382.712 88.8229C383.226 89.4872 383.744 90.1554 384.266 90.8197C385.599 90.0172 386.948 89.2376 388.34 88.5272C387.794 87.7553 387.233 86.9873 386.675 86.227C385.287 86.995 384.001 87.9128 382.712 88.8229ZM93.0782 87.2983C89.6689 90.6009 87.0546 94.6253 85.437 99.0261C88.1225 100.036 91.4606 100.52 93.9404 98.7726C96.088 97.1713 97.587 94.3987 96.966 91.7337C96.4242 89.7676 94.7789 88.3582 93.0782 87.2983ZM374.486 91.9449C373.967 94.4986 375.435 97.0983 377.436 98.6805C379.9 100.539 383.297 100.036 386.026 99.0568C384.488 94.6138 381.814 90.574 378.385 87.2868C376.685 88.4389 374.94 89.8789 374.486 91.9449ZM82.2967 89.8367C81.0073 92.2252 80.066 94.7789 79.5242 97.4248C80.7542 97.9086 81.9684 98.427 83.1826 98.9493C84.029 96.5761 85.085 94.272 86.4179 92.1177C85.1008 91.2652 83.7403 90.4741 82.2967 89.8367ZM385.109 92.0409C386.351 94.2874 387.506 96.5876 388.328 99.0146C389.527 98.4386 390.741 97.8933 391.983 97.4017C391.397 94.7636 390.507 92.1791 389.155 89.8136C387.771 90.4933 386.438 91.269 385.109 92.0409ZM79.2987 98.9224C79.2078 100.193 79.1603 101.465 79.1207 102.736C80.0146 103.308 80.9045 103.884 81.7944 104.464C82.0475 103.1 82.3639 101.753 82.7159 100.416C81.5808 99.9093 80.4536 99.3909 79.2987 98.9224ZM388.791 100.409C389.123 101.756 389.44 103.112 389.728 104.475C390.618 103.872 391.516 103.281 392.426 102.701C392.374 101.442 392.287 100.182 392.145 98.9301C391.018 99.4063 389.906 99.9093 388.791 100.409Z" fill="black"/>
<path d="M338.57 39.4581C338.819 39.4773 339.326 39.5196 339.579 39.5388C338.404 42.488 337.218 45.4372 336.17 48.4363C339.108 50.967 342.007 53.5475 344.958 56.0667C341.196 55.5943 337.439 55.099 333.686 54.5882C332.448 57.6872 331.234 60.7939 330.035 63.9082C329.027 60.5289 328.085 57.1304 327.12 53.7396C323.869 53.3095 320.622 52.8602 317.371 52.4762C320.009 50.798 322.703 49.2005 325.368 47.557C324.577 44.8919 323.834 42.2115 323.074 39.5388C325.447 41.19 327.903 42.7376 330.304 44.3543C333.144 42.8643 335.853 41.1555 338.57 39.4581Z" fill="black"/>
<path d="M329.477 67.157C330.284 68.0863 331.094 69.0118 331.937 69.9142C333.361 69.4918 334.788 69.077 336.244 68.7468C335.441 69.8988 334.595 71.0201 333.76 72.1491C334.65 73.5009 335.544 74.8488 336.438 76.2043C334.97 75.6014 333.511 74.9947 332.051 74.3841C331.197 75.5131 330.343 76.6459 329.5 77.7826C329.5 76.3003 329.497 74.8219 329.5 73.3434C328.239 72.8058 326.969 72.2835 325.704 71.7575C326.969 71.385 328.235 71.0125 329.504 70.6285C329.489 69.4726 329.485 68.3129 329.477 67.157Z" fill="black"/>
<path d="M120.393 71.1008C122.311 70.206 124.075 68.9695 126.12 68.3474C126.982 68.6201 126.903 69.7721 126.1 70.0486C121.037 72.7367 115.896 75.2865 110.817 77.9477C110.149 78.3548 109.358 78.3701 108.599 78.3932C108.583 78.0245 108.567 77.6597 108.555 77.2987C112.403 75.0638 116.457 73.1821 120.393 71.1008Z" fill="black"/>
<path d="M344.527 69.0079C344.792 68.8312 345.318 68.4818 345.583 68.309C351.029 71.0009 356.396 73.8349 361.803 76.5998C362.609 76.9032 362.93 77.6251 362.942 78.4354C362.21 78.3778 361.451 78.3739 360.802 78.0091C355.969 75.513 351.144 73.0131 346.291 70.5593C345.543 70.2252 344.998 69.6338 344.527 69.0079Z" fill="black"/>
<path d="M70.0752 81.4883C70.4074 81.35 71.0719 81.0735 71.4041 80.9353C71.681 81.5612 71.7798 82.2371 71.8075 82.913C71.2736 82.9245 70.7436 82.9322 70.2097 82.936C70.1622 82.4521 70.1187 81.9683 70.0752 81.4883Z" fill="black"/>
<path d="M399.723 81.6111C400.087 80.5781 401.119 81.3538 401.633 81.8184C401.471 82.1487 401.155 82.8092 400.997 83.1394C400.265 82.9244 399.201 82.5289 399.723 81.6111Z" fill="black"/>
<path d="M57.4395 82.1948C58.6181 81.8031 60.1448 82.2179 60.5759 83.4467C60.7736 84.5603 60.7934 85.9466 59.7453 86.6801C58.5153 87.7976 56.2609 86.9796 55.897 85.4436C55.6676 84.2032 56.2292 82.7516 57.4395 82.1948ZM57.5344 84.1648C57.4514 84.6295 57.4395 85.1056 57.4118 85.578C57.9457 85.5895 58.4757 85.601 59.0097 85.6049C59.0492 84.9136 59.0769 84.2262 59.0888 83.535C58.5548 83.6771 57.8983 83.6963 57.5344 84.1648Z" fill="black"/>
<path d="M412.193 82.1949C413.893 81.5037 415.725 82.9668 415.57 84.691C416.005 86.7109 413.019 88.0357 411.627 86.5957C410.393 85.4552 410.425 82.8362 412.193 82.1949ZM412.679 85.843C413.189 85.6433 413.759 85.5051 414.174 85.1211C414.293 84.3185 413.668 83.6849 412.901 83.5466C411.896 83.9076 412.596 85.1249 412.679 85.843Z" fill="black"/>
<path d="M110.492 87.0872C112.272 87.0065 114.048 87.2216 115.808 87.475C121.938 88.2354 128.073 88.9919 134.203 89.7407C135.504 89.9058 136.837 89.9788 138.091 90.3782C138.368 91.0003 138.225 91.4649 137.664 91.7721C136.426 91.8182 135.204 91.5724 133.978 91.4303C127.926 90.6662 121.867 89.9404 115.812 89.1877C114.008 88.9842 112.193 88.7999 110.437 88.3506C110.453 87.9282 110.473 87.5057 110.492 87.0872Z" fill="black"/>
<path d="M353.918 87.6978C356.311 87.4482 358.704 86.8952 361.129 87.1448C361.132 87.525 361.144 87.9051 361.156 88.2853C359.942 88.6232 358.7 88.8613 357.446 88.9881C349.532 89.8751 341.65 91.0233 333.728 91.8259C333.546 91.5571 333.368 91.296 333.194 91.0348C333.348 90.766 333.502 90.5049 333.665 90.2399C340.4 89.2991 347.167 88.558 353.918 87.6978Z" fill="black"/>
<path d="M88.5689 98.2504C88.557 96.2497 90.9696 95.9117 92.524 95.5239C93.7935 95.1168 94.2444 96.841 93.4534 97.5783C92.3697 99.1682 90.1351 98.9454 88.5689 98.2504ZM89.3599 97.4555C89.9334 97.7588 90.5583 98.0737 91.2346 97.9508C92.2234 97.9624 92.7059 96.9831 93.2715 96.3687C91.9228 96.5492 90.5978 96.891 89.3599 97.4555Z" fill="black"/>
<path d="M377.784 95.5277C379.516 95.401 381.126 96.1191 382.644 96.841C382.656 97.3671 382.668 97.8932 382.688 98.4231C381.312 98.7956 379.623 99.1182 378.472 98.0583C377.578 97.4977 377.803 96.3994 377.784 95.5277ZM379.591 97.7972C380.414 98.0622 381.3 97.8625 382.15 97.8318C381.157 96.7988 379.674 96.5761 378.318 96.3572C378.689 96.8641 378.994 97.4862 379.591 97.7972Z" fill="black"/>
<path d="M110.885 97.8356C113.096 97.7434 115.243 98.2926 117.407 98.6382C119.444 98.9915 121.528 99.1988 123.494 99.867C123.47 100.255 123.45 100.639 123.43 101.027C121.524 101.207 119.661 100.723 117.798 100.42C115.469 100.001 113.104 99.7518 110.833 99.0951C110.849 98.6727 110.865 98.2542 110.885 97.8356Z" fill="black"/>
<path d="M354.722 98.5307C356.708 98.2197 358.697 97.6667 360.73 97.8971C360.738 98.2696 360.75 98.6497 360.766 99.0261C358.816 99.6866 356.751 99.894 354.73 100.243C352.539 100.585 350.364 101.154 348.129 101.077C348.157 100.593 348.193 100.109 348.236 99.6251C350.396 99.2526 352.559 98.8917 354.722 98.5307Z" fill="black"/>
<path d="M355.683 111.023C358.507 108.788 361.359 106.587 364.183 104.352C364.456 104.36 364.998 104.379 365.27 104.391C365.251 104.744 365.235 105.101 365.223 105.458C362.628 107.478 360.042 109.502 357.475 111.553C356.787 112.121 355.972 112.513 355.149 112.843C355.272 112.232 355.027 111.407 355.683 111.023Z" fill="black"/>
<path d="M73.1102 111.541C73.5571 110.954 74.3244 110.954 74.9968 110.865C74.9018 111.522 74.8979 112.259 74.3402 112.735C71.5796 115.692 68.728 118.572 65.9792 121.541C65.4294 122.178 64.2904 123.142 63.709 121.994C63.8197 121.122 64.5593 120.546 65.1091 119.916C67.7946 117.14 70.4366 114.329 73.1102 111.541Z" fill="black"/>
<path d="M377.421 111.326C377.848 111.341 378.283 111.361 378.718 111.38C378.805 114.033 378.05 116.61 377.69 119.221C376.622 125.151 375.804 131.126 374.57 137.028C374.087 137.016 373.601 137.005 373.126 136.993C373.162 134.255 373.913 131.587 374.285 128.883C375.372 123.038 376.069 117.117 377.421 111.326Z" fill="black"/>
<path d="M396.208 111.391C396.77 111.203 397.573 110.6 398.075 111.264C401.124 114.321 404.035 117.512 407.045 120.608C407.614 121.084 407.551 121.829 407.626 122.489C407.235 122.485 406.847 122.481 406.467 122.481C404.49 120.392 402.457 118.353 400.507 116.241C399.052 114.644 397.367 113.223 396.208 111.391Z" fill="black"/>
<path d="M92.826 113.469C92.7785 112.739 92.3553 111.806 93.1385 111.307C94.4001 110.992 94.3527 112.301 94.5544 113.116C95.5431 119.025 96.5517 124.935 97.5444 130.845C97.8687 132.888 98.4224 134.924 98.2563 137.013C97.8529 137.032 97.4495 137.055 97.0461 137.078C96.3697 135.158 96.1878 133.13 95.8319 131.145C94.8233 125.254 93.8543 119.356 92.826 113.469Z" fill="black"/>
<path d="M371.17 112.163C371.594 111.491 372.313 112.148 372.855 112.267C371.882 114.429 370.36 116.291 369.126 118.307C368.414 119.329 367.828 120.803 366.286 120.692C366.179 119.075 367.378 117.854 368.188 116.568C369.209 115.116 370.055 113.549 371.17 112.163Z" fill="black"/>
<path d="M98.7832 112.017C99.3686 112.148 100.239 111.833 100.579 112.486C101.991 114.483 103.288 116.556 104.645 118.588C105.147 119.225 105.005 120.051 105.008 120.796C103.284 120.458 102.746 118.688 101.833 117.47C100.781 115.673 99.1906 114.11 98.7832 112.017Z" fill="black"/>
<path d="M78.6817 121.545C79.536 119.517 80.0343 117.32 81.3316 115.493C81.7113 115.731 82.0949 115.969 82.4786 116.207C81.6599 118.956 80.4575 121.579 79.5083 124.283C79.0733 125.377 78.745 126.94 77.1788 126.836C77.0878 124.951 78.0647 123.273 78.6817 121.545Z" fill="black"/>
<path d="M389.255 115.719C389.516 115.685 390.031 115.619 390.288 115.585C391.34 117.263 391.878 119.171 392.605 120.988C393.286 122.85 394.207 124.651 394.472 126.633C393.978 126.656 393.491 126.683 393.005 126.706C391.803 123.914 390.81 121.045 389.667 118.234C389.307 117.44 389.236 116.572 389.255 115.719Z" fill="black"/>
<path d="M364.788 152.58C369.724 151.824 374.941 153.076 378.916 156.021C383.365 159.258 386.177 164.516 386.264 169.922C386.426 174.765 384.409 179.638 380.818 183.01C376.554 187.134 370.108 188.985 364.223 187.756C359.955 186.927 356.039 184.569 353.346 181.259C349.462 176.57 348.284 169.926 350.372 164.254C352.496 158.179 358.262 153.533 364.788 152.58ZM365.192 154.842C361.197 155.445 357.455 157.557 355.003 160.679C352.425 163.913 351.25 168.168 351.855 172.219C352.349 175.794 354.153 179.181 356.882 181.627C360.481 184.899 365.686 186.45 370.555 185.617C375.004 184.937 379.105 182.33 381.482 178.613C384.03 174.738 384.607 169.746 383.084 165.407C380.798 158.275 372.773 153.525 365.192 154.842Z" fill="black"/>
<path d="M360.397 164.7C360.884 163.947 362.13 163.655 362.739 164.435C363.644 165.391 362.984 166.751 362.715 167.83C361.995 167.834 361.283 167.822 360.571 167.795C360.413 166.793 359.693 165.633 360.397 164.7Z" fill="black"/>
<path d="M374.174 166.582C374.83 166.086 375.613 166.589 376.321 166.701C376.357 167.68 376.495 168.813 375.665 169.546C375.17 170.195 374.268 170.072 373.557 170.199C372.936 169.028 372.955 167.369 374.174 166.582Z" fill="black"/>
<path d="M359.247 172.557C359.674 172.499 360.105 172.445 360.54 172.396C361.473 173.955 362.51 175.564 364.21 176.431C367.062 178.125 371.017 177.599 373.271 175.18C373.501 175.153 373.968 175.099 374.197 175.072C374.462 175.667 374.917 176.455 374.244 176.961C371.163 180.014 365.721 180.133 362.296 177.537C360.706 176.339 358.871 174.723 359.247 172.557Z" fill="black"/>
<path d="M393.16 175.644C393.959 176.558 394.758 177.472 395.564 178.386C397.016 177.983 398.456 177.564 399.923 177.219C399.124 178.382 398.27 179.504 397.435 180.64C398.329 181.988 399.219 183.336 400.113 184.684C398.649 184.085 397.19 183.482 395.739 182.868C394.872 183.993 394.022 185.126 393.176 186.258C393.176 184.776 393.172 183.294 393.168 181.815C391.91 181.289 390.644 180.771 389.391 180.245C390.644 179.868 391.906 179.496 393.168 179.127C393.164 177.968 393.16 176.804 393.16 175.644Z" fill="black"/>
<path d="M384.151 193.313C385.33 194.645 386.512 195.982 387.667 197.337C389.807 196.842 391.883 196.105 394.043 195.663C393.03 197.452 391.662 199.011 390.491 200.697C391.812 202.694 393.129 204.691 394.446 206.692C392.279 205.801 390.115 204.895 387.948 204.007C386.682 205.682 385.409 207.348 384.171 209.042C384.179 206.838 384.163 204.637 384.159 202.437C382.288 201.657 380.414 200.885 378.547 200.106C380.414 199.549 382.288 199.004 384.163 198.455C384.147 196.738 384.147 195.025 384.151 193.313Z" fill="black"/>
<path d="M57.3548 211.5C57.608 211.519 58.1182 211.557 58.3713 211.572C57.1966 214.526 56.0101 217.475 54.962 220.474C57.9006 223.005 60.7997 225.581 63.7462 228.104C59.9889 227.628 56.2316 227.137 52.4782 226.626C51.2363 229.725 50.0261 232.831 48.8277 235.946C47.8231 232.566 46.8779 229.168 45.9128 225.777C42.6618 225.347 39.4186 224.898 36.1636 224.514C38.8016 222.836 41.495 221.238 44.1607 219.595C43.3658 216.922 42.6262 214.238 41.8589 211.557C44.2912 213.155 46.6168 214.956 49.2034 216.304C52.0432 214.913 54.6654 213.135 57.3548 211.5Z" fill="black"/>
<path d="M99.2712 217.936C102.423 216.876 106.113 216.261 109.183 217.889C115.78 221.196 118.817 229.41 116.836 236.199C115.859 239.498 113.007 242.205 109.503 242.862C103.689 244.033 97.7999 245.381 91.8238 245.181C90.5859 245.296 89.4271 245.753 88.2484 246.111C86.4093 246.721 84.3448 247.024 82.9289 248.442C84.6216 266.609 86.0573 284.8 87.6552 302.979C95.6444 304.204 103.665 305.26 111.643 306.55C123.646 308.524 135.713 310.794 147.045 315.233C153.499 317.813 159.764 321.2 164.633 326.131C168.244 329.756 170.917 334.284 172.163 339.195C174.046 346.584 174.576 354.437 172.685 361.883C171.234 367.731 168.22 373.173 164.178 377.719C160.262 382.139 155.536 385.876 150.406 388.89C145.19 391.329 140.796 395.107 136.848 399.163C132.85 403.414 129.334 408.452 128.377 414.243C127.677 418.417 128.752 422.737 131.078 426.282C135.262 432.875 138.992 439.768 141.78 447.037C144.082 453.105 145.775 459.491 145.751 466H143.236C143.133 458.861 141.1 451.903 138.339 445.332C135.69 438.981 132.288 432.96 128.614 427.119C125.77 422.641 124.853 417.069 126.229 411.969C128.088 404.904 132.992 399.036 138.387 394.151C142.342 390.453 147.06 387.688 151.581 384.708C157.83 380.507 163.49 375.193 166.962 368.549C170.348 362.171 171.428 354.786 170.644 347.69C170.063 342.417 169.011 336.991 165.981 332.475C161.995 326.327 155.532 322.172 148.86 319.169C137.442 314.142 125.038 311.765 112.758 309.68C104.496 308.321 96.1942 307.203 87.9123 305.974C89.4429 323.374 90.8034 340.785 92.4645 358.173C95.4941 394.113 98.4565 430.06 101.518 466H99.7695C98.3101 448.854 96.8705 431.704 95.4229 414.558C93.6036 392.634 91.5509 370.726 89.8305 348.795C89.3124 342.82 88.7982 336.849 88.2959 330.874C86.7495 332.917 85.2584 334.998 83.5854 336.945C84.8708 352.344 86.1602 367.743 87.4653 383.138C87.6789 387.492 88.4857 391.79 88.7112 396.14C90.487 419.427 92.2747 442.713 94.0584 466H92.2945C90.4593 441.792 88.5846 417.588 86.7495 393.379C86.6071 391.463 86.2195 389.578 86.0811 387.665C83.7911 359.974 81.3943 332.294 79.1399 304.603C71.1388 303.19 63.0902 301.685 55.4767 298.832C49.5441 296.574 43.7776 293.64 39.0592 289.431C34.6968 285.591 31.4101 280.464 30.4055 274.785C29.2744 268.833 30.6151 262.708 33.1187 257.251C32.7113 256.095 32.1932 254.785 32.7904 253.603C33.178 252.608 34.1233 252.017 35.0685 251.587C37.6631 250.373 40.2457 249.14 42.8284 247.908C42.5674 245.995 42.1956 243.922 43.1092 242.113C43.564 241.149 44.533 240.55 45.5337 240.216C57.0192 236.36 68.4691 232.39 79.9547 228.527C81.687 228.016 83.0356 226.81 84.4792 225.812C89.0869 222.674 93.9398 219.76 99.2712 217.936ZM99.4373 219.675C94.0387 221.626 89.1027 224.621 84.4792 227.92C87.8371 228.845 91.282 230.435 93.1409 233.446C95.0788 236.483 94.6517 240.323 93.5364 243.568C97.9779 243.388 102.36 242.555 106.715 241.721C108.815 241.291 111.109 240.961 112.742 239.471C115.25 237.278 115.973 233.765 115.653 230.623C115.186 225.996 112.568 221.323 108.127 219.272C105.366 217.943 102.19 218.75 99.4373 219.675ZM79.3653 230.504C69.0149 234.01 58.6961 237.605 48.318 241.034C52.5144 244.025 55.1128 249.213 54.4563 254.286C61.3935 252.024 68.3426 249.797 75.3035 247.597C75.9798 246.107 76.6363 244.544 76.5296 242.881C76.6087 241.145 75.8532 239.529 75.6555 237.824C78.3014 237.113 80.9869 236.537 83.6131 235.769C84.0205 236.161 84.5228 236.506 84.7759 237.029C85.824 239.682 85.7211 242.624 85.0369 245.35C87.0619 244.667 89.1383 244.137 91.1594 243.438C91.9306 243.323 92.0097 242.493 92.2312 241.921C92.9471 239.482 93.0973 236.695 91.717 234.44C90.1034 231.748 86.9907 230.328 83.9928 229.59C82.3791 229.153 80.8564 230.059 79.3653 230.504ZM77.7596 239.029C78.1986 240.673 78.2619 242.378 78.2421 244.071C80.0417 242.962 82.0429 242.124 83.6526 240.746C83.8227 239.713 83.447 238.688 83.2255 237.689C81.3943 238.096 79.5868 238.607 77.7596 239.029ZM44.7941 242.259C43.6036 243.645 44.0505 245.588 44.1968 247.232C44.9997 246.859 45.7828 246.441 46.6411 246.203C48.6226 246.195 51.1696 247.581 50.695 249.824C50.5052 251.64 48.765 252.527 47.2818 253.28C48.4327 254.359 49.6984 255.672 51.4267 255.661C52.3127 255.603 52.7398 254.709 52.9296 253.979C53.3449 252.074 52.9257 250.093 52.2177 248.303C51.2131 245.911 49.6865 243.549 47.3253 242.24C46.558 241.744 45.5732 241.856 44.7941 242.259ZM77.5065 246.337C79.7885 245.154 82.6085 244.325 84.0244 242.075C81.7858 243.369 79.1676 244.302 77.5065 246.337ZM76.929 248.238C78.511 248.031 80.1445 247.869 81.6197 247.228C82.7509 246.721 83.004 245.419 83.4628 244.417C81.3112 245.734 78.958 246.729 76.929 248.238ZM46.1586 247.923C46.9179 248.906 47.6061 249.939 48.1796 251.037C48.6186 250.327 49.2989 249.44 48.7294 248.614C48.0135 248.031 47.0287 248.054 46.1586 247.923ZM36.089 252.969C37.0856 253.845 37.754 254.985 38.2405 256.187C41.104 254.528 44.1138 253.126 46.9812 251.475C46.7597 250.223 45.8975 249.309 44.7466 248.764C41.891 250.223 39.0276 251.675 36.089 252.969ZM76.3674 250.166C76.5928 254.593 77.0556 259.006 77.4234 263.426C78.5506 261.997 79.6501 260.549 80.8287 259.167C81.3864 258.449 82.1774 257.704 81.948 256.717C81.7344 254.209 81.5367 251.702 81.2756 249.198C79.6422 249.551 78.0048 249.862 76.3674 250.166ZM55.7219 255.63C54.2546 256.01 52.9138 256.752 51.4386 257.089C49.1644 257.132 47.4123 255.484 45.9608 253.987C43.2476 255.342 40.6215 256.859 37.932 258.253C37.3071 258.618 36.5517 258.464 35.8635 258.506C33.5577 263.357 32.3633 268.852 33.3362 274.167C34.06 278.402 36.2353 282.315 39.2016 285.468C42.8798 289.366 47.5824 292.211 52.4788 294.435C60.8042 298.225 69.8811 300.03 78.8789 301.585C77.3799 284.289 75.9719 266.989 74.5006 249.693C68.2002 251.54 61.9947 253.691 55.7219 255.63ZM34.1905 254.344C34.1787 254.551 34.1549 254.962 34.1431 255.169C35.3138 255.477 36.0296 256.391 36.6506 257.339C37.7184 255.788 35.5867 254.513 34.1905 254.344ZM78.2065 266.214C77.4748 267.012 77.8624 268.149 77.7952 269.117C79.0648 267.366 80.6033 265.83 82.0113 264.19C82.7746 263.364 82.3316 262.181 82.3672 261.195C80.9988 262.88 79.571 264.524 78.2065 266.214ZM82.656 265.154C81.0027 266.943 79.1636 268.679 78.1037 270.883C78.7879 281.213 79.8518 291.528 80.6072 301.861C82.3633 302.184 84.1312 302.461 85.8991 302.714C84.7719 290.199 83.7634 277.673 82.656 265.154ZM80.8722 304.872C81.6079 313.489 82.3712 322.103 83.0238 330.724C84.6256 328.619 86.1087 326.431 87.6908 324.315C87.228 318.105 86.6862 311.9 86.1048 305.702C84.3606 305.433 82.6164 305.156 80.8722 304.872ZM84.5781 330.428C83.9651 331.2 83.3956 332.006 82.9921 332.909C84.1154 332.283 84.8748 331.254 85.5392 330.209C86.4093 328.811 87.6117 327.552 87.9637 325.908C86.7099 327.325 85.7449 328.946 84.5781 330.428ZM84.8036 332.92C84.0837 333.646 83.4747 334.483 83.2057 335.474C84.59 334.257 85.5155 332.663 86.6704 331.258C87.3704 330.401 88.0428 329.484 88.2247 328.381C86.9393 329.791 86.1325 331.542 84.8036 332.92Z" fill="black"/>
<path d="M111.821 235.635C112.256 234.617 112.383 233.185 113.732 232.939C113.522 234.275 113.573 236.253 111.738 236.364C111.758 236.18 111.802 235.815 111.821 235.635Z" fill="black"/>
<path d="M110.127 237.313C110.507 237.332 110.891 237.355 111.274 237.382C111.247 237.693 111.219 238.004 111.195 238.319C110.827 238.361 110.463 238.407 110.1 238.457C110.104 238.069 110.115 237.689 110.127 237.313Z" fill="black"/>
<path d="M60.3162 242.366C62.1474 241.744 63.8283 243.945 63.326 245.584C63.0491 247.816 59.4619 248.411 58.398 246.448C57.8403 244.878 58.5443 242.823 60.3162 242.366ZM60.4348 243.868C59.6201 244.379 59.8771 245.392 59.8218 246.187C60.328 246.126 60.8461 246.099 61.3484 245.976C61.8468 245.565 61.8072 244.859 61.9694 244.298C61.4631 244.129 60.9727 243.895 60.4348 243.868Z" fill="black"/>
<path d="M47.5371 166C48.7157 167.348 49.9022 168.696 51.0848 170.047C53.2324 169.518 55.3246 168.773 57.5118 168.373C56.3846 170.105 55.0636 171.706 53.8771 173.396C55.1941 175.393 56.5191 177.382 57.8242 179.387C55.6569 178.5 53.4974 177.593 51.334 176.706C50.0763 178.365 48.8265 180.036 47.5648 181.695C47.5608 179.506 47.549 177.321 47.549 175.139C45.698 174.364 43.8391 173.611 42 172.816C43.8352 172.221 45.6901 171.691 47.545 171.157C47.5371 169.437 47.5331 167.717 47.5371 166Z" fill="black"/>
<path d="M83.1632 265.833C84.3577 267.178 85.5402 268.533 86.7228 269.889C88.8823 269.37 90.9824 268.629 93.1577 268.18C92.1215 269.985 90.7332 271.567 89.5467 273.276C90.8796 275.292 92.2203 277.296 93.5334 279.324C91.3423 278.437 89.167 277.523 86.9838 276.624C85.7142 278.291 84.4565 279.973 83.187 281.643C83.179 279.443 83.183 277.246 83.183 275.05C81.2846 274.259 79.3782 273.487 77.4956 272.669C79.3861 272.108 81.2846 271.555 83.183 271.002C83.1553 269.278 83.1553 267.554 83.1632 265.833Z" fill="black"/>
<path d="M50.1245 316.45C54.7836 312.579 61.4598 310.967 67.3924 312.625C70.4457 313.474 73.3645 315.264 74.9505 318.002C76.4178 320.436 76.5286 323.489 75.5833 326.124C74.3454 329.679 71.735 332.586 68.923 335.083C67.2698 336.588 65.2487 337.832 62.9627 338.132C60.7399 338.535 58.4974 337.863 56.5713 336.807C48.2656 339.648 40.0589 342.751 31.7176 345.497C33.972 358.3 36.4637 371.068 38.8051 383.86C39.1927 386.214 39.8928 388.545 39.8651 390.949C39.8572 392.427 40.1577 393.886 40.4148 395.342C44.5241 418.889 48.4911 442.46 52.6479 466H50.6585C47.2848 446.757 44.01 427.499 40.6719 408.252C39.5368 401.252 38.0972 394.29 37.2389 387.251C36.7959 384.77 36.3016 382.297 35.8467 379.82C35.0794 381.176 34.0432 382.385 33.4223 383.814C33.268 385.1 33.6833 386.371 33.9008 387.635C34.4189 389.92 34.5218 392.266 34.9173 394.574C38.6667 418.379 42.2816 442.203 46.0864 466H44.1089C40.2408 441.688 36.523 417.353 32.7143 393.034C29.8943 377.965 27.015 362.908 24.2188 347.836C21.1853 348.753 18.2506 350.101 15.0984 350.577C12.5593 350.259 11.1275 347.905 9.90936 345.981C8.2245 346.637 6.54359 347.306 4.85873 347.966C1.89639 354.744 1.19634 362.382 2.73486 369.582C3.81855 375.135 6.36957 380.258 8.83358 385.331C11.2145 389.632 13.283 394.094 15.2962 398.564C17.3844 404.554 18.6066 410.883 18.5275 417.223C18.5037 419.842 18.8004 422.488 18.3337 425.091C17.5743 428.912 16.364 432.637 14.9837 436.289C14.1136 438.532 13.7774 440.924 12.931 443.174C12.1954 445.094 12.1756 447.172 11.7722 449.169C11.0998 452.356 11.3806 455.686 12.2349 458.819C13.0536 461.315 14.3549 463.635 15.5097 466H13.3542C12.1835 463.635 10.8665 461.304 10.1902 458.75C9.3952 455.436 9.20931 451.953 9.88959 448.608C10.2772 446.654 10.289 444.626 11.0207 442.744C11.879 440.436 12.2429 437.986 13.1288 435.686C14.5566 431.884 15.8538 428.01 16.5302 424.008C16.7754 421.094 16.6251 418.164 16.5618 415.249C16.4471 410.172 15.3476 405.165 13.8684 400.311C11.8157 394.889 8.76239 389.9 6.33398 384.639C4.53046 380.853 2.69136 377.055 1.56416 373.015C-0.721869 365.043 -0.587398 356.326 2.53315 348.581C3.08291 347.325 3.12246 345.923 3.64057 344.667C4.9853 343.346 6.89955 342.813 8.58441 342.022C8.35897 339.733 8.13353 337.26 9.29632 335.167C9.85794 334.08 10.9456 333.374 12.1044 333.001C23.8629 329.292 35.6173 325.574 47.3758 321.873C47.878 319.91 48.4911 317.821 50.1245 316.45ZM51.8687 317.771C50.8285 318.555 50.3065 319.76 49.7488 320.882C50.4884 320.947 51.2755 320.912 51.9636 321.243C54.7955 322.433 57.6194 324.192 58.9483 327.011C60.3167 329.726 59.7116 332.89 58.62 335.589C61.0128 336.384 63.817 336.304 65.8815 334.764C68.7687 332.625 71.3672 329.979 72.9809 326.792C74.2188 324.338 74.4917 321.212 72.9413 318.831C71.5175 316.615 69.0535 315.218 66.4985 314.565C61.4637 313.271 55.891 314.622 51.8687 317.771ZM49.1674 323.505C44.3185 325.064 39.4617 326.581 34.6009 328.105C36.5428 330.259 38.283 332.863 38.2989 335.828C38.374 338.093 37.2864 340.209 35.8309 341.922C42.4042 339.518 49.025 337.237 55.6221 334.894C56.0927 334.66 56.769 334.556 56.8837 333.961C57.6906 332.041 57.9318 329.76 56.9549 327.852C55.8792 325.69 53.7039 324.257 51.4693 323.378C50.7257 323.025 49.903 323.282 49.1674 323.505ZM27.1377 330.724C28.5892 332.667 29.744 334.91 29.8706 337.348C30.0209 339.625 29.1824 341.849 27.9564 343.761C29.2892 343.396 30.8119 343.439 31.9352 342.552C34.1421 340.973 36.1592 338.639 36.1513 335.843C36.0761 333.132 34.2726 330.904 32.5007 328.977C30.7051 329.534 28.9214 330.133 27.1377 330.724ZM23.3764 331.638C20.5129 332.54 17.6692 333.504 14.7781 334.33C18.2625 337.705 19.71 342.82 18.7608 347.482C20.4496 346.86 22.1661 346.315 23.851 345.693C24.9545 343.873 26.6551 342.386 27.2879 340.317C28.3835 337.179 27.1218 333.673 24.8002 331.385C24.3098 331.335 23.8391 331.507 23.3764 331.638ZM11.4242 335.324C9.86981 336.861 10.1783 339.264 10.2811 341.238C11.353 340.904 12.4011 340.451 13.5283 340.328C15.4069 340.201 16.2493 343.274 14.5052 343.999C13.5599 344.499 12.5593 344.89 11.5824 345.328C12.3417 346.488 13.0853 347.751 14.3114 348.515C14.8136 348.807 15.5335 349.095 16.0318 348.631C17.0997 347.613 17.2302 346.038 17.2816 344.667C17.2302 341.845 16.364 338.973 14.5803 336.722C13.8407 335.816 12.7175 334.748 11.4242 335.324ZM26.2161 346.568C26.8924 350.816 27.8179 355.024 28.5377 359.268C29.4118 357.958 30.5034 356.775 31.1797 355.358C30.8633 352.056 30.0011 348.815 29.4553 345.539C28.3756 345.881 27.2959 346.227 26.2161 346.568ZM29.5819 364.87C30.5746 369.663 31.3617 374.498 32.3663 379.29C33.0228 377.662 34.237 376.279 34.7947 374.628C34.1421 369.909 33.0742 365.243 32.2555 360.546C31.3379 361.971 30.3531 363.357 29.5819 364.87ZM32.6708 380.807C32.738 381.352 32.8053 381.898 32.8725 382.451C34.0432 380.569 35.997 378.687 35.3049 376.291C34.3319 377.743 33.5409 379.298 32.6708 380.807Z" fill="black"/>
<path d="M58.8953 317.303C59.536 317.195 60.1807 317.091 60.8254 317.003C60.8412 317.233 60.8689 317.702 60.8808 317.936C60.1965 318.097 59.5163 318.27 58.832 318.428C58.8518 318.048 58.8716 317.675 58.8953 317.303Z" fill="black"/>
<path d="M54.9941 319.38C55.097 318.193 56.1569 317.69 57.1932 317.391C57.2327 317.652 57.3158 318.174 57.3553 318.435C56.588 318.793 55.8128 319.138 54.9941 319.38Z" fill="black"/>
<path d="M70.7246 320.39C70.9263 320.352 71.3218 320.271 71.5235 320.233C72.1643 321.158 72.2869 322.241 71.8597 323.286C71.658 323.309 71.2546 323.359 71.0529 323.382C71.0094 322.375 70.8986 321.377 70.7246 320.39Z" fill="black"/>
<path d="M70.0264 324.426C70.3942 324.461 70.766 324.507 71.1378 324.553C70.9994 325.018 71.0191 325.57 70.6632 325.955C70.2163 326.066 69.7654 326.154 69.3105 326.223C69.5399 325.617 69.7852 325.018 70.0264 324.426Z" fill="black"/>
<path d="M42.5488 332.387C45.6615 331.285 48.7148 329.964 51.9935 329.368C52.3455 330.486 52.4444 331.653 52.1597 332.801C49.312 334.195 46.2824 335.271 43.1658 335.931C42.7308 334.798 42.5686 333.589 42.5488 332.387ZM47.9871 331.519C48.1453 332.099 48.3074 332.679 48.4696 333.266C49.3832 332.878 50.2929 332.471 51.1986 332.056C51.2183 331.68 51.2658 330.928 51.2895 330.551C50.19 330.881 49.0905 331.208 47.9871 331.519ZM43.6602 333.105C43.7433 333.619 43.8303 334.146 43.9133 334.668C45.0643 334.357 46.2073 334.011 47.3463 333.65C47.3028 333.243 47.2158 332.425 47.1763 332.014C45.97 332.26 44.8072 332.667 43.6602 333.105Z" fill="black"/>
<path d="M62.3184 333.389C63.0263 333.312 63.7303 333.243 64.4422 333.182C64.4225 333.408 64.3829 333.861 64.3631 334.088C63.7066 334.222 63.0501 334.361 62.3975 334.499C62.3698 334.126 62.3421 333.754 62.3184 333.389Z" fill="black"/>
<path d="M138.914 333.738C145.218 332.018 152.428 335.205 155.189 340.973C158.072 346.495 156.324 353.78 151.234 357.505C146.033 361.625 137.814 361.326 132.958 356.821C128.231 352.774 127.041 345.489 130.236 340.217C132.08 337.045 135.279 334.649 138.914 333.738ZM141.212 335.144C139.543 335.332 137.901 335.824 136.442 336.642C131.569 339.222 129.042 345.282 130.85 350.408C132.59 356.042 139.08 359.717 144.989 358.392C151.155 357.298 155.751 351.038 154.58 345.017C153.73 338.969 147.433 334.364 141.212 335.144Z" fill="black"/>
<path d="M145.638 341.315C147.378 340.808 147.777 343.462 146.678 344.326C144.977 344.99 144.012 341.841 145.638 341.315Z" fill="black"/>
<path d="M136.145 345.182C137.565 344.748 138.732 346.891 137.842 347.912C136.22 348.861 134.271 345.969 136.145 345.182Z" fill="black"/>
<path d="M148.205 347.363C148.783 347.455 149.823 347.621 149.542 348.454C148.901 352.175 144.563 354.525 140.884 353.646C139.733 353.385 137.914 352.92 138.132 351.441C139.022 350.965 139.892 351.63 140.742 351.86C142.957 352.697 145.623 351.849 147.034 350.032C147.636 349.241 147.873 348.27 148.205 347.363Z" fill="black"/>
<path d="M373.664 402C375.318 403.644 376.983 405.276 378.628 406.931C381.416 406.17 384.003 404.811 386.851 404.258C385.577 406.612 383.959 408.77 382.611 411.086C384.529 413.566 386.439 416.055 388.33 418.562C385.387 417.683 382.563 416.358 379.549 415.763C377.983 417.94 376.627 420.256 375.14 422.483C374.918 419.615 374.728 416.742 374.499 413.878C371.991 413.056 369.5 412.199 367 411.366C369.353 410.421 371.754 409.588 374.135 408.709C373.977 406.47 373.803 404.235 373.664 402Z" fill="black"/>
<path d="M351.687 212.191C353.124 211.676 354.619 212.313 355.969 212.794C367.658 217.315 379.361 221.809 391.047 226.333C392.015 226.778 393.059 226.367 394.055 226.239C400.775 225.104 407.69 226.067 414.179 227.927C418.689 228.779 423.328 228.459 427.887 228.931C430.947 229.123 433.976 229.672 436.898 230.575C444.833 232.68 452.844 234.506 460.862 236.295C462.902 234.563 465.119 232.839 467.819 232.232C469.488 231.825 471.229 232.188 472.801 232.785C472.832 232.983 472.891 233.381 472.923 233.58C488.564 232.791 504.198 231.841 519.835 230.992V232.65C504.513 233.502 489.195 234.385 473.873 235.207C474.734 238.98 474.643 242.867 474.494 246.708C474.05 254.426 473.155 262.13 471.646 269.723C487.689 271.539 503.736 273.372 519.835 274.685V276.343C503.583 275.032 487.38 273.18 471.184 271.337C470.716 271.812 470.247 272.287 469.786 272.769C466.157 273.099 462.111 271.738 460.182 268.585C459.02 266.799 459.138 264.603 459.346 262.592C452.872 264.269 446.38 265.886 439.902 267.554C439.5 269.228 438.965 271.003 437.425 272.031C435.524 287.777 433.834 303.542 431.898 319.281C433.088 320.844 434.337 322.381 435.295 324.099C435.992 325.321 436.505 326.669 437.453 327.747C438.958 329.452 440.905 330.722 442.924 331.793C444.77 330.021 447.619 329.516 450.103 329.954C452.879 330.493 454.544 332.952 455.883 335.158C461.66 336.917 467.586 338.19 473.498 339.443C488.754 342.563 504.26 344.564 519.835 345.329V347.165C498.167 346.087 476.6 342.755 455.696 337.092C452.632 343.536 449.558 349.978 446.488 356.422C445.454 358.538 444.562 360.721 443.344 362.749C455.266 368.459 467.479 373.603 479.91 378.181C492.852 382.837 506.085 387.122 519.835 388.789V390.676C506.463 389.022 493.553 385.006 480.937 380.515C467.739 375.755 454.829 370.258 442.168 364.278C438.719 366.198 433.9 365.11 431.752 361.856C430.847 360.124 431.447 358.147 431.721 356.345C428.893 355.391 425.947 354.852 423.016 354.32C415.646 353.03 408.228 352.002 400.838 350.82C395.748 349.998 390.981 347.926 386.495 345.517C380.915 342.479 375.718 338.824 370.798 334.865C369.563 333.946 368.532 332.756 367.183 331.995C365.958 331.645 364.66 331.641 363.401 331.49C354.144 330.493 344.88 329.536 335.661 328.256C333.989 328.064 332.212 327.511 331.283 326.042C329.766 323.937 329.843 321.235 330.259 318.813C331.931 304.445 333.559 290.071 335.214 275.703C336.23 267.072 337.108 258.428 338.243 249.814C338.971 249.736 339.707 249.696 340.442 249.777C355.063 251.323 369.702 252.704 384.319 254.288C383.778 253.024 383.25 251.562 383.917 250.242C384.343 249.019 385.814 248.854 386.946 248.709C390.429 248.399 393.937 248.5 397.434 248.497C393.965 247.917 390.641 246.711 387.445 245.31C386.054 244.606 384.427 243.932 383.688 242.504C383.223 241.493 383.989 240.556 384.461 239.714C378.587 237.582 372.738 235.395 366.874 233.243C362.36 231.636 357.933 229.797 353.339 228.419C351.76 227.883 350.286 227.102 348.717 226.546C347.579 226.104 346.372 225.801 345.314 225.188C344.557 224.814 345.123 223.962 345.276 223.399C346.49 220.603 347.708 217.804 349.099 215.085C349.71 213.96 350.376 212.663 351.687 212.191ZM350.99 214.482C349.408 217.127 348.287 220 346.983 222.776C350.903 220.364 354.678 217.73 358.491 215.159C356.767 214.556 355.108 213.751 353.322 213.337C352.361 213.061 351.42 213.674 350.99 214.482ZM360.101 226.074C359.081 226.765 357.943 227.321 357.079 228.207C359.706 229.244 362.367 230.201 365.038 231.131C369.434 228.314 373.903 225.606 378.32 222.813C375.527 221.759 372.758 220.66 369.965 219.609C366.711 221.813 363.383 223.911 360.101 226.074ZM380.333 233.199C379.278 233.994 378.084 234.637 377.196 235.621C380.083 236.777 383.035 237.784 385.946 238.879C389.773 235.992 393.573 233.071 397.4 230.181C394.6 229.093 391.793 228.021 388.993 226.933C386.148 229.072 383.212 231.1 380.333 233.199ZM394.11 227.492C405.112 231.777 416.142 236.002 427.165 240.233C428.598 238.589 430.118 237.023 431.617 235.436C431.967 235.459 432.325 235.486 432.685 235.517C432.543 236.086 432.345 236.666 431.894 237.087C429.643 239.431 427.36 241.759 425.375 244.329C423.286 246.974 420.996 249.561 419.615 252.637C418.866 254.119 419.213 255.915 420.23 257.195C421.08 258.121 422.526 258.057 423.689 257.953C425.111 257.535 426.281 256.578 427.478 255.753C430.951 253.213 434.111 250.302 437.356 247.496C438.646 246.317 440.371 245.637 442.147 245.603C444.513 245.522 446.894 245.532 449.239 245.138C449.263 245.519 449.291 245.899 449.322 246.287C446.789 247.001 444.132 246.792 441.533 246.947C442.296 249.602 441.814 252.455 440.232 254.739C440.693 258.536 440.496 262.366 440.107 266.162C446.713 264.441 453.347 262.814 459.95 261.086C461.993 253.516 461.972 245.606 461.639 237.845C452.344 235.678 443.008 233.65 433.813 231.09C428.008 229.78 421.996 230.069 416.094 229.568C415.018 229.453 413.96 229.258 412.926 228.958C406.854 227.213 400.39 226.525 394.11 227.492ZM468.291 233.465C466.146 233.906 464.314 235.177 462.659 236.511C463.121 238.36 463.097 240.273 463.142 242.167C465.786 241.698 468.513 241.823 471.066 242.669C471.115 242.857 471.209 243.235 471.257 243.423C468.669 242.739 465.931 242.227 463.291 242.948C463.215 243.181 463.058 243.646 462.982 243.878C466.403 244.053 469.904 243.972 473.19 245.054C473.242 243.326 473.231 241.594 473.165 239.869C470.792 239.253 468.332 239.094 465.886 239.172C465.897 239 465.914 238.656 465.924 238.488C468.35 238.303 470.761 238.609 473.151 239.007C472.895 237.487 472.864 235.857 472.041 234.493C471.191 233.394 469.588 233.236 468.291 233.465ZM407.486 234.671C404.092 237.467 400.72 240.287 397.309 243.063C400.637 244.208 403.87 245.684 407.26 246.607C410.515 244.046 413.655 241.335 416.881 238.737C417.069 238.485 417.607 238.303 417.384 237.932C414.751 236.783 412.017 235.867 409.363 234.772C408.762 234.611 407.999 234.072 407.486 234.671ZM384.892 241.719C385.027 242.568 385.936 242.972 386.599 243.403C389.402 244.916 392.459 245.94 395.536 246.785C398.687 247.607 402.031 247.735 405.053 249.002C405.706 249.177 405.9 249.78 406.035 250.37C404.929 250.323 403.905 249.895 402.843 249.662C401.247 249.437 399.648 249.787 398.052 249.804C394.298 249.851 390.53 249.669 386.789 250.036C386.22 250.164 385.45 250.13 385.173 250.734C384.35 252.391 385.769 254.459 387.598 254.587C396.393 255.497 405.203 256.332 413.995 257.296C414.595 255.275 415.539 253.361 416.836 251.673C406.809 247.978 396.789 244.259 386.758 240.583C385.946 240.199 385.037 240.954 384.892 241.719ZM463.131 247.2C466.448 247.762 469.755 248.382 473.047 249.083C473.089 248.012 473.134 246.944 473.179 245.876C469.984 244.623 466.504 244.892 463.149 244.555C463.145 245.434 463.135 246.317 463.131 247.2ZM416.958 250.535C417.447 250.521 418.002 250.649 418.439 250.339C420.469 249.359 421.253 247.139 422.651 245.542C420.778 247.233 418.727 248.736 416.958 250.535ZM437.127 249.501C438.344 250.376 439.264 251.559 440.006 252.836C440.502 251.013 440.77 249.103 440.204 247.26C439.028 247.793 437.98 248.547 437.127 249.501ZM463.01 249.912C465.244 250.43 467.527 250.673 469.807 250.915C469.796 251.097 469.776 251.458 469.765 251.64C467.461 251.454 465.192 251.04 462.902 250.777C462.753 254.345 462.156 257.882 461.292 261.345C463.454 262.106 465.681 262.699 467.947 263.104C467.944 263.286 467.933 263.649 467.926 263.831C465.477 263.848 463.218 262.851 460.886 262.275C460.803 262.696 460.723 263.124 460.651 263.555C462.264 264.209 464.023 264.495 465.557 265.337C463.784 265.725 462.135 264.805 460.512 264.276C460.456 266.072 460.959 267.951 462.378 269.191C464.332 270.946 467.284 272.034 469.897 271.148C470.591 268.386 471.094 265.583 471.507 262.767C469.38 262.565 467.302 262.09 465.241 261.571C465.206 261.399 465.133 261.049 465.095 260.874C467.281 261.241 469.418 261.867 471.639 262.042C472.145 257.997 472.683 253.954 472.936 249.885C469.706 249.039 466.407 248.54 463.124 247.937C463.083 248.591 463.045 249.251 463.01 249.912ZM425.757 258.478C424.091 259.597 421.819 259.57 420.035 258.738C418.266 257.677 418.002 255.463 417.652 253.661L418.346 253.24C417.721 253.169 417.541 253.85 417.291 254.271C415.105 258.371 414.626 263.087 414.588 267.638C420.046 268.143 425.503 268.642 430.937 269.339C432.991 269.494 435.048 270.057 437.113 269.848C438.167 267.729 438.254 265.307 438.476 263.003C438.553 259.95 438.743 256.855 438.143 253.843C437.883 252.465 436.728 251.518 435.603 250.771C432.484 253.519 429.323 256.279 425.757 258.478ZM351.962 252.846C354.106 256.898 356.295 260.931 358.363 265.024C361.09 265.293 363.803 265.687 366.537 265.896C364.424 261.83 362.322 257.757 360.25 253.674C357.489 253.385 354.73 253.071 351.962 252.846ZM339.627 254.065C339.245 256.956 338.971 259.863 338.593 262.757C340.376 263.006 342.167 263.174 343.957 263.39C342.531 260.27 341.008 257.198 339.627 254.065ZM373.147 254.961C375.208 259.095 377.251 263.235 379.312 267.369C382.55 267.763 385.794 268.11 389.034 268.484C386.956 264.303 384.846 260.132 382.737 255.969C379.545 255.588 376.339 255.322 373.147 254.961ZM395.196 257.239C397.236 261.423 399.225 265.63 401.24 269.828C404.207 270.239 407.191 270.518 410.168 270.869C408.114 266.611 406.039 262.359 403.978 258.104C401.05 257.825 398.128 257.474 395.196 257.239ZM338.368 264.647C336.373 282.582 334.263 300.507 332.223 318.439C332.029 320.228 331.598 322.101 332.261 323.849C332.646 325.005 333.573 326.103 334.894 326.231C339.145 326.962 343.447 327.383 347.729 327.909C365.274 329.92 382.858 331.641 400.425 333.464C400.449 330.142 400.449 326.817 400.304 323.499C400.22 321.441 399.967 319.339 400.446 317.311C401.296 313.861 406.504 312.129 409.106 314.804C411.129 316.923 411.864 319.834 412.628 322.546C413.238 324.523 413.398 326.676 414.432 328.498C416.784 330.765 419.803 332.251 422.381 334.259C423.439 334.946 424.383 336.196 425.816 335.936C427.006 335.953 427.995 335.017 428.13 333.888C428.65 331.021 428.897 328.118 429.285 325.234C431.287 308.68 433.175 292.116 435.073 275.551C402.836 271.903 370.607 268.231 338.368 264.647ZM421.607 270.165C422.169 270.929 422.329 272.385 423.546 272.388C427.464 272.802 431.37 273.314 435.295 273.671C435.35 273.028 435.413 272.391 435.475 271.755C430.857 271.185 426.239 270.599 421.607 270.165ZM402.708 316.869C401.865 318.257 402.021 319.948 402.073 321.495C402.403 325.658 402.444 329.839 402.333 334.013C402.274 336.321 402.535 338.655 402.094 340.943C401.719 340.943 400.973 340.939 400.602 340.939C400.248 339.069 400.442 337.166 400.422 335.28C390.363 334.313 380.312 333.262 370.264 332.214C374.646 335.933 379.33 339.322 384.271 342.314C389.284 345.281 394.624 347.96 400.435 349.055C407.448 350.217 414.494 351.18 421.506 352.366C425.198 353.023 428.931 353.612 432.477 354.845C435.871 347.737 439.208 340.606 442.629 333.511C439.34 331.854 436.006 329.64 434.493 326.224C433.74 324.614 432.724 323.142 431.638 321.737C431.058 325.918 430.704 330.132 429.986 334.296C429.74 336.017 428.317 337.318 426.627 337.749C428.428 339.602 430.142 341.926 429.83 344.621C429.275 344.628 428.72 344.638 428.171 344.648C427.998 341.829 426.017 339.639 424.022 337.779C421.919 336.216 419.879 334.569 417.617 333.228C415.782 331.874 413.495 330.816 412.388 328.764C411.014 325.059 410.716 320.986 408.78 317.472C408.2 316.478 407.35 315.374 406.07 315.323C404.814 315.357 403.433 315.815 402.708 316.869ZM445.141 332.16C443.552 335.549 441.883 338.904 440.357 342.324C442.702 343.291 445.211 344.096 447.195 345.696C444.534 345.622 442.55 343.378 439.92 343.119C439.843 343.408 439.777 343.705 439.725 344.005C441.134 344.412 442.487 344.985 443.806 345.618C443.767 345.797 443.684 346.154 443.642 346.333C442.213 345.682 440.763 345.076 439.278 344.564C438.452 346.184 437.703 347.842 436.915 349.482C435.499 352.541 433.789 355.533 433.154 358.864C433.078 359.72 433.019 360.707 433.626 361.411C434.739 362.775 436.502 363.608 438.303 363.591C439.628 363.658 441.186 363.207 441.811 361.97C442.456 360.71 443.053 359.427 443.76 358.201C442.237 357.264 440.679 356.378 439.059 355.614C439.087 355.432 439.146 355.068 439.174 354.886C440.849 355.627 442.463 356.506 443.993 357.51C444.246 357.065 444.496 356.617 444.753 356.183C442.466 354.889 439.75 354.286 437.751 352.555C438.587 352.541 439.399 352.76 440.121 353.181C441.71 354.05 443.441 354.643 445.044 355.492C447.122 350.934 449.499 346.494 451.407 341.872C449.628 340.878 447.587 340.457 445.676 339.78C445.672 339.592 445.669 339.214 445.669 339.026C447.754 339.679 449.87 340.279 451.852 341.205C452.591 339.457 453.628 337.823 454.218 336.024C453.808 334.613 452.712 333.471 451.643 332.484C449.818 330.964 447.206 331.399 445.141 332.16Z" fill="black"/>
<path d="M425.41 249.255C426.43 250.39 427.558 251.427 428.588 252.556C427.197 251.855 425.733 250.848 425.41 249.255Z" fill="black"/>
<path d="M426.884 249.598C427.05 249.581 427.38 249.548 427.546 249.528C428.029 250.083 428.525 250.633 428.966 251.225C428.126 250.878 427.505 250.218 426.884 249.598Z" fill="black"/>
<path d="M422.386 251.367C424.131 251.791 425.589 253.048 426.355 254.608C426.619 255.642 425.429 256.262 424.756 256.845C423.482 257.434 421.637 257.148 420.995 255.797C420.297 254.197 421.387 252.586 422.386 251.367ZM421.567 255.932C422.209 256.855 423.437 256.72 424.44 256.7C424.999 256.164 425.564 255.635 426.133 255.11C425.443 253.611 424.225 252.347 422.598 251.815C421.661 252.91 420.578 254.547 421.567 255.932Z" fill="black"/>
<path d="M418.636 261.682C419.688 261.439 420.888 261.918 421.457 262.817C421.672 263.552 421.665 264.37 421.44 265.108C420.597 266.688 418.001 266.846 417.044 265.293C416.444 263.949 417.047 262.042 418.636 261.682ZM418.369 263.292C418.296 263.538 418.147 264.023 418.074 264.269C418.185 264.478 418.404 264.896 418.515 265.105C419.018 264.99 419.639 265.091 420.062 264.737C420.5 264.222 420.139 263.565 420.08 262.992C419.504 263.08 418.935 263.181 418.369 263.292Z" fill="black"/>
<path d="M431.528 263.444C432.94 262.49 435.525 263.784 435.115 265.6C435.122 267.432 432.569 268.022 431.271 267.021C430.046 266.166 430.383 264.219 431.528 263.444ZM431.833 266.048C432.433 266.088 433.037 266.122 433.644 266.146C433.679 265.667 433.71 265.192 433.745 264.717C433.273 264.623 432.808 264.545 432.34 264.488C431.868 264.876 431.93 265.509 431.833 266.048Z" fill="black"/>
<path d="M375.407 285.934C376.958 285.61 378.082 286.813 379.286 287.537C383.654 290.36 388.012 293.2 392.398 296.006C392.974 296.421 393.796 296.811 393.713 297.644C393.407 298.236 392.72 298.425 392.134 298.637C386.589 300.382 381.062 302.191 375.525 303.95C374.866 304.27 374.196 303.994 373.558 303.808C373.724 300.042 374.29 296.303 374.626 292.55C374.876 290.343 375.015 288.12 375.407 285.934ZM377.003 288.268C376.882 289.208 376.774 290.151 376.68 291.098C377.475 290.599 378.28 290.111 379.078 289.616C378.384 289.168 377.693 288.716 377.003 288.268ZM379.609 290.471C378.224 291.233 376.264 291.89 376.309 293.756C377.367 293.089 378.415 292.405 379.477 291.741C379.952 291.408 380.542 291.135 380.754 290.566C380.382 290.428 379.973 290.195 379.609 290.471ZM381.503 291.587C379.897 292.479 378.394 293.547 376.847 294.538C376.184 294.844 376.281 295.629 376.097 296.215C377.895 294.575 380.191 293.641 382.155 292.233C382.745 291.843 381.964 291.169 381.503 291.587ZM383.05 292.789C380.837 294.362 378.172 295.36 376.33 297.398C375.868 297.856 375.979 298.567 375.82 299.146C378.457 296.788 381.621 295.117 384.459 293.008C383.998 292.877 383.491 292.351 383.05 292.789ZM375.688 300.504C375.657 301.026 375.629 301.548 375.612 302.084C377.277 301.312 378.602 300.042 380.077 298.991C382.187 297.455 384.188 295.784 386.319 294.275C385.951 294.056 385.587 293.844 385.229 293.635C382.048 295.929 378.564 297.829 375.688 300.504ZM387.11 294.878C384.456 296.781 381.899 298.806 379.307 300.793C380.441 300.44 381.618 300.12 382.596 299.429C384.445 298.166 386.288 296.886 387.988 295.434C387.693 295.245 387.398 295.056 387.11 294.878ZM384.792 298.957C386.759 298.455 388.668 297.782 390.604 297.182C390.042 296.764 389.48 296.347 388.925 295.932C387.578 296.98 386.277 298.088 384.792 298.957Z" fill="black"/>
<path d="M354.299 311.83C357.46 311.863 360.568 312.527 363.705 312.837C372.722 313.959 381.737 315.084 390.754 316.212C393.266 316.559 395.809 316.735 398.29 317.267C398.11 318.426 397.884 319.588 397.554 320.72C382.961 318.877 368.351 317.149 353.771 315.208C353.935 314.08 354.139 312.958 354.299 311.83ZM354.986 312.507C354.857 313.201 354.722 313.895 354.576 314.595C368.739 316.441 382.923 318.122 397.086 319.945C397.173 319.211 397.263 318.48 397.35 317.752C383.222 316.051 369.111 314.211 354.986 312.507Z" fill="black"/>
<path d="M404.058 317.577C404.897 316.532 406.629 316.886 407.493 317.725C408.533 318.799 408.02 320.363 407.881 321.656C406.299 322.033 404.672 322.219 403.051 322.05C402.965 320.521 402.843 318.752 404.058 317.577ZM403.686 321.457C404.901 321.427 406.112 321.276 407.302 321.033C407.319 319.837 407.676 318.079 406.07 317.725C403.974 317.469 403.624 319.955 403.686 321.457Z" fill="black"/>
<path d="M354.034 321.067C354.912 320.626 355.789 320.083 356.806 320.023C357.205 320.423 357.531 320.882 357.878 321.336C358.763 320.989 359.675 320.69 360.629 320.585C360.834 320.962 361.039 321.343 361.25 321.731C362.042 321.4 362.885 321.235 363.749 321.212C363.887 321.414 364.161 321.818 364.3 322.024C364.956 321.956 365.678 321.636 366.295 322.037C367.02 322.512 367.891 322.263 368.707 322.35C369.224 322.627 369.657 323.004 370.129 323.361C369.439 323.425 368.766 323.317 368.155 323.011C367.818 323.129 367.485 323.25 367.159 323.381C366.684 323.115 366.215 322.852 365.751 322.59C364.998 322.67 364.127 322.93 363.53 322.323C362.777 321.501 361.774 322.785 360.897 322.337C360.609 322.017 360.338 321.687 360.085 321.35C359.353 321.599 358.659 322.02 357.868 322.064C357.198 321.966 356.938 321.229 356.511 320.814C355.737 321.084 354.981 321.407 354.231 321.737C354.183 321.572 354.082 321.235 354.034 321.067Z" fill="black"/>
<path d="M372.765 323.26C373.747 322.933 374.77 322.384 375.839 322.673C376.349 322.886 376.8 323.209 377.282 323.485C378.278 324.21 379.44 323.115 380.564 323.33C380.811 323.687 381.081 324.031 381.369 324.368C382.296 324.162 383.194 323.849 384.138 323.687C384.35 324.031 384.568 324.378 384.79 324.728C385.467 324.445 386.123 323.937 386.9 324.007C387.958 324.378 388.895 325.318 390.106 324.87C391.105 324.543 391.955 325.19 392.774 325.651C393.253 325.443 393.735 325.227 394.245 325.082C394.939 325.217 395.577 325.527 396.237 325.783C396.198 325.961 396.119 326.322 396.08 326.504C395.47 326.275 394.866 326.042 394.262 325.817C393.79 326.032 393.332 326.265 392.847 326.433C392.375 326.271 391.945 326.039 391.507 325.833C390.664 325.284 389.662 325.82 388.742 325.712C388.017 325.47 387.41 324.947 386.66 324.789C385.921 325.001 385.21 325.284 384.475 325.483C384.159 325.116 383.847 324.752 383.538 324.392C382.854 324.675 382.202 325.278 381.407 325.089C380.773 324.971 380.394 324.385 379.926 324.018C379.249 324.243 378.583 324.499 377.889 324.654C377.032 324.304 376.324 323.701 375.488 323.324C374.545 323.189 373.736 323.809 372.907 324.125C372.872 323.91 372.799 323.475 372.765 323.26Z" fill="black"/>
<path d="M403.392 325.736C405.092 324.499 407.396 324.432 409.401 324.85C407.486 325.487 405.407 325.658 403.392 325.736Z" fill="black"/>
<path d="M405.134 326.763C405.935 325.881 407.184 326.049 408.274 326.026C408.267 326.201 408.253 326.555 408.246 326.733C407.209 326.78 406.168 326.821 405.134 326.763Z" fill="black"/>
<path d="M446.837 341.151C447.877 341.495 448.904 341.872 449.918 342.297C449.921 342.475 449.921 342.836 449.921 343.014C448.832 342.634 447.749 342.24 446.66 341.879C446.705 341.697 446.791 341.333 446.837 341.151Z" fill="black"/>
</svg>
