<svg width="523" height="464" viewBox="0 0 523 464" fill="none" xmlns="http://www.w3.org/2000/svg">
<path d="M6 -8C7.88043 -6.73229 9.98906 -5.91251 12.0089 -4.92792C16.0952 -2.66295 20.2871 -0.528968 24.7283 0.958476C26.9679 1.66839 28.8399 3.14739 31.033 3.96295C66.6768 19.6994 102.447 35.1444 138.201 50.6442C136.633 47.1538 134.998 43.4183 135.387 39.501C135.463 38.1742 135.704 36.7713 136.582 35.7233C136.73 35.5678 136.913 35.4498 137.115 35.3791C137.318 35.3084 137.534 35.287 137.747 35.3168C137.959 35.3465 138.161 35.4266 138.337 35.5502C138.512 35.6738 138.655 35.8374 138.754 36.0275C140.808 39.2771 141.674 43.0929 142.165 46.8664C143.01 45.1762 143.677 42.9154 145.727 42.3534C146.504 42.0407 147.776 42.2139 147.683 43.3042C147.514 44.893 146.72 46.3256 146.145 47.7961C145.423 49.7188 143.715 50.9485 142.393 52.4444C154.444 57.6758 166.505 62.8875 178.573 68.0794C179.558 68.502 180.538 68.9246 181.557 69.2753C196.262 73.501 211.136 77.1351 225.876 81.2636C224.667 79.9156 223.568 78.1662 223.966 76.2731C223.981 76.1166 224.031 75.9656 224.112 75.8311C224.193 75.6965 224.304 75.5819 224.435 75.4955C224.566 75.4092 224.715 75.3534 224.871 75.3322C225.027 75.311 225.185 75.3249 225.335 75.373C226.383 75.9519 227.152 76.8985 228.056 77.6591C227.549 75.7322 226.471 73.7503 227.11 71.7431C227.342 70.9783 227.874 70.0528 228.8 70.1035C230.169 70.1035 231.285 71.2825 231.804 72.4657C232.966 75.8463 233.152 79.455 233.051 83.0004C264.279 90.9531 295.646 98.3692 327.208 104.894C325.687 103.043 325.006 100.516 325.818 98.2044C326.306 97.9695 326.86 97.9089 327.387 98.0327C327.915 98.1565 328.384 98.4572 328.716 98.8848C329.562 99.9792 329.764 101.374 330.145 102.663C331.615 99.3623 334.438 96.231 338.326 96.231C338.66 97.0762 339.061 97.9889 338.668 98.8763C337.4 101.834 335.025 104.061 332.524 105.975C360.836 111.553 389.305 116.7 418.086 119.1C425.595 119.637 433.125 120.22 440.651 119.802C452.601 119.379 464.522 118.348 476.396 116.954C475.847 115.242 474.947 113.637 474.617 111.858C474.579 110.45 474.537 108.853 475.42 107.666C477.533 108.173 477.833 110.789 478.298 112.555C479.675 109.521 481.391 106.398 484.366 104.666C485.021 104.196 486.276 103.977 486.627 104.928C487.108 106.804 486.55 108.874 485.524 110.489C483.914 112.625 482.106 114.604 480.123 116.4C486.064 115.72 491.955 114.71 497.871 113.839C500.47 113.747 502.9 112.711 505.477 112.42C507.628 112.094 509.703 111.367 511.816 110.873C514.351 110.298 516.625 109.052 519 108.088V111.017C512.716 113.497 505.989 114.511 499.464 116.138C492.771 116.865 486.149 118.137 479.46 118.889C480.627 123.478 481.382 128.162 481.716 132.885C481.644 133.73 482.05 135.069 480.901 135.344C480.212 134.892 480.33 134.043 480.275 133.341C480.182 129.961 479.578 126.58 479.008 123.242C478.729 121.725 478.458 120.182 477.698 118.822C475.517 122.891 473.7 127.146 471.845 131.376C468.072 139.489 465.38 148.047 462.253 156.418C461.488 158.391 461.171 160.517 460.305 162.452C459.992 163.297 458.944 163.572 458.137 163.496C457.025 162.397 456.447 160.905 455.513 159.654C453.958 157.474 452.758 155.074 451.38 152.788C448.422 148.216 445.675 143.491 443.136 138.661C442.079 136.886 440.824 135.23 439.933 133.362C438.28 129.893 436.155 126.69 434.118 123.445C423.681 136.184 413.257 148.937 402.848 161.704C402.743 161.902 402.599 162.076 402.423 162.215C402.247 162.354 402.044 162.454 401.827 162.509C401.61 162.565 401.384 162.574 401.163 162.536C400.942 162.499 400.731 162.415 400.545 162.291C395.378 147.332 390.216 132.373 385.058 117.414L383.79 117.283C372.913 128.786 362.043 140.299 351.18 151.824C350.58 152.352 350.044 153.269 349.122 153.092C348.357 153.185 348.184 152.365 347.91 151.845C342.602 138.549 337.293 125.249 331.983 111.946C331.482 110.49 330.864 109.077 330.136 107.721C329.883 110.679 330.829 113.539 331.438 116.396C332.16 119.62 333.044 122.849 333.187 126.162C332.794 126.322 332.397 126.47 332 126.584C331.396 123.204 330.935 119.747 329.933 116.443C329.769 123.681 328.666 130.848 327.398 137.964C327.022 137.706 325.987 137.867 326.236 137.148C326.659 132.754 327.677 128.422 328.04 124.015C328.56 119.046 328.577 114.047 328.577 109.06C316.306 118.481 304.057 127.894 291.83 137.301C291.196 137.858 290.237 138.175 289.51 137.609C288.978 136.24 288.834 134.761 288.543 133.328C286.289 121.251 284.017 109.177 281.727 97.1058L278.887 96.3916C266.232 106.452 253.599 116.541 240.987 126.66C240.366 127.29 239.491 127.298 238.671 127.239C235.899 114.021 233.79 100.668 231.094 87.4331C228.817 94.6002 226.982 101.9 225.601 109.293C225.571 109.986 225.069 110.772 224.27 110.26C224.042 108.507 224.692 106.791 224.954 105.08C226.428 98.1906 228.28 91.3882 230.503 84.7033C229.007 84.2089 227.503 83.5413 225.897 83.5708C221.396 87.7965 217.052 92.242 212.62 96.5649C206.04 103.085 199.372 109.512 192.797 116.033C192.581 116.323 192.278 116.536 191.932 116.641C191.586 116.746 191.215 116.737 190.874 116.616C190.249 115.999 190.173 115.052 189.928 114.249C186.547 100.068 182.943 85.9372 179.617 71.7347C174.893 78.1535 170.189 84.6315 164.717 90.4418C162.013 93.6618 159.342 96.9452 156.266 99.8398C155.421 100.837 153.489 100.884 153.05 99.489C151.85 94.8873 149.796 90.5686 148.402 86.0217C146.416 80.1058 145.38 73.9405 143.491 68.0076C142.376 64.5045 141.286 60.9887 140.343 57.4434C138.928 62.6325 138.509 68.0076 138.049 73.3658C138.044 74.0633 137.84 74.7449 137.461 75.3307C136.304 75.2378 136.616 74.063 136.616 73.2601C137.145 67.2554 137.652 61.1831 139.447 55.3939C136.828 57.5955 134.026 59.8436 132.585 63.0382C132.268 63.6509 132.006 64.5806 131.11 64.3355C130.59 63.5495 131.165 62.6959 131.486 61.9564C133.274 58.5378 136.388 56.1418 139.262 53.6825C104.715 38.7263 70.1869 23.6955 35.6771 8.59008C31.295 6.62513 26.8665 4.74893 22.5098 2.72059C19.0997 0.840157 15.4444 -0.550097 12.0808 -2.51505C10.1158 -3.66444 7.91847 -4.35322 6 -5.5829V-8ZM136.963 38.2545C136.659 40.1307 136.519 42.1125 137.183 43.9296C138.028 46.3678 138.573 49.0004 140.242 51.0499C141.51 46.2453 139.862 41.1364 137.664 36.8389C137.296 37.2311 137.052 37.7237 136.963 38.2545ZM144.493 45.3029C143.648 47.0397 142.756 48.7638 142.012 50.547C144.523 49.1018 145.266 46.1819 146.238 43.676C145.85 43.8141 145.493 44.0295 145.191 44.3091C144.888 44.5887 144.645 44.9268 144.476 45.3029H144.493ZM141.987 54.8784C142.913 59.1041 144.244 63.2452 145.549 67.3737C147.189 72.5502 148.216 77.8957 149.746 83.1018C151.182 88.2445 153.439 93.1082 154.952 98.2256C157.628 95.4789 160.182 92.6195 162.613 89.6474C164.202 87.5895 166.255 85.9415 167.713 83.7737C171.25 79.4423 174.707 75.0307 177.855 70.4036C177.054 69.9378 176.214 69.5432 175.345 69.2246C164.214 64.4791 153.13 59.6196 141.996 54.8784H141.987ZM181.823 71.6375C185.203 85.6161 188.613 99.5904 192.053 113.561C196.452 109.534 200.589 105.215 204.882 101.065C209.75 96.417 214.416 91.5828 219.339 87.0063C218.451 87.3444 217.817 86.8542 218.185 85.9119C218.802 85.5992 219.284 86.0598 219.782 86.3683C221.113 85.2484 222.263 83.9342 223.543 82.7553C209.598 79.1508 195.713 75.3983 181.823 71.6375ZM228.648 71.3628C228.407 72.3474 228.225 73.3911 228.546 74.3842C229.307 76.9619 230.139 79.5564 231.568 81.8552C231.744 78.8892 231.396 75.9154 230.541 73.07C230.296 72.1741 229.459 71.6628 228.648 71.3797V71.3628ZM225.233 77.0506C225.576 79.586 227.824 81.1411 229.928 82.2144C229.269 79.755 226.898 78.6944 225.233 77.0506ZM232.988 85.1977C233.359 87.4627 233.862 89.7066 234.192 91.9588C235.958 90.2897 237.809 88.6882 239.263 86.7443C237.15 86.2373 235.071 85.6752 232.966 85.1766L232.988 85.1977ZM239.605 88.4684C238.046 90.2812 236.191 91.8025 234.589 93.5731C234.682 94.2914 234.783 95.0098 234.889 95.7282C237.682 93.0237 240.763 90.6151 243.37 87.6993C242.574 87.5067 241.767 87.3655 240.953 87.2768C240.374 87.4838 240.032 88.0416 239.605 88.4473V88.4684ZM235.337 97.4142C235.468 99.4214 236.064 101.374 236.322 103.368C240.015 100.271 242.563 96.062 246.159 92.8716C247.328 91.7571 248.411 90.5565 249.4 89.2798C247.866 88.9206 246.341 88.5234 244.798 88.2022C241.929 91.5828 238.198 94.0632 235.337 97.4142ZM248.787 92.0856C247.473 93.6026 245.872 94.8365 244.562 96.362C242.113 99.3689 239.509 102.246 236.761 104.982C236.837 106.009 236.978 107.029 237.184 108.038C241.059 104.167 245.17 100.545 249.197 96.8311C251.372 95.0106 253.329 92.9446 255.029 90.6742C253.742 90.305 252.432 90.0227 251.107 89.8291C250.186 90.4122 249.531 91.2996 248.8 92.0856H248.787ZM255.984 91.8701C256.373 92.2124 257.374 91.5785 256.744 91.1855L255.984 91.8701ZM253.262 97.4861C250.583 100.021 247.769 102.392 245.065 104.911C242.711 107.446 240.416 110.049 238.13 112.661C238.316 114.194 238.637 115.707 238.857 117.237C240.547 115.297 242.622 113.721 244.312 111.769C250.478 105.173 257.175 99.1172 263.56 92.7533C261.938 92.4321 260.357 91.9081 258.722 91.6461C256.575 93.235 255.025 95.5084 253.262 97.4987V97.4861ZM255.316 92.1448C254.771 93.4125 253.719 94.3337 252.819 95.3394C247.786 100.174 242.254 104.53 237.606 109.749C237.636 110.066 237.703 110.704 237.737 111.017C240.04 108.557 242.187 105.946 244.536 103.546C247.008 101.382 249.421 99.151 251.893 96.9832C253.385 95.7155 254.129 93.6576 255.933 92.7575C255.718 92.5462 255.51 92.3349 255.303 92.1236L255.316 92.1448ZM265.132 93.1885C262.056 96.0578 259.081 99.0284 256.085 101.974C252.24 105.443 248.627 109.157 245.077 112.927C243.277 115.073 240.881 116.637 239.284 118.969L239.677 121.547C242.014 119.498 244.11 117.199 246.391 115.09C248.568 112.745 251.213 110.89 253.275 108.431C255.739 105.98 258.088 103.389 260.81 101.217C263.079 98.7284 265.124 96.0282 267.6 93.7252C266.78 93.5477 265.961 93.3745 265.141 93.2139L265.132 93.1885ZM261.731 102.172C257.349 105.815 253.808 110.332 249.476 114.004C246.941 116.392 244.498 118.872 242.009 121.306C241.164 122.194 239.656 122.997 240.319 124.454C244.331 121.212 248.356 117.992 252.396 114.795C254.627 112.948 257.044 111.291 258.938 109.081C260.894 107.649 262.318 105.701 264.008 103.989C267.047 101.23 269.637 98.0227 272.185 94.8154C271.192 94.6041 270.203 94.3928 269.227 94.1562C266.425 96.5353 264.228 99.489 261.748 102.185L261.731 102.172ZM272.992 96.0747C271.332 98.2171 269.312 100.072 267.866 102.375C270.651 100.212 273.436 98.0354 276.128 95.7535C275.088 95.631 273.656 94.8619 272.992 96.0747ZM284.161 97.6509C284.271 98.496 284.351 99.3411 284.402 100.186C285.048 99.4975 285.881 98.9608 286.848 99.3411C286.806 99.713 286.747 100.085 286.679 100.452C286.016 101.082 285.217 100.271 284.524 100.127C286.806 111.748 288.902 123.406 291.12 135.04C303.333 125.828 315.397 116.409 327.559 107.125C326.333 106.901 325.112 106.639 323.891 106.419C324.145 106.843 324.427 107.25 324.736 107.636C324.643 107.89 324.461 108.405 324.368 108.659L323.278 108.519C323.202 108.236 323.05 107.674 322.978 107.387L323.401 107.531C323.401 107.028 323.451 106.529 323.485 106.03L322.589 106.115C315.194 104.585 307.799 102.975 300.434 101.331L300.603 102.299C301.393 103.309 299.999 104.23 299.187 103.406C298.837 102.586 299.47 101.809 299.821 101.107C294.564 100.14 289.367 98.8383 284.156 97.634L284.161 97.6509ZM330.567 105.443C333.466 103.516 336.449 101.133 337.481 97.6593C333.656 98.2974 331.704 102.13 330.567 105.443ZM326.857 99.4426C326.532 101.615 327.854 103.368 329.122 104.957C328.729 103.436 328.56 101.851 327.998 100.376C327.919 100.127 327.769 99.9061 327.566 99.7403C327.364 99.5745 327.117 99.4711 326.857 99.4426ZM478.34 116.147C479.989 114.632 481.549 113.023 483.014 111.329C483.785 110.593 484.396 109.704 484.806 108.719C485.216 107.734 485.417 106.675 485.397 105.608C481.594 107.873 479.785 112.179 478.34 116.147ZM332.798 108.169C333.056 108.841 333.318 109.508 333.584 110.184C334.138 109.707 334.679 109.212 335.199 108.697C334.396 108.514 333.596 108.338 332.798 108.169ZM336.648 109.014C335.803 110.129 334.265 110.974 334.315 112.551C335.634 111.621 336.564 110.277 337.662 109.115L336.648 109.014ZM335.182 113.894C335.33 114.38 335.486 114.866 335.642 115.352C337.495 113.587 339.202 111.675 340.747 109.635L339.348 109.529C337.7 110.7 336.602 112.487 335.182 113.894ZM339.344 113.408C338.292 114.752 336.775 115.842 336.293 117.55C338.745 115.237 340.952 112.677 342.877 109.91C341.364 110.683 340.506 112.234 339.344 113.408ZM476.075 109.977C475.913 111.196 476.101 112.436 476.616 113.552C477.038 112.344 476.548 111.089 476.075 109.977ZM337.121 118.965C338.017 121.158 338.812 123.398 339.792 125.562C341.981 123.263 343.781 120.639 345.856 118.243C347.69 116.13 349.46 113.954 351.142 111.71C348.894 111.372 346.68 110.865 344.444 110.489C342.019 113.328 339.534 116.117 337.121 118.965ZM349.355 116.197C346.194 119.663 343.549 123.567 340.329 126.973L340.798 128.363C343.012 126.948 344.364 124.585 346.228 122.785C349.266 119.329 352.376 115.94 355.469 112.534C354.624 112.347 353.769 112.206 352.909 112.111C351.332 113.079 350.61 114.904 349.355 116.197ZM341.52 129.994C342.281 131.983 343.075 133.955 343.904 135.91C347.153 131.685 350.846 127.767 353.855 123.339C356.391 120.085 359.065 116.937 361.461 113.582C359.999 113.307 358.503 113.07 357.067 112.796C351.768 118.416 346.76 124.307 341.52 129.994ZM355.964 122.836C354.388 124.678 353.225 126.838 351.586 128.629C349.946 130.421 348.531 132.58 346.811 134.398C345.987 135.374 345.049 136.333 344.571 137.537C344.947 138.851 345.56 140.073 346.05 141.361C349.266 137.77 352.604 134.292 355.643 130.552C357.519 128.211 359.632 126.06 361.301 123.554C363.608 120.474 366.346 117.744 368.907 114.875C366.955 114.558 365.011 114.19 363.05 113.916C360.646 116.874 358.402 119.912 355.968 122.836H355.964ZM370.183 115.504C368.332 117.347 366.705 119.396 364.91 121.285C362.611 123.668 361.001 126.605 358.706 128.993C354.84 133.709 350.77 138.247 346.612 142.714C346.747 143.136 346.891 143.559 347.035 143.981C348.607 142.012 350.166 140.035 351.869 138.175C358.174 130.218 364.994 122.688 372 115.357C371.413 115.42 370.635 115.006 370.183 115.526V115.504ZM352.625 139.388C350.811 141.305 349.171 143.38 347.724 145.587C347.952 146.179 348.176 146.77 348.412 147.366C351.983 143.762 355.005 139.65 358.351 135.843C360.68 133.337 362.514 130.417 365.015 128.072C367.8 125.502 370.268 122.62 373.023 120.043C374.291 118.809 375.672 117.626 376.644 116.113C375.639 115.961 374.637 115.83 373.636 115.69C366.23 123.217 359.221 131.124 352.638 139.38L352.625 139.388ZM378.339 116.502C377.151 117.41 376.416 118.805 375.262 119.768C372.596 122.147 370.238 124.839 367.72 127.353C365.332 129.524 363.17 131.931 361.267 134.537C357.253 139.13 353.441 143.893 349.414 148.482C348.911 148.989 349.452 149.716 349.524 150.299C359.665 139.735 369.663 128.976 379.776 118.353C380.218 117.956 380.582 117.48 380.849 116.95C380.147 116.468 379.159 116.582 378.339 116.527V116.502ZM387.521 117.816C392.14 131.478 396.932 145.084 401.601 158.729C401.648 159.574 402.48 158.852 402.67 158.526C412.564 146.37 422.476 134.231 432.407 122.109C417.376 121.594 402.404 119.853 387.521 117.816ZM436.146 122.287C437.515 125.452 439.818 128.122 441.243 131.27C442.667 134.419 444.936 137.005 446.313 140.144C448.528 144.095 450.771 148.042 453.277 151.82C455.001 154.816 456.658 157.88 458.771 160.614C460.262 155.032 462.527 149.699 464.395 144.239C465.921 140.292 467.214 136.248 469.043 132.437C470.92 128.11 472.847 123.791 474.909 119.561C462.033 120.82 449.111 122.004 436.146 122.249V122.287Z" fill="black"/>
<path d="M153.237 71.8107C153.752 70.4499 154.576 69.2274 155.645 68.2396C156.713 67.2518 157.997 66.5258 159.394 66.1187C160.192 65.7384 161.413 66.4948 161.147 67.4075C160.881 68.3203 159.812 68.1512 159.136 68.4808C158.076 68.9694 157.141 69.6922 156.401 70.5947C155.661 71.4973 155.135 72.556 154.864 73.6911C154.581 75.449 155.603 77.2407 156.938 78.3394C158.405 79.6071 160.556 79.007 162.009 78.052C163.607 77.1393 165.09 75.3096 164.477 73.37C164.152 71.7684 162.132 71.0374 160.746 71.7557C159.647 72.2333 158.996 73.9024 160.07 74.7475C160.366 73.7165 161.87 72.846 162.356 74.2193C163.057 76.3787 160.095 77.4224 158.595 76.2857C157.095 75.149 157.107 72.7234 158.151 71.2402C159.842 68.7555 164.042 68.7935 165.812 71.1853C166.471 72.2182 166.781 73.435 166.698 74.6571C166.614 75.8793 166.141 77.0424 165.348 77.976C163.332 80.2874 159.994 81.9059 156.938 80.8368C153.727 79.3409 151.644 75.1617 153.237 71.8107Z" fill="black"/>
<path d="M184.101 73.5516C184.646 73.4798 185.267 73.2009 185.758 73.615C186.066 74.1855 186.066 75.3687 185.183 75.3053C184.139 75.4954 184.114 74.2573 184.101 73.5516Z" fill="black"/>
<path d="M47.4569 72.3572C49.1979 71.4276 51.3784 72.4079 52.0756 74.1954C53.2419 76.5068 52.0545 79.6254 49.7641 80.7452C47.8161 81.2016 46.4343 79.4775 45.268 78.2098C43.5143 78.9578 41.6212 79.3423 39.9267 80.2297C43.0411 81.1298 46.0709 82.2749 49.1261 83.3483C50.7318 83.9737 51.8981 86.0738 53.825 85.44C60.7524 84.0314 67.6783 82.6228 74.6028 81.2143C75.5536 80.965 77.0875 80.9143 77.1382 82.2369C82.0527 104.777 86.8193 127.35 91.6746 149.903C93.2592 157.087 94.6791 164.342 96.3609 171.522C96.0904 172.172 95.6763 172.832 94.9073 172.916C70.4743 178.311 46.0357 183.678 21.5914 189.016C20.5646 189.227 19.5377 189.565 18.4771 189.489C17.7122 189.527 17.5136 188.644 17.3573 188.086C11.6188 158.332 5.87464 128.57 0.124872 98.8016C-0.010267 98.0387 -0.0358761 97.2604 0.0488129 96.4902C4.98443 95.1549 10.0637 94.3773 15.0585 93.3082C15.9839 92.9871 17.3235 93.2153 17.8939 92.2602C20.6575 87.5148 23.7212 82.5961 28.5427 79.6846C30.8246 78.1971 33.6938 78.6915 36.2292 79.0127C39.014 78.1676 41.7776 77.1956 44.5031 76.173C45.1074 74.6644 45.7455 72.9066 47.4611 72.3699L47.4569 72.3572ZM29.5653 80.703C27.028 82.1645 24.8595 84.1883 23.2268 86.6189C21.959 88.4867 20.5603 90.2742 19.6434 92.349C29.9752 90.308 40.2817 88.1698 50.5839 86.0823C49.2232 84.9709 47.4865 84.561 45.868 83.9694C42.9354 83.0567 40.0324 82.0256 37.0659 81.227C34.8559 81.6115 32.8022 82.6552 30.6513 83.2891L29.5738 82.7862C29.6033 82.4228 29.6709 81.7002 29.7048 81.341C30.7696 80.9523 31.843 80.5847 32.8952 80.1663C31.7753 79.8071 30.571 80.1663 29.5484 80.6649L29.5653 80.703ZM64.9048 85.3935C64.3724 85.5583 63.5991 85.5245 63.4005 86.1795C61.6426 89.9826 59.2931 93.5153 57.6789 97.3987C61.6552 96.6465 65.6105 95.7676 69.5826 94.9816C71.0025 91.1404 72.697 87.4049 74.1168 83.5722C71.0405 84.1427 67.9811 84.8061 64.9048 85.4019V85.3935ZM71.3025 94.1407C70.4574 95.7549 71.3363 97.5212 71.6068 99.1481C76.2212 120.746 80.9456 142.318 85.5178 163.924C88.3447 165.779 90.6985 168.289 93.6649 169.945C92.8705 165.479 91.7802 161.072 90.8886 156.618C85.6826 132.531 80.5906 108.377 75.3465 84.2737C73.9224 87.5275 72.697 90.87 71.3025 94.1407ZM60.1763 86.3781C59.5973 86.8345 59.4114 87.5993 59.0818 88.2289C57.6493 91.6095 55.7984 94.783 54.4082 98.172C54.9955 97.8508 56.052 98.0495 56.2633 97.2339C57.9535 93.397 60.134 89.8262 61.9975 86.0865C61.3843 86.1408 60.7757 86.2382 60.1763 86.3781ZM3.15047 97.9142C4.96752 99.82 7.44378 100.936 9.19322 102.917C10.4501 104.283 11.8482 105.511 13.364 106.581C26.4848 103.877 39.6182 101.215 52.7221 98.4424C54.5307 94.5337 56.6224 90.7601 58.262 86.7795C39.8802 90.4432 21.5323 94.2548 3.15047 97.9142ZM14.8852 108.478C17.1291 121.054 19.5673 133.6 21.9126 146.159C23.1803 143.564 24.2536 140.864 25.5424 138.274C28.4286 132.506 30.7231 126.463 33.6811 120.733C35.4306 121.578 36.4363 123.323 37.7463 124.68C39.0946 126.152 40.5192 127.553 42.0142 128.876C43.6327 130.211 44.6933 132.109 46.4427 133.304C48.0358 134.407 49.5529 135.654 51.3319 136.461C53.834 133.661 56.0812 130.643 58.0465 127.443C59.4579 125.107 60.5819 122.597 62.0525 120.31C66.3373 122.956 70.2461 126.67 75.4226 127.431C73.3097 117.385 71.1448 107.352 68.9277 97.3311C50.9318 101.1 32.9177 104.816 14.8852 108.478ZM2.46169 99.2115C8.09595 128.51 13.7485 157.808 19.4194 187.106C21.7689 183.865 23.3916 180.18 25.4368 176.762C21.1069 153.864 16.8122 130.962 12.5526 108.056C12.5019 107.376 11.8216 107.097 11.3695 106.716C9.47211 105.398 8.17483 103.412 6.29862 102.089C4.99288 101.181 3.70826 100.238 2.49549 99.2157L2.46169 99.2115ZM67.9093 129.184C66.219 129.341 65.4077 131.107 63.8991 131.656C61.9299 132.392 59.8805 130.389 57.9831 131.517C55.4477 132.624 54.3997 135.434 52.3967 137.205C54.5096 138.24 56.9013 138.578 59.0691 139.516C64.1991 141.177 69.515 139.516 74.6746 138.899C75.6127 138.625 76.9354 138.751 77.6326 138.033C77.1636 134.906 76.4367 131.8 75.6592 128.736C74.1636 128.565 72.6956 128.206 71.2898 127.667C70.359 128.53 69.1721 129.066 67.9093 129.193V129.184ZM35.794 133.22C34.3826 133.283 32.9036 133.22 31.5683 133.82C30.6175 134.209 30.1104 135.168 29.4892 135.933C28.492 137.323 27.3215 138.578 26.3115 139.956C24.5452 142.888 23.6113 146.21 22.5591 149.438C23.0535 152.747 23.8268 156.013 24.3381 159.318C25.6405 159.172 26.934 158.957 28.2131 158.671C40.4789 155.499 52.7447 152.326 65.0105 149.151C58.2099 156.43 51.4291 163.72 44.6679 171.019C48.5725 170.296 52.4432 169.392 56.3478 168.657C57.045 168.479 57.8901 168.441 58.3169 167.773C63.8357 160.898 69.3798 154.048 74.8859 147.165C76.4494 146.89 78.0087 146.607 79.568 146.294C79.0398 144.05 78.5242 141.802 78.1312 139.533C74.0534 140.421 69.8954 140.843 65.7838 141.553C63.9752 141.845 62.1539 141.447 60.3622 141.206C58.7353 140.995 57.307 140.104 55.7139 139.77C51.9699 138.925 48.8345 136.613 45.7666 134.437C44.1228 133.279 42.9481 131.614 41.579 130.165C39.6098 131.103 38.1984 133.393 35.8067 133.216L35.794 133.22ZM78.0509 166.371C66.5063 168.796 54.9448 171.146 43.4002 173.554C42.3861 173.588 42.2001 174.661 41.9043 175.418C41.0592 178.042 39.6056 180.413 38.7816 183.045C56.8126 179.022 74.8774 175.13 92.9169 171.133C90.0012 169.443 87.6898 166.869 84.7825 165.179C82.5048 165.225 80.3075 166.024 78.0594 166.375L78.0509 166.371ZM37.8688 174.733C36.4701 177.843 35.4517 181.131 33.6896 184.072C34.8432 183.899 35.9799 183.649 37.1124 183.362C38.304 180.231 40.0112 177.302 40.9155 174.066C39.8929 174.251 38.8787 174.488 37.873 174.729L37.8688 174.733ZM27.5454 176.842C26.7003 176.969 26.3876 177.852 25.9819 178.481C24.3339 181.232 23.0239 184.169 21.2491 186.84C24.448 186.227 27.5877 185.42 30.7992 184.795C31.2218 184.668 31.7458 184.638 32.1049 184.321C33.7521 181.356 35.1187 178.244 36.187 175.025C33.3135 175.667 30.4189 176.212 27.5412 176.833L27.5454 176.842Z" fill="black"/>
<path d="M197.07 77.4858C195.773 77.3675 196.517 75.6899 197.607 76.0068C197.561 76.5604 198.034 77.6253 197.07 77.4858Z" fill="black"/>
<path d="M191.166 77.1521C191.441 76.6619 192.113 77.0506 192.556 76.9661C192.438 77.3887 192.759 78.0268 192.311 78.2845C191.673 79.0959 190.355 77.769 191.166 77.1521Z" fill="black"/>
<path d="M201.049 79.1126L202.266 79.0703C202.357 79.6116 202.357 80.1643 202.266 80.7057L200.998 80.6549C201.003 80.1394 201.015 79.6239 201.049 79.1126Z" fill="black"/>
<path d="M186.677 79.9409H187.784L188.367 80.9973C187.944 81.6946 187.239 81.7495 186.512 81.6523C186.541 81.0903 186.596 80.5114 186.677 79.9409Z" fill="black"/>
<path d="M194.489 79.7592C195.335 79.4127 195.622 80.0888 195.592 80.786C194.933 80.9339 193.86 80.6001 194.489 79.7592Z" fill="black"/>
<path d="M205.96 80.934C205.914 80.0888 206.738 80.3677 207.283 80.3466C207.283 80.7692 207.313 81.1706 207.329 81.589C206.776 81.534 205.927 81.7791 205.96 80.934Z" fill="black"/>
<path d="M199.378 81.944C199.626 81.9402 199.871 81.9935 200.096 82.0997C200.32 82.206 200.517 82.3624 200.671 82.5568C200.498 82.7469 200.147 83.1188 199.974 83.3047L199.276 82.8821L199.378 81.944Z" fill="black"/>
<path d="M189.667 82.4258C190.533 82.3074 190.977 82.6962 190.854 83.5752H189.722C189.701 83.1906 189.684 82.8061 189.667 82.4258Z" fill="black"/>
<path d="M212.676 82.358C213.251 81.3903 213.944 82.7341 213.745 83.3003C213.213 83.4693 211.945 82.9834 212.676 82.358Z" fill="black"/>
<path d="M193.075 85.0372C193.498 83.7314 194.634 82.2736 196.164 82.5525C197.985 82.8229 198.801 84.6653 199.545 86.1232C200.741 85.8105 202.105 85.5274 203.276 86.0598C204.987 87.3275 204.793 90.0573 203.424 91.5532C201.755 94.283 198.509 95.1324 195.754 96.3325L194.787 95.8423C193.371 92.4364 192.264 88.7135 193.075 85.0372Z" fill="black"/>
<path d="M217.056 82.7932L218.366 82.9284C218.337 83.4186 218.307 83.9088 218.282 84.4032L217.065 84.4666C216.969 83.9131 216.966 83.3476 217.056 82.7932Z" fill="black"/>
<path d="M203.341 83.4399C203.792 83.368 204.249 83.3341 204.706 83.3385C204.706 83.8498 204.706 84.3611 204.706 84.8724L203.172 84.8429C203.158 84.3694 203.215 83.8965 203.341 83.4399Z" fill="black"/>
<path d="M210.418 84.3146C210.165 83.3553 211.466 83.5666 212.012 83.6554L211.974 84.9569C211.441 84.9949 210.245 85.2189 210.418 84.3146Z" fill="black"/>
<path d="M208.26 86.1231C208.26 85.5653 207.867 84.716 208.758 84.7244C209.679 84.661 209.603 85.5484 209.46 86.1738L208.26 86.1231Z" fill="black"/>
<path d="M187.836 86.25C187.672 85.7049 188.318 84.4076 188.884 85.3204C189.725 85.874 188.377 86.5163 187.836 86.25Z" fill="black"/>
<path d="M214.164 87.8853C214.223 87.4247 213.898 86.3302 214.756 86.4993C215.533 86.2626 215.554 87.3444 215.25 87.767C214.887 87.8177 214.523 87.8599 214.164 87.8853Z" fill="black"/>
<path d="M188.825 88.7728C189.932 88.2531 190.595 89.9941 189.476 90.3617C188.55 90.6533 187.98 89.2546 188.825 88.7728Z" fill="black"/>
<path d="M209.4 89.1022L210.833 89.0684L210.795 90.5262L209.434 90.484C209.417 90.0234 209.405 89.5628 209.4 89.1022Z" fill="black"/>
<path d="M206.103 91.1984C206.069 90.6195 205.68 89.6771 206.652 89.8462C207.497 89.8462 207.21 90.8054 206.948 91.266L206.103 91.1984Z" fill="black"/>
<path d="M189.155 92.9729L190.423 93.1208C190.372 93.5814 190.6 94.3885 189.844 94.3209C188.948 94.5195 189.083 93.5096 189.155 92.9729Z" fill="black"/>
<path d="M192.07 94.0336C191.956 93.2138 192.839 93.4843 193.338 93.4209C193.338 93.8435 193.338 94.266 193.371 94.6886C192.86 94.6168 191.93 94.845 192.07 94.0336Z" fill="black"/>
<path d="M208.086 93.3028L209.172 93.2605L209.138 94.3381L208.128 94.3C208.116 94.0338 208.095 93.5521 208.086 93.3028Z" fill="black"/>
<path d="M202.673 94.6423C202.732 94.1605 202.829 93.6577 203.353 93.4548C203.919 93.6281 204.012 94.1563 204.063 94.6592L202.673 94.6423Z" fill="black"/>
<path d="M205.619 96.7298C206.709 96.489 206.916 98.1919 205.894 98.4201C204.858 98.4539 204.495 96.827 205.619 96.7298Z" fill="black"/>
<path d="M192.088 98.9398C191.141 97.9636 192.548 97.2495 193.423 97.634C193.651 98.4623 193.013 99.7511 192.088 98.9398Z" fill="black"/>
<path d="M200.529 98.9271C200.593 98.382 200.31 97.3129 201.243 97.4481C202.148 97.2452 202.211 98.327 201.865 98.8975C201.417 98.9271 200.973 98.9355 200.529 98.9271Z" fill="black"/>
<path d="M196.451 99.4045C196.95 99.4045 197.452 99.4299 197.955 99.4468C197.955 99.8102 197.938 100.174 197.905 100.537C197.672 101.146 196.924 100.867 196.447 100.96C196.443 100.436 196.443 99.9201 196.451 99.4045Z" fill="black"/>
<path d="M293.601 100.998C294.127 100.97 294.655 100.97 295.181 100.998V102.265C294.655 102.297 294.127 102.297 293.601 102.265C293.597 101.851 293.597 101.424 293.601 100.998Z" fill="black"/>
<path d="M191.694 102.35H192.615C192.615 102.747 192.615 103.14 192.636 103.537H191.656C191.664 103.119 191.677 102.73 191.694 102.35Z" fill="black"/>
<path d="M197.153 102.206C197.575 102.206 198.036 102.181 198.479 102.206C198.609 102.417 198.678 102.66 198.678 102.908C198.678 103.155 198.609 103.398 198.479 103.609C198.057 103.609 197.634 103.609 197.212 103.609C197.165 103.136 197.157 102.671 197.153 102.206Z" fill="black"/>
<path d="M287.735 102.751C288.238 102.667 288.779 102.489 289.278 102.751C289.616 103.258 289.341 103.85 289.278 104.387C288.724 104.299 288.183 104.143 287.668 103.922C287.672 103.533 287.702 103.14 287.735 102.751Z" fill="black"/>
<path d="M291.602 105.464C291.234 104.619 292.346 103.964 293.022 104.458C293.626 104.746 293.487 105.439 293.529 105.984C292.853 106.128 291.822 106.398 291.602 105.464Z" fill="black"/>
<path d="M303.772 104.459L305.344 104.404C305.344 104.957 305.374 105.511 305.387 106.064C304.841 106.064 304.305 106.064 303.768 106.03C303.764 105.506 303.764 104.982 303.772 104.459Z" fill="black"/>
<path d="M307.787 105.118C308.387 104.344 309.756 105.675 308.89 106.28C308.611 106.753 307.951 106.364 307.525 106.449C307.618 106.022 307.292 105.367 307.787 105.118Z" fill="black"/>
<path d="M296.398 105.57C296.914 104.805 298.287 106.14 297.535 106.677C297.273 107.235 296.542 106.829 296.09 106.901C296.2 106.47 295.883 105.819 296.398 105.57Z" fill="black"/>
<path d="M316.659 105.899C317.144 105.882 317.629 105.951 318.091 106.102C318.112 106.525 318.116 106.947 318.112 107.395C317.69 107.256 316.887 107.657 316.709 107.078L316.659 105.899Z" fill="black"/>
<path d="M312.203 106.597C312.706 106.537 313.239 106.36 313.737 106.597C314.067 107.091 313.86 107.678 313.805 108.219C312.749 108.401 311.941 107.691 312.203 106.597Z" fill="black"/>
<path d="M300.479 107.978C300.834 107.484 301.274 106.863 301.962 106.88C302.516 108.819 302.305 110.856 302.313 112.846C304.096 113.692 306.116 113.869 307.887 114.697C307.887 114.925 307.887 115.378 307.887 115.606C306.196 116.421 304.278 116.451 302.558 117.157C302.611 118.538 302.54 119.921 302.347 121.289C300.475 121.522 299.858 119.202 298.709 118.129C297.441 118.374 296.241 118.864 294.994 119.177C294.828 119.231 294.648 119.232 294.481 119.18C294.314 119.127 294.167 119.025 294.061 118.886C293.955 118.746 293.894 118.578 293.888 118.403C293.882 118.228 293.93 118.055 294.026 117.909C294.593 116.844 295.294 115.842 295.873 114.79C294.796 113.493 293.688 112.213 292.598 110.928L293.321 110.425C295.036 110.672 296.737 111.008 298.417 111.431C299.123 110.29 299.735 109.086 300.479 107.978Z" fill="black"/>
<path d="M291.442 108.363C291.865 107.556 293.204 107.277 293.462 108.388L293.04 109.394L292.025 109.343L291.442 108.363Z" fill="black"/>
<path d="M192.519 108.152C193.187 108.093 194.091 107.869 194.188 108.824C194.074 109.745 193.204 109.529 192.544 109.5L192.519 108.152Z" fill="black"/>
<path d="M318.145 108.202C318.682 108.12 319.227 108.103 319.768 108.152C319.768 108.574 319.734 109.031 319.721 109.474C319.206 109.474 318.699 109.449 318.191 109.424C318.17 109.014 318.158 108.608 318.145 108.202Z" fill="black"/>
<path d="M287.893 109.643C287.681 108.519 288.856 108.312 289.655 108.688C289.655 109.195 289.646 109.703 289.629 110.21C288.987 110.408 287.821 110.691 287.893 109.643Z" fill="black"/>
<path d="M307.146 109.542H308.684C308.718 110.032 308.874 110.552 308.65 111.021C308.177 111.313 307.623 111.144 307.116 111.11C307.121 110.586 307.129 110.066 307.146 109.542Z" fill="black"/>
<path d="M304.916 110.691C305.507 109.821 306.834 110.805 306.336 111.672C305.93 112.906 303.792 111.634 304.916 110.691Z" fill="black"/>
<path d="M311.979 111.325C311.768 110.446 312.917 110.37 313.429 110.75C313.458 111.173 313.475 111.617 313.471 112.052C312.884 111.989 311.836 112.293 311.979 111.325Z" fill="black"/>
<path d="M49.4887 110.422C51.9523 109.539 54.7835 111.787 54.3018 114.407C54.3018 117.407 50.224 118.743 48.1576 116.828C46.011 115.092 46.9618 111.267 49.4887 110.422Z" fill="black"/>
<path d="M315.166 114.947C315.25 114.524 314.866 113.848 315.343 113.578C315.926 112.733 317.279 114.089 316.518 114.668C316.26 115.162 315.597 114.841 315.166 114.947Z" fill="black"/>
<path d="M289.239 114.457C289.729 114.457 290.22 114.457 290.718 114.457C290.689 114.926 290.663 115.399 290.638 115.872H289.315C289.286 115.386 289.256 114.921 289.239 114.457Z" fill="black"/>
<path d="M309.616 116.244L310.884 116.303C310.884 116.81 310.884 117.317 310.884 117.824L309.616 117.896C309.521 117.349 309.521 116.791 309.616 116.244Z" fill="black"/>
<path d="M306.646 117.862L307.913 117.951C308.002 118.598 308.116 119.388 307.288 119.591C306.299 119.493 306.51 118.543 306.646 117.862Z" fill="black"/>
<path d="M289.264 118.741C289.427 118.654 289.611 118.614 289.795 118.626C289.979 118.638 290.156 118.7 290.306 118.807C290.457 118.913 290.575 119.06 290.647 119.23C290.719 119.399 290.742 119.586 290.714 119.768C290.756 120.52 289.831 120.753 289.302 120.385C288.774 120.017 288.592 119.012 289.264 118.741Z" fill="black"/>
<path d="M296.872 120.33C297.337 120.33 297.811 120.381 298.284 120.41C298.284 120.854 298.284 121.298 298.284 121.746L296.881 121.801C296.86 121.31 296.864 120.82 296.872 120.33Z" fill="black"/>
<path d="M303.708 122.511C303.358 121.843 303.755 121.243 304.27 120.82L305.352 121.399C305.352 121.771 305.352 122.143 305.352 122.519C304.803 122.625 304.207 122.857 303.708 122.511Z" fill="black"/>
<path d="M291.534 124.421C291.775 123.715 292.502 123.905 293.068 123.876C293.068 124.4 293.068 124.928 293.068 125.46C292.367 125.57 291.31 125.405 291.534 124.421Z" fill="black"/>
<path d="M294.796 124.657C295.519 124.15 296.246 124.881 295.756 125.621C295.037 125.874 294.37 125.422 294.796 124.657Z" fill="black"/>
<path d="M297.839 126.504C297.674 125.591 298.735 125.545 299.364 125.6C299.364 126.111 299.364 126.627 299.398 127.142C298.84 127.134 297.839 127.353 297.839 126.504Z" fill="black"/>
<path d="M456.806 126.91C457.541 126.677 458.445 126.42 459.117 126.982C459.421 127.556 459.29 128.431 458.555 128.566C456.954 129.124 455.263 129.648 454.076 130.937C452.195 132.534 451.786 135.97 453.877 137.563C455.677 139.202 458.648 138.784 460.355 137.212C462.062 135.64 460.706 131.824 458.133 132.382C456.755 132.382 455.538 134.431 457.097 135.179C457.254 134.537 457.216 133.789 457.714 133.286C458.948 132.864 460.102 134.216 459.671 135.399C459.058 137.389 456.13 137.702 454.9 136.134C453.696 134.795 454.08 132.593 455.39 131.486C456.692 130.096 458.821 130.121 460.524 130.607C463.322 132.002 464.222 136.194 462.075 138.547C459.574 141.201 454.782 141.556 452.136 138.919C450.201 137.204 450.023 134.271 450.831 131.955C451.87 129.432 454.27 127.696 456.806 126.91Z" fill="black"/>
<path d="M400.769 129.132C401.323 127.298 403.841 126.516 405.35 127.679C406.368 128.329 406.744 129.525 407.074 130.637C408.063 129.956 409.123 129.158 410.404 129.263C412.305 129.187 413.898 131.262 413.387 133.087C413.007 134.469 411.777 135.327 410.886 136.367C409.195 138.302 407.133 140.132 404.631 140.842C402.971 139.751 402.316 137.651 401.674 135.864C401.103 133.679 400.004 131.393 400.769 129.132Z" fill="black"/>
<path d="M292.794 129.834C293.309 129.834 293.825 129.813 294.349 129.808C294.349 130.303 294.535 130.844 294.256 131.304C293.782 131.562 293.237 131.406 292.739 131.389C292.747 130.869 292.768 130.349 292.794 129.834Z" fill="black"/>
<path d="M497.513 453.134C497.513 450.164 497.513 447.194 497.513 444.221C497.513 443.313 497.462 442.81 497.475 442.041C495.654 442.041 494.58 442.041 492.759 442.041C492.679 410.708 492.759 379.37 492.721 348.036C495.033 349.498 497.623 350.812 500.437 350.665C503.251 350.517 506.218 350.534 508.779 349.194C511.454 347.981 514.221 346.067 514.986 343.063C516.427 338.051 515.443 332.807 515.476 327.689C515.257 323.836 515.367 319.965 515.033 316.12C517.915 314.941 520.949 313.098 521.84 309.895C522.605 307.698 521.747 305.467 521.173 303.345C519.626 302.978 518.033 303.066 516.465 303.083C496.478 303.083 476.49 303.054 456.503 303.13C458.193 301.913 460.018 300.67 460.864 298.693C461.772 296.618 462.816 294.539 463.061 292.253C463.373 289.72 463.391 287.159 463.116 284.621C462.478 277.923 456.545 272.692 450.215 271.302C453.54 265.513 452.877 258.202 450.257 252.286C448.055 252.388 446.099 253.921 444.426 255.274C441.392 258.088 438.087 261.076 436.916 265.191C436.071 267.811 436.198 270.621 436.583 273.313C434.75 271.21 432.438 269.578 429.843 268.555C429.082 268.196 428.233 268.289 427.426 268.306C427.565 268.956 427.696 269.755 428.482 269.928C431.119 270.921 433.604 272.422 435.404 274.632C431.481 276.526 428.235 279.582 426.107 283.383C424.197 286.764 424.379 290.757 424.552 294.492C424.648 296.19 425.123 297.845 425.944 299.334C426.764 300.823 427.909 302.109 429.293 303.096C422.718 303.159 416.143 303.117 409.572 303.117C408.778 303.117 407.801 303.185 407.413 304C405.794 306.62 406.293 310.242 408.321 312.507C409.673 314.117 411.6 315.042 413.515 315.836C413.426 320.637 413.138 325.433 413.067 330.238C412.881 334.915 412.268 339.859 414.153 344.296C415.843 347.254 419.101 348.898 422.236 349.9C425.866 350.453 429.872 351.058 433.282 349.287C434.311 348.769 435.31 348.194 436.274 347.563C436.274 357.088 436.308 366.612 436.249 376.141C430.882 375.579 425.372 375.038 420.052 376.255C411.257 377.88 402.663 380.449 394.419 383.917C388.144 386.6 382.084 389.926 376.823 394.299C372.403 397.904 368.604 402.374 366.17 407.555C366.44 404.453 366.854 401.369 367.066 398.259C364.581 395.968 361.188 395.394 358.04 394.557C351.367 392.926 344.365 392.347 337.566 393.53C336.814 389.533 334.959 385.924 333.531 382.15C332.369 379.919 331.384 377.599 330.15 375.389C329.82 374.907 329.647 374.033 328.882 374.29C328.117 374.548 327.843 375.491 327.915 376.272C327.953 382.784 329.347 389.182 330.763 395.512C328.312 396.906 325.113 397.959 324.002 400.798C323.959 403.08 324.728 405.299 325.024 407.559C327.101 419.138 329.164 430.719 331.215 442.303C331.359 443.114 331.401 443.292 331.599 444.475C332.17 447.357 332.601 450.268 333.18 453.15C333.4 454.718 335.111 455.263 336.341 455.863C343.672 458.872 351.946 457.976 359.392 455.863C360.165 455.58 361.408 455.441 361.479 454.41C361.817 451.19 362.088 447.961 362.426 444.745C364.585 448.249 367.818 450.928 371.376 452.931C378.708 457.196 386.802 459.989 395.205 461.154C403.373 462.236 411.896 461.314 419.388 457.773C419.418 459.464 419.253 461.154 419.456 462.806C419.633 463.884 420.956 463.884 421.81 463.901C450.544 463.901 479.279 463.901 508.014 463.901C509.142 463.981 510.761 463.546 510.659 462.122C510.731 459.134 510.917 456.07 509.987 453.184C505.838 453.074 501.68 453.155 497.513 453.134ZM495.113 444.615C495.087 447.454 495.113 450.298 495.113 453.142C485.051 453.091 474.986 453.231 464.929 452.986H437.487C437.55 450.949 437.415 448.908 437.542 446.879C438.442 445.789 439.68 444.479 441.235 444.61C459.194 444.8 477.17 444.492 495.113 444.615ZM443.496 419.877C442.955 418.31 444.709 417.697 445.702 416.974C445.748 425.375 445.702 433.78 445.731 442.18C443.967 442.356 442.192 442.415 440.42 442.358C442.592 439.785 444.341 436.729 444.717 433.332C445.19 428.81 444.324 424.302 443.496 419.877ZM452.484 442.202C450.958 442.273 449.433 442.269 447.912 442.257C447.861 433.45 447.975 424.644 447.853 415.842C449.479 414.784 451.022 413.603 452.467 412.309C452.48 422.273 452.446 432.237 452.484 442.202ZM451.639 382.298C450.11 381.18 448.506 380.168 446.838 379.268C446.838 364.631 446.838 349.988 446.838 335.351C448.437 334.991 450.068 334.801 451.706 334.784C451.529 350.631 451.698 366.469 451.639 382.298ZM448.22 327.33L449.767 327.402C449.767 328.877 449.767 330.36 449.729 331.831L448.296 331.928C448.22 330.394 448.186 328.86 448.22 327.33ZM451.601 331.624C451.601 330.115 451.601 328.611 451.601 327.106C453.274 326.33 455.003 325.681 456.773 325.163C456.748 327.322 456.853 329.485 456.701 331.645C454.981 331.573 453.278 331.586 451.584 331.624H451.601ZM453.832 370.394C453.785 358.503 453.929 346.612 453.76 334.725C455.755 334.768 457.749 334.772 459.748 334.835C459.541 345.399 459.714 356.002 459.659 366.583C459.685 377.147 459.608 387.711 459.693 398.275C459.152 393.126 457.058 388.262 453.688 384.331C454.014 379.691 453.743 375.043 453.832 370.394ZM469.953 331.843C468.309 331.721 466.657 331.704 465.009 331.683C464.971 329.283 465.009 326.887 465.009 324.499C466.699 324.423 468.491 324.106 469.953 325.158C469.987 327.373 469.898 329.604 469.953 331.835V331.843ZM477.01 331.843C475.273 331.78 473.545 331.679 471.812 331.695C471.812 329.583 471.812 327.47 471.812 325.357C473.58 325.894 475.308 326.553 476.985 327.33C476.993 328.83 477.001 330.331 477.01 331.835V331.843ZM473.828 334.742L474.728 335.397C474.728 371.024 474.779 406.651 474.728 442.282C472.539 442.282 470.354 442.282 468.174 442.282C468.174 407.899 468.174 373.514 468.174 339.128C468.246 337.835 467.827 336.492 468.225 335.241C469.987 334.556 471.948 334.734 473.828 334.734V334.742ZM465.896 335C466.023 370.754 465.922 406.511 465.947 442.265C464.591 442.265 463.238 442.265 461.886 442.21C461.772 407.433 461.886 372.647 461.831 337.869C461.787 336.814 461.904 335.758 462.178 334.738C463.412 334.852 464.65 334.949 465.896 334.991V335ZM463.116 331.687C461.628 331.687 460.141 331.687 458.653 331.687C458.62 329.409 458.653 327.14 458.628 324.867C460.12 324.689 461.624 324.592 463.128 324.516C463.124 326.899 463.141 329.287 463.116 331.679V331.687ZM459.604 442.193C458.015 442.295 456.422 442.282 454.833 442.252C454.779 431.544 454.939 420.832 454.745 410.137C457.018 406.968 459.308 403.562 459.663 399.573C459.608 413.75 459.731 427.969 459.604 442.185V442.193ZM477.103 367.014C477.162 356.42 476.976 345.818 477.221 335.228C478.734 334.987 480.247 335.275 481.726 335.6C481.726 341.571 481.654 347.542 481.836 353.513C481.684 364.5 481.891 375.486 481.793 386.473C481.751 405.066 481.857 423.659 481.793 442.278C480.255 442.278 478.721 442.278 477.192 442.278C477.01 417.194 477.145 392.102 477.103 367.014ZM478.793 327.601L480.361 327.542C480.361 329.105 480.328 330.67 480.264 332.236L478.802 332.038C478.81 330.554 478.81 329.075 478.81 327.596L478.793 327.601ZM490.131 348.843C490.038 350.69 490.477 352.511 490.393 354.337C490.367 383.635 490.367 412.943 490.393 442.261H484.236C484.194 407.033 484.194 371.804 484.236 336.576C487.498 338.055 487.422 342.095 489.442 344.605C490.532 345.763 490.05 347.415 490.131 348.843ZM488.157 335.621C486.577 333.931 484.418 333.035 482.203 332.524C482.203 330.833 482.203 329.143 482.233 327.453C485.415 326.946 488.394 325.602 491.597 325.175C491.674 327.106 491.63 329.039 491.466 330.964C489.733 331.987 488.778 333.787 488.157 335.621ZM457.576 295.177C457.576 297.129 454.914 298.27 453.507 296.897C452.116 295.832 452.459 293.428 454.069 292.773C455.645 291.902 457.791 293.406 457.576 295.177ZM454.25 278.38C456.591 280.848 458.687 284.034 458.476 287.579C458.286 289.295 456.097 290.436 454.643 289.384C453.278 288.602 453.422 286.873 452.953 285.58C452.082 283.629 450.693 281.953 448.939 280.734C447.417 279.584 447.984 276.842 449.851 276.398C451.584 275.925 453.084 277.264 454.25 278.38ZM450.291 265.31C448.178 266.201 445.968 266.962 443.851 267.896C444.366 267.004 444.59 265.783 445.6 265.297C447.291 264.427 448.85 263.277 450.62 262.546C450.549 263.446 450.908 264.541 450.291 265.31ZM450.519 260.543C449.099 261.173 447.84 262.111 446.386 262.656C447.586 260.34 448.419 257.856 449.649 255.557C450.058 257.201 450.523 258.836 450.519 260.526V260.543ZM447.92 254.936C446.653 257.796 445.452 260.7 444.088 263.522C443.961 261.802 443.585 260.104 443.614 258.371C445.017 257.192 446.289 255.819 447.92 254.936ZM450.033 267.363C449.622 268.767 448.95 270.08 448.051 271.234C446.069 271.2 444.071 271.234 442.135 271.805C442.376 271.133 442.634 270.474 442.892 269.81C445.478 269.561 447.591 267.98 450.042 267.363H450.033ZM441.877 260.37C442.33 262.229 442.254 264.173 442.41 266.049C442.486 267.156 441.793 268.124 441.206 269.007C440.589 266.917 440.187 264.769 440.005 262.597C440.541 261.782 441.173 261.035 441.886 260.37H441.877ZM438.628 265.622C439.198 267.596 439.198 269.797 440.284 271.581C440.255 271.822 440.187 272.299 440.158 272.54C439.553 272.785 438.958 273.022 438.353 273.246C437.905 270.727 437.829 268.078 438.636 265.622H438.628ZM415.446 313.618C412.103 313.162 408.718 309.815 409.61 306.227C425.516 306.227 441.421 306.176 457.327 306.227C462.102 306.582 466.898 306.371 471.694 306.422C487.468 306.443 503.243 306.371 519.022 306.455C519.93 310.406 515.895 313.559 512.29 313.639C480.006 313.619 447.724 313.612 415.446 313.618ZM511.61 315.308L512.007 315.942C480.813 316.073 449.615 315.942 418.421 316.005C417.609 315.819 415.987 316.513 415.885 315.262C447.806 315.329 479.706 315.245 511.61 315.325V315.308ZM429.386 347.39C425.211 347.614 420.512 347.035 417.516 343.823C416.075 341.567 415.75 338.803 415.978 336.183C416.029 330.157 416.401 324.14 416.426 318.114H512.147C512.189 324.136 512.569 330.149 512.569 336.17C512.946 338.857 512.435 341.593 511.115 343.963C509.662 345.606 507.545 346.549 505.491 347.2C502.85 347.445 500.057 348.188 497.5 347.157C494.618 346.071 492.041 343.912 490.836 341.038C490.05 339.044 490.688 336.851 491.66 335.046C492.417 333.517 494.128 332.866 495.624 332.291C499.398 330.977 504.198 334.193 503.809 338.313C503.526 339.483 502.635 340.962 501.236 340.776C499.939 340.827 498.954 339.826 498.134 338.968C499.169 339.086 500.632 339.39 501.172 338.173C502.212 336.445 499.799 335.008 498.274 335.384C495.675 335.507 494.703 338.799 495.709 340.853C497.521 344.28 503.247 345.142 505.478 341.698C507.338 339.585 507.169 336.416 505.952 334.045C504.579 331.664 502.33 329.914 499.685 329.168C499.017 326.071 496.845 323.016 493.63 322.23C491.191 321.604 488.833 322.75 486.446 323.121C484.464 323.472 482.579 324.364 480.53 324.284C477.394 324.562 474.69 322.593 471.656 322.293C469.543 322.09 467.46 321.334 465.317 321.448C461.641 321.545 457.884 321.495 454.331 322.661C452.383 323.24 450.485 324.199 448.415 324.11C446.069 324.233 443.918 323.164 441.654 322.821C439.279 322.323 436.819 321.376 434.394 322.158C432.962 322.703 431.704 323.625 430.754 324.826C429.804 326.028 429.197 327.464 428.998 328.983C427.638 329.319 426.363 329.933 425.254 330.788C424.145 331.643 423.225 332.719 422.553 333.948C421.417 336.259 421.235 339.297 422.976 341.372C424.937 344.618 430.007 344.254 432.247 341.512C434.115 339.551 433.24 335.338 430.236 335.135C428.659 334.751 426.183 336.47 427.497 338.135C428.097 339.192 429.378 338.913 430.384 338.828C429.382 339.902 428.017 340.941 426.454 340.519C425.912 340.213 425.468 339.76 425.174 339.211C424.881 338.663 424.75 338.042 424.797 337.421C424.637 335.308 426.318 333.673 427.954 332.608C430.181 331.286 432.991 331.733 435.104 333.065C436.655 333.825 437.314 335.532 437.804 337.079C438.035 337.817 438.117 338.593 438.044 339.363C437.972 340.133 437.746 340.881 437.381 341.562C436.553 343.057 435.409 344.353 434.028 345.36C432.647 346.366 431.063 347.059 429.386 347.39ZM493.406 329.828C493.406 328.29 493.406 326.756 493.444 325.222C494.809 326.139 496.059 327.335 496.495 328.995C495.437 329.155 494.4 329.434 493.406 329.828ZM444.464 378.28C442.504 377.58 440.501 377.007 438.467 376.564C438.395 366.612 438.467 356.665 438.425 346.714C438.146 344.981 439.794 343.908 440.318 342.408C441.222 340.088 442.008 337.366 444.514 336.28C444.472 350.28 444.569 364.28 444.464 378.28ZM440.437 335.346C439.743 333.517 438.793 331.717 437.081 330.656C436.938 328.737 436.976 326.811 436.98 324.888C440.153 325.365 443.116 326.713 446.276 327.153C446.393 328.88 446.422 330.612 446.361 332.342C444.137 332.75 442.08 333.794 440.437 335.346ZM435.171 329.692C434.145 329.257 433.08 328.921 431.989 328.691C432.682 327.225 433.68 325.851 435.154 325.103C435.18 326.629 435.163 328.159 435.171 329.692ZM363.837 398.571C364.137 399.302 363.258 399.729 362.76 400.067C360.372 401.335 357.659 401.69 355.039 402.121C349.935 402.814 344.763 403.291 339.624 402.746C339.273 400.363 338.724 398.022 338.158 395.685C346.782 394.189 355.652 395.719 363.837 398.55V398.571ZM337.892 422.59C338.045 422.482 338.229 422.425 338.417 422.429C338.605 422.432 338.787 422.496 338.937 422.61C339.086 422.724 339.195 422.883 339.248 423.063C339.301 423.243 339.295 423.436 339.231 423.613C339.1 424.428 338.12 424.209 337.541 424.306C337.477 423.731 337.16 422.793 337.892 422.569V422.59ZM337.148 427.019C337.148 426.245 338.132 426.174 338.648 426.533C338.956 426.985 338.741 427.53 338.694 428.029C338.056 428.037 336.932 427.902 337.148 427.019ZM331.354 397.823C331.697 399.061 332.094 400.278 332.512 401.5C330.864 401.022 329.233 400.494 327.632 399.885C328.746 398.989 330.005 398.289 331.354 397.815V397.823ZM333.007 426.49C332.402 426.955 331.583 425.958 332.292 425.544C332.88 425.075 333.695 426.059 333.007 426.482V426.49ZM334.169 423.6C333.721 424.28 332.757 423.427 333.243 422.852C333.683 422.155 334.642 423.009 334.169 423.592V423.6ZM333.459 420.57L332.462 420.418C332.462 419.738 332.592 418.694 333.493 418.728C334.646 418.534 334.579 420.68 333.459 420.562V420.57ZM328.743 413.978C328.202 413.813 328.32 413.133 328.168 412.71C327.602 409.026 326.753 405.383 326.309 401.677C328.569 402.583 330.887 403.337 333.247 403.934C334.452 407.247 335.512 410.61 336.882 413.86C334.169 413.873 331.452 413.826 328.743 413.97V413.978ZM337.342 439.303C336.88 439.414 336.404 439.45 335.931 439.408C335.835 438.925 335.845 438.426 335.96 437.946C336.429 437.718 336.953 437.853 337.452 437.887C337.48 438.359 337.443 438.833 337.342 439.294V439.303ZM338.673 441.897C340.338 440.794 341.881 443.757 340.047 444.517C338.411 445.371 337.013 442.713 338.673 441.889V441.897ZM340.761 450.839C340.241 450.492 340.275 450.205 340.854 449.994C341.369 450.315 341.34 450.598 340.761 450.83V450.839ZM346.918 454.798C346.326 455.289 345.485 454.3 346.174 453.869C346.749 453.391 347.585 454.346 346.918 454.79V454.798ZM347.412 448.46C346.372 449.119 345.692 447.336 346.685 446.985C347.721 446.427 348.545 448.054 347.412 448.447V448.46ZM346.318 427.931C346.985 427.698 347.213 427.936 347.002 428.646C346.33 428.861 346.102 428.62 346.318 427.919V427.931ZM348.287 444.978C347.353 444.822 347.543 443.998 347.653 443.321C348.075 443.321 348.473 443.351 348.883 443.372C349.005 444.006 349.077 444.767 348.287 444.978ZM349.035 435.259L348.19 435.149C348.19 434.946 348.122 434.545 348.101 434.342C348.874 434.147 349.191 434.477 349.035 435.267V435.259ZM352.918 452.035C352.073 452.457 352.339 451.19 352.267 450.801C353.066 450.518 353.822 451.625 352.935 452.043L352.918 452.035ZM354.3 419.497C353.793 419.497 353.294 419.497 352.796 419.535C352.796 418.965 352.525 417.921 353.404 417.912L354.342 417.971C354.325 418.487 354.313 418.99 354.3 419.51V419.497ZM356.438 445.164C356.894 444.5 357.841 445.346 357.351 445.924C356.899 446.613 355.935 445.743 356.438 445.189V445.164ZM357.156 450.792C356.451 450.978 356.366 449.888 356.958 449.711C357.824 449.149 358.145 451.029 357.161 450.805L357.156 450.792ZM360.499 440.596C360.833 441.251 360.647 441.957 360.499 442.641C358.12 440.566 357.161 437.27 357.292 434.19C357.388 429.616 358.136 425.08 359.514 420.718C360.178 418.58 361.057 416.416 360.782 414.13C354.296 413.577 347.771 413.97 341.272 413.856C340.689 410.898 340.524 407.864 340.004 404.893C345.181 405.476 350.395 404.893 355.534 404.225C358.635 403.752 361.813 403.182 364.56 401.567C364.209 405.493 363.896 409.436 363.334 413.336C362.295 416.467 360.993 419.522 360.279 422.759C358.851 428.603 358.428 434.887 360.499 440.609V440.596ZM415.801 456.873C408.444 459.743 400.284 459.945 392.589 458.517C385.798 457.218 379.258 454.842 373.218 451.477C370.26 449.787 367.345 447.839 365.312 445.054C361.978 440.68 360.879 434.946 361.34 429.55C361.995 421.779 365.016 414.443 368.579 407.576C372.208 400.545 378.386 395.191 385.059 391.126C394.089 385.683 404.163 382.171 414.377 379.716C414.799 381.466 415.222 383.211 415.733 384.935L416.578 385.058C417.123 383.105 415.771 381.208 415.678 379.243L416.713 379.425C417.356 382.353 417.804 385.341 418.311 388.299C418.661 388.269 419.012 388.248 419.371 388.231C419.469 385.058 418.374 382.015 418.036 378.888C420.952 378.356 423.868 377.62 426.859 377.764C434.516 377.81 442.697 378.715 449.12 383.257C450.942 384.39 452.078 386.215 453.562 387.741C455.341 390.276 456.376 393.234 457.204 396.158C458.003 398.973 457.179 401.96 455.831 404.466C453.682 408.358 450.549 411.618 446.745 413.919C445.123 414.954 443.242 415.664 441.915 417.101C440.546 418.791 441.565 420.963 441.827 422.839C442.427 426.583 443.12 430.446 442.347 434.228C441.825 436.379 440.834 438.388 439.443 440.11C439.253 438.796 439.042 437.494 438.856 436.184C438.434 436.159 438.011 436.138 437.588 436.125C437.715 437.997 438.129 439.839 438.197 441.72H437.681C437.443 439.085 437.02 436.47 436.414 433.894C436.342 433.26 435.607 433.239 435.146 433.125C435.357 436.543 436.473 439.886 436.494 443.334C433.311 446.133 429.932 448.7 426.382 451.016C422.993 453.218 419.612 455.496 415.801 456.886V456.873ZM435.142 452.981C432.547 452.981 429.953 452.981 427.358 452.981C430.046 451.256 432.636 449.382 435.116 447.37C435.112 449.246 435.099 451.105 435.142 452.994V452.981ZM508.284 458.931C496.224 458.931 484.161 458.931 472.095 458.931C471.094 458.872 469.983 459.159 469.104 458.538C453.257 458.441 437.411 458.5 421.565 458.509C421.556 457.902 421.58 457.296 421.636 456.692C422.482 455.897 423.58 455.17 424.776 455.229C436.185 455.255 447.595 455.229 459.004 455.229C462.241 455.263 465.486 455.094 468.723 455.483C481.913 455.5 495.102 455.5 508.289 455.483C508.289 456.646 508.287 457.8 508.284 458.944V458.931Z" fill="black"/>
<path d="M145.337 332.62C132.795 310.795 120.259 288.963 107.728 267.121C107.36 266.369 106.659 265.664 105.746 265.989C103.211 266.619 100.802 267.751 98.2498 268.372C96.1032 264.307 93.9058 260.263 91.4887 256.346C90.876 255.429 90.3224 254.406 89.3759 253.777C88.6491 253.468 87.918 253.848 87.4405 254.398C85.1147 256.758 82.5818 258.905 79.8723 260.812C78.5327 258.154 77.3369 255.416 76.0016 252.784C75.579 251.634 74.1042 251.888 73.4323 252.657C58.6424 265.456 43.7299 278.167 28.9569 291.005C26.5067 292.523 23.8799 293.735 21.1351 294.614C20.4041 294.812 19.6984 295.459 20.1336 296.262C21.8239 300.302 23.8395 304.206 25.627 308.212C24.1523 309.691 22.5761 311.622 23.0536 313.87C23.5017 315.134 24.3601 316.211 25.4918 316.93C26.9285 317.804 28.678 317.483 30.2542 317.314C29.1259 318.641 27.7187 319.909 27.5075 321.755C26.9074 323.982 28.3526 326.205 30.2626 327.27C31.7247 328.094 33.4657 327.731 35.063 327.769C34.2179 329.459 32.853 330.993 32.8868 333.013C32.536 335.037 34.0742 336.866 35.925 337.454C37.1082 337.682 38.3168 337.454 39.5042 337.39C37.8435 338.962 36.373 341.24 37.1843 343.615C38.0294 345.542 40.3493 345.829 42.196 345.833C41.9551 346.755 41.7227 347.688 41.5199 348.627H39.2845C39.6446 349.137 39.842 349.743 39.8507 350.368C39.8495 350.575 39.8283 350.781 39.7873 350.985H41.4776C42.1453 351.982 43.0496 352.979 44.3595 352.966C45.2047 353.216 46.6245 352.654 46.895 353.812C45.4582 355.502 45.5385 357.839 45.8808 359.884C46.5696 361.815 48.9233 361.942 50.66 361.954C51.4376 363.412 51.9827 364.988 52.8363 366.408C53.0729 366.831 53.6307 366.898 54.0533 367.089C54.6864 366.325 55.4594 365.69 56.3309 365.217C64.964 360.446 73.7704 355.979 82.7711 351.948C83.8656 351.466 94.0199 347.215 95.5496 346.619C106.232 342.508 117.198 339.013 128.455 336.9C133.496 335.992 138.597 335.21 143.727 335.261C144.403 335.193 145.328 335.333 145.734 334.644C146.258 333.993 145.603 333.245 145.337 332.62ZM73.1957 255.763C73.6322 255.387 74.11 255.063 74.6198 254.795C75.7227 257.28 76.9228 259.718 78.1102 262.16C70.9265 267.32 63.3202 271.88 55.714 276.367C49.8318 279.697 44.0299 283.2 37.9661 286.196C49.6205 275.962 61.4821 265.947 73.1957 255.763ZM77.8144 265.059C81.6555 262.355 85.4502 259.566 88.7758 256.211C91.4527 260.424 93.9138 264.771 96.1497 269.234C76.6016 275.759 57.1254 282.494 37.5773 289.01C51.3024 281.573 64.9429 273.916 77.8144 265.068V265.059ZM25.7115 314.5C24.2494 313.232 25.289 311.119 26.5567 310.147C27.3469 311.931 28.1878 313.693 29.0034 315.468C27.8413 315.569 26.4553 315.62 25.7115 314.525V314.5ZM30.2626 324.773C28.7076 323.277 29.4893 320.817 30.8753 319.507C31.9233 321.569 32.8656 323.687 33.808 325.804C32.5698 325.808 31.0824 325.926 30.2626 324.798V324.773ZM34.9489 334.28C34.8065 333.59 34.8187 332.876 34.9845 332.191C35.1504 331.506 35.4658 330.866 35.9081 330.317C36.7279 332.079 37.6914 333.786 38.3041 335.641C37.0533 335.734 35.5912 335.535 34.9489 334.31V334.28ZM39.2042 343.129C38.5746 341.861 39.3436 340.463 40.1676 339.478C40.8902 340.881 41.5621 342.313 42.1706 343.776C41.1691 343.721 39.9986 343.928 39.2042 343.154V343.129ZM43.8524 350.837C43.0453 349.81 43.675 348.458 43.7722 347.312C44.4478 348.557 45.0599 349.835 45.6061 351.141C45.0201 351.088 44.4384 350.995 43.8651 350.862L43.8524 350.837ZM47.6556 358.984C47.626 358.041 47.3809 356.968 47.9556 356.148C48.5683 357.416 49.1472 358.713 49.7431 360.002C49.067 359.816 47.8373 359.956 47.6809 359.009L47.6556 358.984ZM88.3533 347.152C83.4853 349.138 78.7483 351.432 73.9352 353.545C72.4815 349.4 72.5154 344.921 73.0309 340.61C73.5844 338.113 73.876 335.256 75.7565 333.355C76.2889 334.775 76.7368 336.457 78.1524 337.268C79.7033 338.113 81.3935 338.958 83.2233 338.776C86.9208 338.16 90.2506 334.973 90.3351 331.086C91.7888 331.867 93.4748 331.66 95.0594 331.665C98.9217 331.698 102.961 328.593 103.029 324.54C109.038 326.852 113.475 331.906 116.737 337.293C107.085 339.982 97.6126 343.282 88.3786 347.173L88.3533 347.152ZM75.9931 316.689C76.4157 316.989 76.2424 317.576 76.3776 318.007C75.7903 318.138 75.1099 318.582 74.6282 317.978C73.9267 317.221 75.2747 315.784 75.9931 316.689ZM88.4251 319.266C89.0716 319.004 89.9252 319.131 90.1619 319.883C90.3858 321.303 89.1181 322.317 88.1842 323.179C86.3595 324.51 84.2054 325.315 81.9556 325.508C80.7259 325.592 79.5934 324.396 80.1301 323.188C80.7935 321.815 82.5134 322.516 83.7008 322.144C85.6615 321.924 86.7644 320.082 88.4251 319.266ZM87.1827 310.781C87.3341 310.743 87.4928 310.745 87.6432 310.787C87.7936 310.828 87.9304 310.909 88.0401 311.02C88.1499 311.131 88.2287 311.269 88.2688 311.42C88.3089 311.57 88.3089 311.729 88.2687 311.88C88.2899 312.78 87.056 312.996 86.5362 312.408C86.2869 311.808 86.4348 310.9 87.1827 310.781ZM84.0684 332.058C85.7587 331.766 87.2757 330.976 88.928 330.6C88.7632 333.063 87.4067 335.497 85.0995 336.516C83.4092 337.636 81.2245 337.243 79.5596 336.275C78.0088 335.654 77.4467 333.883 77.3538 332.349C79.5892 332.438 81.871 332.62 84.0684 332.058ZM90.7788 329.298C93.591 327.696 95.9249 325.372 97.5399 322.567C98.7781 322.567 99.9444 322.989 101.106 323.348C101.952 325.343 100.899 327.574 99.1457 328.698C97.1892 330.317 94.5228 330.388 92.1226 330.11C91.569 330.059 91.1929 329.615 90.7788 329.298ZM119.049 336.757C117.882 335.404 116.737 333.972 116.091 332.307C115.571 330.194 115.744 327.984 115.613 325.829C115.588 321.603 115.161 317.378 115.085 313.152C116.868 312.015 119.099 311.546 121.107 310.794C121.107 310.371 121.064 309.949 121.043 309.526C119.184 309.623 117.473 310.371 115.77 311.06C116.556 309.175 118.022 307.532 118.204 305.432C117.75 305.346 117.287 305.319 116.826 305.351C116.184 306.856 115.491 308.339 114.713 309.792C114.32 307.95 114.523 306.044 114.164 304.21C113.462 303.858 112.993 304.03 112.757 304.726C112.782 306.188 112.998 307.646 113.002 309.116C112.047 307.842 111.168 306.513 110.369 305.136C110.048 304.32 109.207 304.608 108.721 305.077C109.41 306.898 110.69 308.377 111.624 310.063C110.439 309.837 109.243 309.676 108.041 309.581C108.011 310.004 107.982 310.405 107.956 310.824C109.668 311.614 111.789 311.204 113.336 312.332C113.953 318.341 113.94 324.405 114.261 330.439C112.896 328.673 111.1 327.329 109.435 325.875C107.622 324.291 105.273 323.606 103.291 322.292C101.854 321.4 100.189 321.024 98.6048 320.488C100.498 317.107 100.65 313.143 100.413 309.383C100.27 308.115 101.609 307.363 101.981 306.243C102.307 305.184 102.334 304.056 102.06 302.983C101.786 301.911 101.22 300.934 100.426 300.162C99.4161 299.275 97.9878 299.642 96.7709 299.541C96.0905 298.552 95.3172 297.635 94.5481 296.722C93.9263 297.326 93.3447 297.97 92.8071 298.649C91.3535 300.509 89.2956 301.789 87.1616 302.736C84.0642 304.155 80.7681 305.347 77.3242 305.398C75.3043 305.486 73.3563 304.882 71.3744 304.612C70.4321 309.336 66.8614 313.198 62.7286 315.455C61.0891 316.258 59.7706 317.547 58.3466 318.662C56.2549 321.595 58.841 326.615 62.5723 326.197C63.476 326.238 64.3731 326.025 65.1626 325.584C67.6319 328.366 70.7945 330.444 74.3282 331.605C71.2603 336.089 70.6603 341.722 70.8082 347.021C70.7575 349.59 71.4885 352.092 72.2322 354.509C66.0838 357.467 60.0791 360.746 54.0617 363.974C52.5067 360.701 50.9784 357.416 49.4769 354.12C50.3823 353.16 51.4933 352.418 52.7264 351.948C53.5715 351.766 53.542 350.841 53.5715 350.165C51.5897 349.649 50.1403 351.323 48.4796 351.986C47.4908 349.907 46.5358 347.815 45.5681 345.728C46.6924 344.747 48.1136 344.173 49.6036 344.097C49.6543 343.573 49.7008 343.049 49.7473 342.537C47.9303 342.077 46.1216 342.728 44.706 343.877C43.7806 341.95 42.8679 340.023 42.0185 338.067C43.2862 337.272 44.7441 337.369 46.1597 337.403C47.1147 337.141 47.0302 335.713 46.1174 335.455C44.3891 335.083 42.6566 335.552 41.0804 336.254C40.0747 333.718 38.7605 331.352 37.7632 328.829C38.6654 328.322 39.6116 327.898 40.5902 327.562C41.5156 327.283 42.6143 328.111 43.3876 327.329C43.4422 326.8 43.4136 326.265 43.3031 325.744C42.0988 325.609 40.8353 325.368 39.6563 325.744C38.6844 326.133 37.7632 326.628 36.804 327.046C35.5954 324.088 33.9939 321.291 32.9079 318.278C34.108 317.711 35.3842 316.841 36.766 317.361C37.4843 317.665 38.1773 317.394 38.845 317.107L38.5281 315.692C36.3138 314.69 33.9221 315.387 31.9233 316.537C30.8162 313.934 29.5147 311.419 28.4033 308.821C30.2161 307.874 32.2487 308.449 34.1756 308.449L34.9574 307.76L34.3996 306.627C32.1346 306.12 29.6457 306.002 27.5201 307.05C25.9989 303.581 24.2579 300.213 22.8085 296.718C25.5425 295.328 28.4751 294.424 31.374 293.456C54.6068 285.568 77.8482 277.693 101.098 269.83C102.733 269.31 104.309 268.562 106.034 268.393C116.454 286.817 127.103 305.115 137.608 323.496C139.374 326.699 141.411 329.763 142.975 333.076C134.844 333.262 126.866 334.817 119.049 336.757ZM98.1442 300.927C100.629 301.235 101.419 304.684 100.084 306.53C99.4204 305.508 99.3654 304.24 98.795 303.179C98.4004 302.492 98.1772 301.719 98.1442 300.927ZM63.7259 324.312C60.9834 325.825 58.1015 322.237 59.4579 319.727C59.8256 318.971 60.7933 319.41 61.4482 319.304C61.4736 319.571 61.5243 320.112 61.5454 320.382C62.2511 321.422 62.7836 322.567 63.5653 323.56C63.6034 323.767 63.6836 324.139 63.7259 324.325V324.312Z" fill="black"/>
<path d="M66.8335 289.37C68.1773 287.963 68.5661 285.567 70.5521 284.76C71.6804 284.337 72.4072 285.453 73.0875 286.129C74.0299 287.058 74.4989 288.318 74.9595 289.535L74.4313 290.46C72.3734 291.419 70.1 291.305 67.9111 290.976C67.1631 292.378 66.6983 293.934 65.6968 295.201C64.9911 296.122 63.6896 295.624 62.9332 295.041C61.4584 293.9 60.0893 292.484 59.354 290.752C58.9568 289.847 59.7005 289.023 60.5584 288.871C62.6712 288.52 64.7629 288.998 66.8208 289.366L66.8335 289.37ZM68.8111 289.551C70.257 289.77 71.7318 289.701 73.1509 289.349C72.8425 288.03 71.8832 287.063 70.9578 286.154C69.9951 287.103 69.261 288.259 68.8111 289.535V289.551ZM60.8542 290.363C61.7257 291.977 63.0351 293.313 64.6319 294.217C65.2685 293.127 65.7937 291.976 66.1997 290.781C64.4164 290.545 62.6416 290.105 60.8542 290.363Z" fill="black"/>
<path d="M71.9102 292.759C76.1456 290.859 80.8943 290.427 85.4028 291.533C84.4731 292.801 82.8674 293.169 81.4898 293.701C78.7811 294.403 75.895 294.927 73.106 294.407C72.2229 294.411 72.206 293.346 71.9102 292.759Z" fill="black"/>
<path d="M72.3379 295.645C77.4087 296.49 83.0458 295.472 87.1278 292.205C87.9476 292.417 89.0505 292.526 89.5196 293.312C87.487 295.996 84.2755 297.361 81.1231 298.219C78.2347 298.873 75.2281 298.79 72.3802 297.978C72.3604 297.194 72.3463 296.417 72.3379 295.645Z" fill="black"/>
<path d="M69.9982 293.566L70.8434 293.473C71.1941 298.265 71.0293 303.281 68.8784 307.671C66.9769 311.149 63.7273 313.638 60.1862 315.278C60.1312 314.306 60.1016 313.346 60.1059 312.383C63.3935 310.059 66.5585 307.219 68.084 303.399C69.4616 300.314 69.3052 296.841 69.9982 293.566Z" fill="black"/>
<path d="M85.145 298.231C87.4902 297.386 89.2143 295.552 91.0187 293.925C91.7835 294.504 92.5653 295.07 93.3471 295.615C92.0793 297.699 90.3891 299.575 88.1748 300.686C84.4393 302.571 80.3573 304.253 76.0851 303.97C74.6568 303.839 73.2539 303.5 71.8594 303.255C72.0411 301.933 72.1805 300.606 72.3369 299.287C76.5372 300.585 81.1644 300.04 85.145 298.231Z" fill="black"/>
<path d="M68.3383 294.711C68.0932 297.732 67.8776 300.864 66.517 303.627C65.038 306.678 62.4941 309.053 59.7559 310.959C59.8995 309.56 60.1784 308.182 60.3432 306.788C61.4926 301.966 64.5901 297.863 68.3383 294.711Z" fill="black"/>
<path d="M441.433 393.936C443.643 393.779 446.229 393.323 448.126 394.781C449.686 396.015 449.762 398.161 449.589 400C449.394 402.852 447.425 405.341 444.94 406.621C442.456 407.902 439.485 408.658 436.649 408.206C434.342 407.695 433.315 405.096 433.569 402.949C433.822 400.802 434.258 398.364 435.787 396.644C437.254 395.077 439.354 394.261 441.437 393.936H441.433ZM438.057 397.553C436.48 398.694 436.172 400.748 435.847 402.531C436.647 401.265 437.645 400.136 438.805 399.188C441.053 397.363 443.998 396.847 446.808 396.653C446.65 396.454 446.449 396.293 446.22 396.183C445.991 396.072 445.74 396.015 445.485 396.015C442.95 395.858 440.165 395.947 438.065 397.544L438.057 397.553ZM442.519 398.707C439.76 399.552 437.668 401.825 436.316 404.293C435.724 405.117 436.594 406.14 437.49 406.118C440.474 406.287 443.651 405.354 445.84 403.262C447.281 401.897 447.569 399.831 447.531 397.946C445.828 398.102 444.108 398.161 442.519 398.707Z" fill="black"/>
<path d="M372.672 408.324C374.097 406.714 376.26 406.042 378.318 405.708C380.118 405.518 382.51 405.438 383.363 407.399C384.496 407.918 385.831 408.383 386.431 409.575C386.827 410.513 386.882 411.56 386.586 412.534C386.291 413.508 385.663 414.348 384.813 414.908C382.1 416.978 378.521 416.966 375.275 416.729C373.273 416.632 371.341 415.106 371.05 413.082C370.957 412.219 371.054 411.345 371.334 410.523C371.615 409.701 372.071 408.951 372.672 408.324Z" fill="black"/>
<path d="M372.831 423.279C374.635 422.886 376.858 422.675 378.358 423.997C379.837 424.961 381.857 425.024 383.006 426.511C385.022 428.772 383.775 432.47 381.392 433.949C379.617 435.128 377.247 434.794 375.565 436.15C372.75 438.212 368.381 437.477 366.387 434.646C365.267 432.918 365.241 430.644 365.913 428.73C367.126 425.886 370.05 424.289 372.831 423.279Z" fill="black"/>
<path d="M426.549 426.275C427.923 425.455 429.981 426.626 429.753 428.274C429.791 430.099 427.217 430.864 426.004 429.655C425.749 429.429 425.555 429.141 425.44 428.82C425.325 428.498 425.294 428.153 425.348 427.815C425.403 427.478 425.541 427.16 425.751 426.891C425.961 426.622 426.236 426.41 426.549 426.275Z" fill="black"/>
<path d="M415.68 432.275C417.442 430.737 420.032 430.488 422.242 431.008C423.316 431.325 423.755 432.44 423.84 433.467C424.917 434.312 426.168 435.098 426.675 436.425C427.343 438.115 427.917 439.996 427.279 441.766C426.498 443.752 424.778 445.21 422.956 446.22C419.998 447.416 416.022 446.524 414.442 443.562C413.597 441.931 414.674 440.11 414.197 438.411C413.673 436.315 414.006 433.805 415.68 432.275Z" fill="black"/>
<path d="M389.93 434.118C391.248 433.864 392.634 433.569 393.974 433.864C396.281 434.786 398.922 434.502 401.086 435.863C403.38 437.317 405.557 439.768 405.278 442.675C405.305 443.651 405.087 444.617 404.644 445.487C404.201 446.357 403.547 447.101 402.742 447.653C400.363 449.453 397.126 449.018 394.413 448.363C392.917 447.911 391.502 448.747 390.086 449.081C387.128 449.618 383.748 449.292 381.436 447.146C379.974 445.979 379.746 443.947 380.004 442.219C380.107 441.227 380.426 440.269 380.937 439.412C381.447 438.556 382.138 437.82 382.962 437.258C385.091 435.825 387.447 434.764 389.93 434.118Z" fill="black"/>
<path d="M196.333 449.157C196.832 449.22 197.846 448.967 197.774 449.808C197.717 451.823 197.174 453.794 196.194 455.555C193.819 458.737 189.712 460.313 185.82 460.283C182.828 460.258 179.76 460.165 176.903 459.21C174.516 457.892 171.6 457.325 168.959 458.154C166.5 458.661 164.205 459.806 161.699 460.093C159.274 460.271 157.051 461.361 154.592 461.445C149.944 461.686 145.295 462.29 140.605 462.054C136.802 461.919 132.998 462.252 129.25 461.479C127.56 461.09 125.773 461.057 124.099 460.524C121.855 459.654 119.278 460.148 117.156 458.897C117.118 458.627 117.042 458.09 117 457.824C119.311 455.749 122.493 455.179 125.342 454.236C130.896 452.655 136.54 451.412 142.244 450.513C146.047 449.956 149.876 450.044 153.696 449.947C158.171 449.829 162.599 450.759 166.821 452.174C169.386 452.884 171.719 454.367 174.402 454.625C176.168 454.49 177.52 453.171 178.957 452.267C180.311 451.293 181.869 450.64 183.512 450.357C185.156 450.075 186.842 450.17 188.444 450.636C190.214 451.4 192.17 451.627 194.068 451.287C195.154 451.029 195.868 450.108 196.337 449.174L196.333 449.157ZM130.704 454.832C127.323 455.8 123.875 456.522 120.681 457.959C122.222 457.967 123.75 458.253 125.189 458.804C128.887 459.455 132.601 460.207 136.379 460.14C140.605 460.072 144.83 460.38 149.027 459.856C152.407 459.641 155.893 459.675 159.13 458.504C158.217 456.467 158.961 454.312 159.684 452.352C156.44 451.899 153.158 451.798 149.893 452.052C143.381 451.912 137.021 453.471 130.704 454.845V454.832ZM181.657 452.918C183.55 453.019 185.528 452.711 187.316 453.531C189.428 454.093 191.964 454.452 193.87 453.231C192.327 453.1 190.721 453.328 189.221 452.808C186.868 451.815 183.905 451.599 181.645 452.905L181.657 452.918ZM161.725 452.838C160.913 454.528 160.246 456.434 161.159 458.221C164.383 457.684 167.375 456.218 170.641 455.834C167.797 454.487 164.805 453.481 161.725 452.838ZM178.125 455.153C179.561 455.069 180.994 454.705 182.439 454.917C185.013 455.229 187.609 455.31 190.198 455.157C189.243 454.993 188.279 454.887 187.345 454.65C184.387 453.607 180.888 453.615 178.125 455.153ZM189.192 456.383C184.894 456.658 180.39 455.001 176.303 457.021C179.092 458.441 182.325 458.449 185.384 458.538C189.035 458.644 193.063 457.224 195.104 454.033C193.422 455.331 191.385 456.324 189.196 456.366L189.192 456.383Z" fill="black"/>
</svg>
